<svg xmlns="http://www.w3.org/2000/svg" xmlns:xlink="http://www.w3.org/1999/xlink" viewBox="0 0 270.25 270.48"><defs><style>.cls-1,.cls-5,.cls-6{fill:none;}.cls-2{clip-path:url(#clip-path);}.cls-3{opacity:0.25;}.cls-4{fill:#303030;}.cls-5,.cls-6{stroke:#303030;stroke-miterlimit:10;}.cls-5{stroke-width:4.33px;}.cls-6{stroke-width:2.35px;}</style><clipPath id="clip-path" transform="translate(0 0)"><rect class="cls-1" x="0.67" y="66.91" width="266" height="138" rx="9.32"/></clipPath></defs><title>Ресурс 41</title><g id="Слой_2" data-name="Слой 2"><g id="Слой_1-2" data-name="Слой 1"><g class="cls-2"><g class="cls-3"><path class="cls-4" d="M227,196.8a14.08,14.08,0,0,0-.26,3.87,3.16,3.16,0,0,0,1.58,2.88,2.38,2.38,0,0,0,1.63.17,1.05,1.05,0,0,1,.82.13.79.79,0,0,1,.29.46,1,1,0,0,1,0,.38,1.72,1.72,0,0,0,0,.37.47.47,0,0,0,.11.28,2.12,2.12,0,0,0,.67.51c.26.09.36.55.34.64s0,.35,0,.52a5.78,5.78,0,0,1-.4,2,7,7,0,0,0-.06-2c-.05-.28-.15-.74-.19-.65a2.39,2.39,0,0,1-1-.58,1.34,1.34,0,0,1-.32-.6,2,2,0,0,1,0-.61c0-.16,0-.11,0,0s0,0-.14,0a3.29,3.29,0,0,1-2.22-.2,3.22,3.22,0,0,1-1.55-1.62,4.68,4.68,0,0,1-.35-2.1A8.89,8.89,0,0,1,227,196.8Z" transform="translate(0 0)"/><path class="cls-4" d="M233.84,200.12a8.18,8.18,0,0,0,.25,1.71,2,2,0,0,0,.39.69,5.39,5.39,0,0,1,.58.7,3,3,0,0,1,.43,1.84,4.36,4.36,0,0,1-.53,1.74,9.4,9.4,0,0,0,.09-1.74,3.31,3.31,0,0,0-.47-1.54,6,6,0,0,0-.53-.68,2.17,2.17,0,0,1-.38-.9A4,4,0,0,1,233.84,200.12Z" transform="translate(0 0)"/><path class="cls-4" d="M233.88,214.39c.14-.72.32-1.44.51-2.15a9.66,9.66,0,0,1,.75-2.17,3.33,3.33,0,0,1,.85-1c.33-.26.64-.45.91-.65a8.62,8.62,0,0,0,1.46-1.36,3.74,3.74,0,0,0,.92-3.38,2.43,2.43,0,0,0-.88-1.44c-.2-.18-.49-.27-.93-.58a1.79,1.79,0,0,1-.71-1.31l.59.4c-.41,0-.85.49-1.29.95a3.53,3.53,0,0,1-.8.63,1.32,1.32,0,0,1-1,.15,1.31,1.31,0,0,0,.8-.4,3.9,3.9,0,0,0,.53-.73,6.26,6.26,0,0,1,.55-.83,2.21,2.21,0,0,1,1-.69l.44-.14.16.54a.83.83,0,0,0,.4.51,10.09,10.09,0,0,1,1,.45,3.77,3.77,0,0,1,1.56,2.09,4.58,4.58,0,0,1,0,2.57,5.7,5.7,0,0,1-1.23,2.16,8.28,8.28,0,0,1-1.85,1.51c-.7.43-1.26.6-1.6,1.1a13.13,13.13,0,0,0-1.05,1.83C234.63,213.12,234.27,213.76,233.88,214.39Z" transform="translate(0 0)"/><path class="cls-5" d="M266.58,157.33a132.56,132.56,0,0,1-43.67,78.1,36.26,36.26,0,1,0-60.06,30,133.53,133.53,0,0,1-95.72-15.91,36.29,36.29,0,0,0,13.33-57.61A36.25,36.25,0,0,0,20,201.71,132.58,132.58,0,0,1,4.05,113c.4-2.42.88-4.8,1.42-7.16A36.27,36.27,0,1,0,36.29,46.16,133.34,133.34,0,0,1,123.66,2.53a35.57,35.57,0,0,0-4.57,11.21,36.26,36.26,0,1,0,70.79-.05A133.48,133.48,0,0,1,257.81,83a36.26,36.26,0,1,0,9.86,66.44C267.41,152,267,154.68,266.58,157.33Z" transform="translate(0 0)"/><path class="cls-4" d="M251.28,184.62a2.85,2.85,0,0,0,.51-1.51,1.43,1.43,0,0,0-.34-1.29,1.91,1.91,0,0,0-.56-.33s0,0-.13,0l-.26.23a3.76,3.76,0,0,0-.75,1.3c-.21.48-.4,1-.67,1.53a8.59,8.59,0,0,1-.92,1.44,8,8,0,0,1-1.17,1.23,1.74,1.74,0,0,1-1.63.4,1.67,1.67,0,0,0,1.37-.67,11.1,11.1,0,0,0,1-1.3,14.81,14.81,0,0,0,1.36-2.93,4.65,4.65,0,0,1,1-1.51,2.72,2.72,0,0,1,.38-.29.83.83,0,0,1,.65-.13,2.06,2.06,0,0,1,.83.54,1.83,1.83,0,0,1,.3,1.8A2.63,2.63,0,0,1,251.28,184.62Z" transform="translate(0 0)"/><path class="cls-4" d="M249.27,182.9a2.12,2.12,0,0,0,0-2,1.19,1.19,0,0,0-.69-.59c-.24-.06-.46.12-.59.39s-.19.66-.32,1a10,10,0,0,1-.43,1.07,9.82,9.82,0,0,1-2.87,3.57,4.27,4.27,0,0,1-2.19.9,7.43,7.43,0,0,1-1.16,0,3,3,0,0,1-1.15-.26,4.7,4.7,0,0,1-.91-.71l-.42-.36-.21-.19s-.07-.06-.1-.11,0-.07,0-.07.06,0,0,0-.08,0,0,0,.07,0,.11.08l.24.14.47.3a4.67,4.67,0,0,0,.94.53,2.63,2.63,0,0,0,1,.12,4.73,4.73,0,0,0,4.39-2.48,10.68,10.68,0,0,0,1.17-1.8c.16-.31.32-.64.45-1a7.24,7.24,0,0,1,.43-1.07,1.31,1.31,0,0,1,.49-.5.94.94,0,0,1,.73-.09,1.58,1.58,0,0,1,.9.89A2.2,2.2,0,0,1,249.27,182.9Z" transform="translate(0 0)"/><path class="cls-4" d="M238.39,176.49a14.19,14.19,0,0,1,3.78,2.38,26.37,26.37,0,0,1,3.18,3.16,37.31,37.31,0,0,1,2.69,3.56l1.18,1.9c.34.66.71,1.3,1,2l-2.7-3.53c-.92-1.14-1.82-2.31-2.79-3.41s-2-2.19-3-3.22c-.52-.51-1.06-1-1.63-1.48A13.54,13.54,0,0,0,238.39,176.49Z" transform="translate(0 0)"/><path class="cls-4" d="M240.48,182.42a2.41,2.41,0,0,1-1.36-.76,2.38,2.38,0,0,1-.68-1.4c.4.36.71.71,1.05,1.06S240.15,182,240.48,182.42Z" transform="translate(0 0)"/><path class="cls-4" d="M135.43,263.88a4.64,4.64,0,0,1-.78-3.12,5,5,0,0,1,1.41-3l.26.59a1.62,1.62,0,0,1-1.14-.42,5.63,5.63,0,0,1-.71-.78,7.65,7.65,0,0,1-1-1.77,8.2,8.2,0,0,1-.61-4l.7.31a9,9,0,0,0-1.1,1.87,3.38,3.38,0,0,1-1.77,1.68c-.89.32-1.73-.32-2.12.17a1.17,1.17,0,0,0,0,1,2.4,2.4,0,0,1,.2,1.12,2.73,2.73,0,0,0-.36-1.06,1.37,1.37,0,0,1-.06-1.22.9.9,0,0,1,.57-.4,2.25,2.25,0,0,1,.63,0,1.83,1.83,0,0,0,1-.07,2.92,2.92,0,0,0,1.33-1.51,9,9,0,0,1,1.13-2.07l.81-.95-.11,1.25a7.86,7.86,0,0,0,.56,3.62,8.23,8.23,0,0,0,.89,1.62c.35.51.79,1,1.19,1l1,0-.72.62A4.87,4.87,0,0,0,135.43,263.88Z" transform="translate(0 0)"/><path class="cls-4" d="M136.39,255.53c-.87.6-1.8,1-2.61,1.57a7.25,7.25,0,0,0-2.13,2,3.77,3.77,0,0,1,1.79-2.56A7.17,7.17,0,0,1,136.39,255.53Z" transform="translate(0 0)"/><path class="cls-4" d="M134.84,253a2,2,0,0,1,.15-1.27,1.92,1.92,0,0,1,.85-.95c-.14.42-.33.75-.47,1.12S135.06,252.61,134.84,253Z" transform="translate(0 0)"/><path class="cls-4" d="M85.62,251a2.9,2.9,0,0,0,1.51.51,1.43,1.43,0,0,0,1.29-.34,1.91,1.91,0,0,0,.33-.56c0-.05,0,0,0-.13a2.85,2.85,0,0,0-.23-.26,4,4,0,0,0-1.29-.76c-.49-.21-1-.4-1.54-.66a9,9,0,0,1-1.43-.93A7.62,7.62,0,0,1,83,246.73a1.71,1.71,0,0,1-.39-1.62,1.66,1.66,0,0,0,.66,1.37,10.32,10.32,0,0,0,1.3,1,14.21,14.21,0,0,0,2.92,1.37,4.54,4.54,0,0,1,1.51,1,3.86,3.86,0,0,1,.3.38.82.82,0,0,1,.12.65,2.06,2.06,0,0,1-.54.83,1.82,1.82,0,0,1-1.81.29A2.62,2.62,0,0,1,85.62,251Z" transform="translate(0 0)"/><path class="cls-4" d="M87.34,249a2.17,2.17,0,0,0,2,0,1.19,1.19,0,0,0,.59-.69c0-.24-.13-.46-.4-.58s-.65-.2-1-.33a10.69,10.69,0,0,1-1.06-.43,9.87,9.87,0,0,1-1.95-1.23,9.74,9.74,0,0,1-1.62-1.65A4.18,4.18,0,0,1,83,242a7.4,7.4,0,0,1,0-1.16,3,3,0,0,1,.27-1.15,4.66,4.66,0,0,1,.7-.91l.37-.42.19-.21a.55.55,0,0,1,.11-.1,0,0,0,0,1,.07,0s0,.06,0,0,0-.08,0,0a.3.3,0,0,0-.07.11l-.15.24-.3.47a4.61,4.61,0,0,0-.52.94,2.6,2.6,0,0,0-.13,1,6.21,6.21,0,0,0,.07,1.07,6.08,6.08,0,0,0,2.4,3.32,10.15,10.15,0,0,0,1.8,1.18c.31.16.64.31,1,.45a7.24,7.24,0,0,1,1.07.43,1.46,1.46,0,0,1,.5.49,1,1,0,0,1,.08.74,1.57,1.57,0,0,1-.88.89A2.21,2.21,0,0,1,87.34,249Z" transform="translate(0 0)"/><path class="cls-4" d="M93.78,238.16a14,14,0,0,1-2.39,3.77,26.45,26.45,0,0,1-3.17,3.18,35.75,35.75,0,0,1-3.57,2.68L82.76,249c-.66.35-1.31.72-2,1l3.53-2.69c1.15-.92,2.32-1.81,3.42-2.78s2.19-1.95,3.23-3c.51-.52,1-1.06,1.48-1.62A14.57,14.57,0,0,0,93.78,238.16Z" transform="translate(0 0)"/><path class="cls-4" d="M87.85,240.24a2.37,2.37,0,0,1,.75-1.36,2.41,2.41,0,0,1,1.4-.68c-.35.4-.71.71-1,1.05S88.27,239.9,87.85,240.24Z" transform="translate(0 0)"/><path class="cls-4" d="M121.46,260.45c-1.25-1.12-2.46-2.29-3.67-3.45s-2.38-2.35-3.56-3.54c-2.35-2.4-4.66-4.82-6.92-7.3l1-.46c.55,4.72,1,9.45,1.22,14.21-1-4.66-1.72-9.36-2.36-14.07l-.24-1.75,1.23,1.29q3.46,3.63,6.81,7.39c1.11,1.25,2.22,2.51,3.31,3.79S120.42,259.13,121.46,260.45Z" transform="translate(0 0)"/><path class="cls-4" d="M112.4,254.54c-1.2.88-2.44,1.68-3.7,2.44s-2.55,1.49-3.85,2.17l-.47.25.11-.5c.23-1.06.47-2.12.79-3.17-.06,1.09-.19,2.17-.32,3.25l-.35-.24c1.24-.79,2.52-1.53,3.81-2.24S111,255.13,112.4,254.54Z" transform="translate(0 0)"/><path class="cls-4" d="M26.81,156.12a14.1,14.1,0,0,0-2.55-2.93,3.16,3.16,0,0,0-3.15-.94,2.43,2.43,0,0,0-1.28,1,1,1,0,0,1-.66.49.82.82,0,0,1-.54-.12,1.14,1.14,0,0,1-.27-.27,1.86,1.86,0,0,0-.23-.3.61.61,0,0,0-.27-.12,2.12,2.12,0,0,0-.84.12c-.25.12-.64-.15-.69-.22l-.38-.35a5.58,5.58,0,0,1-1.11-1.68,7.38,7.38,0,0,0,1.41,1.33c.24.17.63.42.59.33a2.43,2.43,0,0,1,1.09-.26,1.36,1.36,0,0,1,.65.2,2.12,2.12,0,0,1,.43.43c.1.12.09.06,0,.06s0,0,.07-.13A3.16,3.16,0,0,1,23,151.42a4.89,4.89,0,0,1,1.74,1.24A8.94,8.94,0,0,1,26.81,156.12Z" transform="translate(0 0)"/><path class="cls-4" d="M19.64,158.55a8.25,8.25,0,0,0-1.39-1,2,2,0,0,0-.75-.21,6,6,0,0,1-.91-.08,3.07,3.07,0,0,1-1.6-1,4.46,4.46,0,0,1-.85-1.61,9.83,9.83,0,0,0,1.16,1.3,3.4,3.4,0,0,0,1.42.76,6.7,6.7,0,0,0,.86.11,2.15,2.15,0,0,1,.9.37A4,4,0,0,1,19.64,158.55Z" transform="translate(0 0)"/><path class="cls-4" d="M9.55,148.45c.41.62.79,1.25,1.16,1.89a9.7,9.7,0,0,1,1,2.07,3.3,3.3,0,0,1,.08,1.29c0,.42-.13.78-.18,1.1a8,8,0,0,0-.08,2,3.74,3.74,0,0,0,1.73,3,2.45,2.45,0,0,0,1.64.4c.26,0,.54-.16,1.07-.25a1.78,1.78,0,0,1,1.42.43l-.7.13a2.62,2.62,0,0,0,.25-1.58,3.46,3.46,0,0,1,.13-1,1.33,1.33,0,0,1,.58-.8,1.3,1.3,0,0,0-.28.85,3.91,3.91,0,0,0,.13.89,5.47,5.47,0,0,1,.2,1,2.13,2.13,0,0,1-.19,1.16l-.21.41-.49-.27a.88.88,0,0,0-.65-.09,9.5,9.5,0,0,1-1,.39,3.79,3.79,0,0,1-2.59-.38,4.62,4.62,0,0,1-1.83-1.81,5.74,5.74,0,0,1-.65-2.4,8,8,0,0,1,.25-2.36,4.78,4.78,0,0,0,.36-1.92,12.63,12.63,0,0,0-.55-2C9.92,149.89,9.72,149.18,9.55,148.45Z" transform="translate(0 0)"/><path class="cls-4" d="M18.19,181.84a2.93,2.93,0,0,0,.71,1.43,1.43,1.43,0,0,0,1.15.68,2,2,0,0,0,.63-.17s0,0,.05-.13a1.27,1.27,0,0,0,0-.34,3.79,3.79,0,0,0-.37-1.45c-.19-.49-.44-1-.61-1.56a8.57,8.57,0,0,1-.36-1.67,8,8,0,0,1,0-1.7,1.72,1.72,0,0,1,.88-1.42,1.64,1.64,0,0,0-.5,1.44,10.78,10.78,0,0,0,.24,1.58,14.56,14.56,0,0,0,1.09,3,4.36,4.36,0,0,1,.39,1.75,1.89,1.89,0,0,1-.06.47.81.81,0,0,1-.37.55,1.92,1.92,0,0,1-1,.2,1.79,1.79,0,0,1-1.48-1.06A2.68,2.68,0,0,1,18.19,181.84Z" transform="translate(0 0)"/><path class="cls-4" d="M20.83,181.64a2.18,2.18,0,0,0,1.42,1.47,1.23,1.23,0,0,0,.9-.07.57.57,0,0,0,.14-.7c-.1-.27-.33-.6-.49-1a9.91,9.91,0,0,1-.45-1.06,10.11,10.11,0,0,1-.51-2.24,9.92,9.92,0,0,1,0-2.31,4.19,4.19,0,0,1,.92-2.19,8.77,8.77,0,0,1,.84-.79,3.14,3.14,0,0,1,1-.63,4.56,4.56,0,0,1,1.14-.14l.56,0h.28a.34.34,0,0,1,.14,0s.06,0,0,.07-.07,0-.06,0,.08,0,0,0a.34.34,0,0,0-.13,0l-.27.07-.54.12a4.52,4.52,0,0,0-1,.29,2.66,2.66,0,0,0-.81.63,6.64,6.64,0,0,0-.71.81,6.09,6.09,0,0,0-.65,4A10,10,0,0,0,23,180.1c.11.35.23.68.37,1a7.34,7.34,0,0,1,.45,1.07,1.34,1.34,0,0,1,0,.69.92.92,0,0,1-.46.58,1.62,1.62,0,0,1-1.26,0A2.23,2.23,0,0,1,20.83,181.64Z" transform="translate(0 0)"/><path class="cls-4" d="M33.07,178.52a14.15,14.15,0,0,1-4.36,1,25.78,25.78,0,0,1-4.48,0,34.58,34.58,0,0,1-4.42-.63l-2.17-.51c-.71-.22-1.43-.42-2.13-.66l4.4.6c1.46.16,2.92.35,4.38.45s2.93.18,4.39.17c.74,0,1.47,0,2.2-.1A13.55,13.55,0,0,0,33.07,178.52Z" transform="translate(0 0)"/><path class="cls-4" d="M27.41,175.79a2.48,2.48,0,0,1,1.5-.43,2.42,2.42,0,0,1,1.47.52c-.54,0-1,0-1.49,0S27.94,175.85,27.41,175.79Z" transform="translate(0 0)"/><path class="cls-4" d="M6.6,135a4.65,4.65,0,0,1,3.12-.77,5,5,0,0,1,3,1.42l-.59.25a1.58,1.58,0,0,1,.43-1.14,5.06,5.06,0,0,1,.77-.71,8,8,0,0,1,1.77-1,8.21,8.21,0,0,1,4-.59l-.3.7A8.8,8.8,0,0,0,17,132a3.4,3.4,0,0,1-1.68-1.78c-.32-.88.32-1.72-.17-2.11a1.12,1.12,0,0,0-1-.05,2.58,2.58,0,0,1-1.13.2,2.92,2.92,0,0,0,1.06-.37,1.37,1.37,0,0,1,1.22-.05.87.87,0,0,1,.4.57,1.92,1.92,0,0,1,0,.63,1.83,1.83,0,0,0,.08,1,2.86,2.86,0,0,0,1.5,1.33,9.09,9.09,0,0,1,2.07,1.14l.95.81L19,133.24a7.9,7.9,0,0,0-3.62.56,8,8,0,0,0-1.62.89c-.51.35-1,.78-1,1.18l0,1-.62-.72A4.87,4.87,0,0,0,6.6,135Z" transform="translate(0 0)"/><path class="cls-4" d="M15,136c-.6-.87-1-1.79-1.56-2.61a7.37,7.37,0,0,0-2-2.13A3.77,3.77,0,0,1,13.91,133,7.2,7.2,0,0,1,15,136Z" transform="translate(0 0)"/><path class="cls-4" d="M17.48,134.45a2.12,2.12,0,0,1,1.27.15,2,2,0,0,1,.95.86c-.42-.14-.75-.34-1.12-.48S17.87,134.68,17.48,134.45Z" transform="translate(0 0)"/><path class="cls-4" d="M88.88,18a2.9,2.9,0,0,0-1.42.71,1.41,1.41,0,0,0-.69,1.15,2,2,0,0,0,.17.63s0,0,.12,0l.35,0a3.79,3.79,0,0,0,1.45-.37c.49-.19,1-.44,1.56-.61a9.56,9.56,0,0,1,1.67-.36,8.75,8.75,0,0,1,1.7,0,1.72,1.72,0,0,1,1.42.88,1.64,1.64,0,0,0-1.44-.5,10.78,10.78,0,0,0-1.58.24,15.12,15.12,0,0,0-3,1.08,4.36,4.36,0,0,1-1.75.39l-.48-.06a.84.84,0,0,1-.55-.38,2,2,0,0,1-.19-1,1.8,1.8,0,0,1,1.07-1.48A2.73,2.73,0,0,1,88.88,18Z" transform="translate(0 0)"/><path class="cls-4" d="M89.08,20.59A2.15,2.15,0,0,0,87.61,22a1.21,1.21,0,0,0,.07.91.55.55,0,0,0,.69.14c.28-.1.6-.33.95-.49a9.47,9.47,0,0,1,3.31-.95,9.4,9.4,0,0,1,2.31,0,4.29,4.29,0,0,1,2.18.93,7.89,7.89,0,0,1,.8.84,3.12,3.12,0,0,1,.62,1,4.56,4.56,0,0,1,.14,1.14l0,.56v.28a.65.65,0,0,1,0,.14s0,.06-.07,0,0-.07,0-.06,0,.08,0,0,0-.08,0-.13l-.07-.27-.12-.54a4.52,4.52,0,0,0-.29-1,2.66,2.66,0,0,0-.63-.81,6.57,6.57,0,0,0-.8-.71,6.12,6.12,0,0,0-4.05-.67,10.06,10.06,0,0,0-2.1.44,9.35,9.35,0,0,0-1,.36,7.34,7.34,0,0,1-1.07.45,1.34,1.34,0,0,1-.69,0,.92.92,0,0,1-.58-.46,1.58,1.58,0,0,1,0-1.26A2.23,2.23,0,0,1,89.08,20.59Z" transform="translate(0 0)"/><path class="cls-4" d="M92.17,32.84a14.2,14.2,0,0,1-1-4.36,26.81,26.81,0,0,1,0-4.48,34.35,34.35,0,0,1,.64-4.42l.51-2.17c.23-.71.43-1.43.67-2.13l-.61,4.39c-.16,1.47-.36,2.92-.46,4.39s-.18,2.92-.18,4.39c0,.73,0,1.46.09,2.2A14.94,14.94,0,0,0,92.17,32.84Z" transform="translate(0 0)"/><path class="cls-4" d="M94.91,27.18a2.56,2.56,0,0,1-.09,3c0-.54,0-1,0-1.49S94.85,27.72,94.91,27.18Z" transform="translate(0 0)"/><path class="cls-4" d="M56.82,36.54c1.68-.08,3.36-.11,5-.14s3.35,0,5,0c3.35.05,6.7.14,10,.3l-.37,1c-3.72-3-7.38-6-10.89-9.22,4,2.61,7.82,5.42,11.6,8.31l1.4,1.07-1.78,0q-5-.14-10-.44c-1.67-.11-3.35-.22-5-.36S58.49,36.75,56.82,36.54Z" transform="translate(0 0)"/><path class="cls-4" d="M67.42,34.34c.23-1.46.55-2.9.9-4.33s.76-2.85,1.21-4.26l.16-.5.26.43c.59.92,1.17,1.84,1.68,2.8-.73-.81-1.4-1.67-2.07-2.53l.43-.07c-.33,1.43-.72,2.86-1.13,4.27S68,33,67.42,34.34Z" transform="translate(0 0)"/><path class="cls-4" d="M197.51,43.83a14.5,14.5,0,0,0,3.87.28,3.15,3.15,0,0,0,2.89-1.56,2.45,2.45,0,0,0,.19-1.63,1,1,0,0,1,.12-.82.82.82,0,0,1,.47-.29,1.19,1.19,0,0,1,.38,0,1.39,1.39,0,0,0,.37,0,.53.53,0,0,0,.28-.11,1.89,1.89,0,0,0,.51-.67c.1-.26.56-.35.65-.33l.52,0a5.68,5.68,0,0,1,2,.41,7,7,0,0,0-1.94,0c-.29.05-.74.14-.65.19a2.52,2.52,0,0,1-.59.94,1.24,1.24,0,0,1-.61.32,1.69,1.69,0,0,1-.61,0c-.16,0-.1,0-.05,0s0,0,.05.14a3.23,3.23,0,0,1-.21,2.22,3.18,3.18,0,0,1-1.63,1.54,4.71,4.71,0,0,1-2.1.34A8.91,8.91,0,0,1,197.51,43.83Z" transform="translate(0 0)"/><path class="cls-4" d="M200.88,37.05a8.3,8.3,0,0,0,1.71-.24,2,2,0,0,0,.69-.39,6.16,6.16,0,0,1,.7-.58,3,3,0,0,1,1.84-.41,4.32,4.32,0,0,1,1.74.54,9.43,9.43,0,0,0-1.74-.1,3.23,3.23,0,0,0-1.54.46,5.87,5.87,0,0,0-.68.52,2,2,0,0,1-.91.38A4.07,4.07,0,0,1,200.88,37.05Z" transform="translate(0 0)"/><path class="cls-4" d="M215.15,37.1c-.72-.15-1.44-.33-2.15-.53a9.46,9.46,0,0,1-2.16-.76,3.24,3.24,0,0,1-1-.86c-.26-.33-.45-.64-.64-.91a8.64,8.64,0,0,0-1.35-1.47,3.74,3.74,0,0,0-3.38-.94,2.47,2.47,0,0,0-1.45.87c-.18.19-.27.49-.58.93a1.81,1.81,0,0,1-1.31.7l.4-.59c0,.41.48.86.94,1.3a3.24,3.24,0,0,1,.62.8,1.32,1.32,0,0,1,.15,1,1.33,1.33,0,0,0-.4-.8,3.87,3.87,0,0,0-.72-.54,5.67,5.67,0,0,1-.83-.55,2.1,2.1,0,0,1-.68-1l-.14-.43.54-.16a.83.83,0,0,0,.51-.4c.1-.16.21-.59.46-1a3.76,3.76,0,0,1,2.1-1.56,4.68,4.68,0,0,1,2.57,0,5.81,5.81,0,0,1,2.16,1.25,8.18,8.18,0,0,1,1.49,1.85c.42.71.59,1.27,1.09,1.62A13.13,13.13,0,0,0,213.24,36C213.88,36.34,214.52,36.7,215.15,37.1Z" transform="translate(0 0)"/><path class="cls-4" d="M226.71,44.54A4.56,4.56,0,0,1,225,47.29a5,5,0,0,1-3.13,1.12l.24-.6a1.58,1.58,0,0,1,.5,1.11,5.1,5.1,0,0,1-.05,1,7.86,7.86,0,0,1-.53,2,8.07,8.07,0,0,1-2.43,3.26l-.27-.71a9.65,9.65,0,0,0,2.1-.53,3.4,3.4,0,0,1,2.45.07c.85.4,1,1.45,1.6,1.38a1.08,1.08,0,0,0,.73-.65,2.55,2.55,0,0,1,.66-.93,2.75,2.75,0,0,0-.49,1,1.37,1.37,0,0,1-.83.9.93.93,0,0,1-.69-.12,2.09,2.09,0,0,1-.45-.44,1.83,1.83,0,0,0-.76-.65,2.89,2.89,0,0,0-2,.11,8.83,8.83,0,0,1-2.28.65l-1.24.1,1-.8a8,8,0,0,0,2.18-2.95,8.37,8.37,0,0,0,.52-1.77c.11-.61.15-1.26-.14-1.54l-.71-.67.95.08A4.87,4.87,0,0,0,226.71,44.54Z" transform="translate(0 0)"/><path class="cls-4" d="M220.11,49.74c1,.2,2,.56,2.94.75a7.53,7.53,0,0,0,3,.08,3.79,3.79,0,0,1-3.08.53A7.12,7.12,0,0,1,220.11,49.74Z" transform="translate(0 0)"/><path class="cls-4" d="M219.39,52.62a2.09,2.09,0,0,1-2.28.85c.4-.2.77-.29,1.13-.45S219,52.73,219.39,52.62Z" transform="translate(0 0)"/><path class="cls-4" d="M234.1,56.89c.08,1.67.1,3.35.13,5s0,3.35,0,5c-.06,3.35-.15,6.7-.32,10l-1-.37c3-3.71,6-7.37,9.24-10.87-2.63,4-5.45,7.81-8.34,11.58l-1.08,1.4.05-1.78c.1-3.35.26-6.7.46-10,.11-1.67.23-3.34.38-5S233.89,58.55,234.1,56.89Z" transform="translate(0 0)"/><path class="cls-4" d="M236.28,67.49c1.46.23,2.9.55,4.33.91s2.85.76,4.26,1.21l.5.16-.43.27c-.92.58-1.84,1.16-2.81,1.67.82-.73,1.68-1.4,2.53-2.07l.08.43c-1.44-.33-2.86-.72-4.27-1.14S237.66,68,236.28,67.49Z" transform="translate(0 0)"/><path class="cls-4" d="M133.75,4.93c5.82,5.86,11.32,12,16.78,18.15,2.69,3.11,5.41,6.2,8.05,9.36s5.29,6.3,7.9,9.48l-2.49,1c-.2-2.91-.32-5.83-.47-8.74s-.24-5.83-.36-8.75-.18-5.84-.21-8.76,0-5.85,0-8.78c.46,2.9.86,5.79,1.22,8.69s.7,5.8,1,8.71.62,5.8.87,8.71.54,5.81.75,8.72l.3,4.29-2.79-3.28c-2.67-3.14-5.32-6.28-7.93-9.47s-5.19-6.38-7.77-9.59C143.53,18.2,138.48,11.7,133.75,4.93Z" transform="translate(0 0)"/><path class="cls-4" d="M155.16,20.68c3.05-2,6.21-3.78,9.41-5.48,1.6-.84,3.21-1.68,4.84-2.47s3.26-1.57,4.91-2.33l1.17-.53-.33,1.2c-.7,2.58-1.46,5.14-2.37,7.67.28-2.67.72-5.31,1.21-7.94l.85.67q-2.39,1.3-4.8,2.54c-1.61.84-3.24,1.62-4.87,2.4C161.9,18,158.59,19.43,155.16,20.68Z" transform="translate(0 0)"/><path class="cls-4" d="M258.65,93.31c-3.77,7.35-7.89,14.48-12.06,21.57-2.11,3.53-4.21,7.07-6.4,10.56s-4.34,7-6.56,10.45l-1.72-2c2.7-1.1,5.44-2.11,8.16-3.16s5.47-2,8.21-3.06,5.49-2,8.26-2.91,5.54-1.86,8.34-2.72q-3.9,2-7.88,3.86c-2.64,1.26-5.3,2.45-8,3.66s-5.32,2.39-8,3.53-5.36,2.31-8.06,3.41l-4,1.62,2.26-3.67c2.16-3.51,4.32-7,6.54-10.47s4.46-6.92,6.71-10.36C249.06,106.72,253.68,99.9,258.65,93.31Z" transform="translate(0 0)"/><path class="cls-4" d="M250.32,118.55c2.85,2.27,5.51,4.73,8.12,7.24,1.3,1.27,2.59,2.53,3.85,3.84s2.5,2.61,3.73,3.94l.87,1-1.24.06c-2.67.13-5.34.21-8,.13,2.63-.56,5.28-1,7.92-1.31l-.36,1c-1.32-1.24-2.63-2.49-3.91-3.78s-2.54-2.57-3.79-3.88C255,124.11,252.56,121.42,250.32,118.55Z" transform="translate(0 0)"/><path class="cls-4" d="M213.35,239.45c-8.16-1.3-16.21-3-24.26-4.77-4-.92-8-1.82-12-2.81s-8-2-12-3l1.42-2.28c1.88,2.23,3.7,4.52,5.54,6.78s3.63,4.57,5.45,6.86,3.58,4.61,5.33,7,3.48,4.69,5.17,7.08c-2.08-2.06-4.11-4.17-6.11-6.3s-4-4.27-6-6.43-3.93-4.32-5.84-6.53-3.86-4.37-5.74-6.6l-2.78-3.29,4.2,1c4,1,8,1.94,12,3s8,2.09,11.94,3.16C197.62,234.49,205.53,236.77,213.35,239.45Z" transform="translate(0 0)"/><path class="cls-4" d="M186.77,239.36c-1.28,3.41-2.79,6.71-4.37,10-.81,1.62-1.6,3.24-2.46,4.84s-1.7,3.19-2.59,4.77l-.63,1.13-.45-1.17c-1-2.49-1.85-5-2.6-7.59,1.35,2.32,2.55,4.72,3.7,7.13l-1.08,0q1.16-2.46,2.38-4.89c.8-1.62,1.66-3.21,2.52-4.81C182.92,245.52,184.73,242.38,186.77,239.36Z" transform="translate(0 0)"/><path class="cls-4" d="M60.36,241.69c-1.29-8.16-2.17-16.35-3-24.54-.37-4.1-.76-8.19-1.06-12.3s-.6-8.2-.86-12.31l2.61.64c-1.54,2.48-3.15,4.92-4.73,7.37s-3.22,4.87-4.83,7.3-3.28,4.84-5,7.23-3.38,4.77-5.14,7.11q2-3.91,4.1-7.76c1.38-2.57,2.83-5.11,4.26-7.65s2.9-5.07,4.4-7.57,3-5,4.5-7.51L57.94,188l.34,4.3c.32,4.1.64,8.2.88,12.31s.48,8.22.69,12.33C60.2,225.2,60.48,233.43,60.36,241.69Z" transform="translate(0 0)"/><path class="cls-4" d="M52.21,216.39c-3.64-.16-7.25-.57-10.83-1.07-1.8-.26-3.59-.51-5.37-.83s-3.57-.63-5.34-1l-1.27-.26,1-.78c2.08-1.68,4.19-3.32,6.41-4.83-1.79,2-3.69,3.88-5.63,5.73l-.29-1c1.79.23,3.59.47,5.38.75s3.57.58,5.35.9C45.15,214.64,48.7,215.39,52.21,216.39Z" transform="translate(0 0)"/><path class="cls-4" d="M10.8,96.93c7.36-3.76,14.87-7.13,22.41-10.44,3.78-1.62,7.55-3.27,11.36-4.82S52.19,78.56,56,77l.2,2.68c-2.83-.7-5.65-1.48-8.47-2.22S42.11,76,39.3,75.17s-5.61-1.61-8.41-2.47S25.31,71,22.54,70c2.89.44,5.77,1,8.64,1.49s5.74,1.11,8.6,1.68S45.5,74.37,48.35,75s5.7,1.25,8.53,2l4.18,1-4,1.65c-3.8,1.58-7.61,3.15-11.43,4.66s-7.67,3-11.51,4.47C26.43,91.66,18.7,94.49,10.8,96.93Z" transform="translate(0 0)"/><path class="cls-4" d="M32.33,81.34c-1-3.52-1.7-7.07-2.34-10.63-.31-1.79-.63-3.57-.88-5.36s-.5-3.59-.72-5.39l-.15-1.28,1,.68c2.25,1.46,4.46,3,6.59,4.6-2.46-1.08-4.84-2.31-7.19-3.58l.89-.6c.34,1.78.67,3.56,1,5.35s.55,3.58.8,5.37C31.8,74.09,32.19,77.69,32.33,81.34Z" transform="translate(0 0)"/></g><g class="cls-3"><path class="cls-4" d="M175.05,179.57c-.13.34-.28.66-.4,1a10.11,10.11,0,0,0-.27,1,1.72,1.72,0,0,0,.45,1.73,1.24,1.24,0,0,0,.83.31.6.6,0,0,1,.41.17.47.47,0,0,1,.05.49c-.09.2-.1.2-.06.35a4.33,4.33,0,0,0,.29.38.38.38,0,0,1,.09.36l-.06.28a3.17,3.17,0,0,1-.47,1,4.12,4.12,0,0,0,.22-1c0-.16.05-.39,0-.38a3.3,3.3,0,0,1-.41-.42.83.83,0,0,1-.09-.36,1.15,1.15,0,0,1,.09-.32c0-.08,0,0,0,0s0,0-.08,0a1.8,1.8,0,0,1-1.14-.4,1.78,1.78,0,0,1-.6-1.07,2.61,2.61,0,0,1,.1-1.15,7.42,7.42,0,0,1,.42-1C174.62,180.15,174.83,179.85,175.05,179.57Z" transform="translate(0 0)"/><path class="cls-4" d="M178.17,182.23a4.4,4.4,0,0,0-.1.93,2.44,2.44,0,0,0,.33.86,2,2,0,0,1-.54,1.87,2.63,2.63,0,0,0,.24-1.78c-.07-.25-.32-.58-.26-1A2.12,2.12,0,0,1,178.17,182.23Z" transform="translate(0 0)"/><path class="cls-4" d="M176.27,189.73c.17-.36.37-.71.56-1.06a5.45,5.45,0,0,1,.68-1,2.84,2.84,0,0,1,1.15-.62,4.17,4.17,0,0,0,1-.52,2,2,0,0,0,.94-1.65,1.31,1.31,0,0,0-.27-.87,4.07,4.07,0,0,0-.42-.43,1,1,0,0,1-.19-.79l.26.29a1.5,1.5,0,0,0-.81.32,1.07,1.07,0,0,1-1,.18,1,1,0,0,0,.85-.41,1.6,1.6,0,0,1,1-.6l.24,0,0,.32a.43.43,0,0,0,.14.32,5,5,0,0,1,.46.37,2,2,0,0,1,.54,1.31,2.46,2.46,0,0,1-.33,1.35,3,3,0,0,1-.94,1,3.87,3.87,0,0,1-1.17.54,2.7,2.7,0,0,0-1,.37,7,7,0,0,0-.8.82C176.83,189.16,176.56,189.45,176.27,189.73Z" transform="translate(0 0)"/><path class="cls-6" d="M201.13,164.16a71.88,71.88,0,0,1-33.45,35.15,19.67,19.67,0,1,0-38.78-.3,19.41,19.41,0,0,0,3.19,8,72.42,72.42,0,0,1-48.15-21.24,19.67,19.67,0,1,0-18.33-31.47,72,72,0,0,1,3.55-48.75c.55-1.22,1.11-2.4,1.72-3.57A19.67,19.67,0,1,0,95.1,74.76a72.33,72.33,0,0,1,51.77-11.17,19.66,19.66,0,1,0,33.29,14.78,72.4,72.4,0,0,1,26.37,45.54,19.66,19.66,0,1,0-3.76,36.23C202.28,161.48,201.72,162.82,201.13,164.16Z" transform="translate(0 0)"/><path class="cls-4" d="M189.42,176.43a1.51,1.51,0,0,0,.47-.72c.1-.26.16-.55,0-.73a1.15,1.15,0,0,0-.23-.25.58.58,0,0,0-.25.1,2.1,2.1,0,0,0-.57.58,6.27,6.27,0,0,1-1.23,1.35,5.69,5.69,0,0,1-.78.49,1,1,0,0,1-.91,0,.94.94,0,0,0,.81-.17,5,5,0,0,0,.67-.55,7.4,7.4,0,0,0,1.11-1.36,2.5,2.5,0,0,1,.71-.66,1.33,1.33,0,0,1,.24-.1.43.43,0,0,1,.35,0,1,1,0,0,1,.36.42.94.94,0,0,1-.08,1A1.42,1.42,0,0,1,189.42,176.43Z" transform="translate(0 0)"/><path class="cls-4" d="M188.59,175.26a1.16,1.16,0,0,0,.29-1.07.63.63,0,0,0-.28-.4.29.29,0,0,0-.36.14,6.39,6.39,0,0,1-1.58,1.85,6.14,6.14,0,0,1-1.09.62,2.1,2.1,0,0,1-1.26.17,2.61,2.61,0,0,1-1.18-.46c-.13-.16-.28-.32-.39-.48l-.17-.25-.08-.13a.43.43,0,0,1,0-.07c0-.05.07,0,0,0s0,0,0,.06l.11.11.21.22a5.22,5.22,0,0,0,.43.39,2.6,2.6,0,0,0,1.08.31,3.14,3.14,0,0,0,2.07-.81,4.93,4.93,0,0,0,.86-.78c.28-.29.44-.61.75-1a.57.57,0,0,1,.71-.15.86.86,0,0,1,.35.59A1.19,1.19,0,0,1,188.59,175.26Z" transform="translate(0 0)"/><path class="cls-4" d="M183.74,170.43a7.56,7.56,0,0,1,1.67,1.76,16.08,16.08,0,0,1,1.24,2.08,23,23,0,0,1,.93,2.24l.37,1.15c.09.39.2.78.28,1.18-.64-1.48-1.22-3-1.95-4.39a21.15,21.15,0,0,0-1.14-2.09A12,12,0,0,0,183.74,170.43Z" transform="translate(0 0)"/><path class="cls-4" d="M184,173.82a1.37,1.37,0,0,1-.61-.58,1.32,1.32,0,0,1-.17-.83c.17.24.27.48.41.7S183.93,173.55,184,173.82Z" transform="translate(0 0)"/><path class="cls-4" d="M117.89,202.49a2.66,2.66,0,0,1,1.16-3.14l0,.34c-.51-.12-.66-.58-.8-.88a4.44,4.44,0,0,1-.31-1.06,4.31,4.31,0,0,1,.23-2.19l.31.25a4.72,4.72,0,0,0-.83.84,1.82,1.82,0,0,1-1.15.64c-.51.05-.87-.4-1.14-.19s0,.74-.2,1.12c.1-.39-.26-.82.08-1.25a.65.65,0,0,1,.69-.06,1.06,1.06,0,0,0,.54.09,1.55,1.55,0,0,0,.9-.61,5.08,5.08,0,0,1,.88-.93l.52-.37-.21.61a4.47,4.47,0,0,0-.19,2,4.2,4.2,0,0,0,.25,1c.12.31.29.62.5.67l.52.11-.47.23A2.65,2.65,0,0,0,117.89,202.49Z" transform="translate(0 0)"/><path class="cls-4" d="M119.51,198.23c-.53.2-1.08.28-1.58.47a3.73,3.73,0,0,0-1.39.79,2.08,2.08,0,0,1,1.28-1.11A3.9,3.9,0,0,1,119.51,198.23Z" transform="translate(0 0)"/><path class="cls-4" d="M119,196.69a1.13,1.13,0,0,1,.83-1C119.59,196,119.35,196.33,119,196.69Z" transform="translate(0 0)"/><path class="cls-4" d="M93.45,189a1.61,1.61,0,0,0,.72.48c.26.09.55.16.73,0s.23-.17.25-.24a.52.52,0,0,0-.1-.24,2,2,0,0,0-.58-.57,6.27,6.27,0,0,1-1.34-1.24,4.86,4.86,0,0,1-.49-.78,1,1,0,0,1,0-.91.91.91,0,0,0,.17.81,4.43,4.43,0,0,0,.55.68,7.33,7.33,0,0,0,1.35,1.11,2.5,2.5,0,0,1,.66.71.87.87,0,0,1,.1.24.43.43,0,0,1,0,.35,1,1,0,0,1-.42.36,1,1,0,0,1-1-.08A1.44,1.44,0,0,1,93.45,189Z" transform="translate(0 0)"/><path class="cls-4" d="M94.62,188.21a1.16,1.16,0,0,0,1.07.29.6.6,0,0,0,.4-.28.29.29,0,0,0-.13-.36,6.39,6.39,0,0,1-1.85-1.58,5.58,5.58,0,0,1-.62-1.09,2.13,2.13,0,0,1-.17-1.27,2.69,2.69,0,0,1,.46-1.17c.17-.13.32-.28.49-.39l.25-.17.13-.08.07,0s0,.06,0,0,0,0,0,0l-.11.11-.22.2a5.23,5.23,0,0,0-.4.43,2.46,2.46,0,0,0-.3,1.09,3.08,3.08,0,0,0,.8,2.07,5.77,5.77,0,0,0,.78.86c.29.28.61.44,1,.75a.57.57,0,0,1,.14.71.86.86,0,0,1-.59.35A1.2,1.2,0,0,1,94.62,188.21Z" transform="translate(0 0)"/><path class="cls-4" d="M99.47,183.37A7.76,7.76,0,0,1,97.7,185a15.63,15.63,0,0,1-2.08,1.24,23,23,0,0,1-2.24.93l-1.16.36c-.39.09-.78.2-1.17.28,1.48-.64,3-1.21,4.38-1.94a23.54,23.54,0,0,0,2.1-1.13A13.26,13.26,0,0,0,99.47,183.37Z" transform="translate(0 0)"/><path class="cls-4" d="M96.07,183.66a1.37,1.37,0,0,1,.58-.61,1.35,1.35,0,0,1,.83-.17c-.24.17-.47.27-.7.41S96.34,183.55,96.07,183.66Z" transform="translate(0 0)"/><path class="cls-4" d="M111,198.8c-1-1.52-1.93-3.08-2.86-4.64s-1.81-3.16-2.64-4.77l.56-.11c-.17,1.28-.34,2.56-.56,3.83s-.43,2.54-.7,3.81c.06-1.3.15-2.58.27-3.87s.25-2.56.39-3.84l.1-.91.47.8c.91,1.57,1.73,3.19,2.59,4.79S110.27,197.14,111,198.8Z" transform="translate(0 0)"/><path class="cls-4" d="M107.05,194.48a23.57,23.57,0,0,1-2.28.78c-.76.24-1.54.43-2.31.63l-.28.07.12-.25c.27-.53.54-1.06.84-1.57-.17.57-.38,1.12-.6,1.67l-.15-.18c.76-.23,1.53-.46,2.31-.65S106.25,194.61,107.05,194.48Z" transform="translate(0 0)"/><path class="cls-4" d="M75.32,131.25c-.15-.33-.27-.66-.41-1a8.86,8.86,0,0,0-.53-.9,1.7,1.7,0,0,0-1.53-.91,1.3,1.3,0,0,0-.81.36.54.54,0,0,1-.41.17.48.48,0,0,1-.38-.31c-.07-.2-.07-.21-.2-.29a3.94,3.94,0,0,0-.47-.06.4.4,0,0,1-.32-.2c-.06-.08-.11-.16-.16-.24a2.93,2.93,0,0,1-.35-1,3.53,3.53,0,0,0,.56.89c.11.12.25.32.28.26a2.36,2.36,0,0,1,.59,0,.67.67,0,0,1,.32.19,1,1,0,0,1,.16.29c0,.07,0,0,0,0s0,0,.06-.07a1.73,1.73,0,0,1,2.26-.18,2.58,2.58,0,0,1,.74.88,7.54,7.54,0,0,1,.42,1C75.21,130.54,75.28,130.9,75.32,131.25Z" transform="translate(0 0)"/><path class="cls-4" d="M71.23,131.57a3.62,3.62,0,0,0-.59-.73c-.21-.22-.5-.24-.83-.38a2,2,0,0,1-.94-1.71A2.62,2.62,0,0,0,70,130.18c.24.13.64.19.86.49A2.25,2.25,0,0,1,71.23,131.57Z" transform="translate(0 0)"/><path class="cls-4" d="M67.29,124.9c.13.38.23.77.35,1.15a5.17,5.17,0,0,1,.25,1.22,2.79,2.79,0,0,1-.38,1.25,5,5,0,0,0-.31,1,2.06,2.06,0,0,0,.5,1.84,1.35,1.35,0,0,0,.81.43,5.52,5.52,0,0,0,.6,0,1,1,0,0,1,.69.42l-.39,0a1.53,1.53,0,0,0,.35-.8c.08-.33.25-.76.61-.86a1.1,1.1,0,0,0-.32.9,1.54,1.54,0,0,1-.28,1.12l-.15.19-.23-.21a.53.53,0,0,0-.33-.13,3.82,3.82,0,0,1-.59.07,2.07,2.07,0,0,1-1.31-.55,2.55,2.55,0,0,1-.72-1.2,3.24,3.24,0,0,1,0-1.35,4.63,4.63,0,0,1,.45-1.21,2.38,2.38,0,0,0,.45-.95,8.89,8.89,0,0,0,0-1.15C67.3,125.71,67.28,125.31,67.29,124.9Z" transform="translate(0 0)"/><path class="cls-4" d="M67.34,143.61a1.61,1.61,0,0,0,.17.84c.12.26.28.51.53.51a1.34,1.34,0,0,0,.34,0,.44.44,0,0,0,.11-.25,2,2,0,0,0,0-.81,6.14,6.14,0,0,1-.07-1.82,3.93,3.93,0,0,1,.21-.9.9.9,0,0,1,.65-.63.9.9,0,0,0-.46.69,4.82,4.82,0,0,0-.09.86,7.39,7.39,0,0,0,.17,1.74,2.28,2.28,0,0,1,0,1,.66.66,0,0,1-.1.25.4.4,0,0,1-.26.23.88.88,0,0,1-.54,0,1,1,0,0,1-.63-.74A1.42,1.42,0,0,1,67.34,143.61Z" transform="translate(0 0)"/><path class="cls-4" d="M68.75,143.86a1.15,1.15,0,0,0,.54,1,.69.69,0,0,0,.49.08.29.29,0,0,0,.16-.35,6.26,6.26,0,0,1-.18-2.42,5,5,0,0,1,.33-1.21,2.09,2.09,0,0,1,.77-1A2.7,2.7,0,0,1,72,139.4c.21,0,.43,0,.62.07l.3.06.15,0s0,0,.07,0,0,.07,0,0,0,0-.07,0h-.45c-.2,0-.39,0-.58,0a2.63,2.63,0,0,0-1,.55,3.16,3.16,0,0,0-.9,2,5.61,5.61,0,0,0-.06,1.16c0,.4.12.74.15,1.2a.56.56,0,0,1-.4.6.83.83,0,0,1-.66-.16A1.19,1.19,0,0,1,68.75,143.86Z" transform="translate(0 0)"/><path class="cls-4" d="M75.6,143.87a7.57,7.57,0,0,1-2.42-.08,17.74,17.74,0,0,1-2.36-.6,21.82,21.82,0,0,1-2.23-.93l-1.08-.56c-.34-.21-.69-.41-1-.64,1.49.6,3,1.25,4.47,1.74a22.15,22.15,0,0,0,2.28.68A12.37,12.37,0,0,0,75.6,143.87Z" transform="translate(0 0)"/><path class="cls-4" d="M73,141.67a1.3,1.3,0,0,1,.85,0,1.33,1.33,0,0,1,.7.47c-.29-.06-.52-.15-.78-.21S73.26,141.78,73,141.67Z" transform="translate(0 0)"/><path class="cls-4" d="M67.54,117.45a2.67,2.67,0,0,1,3.14,1.17l-.35,0c.13-.52.58-.66.89-.81a4.92,4.92,0,0,1,1.06-.3,4.31,4.31,0,0,1,2.19.23l-.25.31a4.38,4.38,0,0,0-.84-.82,1.87,1.87,0,0,1-.64-1.16c0-.51.4-.87.2-1.13s-.74-.06-1.13-.21c.4.1.82-.26,1.26.09a.63.63,0,0,1,.06.68,1,1,0,0,0-.1.54,1.59,1.59,0,0,0,.61.9,5.08,5.08,0,0,1,.93.88l.37.53-.62-.22a4.42,4.42,0,0,0-2-.19,4.07,4.07,0,0,0-1,.25c-.31.12-.62.28-.67.5l-.12.52-.23-.47A2.64,2.64,0,0,0,67.54,117.45Z" transform="translate(0 0)"/><path class="cls-4" d="M71.8,119.08c-.2-.53-.28-1.08-.47-1.58a3.85,3.85,0,0,0-.78-1.39,2.07,2.07,0,0,1,1.1,1.28A4.06,4.06,0,0,1,71.8,119.08Z" transform="translate(0 0)"/><path class="cls-4" d="M73.34,118.62a1.13,1.13,0,0,1,1,.82C74,119.16,73.7,118.93,73.34,118.62Z" transform="translate(0 0)"/><path class="cls-4" d="M126.53,67a1.56,1.56,0,0,0-.85.18c-.25.11-.5.27-.5.52a.79.79,0,0,0,0,.34s.11.08.24.11a2,2,0,0,0,.81,0,6.55,6.55,0,0,1,1.83-.07,5.48,5.48,0,0,1,.89.21.93.93,0,0,1,.63.66.86.86,0,0,0-.68-.46,5,5,0,0,0-.87-.09,7.37,7.37,0,0,0-1.74.16,2.28,2.28,0,0,1-1,0,.73.73,0,0,1-.25-.1.4.4,0,0,1-.23-.26,1,1,0,0,1,.78-1.17A1.45,1.45,0,0,1,126.53,67Z" transform="translate(0 0)"/><path class="cls-4" d="M126.27,68.43a1.19,1.19,0,0,0-1,.54.69.69,0,0,0-.08.49.29.29,0,0,0,.35.16,6.46,6.46,0,0,1,2.42-.18,5.74,5.74,0,0,1,1.21.34,2.09,2.09,0,0,1,1,.77,2.68,2.68,0,0,1,.5,1.16,5.87,5.87,0,0,1-.07.62l-.06.3,0,.15s0,0,0,.07-.07,0,0,0,0,0,0-.07v-.45a3.71,3.71,0,0,0,0-.58,2.63,2.63,0,0,0-.55-1,3.15,3.15,0,0,0-2-.9,5.61,5.61,0,0,0-1.16-.06c-.4,0-.74.11-1.21.14a.57.57,0,0,1-.6-.4.87.87,0,0,1,.17-.66A1.22,1.22,0,0,1,126.27,68.43Z" transform="translate(0 0)"/><path class="cls-4" d="M126.25,75.28a7.57,7.57,0,0,1,.08-2.42,15.91,15.91,0,0,1,.61-2.35,23,23,0,0,1,.93-2.24l.56-1.07c.22-.34.42-.69.64-1-.6,1.5-1.25,3-1.74,4.47a20.59,20.59,0,0,0-.69,2.28A12.5,12.5,0,0,0,126.25,75.28Z" transform="translate(0 0)"/><path class="cls-4" d="M128.45,72.68a1.27,1.27,0,0,1,0,.84,1.26,1.26,0,0,1-.47.7c.06-.28.15-.52.21-.77S128.34,73,128.45,72.68Z" transform="translate(0 0)"/><path class="cls-4" d="M107.18,72.47c1.79.37,3.55.83,5.31,1.28s3.5,1,5.23,1.52l-.32.47c-.78-1-1.56-2-2.3-3.11s-1.49-2.11-2.19-3.19c.87,1,1.72,1.93,2.54,2.93s1.63,2,2.43,3l.56.72-.89-.24c-1.75-.47-3.48-1-5.22-1.57S108.88,73.13,107.18,72.47Z" transform="translate(0 0)"/><path class="cls-4" d="M113,72.74c.33-.74.68-1.45,1.07-2.15s.78-1.4,1.2-2.08l.15-.25.08.27c.18.56.37,1.12.51,1.7-.28-.53-.52-1.07-.75-1.61l.23,0c-.37.7-.75,1.41-1.17,2.09A24,24,0,0,1,113,72.74Z" transform="translate(0 0)"/><path class="cls-4" d="M180.11,95.23c.35.12.66.28,1,.4a7.17,7.17,0,0,0,1,.27,1.73,1.73,0,0,0,1.73-.43,1.29,1.29,0,0,0,.31-.83.58.58,0,0,1,.18-.41.46.46,0,0,1,.48,0c.2.1.21.1.35.06a2.42,2.42,0,0,0,.38-.28.4.4,0,0,1,.37-.09l.27.06a3,3,0,0,1,1,.48,3.75,3.75,0,0,0-1-.23c-.16,0-.4-.05-.38,0a2.43,2.43,0,0,1-.43.4.71.71,0,0,1-.36.09,1.15,1.15,0,0,1-.32-.09c-.08,0-.05,0,0,0s0,0,0,.08a1.79,1.79,0,0,1-.41,1.14,1.77,1.77,0,0,1-1.07.59,2.48,2.48,0,0,1-1.15-.11,7.42,7.42,0,0,1-1-.42C180.7,95.65,180.39,95.45,180.11,95.23Z" transform="translate(0 0)"/><path class="cls-4" d="M182.8,92.12a4.33,4.33,0,0,0,.93.1,2.57,2.57,0,0,0,.86-.31,1.94,1.94,0,0,1,1.86.54,2.67,2.67,0,0,0-1.77-.25c-.26.07-.59.31-1,.26A2.09,2.09,0,0,1,182.8,92.12Z" transform="translate(0 0)"/><path class="cls-4" d="M190.29,94.07c-.36-.18-.71-.38-1.06-.57a5.07,5.07,0,0,1-1-.69,2.87,2.87,0,0,1-.61-1.15,4.56,4.56,0,0,0-.51-1,2,2,0,0,0-1.65-.95,1.3,1.3,0,0,0-.87.26c-.1.07-.29.27-.44.41a.92.92,0,0,1-.78.19l.29-.25a1.5,1.5,0,0,0,.31.81,1.1,1.1,0,0,1,.18,1,1.1,1.1,0,0,0-.41-.86,1.59,1.59,0,0,1-.6-1l0-.24h.32a.52.52,0,0,0,.32-.14,5,5,0,0,1,.37-.46A2.07,2.07,0,0,1,185.4,89a2.49,2.49,0,0,1,1.36.35,3,3,0,0,1,1,.94,4.1,4.1,0,0,1,.53,1.17,2.76,2.76,0,0,0,.36,1,7.83,7.83,0,0,0,.82.8C189.71,93.51,190,93.77,190.29,94.07Z" transform="translate(0 0)"/><path class="cls-4" d="M195.36,99.53a2.66,2.66,0,0,1-3,1.39l.2-.28a1.26,1.26,0,0,1-.06,1.19,4.61,4.61,0,0,1-.54,1,4.24,4.24,0,0,1-1.71,1.37l-.05-.39a5.81,5.81,0,0,0,1.18,0,1.83,1.83,0,0,1,1.28.36c.39.33.32.9.65.94s.56-.48.94-.64c-.34.21-.39.76-1,.82-.28,0-.45-.27-.52-.45a1.06,1.06,0,0,0-.31-.44,1.56,1.56,0,0,0-1.07-.21,5.39,5.39,0,0,1-1.28,0l-.63-.12.58-.28a4.4,4.4,0,0,0,1.55-1.26,4.34,4.34,0,0,0,.51-.86c.14-.3.24-.64.13-.82l-.29-.46.49.17A2.63,2.63,0,0,0,195.36,99.53Z" transform="translate(0 0)"/><path class="cls-4" d="M191.19,101.38c.52.23,1,.57,1.45.79a3.76,3.76,0,0,0,1.54.43,2,2,0,0,1-1.69-.13A4.16,4.16,0,0,1,191.19,101.38Z" transform="translate(0 0)"/><path class="cls-4" d="M190.43,102.79a1.15,1.15,0,0,1-1.32.14C189.58,102.86,190,102.82,190.43,102.79Z" transform="translate(0 0)"/><path class="cls-4" d="M197.58,107c-.37,1.79-.83,3.55-1.29,5.3s-1,3.51-1.53,5.24l-.47-.33c1-.77,2.05-1.55,3.11-2.29s2.11-1.48,3.2-2.18c-1,.87-1.94,1.71-2.93,2.53s-2,1.62-3,2.42l-.72.57.24-.9c.48-1.75,1.06-3.47,1.58-5.21S196.92,108.71,197.58,107Z" transform="translate(0 0)"/><path class="cls-4" d="M197.3,112.87c.73.33,1.45.68,2.15,1.07s1.39.79,2.07,1.21l.25.15-.26.08c-.57.18-1.13.36-1.71.5.53-.27,1.07-.51,1.61-.74l0,.23c-.7-.38-1.4-.76-2.08-1.18A21.72,21.72,0,0,1,197.3,112.87Z" transform="translate(0 0)"/><path class="cls-4" d="M151.85,66.21c1.14,1.93,2.2,3.9,3.27,5.86s2.08,4,3.1,5.94c2,4,4,8,5.85,12l-1.44.19c.28-1.55.61-3.1.92-4.65s.66-3.1,1-4.65.69-3.09,1.08-4.63.74-3.08,1.17-4.61c-.14,1.58-.35,3.15-.53,4.73s-.41,3.14-.63,4.71-.45,3.13-.72,4.69-.49,3.13-.78,4.69l-.42,2.28-1-2.09c-2-4-3.85-8-5.68-12.12-.91-2-1.81-4.09-2.67-6.15S152.63,68.31,151.85,66.21Z" transform="translate(0 0)"/><path class="cls-4" d="M161,77.37c.94-.32,1.88-.62,2.83-.87s1.89-.52,2.85-.74c1.91-.46,3.83-.87,5.77-1.21l.69-.12-.34.58c-.73,1.25-1.46,2.51-2.28,3.71.51-1.36,1.11-2.68,1.71-4l.35.46c-1.9.49-3.82.91-5.74,1.3-1,.19-1.94.35-2.91.5S162,77.27,161,77.37Z" transform="translate(0 0)"/><path class="cls-4" d="M205.58,129.45c-1.49,1.68-3,3.3-4.56,4.93s-3.11,3.2-4.68,4.78c-3.17,3.15-6.37,6.26-9.64,9.3l-.63-1.31c1.57-.22,3.15-.38,4.72-.57s3.15-.33,4.72-.5,3.15-.3,4.74-.41,3.16-.24,4.74-.31c-1.55.36-3.1.64-4.66,1s-3.11.58-4.67.86-3.12.54-4.69.77-3.12.5-4.69.71L184,149l1.67-1.62q4.8-4.66,9.76-9.16c1.66-1.49,3.33-3,5-4.44S203.83,130.85,205.58,129.45Z" transform="translate(0 0)"/><path class="cls-4" d="M197.8,141.59c.59.79,1.17,1.59,1.7,2.42s1.09,1.64,1.6,2.48c1,1.68,2,3.37,2.93,5.11l.33.62-.66-.14c-1.42-.31-2.83-.61-4.23-1,1.45.06,2.89.22,4.33.38l-.32.48c-1.06-1.65-2.06-3.35-3-5.06-.48-.86-.93-1.73-1.38-2.6S198.2,142.49,197.8,141.59Z" transform="translate(0 0)"/><path class="cls-4" d="M162.11,200.14c-2.05-.89-4.07-1.86-6.09-2.81s-4-2-6-3c-4-2-7.92-4.11-11.82-6.28l1.05-1c.69,1.42,1.33,2.87,2,4.31s1.29,2.89,1.94,4.33,1.26,2.9,1.86,4.37,1.21,2.93,1.77,4.42c-.83-1.36-1.58-2.75-2.36-4.13s-1.52-2.78-2.27-4.18S140.7,193.4,140,192s-1.44-2.82-2.13-4.25l-1-2.09,2.07,1.09q5.93,3.12,11.73,6.44c1.93,1.12,3.87,2.24,5.78,3.39S160.24,198.9,162.11,200.14Z" transform="translate(0 0)"/><path class="cls-4" d="M148.16,196.51c-.57.81-1.15,1.6-1.77,2.36s-1.23,1.54-1.87,2.29c-1.27,1.49-2.58,3-3.94,4.37l-.49.5-.07-.66c-.15-1.45-.3-2.89-.35-4.35.4,1.41.69,2.83,1,4.25l-.55-.17c1.24-1.52,2.54-3,3.87-4.43.67-.72,1.36-1.43,2.05-2.12S147.42,197.17,148.16,196.51Z" transform="translate(0 0)"/><path class="cls-4" d="M81.43,180.72c.21-2.23.5-4.44.78-6.66s.62-4.42,1-6.63c.7-4.41,1.46-8.8,2.31-13.19l1.28.69c-1.14,1.1-2.32,2.16-3.48,3.24s-2.35,2.12-3.52,3.18-2.36,2.11-3.58,3.13-2.41,2.06-3.65,3.05c1-1.2,2.13-2.35,3.2-3.52s2.17-2.31,3.27-3.45,2.2-2.28,3.33-3.39,2.23-2.25,3.37-3.34l1.67-1.61-.39,2.3c-.75,4.4-1.59,8.78-2.49,13.15-.46,2.19-.93,4.37-1.43,6.54S82,178.56,81.43,180.72Z" transform="translate(0 0)"/><path class="cls-4" d="M80.56,166.33c-1-.29-1.88-.6-2.8-1s-1.84-.69-2.75-1.06c-1.81-.75-3.61-1.54-5.38-2.4l-.63-.31.61-.27c1.33-.59,2.65-1.18,4-1.68-1.21.81-2.47,1.53-3.73,2.25v-.58c1.83.71,3.63,1.49,5.41,2.31.9.41,1.78.85,2.65,1.29S79.7,165.84,80.56,166.33Z" transform="translate(0 0)"/><path class="cls-4" d="M74.88,98c2.18-.49,4.38-.9,6.57-1.33s4.4-.77,6.6-1.14c4.41-.7,8.83-1.34,13.26-1.89l-.26,1.43c-1.4-.75-2.77-1.53-4.15-2.3s-2.75-1.58-4.12-2.36S90,88.81,88.7,88s-2.71-1.65-4-2.52c1.47.61,2.9,1.29,4.34,1.94s2.87,1.36,4.3,2,2.84,1.39,4.25,2.12,2.83,1.43,4.22,2.17l2,1.09-2.31.34c-4.41.65-8.84,1.21-13.27,1.72-2.22.23-4.44.47-6.67.66S77.12,97.89,74.88,98Z" transform="translate(0 0)"/><path class="cls-4" d="M88.29,92.71c0-1,0-2,0-3s.08-2,.15-2.94c.16-2,.35-3.91.62-5.86l.09-.69.45.49c1,1.08,2,2.16,2.84,3.31-1.14-.9-2.22-1.88-3.29-2.85l.54-.2c-.1,2-.29,3.92-.51,5.87-.11,1-.26,2-.41,2.92S88.49,91.74,88.29,92.71Z" transform="translate(0 0)"/></g></g></g></g></svg>