<svg xmlns="http://www.w3.org/2000/svg" xmlns:xlink="http://www.w3.org/1999/xlink" viewBox="0 0 265.35 265.58"><defs><style>.cls-1,.cls-5,.cls-6{fill:none;}.cls-2{clip-path:url(#clip-path);}.cls-3{opacity:0.25;}.cls-4{fill:#303030;}.cls-5,.cls-6{stroke:#303030;stroke-miterlimit:10;}.cls-5{stroke-width:4.25px;}.cls-6{stroke-width:2.31px;}</style><clipPath id="clip-path" transform="translate(0 0)"><rect class="cls-1" x="39.63" y="45.45" width="189" height="175" rx="8.85"/></clipPath></defs><title>Ресурс 33</title><g id="Слой_2" data-name="Слой 2"><g id="Слой_1-2" data-name="Слой 1"><g class="cls-2"><g class="cls-3"><path class="cls-4" d="M222.92,193.23a14,14,0,0,0-.25,3.8,3.12,3.12,0,0,0,1.54,2.83,2.39,2.39,0,0,0,1.61.17,1,1,0,0,1,.8.12.73.73,0,0,1,.29.45,1.19,1.19,0,0,1,0,.38,1.65,1.65,0,0,0,0,.36.53.53,0,0,0,.1.27,2,2,0,0,0,.66.5c.26.09.36.55.34.64s0,.34,0,.51a5.54,5.54,0,0,1-.39,1.94,6.76,6.76,0,0,0-.07-1.91c0-.28-.14-.73-.18-.64a2.42,2.42,0,0,1-.93-.57,1.4,1.4,0,0,1-.32-.59,2.34,2.34,0,0,1,0-.6c0-.16,0-.1,0,0s0,0-.13,0a3.12,3.12,0,0,1-3.71-1.79A4.81,4.81,0,0,1,222,197,8.74,8.74,0,0,1,222.92,193.23Z" transform="translate(0 0)"/><path class="cls-4" d="M229.6,196.49a7.31,7.31,0,0,0,.25,1.68,2,2,0,0,0,.38.68,5.1,5.1,0,0,1,.57.68,3,3,0,0,1,.42,1.81,4.27,4.27,0,0,1-.52,1.7,9.85,9.85,0,0,0,.09-1.7,3.3,3.3,0,0,0-.46-1.51c-.12-.21-.35-.44-.52-.67a2,2,0,0,1-.38-.88A4,4,0,0,1,229.6,196.49Z" transform="translate(0 0)"/><path class="cls-4" d="M229.64,210.51c.14-.71.31-1.42.5-2.12a9.44,9.44,0,0,1,.73-2.13,3.23,3.23,0,0,1,.84-1c.32-.26.63-.45.89-.64a8.33,8.33,0,0,0,1.44-1.33,3.68,3.68,0,0,0,.9-3.33,2.44,2.44,0,0,0-.86-1.41c-.2-.18-.49-.26-.92-.57a1.74,1.74,0,0,1-.69-1.28l.58.39c-.41,0-.84.48-1.28.93a3,3,0,0,1-.78.62,1.3,1.3,0,0,1-1,.15,1.26,1.26,0,0,0,.78-.4,3.46,3.46,0,0,0,.53-.71,6.07,6.07,0,0,1,.54-.82,2.07,2.07,0,0,1,.93-.68l.43-.14.16.54a.83.83,0,0,0,.39.5c.17.1.58.2,1,.44a3.7,3.7,0,0,1,1.54,2.05,4.53,4.53,0,0,1,0,2.53,5.51,5.51,0,0,1-1.21,2.12,7.73,7.73,0,0,1-1.81,1.48c-.69.42-1.23.59-1.57,1.08a12.7,12.7,0,0,0-1,1.8C230.38,209.25,230,209.88,229.64,210.51Z" transform="translate(0 0)"/><path class="cls-5" d="M261.75,154.48a130.21,130.21,0,0,1-42.88,76.68,35.61,35.61,0,1,0-68.15,16.89,35.25,35.25,0,0,0,9.18,12.58,131,131,0,0,1-94-15.62,35.62,35.62,0,1,0-46.27-47A130.11,130.11,0,0,1,4,111c.4-2.39.87-4.72,1.4-7a35.61,35.61,0,1,0,30.26-58.6A131,131,0,0,1,121.41,2.48a35.61,35.61,0,1,0,65,11,131,131,0,0,1,66.69,68,35.6,35.6,0,1,0,9.69,65.23C262.56,149.28,262.19,151.88,261.75,154.48Z" transform="translate(0 0)"/><path class="cls-4" d="M246.73,181.27a2.81,2.81,0,0,0,.49-1.48,1.36,1.36,0,0,0-.33-1.27,2.06,2.06,0,0,0-.55-.32c-.05,0,0,0-.13.05l-.25.23a3.76,3.76,0,0,0-.74,1.27c-.21.47-.39,1-.66,1.51a9.1,9.1,0,0,1-.9,1.41,7.24,7.24,0,0,1-1.15,1.2,1.68,1.68,0,0,1-1.6.39,1.63,1.63,0,0,0,1.35-.65,12,12,0,0,0,.93-1.28,15.08,15.08,0,0,0,1.34-2.87,4.47,4.47,0,0,1,.93-1.49l.38-.29a.84.84,0,0,1,.64-.12,2.07,2.07,0,0,1,.81.53,1.77,1.77,0,0,1,.29,1.77A2.54,2.54,0,0,1,246.73,181.27Z" transform="translate(0 0)"/><path class="cls-4" d="M244.75,179.59a2.12,2.12,0,0,0,0-2,1.18,1.18,0,0,0-.68-.58c-.23-.06-.45.12-.57.39s-.19.64-.32,1-.26.7-.42,1a10.22,10.22,0,0,1-1.2,1.91A9.38,9.38,0,0,1,240,183a4.07,4.07,0,0,1-2.16.88,8.46,8.46,0,0,1-1.13,0,3,3,0,0,1-1.13-.26,5.34,5.34,0,0,1-.9-.69l-.41-.37-.2-.18a.55.55,0,0,1-.1-.11s0-.06,0-.07.06,0,0,.05-.07,0,0,0a.26.26,0,0,0,.1.07l.24.14.46.3a4.7,4.7,0,0,0,.92.51,2.78,2.78,0,0,0,1,.13,7.1,7.1,0,0,0,1.05-.08A6,6,0,0,0,241,180.9a10.27,10.27,0,0,0,1.14-1.77,6.92,6.92,0,0,0,.44-1,11.19,11.19,0,0,1,.43-1,1.3,1.3,0,0,1,.48-.48.91.91,0,0,1,.72-.09,1.54,1.54,0,0,1,.88.87A2.16,2.16,0,0,1,244.75,179.59Z" transform="translate(0 0)"/><path class="cls-4" d="M234.07,173.29a13.84,13.84,0,0,1,3.71,2.34,25.38,25.38,0,0,1,3.12,3.1,33.4,33.4,0,0,1,2.64,3.5l1.16,1.86c.34.64.7,1.28,1,1.93l-2.65-3.46c-.91-1.12-1.78-2.27-2.74-3.35s-1.91-2.15-2.94-3.16c-.51-.5-1-1-1.59-1.45A13.79,13.79,0,0,0,234.07,173.29Z" transform="translate(0 0)"/><path class="cls-4" d="M236.12,179.11a2.39,2.39,0,0,1-1.34-.74,2.33,2.33,0,0,1-.66-1.38c.39.35.69.7,1,1S235.79,178.7,236.12,179.11Z" transform="translate(0 0)"/><path class="cls-4" d="M133,259.1a4.57,4.57,0,0,1-.77-3.07,4.93,4.93,0,0,1,1.39-3l.25.58a1.5,1.5,0,0,1-1.12-.41,4.93,4.93,0,0,1-.7-.76,7.38,7.38,0,0,1-1-1.74,7.92,7.92,0,0,1-.59-3.94l.68.3a8.93,8.93,0,0,0-1.08,1.84,3.34,3.34,0,0,1-1.74,1.65c-.87.32-1.7-.31-2.08.17a1.13,1.13,0,0,0,0,1,2.42,2.42,0,0,1,.2,1.1,2.69,2.69,0,0,0-.36-1,1.32,1.32,0,0,1,0-1.2.85.85,0,0,1,.55-.39,2.18,2.18,0,0,1,.62,0,1.89,1.89,0,0,0,1-.07,2.93,2.93,0,0,0,1.3-1.48,8.75,8.75,0,0,1,1.11-2l.8-.93-.11,1.23a7.75,7.75,0,0,0,.54,3.56,8.4,8.4,0,0,0,.88,1.58c.35.5.77,1,1.17,1l1,0-.71.61A4.79,4.79,0,0,0,133,259.1Z" transform="translate(0 0)"/><path class="cls-4" d="M133.91,250.9c-.85.58-1.76,1-2.56,1.54a7.35,7.35,0,0,0-2.09,2,3.71,3.71,0,0,1,1.76-2.52A6.87,6.87,0,0,1,133.91,250.9Z" transform="translate(0 0)"/><path class="cls-4" d="M132.4,248.41a2,2,0,0,1,.14-1.25,2,2,0,0,1,.84-.93c-.14.41-.33.74-.47,1.1S132.61,248,132.4,248.41Z" transform="translate(0 0)"/><path class="cls-4" d="M84.07,246.48a2.71,2.71,0,0,0,1.48.5,1.39,1.39,0,0,0,1.27-.32,2.09,2.09,0,0,0,.32-.56s0,0,0-.12a2.85,2.85,0,0,0-.23-.26A3.82,3.82,0,0,0,85.6,245c-.48-.21-1-.4-1.51-.66a8.64,8.64,0,0,1-1.41-.9,8.28,8.28,0,0,1-1.21-1.16,1.68,1.68,0,0,1-.38-1.59,1.62,1.62,0,0,0,.65,1.34,11.48,11.48,0,0,0,1.27.93,14.52,14.52,0,0,0,2.87,1.35,4.4,4.4,0,0,1,1.49.94,3.65,3.65,0,0,1,.29.37.85.85,0,0,1,.12.64,2,2,0,0,1-.53.81,1.78,1.78,0,0,1-1.77.3A2.59,2.59,0,0,1,84.07,246.48Z" transform="translate(0 0)"/><path class="cls-4" d="M85.76,244.51a2.12,2.12,0,0,0,2,0,1.22,1.22,0,0,0,.58-.68.56.56,0,0,0-.39-.58c-.26-.12-.65-.19-1-.32a9.57,9.57,0,0,1-1-.42,10.77,10.77,0,0,1-1.91-1.2,9.82,9.82,0,0,1-1.59-1.63,4.24,4.24,0,0,1-.88-2.15,8.54,8.54,0,0,1,0-1.14,3.09,3.09,0,0,1,.26-1.13,4.92,4.92,0,0,1,.7-.89l.36-.41.19-.2s0-.08.1-.1.07,0,.07,0,0,.06,0,0,0-.07,0,0a1,1,0,0,0-.08.11l-.14.23-.3.47a4.94,4.94,0,0,0-.51.92,2.7,2.7,0,0,0-.13,1,8.81,8.81,0,0,0,.07,1.05,6.07,6.07,0,0,0,2.36,3.27,11.33,11.33,0,0,0,1.76,1.15c.32.16.64.31,1,.44a6.66,6.66,0,0,1,1,.43,1.32,1.32,0,0,1,.49.48.9.9,0,0,1,.08.72,1.54,1.54,0,0,1-.87.88A2.16,2.16,0,0,1,85.76,244.51Z" transform="translate(0 0)"/><path class="cls-4" d="M92.08,233.84a14.13,14.13,0,0,1-2.35,3.71,26.1,26.1,0,0,1-3.11,3.11,33.4,33.4,0,0,1-3.5,2.64l-1.86,1.15c-.65.34-1.29.7-1.94,1l3.46-2.64c1.13-.91,2.28-1.78,3.36-2.74s2.15-1.9,3.17-2.93c.5-.51,1-1,1.45-1.59A14.1,14.1,0,0,0,92.08,233.84Z" transform="translate(0 0)"/><path class="cls-4" d="M86.25,235.88a2.54,2.54,0,0,1,2.12-2c-.35.4-.7.7-1,1S86.67,235.55,86.25,235.88Z" transform="translate(0 0)"/><path class="cls-4" d="M119.26,255.73c-1.23-1.1-2.41-2.25-3.6-3.39s-2.35-2.31-3.5-3.48q-3.45-3.53-6.8-7.16l1-.46c.54,4.64,1,9.28,1.2,14-1-4.58-1.69-9.19-2.32-13.81l-.24-1.72,1.21,1.26q3.41,3.57,6.69,7.25c1.09,1.24,2.18,2.47,3.24,3.73S118.24,254.43,119.26,255.73Z" transform="translate(0 0)"/><path class="cls-4" d="M110.36,249.92c-1.18.86-2.4,1.65-3.63,2.4s-2.5,1.46-3.79,2.13l-.45.24.1-.48c.24-1.05.47-2.09.78-3.12-.06,1.08-.18,2.14-.31,3.2l-.35-.25c1.22-.77,2.48-1.49,3.75-2.19S109,250.51,110.36,249.92Z" transform="translate(0 0)"/><path class="cls-4" d="M26.32,153.28a13.79,13.79,0,0,0-2.5-2.87,3.11,3.11,0,0,0-3.09-.92,2.4,2.4,0,0,0-1.26,1,1,1,0,0,1-.65.48.74.74,0,0,1-.53-.12,1.26,1.26,0,0,1-.26-.26,1.61,1.61,0,0,0-.23-.29.49.49,0,0,0-.26-.12,2,2,0,0,0-.83.11c-.24.12-.63-.14-.68-.21l-.37-.35a5.57,5.57,0,0,1-1.09-1.65A6.87,6.87,0,0,0,16,149.4c.23.16.61.41.58.32a2.33,2.33,0,0,1,1.06-.25,1.3,1.3,0,0,1,.64.2,1.62,1.62,0,0,1,.42.42c.11.12.1.06,0,.06s0,0,.06-.13a3.13,3.13,0,0,1,3.89-1.35,4.9,4.9,0,0,1,1.7,1.22A8.79,8.79,0,0,1,26.32,153.28Z" transform="translate(0 0)"/><path class="cls-4" d="M19.28,155.67a7.36,7.36,0,0,0-1.36-1,1.91,1.91,0,0,0-.74-.21,4.88,4.88,0,0,1-.89-.09,2.94,2.94,0,0,1-1.57-1,4.15,4.15,0,0,1-.83-1.58A9.39,9.39,0,0,0,15,153.08a3.33,3.33,0,0,0,1.4.74,6.36,6.36,0,0,0,.84.11,2,2,0,0,1,.88.36A3.86,3.86,0,0,1,19.28,155.67Z" transform="translate(0 0)"/><path class="cls-4" d="M9.38,145.76q.6.9,1.14,1.86a9.69,9.69,0,0,1,1,2,3.24,3.24,0,0,1,.09,1.28c-.05.41-.13.75-.18,1.08a7.56,7.56,0,0,0-.08,1.95,3.69,3.69,0,0,0,1.7,3,2.41,2.41,0,0,0,1.61.39c.26,0,.53-.15,1-.24a1.77,1.77,0,0,1,1.4.42l-.69.13a2.62,2.62,0,0,0,.25-1.55,3.12,3.12,0,0,1,.12-1,1.27,1.27,0,0,1,.57-.78,1.24,1.24,0,0,0-.27.83,3.28,3.28,0,0,0,.12.88,5.43,5.43,0,0,1,.2,1,2,2,0,0,1-.19,1.14l-.2.4-.49-.27a.83.83,0,0,0-.63-.08,10.6,10.6,0,0,1-1,.38,3.68,3.68,0,0,1-2.53-.37,4.57,4.57,0,0,1-1.8-1.77,5.59,5.59,0,0,1-.64-2.36,7.86,7.86,0,0,1,.24-2.33,4.72,4.72,0,0,0,.36-1.88,13.67,13.67,0,0,0-.54-2C9.74,147.17,9.55,146.47,9.38,145.76Z" transform="translate(0 0)"/><path class="cls-4" d="M17.86,178.54a2.82,2.82,0,0,0,.7,1.4,1.39,1.39,0,0,0,1.13.67,2,2,0,0,0,.62-.16s0,0,.05-.13,0-.22,0-.34a4,4,0,0,0-.37-1.42c-.19-.48-.43-1-.6-1.53a9,9,0,0,1-.35-1.64,7.74,7.74,0,0,1,0-1.67,1.71,1.71,0,0,1,.86-1.4,1.63,1.63,0,0,0-.49,1.42,10.52,10.52,0,0,0,.24,1.56,14.79,14.79,0,0,0,1.07,3,4.37,4.37,0,0,1,.38,1.71,1.89,1.89,0,0,1-.06.47.8.8,0,0,1-.36.54,2.08,2.08,0,0,1-.95.2,1.79,1.79,0,0,1-1.46-1A2.72,2.72,0,0,1,17.86,178.54Z" transform="translate(0 0)"/><path class="cls-4" d="M20.45,178.35a2.16,2.16,0,0,0,1.39,1.44,1.21,1.21,0,0,0,.89-.07.54.54,0,0,0,.14-.68c-.1-.27-.33-.6-.48-.94a7.9,7.9,0,0,1-.44-1,9.77,9.77,0,0,1-.51-2.2,10.14,10.14,0,0,1,0-2.27,4.16,4.16,0,0,1,.91-2.15,8.54,8.54,0,0,1,.82-.78,3,3,0,0,1,1-.61,4.46,4.46,0,0,1,1.12-.14l.55,0h.27c.05,0,.09,0,.15,0s0,0,0,.07-.06,0,0,0,.07,0,0,0a.32.32,0,0,0-.13,0l-.27.07-.53.11a4.49,4.49,0,0,0-1,.29,2.58,2.58,0,0,0-.8.62,7.09,7.09,0,0,0-.69.79,6,6,0,0,0-.64,4,9.66,9.66,0,0,0,.42,2.06c.11.33.23.66.37,1a8.8,8.8,0,0,1,.44,1,1.46,1.46,0,0,1,0,.69.9.9,0,0,1-.45.56,1.53,1.53,0,0,1-1.24,0A2.21,2.21,0,0,1,20.45,178.35Z" transform="translate(0 0)"/><path class="cls-4" d="M32.47,175.29a14.22,14.22,0,0,1-4.28,1,25.86,25.86,0,0,1-4.4,0,35.15,35.15,0,0,1-4.34-.62l-2.13-.5c-.7-.22-1.4-.42-2.09-.66l4.32.59c1.43.16,2.86.35,4.3.45s2.87.17,4.31.17c.72,0,1.44,0,2.16-.1A14.22,14.22,0,0,0,32.47,175.29Z" transform="translate(0 0)"/><path class="cls-4" d="M26.91,172.6a2.36,2.36,0,0,1,1.47-.42,2.33,2.33,0,0,1,1.45.51c-.53,0-1,0-1.46,0S27.44,172.66,26.91,172.6Z" transform="translate(0 0)"/><path class="cls-4" d="M6.48,132.57a4.55,4.55,0,0,1,3.06-.76,4.92,4.92,0,0,1,3,1.4l-.58.25a1.55,1.55,0,0,1,.42-1.12,4.47,4.47,0,0,1,.76-.7,7.75,7.75,0,0,1,1.74-1,7.91,7.91,0,0,1,3.94-.58l-.3.68a9.41,9.41,0,0,0-1.84-1.09A3.35,3.35,0,0,1,15,127.9c-.31-.87.32-1.69-.16-2.07a1.1,1.1,0,0,0-1,0,2.58,2.58,0,0,1-1.1.19,2.69,2.69,0,0,0,1-.36,1.3,1.3,0,0,1,1.19,0,.87.87,0,0,1,.4.56,1.85,1.85,0,0,1,0,.62,1.85,1.85,0,0,0,.08,1A2.82,2.82,0,0,0,17,129a9.2,9.2,0,0,1,2,1.12l.93.8-1.23-.11a7.75,7.75,0,0,0-3.56.54,8.19,8.19,0,0,0-1.59.87c-.5.35-1,.77-1,1.17l0,1-.61-.71A4.8,4.8,0,0,0,6.48,132.57Z" transform="translate(0 0)"/><path class="cls-4" d="M14.68,133.53c-.59-.86-1-1.77-1.54-2.57a7.22,7.22,0,0,0-2-2.09,3.67,3.67,0,0,1,2.51,1.76A7.12,7.12,0,0,1,14.68,133.53Z" transform="translate(0 0)"/><path class="cls-4" d="M17.17,132a2,2,0,0,1,1.24.15,2,2,0,0,1,.94.84c-.42-.14-.74-.33-1.1-.47S17.54,132.23,17.17,132Z" transform="translate(0 0)"/><path class="cls-4" d="M87.27,17.63a2.73,2.73,0,0,0-1.4.69,1.39,1.39,0,0,0-.67,1.13,2,2,0,0,0,.16.62s0,0,.13.05l.33,0a3.84,3.84,0,0,0,1.43-.37c.48-.19,1-.43,1.53-.59a9.21,9.21,0,0,1,1.64-.35,7.16,7.16,0,0,1,1.67,0,1.7,1.7,0,0,1,1.4.86,1.66,1.66,0,0,0-1.42-.5,10.72,10.72,0,0,0-1.56.24,14.2,14.2,0,0,0-3,1.07,4.36,4.36,0,0,1-1.71.37,1.89,1.89,0,0,1-.47-.06.8.8,0,0,1-.54-.36,2.1,2.1,0,0,1-.2-1A1.78,1.78,0,0,1,85.67,18,2.61,2.61,0,0,1,87.27,17.63Z" transform="translate(0 0)"/><path class="cls-4" d="M87.46,20.22A2.1,2.1,0,0,0,86,21.61a1.14,1.14,0,0,0,.07.88c.12.21.4.24.68.14s.59-.32.93-.48.69-.31,1-.44a9.73,9.73,0,0,1,2.2-.49,9.08,9.08,0,0,1,2.27,0,4.13,4.13,0,0,1,2.14.91,8.48,8.48,0,0,1,.78.82,2.94,2.94,0,0,1,.61,1,4.48,4.48,0,0,1,.14,1.13l0,.54v.28a.65.65,0,0,1,0,.14s0,.06-.07,0,0-.07,0-.06,0,.07,0,0a.5.5,0,0,0,0-.12l-.07-.27-.11-.54a4.64,4.64,0,0,0-.29-1,2.55,2.55,0,0,0-.62-.79,6.39,6.39,0,0,0-.79-.7A5.93,5.93,0,0,0,91,22a9.66,9.66,0,0,0-2.06.42,8.33,8.33,0,0,0-1,.36,7.55,7.55,0,0,1-1,.44,1.31,1.31,0,0,1-.68,0,.9.9,0,0,1-.57-.45,1.57,1.57,0,0,1,0-1.24A2.19,2.19,0,0,1,87.46,20.22Z" transform="translate(0 0)"/><path class="cls-4" d="M90.5,32.24a13.92,13.92,0,0,1-1-4.28,26.93,26.93,0,0,1,0-4.4,35.17,35.17,0,0,1,.63-4.34l.51-2.13c.22-.7.42-1.4.66-2.09l-.6,4.32c-.16,1.44-.36,2.86-.45,4.3s-.19,2.87-.18,4.31c0,.72,0,1.44.09,2.16A13,13,0,0,0,90.5,32.24Z" transform="translate(0 0)"/><path class="cls-4" d="M93.19,26.69a2.36,2.36,0,0,1,.42,1.47,2.3,2.3,0,0,1-.51,1.44c0-.53,0-1,0-1.46S93.13,27.21,93.19,26.69Z" transform="translate(0 0)"/><path class="cls-4" d="M55.79,35.88c1.65-.08,3.3-.11,5-.14s3.29,0,4.93,0c3.29,0,6.58.14,9.87.29l-.37,1c-3.65-2.9-7.24-5.88-10.69-9,3.91,2.57,7.68,5.33,11.38,8.16l1.38,1.06-1.74-.05c-3.29-.08-6.58-.23-9.86-.43-1.64-.1-3.29-.21-4.93-.35S57.43,36.08,55.79,35.88Z" transform="translate(0 0)"/><path class="cls-4" d="M66.2,33.72c.23-1.44.54-2.85.88-4.26s.75-2.8,1.18-4.18l.16-.49.27.42c.57.9,1.14,1.81,1.64,2.75-.72-.79-1.37-1.64-2-2.48l.42-.07c-.32,1.41-.7,2.81-1.11,4.2S66.74,32.37,66.2,33.72Z" transform="translate(0 0)"/><path class="cls-4" d="M193.93,43a14,14,0,0,0,3.8.28,3.12,3.12,0,0,0,2.84-1.53,2.43,2.43,0,0,0,.18-1.6,1,1,0,0,1,.12-.8.75.75,0,0,1,.46-.29,1.13,1.13,0,0,1,.37,0,2,2,0,0,0,.37,0,.55.55,0,0,0,.27-.11,1.88,1.88,0,0,0,.5-.65c.1-.26.55-.35.64-.33l.51,0a5.55,5.55,0,0,1,1.94.4,7.16,7.16,0,0,0-1.91,0c-.28.05-.73.14-.64.18a2.33,2.33,0,0,1-.58.93,1.29,1.29,0,0,1-.59.31,2,2,0,0,1-.6,0c-.16,0-.1,0-.05,0s0,0,.05.14a3.21,3.21,0,0,1-.21,2.17,3.16,3.16,0,0,1-1.6,1.52,4.67,4.67,0,0,1-2.07.33A8.73,8.73,0,0,1,193.93,43Z" transform="translate(0 0)"/><path class="cls-4" d="M197.24,36.38a8.1,8.1,0,0,0,1.68-.24,1.85,1.85,0,0,0,.67-.38,6,6,0,0,1,.69-.57,3,3,0,0,1,1.81-.4,4.13,4.13,0,0,1,1.7.53,9,9,0,0,0-1.7-.1,3.25,3.25,0,0,0-1.52.45,6.82,6.82,0,0,0-.67.52,2,2,0,0,1-.88.36A3.92,3.92,0,0,1,197.24,36.38Z" transform="translate(0 0)"/><path class="cls-4" d="M211.25,36.43c-.71-.15-1.42-.32-2.12-.52a9.47,9.47,0,0,1-2.12-.75,3.34,3.34,0,0,1-1-.84c-.25-.32-.44-.63-.63-.9A8.25,8.25,0,0,0,204.1,32a3.68,3.68,0,0,0-3.32-.93,2.43,2.43,0,0,0-1.42.86c-.18.19-.26.48-.57.91a1.78,1.78,0,0,1-1.29.69l.4-.58c0,.41.47.84.92,1.28a3.4,3.4,0,0,1,.61.79,1.35,1.35,0,0,1,.15,1,1.28,1.28,0,0,0-.4-.79,4.15,4.15,0,0,0-.7-.53,5.5,5.5,0,0,1-.82-.54,2,2,0,0,1-.67-.94l-.14-.43.53-.15a.85.85,0,0,0,.51-.39,9.9,9.9,0,0,1,.44-1,3.74,3.74,0,0,1,2.07-1.52,4.5,4.5,0,0,1,2.52,0A5.54,5.54,0,0,1,205,30.9a7.89,7.89,0,0,1,1.46,1.82c.42.7.59,1.24,1.08,1.58a12.05,12.05,0,0,0,1.79,1C210,35.68,210.63,36,211.25,36.43Z" transform="translate(0 0)"/><path class="cls-4" d="M222.6,43.73a4.52,4.52,0,0,1-1.64,2.7,4.91,4.91,0,0,1-3.08,1.1l.24-.58a1.54,1.54,0,0,1,.49,1.08,5,5,0,0,1-.05,1A7.26,7.26,0,0,1,218,51a7.83,7.83,0,0,1-2.38,3.19l-.27-.69a8.84,8.84,0,0,0,2.07-.52,3.32,3.32,0,0,1,2.4.07c.83.39,1,1.43,1.57,1.36a1.12,1.12,0,0,0,.72-.64,2.47,2.47,0,0,1,.64-.92,2.85,2.85,0,0,0-.48,1,1.33,1.33,0,0,1-.81.88.86.86,0,0,1-.67-.12,1.69,1.69,0,0,1-.45-.43,1.86,1.86,0,0,0-.75-.64,2.84,2.84,0,0,0-2,.11,8.64,8.64,0,0,1-2.24.64l-1.22.09.95-.78a7.81,7.81,0,0,0,2.15-2.9,7.92,7.92,0,0,0,.51-1.74c.11-.59.15-1.23-.14-1.5l-.7-.66.93.07A4.77,4.77,0,0,0,222.6,43.73Z" transform="translate(0 0)"/><path class="cls-4" d="M216.12,48.84c1,.19,1.94.54,2.89.73a7.23,7.23,0,0,0,2.9.08,3.68,3.68,0,0,1-3,.52A7,7,0,0,1,216.12,48.84Z" transform="translate(0 0)"/><path class="cls-4" d="M215.41,51.67a2,2,0,0,1-1,.77,1.94,1.94,0,0,1-1.26.06c.39-.19.76-.28,1.11-.44S215,51.77,215.41,51.67Z" transform="translate(0 0)"/><path class="cls-4" d="M229.86,55.85c.08,1.65.1,3.3.12,4.95s0,3.29,0,4.93q-.08,4.93-.31,9.87l-1-.37c2.92-3.65,5.9-7.23,9.08-10.67-2.58,3.9-5.35,7.66-8.19,11.36l-1.06,1.38.05-1.75c.09-3.28.25-6.57.45-9.85.11-1.65.23-3.29.37-4.93S229.65,57.49,229.86,55.85Z" transform="translate(0 0)"/><path class="cls-4" d="M232,66.26c1.44.23,2.86.55,4.26.9s2.8.74,4.18,1.19l.49.15-.42.27c-.91.57-1.81,1.14-2.76,1.64.8-.72,1.64-1.37,2.49-2l.07.42c-1.41-.33-2.81-.71-4.19-1.12S233.34,66.8,232,66.26Z" transform="translate(0 0)"/><path class="cls-4" d="M131.32,4.84c5.72,5.75,11.12,11.77,16.48,17.82,2.64,3.05,5.31,6.09,7.9,9.19s5.2,6.19,7.76,9.31l-2.44,1c-.2-2.86-.32-5.72-.47-8.58s-.23-5.73-.35-8.59-.18-5.73-.2-8.6-.05-5.74,0-8.62c.45,2.84.84,5.69,1.2,8.53s.68,5.7,1,8.55.61,5.7.85,8.55.53,5.71.73,8.57l.3,4.21-2.74-3.23c-2.62-3.08-5.23-6.16-7.78-9.29s-5.1-6.27-7.63-9.42C140.92,17.87,136,11.49,131.32,4.84Z" transform="translate(0 0)"/><path class="cls-4" d="M152.35,20.3c3-2,6.09-3.71,9.23-5.38,1.58-.82,3.15-1.65,4.75-2.42s3.21-1.54,4.82-2.28l1.16-.53L172,10.87c-.69,2.53-1.43,5.05-2.32,7.53.27-2.62.7-5.21,1.19-7.79l.83.65c-1.56.85-3.13,1.69-4.72,2.5s-3.18,1.58-4.78,2.36C159,17.63,155.71,19.08,152.35,20.3Z" transform="translate(0 0)"/><path class="cls-4" d="M254,91.62c-3.7,7.21-7.74,14.21-11.84,21.18-2.08,3.46-4.14,6.94-6.28,10.37s-4.27,6.85-6.45,10.26l-1.69-2c2.66-1.08,5.34-2.07,8-3.1s5.37-2,8.05-3,5.4-1.94,8.12-2.86,5.44-1.83,8.19-2.67q-3.84,2-7.74,3.79c-2.59,1.23-5.2,2.41-7.81,3.59s-5.23,2.35-7.87,3.46-5.26,2.28-7.92,3.36l-3.91,1.58,2.22-3.6c2.11-3.44,4.24-6.88,6.42-10.28s4.38-6.79,6.59-10.17C244.54,104.78,249.08,98.09,254,91.62Z" transform="translate(0 0)"/><path class="cls-4" d="M245.78,116.4c2.8,2.23,5.41,4.64,8,7.11,1.27,1.24,2.55,2.48,3.78,3.77s2.46,2.56,3.67,3.87l.85.93-1.22.06c-2.62.13-5.24.21-7.88.13,2.58-.56,5.18-1,7.78-1.29l-.36,1c-1.3-1.22-2.58-2.45-3.84-3.71s-2.49-2.53-3.72-3.81C250.36,121.86,248,119.22,245.78,116.4Z" transform="translate(0 0)"/><path class="cls-4" d="M209.48,235.11c-8-1.28-15.92-3-23.81-4.69-3.94-.9-7.89-1.78-11.81-2.76s-7.84-1.93-11.75-2.94l1.39-2.24c1.85,2.19,3.63,4.44,5.44,6.66s3.56,4.49,5.35,6.73,3.52,4.53,5.23,6.83,3.42,4.61,5.08,7q-3.06-3-6-6.18c-2-2.08-3.91-4.2-5.85-6.32s-3.85-4.24-5.72-6.41-3.8-4.29-5.65-6.48L158.66,221l4.12,1c3.93.95,7.85,1.9,11.76,2.92s7.81,2.06,11.72,3.11C194,230.24,201.81,232.48,209.48,235.11Z" transform="translate(0 0)"/><path class="cls-4" d="M183.38,235c-1.26,3.35-2.74,6.58-4.29,9.78-.79,1.6-1.57,3.19-2.41,4.76s-1.68,3.14-2.55,4.69l-.62,1.1-.43-1.14c-.94-2.45-1.82-4.92-2.56-7.46,1.32,2.28,2.5,4.63,3.63,7l-1.05,0c.75-1.61,1.52-3.21,2.33-4.79s1.63-3.16,2.47-4.73C179.6,241.07,181.38,238,183.38,235Z" transform="translate(0 0)"/><path class="cls-4" d="M59.26,237.3c-1.26-8-2.12-16-2.92-24.09-.37-4-.75-8-1-12.07s-.59-8.06-.84-12.09l2.56.63c-1.52,2.43-3.1,4.82-4.65,7.23s-3.16,4.78-4.74,7.17-3.22,4.75-4.87,7.1-3.32,4.68-5,7c1.3-2.57,2.65-5.1,4-7.62s2.79-5,4.2-7.51,2.84-5,4.32-7.44,2.9-4.94,4.41-7.37l2.23-3.59.33,4.22c.32,4,.63,8.06.87,12.09s.47,8.07.67,12.1C59.1,221.12,59.39,229.2,59.26,237.3Z" transform="translate(0 0)"/><path class="cls-4" d="M51.26,212.46c-3.58-.15-7.11-.56-10.63-1-1.76-.26-3.52-.51-5.27-.82s-3.5-.62-5.25-1l-1.24-.24.95-.77c2-1.65,4.12-3.26,6.3-4.75-1.76,2-3.63,3.82-5.53,5.63l-.29-1q2.64.33,5.28.73c1.76.26,3.51.58,5.26.89C44.33,210.75,47.82,211.48,51.26,212.46Z" transform="translate(0 0)"/><path class="cls-4" d="M10.61,95.17c7.22-3.69,14.6-7,22-10.25,3.71-1.59,7.42-3.2,11.16-4.73S51.24,77.13,55,75.64l.19,2.63c-2.78-.68-5.54-1.45-8.32-2.17s-5.52-1.53-8.28-2.29-5.52-1.58-8.26-2.43-5.48-1.71-8.2-2.63q4.26.66,8.49,1.46c2.82.51,5.63,1.09,8.44,1.65s5.62,1.16,8.41,1.81,5.6,1.23,8.38,1.91l4.1,1L56,78.21c-3.73,1.55-7.46,3.09-11.22,4.57s-7.53,2.94-11.3,4.39C26,90,18.36,92.77,10.61,95.17Z" transform="translate(0 0)"/><path class="cls-4" d="M31.75,79.86c-1-3.45-1.68-6.93-2.31-10.43-.3-1.76-.61-3.51-.86-5.27s-.49-3.52-.7-5.28l-.15-1.26,1,.66c2.2,1.43,4.38,2.91,6.47,4.52-2.42-1.06-4.75-2.27-7.06-3.51L29,58.7c.34,1.74.66,3.49.94,5.25s.54,3.51.79,5.27C31.23,72.75,31.61,76.28,31.75,79.86Z" transform="translate(0 0)"/></g><g class="cls-3"><path class="cls-4" d="M171.87,176.31c-.12.34-.27.65-.39,1a7.23,7.23,0,0,0-.26,1,1.7,1.7,0,0,0,.44,1.7,1.25,1.25,0,0,0,.82.3.6.6,0,0,1,.4.17.45.45,0,0,1,0,.48c-.08.19-.09.2,0,.34a3,3,0,0,0,.28.37.38.38,0,0,1,.09.36l-.06.27a3,3,0,0,1-.46,1,4.07,4.07,0,0,0,.22-1c0-.16,0-.39,0-.37a2.73,2.73,0,0,1-.4-.42.69.69,0,0,1-.09-.36,1.23,1.23,0,0,1,.08-.31c0-.08,0,0,0,0s0,0-.08,0a1.71,1.71,0,0,1-1.7-1.44,2.51,2.51,0,0,1,.1-1.13,7.19,7.19,0,0,1,.4-1C171.46,176.88,171.66,176.59,171.87,176.31Z" transform="translate(0 0)"/><path class="cls-4" d="M174.94,178.93a3.62,3.62,0,0,0-.1.91,2.25,2.25,0,0,0,.32.84,1.74,1.74,0,0,1,0,1,2.23,2.23,0,0,1-.51.82,2.51,2.51,0,0,0,.24-1.74c-.07-.25-.31-.57-.26-.93A2.16,2.16,0,0,1,174.94,178.93Z" transform="translate(0 0)"/><path class="cls-4" d="M173.07,186.29c.17-.35.37-.69.55-1a5.26,5.26,0,0,1,.67-1,2.81,2.81,0,0,1,1.13-.61,4.17,4.17,0,0,0,.93-.51,2,2,0,0,0,.92-1.62,1.28,1.28,0,0,0-.26-.86,5.14,5.14,0,0,0-.41-.42,1,1,0,0,1-.19-.77l.26.28a1.47,1.47,0,0,0-.8.32,1.08,1.08,0,0,1-1,.17,1,1,0,0,0,.84-.4,1.52,1.52,0,0,1,1-.59l.24,0,0,.31a.43.43,0,0,0,.14.32,2.93,2.93,0,0,1,.45.36,2,2,0,0,1,.53,1.29,2.5,2.5,0,0,1-.32,1.33,3.09,3.09,0,0,1-.92.95,4.12,4.12,0,0,1-1.15.53,2.65,2.65,0,0,0-1,.36C174.14,185.1,173.64,185.76,173.07,186.29Z" transform="translate(0 0)"/><path class="cls-6" d="M197.48,161.18a70.67,70.67,0,0,1-32.84,34.52,19.31,19.31,0,1,0-38.08-.3,19.1,19.1,0,0,0,3.13,7.84,71.07,71.07,0,0,1-47.28-20.85,19.31,19.31,0,1,0-18-30.9,70.59,70.59,0,0,1,3.49-47.86c.53-1.2,1.09-2.36,1.68-3.51a19.31,19.31,0,1,0,30.93-22.23,19,19,0,0,0-7.15-4.48,71,71,0,0,1,50.84-11A19.31,19.31,0,1,0,176.89,77a71,71,0,0,1,25.89,44.71,19.31,19.31,0,1,0-3.69,35.57C198.61,158.55,198.06,159.87,197.48,161.18Z" transform="translate(0 0)"/><path class="cls-4" d="M186,173.23a1.54,1.54,0,0,0,.46-.71c.09-.26.15-.54,0-.72a1.34,1.34,0,0,0-.23-.24.58.58,0,0,0-.25.1,2,2,0,0,0-.55.57,6.29,6.29,0,0,1-1.21,1.32,4.72,4.72,0,0,1-.77.48.91.91,0,0,1-.89,0,.86.86,0,0,0,.79-.16,5,5,0,0,0,.66-.54,7,7,0,0,0,1.09-1.33,2.3,2.3,0,0,1,.7-.65.87.87,0,0,1,.24-.1.41.41,0,0,1,.34,0,.84.84,0,0,1,.35.41.92.92,0,0,1-.07,1A1.47,1.47,0,0,1,186,173.23Z" transform="translate(0 0)"/><path class="cls-4" d="M185.17,172.08a1.16,1.16,0,0,0,.29-1.05.64.64,0,0,0-.28-.39.28.28,0,0,0-.35.13,6.36,6.36,0,0,1-1.56,1.82,5.31,5.31,0,0,1-1.06.61,2,2,0,0,1-1.24.17,2.63,2.63,0,0,1-1.16-.45,4.21,4.21,0,0,1-.38-.48l-.17-.25-.08-.12a.43.43,0,0,1,0-.07c0-.05.07,0,0,0s0,0,0,.06l.11.11.2.21c.13.15.29.26.42.39a2.41,2.41,0,0,0,1.07.3,3.09,3.09,0,0,0,2-.79,6.22,6.22,0,0,0,.85-.77c.27-.29.43-.6.73-.95a.55.55,0,0,1,.7-.13.84.84,0,0,1,.34.57A1.16,1.16,0,0,1,185.17,172.08Z" transform="translate(0 0)"/><path class="cls-4" d="M180.41,167.33a7.65,7.65,0,0,1,1.63,1.73,15.82,15.82,0,0,1,1.22,2.05,20.05,20.05,0,0,1,.92,2.2l.36,1.13c.09.38.2.77.28,1.15-.63-1.45-1.2-2.91-1.92-4.3a20.52,20.52,0,0,0-1.12-2.06A12.52,12.52,0,0,0,180.41,167.33Z" transform="translate(0 0)"/><path class="cls-4" d="M180.7,170.67a1.32,1.32,0,0,1-.6-.57,1.27,1.27,0,0,1-.16-.81c.16.23.26.46.4.68S180.59,170.4,180.7,170.67Z" transform="translate(0 0)"/><path class="cls-4" d="M115.75,198.81a2.62,2.62,0,0,1,1.14-3.08l0,.34c-.5-.12-.64-.57-.79-.86a4.84,4.84,0,0,1-.3-1.05,4.22,4.22,0,0,1,.22-2.14l.31.23a4.93,4.93,0,0,0-.81.83,1.82,1.82,0,0,1-1.14.64c-.5,0-.85-.4-1.11-.2s0,.73-.2,1.11c.1-.39-.26-.81.08-1.23a.63.63,0,0,1,.68-.06,1,1,0,0,0,.52.09,1.52,1.52,0,0,0,.89-.6,4.86,4.86,0,0,1,.86-.91l.52-.37-.21.61a4.26,4.26,0,0,0-.19,1.94,3.8,3.8,0,0,0,.25,1c.11.31.28.62.49.66l.51.12-.46.22A2.61,2.61,0,0,0,115.75,198.81Z" transform="translate(0 0)"/><path class="cls-4" d="M117.35,194.63c-.53.2-1.07.28-1.55.47a3.53,3.53,0,0,0-1.37.77,2,2,0,0,1,1.26-1.09A4.05,4.05,0,0,1,117.35,194.63Z" transform="translate(0 0)"/><path class="cls-4" d="M116.89,193.12a1.1,1.1,0,0,1,.8-1C117.42,192.48,117.19,192.77,116.89,193.12Z" transform="translate(0 0)"/><path class="cls-4" d="M91.75,185.61a1.59,1.59,0,0,0,.71.46c.26.09.55.16.72,0s.22-.17.24-.23,0-.13-.09-.24a2,2,0,0,0-.57-.56,6.05,6.05,0,0,1-1.32-1.21A4.72,4.72,0,0,1,91,183a.94.94,0,0,1,0-.89.88.88,0,0,0,.16.79,4.38,4.38,0,0,0,.55.66A7.08,7.08,0,0,0,93,184.7a2.39,2.39,0,0,1,.65.69,1.33,1.33,0,0,1,.1.24.53.53,0,0,1,0,.35,1,1,0,0,1-.41.35,1,1,0,0,1-1-.08A1.5,1.5,0,0,1,91.75,185.61Z" transform="translate(0 0)"/><path class="cls-4" d="M92.91,184.8a1.12,1.12,0,0,0,1,.28.63.63,0,0,0,.4-.27.3.3,0,0,0-.13-.36,6.32,6.32,0,0,1-1.82-1.55,5.63,5.63,0,0,1-.6-1.07,2,2,0,0,1-.17-1.24,2.55,2.55,0,0,1,.45-1.15,4.31,4.31,0,0,1,.48-.39l.25-.17.12-.08a.15.15,0,0,1,.07,0s0,.06,0,0,0,0-.06,0l-.11.1-.21.2c-.15.14-.26.29-.39.42a2.41,2.41,0,0,0-.3,1.07,3,3,0,0,0,.79,2,5.13,5.13,0,0,0,.76.85c.29.27.6.43.94.73a.56.56,0,0,1,.14.7.84.84,0,0,1-.57.35A1.19,1.19,0,0,1,92.91,184.8Z" transform="translate(0 0)"/><path class="cls-4" d="M97.66,180a7.24,7.24,0,0,1-1.73,1.63,14.58,14.58,0,0,1-2.05,1.22,22.14,22.14,0,0,1-2.2.91l-1.13.36-1.15.27c1.45-.62,2.91-1.19,4.3-1.9a20.52,20.52,0,0,0,2.06-1.12A11.6,11.6,0,0,0,97.66,180Z" transform="translate(0 0)"/><path class="cls-4" d="M94.33,180.33a1.32,1.32,0,0,1,.57-.6,1.27,1.27,0,0,1,.81-.16c-.23.16-.46.26-.68.39S94.59,180.22,94.33,180.33Z" transform="translate(0 0)"/><path class="cls-4" d="M109,195.2c-1-1.49-1.9-3-2.81-4.57s-1.78-3.09-2.6-4.68l.56-.1c-.17,1.25-.34,2.51-.56,3.75s-.42,2.5-.68,3.74c0-1.26.14-2.53.26-3.79s.25-2.52.39-3.78l.1-.88.45.78c.9,1.54,1.7,3.14,2.55,4.71S108.27,193.56,109,195.2Z" transform="translate(0 0)"/><path class="cls-4" d="M105.1,191c-.73.29-1.47.55-2.23.77s-1.51.42-2.27.61l-.28.07.13-.24c.26-.52.52-1,.82-1.54-.17.56-.38,1.1-.59,1.64l-.15-.17c.75-.23,1.5-.46,2.27-.65S104.32,191.08,105.1,191Z" transform="translate(0 0)"/><path class="cls-4" d="M74,128.87c-.16-.32-.27-.65-.41-1A7.94,7.94,0,0,0,73,127a1.69,1.69,0,0,0-1.5-.89,1.21,1.21,0,0,0-.8.36.55.55,0,0,1-.4.16.46.46,0,0,1-.37-.3c-.07-.2-.07-.21-.2-.29a4,4,0,0,0-.46-.06.4.4,0,0,1-.32-.2l-.15-.23a3.11,3.11,0,0,1-.35-1,3.71,3.71,0,0,0,.56.87c.1.12.24.31.27.25a3,3,0,0,1,.58,0,.64.64,0,0,1,.31.19.83.83,0,0,1,.16.28c0,.07,0,0,0,0s0,0,0-.07a1.78,1.78,0,0,1,1.08-.5,1.74,1.74,0,0,1,1.15.32,2.58,2.58,0,0,1,.72.87,6.64,6.64,0,0,1,.42,1C73.85,128.17,73.92,128.53,74,128.87Z" transform="translate(0 0)"/><path class="cls-4" d="M69.94,129.18a3.81,3.81,0,0,0-.58-.72c-.21-.21-.49-.23-.82-.37a1.73,1.73,0,0,1-.69-.73,2.41,2.41,0,0,1-.23-.94,2.55,2.55,0,0,0,1.06,1.4c.23.13.63.19.84.48A2.17,2.17,0,0,1,69.94,129.18Z" transform="translate(0 0)"/><path class="cls-4" d="M66.07,122.64c.13.37.23.75.34,1.13a5.33,5.33,0,0,1,.25,1.19,2.83,2.83,0,0,1-.37,1.23,4.88,4.88,0,0,0-.31,1,2,2,0,0,0,.49,1.81,1.31,1.31,0,0,0,.8.42,5.14,5.14,0,0,0,.58,0,1,1,0,0,1,.68.41l-.38,0a1.42,1.42,0,0,0,.34-.78c.09-.33.25-.75.6-.84a1.07,1.07,0,0,0-.31.87,1.54,1.54,0,0,1-.27,1.11l-.16.19-.22-.21a.42.42,0,0,0-.33-.13,3.69,3.69,0,0,1-.57.06,2.08,2.08,0,0,1-1.29-.53,2.59,2.59,0,0,1-.7-1.18,3,3,0,0,1,0-1.32,4.35,4.35,0,0,1,.44-1.19,2.52,2.52,0,0,0,.44-.94C66.15,124.24,66,123.42,66.07,122.64Z" transform="translate(0 0)"/><path class="cls-4" d="M66.11,141a1.56,1.56,0,0,0,.18.83c.11.25.27.5.52.5a1.26,1.26,0,0,0,.33,0s.08-.11.11-.24a2.16,2.16,0,0,0,0-.8,5.94,5.94,0,0,1-.07-1.79,4.48,4.48,0,0,1,.2-.88A.91.91,0,0,1,68,138a.88.88,0,0,0-.45.67,4.89,4.89,0,0,0-.08.85,7.26,7.26,0,0,0,.16,1.72,2.15,2.15,0,0,1,0,.94.84.84,0,0,1-.09.25.54.54,0,0,1-.26.23.92.92,0,0,1-.53,0,1,1,0,0,1-.62-.73A1.46,1.46,0,0,1,66.11,141Z" transform="translate(0 0)"/><path class="cls-4" d="M67.5,141.25a1.14,1.14,0,0,0,.54.94.64.64,0,0,0,.47.09.28.28,0,0,0,.16-.35,6.26,6.26,0,0,1-.18-2.38,5.3,5.3,0,0,1,.33-1.18,2,2,0,0,1,.76-1,2.74,2.74,0,0,1,1.13-.5c.21,0,.42,0,.61.07l.3.06.14,0,.08,0s0,.07,0,0,0,0-.06,0h-.45c-.2,0-.38,0-.57,0a2.67,2.67,0,0,0-1,.54,3.06,3.06,0,0,0-.88,2,5.42,5.42,0,0,0-.06,1.14c0,.39.12.73.15,1.18a.56.56,0,0,1-.4.59.84.84,0,0,1-.65-.16A1.19,1.19,0,0,1,67.5,141.25Z" transform="translate(0 0)"/><path class="cls-4" d="M74.23,141.26a7.31,7.31,0,0,1-2.38-.08,15.34,15.34,0,0,1-2.31-.59,22.14,22.14,0,0,1-2.2-.91l-1-.55-1-.62c1.47.58,2.9,1.22,4.39,1.7a22.14,22.14,0,0,0,2.24.67A12.91,12.91,0,0,0,74.23,141.26Z" transform="translate(0 0)"/><path class="cls-4" d="M71.67,139.1a1.25,1.25,0,0,1,.83,0,1.34,1.34,0,0,1,.69.46c-.29,0-.52-.15-.77-.2S71.93,139.21,71.67,139.1Z" transform="translate(0 0)"/><path class="cls-4" d="M66.32,115.32a2.62,2.62,0,0,1,3.08,1.14l-.34.06c.12-.51.57-.65.87-.79a4.22,4.22,0,0,1,3.19-.07l-.24.3a4.93,4.93,0,0,0-.83-.81,1.86,1.86,0,0,1-.63-1.14c0-.5.4-.85.19-1.11s-.72-.05-1.1-.2c.39.09.8-.26,1.23.08a.63.63,0,0,1,.06.68.91.91,0,0,0-.09.52,1.55,1.55,0,0,0,.59.89,5.23,5.23,0,0,1,.92.86l.36.52L73,116a4.31,4.31,0,0,0-2-.19,3.78,3.78,0,0,0-1,.24c-.31.12-.62.28-.66.49l-.12.51-.22-.45A2.6,2.6,0,0,0,66.32,115.32Z" transform="translate(0 0)"/><path class="cls-4" d="M70.5,116.92c-.2-.52-.28-1.06-.46-1.55a3.89,3.89,0,0,0-.77-1.37,2,2,0,0,1,1.08,1.26A3.92,3.92,0,0,1,70.5,116.92Z" transform="translate(0 0)"/><path class="cls-4" d="M72,116.47a1.11,1.11,0,0,1,1,.81C72.65,117,72.36,116.77,72,116.47Z" transform="translate(0 0)"/><path class="cls-4" d="M124.23,65.8a1.51,1.51,0,0,0-.83.18c-.25.11-.49.27-.49.52a.75.75,0,0,0,0,.33.5.5,0,0,0,.23.11,2.16,2.16,0,0,0,.8,0,6.3,6.3,0,0,1,1.79-.07,4.1,4.1,0,0,1,.89.21.89.89,0,0,1,.61.64.86.86,0,0,0-.67-.45,4,4,0,0,0-.85-.09,7.13,7.13,0,0,0-1.71.16,2.55,2.55,0,0,1-.95,0,1,1,0,0,1-.24-.1.45.45,0,0,1-.24-.25.88.88,0,0,1,0-.54.93.93,0,0,1,.73-.61A1.42,1.42,0,0,1,124.23,65.8Z" transform="translate(0 0)"/><path class="cls-4" d="M124,67.19a1.13,1.13,0,0,0-.94.53.71.71,0,0,0-.09.48.29.29,0,0,0,.35.16,6.26,6.26,0,0,1,2.38-.18,5.89,5.89,0,0,1,1.18.33,2.1,2.1,0,0,1,1,.76,2.77,2.77,0,0,1,.49,1.14,5.68,5.68,0,0,1-.07.61l-.06.29,0,.15s0,.05,0,.07-.07,0,0,0,0,0,0-.07V71a3.54,3.54,0,0,0,0-.57,2.44,2.44,0,0,0-.53-1,3.09,3.09,0,0,0-2-.89,5.42,5.42,0,0,0-1.14-.06c-.39,0-.73.12-1.18.15a.56.56,0,0,1-.59-.4.84.84,0,0,1,.16-.65A1.2,1.2,0,0,1,124,67.19Z" transform="translate(0 0)"/><path class="cls-4" d="M124,73.92a7.6,7.6,0,0,1,.08-2.38,15.37,15.37,0,0,1,.6-2.31,22.14,22.14,0,0,1,.91-2.2l.55-1c.21-.33.41-.68.63-1-.59,1.47-1.23,2.9-1.71,4.39a21.44,21.44,0,0,0-.68,2.24A12.91,12.91,0,0,0,124,73.92Z" transform="translate(0 0)"/><path class="cls-4" d="M126.12,71.36a1.25,1.25,0,0,1,0,.83,1.34,1.34,0,0,1-.46.69c0-.28.15-.52.21-.77S126,71.63,126.12,71.36Z" transform="translate(0 0)"/><path class="cls-4" d="M105.24,71.16c1.75.36,3.48.81,5.21,1.25s3.44,1,5.14,1.49l-.32.47c-.76-1-1.53-2-2.26-3.06s-1.46-2.06-2.15-3.13c.86.94,1.69,1.9,2.49,2.87s1.6,2,2.39,3l.55.7-.87-.24c-1.72-.46-3.42-1-5.13-1.54S106.91,71.81,105.24,71.16Z" transform="translate(0 0)"/><path class="cls-4" d="M111,71.42c.32-.72.67-1.43,1.05-2.11s.77-1.37,1.18-2l.14-.25.09.27c.18.55.35,1.1.49,1.66-.27-.51-.5-1-.73-1.57h.23c-.37.7-.75,1.39-1.16,2.06A22.19,22.19,0,0,1,111,71.42Z" transform="translate(0 0)"/><path class="cls-4" d="M176.85,93.5c.34.12.65.27,1,.4a7.23,7.23,0,0,0,1,.26,1.69,1.69,0,0,0,1.7-.42,1.26,1.26,0,0,0,.31-.82.57.57,0,0,1,.18-.4.43.43,0,0,1,.47,0c.2.09.2.09.35.06s.21-.17.37-.29a.39.39,0,0,1,.36-.08,2.61,2.61,0,0,1,.27.06,2.86,2.86,0,0,1,1,.47,3.6,3.6,0,0,0-1-.23c-.16,0-.39,0-.37,0a2.73,2.73,0,0,1-.42.4.68.68,0,0,1-.36.08,1.23,1.23,0,0,1-.31-.08c-.08,0-.05,0,0,0s0,0,0,.08a1.69,1.69,0,0,1-1.45,1.69,2.51,2.51,0,0,1-1.13-.1,6.69,6.69,0,0,1-1-.42C177.42,93.92,177.12,93.72,176.85,93.5Z" transform="translate(0 0)"/><path class="cls-4" d="M179.48,90.45a3.7,3.7,0,0,0,.92.1,2.48,2.48,0,0,0,.84-.31,1.66,1.66,0,0,1,1,0,2.26,2.26,0,0,1,.82.51,2.53,2.53,0,0,0-1.74-.25c-.25.07-.58.31-.94.25A2.22,2.22,0,0,1,179.48,90.45Z" transform="translate(0 0)"/><path class="cls-4" d="M186.84,92.36c-.36-.17-.7-.37-1-.56a4.84,4.84,0,0,1-1-.67,2.77,2.77,0,0,1-.6-1.13,5,5,0,0,0-.5-.94,2,2,0,0,0-1.62-.93,1.28,1.28,0,0,0-.86.26c-.1.07-.28.26-.43.4A1,1,0,0,1,180,89l.28-.25a1.43,1.43,0,0,0,.31.8,1.08,1.08,0,0,1,.17,1,1.08,1.08,0,0,0-.4-.85,1.56,1.56,0,0,1-.59-1l0-.24.31,0a.46.46,0,0,0,.32-.13,3.49,3.49,0,0,1,.36-.46,2,2,0,0,1,1.29-.52,2.49,2.49,0,0,1,1.33.34,3.09,3.09,0,0,1,.95.92,4.3,4.3,0,0,1,.52,1.16,2.6,2.6,0,0,0,.35,1C185.65,91.28,186.31,91.79,186.84,92.36Z" transform="translate(0 0)"/><path class="cls-4" d="M191.82,97.73a2.62,2.62,0,0,1-3,1.36l.2-.28A1.25,1.25,0,0,1,189,100a4.2,4.2,0,0,1-.53,1,4.25,4.25,0,0,1-1.68,1.35l0-.38a5,5,0,0,0,1.16,0,1.85,1.85,0,0,1,1.25.36c.39.32.32.88.65.93s.55-.48.92-.64c-.34.21-.39.75-.93.81-.28,0-.44-.26-.52-.44a1,1,0,0,0-.3-.44,1.6,1.6,0,0,0-1.05-.2,5.21,5.21,0,0,1-1.26,0l-.62-.11.58-.28a4.38,4.38,0,0,0,1.51-1.23,4.56,4.56,0,0,0,.51-.85c.13-.3.24-.63.12-.81l-.28-.45.48.17A2.61,2.61,0,0,0,191.82,97.73Z" transform="translate(0 0)"/><path class="cls-4" d="M187.72,99.54c.52.23.95.56,1.42.77a3.71,3.71,0,0,0,1.52.43,2,2,0,0,1-1.66-.13A3.92,3.92,0,0,1,187.72,99.54Z" transform="translate(0 0)"/><path class="cls-4" d="M187,100.93a1.13,1.13,0,0,1-1.29.14C186.14,101,186.51,101,187,100.93Z" transform="translate(0 0)"/><path class="cls-4" d="M194,105.07c-.37,1.75-.82,3.48-1.27,5.21s-.95,3.44-1.5,5.14l-.47-.32c1-.76,2-1.53,3.06-2.25s2.08-1.46,3.14-2.15c-.94.86-1.9,1.68-2.88,2.49s-2,1.59-3,2.38l-.71.55.24-.87c.47-1.73,1-3.42,1.55-5.13S193.35,106.74,194,105.07Z" transform="translate(0 0)"/><path class="cls-4" d="M193.72,110.83a22.94,22.94,0,0,1,2.11,1c.7.37,1.37.78,2,1.19l.24.15-.26.08c-.55.18-1.1.35-1.67.49.52-.27,1-.5,1.58-.73l0,.23c-.69-.37-1.38-.75-2.05-1.16S194.36,111.29,193.72,110.83Z" transform="translate(0 0)"/><path class="cls-4" d="M149.1,65c1.11,1.9,2.15,3.83,3.21,5.75s2,3.88,3,5.83q3,5.86,5.74,11.83l-1.41.19c.28-1.53.6-3,.91-4.58s.64-3,1-4.56.67-3,1.05-4.54.74-3,1.16-4.53c-.14,1.55-.35,3.1-.52,4.64s-.41,3.09-.62,4.63-.45,3.08-.71,4.61-.49,3.07-.77,4.6l-.4,2.24-1-2.06c-1.93-3.93-3.78-7.9-5.58-11.9-.89-2-1.77-4-2.62-6S149.87,67.07,149.1,65Z" transform="translate(0 0)"/><path class="cls-4" d="M158.06,76c.92-.31,1.84-.6,2.78-.84s1.86-.52,2.8-.74c1.87-.44,3.76-.85,5.66-1.18l.68-.12-.33.57c-.72,1.23-1.43,2.46-2.24,3.65.5-1.35,1.09-2.64,1.68-3.94l.34.45c-1.86.49-3.75.9-5.64,1.28-.94.19-1.9.34-2.85.49S159,75.87,158.06,76Z" transform="translate(0 0)"/><path class="cls-4" d="M201.85,127.1c-1.46,1.65-3,3.24-4.47,4.84s-3.06,3.14-4.6,4.7q-4.67,4.63-9.46,9.13l-.62-1.29c1.54-.21,3.08-.37,4.63-.56s3.09-.32,4.63-.49,3.1-.3,4.65-.4,3.11-.24,4.67-.31c-1.52.35-3.05.64-4.58.95s-3.06.57-4.59.84-3.06.53-4.6.76-3.07.49-4.61.7l-2.26.3,1.64-1.59c3.14-3.06,6.35-6.05,9.59-9,1.63-1.46,3.26-2.92,4.92-4.35S200.13,128.47,201.85,127.1Z" transform="translate(0 0)"/><path class="cls-4" d="M194.22,139c.58.78,1.14,1.57,1.66,2.38s1.07,1.61,1.57,2.43c1,1.65,2,3.31,2.88,5l.32.61-.64-.14c-1.39-.3-2.79-.6-4.16-1,1.43.06,2.84.22,4.26.38l-.32.47c-1-1.63-2-3.29-3-5-.47-.84-.91-1.7-1.35-2.56S194.61,139.91,194.22,139Z" transform="translate(0 0)"/><path class="cls-4" d="M159.17,196.51c-2-.88-4-1.82-6-2.76s-3.94-1.92-5.9-2.91c-3.9-2-7.77-4-11.61-6.17l1-1c.67,1.4,1.31,2.82,2,4.23s1.27,2.84,1.9,4.26,1.25,2.85,1.83,4.3,1.19,2.87,1.73,4.33c-.8-1.33-1.54-2.7-2.31-4.06s-1.49-2.73-2.23-4.1-1.45-2.75-2.15-4.14-1.41-2.76-2.09-4.16l-1-2.06,2,1.07c3.87,2,7.71,4.16,11.52,6.33,1.9,1.09,3.79,2.19,5.67,3.33S157.33,195.3,159.17,196.51Z" transform="translate(0 0)"/><path class="cls-4" d="M145.47,192.94c-.56.8-1.13,1.58-1.74,2.33s-1.2,1.51-1.83,2.24c-1.25,1.46-2.53,2.9-3.87,4.29l-.48.5-.07-.66c-.15-1.41-.3-2.83-.34-4.26.39,1.38.67,2.77,1,4.16l-.54-.16c1.22-1.49,2.49-2.93,3.8-4.35.65-.71,1.33-1.4,2-2.08S144.75,193.59,145.47,192.94Z" transform="translate(0 0)"/><path class="cls-4" d="M80,177.45c.2-2.19.48-4.37.76-6.55s.61-4.34.94-6.5q1-6.5,2.27-13l1.26.67c-1.13,1.08-2.28,2.12-3.42,3.18s-2.3,2.08-3.45,3.13-2.33,2.06-3.52,3.06-2.37,2-3.59,3c1-1.18,2.09-2.31,3.14-3.46s2.14-2.26,3.21-3.39,2.17-2.23,3.27-3.32,2.19-2.2,3.32-3.28l1.64-1.58-.39,2.26c-.73,4.31-1.56,8.62-2.44,12.91-.45,2.15-.91,4.29-1.41,6.43S80.54,175.32,80,177.45Z" transform="translate(0 0)"/><path class="cls-4" d="M79.1,163.32c-.93-.29-1.85-.59-2.75-.94s-1.81-.67-2.7-1c-1.78-.74-3.55-1.51-5.28-2.36l-.62-.3.6-.26c1.3-.59,2.6-1.16,4-1.65-1.19.79-2.43,1.5-3.67,2.21v-.57q2.7,1.05,5.32,2.27c.88.4,1.74.83,2.6,1.26S78.26,162.83,79.1,163.32Z" transform="translate(0 0)"/><path class="cls-4" d="M73.52,96.23c2.15-.49,4.3-.89,6.46-1.31s4.32-.76,6.48-1.12c4.33-.69,8.66-1.32,13-1.86l-.25,1.41c-1.37-.74-2.72-1.51-4.08-2.27s-2.7-1.54-4-2.31-2.68-1.57-4-2.39-2.66-1.62-4-2.48c1.44.6,2.84,1.27,4.26,1.91s2.81,1.33,4.22,2,2.79,1.36,4.17,2.08,2.77,1.4,4.15,2.13l2,1.08-2.27.33c-4.33.63-8.68,1.18-13,1.68-2.18.23-4.36.46-6.55.65S75.72,96.12,73.52,96.23Z" transform="translate(0 0)"/><path class="cls-4" d="M86.69,91c0-1,0-1.94,0-2.9s.08-1.93.16-2.89c.15-1.93.34-3.85.6-5.76l.09-.68.45.49c1,1.06,1.91,2.11,2.79,3.24-1.13-.88-2.19-1.84-3.24-2.79l.54-.2c-.11,1.93-.29,3.85-.51,5.76-.11,1-.25,1.92-.4,2.87S86.89,90.08,86.69,91Z" transform="translate(0 0)"/></g></g></g></g></svg>