<svg xmlns="http://www.w3.org/2000/svg" viewBox="0 0 90.61 105.94"><defs><style>.cls-1{fill:#866bc6;}</style></defs><title>Ресурс 5</title><g id="Слой_2" data-name="Слой 2"><g id="Слой_1-2" data-name="Слой 1"><path class="cls-1" d="M0,51.66c6.18.59,12.28,1.61,18.38,2.75s12.08,2.74,18.09,4.27,11.93,3.38,17.84,5.59a77,77,0,0,1,8.8,3.87,35.62,35.62,0,0,1,4.32,2.65,20,20,0,0,1,2.15,1.78,10.1,10.1,0,0,1,2.06,2.71,7.2,7.2,0,0,1,.71,2.1,6.6,6.6,0,0,1-.17,2.54,7.07,7.07,0,0,1-2.34,3.53,15,15,0,0,1-5.24,2.73,42.63,42.63,0,0,1-9.85,1.68c-.76,0-1.5.1-2.17.16l-.92.12-.31.06h0s.09,0,.12-.07l.23-.14.11-.1a2.37,2.37,0,0,0,.24-.23,1.58,1.58,0,0,0,.22-.29l.09-.15a1.59,1.59,0,0,0,.14-.26,2.7,2.7,0,0,0,.25-1.18,2.6,2.6,0,0,0-.21-1,2.05,2.05,0,0,0-.25-.46,1.12,1.12,0,0,0-.17-.2L52,84a.49.49,0,0,0-.13-.12l-.07,0h0s0,0,0,0a1.44,1.44,0,0,0,.27.15,17.31,17.31,0,0,0,1.85.71c1.39.48,2.87.91,4.48,1.52a18.89,18.89,0,0,1,2.47,1.16,9.4,9.4,0,0,1,2.57,2,6.53,6.53,0,0,1,.63.93,4.35,4.35,0,0,1,.09,4,7.22,7.22,0,0,1-1.06,1.51c-.17.19-.34.36-.49.51s-.15.14-.14.12a2,2,0,0,0,.22-.4,2.11,2.11,0,0,0,.16-.65,2.09,2.09,0,0,0-.12-.84,1.72,1.72,0,0,0-.5-.77c-.19-.15-.12-.06,0,0s.52.28.86.45l2,1c2.73,1.31,5.51,2.55,8.33,3.75,5.62,2.41,11.37,4.61,17.14,6.85-3.07-.39-6.12-.93-9.17-1.55s-6.06-1.33-9.07-2.15-6-1.73-8.94-2.78c-.74-.26-1.48-.52-2.21-.8-.37-.14-.74-.28-1.24-.52a4.28,4.28,0,0,1-1-.65,2.92,2.92,0,0,1-1-2.35,3.08,3.08,0,0,1,.23-.94,3.31,3.31,0,0,1,.54-.87L59,93l.28-.35a.94.94,0,0,0,.22-.4s-.12.23-.08.46a1.35,1.35,0,0,0,.07.25s0,0,0,0a4.69,4.69,0,0,0-1.13-.68,12.43,12.43,0,0,0-1.76-.66c-1.31-.39-2.81-.75-4.35-1.17a21.9,21.9,0,0,1-2.52-.81,7.6,7.6,0,0,1-.76-.34,3.88,3.88,0,0,1-.46-.26l-.26-.17-.12-.08-.18-.15-.35-.31-.16-.17a3.81,3.81,0,0,1-.24-.32,3.38,3.38,0,0,1-.68-2,3.48,3.48,0,0,1,.31-1.45,3.42,3.42,0,0,1,.16-.33l.14-.21c.1-.14.21-.27.32-.4a2.55,2.55,0,0,1,.34-.33L48,83a4,4,0,0,1,.47-.3,6,6,0,0,1,1.15-.47q.45-.14.81-.21c.49-.1.95-.18,1.37-.24.85-.12,1.65-.2,2.42-.29a38.45,38.45,0,0,0,8.28-1.63,9,9,0,0,0,2.92-1.46c.33-.24.26-.36.23-.2s0,.17,0,.25,0,0-.06-.06a3.4,3.4,0,0,0-.74-.93,14.44,14.44,0,0,0-1.4-1.18A34.74,34.74,0,0,0,59.92,74a80.51,80.51,0,0,0-8-3.79c-5.54-2.33-11.3-4.4-17.06-6.48s-11.53-4.18-17.35-6.14Z"/><path class="cls-1" d="M72,36.45a143.18,143.18,0,0,1-22.73-4.74,160.53,160.53,0,0,1-22-7.79c-1.79-.85-3.58-1.75-5.33-2.8-.87-.53-1.73-1.1-2.59-1.73a15.81,15.81,0,0,1-2.5-2.27,8,8,0,0,1-1.14-1.67,5.51,5.51,0,0,1-.44-1.15c0-.22-.09-.44-.13-.66a5.87,5.87,0,0,1,0-.73,4.33,4.33,0,0,1,.29-1.42,5.3,5.3,0,0,1,.66-1.17,6.84,6.84,0,0,1,1.64-1.46A11.54,11.54,0,0,1,20.94,7.5,22,22,0,0,1,24,6.9a39.25,39.25,0,0,1,6-.24c.47,0,.93,0,1.36,0s.9-.08.91-.06a.83.83,0,0,0-.13.11,1.13,1.13,0,0,0-.28,1.18.5.5,0,0,0,.14.26c.1.1,0,0-.13-.12a9.83,9.83,0,0,0-1.1-.59C29.14,6.6,27.26,6,25.51,4.9a5.69,5.69,0,0,1-2.23-2.23A1.71,1.71,0,0,1,23.45,1a4.53,4.53,0,0,1,1.08-1,5.08,5.08,0,0,0-.73,1.2A1.09,1.09,0,0,0,24,2.31a4.93,4.93,0,0,0,2.18,1.36c1.7.61,3.59.92,5.53,1.46a9.2,9.2,0,0,1,1.54.57,3,3,0,0,1,1,.74,2.1,2.1,0,0,1,.32.57,1.7,1.7,0,0,1,0,1.07,1.85,1.85,0,0,1-.5.76,2.42,2.42,0,0,1-.43.3,6.56,6.56,0,0,1-1.89.57c-.52.09-1,.16-1.52.22-1,.12-1.89.22-2.81.35s-1.8.3-2.68.5a18.81,18.81,0,0,0-2.51.72,8,8,0,0,0-2,1,2,2,0,0,0-.47.48c0,.06,0,.08,0,.09s0,0,0,0a3.94,3.94,0,0,0,.66.88,19.28,19.28,0,0,0,4.07,2.92c1.57.91,3.22,1.73,4.92,2.51,6.8,3.11,14,5.79,21.12,8.62S64.79,33.5,72,36.45Z"/><path class="cls-1" d="M7.72,33.23c5.82,2.61,11.52,5.07,17.47,6.42a69.5,69.5,0,0,0,9,1.55c3.13.3,6.21.62,9.37,1a64,64,0,0,1,18.6,5.45,42,42,0,0,1,8.27,5.2,30.4,30.4,0,0,1,6.42,7.18A51.08,51.08,0,0,0,60.71,51.2,97.59,97.59,0,0,0,42.89,47c-3.09-.41-6.26-.81-9.37-1.28a50.93,50.93,0,0,1-9.43-2.46A47.08,47.08,0,0,1,15.35,39,53.61,53.61,0,0,1,7.72,33.23Z"/></g></g></svg>