<?xml version="1.0" encoding="utf-8"?>
<!-- Generator: Adobe Illustrator 23.0.2, SVG Export Plug-In . SVG Version: 6.00 Build 0)  -->
<svg version="1.1" id="Слой_1" xmlns="http://www.w3.org/2000/svg" xmlns:xlink="http://www.w3.org/1999/xlink" x="0px" y="0px"
	 viewBox="0 0 1114.74 1103.37" style="enable-background:new 0 0 1114.74 1103.37;" xml:space="preserve">
<style type="text/css">
	.st0{opacity:0.31;}
	.st1{fill:#303030;}
	.st2{fill:none;stroke:#303030;stroke-width:17.8078;stroke-miterlimit:10;}
</style>
<g class="st0">
	<g>
		<g>
			<g>
				<path class="st1" d="M972.07,731.41c-0.09,2.74-0.06,5.42,0.27,8.06l0.56,3.95c0.24,1.32,0.45,2.61,0.77,3.87
					c0.63,2.5,1.52,4.85,2.93,6.76c1.39,1.92,3.24,3.25,5.44,3.86c1.09,0.3,2.23,0.45,3.36,0.37c0.57-0.01,1.12-0.12,1.67-0.23
					c0.27-0.08,0.55-0.13,0.81-0.23l0.4-0.14l0.51-0.19c0.38-0.13,0.8-0.28,1.36-0.36c0.53-0.08,1.31-0.08,2.05,0.29
					c0.72,0.34,1.29,1.04,1.51,1.69c0.23,0.63,0.25,1.15,0.26,1.55v1c0.01,0.27,0.02,0.37,0.06,0.54c0.08,0.33,0.3,0.71,0.63,1.04
					c0.32,0.33,0.77,0.62,1.29,0.88c0.54,0.26,1.07,0.45,1.79,0.73c0.21,0.08,0.47,0.19,0.75,0.4c0.28,0.19,0.57,0.55,0.69,0.82
					c0.26,0.57,0.26,0.81,0.37,1.18c0.17,0.69,0.32,1.38,0.43,2.07c0.41,2.79,0.39,5.61-0.24,8.29c-0.23-2.73-0.73-5.36-1.61-7.83
					c-0.21-0.62-0.44-1.23-0.69-1.83c-0.12-0.27-0.29-0.69-0.34-0.72c-0.04-0.03,0.02,0.06,0.02,0.07s-0.06,0-0.17-0.02
					c-1.23-0.26-2.84-0.63-4.26-1.72c-0.69-0.55-1.33-1.27-1.72-2.22c-0.2-0.47-0.3-1.04-0.33-1.44l-0.08-1.03
					c-0.02-0.27-0.08-0.44-0.1-0.44c-0.02,0.02,0.08,0.17,0.18,0.22c0.13,0.07,0.2,0.05,0.07,0.08c-0.11,0.02-0.33,0.1-0.59,0.21
					l-0.43,0.19l-0.56,0.22c-0.37,0.15-0.75,0.25-1.13,0.37c-0.77,0.19-1.55,0.35-2.33,0.4c-1.57,0.13-3.16-0.05-4.68-0.46
					c-1.51-0.44-2.96-1.13-4.24-2.09c-1.28-0.97-2.33-2.14-3.17-3.42c-1.68-2.57-2.52-5.48-2.87-8.29c-0.18-1.41-0.3-2.8-0.32-4.18
					l0.06-4.16C970.64,736.73,971.14,733.99,972.07,731.41z"/>
			</g>
			<g>
				<path class="st1" d="M1001.93,740.25c0.65,2.38,1.16,4.78,2.21,6.76c0.55,0.97,1.17,1.85,1.99,2.51
					c0.41,0.34,0.89,0.68,1.4,1.07s1.03,0.87,1.48,1.37c1.82,2.03,2.75,4.63,3,7.18c0.25,2.56-0.16,5.08-0.98,7.41
					c-0.13-2.47-0.27-4.87-0.82-7.11c-0.54-2.23-1.51-4.31-2.95-5.93c-0.69-0.82-1.59-1.4-2.61-2.36c-0.99-0.97-1.74-2.16-2.17-3.41
					C1001.59,745.23,1001.63,742.69,1001.93,740.25z"/>
			</g>
			<g>
				<path class="st1" d="M1011.86,798.11c0.09-3.04,0.3-6.07,0.6-9.1c0.3-3.07,0.43-5.98,1.55-9.29c0.55-1.62,1.61-3.35,2.78-4.58
					c1.16-1.28,2.29-2.26,3.24-3.25c1.94-2.02,3.66-4.19,4.99-6.5c1.31-2.31,2.24-4.75,2.53-7.23c0.29-2.36-0.1-4.89-1.08-7.12
					c-0.96-2.24-2.55-4.16-4.57-5.23c-0.53-0.26-0.97-0.49-1.68-0.71c-0.69-0.23-1.57-0.47-2.52-0.98
					c-1.92-1.04-3.27-2.81-3.76-4.84l2.69,1.22c-0.8,0.23-1.62,0.82-2.38,1.69c-0.77,0.86-1.49,1.92-2.24,3.02
					c-0.77,1.14-1.69,2.23-2.81,3.1c-1.09,0.88-2.53,1.46-3.86,1.3c1.3-0.34,2.24-1.22,2.95-2.2c0.72-0.99,1.21-2.14,1.68-3.29
					c0.48-1.2,0.92-2.49,1.65-3.77c0.72-1.26,1.79-2.62,3.4-3.46l1.71-0.88l0.98,2.11c0.4,0.85,1.18,1.54,1.98,1.79
					c0.41,0.14,1,0.25,1.76,0.4c0.76,0.13,1.73,0.42,2.58,0.74c1.73,0.69,3.3,1.76,4.61,3.03c1.3,1.29,2.35,2.78,3.17,4.37
					c1.6,3.2,2.29,6.82,1.87,10.43c-0.4,3.51-1.72,6.79-3.51,9.61c-1.78,2.84-4.02,5.27-6.46,7.36c-1.24,1.08-2.48,1.94-3.46,2.79
					c-0.99,0.86-1.68,1.64-2.3,2.8c-0.62,1.12-1.11,2.46-1.6,3.86c-0.44,1.42-0.91,2.85-1.39,4.27
					C1014.04,792.41,1013.01,795.26,1011.86,798.11z"/>
			</g>
		</g>
	</g>
	<g>
		<path class="st2" d="M1105.44,544.28c0,131.57-46.35,252.22-123.64,346.67c-3.93-15.79-10.48-31.22-19.87-45.63
			c-44.97-68.99-137.46-88.49-206.45-43.52c-68.99,45.04-88.49,137.46-43.44,206.45c12.44,19.07,28.53,34.42,46.72,45.55
			c-62.22,24.6-129.97,38.06-200.92,38.06c-69.93,0-136.81-13.1-198.23-37.04c13.83-8.59,26.49-19.65,37.26-33.04
			c51.67-64.18,41.55-158.06-22.63-209.72c-64.19-51.67-158.13-41.55-209.8,22.63c-14.26,17.76-23.8,37.69-28.75,58.43
			C57.32,798.37,10.24,676.85,10.24,544.26c0-10.12,0.29-20.09,0.87-30.05c12.44,10.48,26.85,18.99,42.86,25.11
			c76.99,29.18,163.15-9.53,192.33-86.6c29.25-77.06-9.53-163.15-86.52-192.4c-21.32-8.08-43.3-10.92-64.55-9.24
			C168.6,135.67,283.94,49.51,419.73,14.29c-6.19,15.06-9.97,31.44-10.84,48.61c-4.37,82.23,58.87,152.45,141.1,156.82
			c82.3,4.29,152.52-58.87,156.82-141.17c1.24-22.78-2.76-44.54-10.84-64.33C830.81,49.3,945.5,134.44,1018.92,248.68
			c-16.3-1.24-33.04,0.29-49.63,4.73c-79.54,21.39-126.69,103.26-105.3,182.8s103.26,126.69,182.8,105.3
			c21.9-5.89,41.41-16.37,57.63-30.13C1105.14,522.22,1105.44,533.21,1105.44,544.28z"/>
	</g>
	<g>
		<g>
			<g>
				<path class="st1" d="M1062.07,665.43c0.59-0.99,0.8-2.09,0.94-3.18c0.12-1.1,0.15-2.21,0.07-3.29
					c-0.09-2.14-0.79-4.26-2.25-5.02c-0.38-0.22-0.87-0.42-1.39-0.63c-0.47-0.2-0.9-0.33-1.12-0.31c-0.11,0-0.16,0.03-0.2,0.05
					c-0.04,0.03-0.15,0.11-0.29,0.25c-0.3,0.33-0.62,0.72-0.89,1.11c-1.09,1.6-1.7,3.62-2.19,5.76c-0.49,2.12-0.9,4.45-1.64,6.69
					c-0.74,2.23-1.61,4.41-2.75,6.46c-1.12,2.06-2.36,3.99-3.93,5.8c-0.81,0.87-1.75,1.7-2.85,2.21c-1.09,0.52-2.33,0.76-3.46,0.5
					c1.15-0.1,2.17-0.58,3.01-1.24s1.52-1.49,2.09-2.41c0.58-0.9,1.09-1.9,1.57-2.9s0.96-2,1.37-3.02c0.82-2.05,1.57-4.11,2.11-6.24
					c0.57-2.11,0.91-4.26,1.43-6.56c0.54-2.26,1.25-4.69,2.83-6.79c0.41-0.52,0.83-0.99,1.33-1.46c0.27-0.24,0.62-0.52,1.09-0.72
					c0.48-0.21,1.01-0.27,1.46-0.24c0.92,0.08,1.56,0.4,2.11,0.67c0.51,0.28,1.05,0.56,1.62,0.96c1.2,0.84,1.95,2.15,2.26,3.41
					c0.31,1.27,0.31,2.5,0.2,3.7c-0.15,1.18-0.38,2.33-0.77,3.45C1063.46,663.55,1062.94,664.66,1062.07,665.43z"/>
			</g>
			<g>
				<path class="st1" d="M1052.73,659.84c0.4-1.48,0.57-3,0.36-4.45c-0.19-1.44-0.73-2.81-1.64-3.83c-0.86-1.02-2.15-1.87-3.21-1.88
					c-0.52,0-0.91,0.17-1.28,0.53c-0.37,0.36-0.65,0.87-0.81,1.45c-0.17,0.59-0.25,1.27-0.32,2.02c-0.07,0.76-0.19,1.56-0.31,2.33
					c-0.24,1.56-0.59,3.1-1.01,4.63c-0.86,3.04-2.1,5.97-3.61,8.75c-0.77,1.38-1.64,2.71-2.56,3.99c-0.93,1.28-1.9,2.53-3.02,3.69
					c-2.22,2.28-4.99,4.39-8.27,5.17c-1.6,0.4-3.17,0.57-4.7,0.7c-1.54,0.12-3.24,0.2-4.88-0.31c-1.6-0.54-2.89-1.42-4.18-2.21
					l-1.94-1.23l-0.96-0.63c-0.15-0.11-0.34-0.19-0.48-0.37c-0.06-0.08-0.1-0.25,0.04-0.31c0.06-0.01,0.11,0.01,0.15,0.04
					c0.05,0.02,0.06,0.11,0,0.12c0.1-0.08-0.09-0.14-0.14-0.11s-0.02,0.14,0.03,0.18c0.12,0.11,0.32,0.15,0.49,0.23l1.07,0.42
					l2.12,0.88c1.42,0.58,2.8,1.27,4.17,1.5c1.34,0.26,2.76,0.06,4.22-0.23c1.49-0.29,2.96-0.55,4.29-1.01
					c2.63-0.9,4.89-2.67,6.79-4.84c1.92-2.17,3.62-4.62,5.03-7.19c1.46-2.55,2.62-5.28,3.51-8.08c0.46-1.4,0.85-2.83,1.15-4.27
					c0.16-0.73,0.28-1.44,0.41-2.19c0.14-0.76,0.29-1.6,0.61-2.45c0.32-0.86,0.85-1.71,1.63-2.36c0.76-0.66,1.94-1.03,2.95-0.86
					c1.01,0.14,1.83,0.6,2.52,1.13c0.69,0.53,1.26,1.17,1.73,1.87c0.93,1.42,1.34,3.1,1.28,4.7
					C1053.92,656.95,1053.44,658.48,1052.73,659.84z"/>
			</g>
			<g>
				<path class="st1" d="M1004.21,641.26c3.02,0.55,5.93,1.65,8.75,2.86c1.42,0.61,2.78,1.31,4.17,1.98
					c1.35,0.72,2.71,1.45,4.04,2.23c1.31,0.8,2.65,1.57,3.93,2.42l3.82,2.59c2.47,1.83,4.94,3.66,7.29,5.63
					c2.37,1.95,4.64,4.02,6.89,6.1c1.13,1.03,2.2,2.13,3.28,3.22c1.08,1.08,2.15,2.18,3.2,3.29c2.08,2.25,4.07,4.57,6.07,6.88
					c1.89,2.41,3.79,4.8,5.57,7.29c-2.31-2.02-4.5-4.14-6.69-6.24c-2.24-2.06-4.46-4.12-6.66-6.2c-2.3-1.97-4.44-4.11-6.76-6.05
					l-3.41-2.99c-1.12-1.01-2.32-1.92-3.48-2.89c-4.62-3.88-9.39-7.56-14.35-10.99c-1.23-0.87-2.51-1.65-3.76-2.52
					c-1.27-0.8-2.54-1.63-3.85-2.38C1009.68,643.91,1007.02,642.47,1004.21,641.26z"/>
			</g>
			<g>
				<path class="st1" d="M1016.75,663.88c-1.12,0.05-2.19-0.19-3.21-0.56c-1.02-0.38-1.97-0.91-2.84-1.56s-1.64-1.42-2.29-2.29
					c-0.64-0.88-1.17-1.84-1.42-2.93c0.96,0.57,1.77,1.19,2.59,1.78l2.37,1.78l2.37,1.79
					C1015.11,662.51,1015.93,663.12,1016.75,663.88z"/>
			</g>
		</g>
	</g>
	<g>
		<g>
			<g>
				<path class="st1" d="M646.47,1066.23c-1.57-1.55-2.83-3.45-3.73-5.52c-0.88-2.08-1.43-4.32-1.59-6.6
					c-0.15-2.28,0.05-4.61,0.65-6.86c0.61-2.24,1.62-4.41,3.01-6.34l1.45,2.23c-0.89,0.24-1.85,0.22-2.68,0
					c-0.84-0.2-1.57-0.55-2.24-0.93c-0.67-0.39-1.27-0.83-1.83-1.28c-0.53-0.46-1.08-0.89-1.59-1.38c-2.07-1.9-3.87-4.08-5.38-6.45
					c-1.49-2.38-2.75-4.91-3.61-7.59c-0.86-2.68-1.4-5.46-1.58-8.27l3.03,0.76c-1.49,2.29-2.17,5.28-3.2,8.34
					c-0.5,1.53-1.24,3.12-2.19,4.52c-0.95,1.41-2.2,2.72-3.81,3.57c-0.8,0.42-1.69,0.7-2.59,0.82c-0.89,0.1-1.7,0.08-2.46,0.08
					c-1.52-0.01-2.85,0.13-3.42,1.21c-0.28,0.51-0.34,1.2-0.22,1.9c0.11,0.7,0.35,1.4,0.69,2.08c0.67,1.36,1.56,2.82,1.57,4.42
					c-0.29-1.57-1.36-2.72-2.23-4.04c-0.45-0.66-0.85-1.4-1.09-2.22c-0.23-0.81-0.32-1.76,0.03-2.69c0.34-0.92,1.16-1.67,2.04-2.01
					c0.88-0.37,1.74-0.43,2.54-0.52c0.8-0.07,1.55-0.13,2.21-0.27c0.64-0.15,1.24-0.41,1.79-0.76c1.1-0.7,2.03-1.76,2.74-2.98
					c0.73-1.23,1.21-2.54,1.63-3.99c0.87-2.85,1.37-6.12,3.19-9.19l2.61-4.39l0.42,5.15c0.2,2.52,0.72,5.02,1.53,7.43
					c0.83,2.39,1.89,4.72,3.22,6.88c1.33,2.17,2.95,4.13,4.73,5.94c0.44,0.46,0.93,0.87,1.39,1.31c0.46,0.4,0.93,0.77,1.41,1.08
					c0.96,0.62,1.91,0.91,2.7,0.77l3.87-0.69l-2.42,2.92c-2.58,3.11-3.98,7.24-4.11,11.44c-0.06,2.1,0.17,4.24,0.77,6.3
					C644.29,1062.43,645.21,1064.43,646.47,1066.23z"/>
			</g>
			<g>
				<path class="st1" d="M644.61,1031.71c-1.54,1.53-3.21,2.85-4.82,4.16c-1.61,1.32-3.2,2.61-4.67,3.99
					c-1.47,1.37-2.84,2.84-4.07,4.43c-1.22,1.61-2.27,3.34-3.18,5.31c-0.15-2.18,0.47-4.4,1.48-6.37c1-1.99,2.41-3.75,4.02-5.25
					c1.62-1.5,3.42-2.75,5.31-3.77C640.57,1033.18,642.53,1032.33,644.61,1031.71z"/>
			</g>
			<g>
				<path class="st1" d="M636.61,1022.5c-0.39-0.83-0.54-1.72-0.57-2.61c-0.04-0.89,0.07-1.78,0.29-2.64s0.56-1.69,1.03-2.45
					c0.46-0.76,1.03-1.46,1.78-2c-0.14,0.91-0.35,1.72-0.55,2.52l-0.61,2.36l-0.63,2.35
					C637.15,1020.83,636.93,1021.64,636.61,1022.5z"/>
			</g>
		</g>
	</g>
	<g>
		<g>
			<g>
				<path class="st1" d="M435.63,1048.26c0.98,0.59,2.09,0.81,3.18,0.95c1.1,0.12,2.21,0.16,3.29,0.08
					c2.14-0.09,4.26-0.78,5.03-2.24c0.22-0.38,0.42-0.87,0.63-1.38c0.2-0.47,0.33-0.9,0.31-1.12c0-0.11-0.03-0.16-0.05-0.2
					c-0.03-0.04-0.11-0.15-0.25-0.29c-0.33-0.3-0.72-0.62-1.11-0.89c-1.6-1.09-3.62-1.71-5.75-2.2c-2.12-0.5-4.45-0.91-6.68-1.65
					c-2.22-0.75-4.41-1.62-6.45-2.76c-2.06-1.13-3.99-2.37-5.79-3.94c-0.87-0.82-1.69-1.75-2.21-2.86
					c-0.51-1.09-0.75-2.33-0.49-3.46c0.1,1.15,0.58,2.17,1.23,3.01c0.66,0.84,1.49,1.52,2.4,2.09c0.9,0.58,1.89,1.09,2.89,1.58
					c1,0.48,1.99,0.96,3.02,1.38c2.05,0.82,4.11,1.58,6.23,2.12c2.1,0.58,4.26,0.92,6.56,1.45c2.26,0.54,4.69,1.26,6.78,2.85
					c0.52,0.41,0.98,0.83,1.45,1.34c0.24,0.27,0.52,0.62,0.72,1.1c0.21,0.48,0.27,1.01,0.24,1.46c-0.08,0.92-0.4,1.56-0.68,2.11
					c-0.28,0.51-0.56,1.05-0.97,1.62c-0.84,1.2-2.16,1.95-3.41,2.25c-1.27,0.31-2.5,0.31-3.7,0.19c-1.18-0.15-2.33-0.39-3.45-0.77
					C437.51,1049.65,436.4,1049.13,435.63,1048.26z"/>
			</g>
			<g>
				<path class="st1" d="M441.24,1038.93c1.48,0.41,3,0.57,4.45,0.37c1.44-0.19,2.81-0.72,3.84-1.64c1.02-0.86,1.88-2.15,1.89-3.21
					c0-0.52-0.17-0.91-0.52-1.28c-0.36-0.37-0.87-0.65-1.45-0.81c-0.59-0.17-1.27-0.25-2.02-0.33c-0.76-0.08-1.56-0.19-2.33-0.31
					c-1.56-0.25-3.1-0.59-4.62-1.02c-3.04-0.86-5.97-2.11-8.75-3.63c-1.38-0.78-2.71-1.64-3.99-2.57c-1.27-0.94-2.53-1.91-3.68-3.03
					c-2.28-2.23-4.38-5-5.15-8.29c-0.39-1.6-0.56-3.17-0.69-4.7c-0.12-1.54-0.2-3.25,0.32-4.88c0.54-1.6,1.42-2.89,2.22-4.18
					l1.23-1.94l0.63-0.96c0.11-0.15,0.19-0.34,0.37-0.47c0.08-0.06,0.25-0.1,0.31,0.04c0.01,0.06-0.01,0.11-0.04,0.15
					c-0.02,0.05-0.11,0.06-0.12,0c0.08,0.1,0.14-0.09,0.11-0.14s-0.14-0.03-0.18,0.03c-0.11,0.12-0.16,0.32-0.23,0.49l-0.42,1.07
					l-0.88,2.12c-0.58,1.42-1.27,2.79-1.5,4.16c-0.26,1.34-0.06,2.76,0.22,4.22c0.29,1.49,0.54,2.96,1,4.29
					c0.89,2.63,2.66,4.89,4.83,6.8c2.16,1.92,4.61,3.63,7.18,5.04c2.55,1.46,5.27,2.63,8.08,3.53c1.4,0.46,2.82,0.86,4.27,1.16
					c0.73,0.16,1.44,0.28,2.19,0.41c0.76,0.14,1.6,0.29,2.45,0.62c0.86,0.32,1.71,0.85,2.36,1.64c0.66,0.76,1.03,1.94,0.86,2.95
					c-0.15,1.01-0.61,1.83-1.13,2.51c-0.53,0.69-1.17,1.26-1.88,1.73c-1.42,0.93-3.11,1.33-4.7,1.27
					C444.13,1040.13,442.6,1039.64,441.24,1038.93z"/>
			</g>
			<g>
				<path class="st1" d="M459.92,990.45c-0.56,3.02-1.66,5.92-2.88,8.74c-0.61,1.41-1.31,2.78-1.99,4.17
					c-0.73,1.35-1.46,2.71-2.24,4.03c-0.8,1.31-1.57,2.64-2.43,3.92l-2.59,3.81c-1.83,2.46-3.67,4.93-5.65,7.28
					c-1.95,2.37-4.02,4.63-6.11,6.88c-1.04,1.13-2.14,2.2-3.23,3.27c-1.08,1.08-2.19,2.14-3.3,3.2c-2.25,2.07-4.58,4.06-6.9,6.05
					c-2.41,1.89-4.81,3.78-7.3,5.56c2.03-2.3,4.14-4.49,6.25-6.68c2.06-2.24,4.13-4.45,6.22-6.65c1.98-2.3,4.12-4.43,6.07-6.75
					l2.99-3.4c1.01-1.12,1.93-2.32,2.9-3.47c3.89-4.61,7.58-9.38,11.02-14.32c0.88-1.23,1.66-2.51,2.53-3.75
					c0.8-1.27,1.63-2.54,2.39-3.84C457.26,995.91,458.7,993.26,459.92,990.45z"/>
			</g>
			<g>
				<path class="st1" d="M437.27,1002.94c-0.05-1.12,0.19-2.19,0.56-3.21c0.38-1.01,0.91-1.97,1.56-2.83
					c0.65-0.87,1.42-1.64,2.3-2.28c0.88-0.63,1.84-1.16,2.93-1.42c-0.58,0.96-1.19,1.77-1.78,2.58l-1.78,2.37l-1.79,2.36
					C438.65,1001.3,438.04,1002.12,437.27,1002.94z"/>
			</g>
		</g>
	</g>
	<g>
		<g>
			<g>
				<path class="st1" d="M587.46,1061.89c-5.85-3.69-11.56-7.56-17.24-11.48c-5.68-3.91-11.29-7.92-16.89-11.94
					c-11.16-8.09-22.18-16.37-33.05-24.83l3.72-2.58c1.37,4.69,2.71,9.39,4.02,14.1c1.33,4.7,2.55,9.44,3.82,14.16
					c1.22,4.74,2.45,9.47,3.59,14.23c1.16,4.75,2.26,9.53,3.26,14.33c-1.83-4.55-3.55-9.14-5.22-13.74
					c-1.7-4.59-3.28-9.22-4.89-13.84c-1.55-4.64-3.16-9.25-4.66-13.91c-1.52-4.65-3.01-9.3-4.46-13.97l-2.17-6.98l5.89,4.4
					c11.04,8.25,21.94,16.68,32.69,25.3c5.35,4.34,10.71,8.68,15.98,13.13C577.1,1052.74,582.35,1057.22,587.46,1061.89z"/>
			</g>
			<g>
				<path class="st1" d="M546.64,1044.13c-2.11,2.21-4.3,4.32-6.53,6.38s-4.5,4.07-6.8,6.05c-2.31,1.96-4.61,3.93-6.99,5.82
					c-2.35,1.92-4.74,3.78-7.15,5.62l-1.72,1.31l0.09-2.08c0.1-2.24,0.22-4.47,0.38-6.71c0.17-2.24,0.35-4.47,0.65-6.71
					c0.29,2.24,0.45,4.47,0.62,6.71c0.15,2.24,0.26,4.47,0.35,6.71l-1.63-0.77c2.27-2.01,4.56-4,6.9-5.93
					c2.31-1.96,4.69-3.84,7.06-5.73c2.39-1.87,4.8-3.71,7.25-5.5C541.57,1047.51,544.06,1045.77,546.64,1044.13z"/>
			</g>
		</g>
	</g>
	<g>
		<g>
			<g>
				<path class="st1" d="M132.1,703.54c-1.87-2-3.78-3.89-5.87-5.53l-3.19-2.4c-1.09-0.77-2.16-1.54-3.27-2.2
					c-2.21-1.33-4.5-2.37-6.84-2.73c-2.34-0.39-4.59-0.02-6.58,1.1c-0.98,0.56-1.9,1.26-2.64,2.11c-0.39,0.41-0.71,0.87-1.03,1.34
					c-0.13,0.25-0.3,0.48-0.41,0.73l-0.19,0.38l-0.23,0.5c-0.17,0.36-0.37,0.76-0.71,1.21c-0.32,0.43-0.87,0.98-1.66,1.24
					c-0.75,0.26-1.65,0.17-2.27-0.13c-0.61-0.29-0.99-0.64-1.28-0.91l-0.7-0.71c-0.19-0.19-0.28-0.25-0.42-0.35
					c-0.28-0.18-0.71-0.29-1.18-0.29c-0.46-0.01-0.98,0.1-1.53,0.29c-0.57,0.19-1.08,0.44-1.78,0.75c-0.21,0.09-0.47,0.19-0.81,0.25
					s-0.79,0.01-1.07-0.09c-0.58-0.22-0.76-0.39-1.09-0.57c-0.6-0.37-1.2-0.75-1.77-1.17c-2.25-1.69-4.23-3.71-5.67-6.05
					c2.09,1.77,4.29,3.29,6.66,4.42c0.59,0.29,1.18,0.56,1.78,0.81c0.27,0.11,0.69,0.29,0.75,0.27c0.04-0.01-0.06-0.03-0.06-0.04
					c-0.01-0.01,0.04-0.04,0.14-0.1c1.05-0.68,2.46-1.56,4.23-1.78c0.88-0.1,1.84-0.03,2.78,0.36c0.47,0.19,0.94,0.52,1.25,0.79
					l0.78,0.67c0.21,0.18,0.37,0.25,0.38,0.24c0-0.02-0.18-0.07-0.29-0.03c-0.14,0.04-0.17,0.11-0.1-0.01
					c0.06-0.09,0.16-0.31,0.27-0.56l0.17-0.44l0.24-0.55c0.15-0.37,0.36-0.71,0.54-1.06c0.41-0.68,0.85-1.34,1.37-1.93
					c1.02-1.2,2.27-2.19,3.64-2.97c1.38-0.75,2.9-1.29,4.48-1.51c1.59-0.21,3.17-0.13,4.66,0.19c3,0.64,5.65,2.11,7.88,3.85
					c1.12,0.87,2.18,1.78,3.17,2.74l2.89,2.99C129.37,698.75,130.95,701.05,132.1,703.54z"/>
			</g>
			<g>
				<path class="st1" d="M104.69,718.31c-2.14-1.23-4.19-2.57-6.33-3.23c-1.07-0.3-2.13-0.49-3.18-0.37
					c-0.53,0.05-1.11,0.14-1.74,0.23c-0.64,0.08-1.34,0.1-2.01,0.07c-2.72-0.16-5.21-1.34-7.19-2.98c-1.99-1.64-3.47-3.71-4.53-5.95
					c1.84,1.66,3.62,3.27,5.59,4.47c1.95,1.2,4.11,1.99,6.27,2.13c1.07,0.1,2.12-0.13,3.51-0.17c1.39-0.01,2.76,0.31,3.95,0.89
					C101.42,714.54,103.18,716.37,104.69,718.31z"/>
			</g>
			<g>
				<path class="st1" d="M56.86,684.27c2.08,2.21,4.07,4.52,5.99,6.88c1.95,2.39,3.91,4.55,5.45,7.68c0.75,1.53,1.22,3.51,1.26,5.21
					c0.08,1.72-0.03,3.22-0.01,4.59c0.05,2.8,0.36,5.56,1.04,8.13c0.7,2.57,1.76,4.95,3.31,6.91c1.46,1.88,3.52,3.4,5.79,4.29
					c2.26,0.91,4.74,1.15,6.92,0.49c0.56-0.19,1.04-0.34,1.69-0.68c0.65-0.32,1.45-0.78,2.48-1.08c2.09-0.61,4.3-0.31,6.07,0.78
					l-2.77,1.03c0.4-0.73,0.57-1.72,0.49-2.88c-0.06-1.15-0.3-2.41-0.54-3.72c-0.26-1.35-0.37-2.77-0.19-4.18
					c0.15-1.39,0.76-2.82,1.82-3.65c-0.69,1.16-0.72,2.45-0.54,3.64c0.19,1.21,0.64,2.37,1.13,3.52c0.51,1.19,1.1,2.41,1.49,3.84
					c0.38,1.4,0.58,3.12,0.03,4.85l-0.59,1.83l-2.18-0.8c-0.88-0.32-1.92-0.27-2.67,0.12c-0.39,0.2-0.89,0.53-1.53,0.96
					c-0.63,0.44-1.53,0.92-2.36,1.29c-1.72,0.73-3.58,1.08-5.41,1.1c-1.83,0-3.63-0.32-5.33-0.87c-3.39-1.14-6.43-3.22-8.68-6.07
					c-2.18-2.77-3.57-6.03-4.28-9.3c-0.74-3.27-0.87-6.57-0.61-9.77c0.12-1.64,0.39-3.13,0.49-4.41c0.09-1.31,0.04-2.35-0.34-3.61
					c-0.35-1.23-0.95-2.52-1.59-3.87c-0.69-1.32-1.36-2.66-2.02-4.01C59.34,689.85,58.05,687.11,56.86,684.27z"/>
			</g>
		</g>
	</g>
	<g>
		<g>
			<g>
				<path class="st1" d="M114.77,813.77c0.28,1.12,0.9,2.05,1.57,2.92c0.69,0.86,1.45,1.67,2.27,2.39c1.57,1.45,3.56,2.46,5.14,1.97
					c0.43-0.12,0.91-0.32,1.42-0.53c0.48-0.19,0.87-0.4,1.02-0.57c0.08-0.08,0.09-0.13,0.1-0.18s0.03-0.18,0.03-0.38
					c-0.02-0.45-0.07-0.95-0.15-1.42c-0.36-1.91-1.35-3.77-2.51-5.62c-1.14-1.85-2.5-3.79-3.55-5.9c-1.04-2.1-1.97-4.26-2.6-6.51
					c-0.66-2.25-1.14-4.5-1.3-6.88c-0.04-1.19,0.04-2.44,0.46-3.58c0.41-1.13,1.12-2.18,2.1-2.79c-0.74,0.88-1.13,1.94-1.26,3
					s-0.03,2.13,0.22,3.18c0.22,1.05,0.57,2.11,0.93,3.16s0.73,2.09,1.16,3.11c0.86,2.03,1.78,4.03,2.9,5.91
					c1.08,1.9,2.36,3.67,3.61,5.66c1.21,1.98,2.42,4.21,2.77,6.81c0.08,0.65,0.11,1.28,0.08,1.97c-0.02,0.36-0.07,0.81-0.27,1.29
					c-0.19,0.48-0.52,0.91-0.87,1.2c-0.7,0.59-1.39,0.82-1.97,1.01c-0.56,0.16-1.14,0.35-1.83,0.46c-1.44,0.25-2.9-0.15-4-0.83
					c-1.12-0.68-1.99-1.56-2.74-2.48c-0.73-0.94-1.37-1.92-1.89-2.99C115.11,816.09,114.7,814.93,114.77,813.77z"/>
			</g>
			<g>
				<path class="st1" d="M125.34,811.16c0.76,1.33,1.72,2.53,2.88,3.42c1.15,0.89,2.5,1.48,3.87,1.56c1.32,0.12,2.84-0.19,3.6-0.93
					c0.37-0.37,0.52-0.76,0.53-1.28c0-0.52-0.15-1.07-0.45-1.6c-0.3-0.54-0.72-1.08-1.2-1.66c-0.48-0.59-0.96-1.24-1.42-1.87
					c-0.93-1.28-1.77-2.61-2.55-3.99c-1.54-2.76-2.73-5.71-3.61-8.75c-0.43-1.52-0.75-3.08-1-4.64c-0.24-1.56-0.43-3.14-0.46-4.75
					c-0.03-3.18,0.45-6.63,2.22-9.5c0.86-1.41,1.85-2.64,2.84-3.81c1.01-1.17,2.16-2.43,3.68-3.21c1.51-0.75,3.05-1.03,4.53-1.38
					l2.24-0.5l1.13-0.23c0.19-0.03,0.37-0.11,0.6-0.07c0.1,0.02,0.25,0.11,0.19,0.25c-0.03,0.05-0.09,0.07-0.14,0.08
					c-0.05,0.02-0.12-0.03-0.09-0.08c-0.01,0.12,0.16,0.03,0.17-0.02c0.02-0.06-0.08-0.11-0.15-0.1c-0.16,0.01-0.33,0.11-0.51,0.18
					l-1.06,0.46l-2.13,0.87c-1.42,0.59-2.88,1.07-4.01,1.88c-1.13,0.77-2,1.9-2.83,3.14c-0.85,1.26-1.71,2.47-2.33,3.74
					c-1.23,2.49-1.59,5.34-1.4,8.22c0.17,2.89,0.69,5.83,1.5,8.65c0.77,2.84,1.86,5.59,3.21,8.21c0.66,1.32,1.39,2.6,2.2,3.84
					c0.4,0.63,0.82,1.21,1.26,1.84c0.44,0.64,0.92,1.34,1.3,2.17c0.38,0.84,0.61,1.81,0.51,2.82c-0.07,1.01-0.65,2.1-1.48,2.69
					c-0.82,0.61-1.72,0.86-2.58,0.97s-1.72,0.06-2.55-0.11c-1.66-0.35-3.14-1.26-4.22-2.43
					C126.53,814.05,125.79,812.62,125.34,811.16z"/>
			</g>
			<g>
				<path class="st1" d="M172.85,790.13c-2.53,1.74-5.37,3.01-8.22,4.14c-1.43,0.57-2.9,1.03-4.35,1.54
					c-1.47,0.44-2.95,0.88-4.44,1.26c-1.49,0.36-2.98,0.75-4.49,1.05l-4.53,0.86c-3.04,0.44-6.08,0.89-9.14,1.14
					c-3.06,0.29-6.12,0.42-9.18,0.53c-1.53,0.07-3.06,0.04-4.6,0.03c-1.53,0-3.06-0.03-4.59-0.07c-3.06-0.13-6.11-0.37-9.16-0.61
					c-3.04-0.37-6.07-0.74-9.09-1.24c3.06-0.19,6.11-0.24,9.14-0.29c3.04-0.12,6.07-0.22,9.1-0.3c3.02-0.22,6.05-0.21,9.06-0.47
					l4.52-0.28c1.51-0.08,3-0.27,4.51-0.4c6.01-0.5,11.99-1.26,17.93-2.32c1.49-0.25,2.95-0.6,4.44-0.86
					c1.47-0.33,2.95-0.64,4.41-1.02C167.1,792.11,170,791.26,172.85,790.13z"/>
			</g>
			<g>
				<path class="st1" d="M148.01,782.92c0.76-0.83,1.69-1.41,2.67-1.87c0.99-0.45,2.04-0.75,3.11-0.89
					c1.07-0.15,2.17-0.15,3.24,0.01c1.07,0.17,2.12,0.48,3.08,1.08c-1.09,0.27-2.1,0.41-3.09,0.56l-2.94,0.41l-2.94,0.4
					C150.14,782.74,149.13,782.89,148.01,782.92z"/>
			</g>
		</g>
	</g>
	<g>
		<g>
			<g>
				<path class="st1" d="M35.69,631.83c1.55-1.57,3.45-2.82,5.52-3.71c2.08-0.88,4.32-1.42,6.6-1.57c2.28-0.14,4.61,0.06,6.86,0.67
					c2.24,0.62,4.41,1.63,6.33,3.03l-2.23,1.44c-0.23-0.9-0.21-1.85,0-2.68c0.2-0.84,0.55-1.57,0.94-2.24s0.83-1.26,1.29-1.83
					c0.46-0.53,0.9-1.08,1.38-1.59c1.9-2.07,4.09-3.86,6.47-5.36c2.38-1.49,4.92-2.74,7.6-3.59c2.68-0.85,5.46-1.38,8.27-1.57
					l-0.76,3.03c-2.29-1.49-5.27-2.18-8.33-3.21c-1.53-0.5-3.12-1.25-4.51-2.2c-1.41-0.96-2.71-2.21-3.56-3.82
					c-0.42-0.8-0.7-1.69-0.81-2.59c-0.1-0.89-0.07-1.7-0.07-2.46c0.01-1.52-0.12-2.85-1.2-3.42c-0.51-0.28-1.2-0.34-1.9-0.23
					c-0.7,0.1-1.4,0.34-2.08,0.68c-1.36,0.66-2.82,1.55-4.42,1.56c1.57-0.29,2.73-1.35,4.04-2.22c0.66-0.45,1.41-0.85,2.23-1.09
					c0.81-0.23,1.76-0.32,2.69,0.04c0.92,0.35,1.67,1.17,2.01,2.05c0.37,0.88,0.43,1.74,0.51,2.54c0.07,0.8,0.12,1.55,0.26,2.21
					c0.15,0.64,0.4,1.24,0.76,1.79c0.7,1.11,1.76,2.03,2.98,2.74c1.23,0.73,2.54,1.21,3.99,1.64c2.85,0.87,6.12,1.38,9.18,3.21
					l4.39,2.62l-5.15,0.41c-2.52,0.2-5.02,0.71-7.43,1.51c-2.4,0.83-4.72,1.88-6.88,3.21c-2.17,1.32-4.14,2.95-5.95,4.72
					c-0.46,0.44-0.87,0.92-1.31,1.38c-0.4,0.46-0.78,0.93-1.08,1.4c-0.63,0.96-0.91,1.91-0.77,2.7l0.69,3.87l-2.92-2.43
					c-3.11-2.59-7.23-4-11.43-4.13c-2.1-0.07-4.24,0.17-6.3,0.75C39.5,629.66,37.5,630.57,35.69,631.83z"/>
			</g>
			<g>
				<path class="st1" d="M70.22,630.04c-1.53-1.55-2.84-3.21-4.15-4.83c-1.32-1.61-2.6-3.2-3.98-4.68
					c-1.37-1.48-2.83-2.84-4.42-4.08c-1.61-1.22-3.34-2.28-5.31-3.19c2.18-0.14,4.4,0.48,6.37,1.49c1.99,1,3.75,2.42,5.24,4.03
					c1.49,1.62,2.74,3.42,3.76,5.32C68.76,625.99,69.6,627.96,70.22,630.04z"/>
			</g>
			<g>
				<path class="st1" d="M79.45,622.06c0.83-0.39,1.72-0.54,2.61-0.57c0.89-0.04,1.78,0.08,2.64,0.3c0.86,0.23,1.69,0.57,2.45,1.04
					c0.76,0.46,1.46,1.03,1.99,1.78c-0.91-0.14-1.72-0.35-2.52-0.55l-2.36-0.61l-2.35-0.63C81.12,622.6,80.31,622.38,79.45,622.06z"
					/>
			</g>
		</g>
	</g>
	<g>
		<g>
			<g>
				<path class="st1" d="M289.26,100.66c-1.12,0.27-2.05,0.9-2.92,1.57c-0.86,0.69-1.68,1.44-2.39,2.26
					c-1.45,1.57-2.47,3.56-1.98,5.13c0.12,0.43,0.32,0.91,0.53,1.43c0.19,0.48,0.4,0.87,0.57,1.02c0.08,0.08,0.13,0.09,0.18,0.1
					s0.18,0.03,0.38,0.03c0.45-0.01,0.95-0.07,1.42-0.15c1.91-0.35,3.77-1.34,5.63-2.5c1.86-1.14,3.79-2.49,5.91-3.54
					c2.1-1.04,4.27-1.96,6.52-2.59c2.25-0.65,4.5-1.13,6.89-1.29c1.19-0.04,2.44,0.05,3.58,0.47c1.13,0.41,2.17,1.12,2.79,2.11
					c-0.88-0.74-1.94-1.13-3-1.27c-1.06-0.13-2.13-0.03-3.18,0.21c-1.05,0.22-2.11,0.56-3.16,0.92s-2.09,0.72-3.11,1.15
					c-2.03,0.86-4.03,1.77-5.92,2.89c-1.9,1.07-3.67,2.35-5.67,3.6c-1.98,1.21-4.21,2.41-6.82,2.76c-0.65,0.08-1.28,0.1-1.97,0.07
					c-0.36-0.02-0.81-0.08-1.28-0.27c-0.48-0.2-0.9-0.52-1.2-0.87c-0.59-0.71-0.81-1.39-1.01-1.97c-0.16-0.56-0.34-1.14-0.45-1.83
					c-0.25-1.45,0.16-2.9,0.84-4c0.69-1.12,1.56-1.98,2.49-2.74c0.94-0.72,1.93-1.37,2.99-1.88
					C286.94,100.99,288.1,100.58,289.26,100.66z"/>
			</g>
			<g>
				<path class="st1" d="M291.85,111.23c-1.33,0.75-2.53,1.71-3.42,2.87c-0.89,1.15-1.48,2.5-1.57,3.86
					c-0.12,1.32,0.18,2.84,0.92,3.6c0.36,0.37,0.76,0.52,1.27,0.54c0.52,0.01,1.07-0.15,1.6-0.45c0.54-0.3,1.08-0.72,1.66-1.19
					c0.59-0.48,1.24-0.96,1.87-1.42c1.28-0.92,2.62-1.77,4-2.54c2.77-1.53,5.72-2.71,8.76-3.59c1.53-0.42,3.08-0.75,4.64-0.99
					s3.14-0.43,4.75-0.45c3.18-0.02,6.63,0.46,9.5,2.24c1.41,0.86,2.63,1.85,3.8,2.85c1.17,1.01,2.43,2.16,3.21,3.69
					c0.75,1.52,1.02,3.05,1.37,4.53l0.49,2.24l0.23,1.13c0.03,0.19,0.11,0.37,0.07,0.6c-0.02,0.1-0.11,0.25-0.25,0.19
					c-0.05-0.03-0.07-0.09-0.08-0.14c-0.02-0.05,0.03-0.12,0.08-0.09c-0.12-0.01-0.03,0.16,0.02,0.17c0.06,0.02,0.11-0.08,0.1-0.15
					c-0.01-0.16-0.11-0.33-0.18-0.51l-0.45-1.06l-0.87-2.13c-0.59-1.42-1.07-2.88-1.87-4.01c-0.76-1.14-1.9-2-3.13-2.84
					c-1.26-0.85-2.47-1.72-3.73-2.34c-2.49-1.24-5.33-1.6-8.22-1.42c-2.89,0.16-5.83,0.68-8.65,1.49c-2.84,0.76-5.59,1.85-8.22,3.19
					c-1.32,0.66-2.61,1.38-3.84,2.19c-0.63,0.4-1.22,0.81-1.85,1.25c-0.64,0.44-1.34,0.92-2.17,1.29c-0.84,0.38-1.81,0.6-2.82,0.5
					c-1.01-0.08-2.1-0.65-2.68-1.49c-0.61-0.82-0.86-1.72-0.97-2.58s-0.06-1.72,0.11-2.55c0.35-1.66,1.26-3.13,2.44-4.22
					C288.96,112.41,290.39,111.68,291.85,111.23z"/>
			</g>
			<g>
				<path class="st1" d="M312.78,158.78c-1.73-2.53-3-5.37-4.12-8.23c-0.56-1.43-1.03-2.9-1.53-4.36c-0.44-1.47-0.87-2.95-1.25-4.44
					c-0.36-1.49-0.75-2.99-1.04-4.49l-0.85-4.53c-0.43-3.04-0.87-6.08-1.12-9.14c-0.28-3.06-0.41-6.12-0.51-9.19
					c-0.06-1.53-0.03-3.06-0.02-4.6c0.01-1.53,0.04-3.06,0.08-4.59c0.14-3.06,0.38-6.11,0.63-9.15c0.38-3.04,0.75-6.07,1.26-9.09
					c0.18,3.06,0.22,6.11,0.28,9.14c0.12,3.04,0.21,6.07,0.28,9.1c0.22,3.02,0.2,6.05,0.45,9.06l0.27,4.52
					c0.07,1.51,0.27,3.01,0.39,4.51c0.49,6.01,1.23,12,2.28,17.93c0.24,1.49,0.59,2.95,0.85,4.44c0.33,1.47,0.63,2.95,1.01,4.41
					C310.81,153.03,311.66,155.93,312.78,158.78z"/>
			</g>
			<g>
				<path class="st1" d="M320.04,133.96c0.83,0.76,1.41,1.69,1.86,2.67c0.45,0.99,0.74,2.04,0.89,3.11s0.14,2.17-0.02,3.24
					c-0.18,1.07-0.49,2.12-1.08,3.07c-0.27-1.09-0.4-2.1-0.56-3.09l-0.41-2.94l-0.39-2.94
					C320.21,136.09,320.07,135.08,320.04,133.96z"/>
			</g>
		</g>
	</g>
	<g>
		<g>
			<g>
				<path class="st1" d="M171.95,198.01c6.75-1.51,13.53-2.79,20.32-4.02c6.79-1.24,13.59-2.34,20.4-3.44
					c13.62-2.13,27.27-4.02,40.95-5.69l-0.82,4.45c-4.28-2.36-8.54-4.75-12.79-7.17c-4.26-2.4-8.46-4.9-12.69-7.35
					c-4.2-2.5-8.41-4.99-12.57-7.57c-4.17-2.56-8.32-5.16-12.41-7.87c4.51,1.94,8.96,3.98,13.39,6.06
					c4.44,2.06,8.83,4.22,13.22,6.36c4.37,2.19,8.76,4.34,13.11,6.58c4.35,2.22,8.69,4.48,13.01,6.76l6.46,3.42l-7.28,1.03
					c-13.65,1.93-27.32,3.63-41.03,5.1c-6.86,0.7-13.72,1.39-20.59,1.95C185.75,197.2,178.87,197.72,171.95,198.01z"/>
			</g>
			<g>
				<path class="st1" d="M213.43,181.84c-0.07-3.05,0.01-6.09,0.13-9.13c0.13-3.03,0.32-6.06,0.55-9.09
					c0.26-3.02,0.5-6.04,0.85-9.06c0.31-3.02,0.7-6.02,1.11-9.03l0.29-2.14l1.4,1.54c1.51,1.65,3,3.32,4.46,5.02
					c1.45,1.71,2.9,3.42,4.27,5.21c-1.78-1.38-3.47-2.85-5.17-4.32c-1.68-1.48-3.34-2.99-4.98-4.51l1.7-0.6
					c-0.19,3.03-0.41,6.05-0.71,9.07c-0.26,3.02-0.62,6.03-0.97,9.04c-0.37,3.01-0.79,6.02-1.27,9.01
					C214.63,175.86,214.1,178.86,213.43,181.84z"/>
			</g>
		</g>
	</g>
	<g>
		<g>
			<g>
				<path class="st1" d="M747.54,131.21c2.74,0.11,5.42,0.1,8.06-0.22l3.95-0.54c1.32-0.23,2.62-0.43,3.87-0.74
					c2.5-0.62,4.86-1.49,6.78-2.89c1.93-1.38,3.27-3.22,3.89-5.42c0.31-1.09,0.46-2.23,0.39-3.36c-0.01-0.57-0.11-1.12-0.22-1.67
					c-0.08-0.27-0.13-0.55-0.23-0.81l-0.13-0.4l-0.19-0.51c-0.13-0.38-0.27-0.8-0.35-1.36c-0.08-0.53-0.07-1.31,0.31-2.05
					c0.34-0.71,1.05-1.28,1.7-1.5c0.63-0.22,1.15-0.24,1.55-0.25l1,0.01c0.27,0,0.37-0.02,0.54-0.05c0.33-0.08,0.71-0.3,1.04-0.63
					c0.33-0.32,0.63-0.77,0.88-1.28c0.27-0.54,0.46-1.07,0.74-1.79c0.09-0.21,0.2-0.47,0.4-0.75s0.55-0.56,0.82-0.69
					c0.57-0.25,0.81-0.26,1.18-0.36c0.69-0.16,1.38-0.31,2.08-0.42c2.79-0.39,5.62-0.35,8.29,0.3c-2.73,0.22-5.36,0.69-7.84,1.56
					c-0.62,0.21-1.23,0.43-1.83,0.68c-0.27,0.12-0.69,0.28-0.72,0.34c-0.03,0.04,0.06-0.02,0.07-0.02s0,0.06-0.03,0.17
					c-0.27,1.23-0.64,2.84-1.75,4.25c-0.55,0.69-1.28,1.32-2.23,1.7c-0.47,0.19-1.04,0.29-1.44,0.32l-1.03,0.07
					c-0.27,0.02-0.44,0.08-0.44,0.1c0.02,0.02,0.17-0.08,0.22-0.18c0.07-0.13,0.05-0.2,0.08-0.07c0.02,0.11,0.1,0.33,0.21,0.59
					l0.19,0.43l0.21,0.56c0.15,0.37,0.24,0.76,0.36,1.14c0.18,0.77,0.34,1.55,0.39,2.34c0.12,1.57-0.07,3.16-0.49,4.67
					c-0.45,1.51-1.15,2.96-2.11,4.23c-0.98,1.27-2.16,2.32-3.44,3.15c-2.58,1.66-5.49,2.49-8.3,2.82c-1.41,0.17-2.8,0.28-4.18,0.29
					l-4.16-0.09C752.86,132.68,750.12,132.16,747.54,131.21z"/>
			</g>
			<g>
				<path class="st1" d="M756.57,101.41c2.39-0.64,4.78-1.13,6.77-2.17c0.97-0.54,1.86-1.15,2.52-1.98
					c0.34-0.41,0.69-0.88,1.08-1.39s0.88-1.02,1.38-1.47c2.04-1.8,4.65-2.72,7.2-2.96c2.57-0.24,5.08,0.19,7.41,1.02
					c-2.47,0.12-4.87,0.24-7.12,0.77c-2.23,0.53-4.32,1.48-5.94,2.91c-0.83,0.68-1.41,1.58-2.37,2.6c-0.98,0.98-2.18,1.73-3.42,2.15
					C761.55,101.78,759.01,101.72,756.57,101.41z"/>
			</g>
			<g>
				<path class="st1" d="M814.49,91.84c-3.03-0.11-6.07-0.34-9.1-0.66c-3.06-0.32-5.98-0.47-9.28-1.6
					c-1.61-0.56-3.34-1.63-4.56-2.81c-1.27-1.17-2.25-2.31-3.23-3.26c-2.01-1.96-4.17-3.69-6.47-5.03
					c-2.31-1.33-4.74-2.27-7.22-2.57c-2.36-0.3-4.89,0.06-7.13,1.04c-2.24,0.95-4.17,2.52-5.26,4.53c-0.27,0.53-0.5,0.97-0.72,1.67
					c-0.23,0.69-0.48,1.57-1,2.51c-1.05,1.91-2.83,3.25-4.86,3.73l1.24-2.68c0.23,0.8,0.81,1.62,1.68,2.39
					c0.86,0.77,1.91,1.5,3.01,2.26c1.14,0.78,2.22,1.71,3.08,2.83c0.87,1.1,1.45,2.54,1.28,3.87c-0.33-1.31-1.21-2.25-2.18-2.97
					c-0.99-0.72-2.13-1.23-3.28-1.7c-1.2-0.48-2.48-0.94-3.76-1.68c-1.26-0.73-2.61-1.8-3.44-3.42l-0.87-1.71l2.11-0.97
					c0.85-0.39,1.55-1.17,1.81-1.97c0.14-0.41,0.26-1,0.41-1.76c0.14-0.76,0.43-1.73,0.76-2.58c0.7-1.73,1.78-3.29,3.06-4.59
					c1.3-1.29,2.8-2.33,4.39-3.14c3.21-1.58,6.83-2.25,10.44-1.81c3.5,0.43,6.78,1.77,9.59,3.57c2.83,1.8,5.25,4.05,7.32,6.5
					c1.07,1.24,1.93,2.49,2.76,3.48c0.85,0.99,1.63,1.69,2.79,2.32c1.12,0.63,2.45,1.12,3.85,1.62c1.42,0.45,2.84,0.92,4.26,1.42
					C808.81,89.63,811.65,90.67,814.49,91.84z"/>
			</g>
		</g>
	</g>
	<g>
		<g>
			<g>
				<path class="st1" d="M866.48,114.11c0,2.21-0.46,4.44-1.3,6.53c-0.85,2.09-2.06,4.05-3.58,5.77c-1.52,1.71-3.31,3.21-5.34,4.36
					c-2.03,1.14-4.27,1.95-6.62,2.31l0.57-2.6c0.8,0.47,1.46,1.16,1.89,1.9c0.45,0.74,0.72,1.5,0.91,2.25s0.3,1.48,0.38,2.2
					c0.04,0.7,0.13,1.4,0.14,2.1c0.11,2.81-0.18,5.63-0.8,8.36c-0.64,2.73-1.55,5.41-2.86,7.9c-1.3,2.49-2.9,4.83-4.76,6.94
					l-1.59-2.69c2.68-0.55,5.28-2.17,8.18-3.59c1.44-0.72,3.09-1.31,4.75-1.62c1.67-0.31,3.48-0.35,5.22,0.19
					c0.86,0.28,1.69,0.71,2.4,1.26c0.7,0.56,1.25,1.15,1.78,1.69c1.06,1.09,2.1,1.93,3.26,1.58c0.56-0.16,1.09-0.61,1.51-1.18
					c0.43-0.57,0.75-1.23,1-1.95c0.5-1.43,0.91-3.09,2.03-4.23c-0.91,1.31-0.98,2.88-1.3,4.43c-0.15,0.79-0.4,1.59-0.81,2.34
					c-0.42,0.74-1.03,1.47-1.94,1.87c-0.9,0.4-2,0.35-2.87-0.04c-0.88-0.37-1.53-0.93-2.15-1.44c-0.61-0.52-1.18-1.01-1.74-1.38
					c-0.55-0.35-1.16-0.59-1.8-0.73c-1.28-0.29-2.68-0.2-4.04,0.15c-1.39,0.35-2.66,0.93-3.98,1.65c-2.64,1.39-5.32,3.33-8.78,4.19
					l-4.96,1.23l3.37-3.92c1.65-1.92,3.06-4.05,4.2-6.31c1.12-2.27,2.03-4.66,2.62-7.13c0.61-2.47,0.86-5.01,0.9-7.54
					c0.02-0.64-0.04-1.27-0.05-1.9c-0.04-0.61-0.1-1.21-0.22-1.76c-0.23-1.12-0.7-2-1.36-2.46l-3.21-2.26l3.78-0.33
					c4.03-0.36,7.95-2.27,11.02-5.13c1.54-1.43,2.89-3.1,3.93-4.97C865.31,118.33,866.08,116.28,866.48,114.11z"/>
			</g>
			<g>
				<path class="st1" d="M843.25,139.72c2.18,0.02,4.28,0.28,6.35,0.5c2.07,0.21,4.1,0.44,6.12,0.52c2.01,0.08,4.01,0.02,6.01-0.23
					c2-0.27,3.97-0.74,6.01-1.48c-1.45,1.64-3.46,2.76-5.57,3.43c-2.12,0.69-4.36,0.93-6.56,0.84c-2.2-0.1-4.35-0.5-6.41-1.13
					C847.13,141.56,845.15,140.76,843.25,139.72z"/>
			</g>
			<g>
				<path class="st1" d="M842.32,151.89c-0.32,0.86-0.84,1.6-1.45,2.24c-0.6,0.65-1.32,1.2-2.08,1.65c-0.77,0.44-1.6,0.79-2.47,0.99
					c-0.86,0.21-1.76,0.29-2.67,0.14c0.74-0.54,1.46-0.96,2.18-1.38l2.1-1.23l2.11-1.21C840.76,152.68,841.49,152.26,842.32,151.89z
					"/>
			</g>
		</g>
	</g>
	<g>
		<g>
			<g>
				<path class="st1" d="M904.9,159.11c1.5,6.75,2.76,13.54,3.97,20.33c1.22,6.79,2.31,13.6,3.4,20.4
					c2.1,13.62,3.97,27.28,5.6,40.96l-4.45-0.83c2.37-4.27,4.77-8.53,7.2-12.77c2.41-4.25,4.92-8.45,7.38-12.68
					c2.51-4.2,5-8.4,7.59-12.56c2.57-4.17,5.18-8.31,7.89-12.39c-1.95,4.5-3.99,8.95-6.09,13.37c-2.07,4.44-4.24,8.82-6.39,13.21
					c-2.2,4.36-4.36,8.76-6.61,13.09c-2.23,4.35-4.5,8.68-6.79,12.99l-3.43,6.45l-1.02-7.28c-1.9-13.65-3.58-27.33-5.01-41.04
					c-0.68-6.86-1.36-13.72-1.91-20.6C905.68,172.91,905.18,166.03,904.9,159.11z"/>
			</g>
			<g>
				<path class="st1" d="M920.99,200.62c3.05-0.06,6.09,0.02,9.13,0.15c3.03,0.13,6.06,0.33,9.08,0.57
					c3.02,0.26,6.04,0.51,9.05,0.87c3.01,0.32,6.02,0.71,9.03,1.13l2.14,0.3l-1.54,1.4c-1.66,1.5-3.33,2.99-5.03,4.45
					c-1.71,1.45-3.42,2.9-5.22,4.26c1.39-1.78,2.86-3.47,4.33-5.16c1.48-1.68,2.99-3.33,4.52-4.97l0.6,1.7
					c-3.03-0.2-6.05-0.43-9.07-0.73c-3.02-0.26-6.03-0.63-9.04-0.99c-3.01-0.38-6.01-0.8-9.01-1.28
					C926.96,201.84,923.96,201.3,920.99,200.62z"/>
			</g>
		</g>
	</g>
	<g>
		<g>
			<g>
				<g>
					<path class="st1" d="M462.3,17.11c13.84,9.86,27.33,20.12,40.72,30.5C516.4,58,529.64,68.56,542.78,79.23
						s26.15,21.5,39.1,32.39c12.92,10.93,25.79,21.92,38.53,33.06l-9.47,5.81c-1.36-5.85-2.71-11.69-4.01-17.55
						c-1.32-5.86-2.64-11.71-3.9-17.58c-1.29-5.86-2.55-11.73-3.78-17.61c-1.25-5.87-2.45-11.76-3.65-17.64
						c-2.37-11.77-4.69-23.56-6.84-35.39c-1.08-5.91-2.13-11.83-3.12-17.77c-1.02-5.93-1.98-11.87-2.86-17.83
						c1.94,5.7,3.8,11.43,5.6,17.17c1.83,5.73,3.6,11.48,5.34,17.23c3.49,11.5,6.81,23.05,10.08,34.61
						c1.62,5.78,3.24,11.56,4.81,17.36c1.59,5.79,3.15,11.59,4.68,17.39c1.56,5.8,3.06,11.61,4.56,17.42
						c1.52,5.81,2.98,11.63,4.45,17.45l4.38,17.41l-13.85-11.6c-12.98-10.86-25.82-21.88-38.63-32.95
						C561.43,109.5,548.72,98.33,536.14,87c-12.58-11.33-25.06-22.77-37.4-34.39C486.41,40.99,474.19,29.25,462.3,17.11z"/>
				</g>
				<g>
					<path class="st1" d="M559.94,66.31c5.47-5.13,11.14-9.99,16.88-14.75c5.75-4.75,11.59-9.38,17.5-13.91
						c11.82-9.06,23.89-17.78,36.25-26.12l4.39-2.96l-0.49,5.08c-0.53,5.47-1.15,10.93-1.86,16.39l-1.15,8.18
						c-0.42,2.73-0.85,5.45-1.37,8.17c-0.2-2.76-0.3-5.52-0.41-8.27l-0.19-8.26c-0.07-5.5-0.05-11,0.06-16.5l3.9,2.12
						c-11.67,9.27-23.63,18.14-35.83,26.68c-6.1,4.27-12.28,8.44-18.54,12.49C572.83,58.71,566.49,62.64,559.94,66.31z"/>
				</g>
			</g>
		</g>
	</g>
	<g>
		<g>
			<g>
				<g>
					<path class="st1" d="M1029.41,290.03c-5.08,16.21-10.66,32.22-16.38,48.17c-5.73,15.94-11.67,31.8-17.74,47.6
						c-6.07,15.8-12.34,31.52-18.68,47.22c-6.39,15.67-12.85,31.31-19.48,46.88l-8.46-7.2c5.14-3.1,10.28-6.2,15.44-9.25
						c5.16-3.07,10.32-6.14,15.5-9.15c5.18-3.04,10.36-6.06,15.57-9.05c5.19-3.01,10.42-5.97,15.64-8.94
						c10.46-5.91,20.95-11.76,31.52-17.47c5.28-2.86,10.59-5.7,15.92-8.48c5.32-2.81,10.67-5.56,16.06-8.25
						c-4.82,3.61-9.69,7.15-14.59,10.64c-4.88,3.52-9.8,6.98-14.73,10.41c-9.86,6.88-19.8,13.62-29.78,20.31
						c-5,3.33-9.99,6.67-15.01,9.95c-5.01,3.31-10.04,6.59-15.08,9.84c-5.03,3.28-10.09,6.51-15.15,9.74
						c-5.05,3.25-10.13,6.44-15.21,9.64l-15.19,9.56l6.73-16.76c6.31-15.71,12.8-31.33,19.35-46.94
						c6.61-15.58,13.29-31.13,20.16-46.6s13.88-30.88,21.1-46.21C1014.18,320.35,1021.55,305.09,1029.41,290.03z"/>
				</g>
				<g>
					<path class="st1" d="M1012.9,398.11c6.58,3.61,12.96,7.49,19.26,11.48c6.3,3.99,12.51,8.11,18.65,12.33
						c12.28,8.43,24.32,17.2,36.07,26.37l4.18,3.26l-4.99,1.11c-5.36,1.19-10.75,2.3-16.16,3.32l-8.14,1.45
						c-2.72,0.44-5.45,0.88-8.19,1.23c2.56-1.05,5.15-2,7.74-2.95l7.8-2.74c5.21-1.77,10.45-3.45,15.7-5.05l-0.81,4.37
						c-12.43-8.22-24.58-16.84-36.48-25.8c-5.95-4.48-11.83-9.06-17.62-13.76C1024.13,408,1018.42,403.19,1012.9,398.11z"/>
				</g>
			</g>
		</g>
	</g>
	<g>
		<g>
			<g>
				<g>
					<path class="st1" d="M945.75,913.8c-16.99,0.19-33.94-0.15-50.87-0.64c-16.93-0.5-33.85-1.23-50.76-2.11s-33.8-1.96-50.68-3.12
						c-16.88-1.22-33.75-2.51-50.61-3.99l4.23-10.28c4.54,3.92,9.08,7.85,13.59,11.81c4.52,3.95,9.03,7.91,13.51,11.9
						c4.49,3.98,8.97,7.97,13.43,12c4.47,4,8.91,8.05,13.35,12.1c8.86,8.11,17.68,16.27,26.39,24.55c4.36,4.14,8.7,8.3,13,12.51
						c4.32,4.18,8.6,8.42,12.82,12.71c-4.93-3.47-9.8-6.99-14.64-10.57c-4.86-3.55-9.67-7.15-14.47-10.77
						c-9.6-7.24-19.09-14.6-28.54-22.01c-4.72-3.72-9.44-7.43-14.12-11.19c-4.7-3.74-9.37-7.5-14.03-11.29
						c-4.68-3.76-9.31-7.57-13.95-11.38c-4.65-3.79-9.26-7.63-13.88-11.47l-13.8-11.48l18.03,1.2c16.89,1.13,33.76,2.45,50.62,3.85
						c16.86,1.45,33.72,2.98,50.56,4.72c16.84,1.74,33.67,3.62,50.48,5.73C912.19,908.72,928.99,911,945.75,913.8z"/>
				</g>
				<g>
					<path class="st1" d="M837.87,931.61c-1.39,7.37-3.11,14.64-4.94,21.87c-1.84,7.23-3.83,14.41-5.94,21.55
						c-4.21,14.29-8.82,28.45-13.89,42.46l-1.8,4.98l-2.6-4.4c-2.8-4.73-5.52-9.51-8.16-14.34l-3.9-7.29
						c-1.27-2.45-2.53-4.9-3.71-7.41c1.79,2.11,3.5,4.28,5.21,6.44l5.02,6.56c3.3,4.41,6.52,8.86,9.67,13.36l-4.4,0.58
						c3.96-14.37,8.39-28.59,13.22-42.68c2.42-7.05,4.94-14.06,7.62-21.02C831.94,945.35,834.75,938.43,837.87,931.61z"/>
				</g>
			</g>
		</g>
	</g>
	<g>
		<g>
			<g>
				<g>
					<path class="st1" d="M326.77,1027.63c-5.45-16.09-10.38-32.31-15.16-48.56c-4.77-16.26-9.32-32.57-13.73-48.91
						c-4.41-16.34-8.62-32.74-12.75-49.15c-4.07-16.43-8.08-32.87-11.9-49.36l11.08,0.83c-2.32,5.53-4.64,11.07-7.02,16.58
						c-2.36,5.52-4.72,11.04-7.13,16.53c-2.39,5.51-4.8,11-7.24,16.49c-2.42,5.49-4.89,10.96-7.36,16.44
						c-4.97,10.94-9.99,21.85-15.16,32.7c-2.58,5.43-5.2,10.84-7.86,16.23c-2.64,5.4-5.34,10.78-8.11,16.13
						c1.77-5.76,3.61-11.49,5.51-17.2c1.87-5.72,3.8-11.41,5.76-17.09c3.91-11.37,7.97-22.67,12.08-33.96
						c2.07-5.64,4.14-11.27,6.26-16.89c2.1-5.63,4.23-11.24,6.38-16.84c2.13-5.61,4.31-11.2,6.49-16.79
						c2.16-5.6,4.38-11.17,6.6-16.75l6.64-16.68l4.44,17.51c4.16,16.4,8.13,32.85,12.04,49.32c3.85,16.48,7.62,32.98,11.19,49.53
						s6.99,33.13,10.2,49.77C321.19,994.16,324.24,1010.83,326.77,1027.63z"/>
				</g>
				<g>
					<path class="st1" d="M276.39,930.59c-7.44,0.96-14.88,1.58-22.32,2.08c-7.44,0.49-14.89,0.82-22.33,1.04
						c-14.89,0.43-29.78,0.44-44.68-0.04l-5.29-0.17l3.37-3.83c3.63-4.12,7.33-8.19,11.1-12.21l5.72-5.97
						c1.94-1.96,3.88-3.92,5.89-5.83c-1.45,2.36-2.98,4.65-4.51,6.95l-4.68,6.81c-3.17,4.5-6.4,8.95-9.71,13.34l-1.92-4
						c14.89-0.69,29.78-0.88,44.67-0.66c7.45,0.11,14.9,0.34,22.34,0.73C261.49,929.22,268.94,929.74,276.39,930.59z"/>
				</g>
			</g>
		</g>
	</g>
	<g>
		<g>
			<g>
				<g>
					<path class="st1" d="M26.66,474.43c13.61-10.17,27.5-19.89,41.47-29.47c13.98-9.58,28.07-18.96,42.24-28.22
						s28.45-18.34,42.78-27.35c14.35-8.97,28.74-17.87,43.24-26.61l2.64,10.79c-5.98-0.49-11.96-0.98-17.94-1.53
						c-5.98-0.53-11.96-1.06-17.93-1.65c-5.98-0.56-11.95-1.15-17.92-1.78c-5.97-0.6-11.94-1.25-17.91-1.91
						c-11.94-1.33-23.87-2.72-35.79-4.28c-5.96-0.77-11.92-1.58-17.87-2.44c-5.96-0.83-11.91-1.73-17.85-2.71
						c6.02-0.11,12.04-0.13,18.06-0.09c6.02,0.01,12.03,0.07,18.04,0.18c12.02,0.19,24.03,0.54,36.03,0.96c6,0.22,12,0.44,18,0.71
						c6,0.25,11.99,0.54,17.99,0.84c6,0.28,11.99,0.63,17.98,0.97c5.99,0.32,11.98,0.7,17.97,1.09l17.91,1.14l-15.27,9.65
						c-14.3,9.04-28.72,17.92-43.16,26.73c-14.48,8.77-28.99,17.46-43.62,25.99c-14.63,8.52-29.33,16.92-44.15,25.12
						C56.76,458.76,41.85,466.82,26.66,474.43z"/>
				</g>
				<g>
					<path class="st1" d="M103.3,396.46c-3.22-6.78-6.12-13.66-8.9-20.58c-2.77-6.92-5.4-13.9-7.91-20.91
						c-5.02-14.02-9.65-28.18-13.81-42.49l-1.48-5.09l4.69,2.02c5.05,2.17,10.06,4.43,15.05,6.77l7.44,3.59
						c2.47,1.23,4.93,2.47,7.36,3.79c-2.69-0.65-5.35-1.39-8-2.14l-7.92-2.34c-5.26-1.62-10.49-3.31-15.69-5.09l3.21-3.07
						c5.27,13.94,10.07,28.04,14.48,42.27c2.2,7.12,4.29,14.27,6.24,21.47C99.99,381.86,101.8,389.11,103.3,396.46z"/>
				</g>
			</g>
		</g>
	</g>
</g>
</svg>
