<svg xmlns="http://www.w3.org/2000/svg" viewBox="0 0 1133.27 458"><defs><style>.cls-1{fill:#8567b2;}</style></defs><title>Ресурс 3</title><g id="Слой_2" data-name="Слой 2"><g id="Слой_1-2" data-name="Слой 1"><path class="cls-1" d="M690.06,413.09c-11.53,4.3-31.91,12.06-51.63,20.85l1.7-1.28,0,0c18.73-8.2,37.66-15.41,48.6-19.47l1-.38C689.87,412.89,690,413,690.06,413.09Z"/><path class="cls-1" d="M661.54,274.25l18.21,24c-6.62,22-15.82,41.09-32.3,41.09,0,0-42.05,5.29-42-42.5A139.65,139.65,0,0,0,661.54,274.25Z"/><path class="cls-1" d="M574.69,296.84c0,47.8-42.06,42.47-42.06,42.47-14.81,0-22.07-13.78-28.73-33.1L525.24,279C551.11,295.56,574.69,296.84,574.69,296.84Z"/><path class="cls-1" d="M1017.17,324.13a107.07,107.07,0,0,1-69.42-29.62c-15.14-14.42-31.87-27.43-31.87-27.43-9.45-10,5.67-43.46,5.67-43.46-14.25,2.53-40.32,26.89-52.29,38.73a20.64,20.64,0,0,1-15.52,5.95l-34.45.64c54.18,31.13-1.71,49.94-1.71,49.94-31.19,0-55.54-15.46-72.06-30.91a22.12,22.12,0,0,0-5.27-7.77c-4.37-3.84-5.94-10.92-5.94-10.92l-5.09-10s-10.88-56.41-5.21-67.75l-11.34,3.78s-4.75,3.57-15.2-4.39c-8.72-18.73-30-41.13-31-42.13,0,0,0-.06-.06-.08l-57.54-47.86L594.29,90.39c-4.91-2.48-8.77,1.63-9.54,2.57a.83.83,0,0,1-.42.29c-4,1.11-5.9-3.28-5.9-3.28-3.23-9.71-15.42-10.71-26.2-9.48a76.51,76.51,0,0,0-26,7.93c-41.55,21.12-65.64,31.55-79.61,36.66-31.19-16.16,2.63-21.57,2.63-21.57C409.07,70.2,341.06,64.63,341.06,64.63c56.9,18.05,54.1,66.63,54.1,66.63-4.16,2.76-18-4.18-18-4.18,2.76,18.06,19.41,34.71,19.41,34.71,23.42,19.73,81.91,8.81,94.67,6.12a2.69,2.69,0,0,1,.81,3.41l-8.16,16.31a41,41,0,0,0-3.94,13.21q-.3,2.44-.75,4.92c-.27,1.44-.57,2.87-.91,4.31a131.53,131.53,0,0,1-5.1,16.77L448,252l-9.46-3.78-15.12-24.58c-1.89-28.35,7.56-45.37,7.56-45.37C417.77,174.47,347.83,252,347.83,252v43.48l-30.25,37.8-52.93-51c-9.45-1.89,0-17,0-17-26.46,5.67-66.16,56.71-66.16,56.71L172,308.69l-24.57,13.23L0,329.48l128.54,17,3.79,13.23,37.8-20.79s24.58,34,41.59,35.91c0,0-21.74-19.85,48.2-42.53,0,0,64.28,49.15,39.7,77.5,0,0,35.92-3.78,43.48-45.36,0,0,37.81-81.29,71.83-75.62,0,0-15.12,35.92-22.68,39.7,0,0,47.26,20.79-11.34,71.83,0,0,33.55-.24,69.62,2.38a393.39,393.39,0,0,1,43.36,13.6c.16,0,.27.11.33.13s0,0,.07,0c17.88,5.21,44.95,16.84,66.18,26.48,16.2,7.35,29,13.57,31.76,14.9a.91.91,0,0,0,1-.12c9.83-7.6,26.6-16.08,43.88-23.78l3-1.34,0,0c18.73-8.2,37.66-15.41,48.6-19.47l1-.38c3.8-1.4,6.51-2.4,7.73-2.87a8.11,8.11,0,0,0,1.48-.72c27.32-16.26,45.08-21.76,45.08-21.76,19-2.7,16.79-16,16.68-16.63,0,0,0,0,0,0a229.42,229.42,0,0,1-5.79-26c9.51,9.35,22,16.73,22,16.73-1.89,5,0,28.41,0,28.41,4.38-6.29,8-9.92,10.85-11.9a6.84,6.84,0,0,1,10.48,3.91,30.18,30.18,0,0,0,3.72,7.89,21,21,0,0,1,2.62,16.62l-3.1,11.89c1.44-6.37,18.28-18.58,26.18-24a18.26,18.26,0,0,0,6-7,91.51,91.51,0,0,1,20.81-27.22,72.49,72.49,0,0,0,10.58-11.86,69.28,69.28,0,0,0,7.72-13.89,7.51,7.51,0,0,1,1.49-2.31c37.16-38.69,55.75-15.69,55.75-15.69,14.17,26.75,28.58,40.74,39.47,48.06s18.18,7.94,18.18,7.94A21.17,21.17,0,0,1,998,345.29l1.33-.65a103.46,103.46,0,0,1,39.24-10.24l94.67-5.48ZM687.88,354.81l.29-.35c-5.35,4.46-62.95,52.32-85.88,70a12.72,12.72,0,0,1-15.73-.14l-74.35-59.54-28.9-23.14-2.4-3.93a11,11,0,0,1,.81-12.56l6.33-8.12,9.46-12.16,13.42-17.22,24.95-32c0-.06,32.48-27.09,48.66-40.55a13.9,13.9,0,0,1,17.84,0l51.46,43.17.15.16,20.66,25.84,6.45,8.05,3.32,7.43,7,15.67C692.34,317.65,703.16,343.72,687.88,354.81Z"/><path class="cls-1" d="M313.31,64.61s-73.56,5.52-30.55,48.56C282.76,113.17,260.56,81.24,313.31,64.61Z"/><path class="cls-1" d="M764.34,236.53s-14.87,72.25,38.31,42.7C802.65,279.23,765.86,291.81,764.34,236.53Z"/><path class="cls-1" d="M348.17,2.43s38.16,6.66,43.12,30.87C391.29,33.3,391.71-10.65,348.17,2.43Z"/><path class="cls-1" d="M237.41,367.09s38.15,6.65,43.11,30.87C280.52,398,280.94,354,237.41,367.09Z"/><path class="cls-1" d="M881.27,357.55s29.48-25.12,51.28-13.49C932.55,344.06,899,315.68,881.27,357.55Z"/></g></g></svg>