<svg xmlns="http://www.w3.org/2000/svg" viewBox="0 0 1475.11 1457.42"><defs><style>.cls-1{opacity:0.31;}.cls-2{fill:#303030;}</style></defs><title>Ресурс 54</title><g id="Слой_2" data-name="Слой 2"><g id="Слой_1-2" data-name="Слой 1"><g class="cls-1"><path class="cls-2" d="M1286.55,967.88a67.62,67.62,0,0,0,.36,10.68l.74,5.23c.31,1.75.62,3.46,1,5.13a25.23,25.23,0,0,0,3.86,9,13.12,13.12,0,0,0,7.21,5.11,13.45,13.45,0,0,0,4.46.49,13.66,13.66,0,0,0,2.21-.3c.36-.11.73-.17,1.07-.31l.53-.18.67-.25a8.28,8.28,0,0,1,1.8-.48,4.52,4.52,0,0,1,2.72.39,4.14,4.14,0,0,1,2,2.23,6.39,6.39,0,0,1,.35,2.06V1008a2.71,2.71,0,0,0,.07.72,3.18,3.18,0,0,0,.85,1.37,6.65,6.65,0,0,0,1.7,1.16c.35.17.71.33,1.1.48l1.27.49a4.28,4.28,0,0,1,1,.53,3,3,0,0,1,.92,1.08,9,9,0,0,1,.49,1.56c.22.91.42,1.83.57,2.75a29.53,29.53,0,0,1-.32,11,41.36,41.36,0,0,0-2.14-10.38c-.28-.82-.58-1.63-.92-2.42a5.06,5.06,0,0,0-.45-.95s0,.08,0,.09-.07,0-.22,0a13.32,13.32,0,0,1-5.66-2.27,7.31,7.31,0,0,1-2.26-3,6.61,6.61,0,0,1-.44-1.91l-.11-1.37a1.39,1.39,0,0,0-.13-.58s.1.23.24.29.26.06.09.1a5.61,5.61,0,0,0-.78.28l-.57.26-.74.28a15.46,15.46,0,0,1-1.5.49,17.35,17.35,0,0,1-9.29-.07,17.25,17.25,0,0,1-5.62-2.77,17.89,17.89,0,0,1-4.21-4.53,26.13,26.13,0,0,1-3.82-11,50,50,0,0,1-.41-5.54l.08-5.51A40.42,40.42,0,0,1,1286.55,967.88Z"/><path class="cls-2" d="M1326.12,979.6c.87,3.15,1.54,6.33,2.94,8.95a11.14,11.14,0,0,0,2.64,3.32c.54.46,1.17.91,1.85,1.42a15.14,15.14,0,0,1,2,1.82,16.5,16.5,0,0,1,4,9.51,22.75,22.75,0,0,1-1.3,9.83,50.85,50.85,0,0,0-1.08-9.43,18.37,18.37,0,0,0-3.9-7.86,13,13,0,0,0-1.56-1.49c-.58-.5-1.25-1-1.9-1.63a11.6,11.6,0,0,1-2.88-4.52A21.45,21.45,0,0,1,1326.12,979.6Z"/><path class="cls-2" d="M1339.29,1056.28c0-2,0-4,.16-6.06s.27-4,.49-6,.46-4,.76-6a32.84,32.84,0,0,1,1.43-6.27,17.46,17.46,0,0,1,1.52-3.23,18.11,18.11,0,0,1,2.16-2.84c1.53-1.69,3-3,4.29-4.31a54.15,54.15,0,0,0,3.62-4.16,41.93,41.93,0,0,0,3-4.46,25.6,25.6,0,0,0,3.35-9.59,17.11,17.11,0,0,0-.09-4.79,17.46,17.46,0,0,0-1.34-4.65,14,14,0,0,0-6.05-6.93,13.85,13.85,0,0,0-2.23-.94,18.71,18.71,0,0,1-3.34-1.3,10,10,0,0,1-5-6.41l3.57,1.62a7,7,0,0,0-3.15,2.24,43.07,43.07,0,0,0-3,4,18.22,18.22,0,0,1-3.74,4.11,7.14,7.14,0,0,1-5.12,1.72,7.18,7.18,0,0,0,3.92-2.91,19.5,19.5,0,0,0,2.21-4.37,35.53,35.53,0,0,1,2.2-5,11.37,11.37,0,0,1,4.51-4.58l2.26-1.17,1.31,2.79a4.55,4.55,0,0,0,2.62,2.38,22,22,0,0,0,2.33.53,20.54,20.54,0,0,1,3.43,1,18.66,18.66,0,0,1,6.11,4,22.79,22.79,0,0,1,4.2,5.79,24.73,24.73,0,0,1,2.49,13.82,30.52,30.52,0,0,1-4.66,12.74,39,39,0,0,1-4,5.25,44.36,44.36,0,0,1-4.6,4.5c-1.64,1.43-3.29,2.58-4.58,3.7a12.27,12.27,0,0,0-3,3.71,33.85,33.85,0,0,0-2.12,5.12l-2,5.63-2,5.66C1340.67,1052.48,1340,1054.38,1339.29,1056.28Z"/><path class="cls-2" d="M737.55,1457.42a732.11,732.11,0,0,1-267-49.9l-22-8.57,20.05-12.45A184.25,184.25,0,0,0,515,1345.34c64.28-79.86,51.63-197.1-28.2-261.37s-197.18-51.65-261.46,28.2A183.35,183.35,0,0,0,189.55,1185l-5.49,23L169,1189.74A734.51,734.51,0,0,1,0,719.86c0-13.51.4-27.14,1.18-40.52l1.37-23.5,18,15.16a185.77,185.77,0,0,0,195.57,27,184.51,184.51,0,0,0,97.5-103.61C350,498.54,301.63,391,205.8,354.56a184.44,184.44,0,0,0-80.43-11.51l-23.56,1.85L114.49,325A738.54,738.54,0,0,1,301.46,125,730.83,730.83,0,0,1,551.54,6L574.38.1l-9,21.83a183.42,183.42,0,0,0-13.51,60.54c-5.43,102.35,73.45,190,175.85,195.46S917.85,204.35,923.19,102a184.19,184.19,0,0,0-13.51-80.18L900.78,0l22.8,5.93a739.22,739.22,0,0,1,435,315.79l12.81,19.94-23.63-1.79a185.93,185.93,0,0,0-193,233.7c26.63,99,128.82,157.85,227.82,131.23a184.42,184.42,0,0,0,71.82-37.53l17.83-15.12,1.57,23.33c.93,13.8,1.38,28.32,1.38,44.38a734.71,734.71,0,0,1-166.53,466.94L1293.67,1205l-5.68-22.83a186.36,186.36,0,0,0-24.76-56.88c-56-85.89-171.41-110.22-257.29-54.23a186,186,0,0,0,4.06,314l20.17,12.34-22,8.7A733,733,0,0,1,737.55,1457.42ZM500,1393.28a716.81,716.81,0,0,0,478.65-1.21A208.07,208.07,0,0,1,932,1341.25c-63.13-96.69-35.77-226.76,61-290s226.85-35.68,290,61.11a210.1,210.1,0,0,1,21.11,42,715.8,715.8,0,0,0,147.4-434.57c0-7.2-.1-14.07-.29-20.69a210.76,210.76,0,0,1-117,35.64c-92.43,0-177.24-61.71-202.37-155.11A209.54,209.54,0,0,1,1279.79,323a211,211,0,0,1,46.56-7.08C1232.91,179.86,1096.73,81,939.09,34.71a207.19,207.19,0,0,1,7.67,68.54A209.53,209.53,0,0,1,737.7,301.79q-5.57,0-11.18-.29c-115.4-6.13-204.3-104.94-198.18-220.25A207.78,207.78,0,0,1,536,34.79C377.16,81.3,240.23,181.24,146.66,319A209.54,209.54,0,1,1,65.58,724.34a212.15,212.15,0,0,1-41.77-21.45c-.14,5.61-.21,11.25-.21,17a715.32,715.32,0,0,0,149.61,437.42,208.12,208.12,0,0,1,33.76-59.9c72.45-90,204.63-104.26,294.65-31.79A209.62,209.62,0,0,1,500,1393.28Z"/><path class="cls-2" d="M1405.83,880.43a10.73,10.73,0,0,0,1.25-4.21,25.44,25.44,0,0,0,.1-4.36c-.13-2.84-1-5.65-3-6.66a17.15,17.15,0,0,0-1.84-.83,4,4,0,0,0-1.49-.4.4.4,0,0,0-.25.08,2.3,2.3,0,0,0-.38.32,13.54,13.54,0,0,0-1.18,1.47,22.37,22.37,0,0,0-2.9,7.63c-.34,1.41-.63,2.88-1,4.37s-.73,3-1.21,4.49a48.92,48.92,0,0,1-3.64,8.56,43.35,43.35,0,0,1-5.21,7.69,12.73,12.73,0,0,1-3.78,2.93,7.21,7.21,0,0,1-4.58.66,7.57,7.57,0,0,0,4-1.64,12.24,12.24,0,0,0,2.76-3.19,39.17,39.17,0,0,0,2.09-3.84c.63-1.33,1.26-2.65,1.81-4a68.13,68.13,0,0,0,2.79-8.27c.77-2.79,1.22-5.65,1.9-8.7a23.61,23.61,0,0,1,3.76-9,15.2,15.2,0,0,1,1.76-1.94,5.29,5.29,0,0,1,1.45-1,4.25,4.25,0,0,1,2-.31,7.26,7.26,0,0,1,2.8.9,19.75,19.75,0,0,1,2.14,1.28,7.76,7.76,0,0,1,3,4.52,14.53,14.53,0,0,1,.26,4.89,22.59,22.59,0,0,1-1,4.57A9.27,9.27,0,0,1,1405.83,880.43Z"/><path class="cls-2" d="M1393.46,873a15,15,0,0,0,.48-5.9,9.47,9.47,0,0,0-2.18-5.08c-1.14-1.34-2.85-2.48-4.25-2.49a2.26,2.26,0,0,0-1.7.7,4.24,4.24,0,0,0-1.07,1.92,15.34,15.34,0,0,0-.43,2.68c-.1,1-.25,2.07-.41,3.09a53.55,53.55,0,0,1-1.33,6.13,56.25,56.25,0,0,1-4.79,11.61,53.33,53.33,0,0,1-3.39,5.29,46.27,46.27,0,0,1-4,4.89,29.31,29.31,0,0,1-5,4.17,21.88,21.88,0,0,1-2.88,1.61,21.18,21.18,0,0,1-3.14,1.08,39.74,39.74,0,0,1-6.23.92,16.77,16.77,0,0,1-6.46-.42,27,27,0,0,1-5.55-2.93l-2.57-1.63-1.28-.83a2.34,2.34,0,0,1-.63-.49c-.08-.11-.14-.34.06-.42a.27.27,0,0,1,.2.06c.07,0,.09.15,0,.16.13-.11-.12-.18-.18-.14s0,.18,0,.24a2.61,2.61,0,0,0,.65.3l1.42.57,2.81,1.16a27.65,27.65,0,0,0,5.52,2,14.88,14.88,0,0,0,5.6-.3,43.31,43.31,0,0,0,5.68-1.34,21.28,21.28,0,0,0,9-6.42,52.69,52.69,0,0,0,6.67-9.53,55.61,55.61,0,0,0,4.65-10.71,50.83,50.83,0,0,0,1.52-5.66c.21-1,.37-1.91.54-2.91a17.52,17.52,0,0,1,.81-3.25,7.5,7.5,0,0,1,2.16-3.13,5.4,5.4,0,0,1,1.83-1,4.77,4.77,0,0,1,2.08-.15,7.13,7.13,0,0,1,3.33,1.49,10.45,10.45,0,0,1,2.3,2.49,10.71,10.71,0,0,1,1.69,6.23A13.58,13.58,0,0,1,1393.46,873Z"/><path class="cls-2" d="M1329.15,848.41a39.18,39.18,0,0,1,5.9,1.57c1,.33,1.91.69,2.87,1l2.83,1.17c1.87.8,3.68,1.73,5.52,2.62s3.6,1.93,5.36,3,3.51,2.08,5.2,3.2l5.07,3.43c3.26,2.43,6.54,4.85,9.66,7.47,1.54,1.32,3.13,2.59,4.63,4l4.5,4.11c1.5,1.37,2.91,2.83,4.34,4.27s2.85,2.89,4.25,4.36c2.75,3,5.4,6,8,9.12s5,6.37,7.38,9.66c-3-2.68-6-5.48-8.87-8.27l-4.44-4.09c-1.48-1.36-2.9-2.78-4.39-4.13-3-2.61-5.89-5.45-9-8-1.52-1.3-3-2.64-4.51-4s-3.08-2.55-4.62-3.83c-6.11-5.15-12.45-10-19-14.57-1.63-1.16-3.33-2.2-5-3.34s-3.37-2.16-5.1-3.16A85.8,85.8,0,0,0,1329.15,848.41Z"/><path class="cls-2" d="M1345.76,878.38a10.91,10.91,0,0,1-4.25-.74,15.16,15.16,0,0,1-6.8-5.1,10.86,10.86,0,0,1-1.88-3.88c1.27.76,2.35,1.57,3.43,2.35l3.15,2.36,3.13,2.37C1343.59,876.57,1344.68,877.37,1345.76,878.38Z"/><path class="cls-2" d="M855,1411.64a23,23,0,0,1-4.94-7.31,27.21,27.21,0,0,1-2.1-8.75,28,28,0,0,1,.86-9.09,26.09,26.09,0,0,1,4-8.4l1.91,3a7.11,7.11,0,0,1-3.55,0,11.18,11.18,0,0,1-3-1.24,20.13,20.13,0,0,1-2.43-1.7c-.7-.61-1.43-1.19-2.11-1.83a43.36,43.36,0,0,1-7.15-8.54,45.71,45.71,0,0,1-4.76-10.07,44.55,44.55,0,0,1-2.1-11l4,1c-2,3-2.87,7-4.23,11a24.55,24.55,0,0,1-2.91,6,14.47,14.47,0,0,1-5,4.74,10.33,10.33,0,0,1-3.43,1.08,26.3,26.3,0,0,1-3.26.1c-2,0-3.78.18-4.53,1.6a4,4,0,0,0-.29,2.52,9.32,9.32,0,0,0,.91,2.76c.88,1.8,2.08,3.73,2.08,5.86-.4-2.08-1.79-3.62-3-5.36a10.47,10.47,0,0,1-1.45-2.94,5.67,5.67,0,0,1,0-3.57,4.79,4.79,0,0,1,2.71-2.66,11.25,11.25,0,0,1,3.36-.69,25.32,25.32,0,0,0,2.92-.36,7.11,7.11,0,0,0,2.37-1,11.35,11.35,0,0,0,3.63-4,22.76,22.76,0,0,0,2.16-5.29c1.14-3.78,1.82-8.11,4.23-12.17l3.44-5.8.58,6.8a43.58,43.58,0,0,0,2,9.84,44.22,44.22,0,0,0,4.28,9.1,43.31,43.31,0,0,0,6.25,7.89c.58.61,1.23,1.15,1.84,1.73a14.91,14.91,0,0,0,1.86,1.43,5.21,5.21,0,0,0,3.59,1l5.14-.93-3.23,3.88a22.47,22.47,0,0,0-3.93,7.05,26.06,26.06,0,0,0-1.51,8.11,27.14,27.14,0,0,0,1,8.34A26.06,26.06,0,0,0,855,1411.64Z"/><path class="cls-2" d="M852.55,1365.89c-2,2-4.25,3.77-6.39,5.52s-4.24,3.45-6.19,5.27a47.64,47.64,0,0,0-5.39,5.88,37,37,0,0,0-4.22,7,16.65,16.65,0,0,1,1.95-8.45,25.24,25.24,0,0,1,5.34-7,35.28,35.28,0,0,1,7-5A40.93,40.93,0,0,1,852.55,1365.89Z"/><path class="cls-2" d="M842,1353.67a9.06,9.06,0,0,1-.77-3.45,12.51,12.51,0,0,1,.4-3.5,12.37,12.37,0,0,1,1.36-3.25,8.87,8.87,0,0,1,2.36-2.64c-.18,1.2-.46,2.27-.72,3.33l-.81,3.13-.82,3.12C842.66,1351.46,842.38,1352.54,842,1353.67Z"/><path class="cls-2" d="M575.58,1387.81a10.53,10.53,0,0,0,4.21,1.26,24.47,24.47,0,0,0,4.36.11c2.84-.12,5.65-1,6.66-3a17.07,17.07,0,0,0,.84-1.84,4,4,0,0,0,.4-1.49.41.41,0,0,0-.07-.25,3.58,3.58,0,0,0-.33-.38,14.51,14.51,0,0,0-1.46-1.19,22.38,22.38,0,0,0-7.63-2.91c-1.41-.34-2.87-.63-4.36-1s-3-.74-4.5-1.22a48.49,48.49,0,0,1-8.54-3.66,42.45,42.45,0,0,1-7.68-5.22,12.49,12.49,0,0,1-2.93-3.79,7.2,7.2,0,0,1-.65-4.58,7.57,7.57,0,0,0,1.64,4,11.9,11.9,0,0,0,3.18,2.77,37,37,0,0,0,3.83,2.09c1.33.64,2.65,1.28,4,1.83a70,70,0,0,0,8.27,2.81c2.78.77,5.64,1.22,8.69,1.91a23.66,23.66,0,0,1,9,3.78,15.83,15.83,0,0,1,1.93,1.76,5.35,5.35,0,0,1,1,1.46,4.23,4.23,0,0,1,.31,2,7.21,7.21,0,0,1-.9,2.79,20.43,20.43,0,0,1-1.28,2.14,7.75,7.75,0,0,1-4.53,3,14.34,14.34,0,0,1-4.9.25,22.9,22.9,0,0,1-4.57-1A9.44,9.44,0,0,1,575.58,1387.81Z"/><path class="cls-2" d="M583,1375.46a15.06,15.06,0,0,0,5.9.49,9.46,9.46,0,0,0,5.09-2.17,6.51,6.51,0,0,0,2.5-4.25,2.26,2.26,0,0,0-.7-1.69,4.35,4.35,0,0,0-1.92-1.08,15.18,15.18,0,0,0-2.68-.43c-1-.1-2.06-.25-3.09-.42a53.42,53.42,0,0,1-6.12-1.34,56.79,56.79,0,0,1-11.6-4.81,55.25,55.25,0,0,1-5.28-3.41,46.37,46.37,0,0,1-4.89-4,29.75,29.75,0,0,1-4.15-5,18.84,18.84,0,0,1-2.68-6,39.69,39.69,0,0,1-.91-6.23,16.78,16.78,0,0,1,.43-6.46,26.72,26.72,0,0,1,3-5.54l1.63-2.57.83-1.28a2.56,2.56,0,0,1,.49-.63c.11-.08.34-.14.42.06a.23.23,0,0,1-.05.2c0,.07-.15.09-.17,0,.11.13.18-.12.14-.18s-.17,0-.23,0a2.62,2.62,0,0,0-.31.65l-.56,1.42-1.17,2.81a27.32,27.32,0,0,0-2,5.52,15,15,0,0,0,.29,5.59,43.85,43.85,0,0,0,1.33,5.69,21.33,21.33,0,0,0,6.4,9,51.83,51.83,0,0,0,9.52,6.68,55.37,55.37,0,0,0,10.7,4.68,51.89,51.89,0,0,0,5.66,1.53c1,.21,1.9.37,2.9.55a17.59,17.59,0,0,1,3.25.82,7.44,7.44,0,0,1,3.13,2.17,5.2,5.2,0,0,1,1,1.83,4.72,4.72,0,0,1,.15,2.07,7,7,0,0,1-1.5,3.33,10.4,10.4,0,0,1-2.49,2.29,10.67,10.67,0,0,1-6.23,1.68A13.5,13.5,0,0,1,583,1375.46Z"/><path class="cls-2" d="M607.76,1311.2a38.9,38.9,0,0,1-1.58,5.9c-.33,1-.7,1.91-1,2.87l-1.18,2.82c-.81,1.87-1.74,3.68-2.63,5.52s-1.94,3.59-3,5.35-2.09,3.5-3.22,5.2l-3.44,5.05c-2.43,3.27-4.86,6.54-7.48,9.65-1.33,1.54-2.6,3.13-4,4.62l-4.12,4.49c-1.38,1.5-2.84,2.91-4.28,4.34s-2.9,2.84-4.37,4.24c-3,2.74-6.07,5.38-9.14,8s-6.38,5-9.67,7.36c2.68-3.05,5.49-6,8.28-8.85l4.1-4.43c1.36-1.48,2.79-2.9,4.14-4.38,2.62-3,5.46-5.88,8-9,1.31-1.52,2.65-3,4-4.5s2.55-3.08,3.84-4.61c5.16-6.11,10.05-12.43,14.61-19,1.16-1.63,2.2-3.33,3.35-5s2.16-3.37,3.17-5.1A84.47,84.47,0,0,0,607.76,1311.2Z"/><path class="cls-2" d="M577.76,1327.75a10.91,10.91,0,0,1,.74-4.25,15,15,0,0,1,2.07-3.76,14.8,14.8,0,0,1,3-3,10.9,10.9,0,0,1,3.89-1.88c-.77,1.27-1.58,2.34-2.37,3.42l-2.36,3.15-2.38,3.13C579.58,1325.59,578.77,1326.67,577.76,1327.75Z"/><path class="cls-2" d="M776.8,1405.89c-7.76-4.89-15.33-10-22.85-15.21s-15-10.5-22.39-15.83-14.76-10.76-22-16.26-14.56-11-21.76-16.64l4.93-3.42c1.84,6.21,3.54,12.46,5.3,18.69s3.39,12.51,5.08,18.76c.84,3.13,1.61,6.28,2.42,9.42s1.59,6.29,2.34,9.44c1.53,6.31,3,12.63,4.31,19-2.42-6-4.71-12.11-6.92-18.21q-1.68-4.56-3.28-9.16c-1.06-3.06-2.17-6.11-3.2-9.18-2.05-6.14-4.2-12.26-6.16-18.43s-4-12.32-5.93-18.51l-2.83-9.2,7.76,5.78q11,8.19,21.81,16.59c7.23,5.57,14.36,11.28,21.52,17s14.19,11.5,21.18,17.39S770,1399.7,776.8,1405.89Z"/><path class="cls-2" d="M722.7,1382.34c-2.79,2.93-5.7,5.72-8.65,8.46s-6,5.4-9,8c-1.5,1.33-3.07,2.59-4.6,3.89s-3.08,2.58-4.66,3.83c-3.11,2.54-6.28,5-9.48,7.45l-2.29,1.75.14-2.77.21-4.44.29-4.45.36-4.44c.14-1.48.3-3,.49-4.45.19,1.49.34,3,.47,4.45l.35,4.44.27,4.45.2,4.44-2.16-1c3-2.66,6-5.3,9.14-7.86q2.29-2,4.65-3.83c1.57-1.26,3.11-2.55,4.71-3.77,3.16-2.48,6.36-4.92,9.61-7.29S719.29,1384.51,722.7,1382.34Z"/><path class="cls-2" d="M173.3,930.94a67.91,67.91,0,0,0-7.79-7.33l-4.22-3.18c-1.44-1-2.87-2-4.34-2.91a25.19,25.19,0,0,0-9.06-3.63,13.1,13.1,0,0,0-8.72,1.46,13.29,13.29,0,0,0-3.5,2.79,12.81,12.81,0,0,0-1.36,1.77c-.17.33-.39.64-.54,1l-.25.49-.3.66a8.66,8.66,0,0,1-.94,1.61,4.54,4.54,0,0,1-2.2,1.64,4.15,4.15,0,0,1-3-.17,6.31,6.31,0,0,1-1.69-1.21l-.94-.94a2.52,2.52,0,0,0-.56-.46,3,3,0,0,0-1.56-.37,6.63,6.63,0,0,0-2,.37c-.37.12-.74.27-1.12.43l-1.25.55a4.08,4.08,0,0,1-1.08.33,3,3,0,0,1-1.41-.12,8.42,8.42,0,0,1-1.45-.76c-.8-.49-1.59-1-2.34-1.55a29.06,29.06,0,0,1-7.51-8,41,41,0,0,0,8.83,5.87c.77.38,1.56.74,2.36,1.07a6.07,6.07,0,0,0,1,.35c.06,0-.07,0-.08,0s.06-.05.18-.13A13.19,13.19,0,0,1,122,918.1a7.3,7.3,0,0,1,3.69.5,6.54,6.54,0,0,1,1.66,1l1,.89a1.21,1.21,0,0,0,.5.32.47.47,0,0,0-.38,0c-.19,0-.22.14-.13,0a6.38,6.38,0,0,0,.35-.75l.23-.58.32-.72c.2-.49.48-.94.72-1.41a17.18,17.18,0,0,1,1.82-2.56,18.31,18.31,0,0,1,4.82-3.94,17.39,17.39,0,0,1,5.94-2,18.22,18.22,0,0,1,6.18.25,26.26,26.26,0,0,1,10.45,5.1,51,51,0,0,1,4.2,3.64l3.82,4A39.86,39.86,0,0,1,173.3,930.94Z"/><path class="cls-2" d="M137,950.52c-2.84-1.63-5.56-3.41-8.4-4.29a11.36,11.36,0,0,0-4.21-.49c-.71.06-1.47.18-2.32.3a14.67,14.67,0,0,1-2.66.09,16.57,16.57,0,0,1-9.53-4,22.71,22.71,0,0,1-6-7.88,51.77,51.77,0,0,0,7.41,5.93,18.43,18.43,0,0,0,8.3,2.82,13,13,0,0,0,2.16,0c.76-.06,1.59-.18,2.5-.19a11.57,11.57,0,0,1,5.23,1.18A21.46,21.46,0,0,1,137,950.52Z"/><path class="cls-2" d="M73.58,905.41c1.44,1.42,2.82,2.9,4.15,4.42s2.65,3,3.91,4.62,2.5,3.17,3.7,4.79a33.9,33.9,0,0,1,3.41,5.46,18.36,18.36,0,0,1,1.19,3.37,17.76,17.76,0,0,1,.47,3.53c.11,2.29,0,4.27,0,6.09s.15,3.7.36,5.5a41.4,41.4,0,0,0,1,5.28,25.6,25.6,0,0,0,4.38,9.16A17.25,17.25,0,0,0,99.61,961a17.71,17.71,0,0,0,4.23,2.35A13.91,13.91,0,0,0,113,964a12.17,12.17,0,0,0,2.24-.9,20.28,20.28,0,0,1,3.28-1.43,10,10,0,0,1,8.06,1L122.92,964a7,7,0,0,0,.65-3.82,44.15,44.15,0,0,0-.72-4.93,18,18,0,0,1-.24-5.54,7.18,7.18,0,0,1,2.41-4.84,7.16,7.16,0,0,0-.72,4.83,19.08,19.08,0,0,0,1.51,4.66,36.74,36.74,0,0,1,2,5.09,11.3,11.3,0,0,1,0,6.43l-.78,2.43-2.89-1.07a4.64,4.64,0,0,0-3.54.16,22.38,22.38,0,0,0-2,1.28,20.7,20.7,0,0,1-3.12,1.71,18.79,18.79,0,0,1-7.17,1.46,23,23,0,0,1-7.07-1.15,24.66,24.66,0,0,1-11.5-8A30.6,30.6,0,0,1,84,950.37a39.47,39.47,0,0,1-.89-6.51,44.57,44.57,0,0,1,.09-6.44c.16-2.17.52-4.15.65-5.85a12.45,12.45,0,0,0-.45-4.78,34.85,34.85,0,0,0-2.11-5.13l-2.58-5.37-2.59-5.41C75.27,909.07,74.41,907.25,73.58,905.41Z"/><path class="cls-2" d="M150.33,1077a10.74,10.74,0,0,0,2.08,3.87,24.37,24.37,0,0,0,3,3.16c2.09,1.93,4.72,3.27,6.81,2.62a15.25,15.25,0,0,0,1.89-.71,4,4,0,0,0,1.34-.76.38.38,0,0,0,.12-.23,3.08,3.08,0,0,0,0-.5,13.77,13.77,0,0,0-.19-1.88,22.33,22.33,0,0,0-3.33-7.45c-.75-1.24-1.58-2.48-2.39-3.78s-1.61-2.66-2.31-4a47.82,47.82,0,0,1-3.45-8.63,43,43,0,0,1-1.73-9.13,12.52,12.52,0,0,1,.62-4.74,7.18,7.18,0,0,1,2.78-3.7,7.6,7.6,0,0,0-1.67,4,12,12,0,0,0,.29,4.22,36.76,36.76,0,0,0,1.22,4.19c.49,1.39,1,2.77,1.54,4.12a67.64,67.64,0,0,0,3.85,7.83c1.42,2.52,3.12,4.86,4.78,7.51a23.73,23.73,0,0,1,3.68,9,16.22,16.22,0,0,1,.11,2.62,5.25,5.25,0,0,1-.35,1.71,4.35,4.35,0,0,1-1.16,1.6,7.36,7.36,0,0,1-2.62,1.33,18.6,18.6,0,0,1-2.42.6,7.81,7.81,0,0,1-5.3-1.09,14.48,14.48,0,0,1-3.64-3.3,22.67,22.67,0,0,1-2.5-4A9.45,9.45,0,0,1,150.33,1077Z"/><path class="cls-2" d="M164.33,1073.58a14.86,14.86,0,0,0,3.82,4.52,9.47,9.47,0,0,0,5.12,2.07,6.55,6.55,0,0,0,4.78-1.23,2.34,2.34,0,0,0,.71-1.69,4.41,4.41,0,0,0-.6-2.12,14.91,14.91,0,0,0-1.59-2.21c-.63-.78-1.28-1.64-1.88-2.48a55,55,0,0,1-3.38-5.28,56,56,0,0,1-4.78-11.61,53.42,53.42,0,0,1-1.33-6.15,46.68,46.68,0,0,1-.6-6.29,29.9,29.9,0,0,1,.57-6.44,22.53,22.53,0,0,1,.91-3.18,19.53,19.53,0,0,1,1.47-3,38.52,38.52,0,0,1,3.76-5,16.82,16.82,0,0,1,4.88-4.26,26.72,26.72,0,0,1,6-1.83l3-.66,1.49-.31a2.48,2.48,0,0,1,.79-.1c.14,0,.34.14.26.34a.26.26,0,0,1-.19.1c-.07,0-.16,0-.11-.11,0,.16.21,0,.22,0s-.1-.14-.2-.13a2.47,2.47,0,0,0-.67.24l-1.41.6-2.81,1.16a28.06,28.06,0,0,0-5.32,2.48,15,15,0,0,0-3.75,4.16,42.44,42.44,0,0,0-3.09,5,21.43,21.43,0,0,0-1.86,10.89,52.33,52.33,0,0,0,2,11.46,55.22,55.22,0,0,0,4.26,10.88,50.25,50.25,0,0,0,2.91,5.09c.53.83,1.08,1.61,1.66,2.44a19.06,19.06,0,0,1,1.72,2.88,7.4,7.4,0,0,1,.67,3.74,5.38,5.38,0,0,1-.6,2,4.74,4.74,0,0,1-1.36,1.57,7.06,7.06,0,0,1-3.42,1.29,10.06,10.06,0,0,1-3.38-.14,10.71,10.71,0,0,1-5.59-3.22A13.45,13.45,0,0,1,164.33,1073.58Z"/><path class="cls-2" d="M227.29,1045.71a40.07,40.07,0,0,1-5.29,3c-.91.44-1.84.86-2.77,1.28l-2.83,1.16c-1.9.75-3.84,1.37-5.77,2s-3.91,1.17-5.88,1.67-4,1-6,1.4l-6,1.14c-4,.58-8.07,1.17-12.12,1.51-2,.15-4,.37-6.08.45l-6.09.25c-2,.09-4.06,0-6.09,0s-4.06,0-6.09-.1c-4-.17-8.1-.49-12.13-.8-4-.5-8.05-1-12.05-1.65,4.06-.25,8.09-.31,12.12-.39l6-.22c2-.09,4-.08,6-.17,4-.3,8-.29,12-.63,2-.14,4-.25,6-.37s4-.37,6-.53c8-.67,15.89-1.67,23.75-3.07,2-.33,3.91-.8,5.89-1.14s3.91-.85,5.84-1.36A84,84,0,0,0,227.29,1045.71Z"/><path class="cls-2" d="M194.38,1036.16a11,11,0,0,1,3.54-2.48,15.2,15.2,0,0,1,4.12-1.19,14.69,14.69,0,0,1,4.29,0,10.82,10.82,0,0,1,4.08,1.43c-1.44.35-2.78.54-4.1.74l-3.89.55-3.89.53C197.2,1035.91,195.86,1036.1,194.38,1036.16Z"/><path class="cls-2" d="M45.51,835.9A23.16,23.16,0,0,1,52.84,831a27.46,27.46,0,0,1,8.75-2.09,28.27,28.27,0,0,1,9.09.89,26,26,0,0,1,8.39,4l-3,1.91a7.11,7.11,0,0,1,0-3.55,11,11,0,0,1,1.24-3,20.18,20.18,0,0,1,1.71-2.43c.61-.7,1.19-1.43,1.83-2.1a42.75,42.75,0,0,1,8.56-7.13,45.1,45.1,0,0,1,10.08-4.75,44.41,44.41,0,0,1,11-2.07l-1,4c-3-2-7-2.89-11-4.26a24,24,0,0,1-6-2.92,14.39,14.39,0,0,1-4.73-5.06,10.33,10.33,0,0,1-1.08-3.43,28.28,28.28,0,0,1-.09-3.26c0-2-.17-3.78-1.59-4.53a4,4,0,0,0-2.52-.3,9.59,9.59,0,0,0-2.76.9c-1.8.87-3.74,2.08-5.86,2.07,2.07-.39,3.62-1.78,5.36-2.94a10.4,10.4,0,0,1,3-1.45,5.58,5.58,0,0,1,3.56.06,4.76,4.76,0,0,1,2.66,2.71,11.28,11.28,0,0,1,.68,3.36,25.91,25.91,0,0,0,.35,2.93,7.54,7.54,0,0,0,1,2.37,11.5,11.5,0,0,0,3.94,3.63,22.35,22.35,0,0,0,5.29,2.17c3.78,1.16,8.11,1.84,12.16,4.26l5.79,3.45-6.8.57a43.55,43.55,0,0,0-9.84,2,44.27,44.27,0,0,0-9.12,4.26,43.61,43.61,0,0,0-7.9,6.23c-.61.59-1.15,1.23-1.73,1.84a14.91,14.91,0,0,0-1.43,1.86,5.21,5.21,0,0,0-1,3.58l.92,5.14-3.88-3.23a22.42,22.42,0,0,0-7-4,26.48,26.48,0,0,0-8.11-1.53,27.23,27.23,0,0,0-8.35,1A25.93,25.93,0,0,0,45.51,835.9Z"/><path class="cls-2" d="M91.27,833.53c-2-2-3.76-4.26-5.5-6.4s-3.45-4.25-5.26-6.21a47.55,47.55,0,0,0-5.87-5.39,36.77,36.77,0,0,0-7-4.24,16.57,16.57,0,0,1,8.45,2A25.37,25.37,0,0,1,83,818.61a35.3,35.3,0,0,1,5,7A41.22,41.22,0,0,1,91.27,833.53Z"/><path class="cls-2" d="M103.51,823a9.06,9.06,0,0,1,3.46-.76,12.51,12.51,0,0,1,3.5.41,11.88,11.88,0,0,1,3.24,1.37,8.74,8.74,0,0,1,2.64,2.36,33.68,33.68,0,0,1-3.34-.73l-3.12-.81-3.12-.83C105.72,823.67,104.65,823.38,103.51,823Z"/><path class="cls-2" d="M381.58,131.91A10.69,10.69,0,0,0,377.7,134a25,25,0,0,0-3.16,3c-1.93,2.09-3.28,4.72-2.64,6.81a19.32,19.32,0,0,0,.71,1.89,3.86,3.86,0,0,0,.76,1.34.38.38,0,0,0,.23.12,1.68,1.68,0,0,0,.5,0A12.35,12.35,0,0,0,376,147a22.37,22.37,0,0,0,7.46-3.3c1.24-.76,2.48-1.58,3.78-2.39s2.66-1.61,4-2.31a48.64,48.64,0,0,1,8.65-3.42,42.19,42.19,0,0,1,9.13-1.71,12.55,12.55,0,0,1,4.74.62,7.22,7.22,0,0,1,3.69,2.79,7.6,7.6,0,0,0-4-1.67,12,12,0,0,0-4.21.27,38.43,38.43,0,0,0-4.2,1.22c-1.39.48-2.77,1-4.12,1.52a69.37,69.37,0,0,0-7.84,3.84c-2.52,1.42-4.87,3.11-7.52,4.76a23.6,23.6,0,0,1-9,3.67A17.45,17.45,0,0,1,374,151a5.29,5.29,0,0,1-1.71-.36,4.23,4.23,0,0,1-1.59-1.16,7.44,7.44,0,0,1-1.33-2.62,20.88,20.88,0,0,1-.6-2.42,7.85,7.85,0,0,1,1.11-5.31,14.43,14.43,0,0,1,3.3-3.63,22.7,22.7,0,0,1,4-2.49A9.33,9.33,0,0,1,381.58,131.91Z"/><path class="cls-2" d="M385,145.92a14.88,14.88,0,0,0-4.54,3.8,9.48,9.48,0,0,0-2.08,5.12c-.15,1.76.24,3.77,1.22,4.78a2.27,2.27,0,0,0,1.69.71,4.32,4.32,0,0,0,2.13-.59,15.28,15.28,0,0,0,2.2-1.58c.78-.63,1.64-1.27,2.49-1.88a53.72,53.72,0,0,1,5.29-3.36A55.92,55.92,0,0,1,405,148.16a51.75,51.75,0,0,1,6.15-1.31,45.4,45.4,0,0,1,6.3-.6,29.93,29.93,0,0,1,6.44.59,22.07,22.07,0,0,1,3.17.92,20.11,20.11,0,0,1,3,1.47,39.37,39.37,0,0,1,5,3.77,17,17,0,0,1,4.25,4.89,26.2,26.2,0,0,1,1.81,6l.66,3,.3,1.5a2.17,2.17,0,0,1,.1.79c0,.13-.14.33-.34.25a.26.26,0,0,1-.1-.18c0-.07,0-.17.11-.12-.16,0,0,.22,0,.23s.15-.11.13-.2a2.28,2.28,0,0,0-.23-.68l-.6-1.4-1.15-2.82a27.77,27.77,0,0,0-2.48-5.32,14.65,14.65,0,0,0-4.15-3.76,42.46,42.46,0,0,0-4.95-3.1,21.44,21.44,0,0,0-10.89-1.89,53.09,53.09,0,0,0-11.47,2,56,56,0,0,0-10.88,4.23,52.3,52.3,0,0,0-5.1,2.9c-.83.54-1.61,1.08-2.44,1.66a18.25,18.25,0,0,1-2.88,1.71,7.44,7.44,0,0,1-3.75.67,5.38,5.38,0,0,1-2-.6,5,5,0,0,1-1.57-1.37,7.24,7.24,0,0,1-1.28-3.43,10.28,10.28,0,0,1,.15-3.37,10.68,10.68,0,0,1,3.24-5.59A13.38,13.38,0,0,1,385,145.92Z"/><path class="cls-2" d="M412.75,208.94a40.77,40.77,0,0,1-3-5.3c-.44-.92-.85-1.85-1.27-2.78L407.29,198c-.75-1.9-1.36-3.84-2-5.77s-1.16-3.92-1.67-5.89-1-4-1.38-6l-1.13-6c-.57-4-1.15-8.07-1.48-12.12-.15-2-.37-4.06-.44-6.09l-.24-6.09c-.08-2,0-4.06,0-6.09s0-4.06.11-6.08c.18-4.06.5-8.1.83-12.14.5-4,1-8,1.66-12,.25,4.06.3,8.09.37,12.12l.21,6c.08,2,.07,4,.16,6,.29,4,.27,8,.6,12,.14,2,.24,4,.36,6s.36,4,.52,6c.65,8,1.63,15.9,3,23.77.32,2,.79,3.91,1.13,5.88s.84,3.91,1.34,5.85A85.91,85.91,0,0,0,412.75,208.94Z"/><path class="cls-2" d="M422.37,176.05a10.79,10.79,0,0,1,2.47,3.54A15.07,15.07,0,0,1,426,188a10.84,10.84,0,0,1-1.43,4.07c-.35-1.44-.53-2.78-.74-4.1l-.54-3.89-.52-3.9C422.61,178.86,422.42,177.53,422.37,176.05Z"/><path class="cls-2" d="M226.11,260.93c8.95-2,17.94-3.7,26.93-5.32s18-3.1,27-4.56,18.05-2.76,27.1-4,18.1-2.44,27.17-3.54l-1.09,5.9c-5.68-3.11-11.3-6.34-16.94-9.52s-11.22-6.48-16.83-9.72c-2.8-1.63-5.56-3.33-8.35-5s-5.56-3.33-8.31-5c-5.53-3.39-11-6.85-16.45-10.43,6,2.57,11.87,5.27,17.74,8q4.41,2.06,8.78,4.19c2.91,1.42,5.85,2.8,8.74,4.25,5.79,2.91,11.63,5.73,17.37,8.74s11.53,5.9,17.25,8.94l8.5,4.54-9.59,1.36c-9,1.29-18.1,2.47-27.16,3.61s-18.14,2.12-27.22,3.14-18.17,1.85-27.29,2.6S235.27,260.55,226.11,260.93Z"/><path class="cls-2" d="M281.08,239.5c-.09-4.05,0-8.08.18-12.1s.42-8,.73-12c.13-2,.35-4,.52-6s.38-4,.61-6c.41-4,.92-8,1.47-12l.39-2.85,1.86,2.06,3,3.3,2.93,3.35,2.87,3.41q1.42,1.72,2.79,3.5c-1.18-.92-2.33-1.86-3.47-2.82l-3.38-2.91-3.33-3-3.27-3,2.25-.79c-.25,4-.55,8-.93,12q-.25,3-.61,6c-.23,2-.41,4-.68,6-.49,4-1,8-1.68,12S282,235.55,281.08,239.5Z"/><path class="cls-2" d="M989,172.4a69,69,0,0,0,10.69-.28l5.24-.72c1.74-.3,3.46-.6,5.12-1a25.23,25.23,0,0,0,9-3.81,13.11,13.11,0,0,0,5.16-7.18,13.37,13.37,0,0,0,.51-4.45,12.72,12.72,0,0,0-.28-2.22c-.11-.35-.17-.72-.31-1.07l-.17-.52-.25-.68a9.67,9.67,0,0,1-.47-1.8,4.62,4.62,0,0,1,.41-2.72,4.14,4.14,0,0,1,2.25-2,6.06,6.06,0,0,1,2.05-.34h1.33a2.76,2.76,0,0,0,.72-.07,3.06,3.06,0,0,0,1.37-.84,6.43,6.43,0,0,0,1.17-1.7,10.88,10.88,0,0,0,.49-1.09l.5-1.27a4.24,4.24,0,0,1,.53-1,2.93,2.93,0,0,1,1.09-.91,9,9,0,0,1,1.56-.49c.92-.21,1.83-.41,2.76-.55a29.53,29.53,0,0,1,11,.39,41.45,41.45,0,0,0-10.4,2.07c-.82.28-1.63.57-2.42.9a6.54,6.54,0,0,0-1,.45c0,.05.08,0,.09,0s0,.08,0,.22a13.14,13.14,0,0,1-2.31,5.64,7.23,7.23,0,0,1-3,2.25,6.58,6.58,0,0,1-1.91.43l-1.37.1a1.39,1.39,0,0,0-.58.13s.23-.1.29-.24.06-.26.1-.09a5.61,5.61,0,0,0,.28.78l.25.57.28.74c.2.49.32,1,.48,1.5a17.29,17.29,0,0,1,.51,3.1,18,18,0,0,1-.64,6.2,17.53,17.53,0,0,1-2.8,5.6,18.22,18.22,0,0,1-4.56,4.18,26.32,26.32,0,0,1-11,3.75,47.57,47.57,0,0,1-5.54.37l-5.51-.11A40,40,0,0,1,989,172.4Z"/><path class="cls-2" d="M1000.94,132.91c3.16-.85,6.34-1.5,9-2.88a11.38,11.38,0,0,0,3.33-2.62c.46-.54.91-1.17,1.43-1.84a15.92,15.92,0,0,1,1.83-1.95,16.55,16.55,0,0,1,9.54-3.91,22.66,22.66,0,0,1,9.81,1.35,52.78,52.78,0,0,0-9.43,1,18.44,18.44,0,0,0-7.88,3.86,13.06,13.06,0,0,0-1.51,1.55c-.49.58-1,1.24-1.63,1.89a11.55,11.55,0,0,1-4.54,2.85A21.46,21.46,0,0,1,1000.94,132.91Z"/><path class="cls-2" d="M1077.7,120.22q-3,0-6.06-.2c-2-.12-4-.3-6-.52s-4-.49-6-.8a33.66,33.66,0,0,1-6.27-1.47,17.85,17.85,0,0,1-3.22-1.54,19.25,19.25,0,0,1-2.83-2.18c-1.68-1.55-3-3.06-4.28-4.32a54.32,54.32,0,0,0-4.14-3.65,42.4,42.4,0,0,0-4.44-3,25.58,25.58,0,0,0-9.57-3.41,17,17,0,0,0-4.78.06,17.47,17.47,0,0,0-4.66,1.31,14,14,0,0,0-7,6,14.19,14.19,0,0,0-1,2.22,18.63,18.63,0,0,1-1.32,3.33,10,10,0,0,1-6.44,4.94l1.64-3.56a7,7,0,0,0,2.23,3.16,42.72,42.72,0,0,0,4,3,18.4,18.4,0,0,1,4.08,3.76,7.14,7.14,0,0,1,1.69,5.13,7.16,7.16,0,0,0-2.89-3.93,19.45,19.45,0,0,0-4.35-2.24,35.13,35.13,0,0,1-5-2.23,11.39,11.39,0,0,1-4.56-4.53l-1.15-2.28,2.8-1.28a4.61,4.61,0,0,0,2.39-2.61,19.87,19.87,0,0,0,.54-2.33,21.31,21.31,0,0,1,1-3.42,19,19,0,0,1,4.06-6.09,23,23,0,0,1,5.82-4.16,24.68,24.68,0,0,1,13.84-2.4,30.37,30.37,0,0,1,12.71,4.74,37.31,37.31,0,0,1,5.22,4,43.47,43.47,0,0,1,4.48,4.63c1.41,1.64,2.55,3.3,3.66,4.6a12.12,12.12,0,0,0,3.69,3.07,33.7,33.7,0,0,0,5.11,2.15l5.62,2,5.64,2C1073.91,118.82,1075.81,119.5,1077.7,120.22Z"/><path class="cls-2" d="M1146.6,149.74a23,23,0,0,1-1.72,8.65,27.48,27.48,0,0,1-4.74,7.65,28.15,28.15,0,0,1-7.08,5.79,26,26,0,0,1-8.77,3.07l.75-3.44a7.09,7.09,0,0,1,2.5,2.52,11.19,11.19,0,0,1,1.21,3,19.4,19.4,0,0,1,.5,2.92c.06.93.17,1.86.18,2.79a43.11,43.11,0,0,1-1,11.09,45.41,45.41,0,0,1-3.8,10.47,44.87,44.87,0,0,1-6.32,9.2l-2.12-3.57c3.55-.72,7-2.87,10.84-4.76a24,24,0,0,1,6.3-2.14,14.4,14.4,0,0,1,6.92.25,10.33,10.33,0,0,1,3.18,1.68,27.39,27.39,0,0,1,2.37,2.24c1.4,1.44,2.78,2.57,4.32,2.1a4,4,0,0,0,2-1.57,9.26,9.26,0,0,0,1.33-2.58c.66-1.89,1.18-4.11,2.69-5.6-1.19,1.74-1.3,3.81-1.72,5.86a10.57,10.57,0,0,1-1.08,3.11,5.63,5.63,0,0,1-2.56,2.47,4.78,4.78,0,0,1-3.8,0,11.67,11.67,0,0,1-2.86-1.9,23.82,23.82,0,0,0-2.3-1.83,7.45,7.45,0,0,0-2.39-1,11.38,11.38,0,0,0-5.36.21,22.52,22.52,0,0,0-5.27,2.18c-3.5,1.85-7,4.42-11.63,5.56l-6.55,1.64,4.43-5.2a43.52,43.52,0,0,0,10.24-27.81c0-.84,0-1.68-.07-2.52a16.85,16.85,0,0,0-.29-2.33,5.23,5.23,0,0,0-1.8-3.26l-4.28-3,5-.43a22.56,22.56,0,0,0,7.77-2.16,26.15,26.15,0,0,0,6.83-4.63,27.3,27.3,0,0,0,5.22-6.6A25.81,25.81,0,0,0,1146.6,149.74Z"/><path class="cls-2" d="M1115.81,183.68c2.89,0,5.68.37,8.42.66s5.44.58,8.11.69a46,46,0,0,0,8-.31,37.09,37.09,0,0,0,8-1.94,16.58,16.58,0,0,1-7.38,4.55,25.18,25.18,0,0,1-8.7,1.1,35,35,0,0,1-8.5-1.48A41.43,41.43,0,0,1,1115.81,183.68Z"/><path class="cls-2" d="M1114.59,199.81a8.94,8.94,0,0,1-1.92,3,12.34,12.34,0,0,1-2.76,2.18,11.75,11.75,0,0,1-3.27,1.32,8.78,8.78,0,0,1-3.54.18c1-.71,1.94-1.27,2.88-1.83l2.79-1.63,2.8-1.61C1112.52,200.86,1113.48,200.31,1114.59,199.81Z"/><path class="cls-2" d="M1197.53,209.38c2,9,3.66,18,5.27,27s3.06,18,4.49,27,2.73,18.06,4,27.11,2.4,18.11,3.47,27.18l-5.89-1.1c3.12-5.68,6.36-11.28,9.55-16.92s6.51-11.21,9.76-16.81c1.64-2.8,3.34-5.56,5-8.34s3.35-5.55,5.07-8.3c3.4-5.53,6.86-11,10.46-16.43-2.59,6-5.3,11.86-8.07,17.72q-2.05,4.41-4.21,8.78c-1.42,2.91-2.81,5.84-4.27,8.73-2.92,5.78-5.75,11.61-8.77,17.35s-5.92,11.52-9,17.23l-4.55,8.49-1.35-9.59q-1.89-13.58-3.55-27.17c-1.12-9.06-2.08-18.14-3.08-27.22s-1.81-18.19-2.54-27.3S1197.89,218.55,1197.53,209.38Z"/><path class="cls-2" d="M1218.85,264.4c4-.08,8.07,0,12.09.2s8,.44,12,.76c2,.13,4,.36,6,.53s4,.38,6,.62c4,.42,8,.94,12,1.5l2.85.39-2.06,1.86-3.31,3-3.36,2.93-3.42,2.86c-1.15.94-2.31,1.87-3.5,2.78.92-1.17,1.87-2.32,2.83-3.46l2.91-3.38,3-3.32,3-3.26.79,2.25c-4-.26-8-.56-12-1q-3-.27-6-.61c-2-.24-4-.43-6-.7q-6-.75-12-1.7C1226.76,266,1222.79,265.3,1218.85,264.4Z"/><path class="cls-2" d="M610.93,21.18c18.34,13.07,36.22,26.67,54,40.43s35.28,27.77,52.7,41.91,34.65,28.5,51.82,42.93,34.18,29.05,51.07,43.82L807.93,198c-1.8-7.74-3.6-15.49-5.32-23.26s-3.49-15.52-5.16-23.29l-2.54-11.66-2.47-11.68c-1.66-7.78-3.24-15.58-4.84-23.38-3.14-15.6-6.21-31.23-9.06-46.9Q776.38,46,774.4,34.24t-3.8-23.63Q774.46,22,778,33.37t7.07,22.84c4.62,15.24,9,30.54,13.36,45.86,2.14,7.66,4.3,15.33,6.37,23L808,136.59,811,148.12c2.06,7.68,4.05,15.39,6,23.09s4,15.41,5.9,23.12l5.81,23.07L810.42,202q-25.8-21.6-51.19-43.67t-50.44-44.55q-25-22.53-49.57-45.57C642.88,52.83,626.68,37.27,610.93,21.18Z"/><path class="cls-2" d="M740.33,86.39q5.43-5.11,11.06-10c3.73-3.26,7.53-6.42,11.33-9.58,7.61-6.32,15.36-12.44,23.19-18.45s15.74-11.91,23.76-17.67S825.76,19.3,834,13.79l5.82-3.92-.65,6.73c-.35,3.62-.74,7.25-1.14,10.87l-1.32,10.86q-.72,5.41-1.52,10.84c-.56,3.62-1.12,7.23-1.81,10.83-.26-3.66-.4-7.31-.54-11s-.19-7.31-.24-10.95l0-10.94c0-3.64.06-7.29.13-10.93L837.8,19q-11.59,9.22-23.48,18t-24,17.32c-8.09,5.65-16.26,11.2-24.58,16.54-4.16,2.67-8.32,5.34-12.56,7.91S744.68,84,740.33,86.39Z"/><path class="cls-2" d="M1362.55,382.89c-6.74,21.49-14.13,42.7-21.71,63.84s-15.46,42.15-23.51,63.09S1301,551.6,1292.58,572.4s-17,41.5-25.83,62.14L1255.54,625c6.81-4.11,13.62-8.22,20.47-12.27s13.67-8.13,20.55-12.13l10.3-6,10.34-6c6.88-4,13.8-7.92,20.72-11.85q20.79-11.75,41.78-23.16,10.52-5.69,21.11-11.23t21.28-10.94q-9.58,7.19-19.33,14.11t-19.52,13.8c-13.06,9.12-26.24,18-39.46,26.92-6.63,4.41-13.24,8.84-19.9,13.19l-10,6.55-10,6.5c-6.66,4.34-13.37,8.62-20.07,12.9s-13.42,8.54-20.16,12.77l-20.13,12.68,8.92-22.22c8.36-20.82,17-41.53,25.65-62.21s17.61-41.26,26.72-61.77,18.4-40.93,28-61.24S1352.13,402.85,1362.55,382.89Z"/><path class="cls-2" d="M1340.67,526.14q6.54,3.57,12.89,7.42c4.26,2.53,8.45,5.17,12.63,7.8,8.36,5.27,16.58,10.75,24.73,16.33s16.2,11.27,24.16,17.11,15.85,11.76,23.64,17.84l5.52,4.32-6.6,1.46c-3.55.79-7.12,1.55-10.68,2.29l-10.74,2.11c-3.58.67-7.18,1.3-10.78,1.92s-7.21,1.17-10.86,1.63c3.4-1.38,6.83-2.65,10.26-3.91s6.89-2.45,10.34-3.62l10.38-3.44c3.47-1.11,7-2.21,10.43-3.27l-1.07,5.79q-12.36-8.16-24.44-16.73t-23.91-17.46c-7.88-5.94-15.69-12-23.35-18.25-3.82-3.12-7.65-6.25-11.41-9.48S1344.32,529.52,1340.67,526.14Z"/><path class="cls-2" d="M1251.66,1209.61c-22.51.26-45-.19-67.42-.84s-44.87-1.64-67.27-2.79-44.79-2.6-67.17-4.14-44.74-3.32-67.08-5.29l5.6-13.62c6,5.2,12,10.4,18,15.66s12,10.48,17.9,15.78l8.93,7.92,8.87,8c5.93,5.3,11.81,10.67,17.69,16q17.61,16.13,35,32.54,8.67,8.23,17.22,16.58t17,16.85q-9.79-6.88-19.41-14T1090.33,1284q-19.08-14.38-37.82-29.17c-6.26-4.93-12.51-9.85-18.72-14.83l-9.32-7.45-9.27-7.51c-6.2-5-12.35-10-18.5-15.08s-12.27-10.11-18.39-15.2L960,1179.53l23.89,1.59c22.38,1.49,44.74,3.25,67.1,5.1s44.68,4,67,6.26,44.62,4.8,66.9,7.59S1229.45,1205.9,1251.66,1209.61Z"/><path class="cls-2" d="M1108.69,1233.22c-.91,4.89-1.94,9.74-3.06,14.56s-2.29,9.63-3.5,14.42c-2.42,9.59-5.08,19.1-7.86,28.57s-5.7,18.9-8.78,28.28-6.26,18.72-9.63,28l-2.39,6.6-3.44-5.82q-2.77-4.71-5.48-9.46l-5.34-9.55c-1.75-3.2-3.46-6.42-5.17-9.65s-3.35-6.5-4.92-9.82c2.37,2.81,4.64,5.67,6.9,8.55s4.46,5.78,6.65,8.7l6.49,8.8c2.13,3,4.25,5.92,6.34,8.91l-5.83.77c2.61-9.52,5.41-19,8.33-28.42s6-18.8,9.18-28.14,6.54-18.64,10.11-27.86c1.79-4.61,3.57-9.22,5.48-13.79S1106.61,1237.74,1108.69,1233.22Z"/><path class="cls-2" d="M431.29,1360.48c-7.22-21.33-13.76-42.82-20.09-64.36S398.84,1253,393,1231.29s-11.42-43.39-16.9-65.14-10.71-43.56-15.76-65.41l14.68,1.1c-3.08,7.33-6.15,14.67-9.3,22s-6.25,14.63-9.45,21.92l-4.77,10.94-4.83,10.91c-3.2,7.28-6.49,14.53-9.76,21.79-6.58,14.49-13.24,29-20.1,43.33q-5.13,10.8-10.42,21.52t-10.75,21.38q3.51-11.46,7.3-22.79t7.63-22.66c5.18-15.07,10.56-30.05,16-45,2.74-7.47,5.48-15,8.29-22.39l4.2-11.17,4.26-11.15c2.82-7.44,5.71-14.85,8.6-22.26s5.82-14.8,8.76-22.2l8.79-22.1,5.89,23.21c5.52,21.74,10.78,43.54,15.95,65.37s10.1,43.71,14.83,65.64,9.26,43.91,13.51,66S427.94,1338.21,431.29,1360.48Z"/><path class="cls-2" d="M364.53,1231.87q-7.39,1-14.79,1.6c-4.94.47-9.87.81-14.8,1.15-9.86.67-19.73,1.09-29.6,1.38s-19.73.44-29.6.42-19.74-.15-29.61-.47l-7-.23,4.46-5.08q3.61-4.1,7.29-8.14l7.43-8q3.75-4,7.57-7.91c2.57-2.6,5.14-5.2,7.81-7.72-1.93,3.12-3.95,6.16-6,9.21s-4.12,6-6.21,9l-6.36,8.89c-2.16,3-4.31,5.88-6.5,8.79l-2.55-5.31q14.8-.69,29.6-.88c9.87-.16,19.74-.13,29.61,0s19.74.44,29.61,1c4.94.27,9.88.54,14.81.94S359.59,1231.29,364.53,1231.87Z"/><path class="cls-2" d="M33.54,627.3c18-13.48,36.45-26.36,55-39.06s37.21-25.13,56-37.4,37.71-24.31,56.7-36.26,38.09-23.69,57.3-35.26l3.5,14.3c-7.92-.65-15.85-1.31-23.77-2s-15.85-1.4-23.76-2.18l-11.88-1.14L190.71,487c-7.92-.79-15.83-1.66-23.74-2.52-15.82-1.77-31.64-3.61-47.43-5.68q-11.85-1.53-23.69-3.24T72.19,472q12-.21,23.93-.12t23.91.23c15.93.25,31.84.72,47.75,1.27,7.95.3,15.91.58,23.85.95l11.93.52,11.91.6c7.95.38,15.89.83,23.83,1.28s15.88.94,23.82,1.44l23.74,1.51-20.24,12.79c-19,12-38.05,23.75-57.2,35.44S171,551.06,151.61,562.36s-38.88,22.42-58.52,33.3S53.67,617.21,33.54,627.3Z"/><path class="cls-2" d="M135.12,524q-3.23-6.74-6.11-13.57c-2-4.54-3.82-9.12-5.68-13.71-3.69-9.17-7.15-18.42-10.49-27.71s-6.54-18.63-9.58-28-6-18.82-8.72-28.3l-2-6.74,6.21,2.67c3.35,1.44,6.68,2.92,10,4.41l9.94,4.57c3.3,1.55,6.59,3.15,9.87,4.75s6.54,3.27,9.76,5c-3.57-.87-7.09-1.85-10.61-2.83s-7-2.05-10.5-3.11l-10.43-3.29c-3.47-1.14-6.92-2.28-10.37-3.46l4.26-4.06q5.24,13.85,10,27.86c3.21,9.34,6.24,18.73,9.17,28.16s5.7,18.9,8.25,28.45c1.28,4.78,2.55,9.56,3.7,14.37S134.14,519.08,135.12,524Z"/></g></g></g></svg>