<svg xmlns="http://www.w3.org/2000/svg" viewBox="0 0 55.48 93.93"><defs><style>.cls-1{fill:#8567b2;}.cls-2{fill:#1e1e1e;}.cls-3{fill:#63c;}</style></defs><title>Ресурс 79</title><g id="Слой_2" data-name="Слой 2"><g id="Слой_1-2" data-name="Слой 1"><path class="cls-1" d="M49.93,60.61a74.24,74.24,0,0,0-7,14.25,4.29,4.29,0,0,0,3.82-1.12s-.34,4.29-9.55,9.68c-7.34,7.22-18,10.51-18,10.51a8.74,8.74,0,0,0,1.64-5,8.62,8.62,0,0,0-4.76-7.57C.1,72.37.1,65.28.1,65.28,3.44,68.15,7.6,69.59,2.6,56c-6.66-10.76,1.58-25,1.58-25a9.34,9.34,0,0,0,3.48,8,23.23,23.23,0,0,1,2.23-6c1.13-9.45,10.2-14.38,10.2-14.38C34.8,11.86,33.43,0,33.43,0c9.86,9.53,5,17.53,5,17.53-1.65,3.54-2,6.24-1.79,8.28a.21.21,0,0,0,.12.16h0a2.49,2.49,0,0,0,3.05-.61,16.41,16.41,0,0,1,6.31-4.49c-3.64,4.53-.27,13.13.68,15.33.05.11.09.21.13.28l.08.18a.1.1,0,0,1,0,.06,0,0,0,0,1,0,0,21.44,21.44,0,0,1,1.74,6.39c1,3.27.14,5,.14,5,2.8-.4,6.53-4.41,6.53-4.41A36.54,36.54,0,0,1,49.93,60.61Z"/><path class="cls-2" d="M43.17,59.36a50.7,50.7,0,0,0-4.28,10.1,3,3,0,0,0,2.63-.89s-.06,3-6.29,7c-4.84,5.24-12.12,7.86-12.12,7.86a6,6,0,0,0,.94-3.54,6.12,6.12,0,0,0-3.65-5.1C8.78,69.12,8.48,64.21,8.48,64.21c2.46,1.88,5.43,2.74,1.37-6.54-5.11-7.24.06-17.4.06-17.4a6.56,6.56,0,0,0,2.77,5.46,17.27,17.27,0,0,1,.8-3,15.6,15.6,0,0,0,.69-2.58c1.07-5.73,6.37-8.92,6.37-8.92,10-5.12,8.57-13.29,8.57-13.29,7.29,6.28,4.23,12,4.23,12a10.62,10.62,0,0,0-.91,5.8.15.15,0,0,0,.09.1h0a1.77,1.77,0,0,0,2.11-.52A11.21,11.21,0,0,1,38.88,32c-2.36,3.26.35,9.1,1.11,10.6l.1.19.06.13,0,0a0,0,0,0,1,0,0,14.56,14.56,0,0,1,1.48,4.37,4.93,4.93,0,0,1,.31,3.5c1.94-.37,4.39-3.27,4.39-3.27A24.89,24.89,0,0,1,43.17,59.36Z"/><path class="cls-3" d="M34,57.46A22.71,22.71,0,0,0,32.86,62a1.09,1.09,0,0,0,1-.48s.13,1.3-2.08,3.25a12.83,12.83,0,0,1-4.32,3.8A2.73,2.73,0,0,0,27.62,67a2.8,2.8,0,0,0-1.68-2.09c-4.82-2.07-5.19-4.19-5.19-4.19,1.05.73,2.25,1,.19-2.88-2.37-3-.88-7.54-.88-7.54a3.07,3.07,0,0,0,1.37,2.27,7.12,7.12,0,0,1,.15-1.33,7.36,7.36,0,0,0,.13-1.15,6.09,6.09,0,0,1,2-4.07,5.72,5.72,0,0,0,2.65-6C29.55,42.45,28.65,45,28.65,45a5.08,5.08,0,0,0,0,2.54s0,0,0,0h0a.63.63,0,0,0,.8-.29,4.36,4.36,0,0,1,1.48-1.58c-.75,1.49.61,3.93,1,4.56l.05.08,0,.05h0a7.25,7.25,0,0,1,.81,1.84,2.4,2.4,0,0,1,.29,1.5c.74-.22,1.55-1.56,1.55-1.56A11.61,11.61,0,0,1,34,57.46Z"/></g></g></svg>