<svg xmlns="http://www.w3.org/2000/svg" xmlns:xlink="http://www.w3.org/1999/xlink" viewBox="0 0 1399.36 1400.55"><defs><style>.cls-1,.cls-5,.cls-6{fill:none;}.cls-2{clip-path:url(#clip-path);}.cls-3{opacity:0.25;}.cls-4{fill:#303030;}.cls-5,.cls-6{stroke:#303030;stroke-miterlimit:10;}.cls-5{stroke-width:22.42px;}.cls-6{stroke-width:12.16px;}</style><clipPath id="clip-path" transform="translate(0 -18.78)"><rect class="cls-1" x="432.6" width="532" height="1440" rx="42.59"/></clipPath></defs><title>Ресурс 43</title><g id="Слой_2" data-name="Слой 2"><g id="Слой_1-2" data-name="Слой 1"><g class="cls-2"><g class="cls-3"><path class="cls-4" d="M1175.6,1037.77a63.75,63.75,0,0,0-1.36,10.06l-.13,5c0,1.68,0,3.34.16,5a23.75,23.75,0,0,0,2.2,9,12.42,12.42,0,0,0,6,5.93,13,13,0,0,0,6.21,1.24c.35,0,.71,0,1-.13l.52-.08.68-.13a7.94,7.94,0,0,1,1.76-.16,4.3,4.3,0,0,1,2.48.79,3.88,3.88,0,0,1,1.53,2.41,5.88,5.88,0,0,1,0,2l-.21,1.24a2.5,2.5,0,0,0,0,.69,2.94,2.94,0,0,0,.57,1.41,6.4,6.4,0,0,0,1.42,1.36c.29.21.61.42.95.63l1.11.66a3.37,3.37,0,0,1,.85.65,2.85,2.85,0,0,1,.69,1.16,7.85,7.85,0,0,1,.21,1.53c.07.89.11,1.78.1,2.67a27.61,27.61,0,0,1-2,10.23,38.74,38.74,0,0,0-.35-10.06c-.13-.81-.29-1.61-.48-2.41a6.25,6.25,0,0,0-.27-1c-.05,0,0,.08,0,.09s-.07,0-.2-.06a12.64,12.64,0,0,1-4.94-3,7.05,7.05,0,0,1-1.66-3.12,6.7,6.7,0,0,1-.11-1.86l.12-1.3a1.25,1.25,0,0,0,0-.56s.06.23.18.31.23.1.07.11a6,6,0,0,0-.78.14l-.57.15-.74.15c-.49.11-1,.15-1.48.22a17.44,17.44,0,0,1-3,0,17.19,17.19,0,0,1-5.71-1.55,16.53,16.53,0,0,1-4.83-3.48,17.3,17.3,0,0,1-3.22-4.91,24.8,24.8,0,0,1-1.84-10.89,47.17,47.17,0,0,1,.49-5.25l1-5.15A37.67,37.67,0,0,1,1175.6,1037.77Z" transform="translate(0 -18.78)"/><path class="cls-4" d="M1210.8,1055c.31,3.1.44,6.18,1.33,8.86a10.55,10.55,0,0,0,1.95,3.53c.44.5,1,1,1.51,1.62a14.78,14.78,0,0,1,1.55,2,15.77,15.77,0,0,1,2.22,9.54,21.73,21.73,0,0,1-2.77,9,49.45,49.45,0,0,0,.48-9,17.51,17.51,0,0,0-2.42-8,12.44,12.44,0,0,0-1.22-1.64c-.46-.56-1-1.13-1.52-1.83a11.23,11.23,0,0,1-2-4.69A20.34,20.34,0,0,1,1210.8,1055Z" transform="translate(0 -18.78)"/><path class="cls-4" d="M1211,1128.9q.45-2.85,1.11-5.65t1.41-5.58c.51-1.84,1.07-3.68,1.66-5.5a31.58,31.58,0,0,1,2.33-5.65,16.21,16.21,0,0,1,1.94-2.78,17.33,17.33,0,0,1,2.47-2.33c1.71-1.34,3.32-2.32,4.7-3.35a50.88,50.88,0,0,0,4-3.33,38.12,38.12,0,0,0,3.51-3.7,24.32,24.32,0,0,0,4.66-8.45,17.43,17.43,0,0,0,.15-9.07,13.33,13.33,0,0,0-4.57-7.44,13,13,0,0,0-1.94-1.24,17.46,17.46,0,0,1-2.92-1.74,9.48,9.48,0,0,1-3.65-6.79l3.09,2.08a6.69,6.69,0,0,0-3.31,1.6,43,43,0,0,0-3.41,3.29,17.3,17.3,0,0,1-4.14,3.25,6.83,6.83,0,0,1-5.07.81,6.85,6.85,0,0,0,4.13-2.11,19.11,19.11,0,0,0,2.76-3.75,34.12,34.12,0,0,1,2.85-4.32,10.75,10.75,0,0,1,4.94-3.58l2.31-.74.78,2.82a4.33,4.33,0,0,0,2.08,2.64,20.74,20.74,0,0,0,2.1.87,18.67,18.67,0,0,1,3,1.46,18,18,0,0,1,5.09,4.73,21.58,21.58,0,0,1,3,6.1,23.44,23.44,0,0,1,.14,13.33A28.88,28.88,0,0,1,1240,1096a35.93,35.93,0,0,1-4.53,4.29,43.74,43.74,0,0,1-5,3.49c-1.76,1.08-3.49,1.88-4.88,2.73a11.74,11.74,0,0,0-3.44,3,31.88,31.88,0,0,0-2.79,4.46l-2.73,5-2.75,5Q1212.45,1126.4,1211,1128.9Z" transform="translate(0 -18.78)"/><path class="cls-5" d="M1380.36,833.44a686.63,686.63,0,0,1-226.13,404.4,188.38,188.38,0,0,0-15.09-60.79C1097.77,1082,987.05,1038.4,892,1079.76s-138.64,152.08-97.19,247.15a186.56,186.56,0,0,0,48.44,66.34,691.29,691.29,0,0,1-495.65-82.39,186.53,186.53,0,0,0,53.17-33.2c77.58-68.84,84.7-187.48,15.86-265.06s-187.57-84.72-265.15-15.88a186.1,186.1,0,0,0-47.93,66.51A686.61,686.61,0,0,1,20.94,603.91c2.12-12.56,4.58-24.87,7.39-37.12a187,187,0,0,0,47.94,40.14c89.45,52.36,204.51,22.36,256.88-67.18s22.36-204.51-67.08-256.95a187,187,0,0,0-78.18-25C303.13,129.91,464.36,47.14,640.29,31.88A185.47,185.47,0,0,0,616.64,90C594,191.1,657.76,291.52,758.92,314.17s201.66-41.11,224.23-142.36a186.7,186.7,0,0,0,0-82.13c160,71.8,284.53,201.52,351.73,358.72a186.87,186.87,0,0,0-62.59-4.53c-103.22,9.89-178.91,101.62-169,204.83s101.62,178.9,204.83,169A187.24,187.24,0,0,0,1386,792.4C1384.62,806,1382.67,819.71,1380.36,833.44Z" transform="translate(0 -18.78)"/><path class="cls-4" d="M1301.13,974.74A10.11,10.11,0,0,0,1303,971a24,24,0,0,0,.78-4.07c.33-2.68-.09-5.45-1.74-6.71a16.79,16.79,0,0,0-1.59-1.07,4,4,0,0,0-1.33-.61.5.5,0,0,0-.25,0,2.88,2.88,0,0,0-.41.25,13.3,13.3,0,0,0-1.34,1.19,21.27,21.27,0,0,0-3.92,6.68c-.54,1.27-1,2.6-1.59,3.94s-1.17,2.72-1.84,4a45.91,45.91,0,0,1-4.77,7.44,40.77,40.77,0,0,1-6.09,6.38,11.85,11.85,0,0,1-4,2.14,6.79,6.79,0,0,1-4.39-.1,7.14,7.14,0,0,0,4-.91,11.33,11.33,0,0,0,3.1-2.55,36.06,36.06,0,0,0,2.56-3.26c.8-1.14,1.6-2.28,2.33-3.46a67.64,67.64,0,0,0,3.92-7.31c1.16-2.49,2-5.1,3.16-7.84a22.38,22.38,0,0,1,4.94-7.83,15.74,15.74,0,0,1,2-1.54,5,5,0,0,1,1.52-.67,3.93,3.93,0,0,1,1.87,0,6.92,6.92,0,0,1,2.48,1.29,17.94,17.94,0,0,1,1.8,1.53,7.42,7.42,0,0,1,2.09,4.71,13.74,13.74,0,0,1-.53,4.62,21.84,21.84,0,0,1-1.68,4.12A8.86,8.86,0,0,1,1301.13,974.74Z" transform="translate(0 -18.78)"/><path class="cls-4" d="M1290.72,965.84a14.2,14.2,0,0,0,1.38-5.45,8.94,8.94,0,0,0-1.23-5.1,6.24,6.24,0,0,0-3.6-3,2.13,2.13,0,0,0-1.69.39,4.06,4.06,0,0,0-1.31,1.63,13.66,13.66,0,0,0-.82,2.44c-.26.93-.56,1.9-.88,2.83a49.84,49.84,0,0,1-2.22,5.53,53.15,53.15,0,0,1-6.31,10.11,51,51,0,0,1-4,4.42,41.89,41.89,0,0,1-4.53,4,28.42,28.42,0,0,1-5.29,3.12,20,20,0,0,1-3,1,19.3,19.3,0,0,1-3.1.52,38.18,38.18,0,0,1-6-.12,15.88,15.88,0,0,1-6-1.42,25,25,0,0,1-4.73-3.62l-2.15-1.93-1.07-1a2.32,2.32,0,0,1-.51-.56c-.06-.12-.08-.34.12-.38a.23.23,0,0,1,.18.08s0,.15,0,.15c.13-.08-.09-.19-.15-.15s-.06.15,0,.22a2,2,0,0,0,.56.39l1.23.75,2.46,1.54A27.25,27.25,0,0,0,1243,985a14.11,14.11,0,0,0,5.29.6,41.18,41.18,0,0,0,5.54-.35,20.39,20.39,0,0,0,9.44-4.59,49.82,49.82,0,0,0,7.75-7.88,52.43,52.43,0,0,0,6-9.3,46.26,46.26,0,0,0,2.32-5.06c.35-.87.65-1.72,1-2.63a16.8,16.8,0,0,1,1.27-2.92,7,7,0,0,1,2.52-2.59,5.06,5.06,0,0,1,1.87-.64,4.81,4.81,0,0,1,2,.19,6.7,6.7,0,0,1,2.88,1.93,9.69,9.69,0,0,1,1.76,2.69,10.14,10.14,0,0,1,.6,6.1A12.81,12.81,0,0,1,1290.72,965.84Z" transform="translate(0 -18.78)"/><path class="cls-4" d="M1234.39,932.62a50.88,50.88,0,0,1,10.25,5.38c1.63,1,3.18,2.21,4.77,3.33s3.06,2.37,4.54,3.62,3,2.5,4.37,3.82l4.2,4c2.68,2.79,5.37,5.58,7.87,8.52,1.23,1.49,2.53,2.93,3.71,4.45l3.56,4.57c1.19,1.52,2.28,3.11,3.39,4.68s2.22,3.16,3.29,4.76c2.11,3.22,4.1,6.52,6.09,9.81s3.7,6.76,5.39,10.22c-2.44-3-4.71-6.08-7-9.15l-3.51-4.54-3.46-4.55c-2.44-2.94-4.65-6-7.12-8.94l-3.61-4.42c-1.18-1.48-2.48-2.87-3.71-4.32-4.92-5.78-10.08-11.35-15.5-16.65-1.35-1.34-2.78-2.58-4.14-3.91s-2.81-2.55-4.27-3.77A81.16,81.16,0,0,0,1234.39,932.62Z" transform="translate(0 -18.78)"/><path class="cls-4" d="M1245.2,963.32a10.48,10.48,0,0,1-3.87-1.37,14.17,14.17,0,0,1-3.19-2.53,13.91,13.91,0,0,1-2.36-3.32,10.27,10.27,0,0,1-1.15-3.94c1.07.92,1.95,1.85,2.84,2.75l2.57,2.71,2.56,2.72C1243.46,961.27,1244.34,962.2,1245.2,963.32Z" transform="translate(0 -18.78)"/><path class="cls-4" d="M701.27,1385.14a22,22,0,0,1-3.47-7.63,25.9,25.9,0,0,1-.59-8.52,26.92,26.92,0,0,1,2.25-8.39,25.08,25.08,0,0,1,5.07-7.23l1.33,3.07a6.75,6.75,0,0,1-3.33-.56,10.37,10.37,0,0,1-2.59-1.63,18.65,18.65,0,0,1-2-2c-.56-.69-1.16-1.34-1.69-2a40.74,40.74,0,0,1-5.34-9.13,43.29,43.29,0,0,1-2.88-10.19,42.18,42.18,0,0,1-.22-10.59l3.61,1.57c-2.34,2.53-3.81,6.1-5.72,9.68a22.68,22.68,0,0,1-3.67,5.15,13.75,13.75,0,0,1-5.48,3.64,9.67,9.67,0,0,1-3.38.47,23.74,23.74,0,0,1-3.07-.42c-1.88-.33-3.57-.43-4.49.78a3.84,3.84,0,0,0-.68,2.32,9,9,0,0,0,.42,2.72c.53,1.83,1.36,3.83,1,5.82,0-2-1.11-3.67-1.92-5.48a10.08,10.08,0,0,1-.89-3,5.26,5.26,0,0,1,.61-3.33,4.53,4.53,0,0,1,3-2.07,11,11,0,0,1,3.26-.11,25.46,25.46,0,0,0,2.79.13,7.21,7.21,0,0,0,2.38-.57,11,11,0,0,0,4-3.13,21.28,21.28,0,0,0,2.86-4.61c1.67-3.37,3-7.32,5.89-10.74l4.14-4.89-.53,6.47a41.09,41.09,0,0,0,.34,9.53,42.15,42.15,0,0,0,2.57,9.21,41,41,0,0,0,4.61,8.38c.45.66,1,1.27,1.44,1.91a16,16,0,0,0,1.53,1.63,4.88,4.88,0,0,0,3.19,1.51l5-.05-3.63,3.13a21.33,21.33,0,0,0-4.8,6,24.92,24.92,0,0,0-2.7,7.36,26,26,0,0,0-.37,8A24.45,24.45,0,0,0,701.27,1385.14Z" transform="translate(0 -18.78)"/><path class="cls-4" d="M706.19,1341.9c-2.23,1.59-4.58,2.85-6.85,4.16s-4.52,2.56-6.64,4a44.68,44.68,0,0,0-6,4.65,35.39,35.39,0,0,0-5.07,5.92,15.64,15.64,0,0,1,3.17-7.6,24,24,0,0,1,6.09-5.67,33.48,33.48,0,0,1,7.38-3.57A39.36,39.36,0,0,1,706.19,1341.9Z" transform="translate(0 -18.78)"/><path class="cls-4" d="M698.2,1328.78a8.48,8.48,0,0,1-.17-3.36,11.57,11.57,0,0,1,.92-3.21,11.77,11.77,0,0,1,1.79-2.83,8.45,8.45,0,0,1,2.63-2.1c-.36,1.1-.8,2.06-1.21,3l-1.25,2.8-1.26,2.79C699.2,1326.82,698.78,1327.78,698.2,1328.78Z" transform="translate(0 -18.78)"/><path class="cls-4" d="M443.32,1318.63a10.13,10.13,0,0,0,3.75,1.85,23,23,0,0,0,4.07.79c2.67.34,5.45-.08,6.71-1.73a16.79,16.79,0,0,0,1.07-1.59,3.63,3.63,0,0,0,.61-1.33.34.34,0,0,0,0-.25,1.91,1.91,0,0,0-.24-.4,12.37,12.37,0,0,0-1.19-1.35,21.32,21.32,0,0,0-6.67-3.93c-1.27-.54-2.6-1-3.94-1.6s-2.71-1.17-4-1.85a46.48,46.48,0,0,1-7.42-4.78,40.84,40.84,0,0,1-6.37-6.11,12,12,0,0,1-2.14-4,6.79,6.79,0,0,1,.12-4.39,7.13,7.13,0,0,0,.9,4,11.15,11.15,0,0,0,2.54,3.1,34.8,34.8,0,0,0,3.26,2.57c1.14.81,2.27,1.61,3.46,2.34a66.6,66.6,0,0,0,7.29,3.94c2.49,1.16,5.1,2,7.84,3.17a22.37,22.37,0,0,1,7.82,5,16.56,16.56,0,0,1,1.53,2,4.78,4.78,0,0,1,.67,1.52,3.93,3.93,0,0,1,0,1.87,7,7,0,0,1-1.29,2.47,19.61,19.61,0,0,1-1.54,1.81,7.36,7.36,0,0,1-4.71,2.07,13.52,13.52,0,0,1-4.63-.54,21.72,21.72,0,0,1-4.12-1.68A8.93,8.93,0,0,1,443.32,1318.63Z" transform="translate(0 -18.78)"/><path class="cls-4" d="M452.24,1308.24a14.26,14.26,0,0,0,5.45,1.39,9,9,0,0,0,5.11-1.22,6.19,6.19,0,0,0,3-3.59,2.16,2.16,0,0,0-.38-1.69,4.15,4.15,0,0,0-1.63-1.32,14.48,14.48,0,0,0-2.44-.83c-.93-.25-1.9-.56-2.83-.87a50.31,50.31,0,0,1-20-12.6,45,45,0,0,1-3.93-4.53,28.23,28.23,0,0,1-3.11-5.3,19.24,19.24,0,0,1-1-3,18.34,18.34,0,0,1-.51-3.11,35.87,35.87,0,0,1,.13-6,15.79,15.79,0,0,1,1.42-6,25.1,25.1,0,0,1,3.64-4.73l1.93-2.15,1-1.06a2.27,2.27,0,0,1,.55-.51c.12-.06.34-.08.39.12a.23.23,0,0,1-.09.18c0,.06-.15.06-.15,0,.08.13.19-.09.16-.15s-.16,0-.23,0a2.5,2.5,0,0,0-.39.56l-.75,1.23-1.54,2.45a26.13,26.13,0,0,0-2.74,4.85,14.11,14.11,0,0,0-.62,5.29,41.18,41.18,0,0,0,.35,5.54,20.28,20.28,0,0,0,4.56,9.45,49.74,49.74,0,0,0,7.86,7.76,53.07,53.07,0,0,0,9.29,6.08,48.29,48.29,0,0,0,5.06,2.33c.87.34,1.72.64,2.63,1a17.14,17.14,0,0,1,2.91,1.28,6.92,6.92,0,0,1,2.58,2.52,5,5,0,0,1,.64,1.87,4.47,4.47,0,0,1-.19,2,6.79,6.79,0,0,1-1.93,2.88,9.85,9.85,0,0,1-2.7,1.75,10.06,10.06,0,0,1-6.1.59A13,13,0,0,1,452.24,1308.24Z" transform="translate(0 -18.78)"/><path class="cls-4" d="M485.58,1252a51.4,51.4,0,0,1-5.4,10.24c-1.06,1.63-2.21,3.18-3.34,4.76s-2.38,3.06-3.63,4.54-2.51,3-3.83,4.36l-4,4.19c-2.79,2.67-5.59,5.35-8.54,7.85-1.48,1.23-2.93,2.52-4.46,3.7l-4.57,3.55c-1.52,1.19-3.11,2.28-4.69,3.39s-3.16,2.2-4.76,3.27c-3.23,2.1-6.53,4.09-9.83,6.07s-6.76,3.68-10.22,5.37c3-2.43,6.08-4.7,9.16-7l4.54-3.5,4.57-3.45c2.93-2.44,6-4.64,8.94-7.11l4.43-3.59c1.49-1.18,2.88-2.48,4.33-3.71,5.79-4.9,11.38-10,16.68-15.47,1.35-1.34,2.59-2.77,3.93-4.12s2.55-2.81,3.77-4.27A81.1,81.1,0,0,0,485.58,1252Z" transform="translate(0 -18.78)"/><path class="cls-4" d="M454.86,1262.73a10.41,10.41,0,0,1,1.37-3.87,14.5,14.5,0,0,1,2.54-3.19,14.13,14.13,0,0,1,3.33-2.35,10.26,10.26,0,0,1,3.94-1.14c-.92,1.07-1.85,1.94-2.76,2.83l-2.71,2.57-2.72,2.55C456.91,1261,456,1261.87,454.86,1262.73Z" transform="translate(0 -18.78)"/><path class="cls-4" d="M628.92,1367.38c-6.49-5.8-12.77-11.81-19-17.86s-12.35-12.19-18.46-18.36-12.12-12.42-18.08-18.72-11.89-12.63-17.75-19l5.16-2.43c.74,6.11,1.35,12.23,2,18.35s1.19,12.25,1.79,18.37c.29,3.07.52,6.14.77,9.21s.5,6.13.7,9.21c.44,6.14.81,12.3,1,18.47-1.31-6-2.49-12.09-3.6-18.15-.57-3-1.11-6.06-1.62-9.09s-1.07-6.07-1.55-9.1c-1-6.08-2-12.15-2.86-18.24s-1.81-12.17-2.62-18.27l-1.2-9.07,6.35,6.65c6,6.27,11.91,12.61,17.81,19s11.66,12.84,17.47,19.29,11.48,13,17.09,19.64S623.57,1360.52,628.92,1367.38Z" transform="translate(0 -18.78)"/><path class="cls-4" d="M582,1336.77c-3.08,2.31-6.24,4.46-9.44,6.56s-6.44,4.11-9.7,6.09c-1.63,1-3.29,1.94-4.93,2.91s-3.3,1.93-5,2.85c-3.31,1.89-6.67,3.7-10.05,5.48l-2.43,1.28.57-2.58.9-4.13,1-4.11L544,1347c.36-1.36.75-2.72,1.16-4.08-.06,1.42-.15,2.83-.26,4.24l-.38,4.22-.45,4.2-.52,4.19-1.86-1.29c3.24-2,6.5-4,9.8-5.92q2.46-1.47,5-2.86c1.67-.92,3.31-1.89,5-2.78,3.35-1.82,6.73-3.6,10.15-5.31S578.44,1338.27,582,1336.77Z" transform="translate(0 -18.78)"/><path class="cls-4" d="M138.81,827.13a64.27,64.27,0,0,0-6.12-8.09l-3.45-3.65c-1.2-1.19-2.38-2.35-3.61-3.41a23.81,23.81,0,0,0-7.91-4.83,12.49,12.49,0,0,0-8.4,0,12.71,12.71,0,0,0-3.72,2.07,11.75,11.75,0,0,0-1.55,1.44,10.44,10.44,0,0,0-.66.83l-.31.42-.39.57a8.24,8.24,0,0,1-1.13,1.36A4.4,4.4,0,0,1,99.24,815a3.93,3.93,0,0,1-2.79-.64,6,6,0,0,1-1.39-1.4l-.73-1a3.22,3.22,0,0,0-.45-.52,3,3,0,0,0-1.41-.59,6.19,6.19,0,0,0-2,0c-.36.06-.73.13-1.12.23l-1.25.32a4.24,4.24,0,0,1-1.06.13,2.8,2.8,0,0,1-1.31-.34,7.51,7.51,0,0,1-1.23-.94c-.67-.58-1.33-1.18-2-1.82a27.89,27.89,0,0,1-5.77-8.69,39.35,39.35,0,0,0,7.34,6.88q1,.72,2,1.38a6.53,6.53,0,0,0,.88.49c.06,0-.06,0-.07-.06s.06,0,.19-.1A12.56,12.56,0,0,1,92.83,807a7,7,0,0,1,3.38,1,6.55,6.55,0,0,1,1.39,1.24l.83,1a1.46,1.46,0,0,0,.42.38s-.21-.12-.35-.09-.23.09-.12,0a7.71,7.71,0,0,0,.45-.65l.3-.51.41-.62c.27-.43.6-.81.9-1.21a17.52,17.52,0,0,1,2.11-2.11,17.23,17.23,0,0,1,5.14-2.92,16.51,16.51,0,0,1,5.88-.94,17.22,17.22,0,0,1,5.75,1.22,24.94,24.94,0,0,1,9,6.42,47.38,47.38,0,0,1,3.35,4.08l3,4.31A37.84,37.84,0,0,1,138.81,827.13Z" transform="translate(0 -18.78)"/><path class="cls-4" d="M101.69,839.73c-2.4-2-4.66-4.07-7.18-5.35a10.65,10.65,0,0,0-3.87-1.13c-.67,0-1.41-.06-2.21-.08a13.63,13.63,0,0,1-2.51-.34,15.69,15.69,0,0,1-8.3-5.2,21.72,21.72,0,0,1-4.38-8.33,49,49,0,0,0,6,6.72,17.43,17.43,0,0,0,7.34,4,12.11,12.11,0,0,0,2,.3c.72.07,1.51.09,2.36.22a11.13,11.13,0,0,1,4.71,1.93A20.29,20.29,0,0,1,101.69,839.73Z" transform="translate(0 -18.78)"/><path class="cls-4" d="M49.46,787.45c1.12,1.57,2.19,3.17,3.19,4.8s2,3.27,2.94,4.94,1.83,3.37,2.69,5.08a31.62,31.62,0,0,1,2.34,5.65,16.88,16.88,0,0,1,.58,3.34,18,18,0,0,1-.11,3.39c-.27,2.15-.72,4-1,5.7a48.66,48.66,0,0,0-.53,5.21,39.27,39.27,0,0,0,.12,5.1,24.18,24.18,0,0,0,2.65,9.27,17.38,17.38,0,0,0,6.29,6.54,13.26,13.26,0,0,0,8.49,2.06,12.17,12.17,0,0,0,2.24-.49,18.41,18.41,0,0,1,3.3-.82,9.46,9.46,0,0,1,7.38,2.25l-3.66.69a6.58,6.58,0,0,0,1.22-3.46,42.84,42.84,0,0,0,.1-4.74,17.3,17.3,0,0,1,.65-5.23,6.75,6.75,0,0,1,3-4.14A6.82,6.82,0,0,0,90,837a18.69,18.69,0,0,0,.68,4.61,33.28,33.28,0,0,1,1,5.08,10.7,10.7,0,0,1-1,6l-1.12,2.15L87,853.4a4.31,4.31,0,0,0-3.34-.41,21.07,21.07,0,0,0-2.1.87,19.3,19.3,0,0,1-3.2,1.11,17.85,17.85,0,0,1-6.94.23A21.7,21.7,0,0,1,65,853a23.51,23.51,0,0,1-9.5-9.36,29,29,0,0,1-3.37-12.44,37,37,0,0,1,.2-6.24,43,43,0,0,1,1.1-6c.49-2,1.14-3.8,1.53-5.38a11.65,11.65,0,0,0,.33-4.55,32.08,32.08,0,0,0-1.16-5.13l-1.57-5.44L51,793C50.47,791.15,50,789.31,49.46,787.45Z" transform="translate(0 -18.78)"/><path class="cls-4" d="M94.2,960.33a10.17,10.17,0,0,0,1.34,4,23,23,0,0,0,2.32,3.44c1.65,2.12,3.9,3.8,6,3.52a14.58,14.58,0,0,0,1.88-.36,3.94,3.94,0,0,0,1.38-.5.42.42,0,0,0,.15-.2,2.75,2.75,0,0,0,.11-.46,11.62,11.62,0,0,0,.12-1.79,21.23,21.23,0,0,0-1.93-7.51c-.52-1.28-1.09-2.57-1.65-3.91s-1.09-2.75-1.53-4.15a46.53,46.53,0,0,1-1.86-8.64,40.49,40.49,0,0,1-.17-8.81,11.94,11.94,0,0,1,1.32-4.35,6.92,6.92,0,0,1,3.19-3,7.29,7.29,0,0,0-2.19,3.46,11.65,11.65,0,0,0-.4,4,34.75,34.75,0,0,0,.49,4.12c.23,1.38.47,2.75.78,4.1a66.79,66.79,0,0,0,2.37,7.95c.93,2.58,2.16,5.05,3.29,7.78a22.44,22.44,0,0,1,2,9,16.32,16.32,0,0,1-.3,2.47,5.26,5.26,0,0,1-.6,1.55,4.17,4.17,0,0,1-1.34,1.31,7,7,0,0,1-2.66.83,18.51,18.51,0,0,1-2.37.19,7.44,7.44,0,0,1-4.79-1.87,13.65,13.65,0,0,1-2.89-3.66,22.25,22.25,0,0,1-1.72-4.1A9,9,0,0,1,94.2,960.33Z" transform="translate(0 -18.78)"/><path class="cls-4" d="M107.86,959.3a14.24,14.24,0,0,0,2.86,4.84,9,9,0,0,0,4.47,2.75,6.21,6.21,0,0,0,4.67-.4,2.15,2.15,0,0,0,.93-1.47,4,4,0,0,0-.22-2.08,14.89,14.89,0,0,0-1.14-2.31c-.47-.83-.94-1.74-1.37-2.62a54.11,54.11,0,0,1-2.33-5.49,53.19,53.19,0,0,1-2.64-11.62,51.75,51.75,0,0,1-.27-6,43.32,43.32,0,0,1,.43-6,28.08,28.08,0,0,1,1.56-6,20.8,20.8,0,0,1,1.35-2.82,18.66,18.66,0,0,1,1.84-2.56,37.09,37.09,0,0,1,4.32-4.13,15.87,15.87,0,0,1,5.25-3.22,25.22,25.22,0,0,1,5.91-.76l2.89-.15,1.44-.06a2.49,2.49,0,0,1,.76,0c.12,0,.3.18.19.35a.25.25,0,0,1-.19.07c-.07,0-.15-.07-.09-.12,0,.15.19.07.21,0s-.07-.15-.16-.15a2.43,2.43,0,0,0-.67.12l-1.41.34-2.82.64a26.51,26.51,0,0,0-5.37,1.49,14.07,14.07,0,0,0-4.18,3.3,41,41,0,0,0-3.67,4.15,20.34,20.34,0,0,0-3.47,9.91,49.81,49.81,0,0,0,.06,11.05,52.44,52.44,0,0,0,2.26,10.86,48.71,48.71,0,0,0,1.92,5.22c.37.87.76,1.68,1.17,2.56a17.23,17.23,0,0,1,1.16,3,7,7,0,0,1,0,3.61,4.8,4.8,0,0,1-.87,1.77,4.59,4.59,0,0,1-1.53,1.26,6.83,6.83,0,0,1-3.41.67,9.82,9.82,0,0,1-7.86-4.58A12.83,12.83,0,0,1,107.86,959.3Z" transform="translate(0 -18.78)"/><path class="cls-4" d="M171.24,943.16a51.32,51.32,0,0,1-11.08,3.41c-1.89.4-3.81.68-5.72,1s-3.85.47-5.77.64-3.87.31-5.8.36l-5.81.12c-3.86-.09-7.73-.18-11.58-.5-1.92-.18-3.86-.29-5.77-.54l-5.74-.73c-1.92-.24-3.81-.59-5.71-.93s-3.8-.68-5.69-1c-3.77-.81-7.5-1.74-11.23-2.67-3.7-1.1-7.39-2.19-11-3.45,3.84.41,7.63,1,11.41,1.55l5.69.75,5.67.79c3.8.36,7.56,1,11.35,1.31l5.67.6c1.89.22,3.79.29,5.68.45,7.57.63,15.15,1,22.74.88,1.89,0,3.78-.12,5.69-.14s3.79-.17,5.68-.34A81.14,81.14,0,0,0,171.24,943.16Z" transform="translate(0 -18.78)"/><path class="cls-4" d="M141.93,929a10.34,10.34,0,0,1,3.7-1.76,14.2,14.2,0,0,1,4.05-.46,14.36,14.36,0,0,1,4,.69,10.43,10.43,0,0,1,3.6,2c-1.41.11-2.69.07-4,0l-3.73-.1-3.73-.12C144.6,929.23,143.32,929.19,141.93,929Z" transform="translate(0 -18.78)"/><path class="cls-4" d="M34.17,717.92a21.83,21.83,0,0,1,7.63-3.45,25.7,25.7,0,0,1,8.53-.57,26.81,26.81,0,0,1,8.38,2.26,24.65,24.65,0,0,1,7.22,5.09l-3.07,1.32a6.75,6.75,0,0,1,.57-3.33,10.31,10.31,0,0,1,1.63-2.58,17.84,17.84,0,0,1,2-2c.68-.56,1.34-1.16,2-1.68a40.61,40.61,0,0,1,9.14-5.33,43.49,43.49,0,0,1,10.19-2.85,42.26,42.26,0,0,1,10.6-.21l-1.58,3.61c-2.53-2.34-6.09-3.82-9.67-5.74a23,23,0,0,1-5.14-3.68A13.62,13.62,0,0,1,79,693.3a10,10,0,0,1-.47-3.39,26.11,26.11,0,0,1,.43-3.07c.34-1.88.44-3.56-.77-4.49a3.74,3.74,0,0,0-2.31-.68,8.7,8.7,0,0,0-2.73.41c-1.83.53-3.83,1.35-5.82,1,2,0,3.67-1.1,5.49-1.91a10.08,10.08,0,0,1,3-.89,5.34,5.34,0,0,1,3.33.62,4.54,4.54,0,0,1,2.06,3,11,11,0,0,1,.11,3.26,23.24,23.24,0,0,0-.14,2.79,7,7,0,0,0,.57,2.38,10.84,10.84,0,0,0,3.12,4,21.39,21.39,0,0,0,4.6,2.87c3.36,1.68,7.31,3,10.73,5.9l4.87,4.15-6.46-.54a41.08,41.08,0,0,0-9.53.33,42,42,0,0,0-9.21,2.55,41.13,41.13,0,0,0-8.39,4.58c-.66.45-1.27,1-1.92,1.45a15.89,15.89,0,0,0-1.63,1.52,4.85,4.85,0,0,0-1.52,3.19l0,5-3.12-3.64a21.46,21.46,0,0,0-6-4.81A25.24,25.24,0,0,0,50,716.12a25.93,25.93,0,0,0-8-.38A24.4,24.4,0,0,0,34.17,717.92Z" transform="translate(0 -18.78)"/><path class="cls-4" d="M77.4,722.93a78.11,78.11,0,0,1-4.14-6.86c-1.29-2.29-2.56-4.52-4-6.65a44.7,44.7,0,0,0-4.64-6,35.36,35.36,0,0,0-5.91-5.08,15.77,15.77,0,0,1,7.59,3.18A24,24,0,0,1,72,707.65,33.51,33.51,0,0,1,75.57,715,39.32,39.32,0,0,1,77.4,722.93Z" transform="translate(0 -18.78)"/><path class="cls-4" d="M90.53,715a8.67,8.67,0,0,1,3.36-.16,11.8,11.8,0,0,1,6,2.72,8.49,8.49,0,0,1,2.1,2.64c-1.1-.36-2.06-.8-3-1.21l-2.79-1.26-2.79-1.27C92.49,716,91.53,715.55,90.53,715Z" transform="translate(0 -18.78)"/><path class="cls-4" d="M460.24,111.74a10,10,0,0,0-4,1.33,23.7,23.7,0,0,0-3.44,2.3c-2.14,1.65-3.81,3.9-3.54,6a14.26,14.26,0,0,0,.36,1.88,3.78,3.78,0,0,0,.5,1.38.36.36,0,0,0,.19.15,2.6,2.6,0,0,0,.47.12,12.77,12.77,0,0,0,1.78.12,21.37,21.37,0,0,0,7.51-1.92c1.29-.51,2.58-1.08,3.92-1.64s2.75-1.08,4.16-1.52a45.76,45.76,0,0,1,8.63-1.84,40.59,40.59,0,0,1,8.82-.16,12.17,12.17,0,0,1,4.35,1.34,6.8,6.8,0,0,1,3,3.2,7.16,7.16,0,0,0-3.45-2.2,11.41,11.41,0,0,0-4-.41,34.7,34.7,0,0,0-4.12.48c-1.38.23-2.75.46-4.1.77a66.71,66.71,0,0,0-7.95,2.35c-2.59.93-5.06,2.15-7.8,3.28a22.52,22.52,0,0,1-9,2,16.51,16.51,0,0,1-2.47-.31,5.32,5.32,0,0,1-1.54-.6,4.1,4.1,0,0,1-1.31-1.35,7,7,0,0,1-.83-2.66,20.46,20.46,0,0,1-.18-2.36,7.42,7.42,0,0,1,1.88-4.79,13.56,13.56,0,0,1,3.66-2.88,21,21,0,0,1,4.11-1.71A8.8,8.8,0,0,1,460.24,111.74Z" transform="translate(0 -18.78)"/><path class="cls-4" d="M461.24,125.4a14,14,0,0,0-4.85,2.85,8.93,8.93,0,0,0-2.75,4.46,6.16,6.16,0,0,0,.38,4.67,2.22,2.22,0,0,0,1.47.94,4.22,4.22,0,0,0,2.08-.22,14.54,14.54,0,0,0,2.32-1.14c.83-.47,1.74-.93,2.62-1.36a52,52,0,0,1,5.5-2.32,53.15,53.15,0,0,1,11.62-2.62,49.68,49.68,0,0,1,6-.25,41.73,41.73,0,0,1,6,.44,27.86,27.86,0,0,1,5.94,1.57,20.42,20.42,0,0,1,2.83,1.36,19.44,19.44,0,0,1,2.55,1.84A37.13,37.13,0,0,1,507,140a15.84,15.84,0,0,1,3.21,5.25,25.19,25.19,0,0,1,.75,5.91l.14,2.89.05,1.44a2.2,2.2,0,0,1,0,.76c0,.12-.19.3-.36.19a.29.29,0,0,1-.06-.19c0-.07.06-.15.12-.09-.15,0-.07.19,0,.21s.15-.07.16-.16a2.43,2.43,0,0,0-.12-.67l-.34-1.41-.63-2.83a26.05,26.05,0,0,0-1.48-5.37,14,14,0,0,0-3.29-4.18A42.34,42.34,0,0,0,501,138a20.39,20.39,0,0,0-9.91-3.48,50.41,50.41,0,0,0-11,0,53.06,53.06,0,0,0-10.86,2.24,48,48,0,0,0-5.23,1.91c-.86.37-1.68.76-2.55,1.17a17.68,17.68,0,0,1-3,1.15,7.11,7.11,0,0,1-3.61,0,5,5,0,0,1-1.77-.88,4.54,4.54,0,0,1-1.25-1.53,6.62,6.62,0,0,1-.66-3.41,9.58,9.58,0,0,1,.67-3.14,10.14,10.14,0,0,1,3.92-4.72A12.8,12.8,0,0,1,461.24,125.4Z" transform="translate(0 -18.78)"/><path class="cls-4" d="M477.25,188.81a52,52,0,0,1-3.39-11.08c-.4-1.9-.67-3.82-1-5.73s-.47-3.85-.63-5.78-.3-3.86-.35-5.79l-.11-5.81c.1-3.86.19-7.73.53-11.58.18-1.92.3-3.86.55-5.77l.74-5.74c.24-1.92.6-3.81.94-5.71s.69-3.79,1.06-5.68c.82-3.77,1.76-7.5,2.7-11.23,1.11-3.69,2.2-7.38,3.47-11-.42,3.84-1,7.63-1.58,11.41l-.75,5.69-.81,5.66c-.36,3.8-1,7.56-1.34,11.35l-.6,5.67c-.23,1.89-.3,3.79-.46,5.68-.65,7.56-1,15.15-.93,22.73,0,1.9.11,3.79.12,5.69s.17,3.8.34,5.69A81.07,81.07,0,0,0,477.25,188.81Z" transform="translate(0 -18.78)"/><path class="cls-4" d="M491.46,159.52a10.64,10.64,0,0,1,1.76,3.71,14.56,14.56,0,0,1,.45,4.05,14.15,14.15,0,0,1-.71,4,10.34,10.34,0,0,1-2,3.59c-.1-1.41-.06-2.69,0-4l.11-3.73.13-3.73C491.24,162.2,491.27,160.92,491.46,159.52Z" transform="translate(0 -18.78)"/><path class="cls-4" d="M294.23,208c8.7-.47,17.38-.63,26.06-.73s17.37-.06,26,0,17.35.27,26,.53,17.34.58,26,1l-2,5.35c-4.83-3.81-9.57-7.72-14.36-11.59s-9.48-7.85-14.22-11.77c-2.37-2-4.69-4-7-6s-4.68-4-7-6c-4.64-4.05-9.24-8.15-13.76-12.37,5.19,3.35,10.29,6.82,15.35,10.33,2.54,1.75,5.05,3.52,7.56,5.31s5,3.55,7.52,5.36c4.95,3.65,10,7.21,14.88,10.93s9.87,7.35,14.74,11.11l7.24,5.59-9.19-.24c-8.68-.22-17.34-.55-26-.91s-17.33-.88-26-1.36-17.32-1.15-26-1.89S302.87,209.08,294.23,208Z" transform="translate(0 -18.78)"/><path class="cls-4" d="M349.1,196.61c.56-3.81,1.29-7.56,2.08-11.3s1.67-7.46,2.59-11.16c.44-1.86,1-3.7,1.44-5.55s1-3.68,1.51-5.52c1-3.67,2.13-7.33,3.27-11l.82-2.62,1.42,2.23,2.27,3.56,2.21,3.61,2.15,3.65c.7,1.22,1.39,2.46,2.06,3.71q-1.44-1.58-2.8-3.19l-2.71-3.26-2.65-3.3-2.58-3.34,2.23-.39c-.87,3.72-1.78,7.43-2.78,11.11-.47,1.85-1,3.69-1.51,5.52s-1,3.68-1.59,5.5c-1.09,3.66-2.23,7.3-3.46,10.93S350.56,193.05,349.1,196.61Z" transform="translate(0 -18.78)"/><path class="cls-4" d="M1022.69,245.71a63.64,63.64,0,0,0,10,1.42l5,.16c1.68,0,3.34,0,5-.12a24.1,24.1,0,0,0,9-2.15,12.67,12.67,0,0,0,7.15-10,11.54,11.54,0,0,0,.08-2.12c0-.35,0-.71-.11-1.05l-.08-.52-.13-.67a8.85,8.85,0,0,1-.15-1.77,4.42,4.42,0,0,1,.81-2.48,3.94,3.94,0,0,1,2.42-1.51,6.11,6.11,0,0,1,2,0l1.24.22a3,3,0,0,0,.69.05,2.94,2.94,0,0,0,1.41-.57,6.3,6.3,0,0,0,1.37-1.4c.22-.3.43-.62.63-1l.67-1.11a4.19,4.19,0,0,1,.66-.85,2.89,2.89,0,0,1,1.16-.68,8.5,8.5,0,0,1,1.54-.2c.89-.06,1.78-.1,2.66-.09a28,28,0,0,1,10.23,2.11,38.83,38.83,0,0,0-10.07.29c-.81.13-1.62.28-2.41.46a5.92,5.92,0,0,0-1,.27s.08,0,.09,0,0,.06-.07.2a12.57,12.57,0,0,1-3,4.92,7,7,0,0,1-3.13,1.64,6.29,6.29,0,0,1-1.86.09l-1.29-.12a1.28,1.28,0,0,0-.57,0s.23-.06.31-.18.1-.23.11-.07a6,6,0,0,0,.14.78l.14.57.15.74c.11.49.14,1,.21,1.48a16.47,16.47,0,0,1,0,3,17.28,17.28,0,0,1-1.58,5.7,16.59,16.59,0,0,1-3.51,4.81,17.29,17.29,0,0,1-4.93,3.19,24.81,24.81,0,0,1-10.9,1.77,47.56,47.56,0,0,1-5.26-.52l-5.14-1A38,38,0,0,1,1022.69,245.71Z" transform="translate(0 -18.78)"/><path class="cls-4" d="M1040.14,210.61c3.1-.29,6.18-.4,8.86-1.27a10.46,10.46,0,0,0,3.54-1.93c.51-.44,1-.95,1.63-1.5a15.52,15.52,0,0,1,2-1.53,15.8,15.8,0,0,1,9.56-2.16,21.66,21.66,0,0,1,9,2.82,49.54,49.54,0,0,0-9-.53,17.37,17.37,0,0,0-8,2.36,11.77,11.77,0,0,0-1.66,1.22c-.56.46-1.13,1-1.83,1.51a11.25,11.25,0,0,1-4.7,2A20.34,20.34,0,0,1,1040.14,210.61Z" transform="translate(0 -18.78)"/><path class="cls-4" d="M1114,210.87q-2.85-.48-5.64-1.15t-5.57-1.44c-1.84-.53-3.68-1.09-5.49-1.7a30.76,30.76,0,0,1-5.64-2.37,16.21,16.21,0,0,1-2.77-2,17.18,17.18,0,0,1-2.31-2.48c-1.33-1.72-2.31-3.34-3.33-4.73A52.3,52.3,0,0,0,1080,191a38.16,38.16,0,0,0-3.68-3.53,24,24,0,0,0-8.42-4.71,17.39,17.39,0,0,0-9.06-.21,13.36,13.36,0,0,0-7.48,4.53,12.41,12.41,0,0,0-1.24,1.93,19.06,19.06,0,0,1-1.77,2.91,9.44,9.44,0,0,1-6.81,3.6l2.1-3.07a6.71,6.71,0,0,0,1.58,3.32,42.65,42.65,0,0,0,3.27,3.43,17.33,17.33,0,0,1,3.23,4.16,6.84,6.84,0,0,1,.77,5.08,6.84,6.84,0,0,0-2.08-4.15,18.67,18.67,0,0,0-3.73-2.78,33.69,33.69,0,0,1-4.31-2.88,10.8,10.8,0,0,1-3.55-5l-.72-2.31,2.82-.76a4.34,4.34,0,0,0,2.66-2.06,18.63,18.63,0,0,0,.87-2.1,19.3,19.3,0,0,1,1.49-3,18,18,0,0,1,4.76-5.06,21.91,21.91,0,0,1,6.11-3,23.39,23.39,0,0,1,13.34-.06,29,29,0,0,1,11.16,6.45,36.6,36.6,0,0,1,4.26,4.56,43.23,43.23,0,0,1,3.45,5c1.07,1.77,1.87,3.5,2.71,4.9a11.45,11.45,0,0,0,3,3.45,32.64,32.64,0,0,0,4.44,2.83l4.95,2.75,5,2.78C1110.72,209,1112.38,209.9,1114,210.87Z" transform="translate(0 -18.78)"/><path class="cls-4" d="M1173.9,249.41a21.94,21.94,0,0,1-3,7.83,25.79,25.79,0,0,1-5.65,6.42,27.06,27.06,0,0,1-7.54,4.3,24.88,24.88,0,0,1-8.71,1.48l1.25-3.1a6.82,6.82,0,0,1,2,2.76,10.69,10.69,0,0,1,.66,3,19,19,0,0,1,0,2.82c-.09.88-.13,1.76-.27,2.63a40.62,40.62,0,0,1-2.72,10.22,43.81,43.81,0,0,1-5.22,9.21,42.26,42.26,0,0,1-7.38,7.62l-1.41-3.67c3.43-.12,7-1.59,10.9-2.75a22.88,22.88,0,0,1,6.24-1,13.72,13.72,0,0,1,6.44,1.33,9.77,9.77,0,0,1,2.71,2.07A25.81,25.81,0,0,1,1164,303c1.09,1.57,2.2,2.84,3.72,2.64a3.81,3.81,0,0,0,2.12-1.14,9,9,0,0,0,1.64-2.22c.92-1.66,1.76-3.66,3.41-4.82-1.39,1.45-1.82,3.37-2.54,5.22a10,10,0,0,1-1.49,2.74,5.29,5.29,0,0,1-2.8,1.91,4.52,4.52,0,0,1-3.55-.64,10.64,10.64,0,0,1-2.37-2.24,23.38,23.38,0,0,0-1.87-2.08,7.24,7.24,0,0,0-2.08-1.29,10.93,10.93,0,0,0-5.06-.65,21,21,0,0,0-5.28,1.21c-3.57,1.18-7.3,3-11.77,3.37l-6.39.49,5-4.17a41.74,41.74,0,0,0,6.53-6.95,42.61,42.61,0,0,0,4.74-8.3,41.3,41.3,0,0,0,2.71-9.17c.15-.78.22-1.58.34-2.37a14.15,14.15,0,0,0,.09-2.23,4.92,4.92,0,0,0-1.17-3.34l-3.53-3.49,4.78.39a21.45,21.45,0,0,0,7.62-.79,24.86,24.86,0,0,0,7.13-3.26,26,26,0,0,0,5.93-5.35A24.59,24.59,0,0,0,1173.9,249.41Z" transform="translate(0 -18.78)"/><path class="cls-4" d="M1139.7,276.33c2.7.47,5.25,1.25,7.78,1.95s5,1.41,7.48,1.93a45.27,45.27,0,0,0,7.51,1,35.24,35.24,0,0,0,7.78-.56,15.87,15.87,0,0,1-7.64,3.1,24,24,0,0,1-8.32-.35,33.56,33.56,0,0,1-7.72-2.73A39.21,39.21,0,0,1,1139.7,276.33Z" transform="translate(0 -18.78)"/><path class="cls-4" d="M1136,291.24a8.58,8.58,0,0,1-2.27,2.49,11.58,11.58,0,0,1-2.93,1.6,11.82,11.82,0,0,1-3.27.72,8.66,8.66,0,0,1-3.34-.39c1-.52,2-.89,3-1.27l2.87-1.08,2.87-1.06C1133.9,291.9,1134.89,291.53,1136,291.24Z" transform="translate(0 -18.78)"/><path class="cls-4" d="M1212.17,313.33c.44,8.69.59,17.38.67,26.06s0,17.36-.07,26-.3,17.35-.58,26-.62,17.33-1,26l-5.35-2c3.82-4.82,7.74-9.56,11.62-14.34s7.87-9.46,11.8-14.2c2-2.36,4-4.68,6-7s4-4.67,6.06-7c4.06-4.64,8.17-9.23,12.4-13.74q-5.06,7.77-10.37,15.33-2.62,3.81-5.32,7.55c-1.8,2.5-3.56,5-5.38,7.51-3.66,4.95-7.23,10-11,14.85s-7.37,9.86-11.14,14.72l-5.6,7.23.26-9.19c.24-8.67.58-17.34,1-26s.92-17.32,1.42-26,1.18-17.32,1.94-26S1211.06,322,1212.17,313.33Z" transform="translate(0 -18.78)"/><path class="cls-4" d="M1223.43,368.22c3.8.57,7.56,1.3,11.3,2.1s7.45,1.68,11.15,2.62c1.86.44,3.7,1,5.54,1.45s3.69,1,5.52,1.52c3.68,1,7.33,2.15,11,3.3l2.61.82-2.23,1.41-3.57,2.26-3.61,2.21-3.65,2.14c-1.23.7-2.46,1.39-3.72,2.05,1-1,2.12-1.88,3.2-2.8l3.26-2.7,3.31-2.63,3.35-2.58.38,2.23c-3.71-.88-7.42-1.8-11.1-2.8q-2.78-.72-5.52-1.52c-1.83-.54-3.68-1-5.5-1.6-3.65-1.1-7.3-2.25-10.92-3.48S1227,369.69,1223.43,368.22Z" transform="translate(0 -18.78)"/><path class="cls-4" d="M692.54,44.3C707.65,59.44,722.25,75,736.69,90.7s28.65,31.58,42.73,47.58,28,32.17,41.74,48.41,27.42,32.61,40.9,49.11l-13,5.22c-.46-7.54-.92-15.08-1.3-22.63s-.82-15.08-1.15-22.63-.71-15.1-1-22.65-.58-15.1-.84-22.66c-.47-15.11-.88-30.23-1.07-45.36q-.16-11.34-.15-22.7t.18-22.74q1.82,11.24,3.35,22.49t3,22.5c1.91,15,3.62,30,5.25,45.07.8,7.52,1.61,15,2.34,22.56s1.48,15,2.16,22.56,1.37,15,2,22.58,1.26,15.05,1.86,22.58l1.79,22.53-14.76-17.3q-20.74-24.32-41-49t-40.19-49.7q-19.86-25-39.22-50.52C717.47,79,704.75,61.86,692.54,44.3Z" transform="translate(0 -18.78)"/><path class="cls-4" d="M803.43,125.84q5.9-3.95,11.93-7.58c4-2.47,8.06-4.83,12.12-7.19,8.13-4.71,16.35-9.22,24.64-13.61s16.62-8.66,25-12.79,16.88-8.16,25.43-12l6.07-2.74L907,76.1c-.9,3.34-1.84,6.67-2.79,10l-3,10q-1.53,5-3.13,9.92c-1.1,3.3-2.2,6.59-3.41,9.86.33-3.47.78-6.91,1.23-10.36s1-6.87,1.5-10.29l1.68-10.25q.9-5.12,1.85-10.22l4.4,3.46Q893,85,880.51,91.35c-8.34,4.28-16.76,8.4-25.23,12.43s-17,7.91-25.63,11.6c-4.32,1.85-8.64,3.69-13,5.42S807.88,124.26,803.43,125.84Z" transform="translate(0 -18.78)"/><path class="cls-4" d="M1339.28,501.92c-9.71,19.06-20,37.76-30.43,56.35s-21.14,37-32,55.38-21.92,36.54-33.08,54.69-22.51,36.18-34,54.11l-9-10.72c7-2.77,14-5.54,21.11-8.25s14.09-5.45,21.16-8.11,14.13-5.35,21.22-8,14.19-5.23,21.29-7.81c14.22-5.14,28.46-10.21,42.79-15.09,7.16-2.44,14.34-4.85,21.54-7.18s14.41-4.67,21.67-6.88q-10.12,5.22-20.34,10.16t-20.47,9.84c-13.67,6.47-27.43,12.75-41.21,19-6.9,3.09-13.8,6.19-20.72,9.21s-13.84,6.07-20.78,9.06-13.89,6-20.84,8.91-13.93,5.88-20.9,8.78L1185.44,734l11.87-19.4q16.68-27.25,33.86-54.2T1266,606.82q17.65-26.64,35.87-52.94C1314,536.37,1326.36,519,1339.28,501.92Z" transform="translate(0 -18.78)"/><path class="cls-4" d="M1296.13,632.62q5.56,4.38,10.9,9c3.59,3,7.1,6.17,10.6,9.3,7,6.26,13.83,12.69,20.57,19.2s13.39,13.12,19.93,19.85,13,13.52,19.31,20.44l4.5,4.92-6.41.33c-3.46.18-6.92.32-10.37.45l-10.39.28c-3.47.06-6.93.08-10.4.09s-6.95,0-10.43-.18c3.4-.76,6.82-1.4,10.23-2s6.83-1.21,10.25-1.76l10.27-1.58c3.42-.49,6.85-1,10.28-1.41l-1.92,5.25q-10.29-9.6-20.24-19.54t-19.63-20.13c-6.44-6.81-12.8-13.71-19-20.78-3.09-3.53-6.18-7.07-9.19-10.69S1299,636.36,1296.13,632.62Z" transform="translate(0 -18.78)"/><path class="cls-4" d="M1104.69,1258.65c-21.12-3.32-42.09-7.29-63-11.45s-41.76-8.63-62.56-13.25-41.54-9.52-62.25-14.5-41.38-10.18-62-15.56l7.4-11.87c4.81,5.82,9.63,11.64,14.39,17.51s9.55,11.71,14.27,17.61,9.47,11.78,14.16,17.71,9.37,11.86,14,17.81c9.29,11.92,18.53,23.9,27.6,36q6.82,9.07,13.51,18.25t13.25,18.47q-8.09-8-16-16.19t-15.7-16.41q-15.6-16.49-30.81-33.3c-5.08-5.6-10.16-11.2-15.18-16.85s-10.07-11.27-15.06-17-10-11.35-14.93-17S856,1207.23,851,1201.5l-14.72-17.14,22.12,5.27c20.72,4.93,41.39,10.12,62,15.38s41.23,10.77,61.76,16.46,41,11.55,61.46,17.69S1084.48,1251.66,1104.69,1258.65Z" transform="translate(0 -18.78)"/><path class="cls-4" d="M967.06,1258.15q-2.44,6.66-5.17,13.16c-1.78,4.35-3.67,8.65-5.56,13-3.78,8.59-7.77,17.08-11.87,25.51s-8.33,16.8-12.7,25.1-8.82,16.54-13.45,24.7l-3.28,5.8-2.3-6q-1.86-4.85-3.64-9.73l-3.49-9.78q-1.7-4.92-3.31-9.86c-1.06-3.31-2.11-6.62-3.06-10,1.78,3,3.45,6,5.11,9.09s3.27,6.12,4.86,9.2l4.68,9.27q2.29,4.67,4.53,9.34l-5.59-.2q5.94-12.75,12.3-25.29c4.21-8.38,8.59-16.67,13-24.91s9.07-16.42,13.87-24.49c2.41-4,4.81-8.07,7.32-12S964.4,1262.05,967.06,1258.15Z" transform="translate(0 -18.78)"/><path class="cls-4" d="M312.52,1270.22c-3.39-21.12-6.12-42.28-8.64-63.46s-4.75-42.38-6.8-63.59-3.83-42.44-5.52-63.68-3.14-42.49-4.42-63.75l13.58,3.35c-4.05,6.38-8.09,12.77-12.19,19.11s-8.17,12.71-12.31,19-8.27,12.65-12.45,19-8.37,12.58-12.59,18.86c-8.45,12.53-17,25-25.67,37.4q-6.51,9.3-13.17,18.51t-13.45,18.32q5.1-10.17,10.45-20.19t10.73-20c7.23-13.29,14.64-26.48,22.11-39.62,3.75-6.56,7.5-13.13,11.31-19.65s7.6-13.07,11.45-19.57,7.7-13,11.58-19.48,7.78-13,11.7-19.41L300,992l1.84,22.67c1.73,21.23,3.21,42.48,4.61,63.74s2.54,42.54,3.5,63.82,1.73,42.59,2.23,63.92S312.9,1248.84,312.52,1270.22Z" transform="translate(0 -18.78)"/><path class="cls-4" d="M270.33,1139.21c-4.72-.17-9.42-.46-14.11-.84s-9.37-.8-14-1.27c-9.34-.93-18.65-2.09-27.94-3.38s-18.55-2.71-27.79-4.28-18.46-3.27-27.66-5.13l-6.53-1.33,5-4q4-3.27,8.11-6.48l8.23-6.35c2.76-2.09,5.55-4.15,8.34-6.21s5.64-4.05,8.53-6c-2.29,2.62-4.67,5.15-7.05,7.68s-4.81,5-7.25,7.46l-7.36,7.33c-2.48,2.41-5,4.82-7.48,7.2l-1.54-5.37q14,1.69,27.86,3.85c9.27,1.41,18.51,3,27.73,4.69s18.42,3.53,27.58,5.59c4.58,1,9.16,2.07,13.72,3.22S265.79,1137.89,270.33,1139.21Z" transform="translate(0 -18.78)"/><path class="cls-4" d="M55.94,520.66c19-9.77,38.3-18.93,57.66-27.89s38.81-17.65,58.35-26.18,39.16-16.8,58.83-25,39.42-16.16,59.24-24l1,13.95c-7.32-1.87-14.64-3.73-21.94-5.67s-14.62-3.82-21.91-5.81-14.59-3.93-21.87-6-14.56-4.06-21.84-6.12c-14.53-4.15-29-8.38-43.52-12.81q-10.86-3.32-21.67-6.78t-21.6-7.11c7.5,1.13,15,2.37,22.44,3.67s14.91,2.62,22.35,4c14.88,2.76,29.71,5.71,44.52,8.74,7.4,1.54,14.81,3.06,22.19,4.66s14.78,3.18,22.15,4.82,14.75,3.29,22.12,5,14.72,3.39,22.08,5.12l22,5.16-21,8.79q-29.49,12.33-59.18,24.13t-59.59,23.12q-29.92,11.26-60.08,21.93C96.59,507.51,76.39,514.39,55.94,520.66Z" transform="translate(0 -18.78)"/><path class="cls-4" d="M167.42,439.93q-1.95-6.81-3.58-13.67c-1.13-4.57-2.14-9.16-3.14-13.74-2-9.18-3.8-18.38-5.45-27.61s-3.18-18.48-4.54-27.76-2.62-18.56-3.7-27.88l-.76-6.62,5.39,3.49c2.9,1.87,5.79,3.78,8.67,5.7l8.58,5.86c2.85,2,5.67,4,8.5,6s5.6,4.1,8.34,6.26c-3.2-1.38-6.34-2.85-9.49-4.33s-6.24-3-9.34-4.57l-9.25-4.73q-4.59-2.41-9.16-4.88l4.63-3.13q2.72,13.8,5,27.68c1.53,9.25,2.89,18.52,4.14,27.82s2.35,18.6,3.23,27.95c.44,4.68.88,9.35,1.2,14.05S167.27,435.21,167.42,439.93Z" transform="translate(0 -18.78)"/></g><g class="cls-3"><path class="cls-4" d="M906.37,948.56a40.64,40.64,0,0,0-3.4,10.35c-.66,3.42-.22,7,2.28,8.94a6.89,6.89,0,0,0,2,1.18,7,7,0,0,0,1.11.31c.19,0,.38.07.57.08l.65,0a4.94,4.94,0,0,1,.95.16,2.33,2.33,0,0,1,1.19.75,2.18,2.18,0,0,1,.48,1.47,3.64,3.64,0,0,1-.26,1,4.94,4.94,0,0,0-.39,1,1.56,1.56,0,0,0,.11.82,5.59,5.59,0,0,0,1.47,1.85,2.1,2.1,0,0,1,.36.46,1.45,1.45,0,0,1,.21.7,3.92,3.92,0,0,1-.1.84c-.08.47-.18,1-.3,1.41a15.25,15.25,0,0,1-2.45,5.1,21.41,21.41,0,0,0,1.17-5.33c0-.44.06-.89.07-1.33a2.7,2.7,0,0,0,0-.55s0,0,0,0,0,0-.1-.06a6.83,6.83,0,0,1-2.18-2.25,3.77,3.77,0,0,1-.46-1.86,3.55,3.55,0,0,1,.19-1l.24-.67a.64.64,0,0,0,.07-.3s0,.12,0,.18,0,0-.41,0a6.46,6.46,0,0,1-.73,0,7.17,7.17,0,0,1-.81-.08,9.54,9.54,0,0,1-1.57-.41,9.28,9.28,0,0,1-2.79-1.57,9.08,9.08,0,0,1-3.1-5.49,13.62,13.62,0,0,1,.5-6q.42-1.4,1-2.7l1.19-2.58A20.82,20.82,0,0,1,906.37,948.56Z" transform="translate(0 -18.78)"/><path class="cls-4" d="M922.55,962.35a22.88,22.88,0,0,0-.49,4.83,5.54,5.54,0,0,0,.55,2.12,15.31,15.31,0,0,1,1.11,2.32,8.59,8.59,0,0,1-.11,5.31,11.85,11.85,0,0,1-2.67,4.35,26.87,26.87,0,0,0,1.46-4.66,9.3,9.3,0,0,0-.19-4.52,18.37,18.37,0,0,0-1-2.19,6.15,6.15,0,0,1-.41-2.73A11.13,11.13,0,0,1,922.55,962.35Z" transform="translate(0 -18.78)"/><path class="cls-4" d="M912.71,1001.2c.9-1.87,1.87-3.7,2.9-5.51a27.62,27.62,0,0,1,3.54-5.37,9.07,9.07,0,0,1,3-2.09c1.08-.47,2.06-.77,2.92-1.13a23,23,0,0,0,4.92-2.67,13.1,13.1,0,0,0,3.58-3.82,9.3,9.3,0,0,0,1.3-4.74,7.18,7.18,0,0,0-1.4-4.53,6.94,6.94,0,0,0-.85-.9,10.72,10.72,0,0,1-1.3-1.31,5.08,5.08,0,0,1-1-4.06l1.33,1.5a3.41,3.41,0,0,0-1.95.4,20.88,20.88,0,0,0-2.24,1.27,9.27,9.27,0,0,1-2.61,1.15,3.67,3.67,0,0,1-2.77-.26,3.7,3.7,0,0,0,2.45-.55,10.58,10.58,0,0,0,2-1.59,17.56,17.56,0,0,1,2.08-1.89,5.93,5.93,0,0,1,3.07-1.21l1.29-.09,0,1.59a2.4,2.4,0,0,0,.74,1.67,11.21,11.21,0,0,0,1,.73,12.08,12.08,0,0,1,1.41,1.18,9.74,9.74,0,0,1,2,3.18,11.54,11.54,0,0,1,.77,3.6,12.72,12.72,0,0,1-1.72,7,15.66,15.66,0,0,1-4.86,5,21.8,21.8,0,0,1-6.07,2.8c-1.06.33-2.08.53-2.92.78a6.39,6.39,0,0,0-2.21,1.11,17.06,17.06,0,0,0-2.08,2c-.66.77-1.34,1.54-2,2.29C915.65,998.25,914.22,999.75,912.71,1001.2Z" transform="translate(0 -18.78)"/><path class="cls-6" d="M1041.44,868.77a372.44,372.44,0,0,1-173.21,182,101.84,101.84,0,1,0-200.82-1.57,101.1,101.1,0,0,0,16.53,41.37,374.83,374.83,0,0,1-249.32-110,101.87,101.87,0,1,0-94.89-162.93,372.29,372.29,0,0,1,18.4-252.43c2.8-6.31,5.75-12.45,8.88-18.51a101.85,101.85,0,1,0,125.4-140.86,374.41,374.41,0,0,1,268.08-57.82,100.47,100.47,0,0,0-20.24,27.32,101.84,101.84,0,1,0,192.6,49.18,374.74,374.74,0,0,1,136.52,235.79A101.83,101.83,0,1,0,1049.92,848C1047.37,854.93,1044.51,861.86,1041.44,868.77Z" transform="translate(0 -18.78)"/><path class="cls-4" d="M980.81,932.34a5.62,5.62,0,0,0,1.47-1.72,14.56,14.56,0,0,0,1-2c.53-1.36.68-2.87,0-3.76a5.9,5.9,0,0,0-1.3-1.28c-.15,0-.1,0-.39.06a6.43,6.43,0,0,0-.86.45,11,11,0,0,0-3,3c-.91,1.18-1.8,2.53-2.88,3.72a25.74,25.74,0,0,1-3.5,3.27,21.42,21.42,0,0,1-4.06,2.53,6.37,6.37,0,0,1-2.39.59,3.67,3.67,0,0,1-2.3-.65,4.74,4.74,0,0,0,4.19-.86,31.55,31.55,0,0,0,3.48-2.87,35.17,35.17,0,0,0,3-3.31c1-1.15,1.77-2.4,2.71-3.7a12.72,12.72,0,0,1,3.65-3.45,9.28,9.28,0,0,1,1.24-.54,2.75,2.75,0,0,1,.88-.14,2.06,2.06,0,0,1,1,.25,3.79,3.79,0,0,1,1.13,1,10.6,10.6,0,0,1,.74,1,4,4,0,0,1,.47,2.76,7.61,7.61,0,0,1-.9,2.36,11.4,11.4,0,0,1-1.44,1.93A4.86,4.86,0,0,1,980.81,932.34Z" transform="translate(0 -18.78)"/><path class="cls-4" d="M976.53,926.26a6.11,6.11,0,0,0,1.5-5.52,3.33,3.33,0,0,0-1.48-2.06,1.17,1.17,0,0,0-.95,0,2.22,2.22,0,0,0-.9.68,7.9,7.9,0,0,0-.76,1.17c-.26.46-.55.92-.84,1.37a27.34,27.34,0,0,1-6.59,7.07,27.51,27.51,0,0,1-5.62,3.25,12,12,0,0,1-6.59.93,18.91,18.91,0,0,1-3.13-.87,8.7,8.7,0,0,1-2.95-1.54,13.68,13.68,0,0,1-2-2.54l-.87-1.31-.43-.66a1.23,1.23,0,0,1-.19-.36c0-.07,0-.19.11-.18s.14.13,0,.14c.08,0,0-.11-.06-.1s-.05.07,0,.12a1.58,1.58,0,0,0,.25.28l.55.56,1.08,1.14a14.59,14.59,0,0,0,2.18,2.08,7.63,7.63,0,0,0,2.7,1,21.92,21.92,0,0,0,3,.56,11,11,0,0,0,5.58-1.14,27.42,27.42,0,0,0,5.13-3.09,29.43,29.43,0,0,0,4.43-4.07,28.68,28.68,0,0,0,1.9-2.35c.3-.41.57-.82.86-1.26a10.1,10.1,0,0,1,1.06-1.36,4,4,0,0,1,1.67-1,2.58,2.58,0,0,1,2.08.28,3.71,3.71,0,0,1,1.26,1.4,5.55,5.55,0,0,1,.56,1.65,5.5,5.5,0,0,1-.51,3.29A6.9,6.9,0,0,1,976.53,926.26Z" transform="translate(0 -18.78)"/><path class="cls-4" d="M951.41,901.23a27.77,27.77,0,0,1,4.66,4.21c.72.77,1.38,1.58,2.06,2.39s1.29,1.66,1.9,2.51,1.22,1.71,1.78,2.6l1.67,2.67c1,1.82,2.06,3.65,3,5.53a101.89,101.89,0,0,1,4.85,11.58c.67,2,1.28,4,1.88,6s1,4,1.46,6.09c-.88-1.9-1.66-3.82-2.45-5.74s-1.64-3.81-2.44-5.72c-1.7-3.77-3.33-7.56-5.21-11.23s-3.76-7.32-5.9-10.83c-1.08-1.75-2.19-3.49-3.39-5.17A44.63,44.63,0,0,0,951.41,901.23Z" transform="translate(0 -18.78)"/><path class="cls-4" d="M953,918.81a5.57,5.57,0,0,1-1.85-1.24,7.9,7.9,0,0,1-1.34-1.75,8.12,8.12,0,0,1-.79-2.07,5.52,5.52,0,0,1-.08-2.22c.44.63.78,1.23,1.12,1.83l1,1.76,1,1.78A21.24,21.24,0,0,1,953,918.81Z" transform="translate(0 -18.78)"/><path class="cls-4" d="M610.43,1067.24a11.92,11.92,0,0,1-.79-4.48,14,14,0,0,1,6.78-11.78l.29,1.8a4.48,4.48,0,0,1-2.82-2,14.39,14.39,0,0,1-1.39-2.61,21.64,21.64,0,0,1-1.57-5.52,22.89,22.89,0,0,1-.15-5.73,23.51,23.51,0,0,1,1.31-5.6l1.68,1.31a25.5,25.5,0,0,0-4.31,4.32,9.53,9.53,0,0,1-6,3.38,5.45,5.45,0,0,1-1.84-.2,13.44,13.44,0,0,1-1.55-.64c-1-.42-1.82-.7-2.47-.19a3.2,3.2,0,0,0-.81,2.61,7.24,7.24,0,0,1-.25,3.2,7.63,7.63,0,0,0-.27-3.14,3.75,3.75,0,0,1,.7-3.36,2.47,2.47,0,0,1,1.83-.69,5.7,5.7,0,0,1,1.73.38,13.6,13.6,0,0,0,1.45.44,3.71,3.71,0,0,0,1.33,0,5.8,5.8,0,0,0,2.53-1.1,11.65,11.65,0,0,0,2.12-2c1.33-1.54,2.55-3.44,4.54-4.84l2.86-2-1.18,3.34a22.22,22.22,0,0,0-1,10.24,23.46,23.46,0,0,0,1.3,5,12.82,12.82,0,0,0,1.09,2.26,2.65,2.65,0,0,0,1.47,1.22l2.61.64-2.32,1.16a12.88,12.88,0,0,0-5.74,6A13.87,13.87,0,0,0,610.43,1067.24Z" transform="translate(0 -18.78)"/><path class="cls-4" d="M618.84,1045.18a42.77,42.77,0,0,1-4.16,1.26c-1.37.38-2.72.73-4,1.19a23.36,23.36,0,0,0-3.77,1.64,19.41,19.41,0,0,0-3.46,2.43,8.55,8.55,0,0,1,2.69-3.56,13,13,0,0,1,4-2.16,17.77,17.77,0,0,1,4.36-.88A20.16,20.16,0,0,1,618.84,1045.18Z" transform="translate(0 -18.78)"/><path class="cls-4" d="M616.4,1037.22a5.89,5.89,0,0,1,4.27-5.35c-.69,1-1.4,1.85-2.07,2.72S617.26,1036.32,616.4,1037.22Z" transform="translate(0 -18.78)"/><path class="cls-4" d="M483.87,997.59a5.39,5.39,0,0,0,1.72,1.47,12.13,12.13,0,0,0,2,1c1.36.54,2.87.7,3.76,0a5.7,5.7,0,0,0,1.28-1.31c0-.14,0-.09-.06-.38a7.11,7.11,0,0,0-.44-.87,11,11,0,0,0-3-3c-1.18-.91-2.52-1.81-3.72-2.88a27,27,0,0,1-3.26-3.51,22.31,22.31,0,0,1-2.52-4.07,6.36,6.36,0,0,1-.58-2.39,3.69,3.69,0,0,1,.65-2.3,4.79,4.79,0,0,0,.85,4.2,31.55,31.55,0,0,0,2.87,3.48,35.16,35.16,0,0,0,3.3,3.05c1.15.95,2.4,1.77,3.69,2.72a12.59,12.59,0,0,1,3.45,3.65,8.56,8.56,0,0,1,.53,1.24,2.73,2.73,0,0,1,.15.88,2.19,2.19,0,0,1-.26,1,3.56,3.56,0,0,1-1,1.13,9.54,9.54,0,0,1-1.05.74,4,4,0,0,1-2.75.46,7.3,7.3,0,0,1-2.36-.91,11.91,11.91,0,0,1-1.93-1.43A4.93,4.93,0,0,1,483.87,997.59Z" transform="translate(0 -18.78)"/><path class="cls-4" d="M490,993.33a6.15,6.15,0,0,0,5.52,1.51,3.39,3.39,0,0,0,2.07-1.48,1.21,1.21,0,0,0,0-1,2.31,2.31,0,0,0-.68-.9,7.3,7.3,0,0,0-1.18-.77c-.45-.26-.91-.55-1.36-.84a27.24,27.24,0,0,1-2.6-1.92,29.05,29.05,0,0,1-4.46-4.68,27.7,27.7,0,0,1-3.23-5.62,12.06,12.06,0,0,1-.92-6.6A21.09,21.09,0,0,1,484,968a8.59,8.59,0,0,1,1.56-3,13.29,13.29,0,0,1,2.54-2l1.31-.87.66-.42a1.25,1.25,0,0,1,.36-.2c.07,0,.19,0,.18.11s-.13.15-.14.06c0,.08.11,0,.1-.06s-.07,0-.12,0a1.2,1.2,0,0,0-.28.24l-.56.55-1.14,1.08a14.18,14.18,0,0,0-2.09,2.18,7.57,7.57,0,0,0-1,2.7,21.79,21.79,0,0,0-.56,2.95,11,11,0,0,0,1.13,5.58A26.62,26.62,0,0,0,489,982a30.13,30.13,0,0,0,6.41,6.34c.41.3.81.58,1.25.87a10.1,10.1,0,0,1,1.36,1.06,3.81,3.81,0,0,1,1,1.68,2.52,2.52,0,0,1-.28,2.07,3.71,3.71,0,0,1-1.4,1.26,5.26,5.26,0,0,1-1.65.55,5.5,5.5,0,0,1-3.29-.51A7.12,7.12,0,0,1,490,993.33Z" transform="translate(0 -18.78)"/><path class="cls-4" d="M515,968.25a28.27,28.27,0,0,1-4.22,4.66c-.77.71-1.59,1.37-2.39,2.05s-1.67,1.29-2.52,1.9-1.72,1.21-2.6,1.77l-2.68,1.66c-1.82,1-3.65,2.06-5.54,3a101.7,101.7,0,0,1-11.58,4.82c-2,.67-4,1.27-6,1.87s-4,1-6.09,1.44c1.9-.87,3.83-1.65,5.75-2.43s3.81-1.64,5.72-2.43c3.77-1.69,7.57-3.31,11.24-5.19s7.33-3.75,10.84-5.88c1.75-1.08,3.5-2.18,5.18-3.37A45.72,45.72,0,0,0,515,968.25Z" transform="translate(0 -18.78)"/><path class="cls-4" d="M497.45,969.77a5.58,5.58,0,0,1,1.24-1.84,7.59,7.59,0,0,1,1.76-1.34,7.77,7.77,0,0,1,2.07-.79,5.52,5.52,0,0,1,2.22-.07,19.45,19.45,0,0,1-1.83,1.11l-1.77,1-1.77,1C498.76,969.13,498.15,969.47,497.45,969.77Z" transform="translate(0 -18.78)"/><path class="cls-4" d="M574.81,1048.17c-2.63-3.92-5.11-7.92-7.57-11.94s-4.85-8.07-7.23-12.13-4.7-8.15-7-12.27-4.54-8.24-6.77-12.38l3-.58c-.42,3.31-.93,6.61-1.4,9.91s-1,6.6-1.53,9.9-1.1,6.58-1.71,9.87-1.23,6.57-1.94,9.84c.12-3.34.31-6.68.55-10s.51-6.66.78-10,.59-6.65,1-10,.67-6.64,1.09-9.95l.61-4.88,2.4,4.31c2.3,4.1,4.58,8.21,6.79,12.36s4.42,8.31,6.6,12.48,4.28,8.38,6.34,12.62S572.92,1043.84,574.81,1048.17Z" transform="translate(0 -18.78)"/><path class="cls-4" d="M554.27,1025.78c-3.86,1.57-7.79,2.86-11.76,4.06-2,.59-4,1.18-6,1.7s-4,1-6,1.52l-1.44.35.64-1.28c1.35-2.73,2.77-5.45,4.35-8.08-.9,2.94-2,5.8-3.11,8.64l-.8-.94c2-.62,4-1.23,5.94-1.79s4-1.1,6-1.62C546.11,1027.33,550.15,1026.41,554.27,1025.78Z" transform="translate(0 -18.78)"/><path class="cls-4" d="M390,698.39a40.57,40.57,0,0,0-4.88-9.74c-1.94-2.89-4.79-5.12-7.92-4.73a6.66,6.66,0,0,0-2.24.57,6.2,6.2,0,0,0-1,.56,5,5,0,0,0-.46.34l-.49.43a5,5,0,0,1-.78.56,2.38,2.38,0,0,1-1.38.31,2.17,2.17,0,0,1-1.37-.71,3.39,3.39,0,0,1-.55-.92,5.7,5.7,0,0,0-.41-1,1.7,1.7,0,0,0-.66-.51,5.82,5.82,0,0,0-2.36-.27,2.19,2.19,0,0,1-.57-.07,1.47,1.47,0,0,1-.64-.35,5.22,5.22,0,0,1-.53-.66c-.27-.4-.54-.8-.77-1.22a15.18,15.18,0,0,1-1.86-5.35,20.77,20.77,0,0,0,2.93,4.61c.28.34.58.68.88,1,.15.14.35.37.4.37s0,0,0,0l.11,0a6.71,6.71,0,0,1,3.14.06,3.77,3.77,0,0,1,1.63,1,3.19,3.19,0,0,1,.56.83l.3.64a.89.89,0,0,0,.17.27s-.09-.09-.16-.1c-.23,0,0,0,.26-.32.13-.13.32-.32.53-.5a8,8,0,0,1,.64-.51,9.43,9.43,0,0,1,4.48-1.67,9,9,0,0,1,6.07,1.71,13.67,13.67,0,0,1,3.85,4.59,26.48,26.48,0,0,1,1.22,2.59l1,2.66A20.42,20.42,0,0,1,390,698.39Z" transform="translate(0 -18.78)"/><path class="cls-4" d="M368.82,700a22.8,22.8,0,0,0-3.05-3.77,5.76,5.76,0,0,0-1.88-1.11,16.35,16.35,0,0,1-2.43-.86,8.56,8.56,0,0,1-3.66-3.85,11.76,11.76,0,0,1-1.18-5,27.7,27.7,0,0,0,2.25,4.34,9.4,9.4,0,0,0,3.32,3.06,19.93,19.93,0,0,0,2.24.87,6,6,0,0,1,2.22,1.64A11,11,0,0,1,368.82,700Z" transform="translate(0 -18.78)"/><path class="cls-4" d="M348.42,665.52c.68,2,1.28,4,1.83,6a27.58,27.58,0,0,1,1.27,6.3,8.85,8.85,0,0,1-.66,3.6c-.43,1.09-.91,2-1.27,2.86A23.32,23.32,0,0,0,348,689.6a13.27,13.27,0,0,0,.15,5.23,9.46,9.46,0,0,0,2.42,4.28,7.24,7.24,0,0,0,4.19,2.23,7,7,0,0,0,1.24,0,10.42,10.42,0,0,1,1.85,0,5.14,5.14,0,0,1,3.57,2.18l-2-.12a3.49,3.49,0,0,0,1.1-1.67,20.29,20.29,0,0,0,.7-2.47,9,9,0,0,1,1-2.66,3.7,3.7,0,0,1,2.15-1.77A3.67,3.67,0,0,0,363,697a11,11,0,0,0-.27,2.51,19.64,19.64,0,0,1-.13,2.81,5.94,5.94,0,0,1-1.34,3l-.84,1-1.16-1.09a2.38,2.38,0,0,0-1.7-.66,10.55,10.55,0,0,0-1.23.17,10.19,10.19,0,0,1-1.82.16,9.77,9.77,0,0,1-3.68-.81,12,12,0,0,1-3.09-2,12.67,12.67,0,0,1-3.73-6.2,15.73,15.73,0,0,1-.1-7,22.19,22.19,0,0,1,2.33-6.26c.53-1,1.11-1.84,1.53-2.62a6.3,6.3,0,0,0,.79-2.34,17.65,17.65,0,0,0,.09-2.86c-.08-1-.13-2-.16-3.06C348.41,669.69,348.37,667.62,348.42,665.52Z" transform="translate(0 -18.78)"/><path class="cls-4" d="M348.66,762.37a5.54,5.54,0,0,0,.17,2.26,13,13,0,0,0,.75,2.12c.58,1.34,1.54,2.52,2.66,2.65a5.76,5.76,0,0,0,1.83,0c.13-.07.1,0,.24-.31a6.72,6.72,0,0,0,.29-.93,11,11,0,0,0,0-4.2c-.19-1.48-.5-3.06-.58-4.67a25.43,25.43,0,0,1,.18-4.78,21.6,21.6,0,0,1,1.09-4.66,6.53,6.53,0,0,1,1.28-2.11,3.81,3.81,0,0,1,2.09-1.16,4.78,4.78,0,0,0-2.37,3.57,30.49,30.49,0,0,0-.44,4.49,33.52,33.52,0,0,0,.18,4.49c.13,1.49.44,3,.68,4.54a12.53,12.53,0,0,1-.16,5,8.86,8.86,0,0,1-.49,1.26,2.83,2.83,0,0,1-.53.73,2.22,2.22,0,0,1-.87.51,3.81,3.81,0,0,1-1.51.08,9.7,9.7,0,0,1-1.27-.22,4,4,0,0,1-2.27-1.63,7.63,7.63,0,0,1-1-2.31,12.1,12.1,0,0,1-.35-2.38A4.88,4.88,0,0,1,348.66,762.37Z" transform="translate(0 -18.78)"/><path class="cls-4" d="M356,763.67a6.12,6.12,0,0,0,2.84,5,3.35,3.35,0,0,0,2.5.42,1.19,1.19,0,0,0,.69-.65,2.27,2.27,0,0,0,.16-1.12,7,7,0,0,0-.29-1.37c-.13-.5-.25-1-.36-1.56a26.58,26.58,0,0,1-.49-3.2,29.09,29.09,0,0,1,.18-6.46,27.5,27.5,0,0,1,1.69-6.26,12,12,0,0,1,4-5.31,19.1,19.1,0,0,1,2.83-1.59,8.76,8.76,0,0,1,3.19-1,14.23,14.23,0,0,1,3.2.4l1.54.31.77.17a1,1,0,0,1,.39.12c.06,0,.13.13.05.2s-.2,0-.14-.06.1.07.12,0,0-.09-.07-.1a1.09,1.09,0,0,0-.37,0h-.78l-1.57,0a14.36,14.36,0,0,0-3,.05,7.76,7.76,0,0,0-2.64,1.18,23.5,23.5,0,0,0-2.49,1.68,11.08,11.08,0,0,0-3.16,4.75,27,27,0,0,0-1.45,5.81,28.74,28.74,0,0,0-.28,6,27.47,27.47,0,0,0,.31,3c.08.5.17,1,.27,1.5a8.89,8.89,0,0,1,.21,1.71,3.74,3.74,0,0,1-.47,1.9,2.53,2.53,0,0,1-1.67,1.27,3.68,3.68,0,0,1-1.88-.11,5.41,5.41,0,0,1-1.56-.77,5.47,5.47,0,0,1-1.95-2.69A7,7,0,0,1,356,763.67Z" transform="translate(0 -18.78)"/><path class="cls-4" d="M391.44,763.71a28,28,0,0,1-6.27.31c-1.05,0-2.1-.16-3.15-.25s-2.08-.27-3.12-.44-2.07-.36-3.09-.59l-3.07-.72c-2-.57-4-1.13-6-1.82a104,104,0,0,1-11.6-4.79c-1.87-.93-3.71-1.92-5.55-2.92s-3.58-2.14-5.32-3.29c2,.73,3.87,1.54,5.78,2.35s3.85,1.55,5.76,2.34c3.87,1.47,7.69,3,11.61,4.29s7.83,2.54,11.83,3.52c2,.48,4,.93,6,1.28A43.7,43.7,0,0,0,391.44,763.71Z" transform="translate(0 -18.78)"/><path class="cls-4" d="M378,752.33a5.67,5.67,0,0,1,2.18-.42,8.09,8.09,0,0,1,2.19.3,7.44,7.44,0,0,1,2,.91,5.49,5.49,0,0,1,1.63,1.52,18.81,18.81,0,0,1-2.09-.51l-1.94-.55L380,753C379.32,752.81,378.66,752.62,378,752.33Z" transform="translate(0 -18.78)"/><path class="cls-4" d="M349.74,626.94a11.84,11.84,0,0,1,4.47-.79,14,14,0,0,1,4.56.85,13.68,13.68,0,0,1,7.21,6l-1.79.28a4.39,4.39,0,0,1,1.95-2.81,14.39,14.39,0,0,1,2.61-1.39,21.62,21.62,0,0,1,5.52-1.56,22.51,22.51,0,0,1,5.74-.13,23.92,23.92,0,0,1,5.59,1.31l-1.31,1.68A25.79,25.79,0,0,0,380,626a9.53,9.53,0,0,1-3.37-6,5.19,5.19,0,0,1,.21-1.84,13.47,13.47,0,0,1,.63-1.55c.43-.95.71-1.82.2-2.47a3.22,3.22,0,0,0-2.61-.82,7.19,7.19,0,0,1-3.19-.25,7.65,7.65,0,0,0,3.14-.27,3.77,3.77,0,0,1,3.35.71,2.48,2.48,0,0,1,.69,1.84,6.3,6.3,0,0,1-.38,1.72,11.77,11.77,0,0,0-.45,1.45,3.72,3.72,0,0,0,0,1.33,5.9,5.9,0,0,0,1.09,2.53,11.7,11.7,0,0,0,2,2.13c1.54,1.33,3.43,2.56,4.83,4.55l2,2.86-3.33-1.18a22.1,22.1,0,0,0-10.24-1,22.89,22.89,0,0,0-5,1.3,11.84,11.84,0,0,0-2.26,1.08,2.6,2.6,0,0,0-1.23,1.47l-.65,2.6-1.15-2.32a12.88,12.88,0,0,0-6-5.75A13.76,13.76,0,0,0,349.74,626.94Z" transform="translate(0 -18.78)"/><path class="cls-4" d="M371.78,635.39a39.52,39.52,0,0,1-1.25-4.17c-.38-1.37-.72-2.72-1.19-4a23.71,23.71,0,0,0-1.63-3.77,19.5,19.5,0,0,0-2.42-3.46,8.49,8.49,0,0,1,3.56,2.7,13.14,13.14,0,0,1,2.15,4,18.42,18.42,0,0,1,.87,4.36A20.89,20.89,0,0,1,371.78,635.39Z" transform="translate(0 -18.78)"/><path class="cls-4" d="M379.75,633a5.52,5.52,0,0,1,3.35,1.28,5.59,5.59,0,0,1,2,3c-1-.69-1.85-1.39-2.72-2.07S380.64,633.82,379.75,633Z" transform="translate(0 -18.78)"/><path class="cls-4" d="M655.15,365.79a5.54,5.54,0,0,0-2.26.17,12.69,12.69,0,0,0-2.12.75c-1.34.58-2.53,1.54-2.66,2.65a5.76,5.76,0,0,0,0,1.83c.07.14,0,.1.31.24a8.26,8.26,0,0,0,.92.3,11.23,11.23,0,0,0,4.21,0c1.48-.18,3.06-.49,4.66-.57a25.54,25.54,0,0,1,4.79.19,22.15,22.15,0,0,1,4.65,1.1,6.56,6.56,0,0,1,2.11,1.29,3.73,3.73,0,0,1,1.15,2.09,4.75,4.75,0,0,0-3.56-2.38,30.35,30.35,0,0,0-4.49-.44,33.64,33.64,0,0,0-4.49.16c-1.48.13-3,.43-4.53.67a12.57,12.57,0,0,1-5-.16,11,11,0,0,1-1.26-.5,2.64,2.64,0,0,1-.72-.53,2.17,2.17,0,0,1-.51-.87,3.82,3.82,0,0,1-.08-1.51,9.42,9.42,0,0,1,.22-1.27,4,4,0,0,1,1.63-2.26,7.36,7.36,0,0,1,2.31-1,12.2,12.2,0,0,1,2.39-.35A5,5,0,0,1,655.15,365.79Z" transform="translate(0 -18.78)"/><path class="cls-4" d="M653.84,373.11a6.08,6.08,0,0,0-5,2.82,3.35,3.35,0,0,0-.43,2.5,1.19,1.19,0,0,0,.65.69,2.27,2.27,0,0,0,1.12.17,7.84,7.84,0,0,0,1.37-.29c.5-.13,1-.25,1.56-.36a29.07,29.07,0,0,1,3.2-.48,28.5,28.5,0,0,1,6.46.19,27.52,27.52,0,0,1,6.26,1.7,12.06,12.06,0,0,1,5.3,4,19.43,19.43,0,0,1,1.58,2.83,8.39,8.39,0,0,1,1,3.19,13.16,13.16,0,0,1-.4,3.2l-.31,1.54-.17.77a1.58,1.58,0,0,1-.12.39c0,.06-.14.13-.21.05s0-.2.07-.14c-.08,0-.07.09,0,.12s.09,0,.11-.07a1.42,1.42,0,0,0,0-.37v-.79l0-1.56a14.45,14.45,0,0,0-.06-3,7.79,7.79,0,0,0-1.16-2.64,23.07,23.07,0,0,0-1.69-2.49,10.93,10.93,0,0,0-4.73-3.16,26.76,26.76,0,0,0-5.81-1.47,28.75,28.75,0,0,0-6-.29,27.45,27.45,0,0,0-3,.3c-.51.08-1,.17-1.5.27a8.93,8.93,0,0,1-1.72.2,3.67,3.67,0,0,1-1.9-.47,2.52,2.52,0,0,1-1.26-1.67,3.68,3.68,0,0,1,.11-1.88,5.31,5.31,0,0,1,.78-1.56,5.58,5.58,0,0,1,2.69-1.95A7,7,0,0,1,653.84,373.11Z" transform="translate(0 -18.78)"/><path class="cls-4" d="M653.72,408.57a27.4,27.4,0,0,1-.29-6.27c0-1.05.16-2.09.25-3.14s.27-2.09.45-3.12.36-2.07.59-3.1l.73-3.06c.57-2,1.14-4,1.83-6a101.34,101.34,0,0,1,4.81-11.59c.94-1.87,1.94-3.71,2.93-5.54s2.15-3.58,3.31-5.32c-.74,2-1.56,3.87-2.37,5.78s-1.55,3.85-2.34,5.76c-1.49,3.86-3,7.68-4.32,11.6s-2.56,7.82-3.55,11.81c-.48,2-.94,4-1.29,6A43.71,43.71,0,0,0,653.72,408.57Z" transform="translate(0 -18.78)"/><path class="cls-4" d="M665.12,395.1a5.37,5.37,0,0,1,.42,2.19,8.09,8.09,0,0,1-.3,2.19,7.79,7.79,0,0,1-.92,2,5.58,5.58,0,0,1-1.52,1.62c.14-.75.32-1.42.51-2.08l.56-1.95.57-1.94C664.64,396.48,664.84,395.81,665.12,395.1Z" transform="translate(0 -18.78)"/><path class="cls-4" d="M555,394c4.63.93,9.22,2,13.79,3.13s9.13,2.31,13.68,3.51,9.08,2.47,13.59,3.8,9,2.64,13.53,4L607.84,411c-2-2.64-4-5.34-6-8s-3.93-5.4-5.89-8.09-3.87-5.45-5.75-8.21-3.76-5.53-5.56-8.35q3.4,3.69,6.67,7.49c2.2,2.52,4.34,5.08,6.49,7.64s4.27,5.13,6.34,7.74,4.2,5.19,6.24,7.83l3,3.89-4.74-1.36c-4.52-1.29-9-2.6-13.54-4s-9-2.78-13.47-4.2-8.95-2.93-13.39-4.49S559.37,395.76,555,394Z" transform="translate(0 -18.78)"/><path class="cls-4" d="M585.34,395.43c1.63-3.84,3.51-7.53,5.47-11.17,1-1.82,2-3.64,3-5.42s2.11-3.56,3.2-5.32l.78-1.26.45,1.35c1,2.9,1.87,5.82,2.61,8.81-1.43-2.73-2.69-5.52-3.89-8.33l1.23.1c-1,1.83-1.94,3.66-3,5.46s-2.06,3.59-3.12,5.38C590,388.57,587.81,392.07,585.34,395.43Z" transform="translate(0 -18.78)"/><path class="cls-4" d="M932.62,511.86a40.5,40.5,0,0,0,10.32,3.47c3.42.69,7,.26,9-2.22a6.83,6.83,0,0,0,1.19-2,6.26,6.26,0,0,0,.32-1.1c0-.19.07-.38.08-.57l0-.66a4.19,4.19,0,0,1,.16-.94,2.31,2.31,0,0,1,.76-1.19,2.11,2.11,0,0,1,1.47-.46,3.19,3.19,0,0,1,1,.26,5.2,5.2,0,0,0,1,.39,1.47,1.47,0,0,0,.83-.1,5.72,5.72,0,0,0,1.86-1.47,2.47,2.47,0,0,1,.46-.35,1.55,1.55,0,0,1,.7-.2,3.92,3.92,0,0,1,.84.1c.47.09.94.19,1.41.31a15.27,15.27,0,0,1,5.09,2.48,21.58,21.58,0,0,0-5.33-1.2c-.44,0-.89-.07-1.33-.08a4.2,4.2,0,0,0-.55,0s.05,0,.05,0,0,0-.06.1a7,7,0,0,1-2.27,2.17,3.84,3.84,0,0,1-1.86.44,3.54,3.54,0,0,1-1-.2l-.66-.24a.9.9,0,0,0-.31-.07s.13,0,.19-.05,0,0,0,.42a6.34,6.34,0,0,1,0,.72c0,.28-.06.54-.09.81a9.18,9.18,0,0,1-.41,1.56,9.31,9.31,0,0,1-1.59,2.79,9,9,0,0,1-5.51,3.06,13.47,13.47,0,0,1-6-.54,26.15,26.15,0,0,1-2.7-1l-2.56-1.21A20.27,20.27,0,0,1,932.62,511.86Z" transform="translate(0 -18.78)"/><path class="cls-4" d="M946.51,495.77a22.92,22.92,0,0,0,4.83.52,5.47,5.47,0,0,0,2.11-.53,16,16,0,0,1,2.33-1.1,8.52,8.52,0,0,1,5.31.15,11.72,11.72,0,0,1,4.34,2.69,27,27,0,0,0-4.66-1.49,9.42,9.42,0,0,0-4.52.16,18.16,18.16,0,0,0-2.19,1,6.2,6.2,0,0,1-2.74.39A11,11,0,0,1,946.51,495.77Z" transform="translate(0 -18.78)"/><path class="cls-4" d="M985.3,505.85q-2.81-1.37-5.5-2.93a28.16,28.16,0,0,1-5.35-3.57,9.09,9.09,0,0,1-2.07-3c-.46-1.08-.76-2.06-1.11-2.93a23,23,0,0,0-2.64-4.93,13.24,13.24,0,0,0-3.79-3.61,9.5,9.5,0,0,0-4.74-1.33,7.17,7.17,0,0,0-4.53,1.38,6.26,6.26,0,0,0-.92.84,9.06,9.06,0,0,1-1.32,1.29,5.07,5.07,0,0,1-4.06,1l1.51-1.32a3.49,3.49,0,0,0,.39,1.95,21.64,21.64,0,0,0,1.25,2.25,9.3,9.3,0,0,1,1.14,2.62,3.72,3.72,0,0,1-.27,2.77,3.77,3.77,0,0,0-.54-2.46,10.93,10.93,0,0,0-1.58-2,18.56,18.56,0,0,1-1.88-2.09,6,6,0,0,1-1.19-3.08L948,485.4l1.59,0a2.35,2.35,0,0,0,1.67-.73,11.15,11.15,0,0,0,.75-1,10.27,10.27,0,0,1,1.18-1.39,9.76,9.76,0,0,1,3.19-2,11.62,11.62,0,0,1,3.61-.74,12.66,12.66,0,0,1,7,1.76,15.69,15.69,0,0,1,5,4.89,22.29,22.29,0,0,1,2.76,6.08c.32,1.07.51,2.09.76,2.94a6.37,6.37,0,0,0,1.1,2.21,15.52,15.52,0,0,0,1.94,2.09c.77.67,1.53,1.36,2.28,2.06C982.36,502.9,983.85,504.33,985.3,505.85Z" transform="translate(0 -18.78)"/><path class="cls-4" d="M1011.56,534.15a12.14,12.14,0,0,1-2.62,3.72,14.27,14.27,0,0,1-3.83,2.61,13.72,13.72,0,0,1-9.31.85l1.07-1.46a4.42,4.42,0,0,1,.59,3.37,13.88,13.88,0,0,1-.87,2.82,22,22,0,0,1-2.82,5,22.89,22.89,0,0,1-4,4.14,23.89,23.89,0,0,1-4.9,3l-.25-2.12a25.29,25.29,0,0,0,6.1,0,9.63,9.63,0,0,1,6.62,1.88,5.38,5.38,0,0,1,1.15,1.45,14.25,14.25,0,0,1,.64,1.55c.36,1,.77,1.79,1.6,1.89a3.2,3.2,0,0,0,2.43-1.26,7.29,7.29,0,0,1,2.44-2.07,7.9,7.9,0,0,0-2,2.4,3.77,3.77,0,0,1-2.88,1.87,2.49,2.49,0,0,1-1.78-.82,5.68,5.68,0,0,1-.94-1.49,12.9,12.9,0,0,0-.71-1.35,3.78,3.78,0,0,0-.92-.95,5.82,5.82,0,0,0-2.56-1,11.51,11.51,0,0,0-2.94-.07c-2,.13-4.25.6-6.64.18l-3.45-.61,3.2-1.51a22,22,0,0,0,8-6.49,22.82,22.82,0,0,0,2.65-4.46,12.27,12.27,0,0,0,.85-2.36,2.71,2.71,0,0,0-.17-1.91l-1.38-2.3,2.45.84a12.91,12.91,0,0,0,8.3-.15A13.72,13.72,0,0,0,1011.56,534.15Z" transform="translate(0 -18.78)"/><path class="cls-4" d="M990,543.69a43.45,43.45,0,0,1,3.82,2.08c1.23.7,2.43,1.42,3.68,2a23.64,23.64,0,0,0,3.81,1.52,19.65,19.65,0,0,0,4.16.75,8.42,8.42,0,0,1-4.42.59,12.85,12.85,0,0,1-4.33-1.3,18.29,18.29,0,0,1-3.69-2.47A20.8,20.8,0,0,1,990,543.69Z" transform="translate(0 -18.78)"/><path class="cls-4" d="M986,551a5.9,5.9,0,0,1-6.8.73c1.22-.24,2.29-.31,3.39-.44S984.78,551.05,986,551Z" transform="translate(0 -18.78)"/><path class="cls-4" d="M1023.06,572.88c-.93,4.63-2,9.21-3.15,13.79s-2.33,9.12-3.54,13.67-2.49,9.07-3.82,13.58-2.66,9-4,13.52l-2.53-1.73c2.64-2,5.35-4,8-6s5.41-3.91,8.11-5.87,5.45-3.86,8.22-5.73,5.53-3.75,8.36-5.55c-2.47,2.27-5,4.48-7.51,6.66s-5.09,4.32-7.65,6.47-5.14,4.26-7.76,6.33-5.19,4.19-7.83,6.22l-3.9,3,1.37-4.74c1.3-4.52,2.62-9,4-13.53s2.8-9,4.22-13.46,3-8.94,4.52-13.38S1021.32,577.27,1023.06,572.88Z" transform="translate(0 -18.78)"/><path class="cls-4" d="M1021.59,603.24c3.84,1.63,7.53,3.52,11.17,5.5,1.81,1,3.63,2,5.41,3s3.56,2.11,5.31,3.2l1.26.78-1.35.45c-2.9,1-5.83,1.86-8.81,2.59,2.72-1.42,5.51-2.67,8.33-3.86l-.1,1.22c-1.83-1-3.66-1.94-5.46-3s-3.59-2.07-5.37-3.13C1028.44,607.94,1025,605.72,1021.59,603.24Z" transform="translate(0 -18.78)"/><path class="cls-4" d="M786.27,361.62c5.91,10,11.45,20.14,17,30.32s10.8,20.45,16,30.75,10.36,20.66,15.42,31.05,10,20.82,14.88,31.3L842,486q2.31-12.07,4.8-24.11T852,437.88c1.79-8,3.59-16,5.55-24,1-4,1.93-8,3-12s2-8,3.16-11.92q-.57,6.13-1.27,12.26c-.44,4.08-1,8.16-1.46,12.23-1,8.15-2.13,16.27-3.29,24.38s-2.4,16.22-3.71,24.31-2.63,16.18-4,24.25l-2.09,12.06-5.42-11.06c-5.09-10.37-10-20.81-15-31.26s-9.72-21-14.43-31.52-9.33-21.15-13.81-31.82S790.3,372.5,786.27,361.62Z" transform="translate(0 -18.78)"/><path class="cls-4" d="M833.55,419.38c4.84-1.69,9.72-3.15,14.63-4.52S858,412.23,863,411c9.88-2.4,19.84-4.46,29.86-6.25l3.58-.64-1.74,3-2.81,4.88L889,416.9l-3,4.79c-1,1.58-2,3.16-3.12,4.71.64-1.77,1.34-3.52,2-5.27l2.17-5.21,2.27-5.15,2.35-5.12,1.84,2.4c-9.86,2.53-19.77,4.79-29.76,6.71-5,1-10,1.87-15,2.66S838.65,418.91,833.55,419.38Z" transform="translate(0 -18.78)"/><path class="cls-4" d="M1064.47,689.07c-7.66,8.71-15.6,17.12-23.57,25.51s-16.09,16.61-24.26,24.79-16.43,16.24-24.74,24.28-16.69,16-25.15,23.85l-3.28-6.84q12.19-1.54,24.41-2.91c8.15-.93,16.3-1.77,24.46-2.57s16.33-1.55,24.51-2.15c4.09-.32,8.18-.65,12.28-.89s8.2-.52,12.31-.7q-6,1.38-12,2.6c-4,.85-8.05,1.62-12.08,2.4-8,1.59-16.12,3-24.2,4.43s-16.17,2.75-24.26,4-16.2,2.51-24.31,3.68l-12.11,1.75,8.83-8.59q12.43-12.08,25.08-23.92t25.49-23.49q12.87-11.62,26-23C1046.58,703.79,1055.38,696.27,1064.47,689.07Z" transform="translate(0 -18.78)"/><path class="cls-4" d="M1024.22,751.93c3.1,4.07,6,8.26,8.83,12.5s5.55,8.53,8.22,12.86q8,13,15.19,26.44l1.72,3.22-3.43-.72-5.51-1.16-5.49-1.25-5.48-1.35c-1.82-.48-3.64-1-5.45-1.5,1.89.06,3.77.18,5.65.3l5.62.46,5.61.55,5.59.65-1.71,2.49q-8.2-12.87-15.61-26.2-3.71-6.68-7.18-13.47C1028.48,761.21,1026.25,756.63,1024.22,751.93Z" transform="translate(0 -18.78)"/><path class="cls-4" d="M839.4,1055.07c-10.66-4.58-21.12-9.52-31.56-14.5s-20.78-10.15-31.09-15.38-20.54-10.59-30.75-16-20.37-10.92-30.48-16.52l5.49-5.24q5.25,11.12,10.33,22.31t10,22.45c3.27,7.52,6.53,15,9.64,22.64,1.58,3.79,3.15,7.58,4.66,11.4s3,7.64,4.48,11.49c-2.12-3.53-4.18-7.08-6.21-10.66s-4-7.14-6-10.73c-4-7.17-7.87-14.4-11.72-21.64s-7.63-14.52-11.34-21.82-7.41-14.62-11-22l-5.41-11,10.89,5.74q15.35,8.07,30.52,16.43c10.12,5.58,20.21,11.2,30.24,16.95s20,11.59,29.9,17.57S829.73,1048.66,839.4,1055.07Z" transform="translate(0 -18.78)"/><path class="cls-4" d="M767.16,1036.29c-2.91,4.21-6,8.27-9.15,12.27s-6.39,7.92-9.68,11.8Q738.47,1072,727.9,1083l-2.52,2.63-.38-3.48-.61-5.59-.51-5.61-.42-5.63c-.11-1.88-.22-3.76-.26-5.65.53,1.81,1,3.64,1.46,5.46l1.31,5.49,1.21,5.5,1.12,5.52-2.9-.85q9.71-11.79,20.08-23c3.46-3.72,7-7.4,10.57-11S763.32,1039.67,767.16,1036.29Z" transform="translate(0 -18.78)"/><path class="cls-4" d="M421.66,954.55c1-11.55,2.5-23,4-34.5s3.21-22.9,5-34.32,3.7-22.82,5.67-34.2,4.07-22.75,6.26-34.09l6.68,3.59q-8.94,8.43-18,16.74T413,854.26c-6.14,5.44-12.28,10.88-18.54,16.19-3.11,2.67-6.23,5.34-9.39,8s-6.32,5.25-9.53,7.82q4.05-4.66,8.2-9.2c2.75-3.06,5.55-6.06,8.34-9.06,5.57-6,11.25-12,16.94-17.85s11.44-11.75,17.23-17.55,11.61-11.57,17.47-17.29l8.76-8.55-2.08,12.14c-2,11.38-4,22.75-6.16,34.1s-4.39,22.69-6.74,34-4.82,22.61-7.43,33.87S424.75,943.37,421.66,954.55Z" transform="translate(0 -18.78)"/><path class="cls-4" d="M417.12,880.05c-4.91-1.47-9.72-3.14-14.5-4.9s-9.52-3.62-14.22-5.54q-14.13-5.76-27.87-12.41l-3.28-1.58,3.19-1.44,5.14-2.31,5.17-2.23L376,847.5c1.75-.69,3.51-1.37,5.29-2-1.56,1.07-3.15,2.08-4.74,3.08l-4.81,2.95-4.86,2.86-4.9,2.77-.08-3q14.2,5.57,28.05,12c4.62,2.14,9.2,4.34,13.74,6.64S412.71,877.45,417.12,880.05Z" transform="translate(0 -18.78)"/><path class="cls-4" d="M387.72,526.23c11.31-2.59,22.67-4.76,34-6.9s22.77-4.05,34.18-5.9,22.84-3.55,34.27-5.21,22.89-3.18,34.35-4.62l-1.34,7.47q-10.79-5.9-21.5-11.93t-21.33-12.23c-7.08-4.14-14.15-8.3-21.14-12.6-3.5-2.13-7-4.27-10.48-6.46s-6.95-4.38-10.39-6.64q5.69,2.4,11.3,4.94c3.75,1.67,7.47,3.4,11.19,5.13,7.47,3.42,14.85,7,22.22,10.57s14.72,7.23,22,10.94S519.72,500.24,527,504l10.84,5.67-12.18,1.79c-11.44,1.68-22.89,3.22-34.34,4.72s-22.93,2.86-34.42,4.13-23,2.42-34.51,3.43S399.31,525.7,387.72,526.23Z" transform="translate(0 -18.78)"/><path class="cls-4" d="M457.15,498.82c-.13-5.12,0-10.22.15-15.31s.5-10.17.87-15.24c.73-10.14,1.8-20.25,3.15-30.34l.49-3.61,2.36,2.59,3.79,4.17,3.72,4.23,3.65,4.29c1.2,1.46,2.4,2.91,3.55,4.41-1.5-1.15-2.95-2.35-4.41-3.55l-4.29-3.66L466,443.07l-4.16-3.8,2.85-1q-.88,15.24-2.68,30.39c-.61,5.05-1.28,10.09-2.06,15.12S458.25,493.82,457.15,498.82Z" transform="translate(0 -18.78)"/></g></g></g></g></svg>