<svg xmlns="http://www.w3.org/2000/svg" viewBox="0 0 1890 29.5"><defs><style>.cls-1,.cls-2{fill:none;stroke:#1e1e1e;stroke-miterlimit:10;stroke-width:2px;}.cls-1{opacity:0.69;}</style></defs><title>Ресурс 11</title><g id="Слой_2" data-name="Слой 2"><g id="Слой_1-2" data-name="Слой 1"><line class="cls-1" x1="1" x2="1" y2="29.5"/><line class="cls-2" x1="53" x2="53" y2="29.5"/><line class="cls-2" x1="105" x2="105" y2="29.5"/><line class="cls-2" x1="157" x2="157" y2="29.5"/><line class="cls-2" x1="209" x2="209" y2="29.5"/><line class="cls-2" x1="261" x2="261" y2="29.5"/><line class="cls-2" x1="313" x2="313" y2="29.5"/><line class="cls-2" x1="365" x2="365" y2="29.5"/><line class="cls-2" x1="417" x2="417" y2="29.5"/><line class="cls-2" x1="469" x2="469" y2="29.5"/><line class="cls-2" x1="521" x2="521" y2="29.5"/><line class="cls-2" x1="573" x2="573" y2="29.5"/><line class="cls-2" x1="625" x2="625" y2="29.5"/><line class="cls-2" x1="677" x2="677" y2="29.5"/><line class="cls-2" x1="729" x2="729" y2="29.5"/><line class="cls-2" x1="781" x2="781" y2="29.5"/><line class="cls-2" x1="833" x2="833" y2="29.5"/><line class="cls-2" x1="1041" x2="1041" y2="29.5"/><line class="cls-2" x1="1093" x2="1093" y2="29.5"/><line class="cls-2" x1="1145" x2="1145" y2="29.5"/><line class="cls-2" x1="1197" x2="1197" y2="29.5"/><line class="cls-2" x1="1249" x2="1249" y2="29.5"/><line class="cls-2" x1="1301" x2="1301" y2="29.5"/><line class="cls-2" x1="1353" x2="1353" y2="29.5"/><line class="cls-2" x1="1405" x2="1405" y2="29.5"/><line class="cls-2" x1="1457" x2="1457" y2="29.5"/><line class="cls-2" x1="1511" x2="1511" y2="29.5"/><line class="cls-2" x1="1565" x2="1565" y2="29.5"/><line class="cls-2" x1="1619" x2="1619" y2="29.5"/><line class="cls-2" x1="1673" x2="1673" y2="29.5"/><line class="cls-2" x1="1727" x2="1727" y2="29.5"/><line class="cls-2" x1="1781" x2="1781" y2="29.5"/><line class="cls-2" x1="1835" x2="1835" y2="29.5"/><line class="cls-2" x1="1889" x2="1889" y2="29.5"/></g></g></svg>