<svg xmlns="http://www.w3.org/2000/svg" xmlns:xlink="http://www.w3.org/1999/xlink" viewBox="0 0 228.75 228.94"><defs><style>.cls-1,.cls-5,.cls-6{fill:none;}.cls-2{clip-path:url(#clip-path);}.cls-3{opacity:0.25;}.cls-4{fill:#303030;}.cls-5,.cls-6{stroke:#303030;stroke-miterlimit:10;}.cls-5{stroke-width:3.66px;}.cls-6{stroke-width:1.99px;}</style><clipPath id="clip-path" transform="translate(0)"><rect class="cls-1" x="28.36" y="23.11" width="172" height="184" rx="8.66"/></clipPath></defs><title>Ресурс 39</title><g id="Слой_2" data-name="Слой 2"><g id="Слой_1-2" data-name="Слой 1"><g class="cls-2"><g class="cls-3"><path class="cls-4" d="M192.17,166.57a12.14,12.14,0,0,0-.22,3.28,2.68,2.68,0,0,0,1.33,2.44,2.13,2.13,0,0,0,1.39.15.83.83,0,0,1,.69.1.66.66,0,0,1,.25.39,1.12,1.12,0,0,1,0,.32,1.29,1.29,0,0,0,0,.32.48.48,0,0,0,.09.23,1.7,1.7,0,0,0,.57.43c.23.08.31.47.29.55s0,.29,0,.44a4.92,4.92,0,0,1-.34,1.67,6,6,0,0,0,0-1.64c0-.25-.13-.63-.16-.55a2.18,2.18,0,0,1-.81-.5,1.13,1.13,0,0,1-.27-.51,1.69,1.69,0,0,1,0-.51c0-.14,0-.09,0-.05s0,0-.12.05a2.79,2.79,0,0,1-1.88-.17,2.73,2.73,0,0,1-1.31-1.37,4,4,0,0,1-.3-1.78A7.57,7.57,0,0,1,192.17,166.57Z" transform="translate(0)"/><path class="cls-4" d="M197.93,169.39a6.67,6.67,0,0,0,.21,1.45,1.83,1.83,0,0,0,.32.58,5.14,5.14,0,0,1,.5.59,2.69,2.69,0,0,1,.36,1.55,3.6,3.6,0,0,1-.45,1.48,7.47,7.47,0,0,0,.08-1.48,2.61,2.61,0,0,0-.39-1.3c-.11-.18-.3-.38-.45-.58a1.75,1.75,0,0,1-.33-.75A3.31,3.31,0,0,1,197.93,169.39Z" transform="translate(0)"/><path class="cls-4" d="M198,181.47c.12-.61.27-1.22.43-1.83a8.65,8.65,0,0,1,.63-1.83,2.77,2.77,0,0,1,.73-.83c.27-.22.54-.39.76-.55a6.85,6.85,0,0,0,1.24-1.15,3.16,3.16,0,0,0,.78-2.87,2.12,2.12,0,0,0-.74-1.21,9.21,9.21,0,0,0-.8-.5,1.49,1.49,0,0,1-.59-1.1l.5.34c-.35,0-.72.41-1.1.8a2.9,2.9,0,0,1-.67.53,1.12,1.12,0,0,1-.83.13c.56-.06.86-.53,1.12-1a5.8,5.8,0,0,1,.47-.71,1.72,1.72,0,0,1,.81-.58l.36-.12.14.45a.73.73,0,0,0,.34.44,5.67,5.67,0,0,1,.85.38,3.15,3.15,0,0,1,1.32,1.77,3.94,3.94,0,0,1,0,2.18,4.76,4.76,0,0,1-1,1.82,6.54,6.54,0,0,1-1.56,1.28c-.6.36-1.07.51-1.36.93a11.28,11.28,0,0,0-.89,1.55C198.6,180.39,198.29,180.93,198,181.47Z" transform="translate(0)"/><path class="cls-5" d="M225.64,133.17a112.24,112.24,0,0,1-37,66.11,30.7,30.7,0,1,0-50.84,25.4,113,113,0,0,1-81-13.47,30.71,30.71,0,0,0,11.29-48.75,30.71,30.71,0,0,0-43.35-2.6,30.34,30.34,0,0,0-7.83,10.87A112.21,112.21,0,0,1,3.42,95.65q.53-3.08,1.21-6.07A30.7,30.7,0,1,0,30.71,39.07a112.94,112.94,0,0,1,74-36.93,30.35,30.35,0,0,0-3.87,9.49,30.69,30.69,0,1,0,59.92,0,112.92,112.92,0,0,1,57.49,58.64,30.69,30.69,0,1,0,8.35,56.23C226.34,128.69,226,130.93,225.64,133.17Z" transform="translate(0)"/><path class="cls-4" d="M212.69,156.27a2.48,2.48,0,0,0,.43-1.28,1.23,1.23,0,0,0-.29-1.1,1.57,1.57,0,0,0-.47-.27c-.05,0,0,0-.11,0l-.22.2a3.24,3.24,0,0,0-.64,1.09,9.14,9.14,0,0,1-1.34,2.52,6.55,6.55,0,0,1-1,1,1.43,1.43,0,0,1-1.37.33,1.42,1.42,0,0,0,1.16-.56,8.84,8.84,0,0,0,.8-1.1,13.42,13.42,0,0,0,1.16-2.48,3.81,3.81,0,0,1,.8-1.28,3.92,3.92,0,0,1,.32-.25.74.74,0,0,1,.56-.1,1.84,1.84,0,0,1,.7.45,1.53,1.53,0,0,1,.25,1.53A2.24,2.24,0,0,1,212.69,156.27Z" transform="translate(0)"/><path class="cls-4" d="M211,154.81a1.81,1.81,0,0,0,0-1.72,1,1,0,0,0-.58-.5c-.2-.05-.39.11-.5.33s-.16.56-.28.87a8.91,8.91,0,0,1-1.39,2.55,8.19,8.19,0,0,1-1.4,1.36,3.2,3.2,0,0,1-1.84.75,4.43,4.43,0,0,1-2-.22,4.65,4.65,0,0,1-.77-.6l-.35-.31-.18-.16s-.06,0-.08-.09,0-.06,0-.06.05,0,0,0-.07,0,0,0l.09.06.21.12.39.26a4.54,4.54,0,0,0,.8.44,4.17,4.17,0,0,0,1.76,0,4.83,4.83,0,0,0,2.82-2,8.07,8.07,0,0,0,1-1.51,6.79,6.79,0,0,0,.37-.83,7,7,0,0,1,.37-.91.91.91,0,0,1,1-.49,1.33,1.33,0,0,1,.76.75A1.87,1.87,0,0,1,211,154.81Z" transform="translate(0)"/><path class="cls-4" d="M201.78,149.38a12.18,12.18,0,0,1,3.2,2,27.12,27.12,0,0,1,2.69,2.67,35,35,0,0,1,2.27,3l1,1.6c.3.56.61,1.11.88,1.67l-2.28-3c-.78-1-1.52-2-2.36-2.89a34.35,34.35,0,0,0-2.53-2.72q-.66-.66-1.38-1.26A12.68,12.68,0,0,0,201.78,149.38Z" transform="translate(0)"/><path class="cls-4" d="M203.55,154.4a2.13,2.13,0,0,1-1.16-.64,2.09,2.09,0,0,1-.57-1.18c.35.29.59.61.88.89S203.27,154,203.55,154.4Z" transform="translate(0)"/><path class="cls-4" d="M114.63,223.35a4.14,4.14,0,0,1,.54-5.19l.21.5a1.3,1.3,0,0,1-1-.36,4.1,4.1,0,0,1-.61-.65,6.91,6.91,0,0,1-1.38-4.89l.59.26a7.4,7.4,0,0,0-.93,1.58,2.91,2.91,0,0,1-1.5,1.43c-.75.27-1.46-.28-1.79.14a1,1,0,0,0,0,.83,2.15,2.15,0,0,1,.17.94,2.49,2.49,0,0,0-.31-.89,1.16,1.16,0,0,1-.05-1,1,1,0,0,1,1-.36,1.57,1.57,0,0,0,.85-.06,2.45,2.45,0,0,0,1.12-1.28,7.87,7.87,0,0,1,1-1.75l.68-.81-.09,1.06a6.59,6.59,0,0,0,.47,3.07,6.82,6.82,0,0,0,.76,1.37c.29.43.66.84,1,.83l.83,0-.61.53A4.12,4.12,0,0,0,114.63,223.35Z" transform="translate(0)"/><path class="cls-4" d="M115.44,216.29c-.74.5-1.52.86-2.21,1.32a6.16,6.16,0,0,0-1.8,1.73,3.21,3.21,0,0,1,1.51-2.17,5.6,5.6,0,0,1,1.21-.58A6.36,6.36,0,0,1,115.44,216.29Z" transform="translate(0)"/><path class="cls-4" d="M114.13,214.14a1.71,1.71,0,0,1,.12-1.07,1.69,1.69,0,0,1,.73-.81c-.12.36-.29.64-.4,1S114.32,213.82,114.13,214.14Z" transform="translate(0)"/><path class="cls-4" d="M72.47,212.48a2.36,2.36,0,0,0,1.28.43,1.18,1.18,0,0,0,1.09-.28,1.67,1.67,0,0,0,.28-.48s0,0,0-.1a1.42,1.42,0,0,0-.2-.22,3.36,3.36,0,0,0-1.09-.65,9.14,9.14,0,0,1-2.52-1.34,7,7,0,0,1-1-1,1.49,1.49,0,0,1-.33-1.37,1.43,1.43,0,0,0,.57,1.16,10.91,10.91,0,0,0,1.09.8A12.24,12.24,0,0,0,74,210.59a3.94,3.94,0,0,1,1.28.81,1.91,1.91,0,0,1,.24.32.68.68,0,0,1,.11.55,1.68,1.68,0,0,1-.46.7,1.51,1.51,0,0,1-1.53.25A2.18,2.18,0,0,1,72.47,212.48Z" transform="translate(0)"/><path class="cls-4" d="M73.93,210.78a1.81,1.81,0,0,0,1.72,0,1,1,0,0,0,.5-.58c0-.2-.11-.39-.33-.5s-.56-.16-.86-.28a8.93,8.93,0,0,1-.9-.37,9.19,9.19,0,0,1-1.66-1,8.14,8.14,0,0,1-1.35-1.4,3.23,3.23,0,0,1-.75-1.85,4.4,4.4,0,0,1,.23-2,3.87,3.87,0,0,1,.6-.77l.31-.35.16-.18s.05-.06.09-.08.06,0,.06,0,0,.05,0,0,0-.06,0,0l-.06.09-.12.21-.26.39a4,4,0,0,0-.44.8,4.16,4.16,0,0,0,0,1.76,4.81,4.81,0,0,0,2,2.82,8.54,8.54,0,0,0,1.52,1,7.75,7.75,0,0,0,.83.37,5.73,5.73,0,0,1,.9.37.91.91,0,0,1,.49,1,1.33,1.33,0,0,1-.75.76A1.85,1.85,0,0,1,73.93,210.78Z" transform="translate(0)"/><path class="cls-4" d="M79.38,201.59a12,12,0,0,1-2,3.19,26,26,0,0,1-2.67,2.68,35.16,35.16,0,0,1-3,2.27l-1.6,1c-.56.29-1.11.6-1.67.88l3-2.28c1-.78,2-1.52,2.9-2.36A34.23,34.23,0,0,0,77,204.45c.43-.44.85-.9,1.25-1.38A12.65,12.65,0,0,0,79.38,201.59Z" transform="translate(0)"/><path class="cls-4" d="M74.35,203.34a2.13,2.13,0,0,1,.64-1.15,2.08,2.08,0,0,1,1.19-.57c-.3.35-.61.58-.89.88S74.72,203.07,74.35,203.34Z" transform="translate(0)"/><path class="cls-4" d="M102.81,220.45c-2.11-1.91-4.12-3.91-6.13-5.92s-3.94-4.08-5.85-6.17l.84-.4c.23,2,.44,4,.61,6,.08,1,.19,2,.25,3s.14,2,.17,3c-.22-1-.39-2-.58-3s-.34-2-.51-3q-.51-3-.91-6l-.2-1.48,1,1.08q2.94,3.08,5.77,6.26C99.17,216.08,101.05,218.22,102.81,220.45Z" transform="translate(0)"/><path class="cls-4" d="M95.13,215.45c-1,.74-2.06,1.42-3.13,2.06s-2.15,1.26-3.26,1.84l-.39.21.09-.42c.2-.9.4-1.8.67-2.69,0,.93-.16,1.84-.27,2.76l-.3-.21c1.06-.67,2.14-1.29,3.23-1.89S94,216,95.13,215.45Z" transform="translate(0)"/><path class="cls-4" d="M22.69,132.14a12,12,0,0,0-2.15-2.48,2.68,2.68,0,0,0-2.67-.79,2,2,0,0,0-1.08.87.89.89,0,0,1-.57.41.62.62,0,0,1-.45-.1,1,1,0,0,1-.23-.23,1.6,1.6,0,0,0-.19-.25.7.7,0,0,0-.23-.1,1.75,1.75,0,0,0-.71.1c-.21.1-.55-.12-.59-.19a3,3,0,0,1-.32-.3,4.62,4.62,0,0,1-.94-1.42,6.1,6.1,0,0,0,1.2,1.13c.2.14.52.36.5.28a1.89,1.89,0,0,1,.92-.22,1.17,1.17,0,0,1,.55.17,1.69,1.69,0,0,1,.36.37c.09.1.08,0,0,.05s0,0,.06-.12a2.69,2.69,0,0,1,3.34-1.16A4.07,4.07,0,0,1,21,129.21,7.59,7.59,0,0,1,22.69,132.14Z" transform="translate(0)"/><path class="cls-4" d="M16.62,134.2a6.29,6.29,0,0,0-1.17-.88,1.82,1.82,0,0,0-.64-.19,5.4,5.4,0,0,1-.77-.06,2.7,2.7,0,0,1-1.35-.85,3.72,3.72,0,0,1-.72-1.36,8.08,8.08,0,0,0,1,1.1,2.61,2.61,0,0,0,1.2.64,5,5,0,0,0,.73.1,1.64,1.64,0,0,1,.76.31A3.3,3.3,0,0,1,16.62,134.2Z" transform="translate(0)"/><path class="cls-4" d="M8.09,125.65c.34.52.67,1.06,1,1.6A8.35,8.35,0,0,1,9.91,129a2.72,2.72,0,0,1,.07,1.1c0,.35-.11.65-.16.93a7.4,7.4,0,0,0-.06,1.69,3.17,3.17,0,0,0,1.46,2.58,2.12,2.12,0,0,0,1.39.34c.19,0,.6-.14.91-.21a1.52,1.52,0,0,1,1.2.36l-.59.11a2.2,2.2,0,0,0,.21-1.34,2.75,2.75,0,0,1,.1-.85,1.13,1.13,0,0,1,.5-.68,1.66,1.66,0,0,0-.13,1.47,5.07,5.07,0,0,1,.17.83,1.79,1.79,0,0,1-.16,1l-.17.34-.42-.23a.76.76,0,0,0-.55-.07,7.08,7.08,0,0,1-.87.33,3.21,3.21,0,0,1-2.18-.32,4,4,0,0,1-1.56-1.53,4.81,4.81,0,0,1-.54-2,6.37,6.37,0,0,1,.21-2,4.21,4.21,0,0,0,.3-1.62,11.64,11.64,0,0,0-.46-1.72C8.39,126.87,8.23,126.27,8.09,125.65Z" transform="translate(0)"/><path class="cls-4" d="M15.4,153.91a2.39,2.39,0,0,0,.6,1.21,1.21,1.21,0,0,0,1,.58,2.08,2.08,0,0,0,.53-.14s0,0,.05-.11a2.83,2.83,0,0,0,0-.29,3.35,3.35,0,0,0-.32-1.23,9,9,0,0,1-.82-2.73,6.3,6.3,0,0,1,0-1.44,1.45,1.45,0,0,1,.74-1.21,1.44,1.44,0,0,0-.43,1.22,10.36,10.36,0,0,0,.21,1.34,12.9,12.9,0,0,0,.93,2.58,3.86,3.86,0,0,1,.33,1.47,2.9,2.9,0,0,1-.06.41.7.7,0,0,1-.31.46,1.77,1.77,0,0,1-.82.17,1.54,1.54,0,0,1-1.26-.9A2.3,2.3,0,0,1,15.4,153.91Z" transform="translate(0)"/><path class="cls-4" d="M17.63,153.74a1.82,1.82,0,0,0,1.2,1.24,1.06,1.06,0,0,0,.77,0,.48.48,0,0,0,.11-.59c-.08-.23-.28-.51-.41-.81a8.93,8.93,0,0,1-.37-.9,8.8,8.8,0,0,1-.44-1.89,8.58,8.58,0,0,1,0-2A3.31,3.31,0,0,1,19.3,147a4.52,4.52,0,0,1,1.55-1.22,4.22,4.22,0,0,1,1-.12l.47,0h.24a.25.25,0,0,1,.12,0s.05,0,0,0-.05,0,0,0,.06,0,0,0a.25.25,0,0,0-.12,0l-.23,0-.46.11A3.83,3.83,0,0,0,21,146a4.13,4.13,0,0,0-1.27,1.23,4.8,4.8,0,0,0-.57,3.42,8.37,8.37,0,0,0,.35,1.78,8.78,8.78,0,0,0,.33.85,9.06,9.06,0,0,1,.38.9.94.94,0,0,1-.39,1.08,1.33,1.33,0,0,1-1.07,0A1.87,1.87,0,0,1,17.63,153.74Z" transform="translate(0)"/><path class="cls-4" d="M28,151.11a12.2,12.2,0,0,1-3.69.82,26.63,26.63,0,0,1-3.79,0,33.35,33.35,0,0,1-3.74-.54L14.93,151c-.6-.19-1.21-.36-1.8-.56l3.72.5c1.24.15,2.47.33,3.71.39a35.58,35.58,0,0,0,3.72.14c.62,0,1.24,0,1.86-.08A12.83,12.83,0,0,0,28,151.11Z" transform="translate(0)"/><path class="cls-4" d="M23.2,148.79a2.14,2.14,0,0,1,1.27-.36,2.08,2.08,0,0,1,1.24.44c-.45,0-.85,0-1.26,0S23.65,148.85,23.2,148.79Z" transform="translate(0)"/><path class="cls-4" d="M5.59,114.29a4.14,4.14,0,0,1,5.19.54l-.5.22a1.31,1.31,0,0,1,.36-1,4,4,0,0,1,.65-.6,6.44,6.44,0,0,1,1.5-.87,6.91,6.91,0,0,1,3.4-.5l-.26.59a7.25,7.25,0,0,0-1.58-.94,2.87,2.87,0,0,1-1.43-1.5c-.27-.75.28-1.46-.14-1.79a.89.89,0,0,0-.82,0,2.07,2.07,0,0,1-1,.16,2.2,2.2,0,0,0,.89-.31,1.18,1.18,0,0,1,1,0,1,1,0,0,1,.35,1,1.57,1.57,0,0,0,.06.85,2.48,2.48,0,0,0,1.27,1.13,7.86,7.86,0,0,1,1.76,1l.8.69-1.06-.1A6.73,6.73,0,0,0,11.68,114c-.43.3-.84.66-.83,1l0,.82-.53-.61A4.1,4.1,0,0,0,5.59,114.29Z" transform="translate(0)"/><path class="cls-4" d="M12.65,115.11c-.5-.74-.86-1.52-1.32-2.21a6.07,6.07,0,0,0-1.73-1.81,3.2,3.2,0,0,1,2.17,1.52,5.39,5.39,0,0,1,.58,1.21A6.21,6.21,0,0,1,12.65,115.11Z" transform="translate(0)"/><path class="cls-4" d="M14.8,113.8a1.81,1.81,0,0,1,1.88.85c-.36-.12-.64-.28-.95-.4S15.12,114,14.8,113.8Z" transform="translate(0)"/><path class="cls-4" d="M75.23,15.2a2.42,2.42,0,0,0-1.21.59,1.21,1.21,0,0,0-.57,1,1.85,1.85,0,0,0,.13.54s0,0,.11,0a1.46,1.46,0,0,0,.3,0,3.33,3.33,0,0,0,1.22-.31,9,9,0,0,1,2.73-.82,6.38,6.38,0,0,1,1.45,0,1.47,1.47,0,0,1,1.2.74,1.41,1.41,0,0,0-1.22-.42,8.85,8.85,0,0,0-1.34.2,13.18,13.18,0,0,0-2.57.92A3.77,3.77,0,0,1,74,18a2.87,2.87,0,0,1-.41,0,.74.74,0,0,1-.46-.32,1.75,1.75,0,0,1-.17-.82,1.5,1.5,0,0,1,.91-1.25A2.2,2.2,0,0,1,75.23,15.2Z" transform="translate(0)"/><path class="cls-4" d="M75.4,17.43a1.84,1.84,0,0,0-1.25,1.19,1,1,0,0,0,.06.77.48.48,0,0,0,.59.12c.23-.09.51-.28.81-.41a8.93,8.93,0,0,1,.9-.37,8.8,8.8,0,0,1,1.89-.44,8.58,8.58,0,0,1,2,0,3.31,3.31,0,0,1,1.83.78,4.58,4.58,0,0,1,1.22,1.56,4.67,4.67,0,0,1,.12,1l0,.48v.23a.56.56,0,0,1,0,.13s0,0-.06,0,0-.06,0-.05,0,.06,0,0,0-.07,0-.11l-.05-.23-.1-.46a3.92,3.92,0,0,0-.25-.88,4.21,4.21,0,0,0-1.22-1.27,4.81,4.81,0,0,0-3.42-.58,8.37,8.37,0,0,0-1.78.35,8.71,8.71,0,0,0-.85.32,5.94,5.94,0,0,1-.9.38.91.91,0,0,1-1.08-.39,1.3,1.3,0,0,1,0-1.06A1.87,1.87,0,0,1,75.4,17.43Z" transform="translate(0)"/><path class="cls-4" d="M78,27.79a12.19,12.19,0,0,1-.81-3.69,25.24,25.24,0,0,1,0-3.79,33.35,33.35,0,0,1,.54-3.74l.44-1.84c.19-.6.36-1.2.56-1.8l-.51,3.72c-.15,1.24-.33,2.47-.39,3.71a35.61,35.61,0,0,0-.16,3.72c0,.62,0,1.24.08,1.86A12.83,12.83,0,0,0,78,27.79Z" transform="translate(0)"/><path class="cls-4" d="M80.34,23a2.12,2.12,0,0,1,.36,1.27,2.08,2.08,0,0,1-.44,1.24c0-.46,0-.85,0-1.26S80.28,23.46,80.34,23Z" transform="translate(0)"/><path class="cls-4" d="M48.1,30.93c2.84-.14,5.68-.12,8.51-.12s5.67.12,8.51.25l-.32.87q-2.36-1.87-4.67-3.82c-.76-.66-1.55-1.29-2.29-2s-1.52-1.33-2.25-2c.85.54,1.67,1.12,2.5,1.69s1.64,1.17,2.46,1.75c1.64,1.17,3.25,2.37,4.85,3.6l1.18.9-1.5,0c-2.83-.08-5.67-.21-8.5-.37S50.92,31.27,48.1,30.93Z" transform="translate(0)"/><path class="cls-4" d="M57.07,29.07c.19-1.24.46-2.46.76-3.67s.64-2.41,1-3.6l.13-.43.23.36c.49.78,1,1.56,1.42,2.38-.62-.69-1.19-1.42-1.75-2.14l.36-.07c-.28,1.22-.61,2.42-1,3.62S57.53,27.9,57.07,29.07Z" transform="translate(0)"/><path class="cls-4" d="M167.18,37.1a12.06,12.06,0,0,0,3.27.24A2.69,2.69,0,0,0,172.9,36a2,2,0,0,0,.15-1.38,1,1,0,0,1,.11-.7.65.65,0,0,1,.4-.24.85.85,0,0,1,.32,0,1.24,1.24,0,0,0,.32,0,.52.52,0,0,0,.23-.09,1.72,1.72,0,0,0,.43-.57c.08-.22.48-.3.55-.28l.44,0a4.7,4.7,0,0,1,1.67.35,5.69,5.69,0,0,0-1.65,0c-.24,0-.62.11-.55.15a1.92,1.92,0,0,1-.5.8,1.13,1.13,0,0,1-.51.27,1.36,1.36,0,0,1-.51,0c-.14,0-.09,0-.05,0s0,0,.05.12a2.82,2.82,0,0,1-.18,1.87,2.71,2.71,0,0,1-1.38,1.31,4.12,4.12,0,0,1-1.78.29A7.54,7.54,0,0,1,167.18,37.1Z" transform="translate(0)"/><path class="cls-4" d="M170,31.36a6.67,6.67,0,0,0,1.45-.21,1.8,1.8,0,0,0,.58-.31,5,5,0,0,1,.59-.5,2.71,2.71,0,0,1,1.56-.35,3.52,3.52,0,0,1,1.47.46,7.39,7.39,0,0,0-1.47-.09,2.58,2.58,0,0,0-1.31.39,4.94,4.94,0,0,0-.58.44,1.72,1.72,0,0,1-.76.32A3.28,3.28,0,0,1,170,31.36Z" transform="translate(0)"/><path class="cls-4" d="M182.11,31.4c-.61-.13-1.22-.28-1.83-.44a8.14,8.14,0,0,1-1.82-.65,2.88,2.88,0,0,1-.83-.72c-.22-.28-.38-.55-.55-.78a6.75,6.75,0,0,0-1.14-1.24,3.17,3.17,0,0,0-2.86-.8,2.09,2.09,0,0,0-1.22.74c-.12.14-.33.52-.5.79a1.54,1.54,0,0,1-1.11.59l.35-.5c0,.35.4.72.79,1.1a3,3,0,0,1,.53.68,1.16,1.16,0,0,1,.13.83,1.66,1.66,0,0,0-1-1.13,5.8,5.8,0,0,1-.71-.47,1.88,1.88,0,0,1-.58-.82l-.12-.36.46-.14a.72.72,0,0,0,.44-.33,6.92,6.92,0,0,1,.38-.85,3.31,3.31,0,0,1,1.78-1.31,4,4,0,0,1,2.18,0,4.8,4.8,0,0,1,1.82,1.06A6.49,6.49,0,0,1,178,28.21c.37.6.51,1.07.93,1.36a12.42,12.42,0,0,0,1.55.9Q181.3,30.91,182.11,31.4Z" transform="translate(0)"/><path class="cls-4" d="M191.89,37.7A4.13,4.13,0,0,1,187.83,41l.2-.5a1.37,1.37,0,0,1,.43.94,4.31,4.31,0,0,1-.05.89A6.56,6.56,0,0,1,188,44a6.87,6.87,0,0,1-2.05,2.75l-.23-.6a7.75,7.75,0,0,0,1.78-.45,2.9,2.9,0,0,1,2.07.06c.72.34.83,1.23,1.36,1.17a1,1,0,0,0,.62-.55,2,2,0,0,1,.55-.79,2.42,2.42,0,0,0-.42.85,1.15,1.15,0,0,1-.7.76,1,1,0,0,1-1-.47,1.62,1.62,0,0,0-.65-.56,2.48,2.48,0,0,0-1.69.1,7.19,7.19,0,0,1-1.92.55l-1.06.08.82-.68a6.64,6.64,0,0,0,2.29-4c.09-.51.13-1.06-.12-1.3l-.6-.57.8.07A4.12,4.12,0,0,0,191.89,37.7Z" transform="translate(0)"/><path class="cls-4" d="M186.3,42.1c.88.17,1.68.47,2.5.64a6.16,6.16,0,0,0,2.5.06,3.24,3.24,0,0,1-2.61.45,5.4,5.4,0,0,1-1.26-.45A6.26,6.26,0,0,1,186.3,42.1Z" transform="translate(0)"/><path class="cls-4" d="M185.7,44.54a1.76,1.76,0,0,1-.85.67,1.67,1.67,0,0,1-1.08,0c.33-.17.65-.25.95-.38S185.34,44.63,185.7,44.54Z" transform="translate(0)"/><path class="cls-4" d="M198.15,48.15c.13,2.84.11,5.68.1,8.52s-.13,5.67-.27,8.5l-.87-.32c1.25-1.57,2.53-3.13,3.84-4.66.65-.76,1.28-1.54,2-2.29s1.33-1.51,2-2.25c-.54.85-1.13,1.67-1.69,2.5s-1.18,1.64-1.76,2.46c-1.17,1.64-2.38,3.25-3.6,4.84L197,66.63l0-1.5c.08-2.83.21-5.67.38-8.5S197.8,51,198.15,48.15Z" transform="translate(0)"/><path class="cls-4" d="M200,57.12c1.24.2,2.46.47,3.67.77s2.41.65,3.6,1l.42.13-.36.23c-.78.49-1.56,1-2.38,1.42.69-.62,1.42-1.19,2.15-1.75l.06.36c-1.21-.28-2.42-.61-3.61-1S201.16,57.59,200,57.12Z" transform="translate(0)"/><path class="cls-4" d="M113.21,4.17c4.92,5,9.58,10.15,14.2,15.37s9.09,10.55,13.5,15.94l-2.11.85c-.17-2.47-.27-4.93-.4-7.4s-.2-4.94-.3-7.41-.15-4.94-.17-7.41-.05-4.95,0-7.43c.38,2.45.73,4.9,1,7.36s.59,4.91.86,7.36.53,4.92.73,7.38.46,4.92.64,7.38l.25,3.62L139.08,37q-6.78-7.95-13.28-16.13C121.48,15.41,117.21,9.9,113.21,4.17Z" transform="translate(0)"/><path class="cls-4" d="M131.33,17.5c2.59-1.68,5.25-3.21,8-4.64,1.36-.7,2.72-1.42,4.1-2.08s2.76-1.34,4.15-2l1-.46-.28,1c-.3,1.09-.61,2.18-.94,3.26s-.67,2.17-1.07,3.23c.11-1.13.3-2.25.45-3.37s.37-2.23.58-3.35l.71.57c-1.34.73-2.69,1.46-4.06,2.15s-2.74,1.37-4.12,2C137,15.21,134.23,16.44,131.33,17.5Z" transform="translate(0)"/><path class="cls-4" d="M218.93,79c-3.19,6.22-6.68,12.25-10.21,18.26s-7.21,11.92-11,17.78l-1.46-1.74c2.29-.92,4.6-1.78,6.91-2.67s4.63-1.73,7-2.59,4.65-1.67,7-2.46,4.69-1.58,7.06-2.3c-2.2,1.12-4.43,2.21-6.67,3.26s-4.49,2.08-6.73,3.1-4.51,2-6.79,3-4.53,2-6.82,2.9l-3.36,1.36,1.9-3.11q5.45-8.91,11.21-17.62C210.81,90.33,214.72,84.56,218.93,79Z" transform="translate(0)"/><path class="cls-4" d="M211.87,100.34c2.41,1.94,4.68,4,6.88,6.13,1.09,1.07,2.19,2.14,3.25,3.25s2.13,2.21,3.16,3.34l.74.8-1.05,0q-1.69.09-3.39.12c-1.14,0-2.27,0-3.41,0,1.12-.25,2.24-.42,3.35-.62s2.24-.34,3.36-.49l-.31.86c-1.12-1-2.23-2.11-3.31-3.2s-2.15-2.18-3.21-3.29C215.82,105.06,213.78,102.76,211.87,100.34Z" transform="translate(0)"/><path class="cls-4" d="M180.58,202.68c-6.9-1.11-13.72-2.55-20.53-4s-13.56-3.16-20.3-4.92l1.2-1.93c1.59,1.89,3.12,3.83,4.68,5.74s3.08,3.87,4.61,5.8,3,3.91,4.52,5.89,3,4,4.37,6q-2.62-2.62-5.17-5.33c-1.7-1.79-3.37-3.62-5-5.44s-3.32-3.66-4.93-5.53-3.28-3.7-4.87-5.59l-2.34-2.77,3.54.84q10.17,2.43,20.24,5.2C167.27,198.48,174,200.41,180.58,202.68Z" transform="translate(0)"/><path class="cls-4" d="M158.08,202.6c-1.09,2.88-2.35,5.68-3.7,8.43-.68,1.38-1.35,2.75-2.07,4.1s-1.45,2.71-2.2,4l-.53,1-.38-1c-.4-1.06-.79-2.12-1.16-3.19s-.74-2.14-1-3.24c.58,1,1.09,2,1.63,3s1,2,1.51,3.05l-.91,0c.65-1.38,1.31-2.77,2-4.13s1.41-2.72,2.13-4.07C154.82,207.81,156.37,205.16,158.08,202.6Z" transform="translate(0)"/><path class="cls-4" d="M51.09,204.57c-1.1-6.91-1.84-13.84-2.53-20.77S47.36,169.92,47,163l2.2.54c-1.3,2.1-2.67,4.16-4,6.24s-2.73,4.12-4.09,6.18S38.29,180,36.86,182s-2.86,4-4.35,6c1.12-2.22,2.28-4.4,3.47-6.57s2.4-4.33,3.61-6.48,2.45-4.29,3.72-6.41,2.51-4.26,3.81-6.36L49,159.17l.3,3.63c.56,6.94,1,13.89,1.33,20.85S51.19,197.58,51.09,204.57Z" transform="translate(0)"/><path class="cls-4" d="M44.19,183.15c-3.08-.15-6.13-.47-9.17-.9-1.51-.22-3-.43-4.54-.7s-3-.54-4.52-.83l-1.07-.22.82-.66c.88-.71,1.76-1.41,2.67-2.1s1.81-1.36,2.75-2c-.75.85-1.55,1.65-2.33,2.47s-1.61,1.6-2.43,2.38l-.25-.88c1.52.19,3,.39,4.55.63s3,.5,4.54.77C38.22,181.67,41.22,182.32,44.19,183.15Z" transform="translate(0)"/><path class="cls-4" d="M9.14,82c6.23-3.18,12.59-6,19-8.84s12.82-5.44,19.3-8l.17,2.26c-2.4-.59-4.78-1.24-7.17-1.87s-4.77-1.32-7.15-2-4.75-1.37-7.11-2.1-4.73-1.47-7.07-2.26c2.45.37,4.88.8,7.32,1.25s4.85.94,7.27,1.43,4.84,1,7.25,1.55,4.83,1.07,7.22,1.65l3.53.86-3.36,1.41c-6.42,2.69-12.9,5.25-19.41,7.73S15.82,80,9.14,82Z" transform="translate(0)"/><path class="cls-4" d="M27.37,68.84c-.82-3-1.45-6-2-9-.26-1.51-.53-3-.74-4.54s-.43-3-.61-4.56l-.13-1.08.89.57q1.42.93,2.82,1.89c.92.67,1.85,1.3,2.75,2-1.05-.45-2.05-1-3.08-1.46s-2-1-3-1.57L25,50.6c.29,1.5.57,3,.81,4.53s.46,3,.68,4.54C26.93,62.71,27.24,65.76,27.37,68.84Z" transform="translate(0)"/></g><g class="cls-3"><path class="cls-4" d="M148.16,152a5.62,5.62,0,0,0-.53,1.69,1.34,1.34,0,0,0,.35,1.46,1,1,0,0,0,.7.27.49.49,0,0,1,.35.15.4.4,0,0,1,0,.4c-.08.17-.08.17,0,.3a2.39,2.39,0,0,0,.25.32.32.32,0,0,1,.07.31,1.89,1.89,0,0,1-.05.23,2.46,2.46,0,0,1-.4.83,3,3,0,0,0,.19-.87c0-.13,0-.34,0-.32a2.42,2.42,0,0,1-.34-.36.61.61,0,0,1-.08-.3.79.79,0,0,1,.08-.27c0-.07,0-.05,0,0s0,0-.07,0a1.58,1.58,0,0,1-1-.33,1.66,1.66,0,0,1-.4-1.86,4.43,4.43,0,0,1,.33-.88C147.81,152.48,148,152.23,148.16,152Z" transform="translate(0)"/><path class="cls-4" d="M150.81,154.24a3.68,3.68,0,0,0-.09.79c0,.26.16.44.28.73a1.48,1.48,0,0,1,0,.86,2,2,0,0,1-.44.72,2.18,2.18,0,0,0,.21-1.5,1.83,1.83,0,0,1-.23-.81A1.93,1.93,0,0,1,150.81,154.24Z" transform="translate(0)"/><path class="cls-4" d="M149.2,160.59c.14-.3.31-.6.47-.9a4.25,4.25,0,0,1,.58-.87,1.13,1.13,0,0,1,.48-.32l.49-.21a3.64,3.64,0,0,0,.8-.44,1.71,1.71,0,0,0,.8-1.4,1.13,1.13,0,0,0-.23-.74c-.06-.08-.23-.24-.35-.36a.8.8,0,0,1-.16-.66l.21.24a1.27,1.27,0,0,0-.68.27.91.91,0,0,1-.88.15.86.86,0,0,0,.72-.35,1.39,1.39,0,0,1,.84-.51l.21,0v.27a.42.42,0,0,0,.12.27,2.92,2.92,0,0,1,.4.32,1.71,1.71,0,0,1,.45,1.1,2.11,2.11,0,0,1-.28,1.15,2.69,2.69,0,0,1-.79.82,3.86,3.86,0,0,1-1,.46L151,159a.79.79,0,0,0-.38.18C150.12,159.56,149.69,160.14,149.2,160.59Z" transform="translate(0)"/><path class="cls-6" d="M170.24,138.94a60.86,60.86,0,0,1-28.31,29.76,16.93,16.93,0,0,0,0-5.55,16.65,16.65,0,1,0-30.17,12.06,61.22,61.22,0,0,1-40.75-18,16.47,16.47,0,0,0,5.29-1.68,16.65,16.65,0,1,0-20.81-25,60.9,60.9,0,0,1,3-41.26c.46-1,.94-2,1.45-3a16.65,16.65,0,1,0,20.5-23,61.2,61.2,0,0,1,43.82-9.45,16.27,16.27,0,0,0-3.3,4.46,16.65,16.65,0,1,0,31.48,8,61.33,61.33,0,0,1,22.32,38.55,16.65,16.65,0,1,0-3.18,30.66C171.21,136.68,170.74,137.82,170.24,138.94Z" transform="translate(0)"/><path class="cls-4" d="M160.33,149.34a1.42,1.42,0,0,0,.4-.62.59.59,0,0,0,0-.62.94.94,0,0,0-.2-.2s-.11,0-.21.08a1.73,1.73,0,0,0-.48.49,5.59,5.59,0,0,1-1,1.14,4.1,4.1,0,0,1-.66.42.84.84,0,0,1-.77,0c.52.14.89-.31,1.25-.61a5.83,5.83,0,0,0,.94-1.15,2.31,2.31,0,0,1,.6-.56.55.55,0,0,1,.5-.07.79.79,0,0,1,.31.35.82.82,0,0,1-.07.82A1.25,1.25,0,0,1,160.33,149.34Z" transform="translate(0)"/><path class="cls-4" d="M159.63,148.34a1,1,0,0,0,.25-.9.64.64,0,0,0-.24-.34.25.25,0,0,0-.31.12,5.46,5.46,0,0,1-1.34,1.56,2.74,2.74,0,0,1-2,.67,2.27,2.27,0,0,1-1-.38,3.2,3.2,0,0,1-.33-.42l-.15-.21-.07-.11a.33.33,0,0,1,0-.06s.06,0,0,0,0,0,0,0l.09.09.18.19c.11.12.24.22.36.33a2.18,2.18,0,0,0,.92.26,2.6,2.6,0,0,0,1.75-.69,6,6,0,0,0,1.36-1.47.47.47,0,0,1,.6-.12.72.72,0,0,1,.3.49A1,1,0,0,1,159.63,148.34Z" transform="translate(0)"/><path class="cls-4" d="M155.52,144.25a6.44,6.44,0,0,1,1.41,1.49,12.68,12.68,0,0,1,1,1.77,16.4,16.4,0,0,1,.79,1.89,16.93,16.93,0,0,1,.55,2c-.54-1.25-1-2.51-1.65-3.71a16.78,16.78,0,0,0-1-1.77A10.54,10.54,0,0,0,155.52,144.25Z" transform="translate(0)"/><path class="cls-4" d="M155.78,147.13a1.19,1.19,0,0,1-.67-1.2C155.37,146.35,155.56,146.69,155.78,147.13Z" transform="translate(0)"/><path class="cls-4" d="M99.79,171.39a2.25,2.25,0,0,1,1-2.66l0,.29c-.43-.1-.56-.49-.68-.74a4,4,0,0,1-.26-.9,3.64,3.64,0,0,1,.19-1.85l.27.2a4.29,4.29,0,0,0-.7.71,1.54,1.54,0,0,1-1,.55c-.43,0-.73-.34-1-.16s0,.62-.17.95c.08-.33-.23-.69.07-1.06a.54.54,0,0,1,.58-.05,1,1,0,0,0,.45.08,1.32,1.32,0,0,0,.76-.52,4.59,4.59,0,0,1,.75-.79l.44-.31-.18.52a3.93,3.93,0,0,0-.16,1.67,3.89,3.89,0,0,0,.21.83c.1.26.25.53.43.57l.44.09-.4.2A2.22,2.22,0,0,0,99.79,171.39Z" transform="translate(0)"/><path class="cls-4" d="M101.16,167.78c-.45.17-.92.24-1.34.4a3.33,3.33,0,0,0-.61.27,2.68,2.68,0,0,0-.57.4,1.4,1.4,0,0,1,.44-.58,2.3,2.3,0,0,1,.65-.36A3.47,3.47,0,0,1,101.16,167.78Z" transform="translate(0)"/><path class="cls-4" d="M100.76,166.48a1,1,0,0,1,.7-.87C101.22,165.93,101,166.18,100.76,166.48Z" transform="translate(0)"/><path class="cls-4" d="M79.1,160a1.26,1.26,0,0,0,.61.4c.22.08.47.14.62,0a1,1,0,0,0,.21-.2.55.55,0,0,0-.08-.21,1.77,1.77,0,0,0-.5-.48,5.34,5.34,0,0,1-1.13-1.05,4.1,4.1,0,0,1-.42-.66.81.81,0,0,1,0-.77c-.14.52.31.9.61,1.26a6.56,6.56,0,0,0,1.14.94,1.9,1.9,0,0,1,.56.6.57.57,0,0,1,.08.5.78.78,0,0,1-.36.3.8.8,0,0,1-.82-.06A1.3,1.3,0,0,1,79.1,160Z" transform="translate(0)"/><path class="cls-4" d="M80.09,159.31a1,1,0,0,0,.9.24.52.52,0,0,0,.34-.24.23.23,0,0,0-.11-.3,5.46,5.46,0,0,1-1.56-1.34,2.77,2.77,0,0,1-.67-2,2.17,2.17,0,0,1,.39-1c.14-.11.27-.24.41-.33l.21-.14.11-.07.06,0s0,0,0,0,0,0-.05,0l-.09.09-.19.17c-.13.12-.23.25-.34.37a2.13,2.13,0,0,0-.25.91,2.57,2.57,0,0,0,.68,1.76,5.67,5.67,0,0,0,1.47,1.36.5.5,0,0,1,.12.6.76.76,0,0,1-.5.3A1,1,0,0,1,80.09,159.31Z" transform="translate(0)"/><path class="cls-4" d="M84.19,155.21a6.39,6.39,0,0,1-1.49,1.4,12.68,12.68,0,0,1-1.77,1,19.36,19.36,0,0,1-1.89.79,17,17,0,0,1-2,.54c1.26-.54,2.52-1,3.72-1.64a18.83,18.83,0,0,0,1.77-1A11.17,11.17,0,0,0,84.19,155.21Z" transform="translate(0)"/><path class="cls-4" d="M81.32,155.45a1.18,1.18,0,0,1,1.19-.66A12.71,12.71,0,0,1,81.32,155.45Z" transform="translate(0)"/><path class="cls-4" d="M94,168.27c-.85-1.29-1.63-2.61-2.42-3.93s-1.53-2.67-2.24-4l.48-.09c-.15,1.08-.29,2.16-.48,3.24s-.36,2.15-.59,3.22c.05-1.09.13-2.18.23-3.27s.21-2.17.33-3.25l.09-.77.39.68c.77,1.33,1.47,2.7,2.2,4.05S93.34,166.86,94,168.27Z" transform="translate(0)"/><path class="cls-4" d="M90.6,164.61a29,29,0,0,1-3.88,1.19l-.23.06.1-.21c.22-.45.46-.89.71-1.32q-.22.72-.51,1.41l-.13-.15A29.84,29.84,0,0,1,90.6,164.61Z" transform="translate(0)"/><path class="cls-4" d="M63.76,111.09a6,6,0,0,0-.82-1.57,1.34,1.34,0,0,0-1.28-.79,1.11,1.11,0,0,0-.69.3.47.47,0,0,1-.34.15.42.42,0,0,1-.32-.26c-.06-.18-.06-.18-.17-.25a3.34,3.34,0,0,0-.4,0,.33.33,0,0,1-.27-.17l-.13-.2a2.6,2.6,0,0,1-.31-.87,3.84,3.84,0,0,0,.48.75c.09.1.21.27.24.22a2.13,2.13,0,0,1,.5,0,.69.69,0,0,1,.27.16.72.72,0,0,1,.13.24c0,.07,0,0,0,0s0,0,.05-.05a1.46,1.46,0,0,1,.91-.44,1.67,1.67,0,0,1,1.6,1,4,4,0,0,1,.38.84C63.66,110.49,63.72,110.8,63.76,111.09Z" transform="translate(0)"/><path class="cls-4" d="M60.29,111.36a3.47,3.47,0,0,0-.5-.62c-.18-.18-.42-.2-.7-.32a1.46,1.46,0,0,1-.6-.63,2,2,0,0,1-.19-.81,2.19,2.19,0,0,0,.91,1.21c.2.11.54.16.72.41A1.83,1.83,0,0,1,60.29,111.36Z" transform="translate(0)"/><path class="cls-4" d="M57,105.72c.12.32.2.65.3,1a4.28,4.28,0,0,1,.21,1,1.13,1.13,0,0,1-.12.56,4,4,0,0,1-.2.5,4.19,4.19,0,0,0-.26.88,1.73,1.73,0,0,0,.42,1.55,1.15,1.15,0,0,0,.69.37h.5a.85.85,0,0,1,.59.35l-.33,0a1.35,1.35,0,0,0,.3-.68c.07-.28.2-.63.51-.72a.91.91,0,0,0-.27.76,1.35,1.35,0,0,1-.23,1l-.13.16-.2-.18a.43.43,0,0,0-.28-.11,4.29,4.29,0,0,1-.5.06,1.7,1.7,0,0,1-1.1-.47,2.11,2.11,0,0,1-.61-1,2.59,2.59,0,0,1,0-1.14,3.77,3.77,0,0,1,.38-1l.23-.42a.94.94,0,0,0,.15-.4C57,107.1,56.93,106.39,57,105.72Z" transform="translate(0)"/><path class="cls-4" d="M57,121.55a1.48,1.48,0,0,0,.15.72c.1.21.24.42.45.42a.58.58,0,0,0,.29,0s.06-.09.09-.2a1.79,1.79,0,0,0,0-.69,5.34,5.34,0,0,1-.06-1.55,4.39,4.39,0,0,1,.18-.76.77.77,0,0,1,.55-.53c-.47.26-.42.85-.46,1.32a6.15,6.15,0,0,0,.14,1.47,2.07,2.07,0,0,1,0,.82c-.05.11-.08.32-.3.41a.81.81,0,0,1-.47,0c-.31-.06-.46-.39-.53-.63A1.26,1.26,0,0,1,57,121.55Z" transform="translate(0)"/><path class="cls-4" d="M58.19,121.76a1,1,0,0,0,.46.82.57.57,0,0,0,.41.07.25.25,0,0,0,.14-.3,5.36,5.36,0,0,1-.16-2,2.78,2.78,0,0,1,.94-1.88,2.41,2.41,0,0,1,1-.43c.18,0,.36,0,.53.06l.25,0,.12,0a.11.11,0,0,1,.07,0s0,.06,0,0,0,0,0,0h-.39c-.17,0-.33,0-.49,0a2.17,2.17,0,0,0-.83.47,2.61,2.61,0,0,0-.76,1.72,6.17,6.17,0,0,0,.07,2,.47.47,0,0,1-.34.51.77.77,0,0,1-.56-.14A1,1,0,0,1,58.19,121.76Z" transform="translate(0)"/><path class="cls-4" d="M64,121.77a6.71,6.71,0,0,1-2.05-.06,14.88,14.88,0,0,1-2-.51,18.55,18.55,0,0,1-1.9-.79,15.65,15.65,0,0,1-1.78-1c1.27.51,2.51,1,3.79,1.47.63.23,1.28.41,1.93.58A11.26,11.26,0,0,0,64,121.77Z" transform="translate(0)"/><path class="cls-4" d="M61.78,119.91a1.17,1.17,0,0,1,1.31.38A12.22,12.22,0,0,1,61.78,119.91Z" transform="translate(0)"/><path class="cls-4" d="M57.17,99.41a2.24,2.24,0,0,1,2.65,1l-.29,0c.11-.43.49-.55.75-.68A3.77,3.77,0,0,1,63,99.7l-.21.27a4,4,0,0,0-.71-.71,1.52,1.52,0,0,1-.54-1c0-.43.34-.73.16-1s-.62,0-.95-.18c.34.08.7-.22,1.07.08a.52.52,0,0,1,0,.58.94.94,0,0,0-.08.45,1.35,1.35,0,0,0,.52.76,4.59,4.59,0,0,1,.79.75l.31.44-.52-.18a3.83,3.83,0,0,0-1.68-.16,3.3,3.3,0,0,0-.82.21c-.27.1-.53.24-.57.42l-.1.44-.19-.39A2.24,2.24,0,0,0,57.17,99.41Z" transform="translate(0)"/><path class="cls-4" d="M60.77,100.79c-.17-.45-.23-.91-.39-1.33a3.42,3.42,0,0,0-.27-.62,2.68,2.68,0,0,0-.4-.57,1.35,1.35,0,0,1,.58.45,2.39,2.39,0,0,1,.36.64A3.33,3.33,0,0,1,60.77,100.79Z" transform="translate(0)"/><path class="cls-4" d="M62.08,100.4a1,1,0,0,1,.87.7C62.63,100.86,62.38,100.66,62.08,100.4Z" transform="translate(0)"/><path class="cls-4" d="M107.09,56.73a1.25,1.25,0,0,0-.71.15c-.22.09-.43.23-.43.44a1,1,0,0,0,0,.29s.1.06.21.09a2,2,0,0,0,.69,0,5.27,5.27,0,0,1,1.54-.06,4.91,4.91,0,0,1,.76.17.81.81,0,0,1,.53.56c-.26-.47-.84-.43-1.31-.47a6.24,6.24,0,0,0-1.48.14,2.08,2.08,0,0,1-.82,0c-.11,0-.31-.08-.4-.31a.78.78,0,0,1,0-.46c.07-.31.4-.46.63-.53A1.19,1.19,0,0,1,107.09,56.73Z" transform="translate(0)"/><path class="cls-4" d="M106.88,57.92a1,1,0,0,0-.81.46.53.53,0,0,0-.08.41.26.26,0,0,0,.3.14,5.36,5.36,0,0,1,2-.15,2.78,2.78,0,0,1,1.88.94,2.41,2.41,0,0,1,.43,1,4.08,4.08,0,0,1-.07.52l0,.26,0,.12s0,0,0,.06-.06,0,0,0,0,0,0,0v-.39c0-.17,0-.33,0-.49a2.1,2.1,0,0,0-.47-.83,2.62,2.62,0,0,0-1.72-.77,6.17,6.17,0,0,0-2,.07.48.48,0,0,1-.51-.34.75.75,0,0,1,.14-.56A1,1,0,0,1,106.88,57.92Z" transform="translate(0)"/><path class="cls-4" d="M106.86,63.72a6.42,6.42,0,0,1,.07-2,13.5,13.5,0,0,1,.51-2,19.77,19.77,0,0,1,.79-1.89,16.41,16.41,0,0,1,1-1.78c-.51,1.27-1.06,2.5-1.48,3.78a18.61,18.61,0,0,0-.58,1.93A11.28,11.28,0,0,0,106.86,63.72Z" transform="translate(0)"/><path class="cls-4" d="M108.73,61.52a1.19,1.19,0,0,1-.38,1.3A12,12,0,0,1,108.73,61.52Z" transform="translate(0)"/><path class="cls-4" d="M90.72,61.34c1.51.31,3,.7,4.49,1.09s3,.81,4.43,1.28l-.27.4c-.66-.87-1.32-1.74-2-2.63s-1.25-1.79-1.85-2.71c.74.81,1.45,1.64,2.15,2.48s1.37,1.69,2,2.55l.48.6-.75-.2c-1.49-.4-3-.89-4.42-1.33S92.16,61.9,90.72,61.34Z" transform="translate(0)"/><path class="cls-4" d="M95.68,61.57A29.25,29.25,0,0,1,97.6,58l.12-.21.08.22c.15.48.3,1,.42,1.44-.22-.44-.43-.9-.63-1.36l.2,0A29.46,29.46,0,0,1,95.68,61.57Z" transform="translate(0)"/><path class="cls-4" d="M152.45,80.6a5.67,5.67,0,0,0,1.69.55,1.35,1.35,0,0,0,1.46-.34,1.12,1.12,0,0,0,.28-.71.45.45,0,0,1,.14-.34.39.39,0,0,1,.41,0c.17.08.17.08.3,0a3.29,3.29,0,0,0,.32-.24.32.32,0,0,1,.31-.07l.23,0a2.68,2.68,0,0,1,.83.41,3.42,3.42,0,0,0-.87-.2c-.14,0-.34,0-.32,0a3,3,0,0,1-.36.34.62.62,0,0,1-.31.08,1,1,0,0,1-.27-.08c-.06,0,0,0,0,0s0,0,0,.07a1.47,1.47,0,0,1-.33,1,1.65,1.65,0,0,1-1.87.39,4.34,4.34,0,0,1-.87-.33C152.94,81,152.69,80.79,152.45,80.6Z" transform="translate(0)"/><path class="cls-4" d="M154.72,78a3.68,3.68,0,0,0,.79.09,2,2,0,0,0,.73-.27,1.44,1.44,0,0,1,.87,0,2,2,0,0,1,.7.43,2.21,2.21,0,0,0-1.49-.21c-.22.06-.5.27-.81.22A1.8,1.8,0,0,1,154.72,78Z" transform="translate(0)"/><path class="cls-4" d="M161.06,79.62c-.3-.15-.59-.32-.89-.48a4.31,4.31,0,0,1-.88-.58,1.27,1.27,0,0,1-.31-.48c-.07-.16-.16-.36-.21-.5a3.61,3.61,0,0,0-.43-.8,1.72,1.72,0,0,0-1.4-.81,1.13,1.13,0,0,0-.74.23c-.08,0-.24.23-.36.34a.81.81,0,0,1-.67.16l.25-.21a1.32,1.32,0,0,0,.27.69.91.91,0,0,1,.14.88.9.9,0,0,0-.34-.73,1.35,1.35,0,0,1-.51-.84l0-.21h.27a.38.38,0,0,0,.27-.12,2.92,2.92,0,0,1,.32-.39,1.72,1.72,0,0,1,1.11-.45,2.12,2.12,0,0,1,1.15.29,2.69,2.69,0,0,1,.81.8,3.52,3.52,0,0,1,.45,1l.13.45a.79.79,0,0,0,.18.39C160,78.69,160.61,79.13,161.06,79.62Z" transform="translate(0)"/><path class="cls-4" d="M165.36,84.25a2.26,2.26,0,0,1-2.58,1.17l.17-.24a1,1,0,0,1,0,1,4.07,4.07,0,0,1-.45.82A3.57,3.57,0,0,1,161,88.17l0-.33a4.67,4.67,0,0,0,1,0,1.53,1.53,0,0,1,1.08.31c.34.27.28.76.56.79s.47-.4.8-.54c-.3.17-.34.64-.81.69-.24,0-.38-.22-.44-.37a.85.85,0,0,0-.26-.38,1.35,1.35,0,0,0-.91-.18,4.77,4.77,0,0,1-1.08,0l-.54-.1.5-.24a3.71,3.71,0,0,0,1.3-1.06,3.63,3.63,0,0,0,.44-.73c.12-.26.2-.55.11-.7l-.25-.38.42.14A2.25,2.25,0,0,0,165.36,84.25Z" transform="translate(0)"/><path class="cls-4" d="M161.83,85.81c.44.2.81.48,1.22.67a4.35,4.35,0,0,0,.63.25,2.93,2.93,0,0,0,.68.12,1.51,1.51,0,0,1-.73.09,2.18,2.18,0,0,1-.7-.21A3.28,3.28,0,0,1,161.83,85.81Z" transform="translate(0)"/><path class="cls-4" d="M161.18,87a1,1,0,0,1-1.11.11A10.43,10.43,0,0,1,161.18,87Z" transform="translate(0)"/><path class="cls-4" d="M167.24,90.58c-.32,1.51-.71,3-1.1,4.49s-.82,3-1.29,4.42l-.4-.27c.87-.66,1.74-1.32,2.64-1.94s1.78-1.25,2.7-1.85c-.81.74-1.64,1.45-2.48,2.14s-1.69,1.38-2.55,2.05l-.61.48.21-.75c.4-1.49.89-2.95,1.34-4.42S166.67,92,167.24,90.58Z" transform="translate(0)"/><path class="cls-4" d="M167,95.54a29.88,29.88,0,0,1,3.57,1.92l.21.13-.22.07q-.72.24-1.44.42c.45-.22.9-.43,1.36-.63l0,.2A28.55,28.55,0,0,1,167,95.54Z" transform="translate(0)"/><path class="cls-4" d="M128.53,56c1,1.64,1.86,3.3,2.77,5s1.76,3.35,2.62,5c1.7,3.37,3.36,6.76,5,10.19l-1.22.16c.5-2.63,1-5.25,1.62-7.87.3-1.31.58-2.62.91-3.92s.63-2.61,1-3.9c-.12,1.34-.3,2.67-.45,4s-.35,2.66-.54,4q-.58,4-1.27,7.94l-.34,1.95-.88-1.79c-1.66-3.39-3.26-6.82-4.81-10.26-.76-1.73-1.52-3.46-2.25-5.21S129.19,57.82,128.53,56Z" transform="translate(0)"/><path class="cls-4" d="M136.26,65.49a69.09,69.09,0,0,1,9.68-2.39l.58-.11-.28.5c-.6,1.07-1.24,2.12-1.92,3.14.43-1.15.92-2.28,1.44-3.39l.3.39A70.85,70.85,0,0,1,136.26,65.49Z" transform="translate(0)"/><path class="cls-4" d="M174,109.57c-1.25,1.42-2.55,2.79-3.85,4.17s-2.63,2.71-4,4.05q-4,4-8.16,7.87l-.53-1.11c2.65-.34,5.32-.64,8-.9,1.34-.12,2.67-.26,4-.35s2.68-.21,4-.27c-1.31.31-2.63.55-3.94.82s-2.64.49-4,.73q-4,.67-7.94,1.25l-2,.28,1.44-1.39q4.06-3.94,8.26-7.75c1.41-1.27,2.82-2.53,4.25-3.76S172.52,110.75,174,109.57Z" transform="translate(0)"/><path class="cls-4" d="M167.42,119.84a70.8,70.8,0,0,1,5.28,8.47l.28.52-.56-.11c-1.21-.24-2.4-.52-3.59-.86,1.23.06,2.46.17,3.67.32l-.28.41A71.31,71.31,0,0,1,167.42,119.84Z" transform="translate(0)"/><path class="cls-4" d="M137.21,169.4c-1.74-.75-3.44-1.57-5.15-2.37s-3.4-1.67-5.09-2.52c-3.36-1.72-6.7-3.48-10-5.31l.89-.85q1.71,3.63,3.33,7.31c.53,1.23,1.07,2.46,1.57,3.7s1,2.48,1.5,3.74c-.7-1.15-1.34-2.33-2-3.5s-1.28-2.35-1.92-3.53c-1.24-2.37-2.47-4.76-3.65-7.16l-.88-1.78,1.77.93q5,2.64,9.93,5.45c1.64,1,3.27,1.9,4.89,2.87S135.63,168.36,137.21,169.4Z" transform="translate(0)"/><path class="cls-4" d="M125.4,166.33A71,71,0,0,1,119,174l-.41.42-.07-.56c-.14-1.22-.24-2.45-.29-3.68.32,1.19.6,2.39.83,3.59l-.47-.14A71,71,0,0,1,125.4,166.33Z" transform="translate(0)"/><path class="cls-4" d="M68.93,153c.17-1.89.42-3.77.65-5.64s.53-3.74.82-5.61c.59-3.73,1.23-7.46,1.95-11.17l1.08.59c-1.94,1.84-3.92,3.65-5.92,5.43-1,.89-2,1.78-3,2.65s-2,1.74-3.09,2.58c.88-1,1.8-2,2.71-3s1.84-1.95,2.76-2.92q2.81-2.9,5.68-5.7L74,128.82l-.34,2c-.63,3.72-1.34,7.43-2.1,11.13-.4,1.85-.79,3.7-1.22,5.54S69.43,151.14,68.93,153Z" transform="translate(0)"/><path class="cls-4" d="M68.19,140.79a69.48,69.48,0,0,1-9.26-3.74l-.53-.25.52-.24c1.11-.51,2.25-1,3.4-1.42-1,.68-2.08,1.31-3.15,1.91l0-.5A70.08,70.08,0,0,1,68.19,140.79Z" transform="translate(0)"/><path class="cls-4" d="M63.38,83c1.85-.42,3.71-.77,5.56-1.12s3.73-.66,5.59-1q5.59-.89,11.22-1.6l-.22,1.21q-3.52-1.92-7-4c-1.16-.68-2.32-1.35-3.46-2.06s-2.29-1.4-3.41-2.14c1.24.52,2.45,1.1,3.68,1.65S77.76,75.12,79,75.7c2.41,1.18,4.8,2.38,7.17,3.63l1.76.92-2,.29c-3.73.55-7.48,1-11.24,1.45-1.87.2-3.75.4-5.64.56S65.27,82.86,63.38,83Z" transform="translate(0)"/><path class="cls-4" d="M74.73,78.47a70.39,70.39,0,0,1,.68-10l.08-.59.39.42c.83.9,1.63,1.83,2.4,2.8-1-.77-1.89-1.58-2.79-2.41l.46-.17A70.27,70.27,0,0,1,74.73,78.47Z" transform="translate(0)"/></g></g></g></g></svg>