<svg xmlns="http://www.w3.org/2000/svg" viewBox="0 0 273.7 329.38"><defs><style>.cls-1{fill:none;stroke:#866bc6;stroke-miterlimit:10;stroke-width:4.38px;}.cls-2{fill:#866bc6;}</style></defs><title>Ресурс 63</title><g id="Слой_2" data-name="Слой 2"><g id="Слой_1-2" data-name="Слой 1"><path class="cls-1" d="M191.37,69.36a134.66,134.66,0,1,1-109.54.22"/><path class="cls-2" d="M212.09,86.27a4.68,4.68,0,0,1-1.18,3A5,5,0,0,1,208,91l.14-.64a1.6,1.6,0,0,1,.69,1,5,5,0,0,1,.13,1.06,7.94,7.94,0,0,1-.18,2.06,8.22,8.22,0,0,1-1.85,3.66l-.4-.66a9,9,0,0,0,2-.9,3.41,3.41,0,0,1,2.44-.35c.92.25,1.24,1.28,1.85,1.1a1.18,1.18,0,0,0,.61-.78,2.43,2.43,0,0,1,.49-1,2.87,2.87,0,0,0-.32,1.09,1.37,1.37,0,0,1-.66,1,.92.92,0,0,1-.71,0,2.56,2.56,0,0,1-.53-.35,1.83,1.83,0,0,0-.87-.52,2.91,2.91,0,0,0-2,.46,9.43,9.43,0,0,1-2.16,1l-1.22.31.83-1A8,8,0,0,0,208,94.27a8.82,8.82,0,0,0,.21-1.85c0-.63-.07-1.28-.41-1.51l-.83-.54,1-.09A4.93,4.93,0,0,0,212.09,86.27Z"/><path class="cls-2" d="M206.42,92.6c1.07,0,2.07.21,3.07.23a7.38,7.38,0,0,0,2.95-.43,3.82,3.82,0,0,1-3,1.06A7.3,7.3,0,0,1,206.42,92.6Z"/><path class="cls-2" d="M206.21,95.6a2.11,2.11,0,0,1-.86,1,2,2,0,0,1-1.26.28c.36-.26.71-.42,1-.64S205.8,95.78,206.21,95.6Z"/><path class="cls-2" d="M241.46,153.14a14.36,14.36,0,0,0,3,2.49,3.21,3.21,0,0,0,3.3.39,2.39,2.39,0,0,0,1.1-1.24,1.08,1.08,0,0,1,.58-.6.76.76,0,0,1,.56,0,1,1,0,0,1,.31.22,3.55,3.55,0,0,0,.28.26.62.62,0,0,0,.29.07,2.08,2.08,0,0,0,.82-.26c.23-.16.67,0,.73.1l.44.29a5.74,5.74,0,0,1,1.39,1.48,7.27,7.27,0,0,0-1.64-1.08c-.26-.13-.69-.32-.64-.23a2.37,2.37,0,0,1-1,.44,1.25,1.25,0,0,1-.68-.09,2,2,0,0,1-.5-.36c-.13-.1-.11,0,0-.05s0,0,0,.14a3.3,3.3,0,0,1-1.46,1.71,3.23,3.23,0,0,1-2.25.33,4.81,4.81,0,0,1-1.94-.94A9.07,9.07,0,0,1,241.46,153.14Z"/><path class="cls-2" d="M248.2,149.49a7.44,7.44,0,0,0,1.56.8,1.92,1.92,0,0,0,.79.08,6.24,6.24,0,0,1,.91-.07,3.09,3.09,0,0,1,1.77.73,4.27,4.27,0,0,1,1.12,1.46,8.76,8.76,0,0,0-1.38-1.1,3.53,3.53,0,0,0-1.54-.52c-.25,0-.57,0-.87,0a2.08,2.08,0,0,1-1-.21A4,4,0,0,1,248.2,149.49Z"/><path class="cls-2" d="M260,157.84c-.51-.54-1-1.11-1.48-1.69a9.37,9.37,0,0,1-1.34-1.89,3.12,3.12,0,0,1-.31-1.27c0-.43,0-.8,0-1.13a8.18,8.18,0,0,0-.27-2,3.77,3.77,0,0,0-2.24-2.75,2.51,2.51,0,0,0-1.7-.12c-.27.06-.52.25-1,.43a1.77,1.77,0,0,1-1.49-.19l.68-.25a2.61,2.61,0,0,0,0,1.62,3,3,0,0,1,.05,1,1.34,1.34,0,0,1-.44.9,1.35,1.35,0,0,0,.13-.9,3.93,3.93,0,0,0-.28-.86,6.82,6.82,0,0,1-.37-.94,2.21,2.21,0,0,1,0-1.2l.14-.44.54.19a.83.83,0,0,0,.66,0c.18-.08.52-.37,1-.56a3.84,3.84,0,0,1,2.65-.06,4.61,4.61,0,0,1,2.13,1.49A5.86,5.86,0,0,1,258,149.5a8.13,8.13,0,0,1,.15,2.4,4.92,4.92,0,0,0,0,2,14.18,14.18,0,0,0,.89,1.93C259.37,156.47,259.68,157.15,260,157.84Z"/><path class="cls-2" d="M245.67,126a2.94,2.94,0,0,0-.95-1.3,1.45,1.45,0,0,0-1.26-.48,1.89,1.89,0,0,0-.6.27s0,0,0,.14a1.45,1.45,0,0,0,0,.35,3.83,3.83,0,0,0,.62,1.38c.27.46.61.93.87,1.45a8.22,8.22,0,0,1,.64,1.6,7.33,7.33,0,0,1,.33,1.69,1.76,1.76,0,0,1-.63,1.57,1.7,1.7,0,0,0,.26-1.52,12.12,12.12,0,0,0-.52-1.54,14.72,14.72,0,0,0-1.61-2.85,4.52,4.52,0,0,1-.68-1.67,2.64,2.64,0,0,1,0-.49.85.85,0,0,1,.27-.61,2.09,2.09,0,0,1,.94-.36,1.82,1.82,0,0,1,1.66.81A2.74,2.74,0,0,1,245.67,126Z"/><path class="cls-2" d="M243.07,126.67a2.16,2.16,0,0,0-1.66-1.22,1.19,1.19,0,0,0-.89.23.56.56,0,0,0,0,.71c.15.26.43.55.65.87a9.08,9.08,0,0,1,.63,1,10.37,10.37,0,0,1,.89,2.15,10,10,0,0,1,.37,2.31,4.36,4.36,0,0,1-.55,2.33,7.65,7.65,0,0,1-.7.94,3,3,0,0,1-.9.79,4.86,4.86,0,0,1-1.11.34l-.55.13-.28.06-.15,0s-.06,0,0-.07.06,0,.05,0-.06,0,0,0l.12-.05.26-.11.53-.21a5.24,5.24,0,0,0,1-.47,2.73,2.73,0,0,0,.7-.77,7.66,7.66,0,0,0,.57-.92,6.16,6.16,0,0,0,0-4.15,10.33,10.33,0,0,0-.79-2,8.78,8.78,0,0,0-.54-.94,10.12,10.12,0,0,1-.63-1,1.46,1.46,0,0,1-.12-.69,1,1,0,0,1,.36-.66,1.64,1.64,0,0,1,1.26-.22A2.25,2.25,0,0,1,243.07,126.67Z"/><path class="cls-2" d="M231.4,131.87a14.12,14.12,0,0,1,4.18-1.71,27,27,0,0,1,4.47-.77,35.76,35.76,0,0,1,4.51-.12l2.26.14c.74.1,1.49.17,2.23.3l-4.48.15c-1.49.09-3,.14-4.45.3s-3,.32-4.41.57c-.73.13-1.46.28-2.17.47A14.73,14.73,0,0,0,231.4,131.87Z"/><path class="cls-2" d="M237.51,133.63a2.49,2.49,0,0,1-1.42.68,2.4,2.4,0,0,1-1.55-.27c.53-.12,1-.16,1.48-.24S237,133.66,237.51,133.63Z"/><path class="cls-2" d="M265.21,170.73a4.74,4.74,0,0,1-3,1.3,5.05,5.05,0,0,1-3.24-.9l.54-.35a1.55,1.55,0,0,1-.23,1.21,5.06,5.06,0,0,1-.65.84,8,8,0,0,1-1.59,1.32,8.2,8.2,0,0,1-3.9,1.28l.19-.75a8.94,8.94,0,0,0,2.05.79,3.42,3.42,0,0,1,2,1.48c.47.83,0,1.78.52,2.08a1.15,1.15,0,0,0,1-.12,2.75,2.75,0,0,1,1.08-.39,3,3,0,0,0-1,.55,1.38,1.38,0,0,1-1.21.26.83.83,0,0,1-.49-.5,1.86,1.86,0,0,1-.13-.62,1.77,1.77,0,0,0-.25-1,2.86,2.86,0,0,0-1.72-1.07,9.5,9.5,0,0,1-2.26-.78l-1.08-.65,1.27-.1a8,8,0,0,0,3.51-1.17,7.82,7.82,0,0,0,1.47-1.16c.44-.44.85-.95.77-1.35l-.19-1,.74.61A4.91,4.91,0,0,0,265.21,170.73Z"/><path class="cls-2" d="M256.72,171.18c.75.77,1.32,1.62,2,2.34a7.41,7.41,0,0,0,2.4,1.78,3.82,3.82,0,0,1-2.86-1.35A7.22,7.22,0,0,1,256.72,171.18Z"/><path class="cls-2" d="M254.45,173.15a2.12,2.12,0,0,1-2.38-.62c.44.07.81.2,1.2.28S254,173,254.45,173.15Z"/><path class="cls-2" d="M221.61,97.28c.37,1.66.69,3.32,1,5s.59,3.34.86,5c.53,3.35,1,6.7,1.44,10.07l-1.09-.2c2.31-4.22,4.7-8.39,7.32-12.44-1.93,4.42-4.07,8.73-6.29,13l-.83,1.58-.26-1.78q-.74-5-1.3-10.08c-.18-1.69-.35-3.37-.5-5.06S221.69,99,221.61,97.28Z"/><path class="cls-2" d="M225.63,107.46c1.5,0,3,0,4.48.15s3,.26,4.45.46l.52.08-.37.34c-.82.74-1.64,1.48-2.51,2.16.68-.87,1.42-1.69,2.16-2.51l.15.42c-1.49-.08-3-.22-4.46-.39S227.1,107.77,225.63,107.46Z"/><path class="cls-2" d="M238.62,238.75a14.51,14.51,0,0,0,.39,3.91,3.2,3.2,0,0,0,2.05,2.61,2.44,2.44,0,0,0,1.66-.09,1,1,0,0,1,.84,0,.83.83,0,0,1,.37.42,1.18,1.18,0,0,1,.06.38,1.64,1.64,0,0,0,0,.38.56.56,0,0,0,.15.25,2,2,0,0,0,.76.4c.28,0,.45.49.44.59a4.64,4.64,0,0,1,.11.51,5.82,5.82,0,0,1-.07,2,6.9,6.9,0,0,0-.39-1.93c-.09-.28-.26-.72-.29-.62a2.35,2.35,0,0,1-1-.42,1.49,1.49,0,0,1-.43-.55,1.74,1.74,0,0,1-.09-.61c0-.16,0-.1,0-.05s0,0-.13.07a3.34,3.34,0,0,1-2.25.17,3.24,3.24,0,0,1-1.82-1.36,4.83,4.83,0,0,1-.7-2A9,9,0,0,1,238.62,238.75Z"/><path class="cls-2" d="M246,240.94a8.17,8.17,0,0,0,.54,1.67,2,2,0,0,0,.5.62,6.07,6.07,0,0,1,.7.6,3.09,3.09,0,0,1,.73,1.76,4.51,4.51,0,0,1-.24,1.83,10,10,0,0,0-.2-1.76,3.36,3.36,0,0,0-.72-1.45,6.37,6.37,0,0,0-.65-.59,2.16,2.16,0,0,1-.52-.84A4,4,0,0,1,246,240.94Z"/><path class="cls-2" d="M248.37,255.18c0-.75.08-1.5.16-2.24a9.61,9.61,0,0,1,.38-2.29,3.43,3.43,0,0,1,.69-1.12c.28-.31.56-.56.8-.8a8.07,8.07,0,0,0,1.23-1.59,3.8,3.8,0,0,0,.36-3.53,2.5,2.5,0,0,0-1.12-1.29c-.23-.15-.54-.19-1-.42a1.83,1.83,0,0,1-.92-1.19l.66.3c-.41.1-.78.62-1.14,1.16a3.55,3.55,0,0,1-.69.76,1.37,1.37,0,0,1-.95.32,1.32,1.32,0,0,0,.72-.54,4.15,4.15,0,0,0,.42-.81,6.15,6.15,0,0,1,.41-.93,2.09,2.09,0,0,1,.83-.84l.41-.22.25.52a.88.88,0,0,0,.49.44,9.69,9.69,0,0,1,1.07.28,3.83,3.83,0,0,1,1.91,1.83,4.69,4.69,0,0,1,.45,2.56,5.85,5.85,0,0,1-.87,2.36,7.92,7.92,0,0,1-1.59,1.81c-.63.54-1.15.81-1.42,1.37a13.28,13.28,0,0,0-.73,2C248.91,253.78,248.66,254.48,248.37,255.18Z"/><path class="cls-2" d="M260.79,222.58A3,3,0,0,0,261,221a1.43,1.43,0,0,0-.55-1.23,1.84,1.84,0,0,0-.62-.23c-.05,0,0,0-.11.07a1.86,1.86,0,0,0-.22.27,3.79,3.79,0,0,0-.54,1.42c-.13.52-.23,1.09-.41,1.64a9,9,0,0,1-.68,1.59,7.59,7.59,0,0,1-1,1.42,1.73,1.73,0,0,1-1.55.67,1.66,1.66,0,0,0,1.25-.9,10.93,10.93,0,0,0,.73-1.45,15.24,15.24,0,0,0,.88-3.15,4.44,4.44,0,0,1,.7-1.66,2.24,2.24,0,0,1,.33-.36.86.86,0,0,1,.63-.24,2.13,2.13,0,0,1,.91.41,1.8,1.8,0,0,1,.6,1.75A2.73,2.73,0,0,1,260.79,222.58Z"/><path class="cls-2" d="M258.5,221.2a2.2,2.2,0,0,0-.31-2,1.27,1.27,0,0,0-.79-.48c-.25,0-.44.21-.52.5s-.08.69-.15,1.07-.15.76-.25,1.14a10.88,10.88,0,0,1-.9,2.15,9.62,9.62,0,0,1-1.37,1.88,4.35,4.35,0,0,1-2,1.27,8.07,8.07,0,0,1-1.16.16,3.07,3.07,0,0,1-1.2-.07,5.22,5.22,0,0,1-1-.55l-.48-.3-.24-.15-.12-.09s0-.07,0-.08.07,0,0,0-.08,0,0,0l.12.05.26.11.52.22a4.92,4.92,0,0,0,1,.37,2.85,2.85,0,0,0,1,0,8.47,8.47,0,0,0,1.05-.25,6.16,6.16,0,0,0,2.91-3,10.61,10.61,0,0,0,1.15-3,10.59,10.59,0,0,1,.26-1.14,1.35,1.35,0,0,1,.41-.58.91.91,0,0,1,.71-.21,1.64,1.64,0,0,1,1.05.73A2.3,2.3,0,0,1,258.5,221.2Z"/><path class="cls-2" d="M246.57,216.6a14.43,14.43,0,0,1,4.17,1.75,28.28,28.28,0,0,1,3.69,2.62,35.86,35.86,0,0,1,3.28,3.12l1.49,1.69c.46.6.93,1.18,1.37,1.79l-3.28-3.07c-1.11-1-2.19-2-3.35-2.93s-2.31-1.87-3.52-2.72c-.6-.43-1.23-.83-1.87-1.2A14.4,14.4,0,0,0,246.57,216.6Z"/><path class="cls-2" d="M249.64,222.17a2.59,2.59,0,0,1-2.39-1.81c.46.29.82.59,1.22.88S249.24,221.81,249.64,222.17Z"/><path class="cls-2" d="M243,268a4.68,4.68,0,0,1-3-1.18,5.08,5.08,0,0,1-1.65-2.94l.63.14a1.56,1.56,0,0,1-1,.69,5.11,5.11,0,0,1-1.06.13,7.91,7.91,0,0,1-2.06-.18,8.34,8.34,0,0,1-3.66-1.86l.66-.4a9.39,9.39,0,0,0,.89,2,3.43,3.43,0,0,1,.35,2.45c-.25.91-1.28,1.23-1.1,1.84a1.16,1.16,0,0,0,.78.61,2.69,2.69,0,0,1,1,.49,2.86,2.86,0,0,0-1.09-.31,1.43,1.43,0,0,1-1-.67.92.92,0,0,1,0-.71,2.32,2.32,0,0,1,.35-.53,1.88,1.88,0,0,0,.53-.87,2.86,2.86,0,0,0-.47-2,9.85,9.85,0,0,1-1-2.16l-.31-1.22,1,.83a8,8,0,0,0,3.31,1.66,8.37,8.37,0,0,0,1.86.22c.63,0,1.28-.07,1.51-.41l.54-.82.09,1A4.92,4.92,0,0,0,243,268Z"/><path class="cls-2" d="M236.63,262.3c0,1.07-.21,2.07-.24,3.07a7.38,7.38,0,0,0,.43,2.95,3.82,3.82,0,0,1-1.06-3A7.16,7.16,0,0,1,236.63,262.3Z"/><path class="cls-2" d="M233.64,262.08a2,2,0,0,1-1-.86,2.07,2.07,0,0,1-.29-1.26c.27.36.43.71.65,1.05S233.45,261.68,233.64,262.08Z"/><path class="cls-2" d="M264.14,185.24c-.91,1.44-1.87,2.84-2.82,4.24s-1.95,2.78-2.94,4.15c-2,2.74-4,5.46-6.1,8.13l-.63-.91c4.61-1.34,9.25-2.6,14-3.61-4.49,1.76-9.05,3.29-13.64,4.72l-1.7.54,1.07-1.44q3-4.08,6.22-8.05c1.07-1.31,2.14-2.63,3.23-3.93S263,186.5,264.14,185.24Z"/><path class="cls-2" d="M259.77,195.28c1.08,1,2.09,2.15,3.06,3.27s1.91,2.29,2.82,3.48l.32.43-.51,0c-1.1-.06-2.2-.11-3.3-.25,1.1-.13,2.2-.19,3.3-.24l-.19.4c-1-1.11-1.95-2.26-2.87-3.43S260.59,196.53,259.77,195.28Z"/><path class="cls-2" d="M176,297.22a14.35,14.35,0,0,0-2.5,3,3.24,3.24,0,0,0-.4,3.3,2.39,2.39,0,0,0,1.24,1.1,1,1,0,0,1,.6.59.7.7,0,0,1,0,.55,1.26,1.26,0,0,1-.22.32,2.57,2.57,0,0,0-.26.27.63.63,0,0,0-.07.3,2.23,2.23,0,0,0,.25.81c.17.23,0,.67-.1.73s-.18.3-.28.44a5.78,5.78,0,0,1-1.49,1.39,7.31,7.31,0,0,0,1.09-1.64c.13-.26.31-.69.23-.64a2.37,2.37,0,0,1-.44-1,1.3,1.3,0,0,1,.09-.69,1.86,1.86,0,0,1,.36-.49c.1-.13,0-.11,0,0s0,0-.14,0a3.27,3.27,0,0,1-1.71-1.47,3.21,3.21,0,0,1-.32-2.25,4.84,4.84,0,0,1,.94-1.93A9,9,0,0,1,176,297.22Z"/><path class="cls-2" d="M179.65,304a8.24,8.24,0,0,0-.8,1.56,1.92,1.92,0,0,0-.08.79,6.24,6.24,0,0,1,.07.91,3.1,3.1,0,0,1-.74,1.77,4.36,4.36,0,0,1-1.46,1.11,8.69,8.69,0,0,0,1.1-1.37,3.29,3.29,0,0,0,.52-1.54,6.6,6.6,0,0,0,0-.87,2.08,2.08,0,0,1,.21-1A4,4,0,0,1,179.65,304Z"/><path class="cls-2" d="M171.28,315.72c.55-.51,1.11-1,1.69-1.47a9.66,9.66,0,0,1,1.89-1.34,3.17,3.17,0,0,1,1.28-.31c.42,0,.79,0,1.13,0a8.69,8.69,0,0,0,2-.25,3.82,3.82,0,0,0,2.75-2.24,2.42,2.42,0,0,0,.12-1.71c0-.26-.24-.51-.42-1a1.79,1.79,0,0,1,.19-1.5l.25.68a2.73,2.73,0,0,0-1.63,0,3.17,3.17,0,0,1-1,0,1.34,1.34,0,0,1-.9-.44,1.35,1.35,0,0,0,.9.13,3.93,3.93,0,0,0,.86-.28,6.51,6.51,0,0,1,.95-.36,2.17,2.17,0,0,1,1.19,0l.44.14-.19.54a.84.84,0,0,0,0,.66,8.87,8.87,0,0,1,.55.95,3.81,3.81,0,0,1,.06,2.64,4.79,4.79,0,0,1-1.49,2.14,5.81,5.81,0,0,1-2.29,1,8.11,8.11,0,0,1-2.4.15,5.08,5.08,0,0,0-2,0,14.27,14.27,0,0,0-1.94.89C172.65,315.11,172,315.43,171.28,315.72Z"/><path class="cls-2" d="M203.13,301.48a3,3,0,0,0,1.3-.94,1.45,1.45,0,0,0,.49-1.27,2.26,2.26,0,0,0-.28-.6s0,0-.13,0a2.09,2.09,0,0,0-.35,0,4,4,0,0,0-1.38.61c-.46.28-.94.62-1.45.88a10.19,10.19,0,0,1-1.61.64,7.89,7.89,0,0,1-1.69.32,1.76,1.76,0,0,1-1.57-.63,1.67,1.67,0,0,0,1.52.25,9.69,9.69,0,0,0,1.55-.51,15.13,15.13,0,0,0,2.84-1.6,4.57,4.57,0,0,1,1.68-.68,2.54,2.54,0,0,1,.48,0,.81.81,0,0,1,.61.28,2.08,2.08,0,0,1,.37.93,1.85,1.85,0,0,1-.82,1.66A2.74,2.74,0,0,1,203.13,301.48Z"/><path class="cls-2" d="M202.48,298.88a2.2,2.2,0,0,0,1.23-1.66,1.19,1.19,0,0,0-.23-.89.56.56,0,0,0-.71,0c-.26.15-.55.43-.87.65a9.08,9.08,0,0,1-1,.63,10.34,10.34,0,0,1-2.15.88,9.51,9.51,0,0,1-2.31.36,4.24,4.24,0,0,1-2.34-.55,8.37,8.37,0,0,1-.93-.7,3.13,3.13,0,0,1-.79-.9,4.86,4.86,0,0,1-.34-1.11l-.13-.55-.05-.28a.36.36,0,0,1,0-.15.05.05,0,0,1,.06,0s0,.07,0,.06,0-.07,0,0a.84.84,0,0,0,0,.12l.11.26.21.52a5.33,5.33,0,0,0,.47,1,2.75,2.75,0,0,0,.77.7,6,6,0,0,0,.92.57,6.1,6.1,0,0,0,4.15,0,9.93,9.93,0,0,0,2-.78c.32-.17.64-.35.94-.54a10.12,10.12,0,0,1,1-.63,1.46,1.46,0,0,1,.69-.12,1,1,0,0,1,.66.36,1.64,1.64,0,0,1,.22,1.26A2.25,2.25,0,0,1,202.48,298.88Z"/><path class="cls-2" d="M197.31,287.2a14.37,14.37,0,0,1,1.7,4.18,26.27,26.27,0,0,1,.76,4.47,34.08,34.08,0,0,1,.11,4.52l-.14,2.25c-.1.75-.18,1.49-.31,2.23l-.14-4.48c-.09-1.49-.13-3-.29-4.45s-.31-2.95-.56-4.41c-.13-.73-.28-1.46-.47-2.17A13.56,13.56,0,0,0,197.31,287.2Z"/><path class="cls-2" d="M195.54,293.31a2.43,2.43,0,0,1-.68-1.43,2.47,2.47,0,0,1,.27-1.55c.12.53.16,1,.24,1.48S195.51,292.76,195.54,293.31Z"/><path class="cls-2" d="M158.38,320.93a4.78,4.78,0,0,1-1.3-3,5.13,5.13,0,0,1,.91-3.25l.35.55a1.61,1.61,0,0,1-1.2-.23,4.81,4.81,0,0,1-.84-.66,7.45,7.45,0,0,1-1.32-1.59,8.08,8.08,0,0,1-1.27-3.9l.74.19a9.23,9.23,0,0,0-.79,2.05,3.44,3.44,0,0,1-1.48,2c-.83.47-1.78,0-2.08.52a1.12,1.12,0,0,0,.11,1,2.6,2.6,0,0,1,.39,1.08,2.85,2.85,0,0,0-.55-1,1.41,1.41,0,0,1-.26-1.21.88.88,0,0,1,.51-.49,1.77,1.77,0,0,1,.62-.13,1.91,1.91,0,0,0,1-.24,3,3,0,0,0,1.07-1.72,9,9,0,0,1,.79-2.26l.65-1.09.09,1.28a8.19,8.19,0,0,0,1.16,3.52,9.07,9.07,0,0,0,1.16,1.46c.44.45.95.86,1.35.78l1-.19-.62.73A5,5,0,0,0,158.38,320.93Z"/><path class="cls-2" d="M157.94,312.44c-.77.74-1.62,1.31-2.34,2a7.26,7.26,0,0,0-1.78,2.39,3.82,3.82,0,0,1,1.35-2.86A7.28,7.28,0,0,1,157.94,312.44Z"/><path class="cls-2" d="M156,310.17a2.12,2.12,0,0,1,.63-2.39c-.07.45-.21.81-.29,1.2S156.14,309.75,156,310.17Z"/><path class="cls-2" d="M231.92,277.48c-1.66.37-3.33.68-5,1s-3.34.58-5,.85c-3.35.53-6.7,1-10.06,1.42l.19-1.09c4.22,2.32,8.38,4.72,12.43,7.34-4.42-1.93-8.72-4.08-13-6.31l-1.58-.83,1.78-.26c3.36-.49,6.72-.9,10.09-1.28,1.68-.17,3.37-.35,5.06-.49S230.22,277.56,231.92,277.48Z"/><path class="cls-2" d="M221.73,281.48c0,1.5,0,3-.16,4.48s-.27,3-.47,4.45l-.08.52-.34-.38c-.73-.82-1.47-1.63-2.15-2.51.87.69,1.68,1.43,2.5,2.17l-.42.15c.09-1.49.23-3,.41-4.46S221.42,283,221.73,281.48Z"/><path class="cls-2" d="M90.41,294.2a14.12,14.12,0,0,0-3.91.38,3.21,3.21,0,0,0-2.62,2,2.44,2.44,0,0,0,.1,1.66,1.07,1.07,0,0,1,0,.84.78.78,0,0,1-.41.37,1.22,1.22,0,0,1-.38.06,1.59,1.59,0,0,0-.38,0,.58.58,0,0,0-.26.15,2.14,2.14,0,0,0-.4.76c0,.28-.49.45-.59.44l-.51.11a5.82,5.82,0,0,1-2-.07,7.19,7.19,0,0,0,1.93-.39c.28-.09.72-.26.62-.29a2.46,2.46,0,0,1,.43-1,1.32,1.32,0,0,1,.55-.42,2,2,0,0,1,.6-.09c.16,0,.1-.05.06,0s0,0-.07-.13a3.28,3.28,0,0,1-.17-2.25,3.24,3.24,0,0,1,1.36-1.82,4.9,4.9,0,0,1,2-.69A9,9,0,0,1,90.41,294.2Z"/><path class="cls-2" d="M88.2,301.53a8.28,8.28,0,0,0-1.66.54,2,2,0,0,0-.62.5,6,6,0,0,1-.6.69,3.06,3.06,0,0,1-1.77.73,4.28,4.28,0,0,1-1.82-.25,8.93,8.93,0,0,0,1.75-.19,3.34,3.34,0,0,0,1.46-.72,6.29,6.29,0,0,0,.59-.64,1.92,1.92,0,0,1,.83-.52A4,4,0,0,1,88.2,301.53Z"/><path class="cls-2" d="M74,303.92c.74,0,1.49.08,2.24.15a10.19,10.19,0,0,1,2.28.39,3.5,3.5,0,0,1,1.12.69c.31.29.56.57.8.8A8.12,8.12,0,0,0,82,307.19a3.8,3.8,0,0,0,3.53.37,2.5,2.5,0,0,0,1.29-1.12c.15-.23.19-.54.43-1a1.8,1.8,0,0,1,1.19-.92l-.31.66c-.09-.41-.62-.78-1.15-1.14a3.15,3.15,0,0,1-.76-.7,1.36,1.36,0,0,1-.32-.95,1.3,1.3,0,0,0,.54.73,3.65,3.65,0,0,0,.81.42,7.25,7.25,0,0,1,.92.41,2.14,2.14,0,0,1,.85.84l.21.41-.51.25a.84.84,0,0,0-.45.48A9.69,9.69,0,0,1,88,307a3.83,3.83,0,0,1-1.83,1.91,4.72,4.72,0,0,1-2.57.44,5.85,5.85,0,0,1-2.36-.87,7.88,7.88,0,0,1-1.8-1.6c-.54-.63-.81-1.15-1.37-1.42a14.8,14.8,0,0,0-2-.74C75.36,304.46,74.67,304.2,74,303.92Z"/><path class="cls-2" d="M106.54,316.4a2.92,2.92,0,0,0,1.59.26,1.47,1.47,0,0,0,1.24-.55,2,2,0,0,0,.23-.62c0-.05,0,0-.07-.12l-.27-.22a4,4,0,0,0-1.42-.54c-.52-.13-1.09-.23-1.64-.41a10.14,10.14,0,0,1-1.59-.68,8.36,8.36,0,0,1-1.42-1,1.75,1.75,0,0,1-.66-1.55,1.71,1.71,0,0,0,.89,1.26,12.29,12.29,0,0,0,1.45.73,15.42,15.42,0,0,0,3.15.88,4.73,4.73,0,0,1,1.67.7,3.61,3.61,0,0,1,.35.33.88.88,0,0,1,.24.63,2.18,2.18,0,0,1-.41.92,1.83,1.83,0,0,1-1.75.59A2.73,2.73,0,0,1,106.54,316.4Z"/><path class="cls-2" d="M107.93,314.11a2.18,2.18,0,0,0,2-.31,1.23,1.23,0,0,0,.47-.78c0-.25-.2-.44-.49-.52s-.69-.09-1.07-.16a9.7,9.7,0,0,1-3.29-1.15,10.1,10.1,0,0,1-1.88-1.38,4.25,4.25,0,0,1-1.26-2,6.87,6.87,0,0,1-.16-1.16,2.9,2.9,0,0,1,.07-1.2,5.22,5.22,0,0,1,.55-1l.3-.48.16-.24s0-.08.09-.11a0,0,0,0,1,.08,0s0,.07,0,0,0-.08,0,0a.45.45,0,0,0-.06.12l-.1.26-.23.52a5.56,5.56,0,0,0-.37,1,2.84,2.84,0,0,0,0,1,5.56,5.56,0,0,0,.25,1.05,6.15,6.15,0,0,0,3,2.92,10.26,10.26,0,0,0,2,.87,8.22,8.22,0,0,0,1,.29,7.55,7.55,0,0,1,1.14.26,1.41,1.41,0,0,1,.58.4.94.94,0,0,1,.2.72,1.6,1.6,0,0,1-.73,1.05A2.25,2.25,0,0,1,107.93,314.11Z"/><path class="cls-2" d="M112.54,302.2a14.24,14.24,0,0,1-1.76,4.16,27.11,27.11,0,0,1-2.62,3.69,37.08,37.08,0,0,1-3.12,3.27l-1.7,1.49c-.6.45-1.18.92-1.79,1.36l3.07-3.27c1-1.11,2-2.19,2.95-3.35s1.86-2.3,2.72-3.51c.43-.61.83-1.23,1.21-1.87A14.82,14.82,0,0,0,112.54,302.2Z"/><path class="cls-2" d="M107,305.26a2.44,2.44,0,0,1,.53-1.49,2.42,2.42,0,0,1,1.28-.91c-.29.46-.59.83-.88,1.22S107.33,304.85,107,305.26Z"/><path class="cls-2" d="M61.17,298.47a4.65,4.65,0,0,1,1.2-3,5,5,0,0,1,2.93-1.65l-.14.64a1.6,1.6,0,0,1-.69-1,5.78,5.78,0,0,1-.13-1.06,8,8,0,0,1,.2-2.06,8.2,8.2,0,0,1,1.86-3.65l.4.66a8.92,8.92,0,0,0-2,.89,3.49,3.49,0,0,1-2.45.34c-.92-.26-1.23-1.28-1.84-1.1a1.12,1.12,0,0,0-.61.77,2.58,2.58,0,0,1-.5,1,2.87,2.87,0,0,0,.32-1.09,1.38,1.38,0,0,1,.67-1,.92.92,0,0,1,.71,0,2.25,2.25,0,0,1,.53.36,1.78,1.78,0,0,0,.87.52,2.86,2.86,0,0,0,2-.45,9,9,0,0,1,2.16-1l1.22-.31-.83,1a8.11,8.11,0,0,0-1.67,3.31,8.28,8.28,0,0,0-.22,1.85c0,.63.07,1.28.41,1.51l.82.55-1,.09A4.93,4.93,0,0,0,61.17,298.47Z"/><path class="cls-2" d="M66.87,292.16c-1.07,0-2.07-.22-3.07-.25a7.38,7.38,0,0,0-2.95.43,3.82,3.82,0,0,1,3-1.06A7.32,7.32,0,0,1,66.87,292.16Z"/><path class="cls-2" d="M67.09,289.16a2.17,2.17,0,0,1,2.13-1.24c-.36.27-.72.43-1,.65S67.5,289,67.09,289.16Z"/><path class="cls-2" d="M143.87,319.83c-1.43-.91-2.83-1.88-4.23-2.83s-2.78-1.95-4.15-2.95c-2.74-2-5.45-4-8.11-6.12l.91-.63c1.33,4.62,2.57,9.26,3.58,14-1.75-4.49-3.27-9.06-4.7-13.65l-.53-1.7,1.44,1.08q4.06,3,8,6.23c1.32,1.07,2.63,2.14,3.93,3.24S142.62,318.68,143.87,319.83Z"/><path class="cls-2" d="M133.84,315.44c-1.05,1.07-2.15,2.08-3.28,3.05s-2.29,1.91-3.48,2.81l-.43.32,0-.51c.06-1.1.12-2.2.26-3.3.13,1.1.18,2.2.23,3.3l-.4-.19q1.67-1.49,3.44-2.86C131.38,317.14,132.59,316.26,133.84,315.44Z"/><path class="cls-2" d="M32.08,231.47a14.35,14.35,0,0,0-3-2.5,3.22,3.22,0,0,0-3.3-.41,2.45,2.45,0,0,0-1.11,1.24,1,1,0,0,1-.58.6.74.74,0,0,1-.55,0,1.34,1.34,0,0,1-.32-.22,1.35,1.35,0,0,0-.28-.26.5.5,0,0,0-.29-.07,1.89,1.89,0,0,0-.81.25c-.23.16-.67,0-.73-.11s-.3-.18-.44-.28a6,6,0,0,1-1.39-1.49,7.31,7.31,0,0,0,1.64,1.09c.26.13.69.32.64.23a2.5,2.5,0,0,1,1-.44,1.47,1.47,0,0,1,.68.09,1.94,1.94,0,0,1,.5.37c.13.1.1,0,0,.05s0,0,0-.14a3.22,3.22,0,0,1,3.72-2,4.92,4.92,0,0,1,1.93,1A9.08,9.08,0,0,1,32.08,231.47Z"/><path class="cls-2" d="M25.33,235.09a8.24,8.24,0,0,0-1.56-.8,2.12,2.12,0,0,0-.79-.09,6.24,6.24,0,0,1-.91.07,3.1,3.1,0,0,1-1.77-.74,4.36,4.36,0,0,1-1.11-1.46,8.69,8.69,0,0,0,1.37,1.1,3.42,3.42,0,0,0,1.54.53c.25,0,.57,0,.87,0a2,2,0,0,1,1,.22A4,4,0,0,1,25.33,235.09Z"/><path class="cls-2" d="M13.58,226.7c.51.54,1,1.11,1.47,1.69a9.66,9.66,0,0,1,1.34,1.89,3.37,3.37,0,0,1,.3,1.28c0,.43,0,.8,0,1.13a8.69,8.69,0,0,0,.25,2,3.79,3.79,0,0,0,2.24,2.76,2.51,2.51,0,0,0,1.7.13c.26-.06.51-.25,1-.43a1.85,1.85,0,0,1,1.49.19l-.68.25a2.61,2.61,0,0,0,0-1.62,3.53,3.53,0,0,1-.05-1,1.37,1.37,0,0,1,.45-.89,1.33,1.33,0,0,0-.13.89,3.5,3.5,0,0,0,.27.87,6.82,6.82,0,0,1,.37.94,2.18,2.18,0,0,1,0,1.19l-.14.44-.54-.19a.93.93,0,0,0-.66,0,10.49,10.49,0,0,1-1,.56,3.9,3.9,0,0,1-2.65.05,4.76,4.76,0,0,1-2.13-1.5,5.79,5.79,0,0,1-1-2.29,8.11,8.11,0,0,1-.15-2.4,4.72,4.72,0,0,0,0-2,12.6,12.6,0,0,0-.88-1.94C14.19,228.07,13.88,227.39,13.58,226.7Z"/><path class="cls-2" d="M27.76,258.57a3,3,0,0,0,.94,1.31,1.43,1.43,0,0,0,1.26.49,2.14,2.14,0,0,0,.6-.27c0-.05,0,0,0-.14s0-.23,0-.35a4,4,0,0,0-.62-1.38c-.27-.46-.61-.94-.87-1.46a9.17,9.17,0,0,1-.63-1.6,8,8,0,0,1-.32-1.69,1.78,1.78,0,0,1,.63-1.57,1.69,1.69,0,0,0-.26,1.52A10.68,10.68,0,0,0,29,255a14.9,14.9,0,0,0,1.6,2.85,4.57,4.57,0,0,1,.68,1.68,3.93,3.93,0,0,1,0,.49.9.9,0,0,1-.28.61,2.21,2.21,0,0,1-.94.36,1.85,1.85,0,0,1-1.66-.82A2.69,2.69,0,0,1,27.76,258.57Z"/><path class="cls-2" d="M30.36,257.93A2.16,2.16,0,0,0,32,259.16a1.26,1.26,0,0,0,.9-.22.58.58,0,0,0,0-.71c-.15-.26-.43-.55-.65-.87a10.23,10.23,0,0,1-.62-1,10.37,10.37,0,0,1-.89-2.15,9.93,9.93,0,0,1-.35-2.31,4.28,4.28,0,0,1,.56-2.33,7.53,7.53,0,0,1,.7-.93,3.31,3.31,0,0,1,.9-.8,5.28,5.28,0,0,1,1.12-.33l.55-.13.27,0a.36.36,0,0,1,.15,0s.06,0,0,.06-.07,0-.06,0,.07,0,0,0a.65.65,0,0,0-.13,0l-.26.11-.52.21a5.33,5.33,0,0,0-1,.47,2.73,2.73,0,0,0-.71.76,9.19,9.19,0,0,0-.57.92,6.22,6.22,0,0,0,0,4.15,10.33,10.33,0,0,0,.79,2,8.92,8.92,0,0,0,.54,1,9.09,9.09,0,0,1,.62,1,1.44,1.44,0,0,1,.12.69.93.93,0,0,1-.37.66,1.62,1.62,0,0,1-1.25.21A2.23,2.23,0,0,1,30.36,257.93Z"/><path class="cls-2" d="M42.05,252.79a14.29,14.29,0,0,1-4.19,1.69,27,27,0,0,1-4.46.75,36,36,0,0,1-4.52.1l-2.25-.15c-.75-.1-1.5-.18-2.24-.31l4.49-.13c1.49-.08,3-.13,4.45-.28s3-.31,4.41-.55c.73-.13,1.46-.28,2.17-.47A14.65,14.65,0,0,0,42.05,252.79Z"/><path class="cls-2" d="M36,251a2.48,2.48,0,0,1,1.42-.67,2.39,2.39,0,0,1,1.55.27c-.53.12-1,.16-1.48.23S36.49,251,36,251Z"/><path class="cls-2" d="M8.4,213.79a4.67,4.67,0,0,1,3-1.29,5,5,0,0,1,3.24.91l-.55.35a1.6,1.6,0,0,1,.24-1.21,5.06,5.06,0,0,1,.65-.84,8.32,8.32,0,0,1,5.5-2.57l-.19.74a8.76,8.76,0,0,0-2.05-.79,3.46,3.46,0,0,1-2-1.49c-.46-.83,0-1.78-.52-2.08a1.09,1.09,0,0,0-1,.11,2.59,2.59,0,0,1-1.08.38,2.82,2.82,0,0,0,1-.54,1.37,1.37,0,0,1,1.21-.25.86.86,0,0,1,.49.5,2.06,2.06,0,0,1,.12.62,1.89,1.89,0,0,0,.25,1,2.86,2.86,0,0,0,1.72,1.07,9.53,9.53,0,0,1,2.25.8l1.09.65-1.28.09A8.06,8.06,0,0,0,17,211.1a8.57,8.57,0,0,0-1.47,1.15c-.44.44-.86.95-.78,1.35l.19,1-.73-.62A5,5,0,0,0,8.4,213.79Z"/><path class="cls-2" d="M16.89,213.37c-.74-.77-1.31-1.62-2-2.35a7.29,7.29,0,0,0-2.39-1.79,3.84,3.84,0,0,1,2.86,1.37A7.24,7.24,0,0,1,16.89,213.37Z"/><path class="cls-2" d="M19.17,211.41a2,2,0,0,1,1.29-.06,2,2,0,0,1,1.09.69c-.44-.07-.8-.21-1.2-.29S19.59,211.57,19.17,211.41Z"/><path class="cls-2" d="M51.7,287.42c-.37-1.66-.68-3.33-1-5s-.57-3.34-.84-5q-.78-5-1.4-10.07l1.09.2c-2.33,4.2-4.74,8.36-7.37,12.41,1.94-4.42,4.1-8.72,6.34-13l.84-1.58.25,1.78c.48,3.36.89,6.72,1.26,10.09.17,1.69.34,3.38.48,5.07S51.62,285.72,51.7,287.42Z"/><path class="cls-2" d="M47.72,277.22c-1.5,0-3-.06-4.48-.17s-3-.27-4.44-.48l-.53-.08.38-.34c.82-.73,1.64-1.47,2.51-2.15-.68.87-1.43,1.69-2.17,2.5l-.15-.42c1.49.09,3,.24,4.46.41S46.25,276.91,47.72,277.22Z"/><path class="cls-2" d="M35.27,145.87A14.12,14.12,0,0,0,34.9,142a3.21,3.21,0,0,0-2-2.62,2.44,2.44,0,0,0-1.66.09,1,1,0,0,1-.83,0A.7.7,0,0,1,30,139a1.28,1.28,0,0,1-.07-.38,1.84,1.84,0,0,0,0-.38.58.58,0,0,0-.15-.26,2.23,2.23,0,0,0-.76-.4c-.28-.05-.44-.5-.44-.59a4.59,4.59,0,0,1-.1-.51,5.58,5.58,0,0,1,.07-2,6.89,6.89,0,0,0,.38,1.93c.09.28.26.72.29.62a2.46,2.46,0,0,1,1.05.43,1.23,1.23,0,0,1,.41.55,2.09,2.09,0,0,1,.1.6c0,.17.05.1,0,.06s0,0,.13-.07a3.33,3.33,0,0,1,2.25-.17,3.28,3.28,0,0,1,1.81,1.37,4.9,4.9,0,0,1,.69,2A8.88,8.88,0,0,1,35.27,145.87Z"/><path class="cls-2" d="M27.94,143.65a7.59,7.59,0,0,0-.53-1.67,2.28,2.28,0,0,0-.49-.62,6.07,6.07,0,0,1-.7-.6A3,3,0,0,1,25.5,139a4.13,4.13,0,0,1,.25-1.82,9.78,9.78,0,0,0,.18,1.75,3.34,3.34,0,0,0,.72,1.46,6.21,6.21,0,0,0,.64.59,2.07,2.07,0,0,1,.53.84A4,4,0,0,1,27.94,143.65Z"/><path class="cls-2" d="M25.59,129.41c0,.74-.08,1.49-.16,2.24a9.68,9.68,0,0,1-.4,2.28,3.27,3.27,0,0,1-.69,1.12c-.28.31-.56.55-.8.79a8.76,8.76,0,0,0-1.24,1.59,3.8,3.8,0,0,0-.37,3.53,2.46,2.46,0,0,0,1.11,1.3c.23.15.54.19,1,.42a1.88,1.88,0,0,1,.92,1.2l-.66-.31c.41-.1.77-.62,1.14-1.15a3.15,3.15,0,0,1,.7-.76,1.3,1.3,0,0,1,.95-.31,1.32,1.32,0,0,0-.73.53,4.15,4.15,0,0,0-.42.81,7.25,7.25,0,0,1-.41.92,2.2,2.2,0,0,1-.84.85l-.41.21-.25-.52a.89.89,0,0,0-.48-.44c-.19-.08-.63-.11-1.07-.29a3.77,3.77,0,0,1-1.9-1.83,4.63,4.63,0,0,1-.45-2.57,5.76,5.76,0,0,1,.88-2.35,7.94,7.94,0,0,1,1.6-1.8c.64-.55,1.16-.81,1.42-1.37a13.26,13.26,0,0,0,.75-2C25.05,130.8,25.3,130.11,25.59,129.41Z"/><path class="cls-2" d="M13,162a2.9,2.9,0,0,0-.26,1.59,1.45,1.45,0,0,0,.55,1.24,2.15,2.15,0,0,0,.61.23c.06,0,0,0,.12-.07a1.51,1.51,0,0,0,.22-.28,4,4,0,0,0,.55-1.41c.13-.52.23-1.09.41-1.64a8.9,8.9,0,0,1,.69-1.58,7.59,7.59,0,0,1,1-1.42,1.73,1.73,0,0,1,1.56-.66,1.68,1.68,0,0,0-1.26.89,10.35,10.35,0,0,0-.73,1.45,14.57,14.57,0,0,0-.89,3.14,4.64,4.64,0,0,1-.71,1.66,2.82,2.82,0,0,1-.33.36.83.83,0,0,1-.63.23,2.17,2.17,0,0,1-.92-.4,1.84,1.84,0,0,1-.59-1.76A2.75,2.75,0,0,1,13,162Z"/><path class="cls-2" d="M15.33,163.35a2.18,2.18,0,0,0,.3,2,1.19,1.19,0,0,0,.78.47c.25,0,.44-.2.53-.49s.08-.69.15-1.07.15-.76.26-1.14a10,10,0,0,1,.9-2.14,9.43,9.43,0,0,1,1.39-1.88,4.25,4.25,0,0,1,2-1.26,7.88,7.88,0,0,1,1.16-.16,3,3,0,0,1,1.19.08,5,5,0,0,1,1,.55l.48.3.23.16.12.09s0,.06,0,.08-.07,0,0,0,.08,0,0,0-.07,0-.12-.06l-.26-.1-.52-.23a5.48,5.48,0,0,0-1-.37,3.06,3.06,0,0,0-1,0,8.22,8.22,0,0,0-1.06.25,6.2,6.2,0,0,0-2.92,3,10.66,10.66,0,0,0-.88,2c-.11.34-.21.69-.29,1.05a7.55,7.55,0,0,1-.26,1.14,1.38,1.38,0,0,1-.4.57.94.94,0,0,1-.72.2,1.55,1.55,0,0,1-1-.73A2.23,2.23,0,0,1,15.33,163.35Z"/><path class="cls-2" d="M27.23,168a14.26,14.26,0,0,1-4.16-1.77,27.33,27.33,0,0,1-3.68-2.63,37.19,37.19,0,0,1-3.27-3.13l-1.48-1.7c-.45-.6-.93-1.18-1.36-1.8L16.54,160c1.11,1,2.19,2,3.34,3s2.3,1.87,3.51,2.73c.61.43,1.23.83,1.87,1.21A13.73,13.73,0,0,0,27.23,168Z"/><path class="cls-2" d="M24.18,162.41a2.59,2.59,0,0,1,2.39,1.82c-.46-.3-.82-.6-1.21-.89S24.59,162.77,24.18,162.41Z"/><path class="cls-2" d="M31.07,116.62a4.73,4.73,0,0,1,3,1.2,5,5,0,0,1,1.64,2.94l-.63-.14a1.58,1.58,0,0,1,1-.68,5,5,0,0,1,1.06-.13,7.44,7.44,0,0,1,2,.2,8.17,8.17,0,0,1,3.65,1.87l-.66.39a9.26,9.26,0,0,0-.88-2,3.49,3.49,0,0,1-.34-2.45c.26-.91,1.28-1.23,1.11-1.83a1.13,1.13,0,0,0-.77-.62,2.46,2.46,0,0,1-1-.5,2.66,2.66,0,0,0,1.08.32,1.39,1.39,0,0,1,1,.68.89.89,0,0,1,0,.7,1.9,1.9,0,0,1-.36.53,1.91,1.91,0,0,0-.52.87,2.88,2.88,0,0,0,.45,2,9.33,9.33,0,0,1,1,2.15l.31,1.23-1-.83a7.91,7.91,0,0,0-3.3-1.68,8.37,8.37,0,0,0-1.86-.22c-.62,0-1.28.06-1.51.4l-.55.82-.08-1A4.93,4.93,0,0,0,31.07,116.62Z"/><path class="cls-2" d="M37.36,122.34c0-1.07.23-2.08.26-3.07a7.62,7.62,0,0,0-.42-3,3.88,3.88,0,0,1,1,3A7.33,7.33,0,0,1,37.36,122.34Z"/><path class="cls-2" d="M40.36,122.56a2.06,2.06,0,0,1,1,.87,2,2,0,0,1,.28,1.27c-.26-.37-.42-.72-.64-1.06S40.54,123,40.36,122.56Z"/><path class="cls-2" d="M9.53,199.28c.92-1.43,1.88-2.83,2.84-4.23s2-2.77,3-4.14c2-2.73,4.05-5.44,6.15-8.1l.62.91c-4.62,1.33-9.27,2.56-14,3.55,4.49-1.74,9.06-3.25,13.65-4.66l1.71-.53-1.08,1.44c-2,2.71-4.13,5.37-6.26,8-1.07,1.32-2.14,2.63-3.24,3.92S10.68,198,9.53,199.28Z"/><path class="cls-2" d="M13.94,189.26c-1.07-1-2.07-2.16-3-3.29S9,183.68,8.1,182.48l-.32-.42.51,0c1.1.07,2.2.13,3.3.27-1.1.13-2.2.17-3.3.22l.19-.4c1,1.12,1.93,2.27,2.85,3.45S13.13,188,13.94,189.26Z"/><path class="cls-2" d="M71,83.29a3,3,0,0,0-1.31.94,1.44,1.44,0,0,0-.49,1.26,2.07,2.07,0,0,0,.27.61s0,0,.14,0l.35,0a3.9,3.9,0,0,0,1.38-.61c.46-.27.94-.61,1.46-.87a9.17,9.17,0,0,1,1.6-.63,7.41,7.41,0,0,1,1.69-.31,1.72,1.72,0,0,1,1.57.63A1.69,1.69,0,0,0,76.17,84a10.68,10.68,0,0,0-1.54.51,14.4,14.4,0,0,0-2.86,1.59,4.56,4.56,0,0,1-1.68.67,2.54,2.54,0,0,1-.48,0,.88.88,0,0,1-.61-.28,2.09,2.09,0,0,1-.36-.94A1.82,1.82,0,0,1,69.46,84,2.8,2.8,0,0,1,71,83.29Z"/><path class="cls-2" d="M71.66,85.89a2.2,2.2,0,0,0-1.23,1.66,1.23,1.23,0,0,0,.22.89.56.56,0,0,0,.72,0c.25-.14.54-.42.87-.64a9,9,0,0,1,1-.62A9.89,9.89,0,0,1,77.69,86a4.28,4.28,0,0,1,2.33.56,7.36,7.36,0,0,1,.93.71,2.88,2.88,0,0,1,.79.9,5.37,5.37,0,0,1,.33,1.11l.13.55,0,.28a.36.36,0,0,1,0,.15s0,.06-.06,0,0-.07,0-.06,0,.07,0,0a.65.65,0,0,0,0-.13l-.12-.26-.2-.53a5.22,5.22,0,0,0-.46-1,2.92,2.92,0,0,0-.77-.71,7,7,0,0,0-.92-.57,6.16,6.16,0,0,0-4.15,0,9.71,9.71,0,0,0-2,.78c-.33.16-.64.34-1,.53a7.12,7.12,0,0,1-1,.62,1.33,1.33,0,0,1-.69.12.91.91,0,0,1-.65-.36,1.6,1.6,0,0,1-.22-1.26A2.27,2.27,0,0,1,71.66,85.89Z"/><path class="cls-2" d="M76.78,97.6a14.38,14.38,0,0,1-1.68-4.19,27.25,27.25,0,0,1-.74-4.47,35.94,35.94,0,0,1-.09-4.52l.15-2.25c.11-.75.19-1.49.32-2.24l.12,4.49c.08,1.49.12,3,.27,4.45s.3,2.95.55,4.41c.12.73.27,1.46.45,2.18A14.65,14.65,0,0,0,76.78,97.6Z"/><path class="cls-2" d="M78.58,91.5a2.43,2.43,0,0,1,.68,1.42A2.46,2.46,0,0,1,79,94.47c-.12-.53-.16-1-.23-1.48S78.61,92,78.58,91.5Z"/><path class="cls-2" d="M42.13,107.17c1.67-.36,3.33-.66,5-1s3.35-.57,5-.84q5-.77,10.07-1.37l-.2,1.08c-4.2-2.33-8.36-4.75-12.39-7.38,4.41,2,8.7,4.11,12.95,6.36l1.57.84-1.78.25c-3.35.47-6.72.87-10.09,1.24-1.68.16-3.37.33-5.06.47S43.83,107.1,42.13,107.17Z"/><path class="cls-2" d="M52.34,103.22c0-1.5.07-3,.18-4.48s.28-3,.49-4.45l.08-.52.34.38c.73.82,1.46,1.64,2.14,2.52-.87-.69-1.68-1.44-2.49-2.18l.42-.15c-.09,1.49-.24,3-.42,4.46S52.66,101.75,52.34,103.22Z"/><circle class="cls-1" cx="136.57" cy="58.11" r="55.93"/></g></g></svg>