<svg xmlns="http://www.w3.org/2000/svg" xmlns:xlink="http://www.w3.org/1999/xlink" viewBox="0 0 746.36 747"><defs><style>.cls-1,.cls-5,.cls-6{fill:none;}.cls-2{clip-path:url(#clip-path);}.cls-3{opacity:0.25;}.cls-4{fill:#303030;}.cls-5,.cls-6{stroke:#303030;stroke-miterlimit:10;}.cls-5{stroke-width:11.96px;}.cls-6{stroke-width:6.48px;}</style><clipPath id="clip-path"><rect class="cls-1" x="171.6" y="10.5" width="402" height="727" rx="26.3"/></clipPath></defs><title>Ресурс 29</title><g id="Слой_2" data-name="Слой 2"><g id="Слой_1-2" data-name="Слой 1"><g class="cls-2"><g class="cls-3"><path class="cls-4" d="M627,543.49a39.91,39.91,0,0,0-.72,10.69c.2,3.42,1.51,6.74,4.35,8a6.73,6.73,0,0,0,2.19.64,7.11,7.11,0,0,0,1.13,0c.19,0,.38,0,.56-.07l.64-.12a4.91,4.91,0,0,1,.94-.08,2.35,2.35,0,0,1,1.32.43,2,2,0,0,1,.8,1.28,2.84,2.84,0,0,1,0,1,5.3,5.3,0,0,0-.13,1,1.67,1.67,0,0,0,.3.76,5.78,5.78,0,0,0,1.87,1.4,2.65,2.65,0,0,1,.45.35,1.51,1.51,0,0,1,.36.62,3.83,3.83,0,0,1,.12.82c0,.47.06,1,0,1.42a14.81,14.81,0,0,1-1.09,5.46,21.34,21.34,0,0,0-.18-5.37c-.08-.43-.16-.86-.26-1.28a2.69,2.69,0,0,0-.15-.52s0,0,0,0l-.11,0a6.78,6.78,0,0,1-2.63-1.61,3.75,3.75,0,0,1-.89-1.66,3.42,3.42,0,0,1-.06-1l.07-.69a.74.74,0,0,0,0-.31.24.24,0,0,0,.09.16c.2.11,0,0-.38.14-.17.05-.43.11-.7.16s-.53.08-.79.12a9.37,9.37,0,0,1-1.59,0,9,9,0,0,1-3.05-.81,8.87,8.87,0,0,1-4.29-4.48,13.43,13.43,0,0,1-1-5.8,25.73,25.73,0,0,1,.26-2.81l.5-2.74A19.93,19.93,0,0,1,627,543.49Z"/><path class="cls-4" d="M645.8,552.68a22.44,22.44,0,0,0,.7,4.72,5.78,5.78,0,0,0,1,1.89,15.34,15.34,0,0,1,1.63,1.93,8.48,8.48,0,0,1,1.19,5.09,11.47,11.47,0,0,1-1.48,4.8,26.28,26.28,0,0,0,.26-4.8,9.2,9.2,0,0,0-1.29-4.26,20.65,20.65,0,0,0-1.47-1.85,6,6,0,0,1-1-2.5A10.84,10.84,0,0,1,645.8,552.68Z"/><path class="cls-4" d="M645.9,592.1c.4-2,.88-4,1.42-6a26.89,26.89,0,0,1,2.06-6,8.78,8.78,0,0,1,2.35-2.72c.91-.72,1.77-1.25,2.51-1.79a22.91,22.91,0,0,0,4-3.75,12.87,12.87,0,0,0,2.48-4.51,9.13,9.13,0,0,0,.08-4.84,7.08,7.08,0,0,0-2.44-4,6.81,6.81,0,0,0-1-.65,9.45,9.45,0,0,1-1.56-.94,5,5,0,0,1-1.93-3.62l1.63,1.11a3.32,3.32,0,0,0-1.76.86,19.54,19.54,0,0,0-1.82,1.75,9.19,9.19,0,0,1-2.21,1.74,3.65,3.65,0,0,1-2.7.43,3.61,3.61,0,0,0,2.2-1.13,10.39,10.39,0,0,0,1.48-2,17.26,17.26,0,0,1,1.52-2.31,5.87,5.87,0,0,1,2.63-1.91l1.2-.39.44,1.5a2.41,2.41,0,0,0,1.11,1.41c.26.13.64.27,1.13.46a10,10,0,0,1,1.63.78,9.46,9.46,0,0,1,2.71,2.52,11.47,11.47,0,0,1,1.61,3.25,12.47,12.47,0,0,1,.07,7.11,15.35,15.35,0,0,1-3.4,6,21.32,21.32,0,0,1-5.09,4.14c-.94.58-1.86,1-2.6,1.46a6.27,6.27,0,0,0-1.84,1.6,16.09,16.09,0,0,0-1.5,2.37c-.44.9-.91,1.79-1.39,2.68C648,588.57,647,590.34,645.9,592.1Z"/><path class="cls-5" d="M736.23,434.51A366.2,366.2,0,0,1,615.62,650.2a100.15,100.15,0,1,0-165.86,82.89,368.72,368.72,0,0,1-264.37-43.94A100.18,100.18,0,1,0,55.23,557.07a366.15,366.15,0,0,1-44.06-245c1.13-6.7,2.44-13.27,3.94-19.8a100.16,100.16,0,1,0,85.1-164.81A368.3,368.3,0,0,1,341.5,7a99.08,99.08,0,0,0-12.61,31,100.15,100.15,0,1,0,195.5-.14A368.51,368.51,0,0,1,712,229.14a100.14,100.14,0,1,0,27.24,183.48C738.5,419.88,737.46,427.19,736.23,434.51Z"/><path class="cls-4" d="M694,509.87a5.12,5.12,0,0,0,1-2,12.41,12.41,0,0,0,.42-2.17c.18-1.42,0-2.91-.93-3.58a5.83,5.83,0,0,0-1.56-.9c-.15,0-.1,0-.35.15a6,6,0,0,0-.71.64,10.62,10.62,0,0,0-2.09,3.57c-.58,1.34-1.1,2.84-1.84,4.24a25.73,25.73,0,0,1-2.54,4,21.3,21.3,0,0,1-3.25,3.4,6.1,6.1,0,0,1-2.13,1.14,3.63,3.63,0,0,1-2.35-.05,4.68,4.68,0,0,0,3.78-1.85,30.17,30.17,0,0,0,2.62-3.58,34.82,34.82,0,0,0,2.09-3.9c.62-1.32,1.09-2.71,1.68-4.18a12.4,12.4,0,0,1,2.63-4.18,7.7,7.7,0,0,1,1.05-.81,2.66,2.66,0,0,1,.81-.36,2.2,2.2,0,0,1,1,0,3.77,3.77,0,0,1,1.32.68,9.63,9.63,0,0,1,1,.82,4,4,0,0,1,1.11,2.51,7.39,7.39,0,0,1-.28,2.47,11.42,11.42,0,0,1-.9,2.2A4.75,4.75,0,0,1,694,509.87Z"/><path class="cls-4" d="M688.42,505.13a6,6,0,0,0,.08-5.63,3.35,3.35,0,0,0-1.92-1.61A1.56,1.56,0,0,0,685,499a7.91,7.91,0,0,0-.44,1.3c-.13.5-.3,1-.47,1.51a25.91,25.91,0,0,1-1.18,3,28.14,28.14,0,0,1-3.37,5.39,27.5,27.5,0,0,1-4.55,4.47,11.89,11.89,0,0,1-6.06,2.5,19.79,19.79,0,0,1-3.19-.07,8.54,8.54,0,0,1-3.19-.75,13.18,13.18,0,0,1-2.53-1.93l-1.15-1-.56-.53a1.29,1.29,0,0,1-.28-.29c0-.07,0-.18.06-.21s.18.09.09.13c.07,0,0-.1-.08-.09s0,.09,0,.13a1.42,1.42,0,0,0,.3.2l.66.4,1.31.82a14.73,14.73,0,0,0,2.59,1.46,7.65,7.65,0,0,0,2.82.32,21.76,21.76,0,0,0,3-.19,10.78,10.78,0,0,0,5-2.45,26.54,26.54,0,0,0,4.14-4.2,27.91,27.91,0,0,0,3.22-5,25.41,25.41,0,0,0,1.24-2.7c.18-.46.34-.92.52-1.4a9.27,9.27,0,0,1,.67-1.56,3.79,3.79,0,0,1,1.35-1.38,2.54,2.54,0,0,1,2.05-.24,3.52,3.52,0,0,1,1.53,1,5.13,5.13,0,0,1,.94,1.43,5.41,5.41,0,0,1,.32,3.26A6.86,6.86,0,0,1,688.42,505.13Z"/><path class="cls-4" d="M658.37,487.41a27.18,27.18,0,0,1,5.47,2.87c.87.56,1.7,1.18,2.55,1.77s1.63,1.27,2.42,1.93,1.58,1.34,2.33,2l2.24,2.14c1.43,1.49,2.86,3,4.2,4.55a101.55,101.55,0,0,1,7.44,9.84c1.12,1.72,2.19,3.48,3.25,5.23s2,3.61,2.87,5.45c-1.3-1.6-2.52-3.24-3.73-4.88s-2.5-3.22-3.72-4.85c-2.54-3.17-5-6.39-7.7-9.42s-5.38-6.06-8.27-8.88c-1.46-1.41-2.94-2.79-4.49-4.1A42,42,0,0,0,658.37,487.41Z"/><path class="cls-4" d="M664.14,503.78a5.52,5.52,0,0,1-2.06-.73,7.43,7.43,0,0,1-1.71-1.35,7.36,7.36,0,0,1-1.25-1.77,5.44,5.44,0,0,1-.62-2.1A19.29,19.29,0,0,1,660,499.3l1.38,1.44,1.36,1.45C663.21,502.69,663.68,503.19,664.14,503.78Z"/><path class="cls-4" d="M374,728.77a11.76,11.76,0,0,1-1.85-4.07,13.9,13.9,0,0,1-.31-4.55,13.47,13.47,0,0,1,3.9-8.33l.71,1.64a4.39,4.39,0,0,1-3.16-1.17,14.48,14.48,0,0,1-2-2.14A22.7,22.7,0,0,1,367,699.84a23.23,23.23,0,0,1-.13-5.65l1.92.84a25.75,25.75,0,0,0-3,5.16,9.42,9.42,0,0,1-4.87,4.69,5.05,5.05,0,0,1-1.81.25,14.32,14.32,0,0,1-1.63-.22c-1-.18-1.91-.23-2.4.42a3.15,3.15,0,0,0-.14,2.68,7.16,7.16,0,0,1,.55,3.1,7.69,7.69,0,0,0-1-2.92,3.71,3.71,0,0,1-.15-3.37,2.41,2.41,0,0,1,1.58-1.1,5.67,5.67,0,0,1,1.73-.06,13.47,13.47,0,0,0,1.5.07,3.7,3.7,0,0,0,1.26-.31,5.81,5.81,0,0,0,2.15-1.67,11.06,11.06,0,0,0,1.52-2.46c.89-1.79,1.59-3.9,3.14-5.72l2.24-2.63-.32,3.47a21.81,21.81,0,0,0,1.55,10,22.32,22.32,0,0,0,2.47,4.46,12.07,12.07,0,0,0,1.58,1.89,2.6,2.6,0,0,0,1.71.81l2.63,0-1.93,1.67a12.77,12.77,0,0,0-4,7.11A13.61,13.61,0,0,0,374,728.77Z"/><path class="cls-4" d="M376.66,705.7a41.52,41.52,0,0,1-3.66,2.22c-1.22.69-2.42,1.35-3.54,2.11a22.53,22.53,0,0,0-3.19,2.48,19.44,19.44,0,0,0-2.7,3.16,8.31,8.31,0,0,1,1.69-4,13,13,0,0,1,3.25-3,18.8,18.8,0,0,1,3.94-1.9A20.8,20.8,0,0,1,376.66,705.7Z"/><path class="cls-4" d="M372.39,698.71a5.81,5.81,0,0,1,2.76-6.14c-.4,1.15-.88,2.1-1.31,3.1S373,697.64,372.39,698.71Z"/><path class="cls-4" d="M236.45,693.29a5.36,5.36,0,0,0,2,1,12.41,12.41,0,0,0,2.17.42c1.43.18,2.91,0,3.58-.92a5.71,5.71,0,0,0,.9-1.56c0-.15,0-.1-.14-.35a7.17,7.17,0,0,0-.64-.72,10.86,10.86,0,0,0-3.56-2.1c-1.35-.58-2.84-1.1-4.24-1.84a24.52,24.52,0,0,1-4-2.55,21.3,21.3,0,0,1-3.4-3.25,6.4,6.4,0,0,1-1.14-2.14,3.66,3.66,0,0,1,.06-2.34,4.67,4.67,0,0,0,1.84,3.78,29.38,29.38,0,0,0,3.58,2.62,33.9,33.9,0,0,0,3.89,2.1c1.32.62,2.71,1.1,4.18,1.69a12.24,12.24,0,0,1,4.17,2.64,7.7,7.7,0,0,1,.81,1,2.66,2.66,0,0,1,.36.81,2.2,2.2,0,0,1,0,1,3.61,3.61,0,0,1-.68,1.32,8.58,8.58,0,0,1-.82,1,4,4,0,0,1-2.51,1.11,7.14,7.14,0,0,1-2.47-.29,11.39,11.39,0,0,1-2.2-.89A4.94,4.94,0,0,1,236.45,693.29Z"/><path class="cls-4" d="M241.21,687.75a6,6,0,0,0,5.63.09,3.31,3.31,0,0,0,1.61-1.91,1.58,1.58,0,0,0-1.08-1.61,7.31,7.31,0,0,0-1.3-.44c-.49-.14-1-.3-1.51-.47a29.81,29.81,0,0,1-2.95-1.19,28.43,28.43,0,0,1-5.38-3.38,26.75,26.75,0,0,1-4.45-4.57,11.81,11.81,0,0,1-2.49-6.06,19.82,19.82,0,0,1,.07-3.19,8.41,8.41,0,0,1,.76-3.19,13.46,13.46,0,0,1,1.94-2.52l1-1.14.53-.57a1.26,1.26,0,0,1,.29-.27c.06,0,.18,0,.21.06s-.1.17-.13.08c0,.08.1,0,.09-.08s-.09,0-.13,0a1.21,1.21,0,0,0-.21.3l-.4.66-.82,1.3a14.73,14.73,0,0,0-1.46,2.59,7.65,7.65,0,0,0-.33,2.82,21.51,21.51,0,0,0,.19,2.95,10.81,10.81,0,0,0,2.43,5.05,26.54,26.54,0,0,0,4.2,4.14,28.13,28.13,0,0,0,4.95,3.24,26.19,26.19,0,0,0,2.69,1.24l1.41.52a8.52,8.52,0,0,1,1.55.68,3.64,3.64,0,0,1,1.38,1.35,2.52,2.52,0,0,1,.24,2,3.7,3.7,0,0,1-1,1.54,5.15,5.15,0,0,1-1.44.93,5.38,5.38,0,0,1-3.25.32A7,7,0,0,1,241.21,687.75Z"/><path class="cls-4" d="M259,657.74a26.88,26.88,0,0,1-2.88,5.46c-.56.87-1.18,1.7-1.78,2.54s-1.27,1.63-1.94,2.42-1.33,1.58-2,2.33l-2.15,2.23c-1.49,1.43-3,2.86-4.55,4.19a100,100,0,0,1-9.86,7.42c-1.72,1.12-3.48,2.18-5.24,3.24s-3.61,2-5.45,2.86c1.6-1.29,3.24-2.51,4.88-3.72s3.24-2.49,4.86-3.71c3.18-2.53,6.4-5,9.44-7.68s6.07-5.36,8.9-8.25c1.41-1.46,2.8-2.93,4.11-4.48A42.8,42.8,0,0,0,259,657.74Z"/><path class="cls-4" d="M242.61,663.47a5.41,5.41,0,0,1,.73-2.05,7.71,7.71,0,0,1,1.35-1.71,7.62,7.62,0,0,1,1.78-1.25,5.17,5.17,0,0,1,2.1-.61,19.16,19.16,0,0,1-1.48,1.5l-1.44,1.38-1.46,1.36A20,20,0,0,1,242.61,663.47Z"/><path class="cls-4" d="M335.44,719.29c-6.9-6.21-13.46-12.74-20-19.32-3.22-3.31-6.46-6.62-9.63-10s-6.34-6.74-9.47-10.15l2.73-1.28c.41,3.26.73,6.52,1.09,9.79s.63,6.53.95,9.8.57,6.54.79,9.82.42,6.56.55,9.85c-.7-3.22-1.33-6.45-1.92-9.68s-1.14-6.47-1.69-9.71-1.07-6.47-1.52-9.72-1-6.49-1.4-9.75l-.61-4.8,3.35,3.52c3.19,3.35,6.37,6.71,9.49,10.12s6.23,6.84,9.33,10.28C323.63,705,329.71,712,335.44,719.29Z"/><path class="cls-4" d="M310.41,703c-3.3,2.44-6.73,4.63-10.22,6.74-1.74,1-3.49,2.09-5.27,3.08s-3.56,2-5.37,2.92l-1.28.67.29-1.36c.63-2.94,1.31-5.87,2.18-8.77-.15,3-.47,6-.86,9l-1-.69c1.73-1.08,3.47-2.14,5.23-3.16s3.53-2,5.31-3C303,706.44,306.64,704.58,310.41,703Z"/><path class="cls-4" d="M74,431.14a39.92,39.92,0,0,0-7-8.08c-2.55-2.29-5.81-3.72-8.7-2.58a6.6,6.6,0,0,0-2,1.09,6.7,6.7,0,0,0-.82.78,5.2,5.2,0,0,0-.35.44l-.37.53a4.5,4.5,0,0,1-.61.72,2.28,2.28,0,0,1-1.23.63,2.11,2.11,0,0,1-1.48-.34,3.49,3.49,0,0,1-.75-.74,4.29,4.29,0,0,0-.63-.82,1.63,1.63,0,0,0-.75-.33,5.56,5.56,0,0,0-2.31.32,2.67,2.67,0,0,1-.57.07,1.53,1.53,0,0,1-.69-.18,4,4,0,0,1-.66-.5c-.36-.31-.71-.63-1-1A15,15,0,0,1,41,416.54a21.18,21.18,0,0,0,3.92,3.67c.36.26.72.5,1.09.73a3.48,3.48,0,0,0,.47.27s0,0,0,0l.1-.05a6.71,6.71,0,0,1,3-.7,3.66,3.66,0,0,1,1.8.55,3.22,3.22,0,0,1,.74.66l.44.54c.12.14.22.21.23.2a.3.3,0,0,0-.18-.05c-.22.07,0,0,.17-.36.09-.16.23-.38.38-.61a7.73,7.73,0,0,1,.49-.64,9.11,9.11,0,0,1,1.12-1.12A9.34,9.34,0,0,1,57.44,418a8.87,8.87,0,0,1,6.2.15,13.28,13.28,0,0,1,4.78,3.43,25.87,25.87,0,0,1,1.8,2.17l1.57,2.3A20.3,20.3,0,0,1,74,431.14Z"/><path class="cls-4" d="M54.24,437.86A22.88,22.88,0,0,0,50.41,435a5.63,5.63,0,0,0-2.07-.6,17.3,17.3,0,0,1-2.51-.22,8.52,8.52,0,0,1-4.43-2.78A11.6,11.6,0,0,1,39.06,427a25.92,25.92,0,0,0,3.21,3.58,9,9,0,0,0,3.91,2.11,17.08,17.08,0,0,0,2.34.28A5.94,5.94,0,0,1,51,434,10.85,10.85,0,0,1,54.24,437.86Z"/><path class="cls-4" d="M26.38,410c1.13,1.7,2.19,3.45,3.2,5.23a27.07,27.07,0,0,1,2.75,5.69,8.71,8.71,0,0,1,.25,3.59c-.14,1.15-.38,2.13-.52,3a22.69,22.69,0,0,0-.21,5.5A12.86,12.86,0,0,0,33.26,438a9.27,9.27,0,0,0,3.35,3.49,7.16,7.16,0,0,0,4.53,1.1,6.87,6.87,0,0,0,1.2-.26,10,10,0,0,1,1.76-.44,5,5,0,0,1,3.93,1.2l-1.94.37a3.36,3.36,0,0,0,.64-1.85,18.88,18.88,0,0,0,.06-2.53,9.2,9.2,0,0,1,.34-2.79,3.64,3.64,0,0,1,1.62-2.21A3.59,3.59,0,0,0,48,436.4a10.29,10.29,0,0,0,.35,2.46,18.49,18.49,0,0,1,.56,2.71,6,6,0,0,1-.53,3.21l-.57,1.12-1.37-.75a2.32,2.32,0,0,0-1.79-.21,10.81,10.81,0,0,0-1.12.46,10.24,10.24,0,0,1-1.7.59,9.67,9.67,0,0,1-3.71.13A12,12,0,0,1,34.67,445a12.58,12.58,0,0,1-5.07-5,15.47,15.47,0,0,1-1.79-6.63,21.44,21.44,0,0,1,.69-6.53c.26-1.07.61-2,.81-2.87a6.23,6.23,0,0,0,.18-2.43,16.26,16.26,0,0,0-.61-2.74q-.48-1.42-.9-2.88C27.39,414,26.85,412,26.38,410Z"/><path class="cls-4" d="M50.24,502.19A5.51,5.51,0,0,0,51,504.3a12.72,12.72,0,0,0,1.23,1.83c.88,1.14,2.09,2,3.18,1.88a5.77,5.77,0,0,0,1.74-.45c.11-.11.09-.07.15-.36a7.34,7.34,0,0,0,.06-.95,10.84,10.84,0,0,0-1-4c-.53-1.36-1.22-2.79-1.69-4.3a26,26,0,0,1-1-4.6,21.17,21.17,0,0,1-.09-4.71,6.37,6.37,0,0,1,.7-2.32,3.72,3.72,0,0,1,1.7-1.61,4.69,4.69,0,0,0-1.38,4,30.09,30.09,0,0,0,.68,4.39,34.43,34.43,0,0,0,1.26,4.24c.49,1.38,1.14,2.69,1.76,4.15a12.38,12.38,0,0,1,1.07,4.82,7.47,7.47,0,0,1-.17,1.31,2.42,2.42,0,0,1-.32.83,2.09,2.09,0,0,1-.7.69,3.6,3.6,0,0,1-1.42.45,9.61,9.61,0,0,1-1.26.1,4,4,0,0,1-2.56-1,7.61,7.61,0,0,1-1.54-2,11.26,11.26,0,0,1-.91-2.19A4.88,4.88,0,0,1,50.24,502.19Z"/><path class="cls-4" d="M57.53,501.64a6,6,0,0,0,3.91,4.05,3.31,3.31,0,0,0,2.49-.22,1.55,1.55,0,0,0,.38-1.89,7.78,7.78,0,0,0-.61-1.23c-.25-.45-.5-.93-.73-1.4a27,27,0,0,1-2.65-9.13,27.25,27.25,0,0,1,.08-6.38,11.92,11.92,0,0,1,2.54-6,19,19,0,0,1,2.3-2.2,8.45,8.45,0,0,1,2.8-1.72,13.53,13.53,0,0,1,3.15-.4l1.54-.08.78,0a1.11,1.11,0,0,1,.4,0c.06,0,.15.1.1.18s-.19.06-.15,0c0,.09.1.05.12,0s0-.08-.09-.09a1.21,1.21,0,0,0-.36.07l-.75.18-1.51.34a13.61,13.61,0,0,0-2.86.8,7.38,7.38,0,0,0-2.23,1.76,21,21,0,0,0-2,2.21,10.88,10.88,0,0,0-1.85,5.29,27,27,0,0,0,0,5.89,28,28,0,0,0,1.21,5.79,27.34,27.34,0,0,0,1,2.79c.2.46.41.89.63,1.36a8.82,8.82,0,0,1,.61,1.58,3.71,3.71,0,0,1,0,1.93,2.5,2.5,0,0,1-1.28,1.61,3.64,3.64,0,0,1-1.82.36,5.25,5.25,0,0,1-1.67-.36,5.39,5.39,0,0,1-2.52-2.08A6.85,6.85,0,0,1,57.53,501.64Z"/><path class="cls-4" d="M91.33,493a27.61,27.61,0,0,1-5.9,1.82c-1,.21-2,.36-3.06.53s-2.05.25-3.08.34-2.06.17-3.09.2l-3.1.06c-2.06-.05-4.12-.1-6.17-.27A100.11,100.11,0,0,1,54.71,494c-2-.43-4-.93-6-1.43s-3.94-1.16-5.88-1.83c2,.21,4.06.52,6.08.82s4,.54,6.06.82c4,.46,8.06,1,12.11,1.26s8.08.51,12.12.47c2,0,4.05-.09,6.07-.26A42.84,42.84,0,0,0,91.33,493Z"/><path class="cls-4" d="M75.7,485.48a5.33,5.33,0,0,1,2-.93,7.21,7.21,0,0,1,2.16-.25,7.75,7.75,0,0,1,2.14.37,5.55,5.55,0,0,1,1.92,1.05c-.75.06-1.43,0-2.11,0l-2-.05-2-.07C77.13,485.6,76.44,485.58,75.7,485.48Z"/><path class="cls-4" d="M18.22,372.9a11.72,11.72,0,0,1,4.08-1.85,13.88,13.88,0,0,1,4.55-.3,13.49,13.49,0,0,1,8.32,3.92l-1.64.7a4.34,4.34,0,0,1,1.17-3.15,14.4,14.4,0,0,1,2.15-2,21.42,21.42,0,0,1,4.88-2.83,22.28,22.28,0,0,1,5.43-1.53,23.22,23.22,0,0,1,5.65-.11L52,367.71a24.85,24.85,0,0,0-5.16-3.06,9.39,9.39,0,0,1-4.67-4.89,5,5,0,0,1-.25-1.8,14.51,14.51,0,0,1,.22-1.64c.18-1,.24-1.9-.41-2.4a3.19,3.19,0,0,0-2.68-.14,7.2,7.2,0,0,1-3.11.54,7.72,7.72,0,0,0,2.93-1,3.71,3.71,0,0,1,3.37-.15,2.47,2.47,0,0,1,1.1,1.58,6.09,6.09,0,0,1,.06,1.74,11.39,11.39,0,0,0-.08,1.49,3.7,3.7,0,0,0,.31,1.27,5.79,5.79,0,0,0,1.66,2.15,11.09,11.09,0,0,0,2.46,1.53c1.79.89,3.89,1.6,5.71,3.15l2.63,2.24L52.59,368a21.8,21.8,0,0,0-10,1.53A22.31,22.31,0,0,0,38.12,372a12.64,12.64,0,0,0-1.89,1.58,2.62,2.62,0,0,0-.82,1.71l0,2.64L33.77,376a12.66,12.66,0,0,0-7.1-4A13.53,13.53,0,0,0,18.22,372.9Z"/><path class="cls-4" d="M41.28,375.57a39.86,39.86,0,0,1-2.2-3.66c-.7-1.22-1.36-2.42-2.11-3.55a23.11,23.11,0,0,0-2.48-3.19,19,19,0,0,0-3.15-2.71,8.32,8.32,0,0,1,4.05,1.7,13.19,13.19,0,0,1,3,3.26,18.28,18.28,0,0,1,1.89,3.94A20.13,20.13,0,0,1,41.28,375.57Z"/><path class="cls-4" d="M48.29,371.32a5.83,5.83,0,0,1,6.13,2.77c-1.16-.4-2.1-.88-3.1-1.32S49.35,371.91,48.29,371.32Z"/><path class="cls-4" d="M245.47,49.58a5.39,5.39,0,0,0-2.11.71,12.19,12.19,0,0,0-1.83,1.23c-1.14.88-2,2.08-1.89,3.18a5.77,5.77,0,0,0,.45,1.74c.1.11.07.08.36.15a5.86,5.86,0,0,0,1,0,10.9,10.9,0,0,0,4-1c1.36-.53,2.79-1.21,4.3-1.68a26.12,26.12,0,0,1,4.61-1,21.69,21.69,0,0,1,4.7-.08,6.32,6.32,0,0,1,2.32.71A3.65,3.65,0,0,1,263,55.29a4.66,4.66,0,0,0-4-1.39,28.76,28.76,0,0,0-4.39.67,32.73,32.73,0,0,0-4.24,1.25c-1.38.49-2.7,1.13-4.15,1.75a12.42,12.42,0,0,1-4.83,1.06,7.47,7.47,0,0,1-1.31-.17,2.76,2.76,0,0,1-.82-.32,2.25,2.25,0,0,1-.7-.71,3.9,3.9,0,0,1-.45-1.42,9.56,9.56,0,0,1-.09-1.26,4,4,0,0,1,1-2.56A7.2,7.2,0,0,1,241,50.66a11.26,11.26,0,0,1,2.19-.91A4.75,4.75,0,0,1,245.47,49.58Z"/><path class="cls-4" d="M246,56.87a6,6,0,0,0-4.06,3.9,3.31,3.31,0,0,0,.21,2.49,1.55,1.55,0,0,0,1.89.38,7.33,7.33,0,0,0,1.24-.6c.44-.26.93-.5,1.4-.73a28,28,0,0,1,2.93-1.24,29.16,29.16,0,0,1,6.2-1.4,27.26,27.26,0,0,1,6.38.1,11.86,11.86,0,0,1,6,2.55,19.78,19.78,0,0,1,2.2,2.31,8.53,8.53,0,0,1,1.71,2.8,13.09,13.09,0,0,1,.4,3.16l.08,1.54,0,.77a1.35,1.35,0,0,1,0,.4c0,.07-.1.16-.19.1s-.06-.19,0-.15c-.08,0,0,.11,0,.12s.09,0,.09-.09a1.69,1.69,0,0,0-.06-.36l-.19-.75L272,70.66a14.93,14.93,0,0,0-.79-2.86,7.38,7.38,0,0,0-1.76-2.23,21.1,21.1,0,0,0-2.21-2,10.85,10.85,0,0,0-5.28-1.86,27,27,0,0,0-5.89,0,28.72,28.72,0,0,0-5.8,1.19,27.34,27.34,0,0,0-2.79,1c-.46.2-.89.41-1.36.63a9.64,9.64,0,0,1-1.58.61,3.82,3.82,0,0,1-1.93,0A2.5,2.5,0,0,1,241,63.94a3.65,3.65,0,0,1-.35-1.82,5,5,0,0,1,.36-1.67,5.41,5.41,0,0,1,2.09-2.52A6.79,6.79,0,0,1,246,56.87Z"/><path class="cls-4" d="M254.55,90.69a27.28,27.28,0,0,1-1.81-5.91c-.21-1-.36-2-.53-3.06s-.24-2-.33-3.08-.16-2.06-.19-3.09l-.05-3.1c.05-2.06.1-4.12.27-6.17a104.22,104.22,0,0,1,1.76-12.22c.44-2,.94-4,1.44-6s1.18-3.93,1.85-5.87c-.22,2-.53,4.06-.84,6.08s-.54,4-.83,6.06c-.47,4-1,8.06-1.28,12.1s-.53,8.08-.5,12.13c0,2,.08,4,.24,6.06A44.5,44.5,0,0,0,254.55,90.69Z"/><path class="cls-4" d="M262.13,75.07a5.46,5.46,0,0,1,.93,2,7.61,7.61,0,0,1-.14,4.3,5.2,5.2,0,0,1-1.05,1.91,18.71,18.71,0,0,1,0-2.11l0-2,.08-2A19.75,19.75,0,0,1,262.13,75.07Z"/><path class="cls-4" d="M156.93,100.92c9.28-.46,18.53-.46,27.79-.39,4.63.09,9.25.14,13.88.31s9.24.31,13.87.51l-1,2.84c-2.58-2-5.11-4.11-7.66-6.17s-5.06-4.19-7.59-6.28-5-4.24-7.48-6.42-4.93-4.35-7.34-6.59c2.77,1.79,5.49,3.63,8.19,5.51s5.37,3.78,8,5.69,5.32,3.84,7.94,5.83,5.27,3.91,7.85,5.93l3.82,3-4.85-.13c-4.62-.13-9.25-.28-13.87-.5s-9.24-.45-13.86-.71C175.38,102.72,166.15,102.05,156.93,100.92Z"/><path class="cls-4" d="M186.2,94.85c.61-4,1.5-8,2.49-12,.5-2,1-4,1.57-5.9s1.14-3.91,1.75-5.86l.43-1.38.76,1.17c1.63,2.53,3.2,5.09,4.63,7.76-2-2.25-3.9-4.6-5.73-7l1.2-.2c-.47,2-1,4-1.49,5.92s-1.08,3.93-1.65,5.88C189,87.17,187.73,91.05,186.2,94.85Z"/><path class="cls-4" d="M545.46,121a39.94,39.94,0,0,0,10.69.78c3.42-.18,6.74-1.46,8-4.3a6.75,6.75,0,0,0,.64-2.18,6.21,6.21,0,0,0,0-1.14,5.62,5.62,0,0,0-.06-.56l-.11-.63a4.28,4.28,0,0,1-.08-.94,2.33,2.33,0,0,1,.43-1.32,2.14,2.14,0,0,1,1.29-.8,3,3,0,0,1,1.05,0,5.64,5.64,0,0,0,1,.14,1.67,1.67,0,0,0,.76-.3,5.69,5.69,0,0,0,1.42-1.85,2.33,2.33,0,0,1,.35-.46,1.51,1.51,0,0,1,.62-.36,4.42,4.42,0,0,1,.82-.11c.47,0,.95-.05,1.42,0a14.94,14.94,0,0,1,5.45,1.12,20.8,20.8,0,0,0-5.36.16q-.66.1-1.29.24a2.69,2.69,0,0,0-.52.15s0,0,.05,0,0,0,0,.11a6.71,6.71,0,0,1-1.63,2.62,3.73,3.73,0,0,1-1.66.88,3.85,3.85,0,0,1-1,.05l-.69-.07a.68.68,0,0,0-.3,0,.26.26,0,0,0,.16-.09c.11-.2,0,0,.14.38,0,.17.11.43.15.7a7.14,7.14,0,0,1,.11.79,9.37,9.37,0,0,1,0,1.59,9.16,9.16,0,0,1-.83,3,8.88,8.88,0,0,1-4.51,4.27,13.28,13.28,0,0,1-5.81.94,25.52,25.52,0,0,1-2.8-.28l-2.74-.52A20.41,20.41,0,0,1,545.46,121Z"/><path class="cls-4" d="M554.77,102.32a23.34,23.34,0,0,0,4.73-.68,5.68,5.68,0,0,0,1.89-1A16.39,16.39,0,0,1,563.33,99a8.5,8.5,0,0,1,5.1-1.15,11.51,11.51,0,0,1,4.79,1.51,26.42,26.42,0,0,0-4.8-.29,9.11,9.11,0,0,0-4.26,1.26,18.76,18.76,0,0,0-1.87,1.46,6,6,0,0,1-2.5,1A10.83,10.83,0,0,1,554.77,102.32Z"/><path class="cls-4" d="M594.18,102.45c-2-.4-4-.9-5.95-1.45a26.61,26.61,0,0,1-6-2.1,8.78,8.78,0,0,1-2.71-2.36c-.71-.92-1.23-1.78-1.77-2.52A22.64,22.64,0,0,0,574.06,90a12.94,12.94,0,0,0-4.49-2.51,9.3,9.3,0,0,0-4.83-.11,7.07,7.07,0,0,0-4,2.42,6.22,6.22,0,0,0-.66,1,10.51,10.51,0,0,1-.94,1.55,5,5,0,0,1-3.64,1.92l1.11-1.63a3.52,3.52,0,0,0,.85,1.77,22.38,22.38,0,0,0,1.74,1.83,9,9,0,0,1,1.73,2.22,3.66,3.66,0,0,1,.41,2.71,3.59,3.59,0,0,0-1.11-2.21,10.37,10.37,0,0,0-2-1.49A19.3,19.3,0,0,1,556,95.91a5.85,5.85,0,0,1-1.88-2.64l-.39-1.21,1.5-.42a2.4,2.4,0,0,0,1.42-1.11,11.24,11.24,0,0,0,.47-1.12,9.62,9.62,0,0,1,.79-1.62,9.49,9.49,0,0,1,2.54-2.7,11.34,11.34,0,0,1,3.26-1.59,12.38,12.38,0,0,1,7.11,0,15.32,15.32,0,0,1,6,3.44A21.62,21.62,0,0,1,580.84,92c.57.94,1,1.86,1.44,2.61a6.21,6.21,0,0,0,1.58,1.84A17,17,0,0,0,586.23,98c.89.45,1.78.91,2.66,1.4C590.67,100.36,592.43,101.36,594.18,102.45Z"/><path class="cls-4" d="M626.11,123a11.71,11.71,0,0,1-1.59,4.18,14,14,0,0,1-3,3.42,13.45,13.45,0,0,1-8.67,3.08l.67-1.65a4.35,4.35,0,0,1,1.39,3.06,13.79,13.79,0,0,1-.14,2.91,21.45,21.45,0,0,1-1.47,5.45,22.62,22.62,0,0,1-2.77,4.91,23.24,23.24,0,0,1-3.93,4.06l-.76-2a25.35,25.35,0,0,0,5.82-1.47,9.46,9.46,0,0,1,6.76.17,5.23,5.23,0,0,1,1.45,1.11,13,13,0,0,1,1,1.32c.58.84,1.17,1.51,2,1.41a3.2,3.2,0,0,0,2-1.79,7.18,7.18,0,0,1,1.82-2.57,7.6,7.6,0,0,0-1.36,2.78,3.68,3.68,0,0,1-2.29,2.48,2.38,2.38,0,0,1-1.89-.35,5.55,5.55,0,0,1-1.26-1.19,14.27,14.27,0,0,0-1-1.11,3.73,3.73,0,0,0-1.11-.68,5.66,5.66,0,0,0-2.7-.35,11.13,11.13,0,0,0-2.82.64c-1.9.63-3.89,1.62-6.28,1.8l-3.43.26,2.68-2.22a21.91,21.91,0,0,0,6-8.13,22.6,22.6,0,0,0,1.44-4.9,12.57,12.57,0,0,0,.23-2.45,2.6,2.6,0,0,0-.63-1.78l-1.87-1.86,2.54.21a12.76,12.76,0,0,0,7.87-2.17A13.55,13.55,0,0,0,626.11,123Z"/><path class="cls-4" d="M607.87,137.37a41.26,41.26,0,0,1,4.15,1c1.35.37,2.66.76,4,1a23.54,23.54,0,0,0,4,.52,18.4,18.4,0,0,0,4.14-.31,8.18,8.18,0,0,1-4.07,1.65,12.92,12.92,0,0,1-4.43-.18,17.54,17.54,0,0,1-4.12-1.46A20.85,20.85,0,0,1,607.87,137.37Z"/><path class="cls-4" d="M605.9,145.32a5.84,5.84,0,0,1-6.3,2.36c1.1-.53,2.11-.86,3.12-1.25S604.72,145.65,605.9,145.32Z"/><path class="cls-4" d="M646.52,157.1c.44,9.28.42,18.54.33,27.79-.09,4.63-.16,9.25-.33,13.88s-.33,9.24-.55,13.87l-2.84-1c2-2.59,4.13-5.11,6.2-7.66s4.19-5.05,6.29-7.57,4.25-5,6.43-7.47,4.36-4.91,6.61-7.32q-2.7,4.14-5.53,8.17c-1.86,2.71-3.79,5.37-5.7,8s-3.86,5.32-5.85,7.93-3.93,5.26-6,7.84l-3,3.81.15-4.85c.14-4.62.29-9.25.52-13.87s.47-9.24.74-13.86C644.68,175.55,645.37,166.32,646.52,157.1Z"/><path class="cls-4" d="M652.53,186.38c4.05.62,8,1.52,12,2.51,2,.51,3.94,1,5.89,1.59s3.91,1.14,5.85,1.76l1.39.43-1.18.76c-2.53,1.62-5.09,3.2-7.76,4.62,2.25-2,4.6-3.89,7-5.72l.21,1.2c-2-.47-4-1-5.93-1.5s-3.92-1.09-5.87-1.66C660.2,189.19,656.33,187.92,652.53,186.38Z"/><path class="cls-4" d="M369.38,13.61c8.06,8.07,15.83,16.39,23.53,24.76s15.3,16.83,22.8,25.37S430.62,80.9,438,89.56,452.6,107,459.79,115.75l-6.92,2.79q-.74-12.08-1.31-24.15t-1-24.16l-.33-12.09c-.11-4-.2-8.07-.23-12.1s-.12-8.07-.1-12.11,0-8.08.1-12.13q1,6,1.78,12c.58,4,1.08,8,1.59,12s1,8,1.46,12l1.36,12q1.29,12,2.4,24.07T460.69,118l.95,12-7.87-9.21q-11.06-13-21.89-26.14t-21.43-26.5q-10.6-13.37-20.91-27C382.68,32.11,375.88,23,369.38,13.61Z"/><path class="cls-4" d="M428.52,57.1c4.19-2.79,8.49-5.37,12.83-7.87s8.72-4.91,13.14-7.26q13.25-7,26.92-13.24l3.26-1.48-.93,3.32-1.48,5.33-1.57,5.32L479,46.51c-.59,1.75-1.18,3.51-1.82,5.25.17-1.85.41-3.68.65-5.52l.8-5.49.9-5.47,1-5.44,2.34,1.83q-13.15,7.23-26.71,13.66c-4.52,2.14-9.07,4.22-13.67,6.2S433.26,55.4,428.52,57.1Z"/><path class="cls-4" d="M714.32,257.69c-5.17,10.17-10.67,20.13-16.24,30.05S686.82,307.5,681,317.28s-11.7,19.49-17.65,29.17-12,19.3-18.14,28.86l-4.79-5.71q11.24-4.46,22.54-8.73t22.68-8.42l11.39-4.06c3.8-1.35,7.61-2.69,11.44-4s7.63-2.61,11.48-3.85,7.68-2.49,11.55-3.66q-5.38,2.77-10.84,5.41c-3.62,1.79-7.28,3.51-10.92,5.23s-7.31,3.44-11,5.11l-11,5q-11,4.95-22.14,9.74t-22.26,9.43l-11.11,4.62,6.32-10.33q8.89-14.53,18.06-28.91t18.55-28.6q9.4-14.22,19.15-28.23C700.86,276.07,707.42,266.78,714.32,257.69Z"/><path class="cls-4" d="M691.31,327.4c4,3.12,7.74,6.41,11.46,9.75s7.37,6.78,11,10.25q10.8,10.41,20.93,21.49l2.42,2.64-3.44.15-5.53.24-5.54.15-5.55.05c-1.85,0-3.7,0-5.56-.1,1.82-.4,3.64-.74,5.46-1.08l5.46-.94,5.48-.84,5.49-.75-1,2.79q-11-10.26-21.27-21.16c-3.43-3.63-6.82-7.32-10.13-11.08S694.39,331.38,691.31,327.4Z"/><path class="cls-4" d="M589.2,661.3c-11.27-1.76-22.45-3.9-33.6-6.12s-22.28-4.58-33.38-7.06-22.15-5.07-33.2-7.73S467,635,456,632.09l4-6.33q7.71,9.32,15.28,18.73t15,19l7.39,9.58c2.46,3.19,4.91,6.39,7.32,9.63s4.85,6.45,7.22,9.73,4.75,6.53,7.06,9.85q-4.31-4.28-8.51-8.64c-2.82-2.88-5.59-5.82-8.36-8.76s-5.53-5.87-8.26-8.85l-8.18-8.9q-8.13-9-16.13-18t-15.87-18.23l-7.84-9.14,11.79,2.81c11.05,2.63,22.07,5.39,33.08,8.2s22,5.75,32.94,8.78,21.89,6.17,32.78,9.45S578.42,657.56,589.2,661.3Z"/><path class="cls-4" d="M515.79,661c-1.74,4.73-3.69,9.35-5.72,13.93s-4.15,9.11-6.34,13.6c-4.36,9-9,17.85-13.94,26.57L488,718.25,486.82,715l-1.95-5.18L483,704.62l-1.77-5.26c-.56-1.77-1.12-3.53-1.63-5.32.95,1.6,1.84,3.22,2.73,4.85l2.59,4.91,2.5,4.94,2.41,5-3-.11q6.36-13.59,13.52-26.78c2.39-4.39,4.84-8.75,7.39-13.06S513,665.2,515.79,661Z"/><path class="cls-4" d="M166.68,667.47c-1.81-11.26-3.24-22.55-4.59-33.85s-2.56-22.6-3.64-33.91-2-22.64-2.94-34-1.68-22.66-2.36-34l7.24,1.79q-6.46,10.22-13.07,20.34T134,574l-6.82,10c-2.26,3.33-4.55,6.66-6.89,10s-4.63,6.61-7,9.87-4.74,6.55-7.18,9.78c1.81-3.62,3.68-7.21,5.57-10.77s3.81-7.12,5.74-10.67,3.87-7.08,5.85-10.59l5.93-10.54q6-10.51,12.14-20.92t12.42-20.75L160,519.11l1,12.07c.92,11.33,1.71,22.67,2.45,34s1.36,22.69,1.87,34,.92,22.72,1.18,34.09S166.9,656.06,166.68,667.47Z"/><path class="cls-4" d="M144.18,597.6c-5-.2-10-.62-15-1.13s-9.95-1.12-14.9-1.81q-14.86-2-29.58-5l-3.51-.7,2.69-2.15,4.33-3.46,4.38-3.39L97,576.63c1.5-1.08,3-2.16,4.55-3.2-1.23,1.4-2.5,2.75-3.77,4.1l-3.86,4L90,585.42l-4,3.83-.82-2.85c9.93,1.22,19.82,2.72,29.65,4.56,4.92.91,9.82,1.89,14.71,3S139.34,596.19,144.18,597.6Z"/><path class="cls-4" d="M29.84,267.68C40,262.46,50.27,257.6,60.59,252.82s20.7-9.44,31.12-14,20.89-9,31.38-13.33,21-8.62,31.6-12.78l.54,7.44q-11.72-3-23.39-6.12t-23.31-6.45l-11.62-3.38q-5.8-1.68-11.59-3.47c-3.86-1.17-7.72-2.35-11.56-3.6s-7.69-2.47-11.52-3.79q6,.91,12,2c4,.67,8,1.41,11.92,2.15S94.05,199,98,199.76l11.86,2.37q11.85,2.44,23.65,5.05t23.57,5.38l11.72,2.76L157.64,220c-10.48,4.39-21,8.65-31.57,12.87s-21.14,8.32-31.78,12.33-21.31,7.91-32,11.69S40.75,264.35,29.84,267.68Z"/><path class="cls-4" d="M89.29,224.63c-1.37-4.85-2.52-9.73-3.58-14.62s-2-9.81-2.9-14.73q-2.67-14.76-4.39-29.68L78,162.05l2.88,1.89,4.62,3,4.58,3.12,4.53,3.2c1.5,1.1,3,2.19,4.45,3.34-1.71-.73-3.38-1.52-5.06-2.31l-5-2.44-4.93-2.52-4.89-2.61,2.46-1.66c1.92,9.82,3.56,19.68,4.86,29.6.66,5,1.25,9.92,1.73,14.91S89.13,219.59,89.29,224.63Z"/></g><g class="cls-3"><path class="cls-4" d="M484,497.59a21.64,21.64,0,0,0-1.81,5.52c-.36,1.83-.12,3.74,1.21,4.77a3.58,3.58,0,0,0,2.31.86,1.59,1.59,0,0,1,1.14.48,1.13,1.13,0,0,1,.25.79,1.46,1.46,0,0,1-.14.55,2.75,2.75,0,0,0-.2.52.78.78,0,0,0,.05.44,3,3,0,0,0,.79,1,1,1,0,0,1,.19.24.6.6,0,0,1,.09.34,1.5,1.5,0,0,1,0,.3l0,.19a6.69,6.69,0,0,1-.16.75,8,8,0,0,1-1.31,2.72,11.5,11.5,0,0,0,.63-2.84c0-.43.07-1.13,0-1a3.72,3.72,0,0,1-1.16-1.2,2,2,0,0,1-.25-1,3.18,3.18,0,0,1,.23-.88.43.43,0,0,0,0-.16s0,.07,0,.1,0,0-.23,0a4.92,4.92,0,0,1-3.14-1.11A4.81,4.81,0,0,1,480.8,506a7.05,7.05,0,0,1,.27-3.18A13.19,13.19,0,0,1,484,497.59Z"/><path class="cls-4" d="M492.58,505a12.34,12.34,0,0,0-.26,2.58,2.75,2.75,0,0,0,.3,1.13,9.4,9.4,0,0,1,.59,1.23,4.63,4.63,0,0,1-.07,2.83,6.14,6.14,0,0,1-1.42,2.32,14.45,14.45,0,0,0,.78-2.48,4.89,4.89,0,0,0-.1-2.41,12.61,12.61,0,0,0-.52-1.18,3.14,3.14,0,0,1-.22-1.45A5.84,5.84,0,0,1,492.58,505Z"/><path class="cls-4" d="M487.33,525.67c.48-1,1-2,1.55-2.94a14,14,0,0,1,1.89-2.86,4.8,4.8,0,0,1,1.6-1.11c.57-.26,1.09-.42,1.56-.61a12.21,12.21,0,0,0,2.62-1.42,5.59,5.59,0,0,0,2.6-4.57,3.65,3.65,0,0,0-.74-2.41,3.34,3.34,0,0,0-.45-.49,6.55,6.55,0,0,1-.7-.7,2.7,2.7,0,0,1-.53-2.16l.71.8a3.91,3.91,0,0,0-2.24.89,4.82,4.82,0,0,1-1.39.61,2,2,0,0,1-1.48-.13,1.9,1.9,0,0,0,1.31-.3,5.29,5.29,0,0,0,1.05-.85,9.91,9.91,0,0,1,1.1-1,3.17,3.17,0,0,1,1.65-.64l.68,0,0,.85a1.27,1.27,0,0,0,.39.89,4.45,4.45,0,0,0,.53.4,5.13,5.13,0,0,1,2.25,4.24,7,7,0,0,1-.92,3.74,8.54,8.54,0,0,1-2.6,2.68,11.66,11.66,0,0,1-3.23,1.49c-.57.18-1.11.28-1.56.42a3.2,3.2,0,0,0-1.18.59,20.78,20.78,0,0,0-2.2,2.27C488.9,524.1,488.14,524.89,487.33,525.67Z"/><path class="cls-6" d="M556,455a198.54,198.54,0,0,1-92.38,97.09,54.32,54.32,0,1,0-107.11-.83,53.88,53.88,0,0,0,8.81,22.06,199.92,199.92,0,0,1-133-58.66,54.33,54.33,0,1,0-50.62-86.9,198.59,198.59,0,0,1,9.82-134.63c1.5-3.37,3.07-6.65,4.73-9.88a54.32,54.32,0,1,0,66.89-75.13,199.76,199.76,0,0,1,143-30.84,54.31,54.31,0,1,0,91.94,40.81,199.89,199.89,0,0,1,72.81,125.76,54.3,54.3,0,1,0-10.38,100.06C559.15,447.65,557.63,451.35,556,455Z"/><path class="cls-4" d="M523.65,488.94a4.36,4.36,0,0,0,1.3-2,2.17,2.17,0,0,0,0-2,3.11,3.11,0,0,0-.7-.68c-.07,0,0,0-.2,0a2.88,2.88,0,0,0-.46.24,5.83,5.83,0,0,0-1.58,1.59c-.49.63-1,1.35-1.54,2a13.31,13.31,0,0,1-1.86,1.74,11.77,11.77,0,0,1-2.17,1.35,2.58,2.58,0,0,1-2.5,0,2.52,2.52,0,0,0,2.24-.46,15,15,0,0,0,1.85-1.54,22.43,22.43,0,0,0,3.07-3.73,6.63,6.63,0,0,1,1.95-1.84,4.39,4.39,0,0,1,.66-.29,1.24,1.24,0,0,1,1,.06,2,2,0,0,1,.6.53,5.43,5.43,0,0,1,.4.56,2.15,2.15,0,0,1,.24,1.47,3.75,3.75,0,0,1-.48,1.26A3.93,3.93,0,0,1,523.65,488.94Z"/><path class="cls-4" d="M521.37,485.7a3.23,3.23,0,0,0,.8-2.95,1.79,1.79,0,0,0-.79-1.1.86.86,0,0,0-1,.35c-.27.34-.52.88-.85,1.36a15,15,0,0,1-1,1.39,14.44,14.44,0,0,1-5.49,4.11,6.49,6.49,0,0,1-3.52.5,11.49,11.49,0,0,1-1.66-.46,4.71,4.71,0,0,1-1.58-.83,7.82,7.82,0,0,1-1.06-1.36l-.47-.69-.23-.35a.85.85,0,0,1-.1-.19s0-.1.06-.1.08.07,0,.07,0-.06,0-.05,0,0,0,.06.08.1.13.15l.29.3.57.61a7.18,7.18,0,0,0,1.18,1.11,3.91,3.91,0,0,0,1.43.55,13.65,13.65,0,0,0,1.58.3,5.93,5.93,0,0,0,3-.61,14.7,14.7,0,0,0,2.73-1.65,16.23,16.23,0,0,0,2.37-2.17,14.92,14.92,0,0,0,1-1.25,13.87,13.87,0,0,1,1-1.4,2.05,2.05,0,0,1,.9-.54,1.33,1.33,0,0,1,1.1.15,2.32,2.32,0,0,1,1,1.62A3.31,3.31,0,0,1,521.37,485.7Z"/><path class="cls-4" d="M508,472.35a21.25,21.25,0,0,1,4.6,4.86A40.32,40.32,0,0,1,516,483a55.49,55.49,0,0,1,2.59,6.17c.36,1.06.68,2.12,1,3.19s.55,2.16.78,3.25l-2.61-6.12c-.91-2-1.78-4-2.78-6s-2-3.91-3.15-5.78c-.57-.94-1.16-1.86-1.8-2.76A22.08,22.08,0,0,0,508,472.35Z"/><path class="cls-4" d="M508.8,481.73a3.84,3.84,0,0,1-2.16-3.89c.45.67.76,1.3,1.12,1.92S508.47,481,508.8,481.73Z"/><path class="cls-4" d="M326.11,560.89a7,7,0,0,1,0-4.82,7.38,7.38,0,0,1,3.17-3.85l.15,1a2.39,2.39,0,0,1-1.5-1,7.82,7.82,0,0,1-.74-1.39,11.63,11.63,0,0,1-.84-2.94,12.21,12.21,0,0,1,.62-6l.9.7a13.5,13.5,0,0,0-2.3,2.3,5.08,5.08,0,0,1-3.19,1.81c-1.41.13-2.39-1.13-3.13-.56a1.71,1.71,0,0,0-.44,1.4,3.76,3.76,0,0,1-.12,1.7,4.33,4.33,0,0,0-.15-1.67,2.06,2.06,0,0,1,.38-1.79,1.36,1.36,0,0,1,1-.37,3.12,3.12,0,0,1,.92.2,2.71,2.71,0,0,0,1.48.25,4.38,4.38,0,0,0,2.49-1.67,13.53,13.53,0,0,1,2.42-2.59l1.52-1.08-.63,1.78a11.8,11.8,0,0,0,.17,8.14c.32.87.77,1.73,1.36,1.86l1.45.31-1.3.64a7,7,0,0,0-3.06,3.2A7.29,7.29,0,0,0,326.11,560.89Z"/><path class="cls-4" d="M330.59,549.13c-1.48.54-3,.81-4.36,1.3a10.91,10.91,0,0,0-3.85,2.18,4.47,4.47,0,0,1,1.43-1.91,7.16,7.16,0,0,1,2.12-1.15A10.54,10.54,0,0,1,330.59,549.13Z"/><path class="cls-4" d="M329.29,544.88a2.93,2.93,0,0,1,.69-1.79,2.86,2.86,0,0,1,1.59-1.06c-.37.55-.75,1-1.11,1.45S329.75,544.4,329.29,544.88Z"/><path class="cls-4" d="M258.6,523.74a4.36,4.36,0,0,0,2,1.3,2.15,2.15,0,0,0,2,0,2.72,2.72,0,0,0,.68-.7c0-.07,0-.05,0-.2a2.82,2.82,0,0,0-.23-.46,5.83,5.83,0,0,0-1.59-1.58c-.63-.49-1.35-1-2-1.54a14,14,0,0,1-1.74-1.87,11.77,11.77,0,0,1-1.35-2.17,2.58,2.58,0,0,1,0-2.5,2.47,2.47,0,0,0,.45,2.23,15.91,15.91,0,0,0,1.53,1.86,22.48,22.48,0,0,0,3.73,3.08,6.63,6.63,0,0,1,1.84,1.95,4.36,4.36,0,0,1,.28.66,1.2,1.2,0,0,1-.06,1,2,2,0,0,1-.53.6,5.43,5.43,0,0,1-.56.4,2.15,2.15,0,0,1-1.47.24,4,4,0,0,1-1.26-.48A4.1,4.1,0,0,1,258.6,523.74Z"/><path class="cls-4" d="M261.85,521.47a3.21,3.21,0,0,0,2.94.8,1.8,1.8,0,0,0,1.11-.78.86.86,0,0,0-.35-1c-.34-.28-.88-.53-1.36-.86a13.64,13.64,0,0,1-1.38-1,15.22,15.22,0,0,1-2.38-2.5,14.59,14.59,0,0,1-1.72-3,6.49,6.49,0,0,1-.5-3.52,11.49,11.49,0,0,1,.47-1.66,4.81,4.81,0,0,1,.83-1.58,8.21,8.21,0,0,1,1.36-1.06l.69-.46.36-.23c.06,0,.11-.09.19-.1s.1,0,.1.06-.07.07-.08,0,.06,0,.06,0a0,0,0,0,0-.07,0,.58.58,0,0,0-.15.13l-.3.29-.61.57a7.13,7.13,0,0,0-1.11,1.17,4,4,0,0,0-.55,1.44,10.07,10.07,0,0,0-.3,1.57,5.81,5.81,0,0,0,.6,3,14.41,14.41,0,0,0,1.64,2.74,15.69,15.69,0,0,0,2.17,2.37,12.26,12.26,0,0,0,1.25,1,14.05,14.05,0,0,1,1.39,1,2.08,2.08,0,0,1,.54.89,1.35,1.35,0,0,1-.15,1.11,2.39,2.39,0,0,1-1.63,1A3.33,3.33,0,0,1,261.85,521.47Z"/><path class="cls-4" d="M275.23,508.1a21.2,21.2,0,0,1-4.87,4.58,40,40,0,0,1-5.77,3.42,55.58,55.58,0,0,1-6.18,2.58c-1.05.35-2.12.67-3.19,1s-2.16.55-3.25.77l6.12-2.59c2-.9,4-1.77,6-2.77s3.91-2,5.78-3.13c.94-.58,1.86-1.17,2.76-1.8A22.31,22.31,0,0,0,275.23,508.1Z"/><path class="cls-4" d="M265.85,508.9a3.85,3.85,0,0,1,3.89-2.15c-.67.45-1.3.77-1.92,1.12S266.58,508.58,265.85,508.9Z"/><path class="cls-4" d="M307.11,550.72c-1.4-2.09-2.71-4.23-4-6.37s-2.59-4.3-3.86-6.47q-3.76-6.51-7.32-13.15l1.61-.3c-.23,1.76-.5,3.52-.75,5.28s-.55,3.52-.82,5.28c-.58,3.51-1.19,7-1.94,10.52.13-3.57.41-7.13.71-10.67.17-1.78.31-3.55.51-5.32s.36-3.54.58-5.31l.32-2.59,1.29,2.29q3.69,6.55,7.14,13.25c1.14,2.23,2.28,4.47,3.38,6.73S306.1,548.42,307.11,550.72Z"/><path class="cls-4" d="M296.16,538.78c-2.07.83-4.16,1.53-6.28,2.17s-4.24,1.21-6.39,1.71l-.77.18.34-.67c.36-.73.73-1.46,1.11-2.18s.78-1.43,1.21-2.14c-.23.79-.52,1.56-.78,2.33s-.58,1.53-.88,2.28l-.43-.49c2.11-.68,4.23-1.27,6.37-1.82S294,539.13,296.16,538.78Z"/><path class="cls-4" d="M208.55,364.16A21.74,21.74,0,0,0,206,359c-1-1.54-2.56-2.74-4.23-2.53a3.59,3.59,0,0,0-2.24,1,1.53,1.53,0,0,1-1.15.46,1.17,1.17,0,0,1-.73-.37,1.8,1.8,0,0,1-.29-.5,2.54,2.54,0,0,0-.22-.51.91.91,0,0,0-.35-.27,2.94,2.94,0,0,0-1.26-.15,1,1,0,0,1-.31,0,.72.72,0,0,1-.3-.17l-.21-.21-.11-.16a6.42,6.42,0,0,1-.41-.65,8,8,0,0,1-1-2.85,11.72,11.72,0,0,0,1.57,2.46c.27.33.74.84.73.69a3.66,3.66,0,0,1,1.67,0,1.9,1.9,0,0,1,.87.53,3,3,0,0,1,.46.79.33.33,0,0,0,.09.14.13.13,0,0,0-.09-.05c-.12,0,0,0,.14-.17a4.86,4.86,0,0,1,3-1.43,4.79,4.79,0,0,1,3.23.91,7,7,0,0,1,2,2.45A13.16,13.16,0,0,1,208.55,364.16Z"/><path class="cls-4" d="M197.24,365a11.42,11.42,0,0,0-1.63-2,2.88,2.88,0,0,0-1-.6,8.57,8.57,0,0,1-1.28-.45,4.61,4.61,0,0,1-1.95-2.06,6.21,6.21,0,0,1-.63-2.65,13.33,13.33,0,0,0,1.2,2.32,4.84,4.84,0,0,0,1.77,1.63,10.75,10.75,0,0,0,1.2.47,3.18,3.18,0,0,1,1.17.87A5.82,5.82,0,0,1,197.24,365Z"/><path class="cls-4" d="M186.36,346.63c.36,1.05.69,2.11,1,3.18a14.4,14.4,0,0,1,.67,3.36,4.88,4.88,0,0,1-.35,1.92c-.22.58-.48,1.07-.68,1.52a12.31,12.31,0,0,0-.86,2.86,5.66,5.66,0,0,0,1.38,5.08,3.71,3.71,0,0,0,2.23,1.18,2.87,2.87,0,0,0,.67,0,5.41,5.41,0,0,1,1,0,2.67,2.67,0,0,1,1.9,1.16l-1.07-.07a3.89,3.89,0,0,0,1-2.21,5,5,0,0,1,.55-1.42,2,2,0,0,1,1.15-.94,1.93,1.93,0,0,0-.72,1.13,5.45,5.45,0,0,0-.14,1.34,9.81,9.81,0,0,1-.08,1.5,3.08,3.08,0,0,1-.71,1.61l-.45.51-.62-.58a1.28,1.28,0,0,0-.9-.35,4.36,4.36,0,0,0-.66.09,5.11,5.11,0,0,1-4.58-1.42,7,7,0,0,1-2-3.31,8.66,8.66,0,0,1-.05-3.72,11.73,11.73,0,0,1,1.24-3.34c.28-.53.59-1,.82-1.4a3.31,3.31,0,0,0,.42-1.25,21.06,21.06,0,0,0,0-3.16C186.36,348.85,186.34,347.75,186.36,346.63Z"/><path class="cls-4" d="M186.49,398.29a4.36,4.36,0,0,0,.49,2.33c.31.72.82,1.35,1.42,1.42a3.11,3.11,0,0,0,1,0c.07,0,.05,0,.12-.17a3.52,3.52,0,0,0,.16-.49,6,6,0,0,0,0-2.24c-.1-.79-.27-1.63-.31-2.49a13.57,13.57,0,0,1,.09-2.55,12,12,0,0,1,.59-2.49,2.58,2.58,0,0,1,1.79-1.74,2.49,2.49,0,0,0-1.26,1.9,16,16,0,0,0-.23,2.4,22,22,0,0,0,.45,4.81,6.59,6.59,0,0,1-.08,2.68,4.69,4.69,0,0,1-.27.67,1.25,1.25,0,0,1-.74.66,2.08,2.08,0,0,1-.81,0,4.44,4.44,0,0,1-.67-.11A2.15,2.15,0,0,1,187,402a4.2,4.2,0,0,1-.55-1.23A4,4,0,0,1,186.49,398.29Z"/><path class="cls-4" d="M190.39,399a3.24,3.24,0,0,0,1.51,2.65,1.78,1.78,0,0,0,1.34.22.84.84,0,0,0,.45-.94c0-.44-.25-1-.35-1.56a16.41,16.41,0,0,1-.26-1.71,15.24,15.24,0,0,1,.1-3.44,14.35,14.35,0,0,1,.9-3.34,6.49,6.49,0,0,1,2.14-2.84,11.4,11.4,0,0,1,1.51-.84,4.57,4.57,0,0,1,1.7-.53,7.69,7.69,0,0,1,1.71.22l.82.16.41.09a.56.56,0,0,1,.21.06s.07.07,0,.11-.11,0-.08,0,.05,0,.07,0,0,0,0,0a1.12,1.12,0,0,0-.2,0h-.42l-.83,0a6.58,6.58,0,0,0-1.61,0,3.91,3.91,0,0,0-1.41.62,11,11,0,0,0-1.33.9,5.81,5.81,0,0,0-1.68,2.53,15.81,15.81,0,0,0-.92,6.3,12.36,12.36,0,0,0,.16,1.61,12.25,12.25,0,0,1,.25,1.71,2,2,0,0,1-.24,1,1.38,1.38,0,0,1-.89.68,2.4,2.4,0,0,1-1.84-.47A3.32,3.32,0,0,1,190.39,399Z"/><path class="cls-4" d="M209.31,399a21.16,21.16,0,0,1-6.69-.2,41.61,41.61,0,0,1-6.5-1.67,52.89,52.89,0,0,1-6.18-2.56c-1-.49-2-1-3-1.55s-1.91-1.14-2.84-1.76l6.16,2.5c2.06.79,4.1,1.61,6.19,2.29s4.18,1.36,6.31,1.88c1.06.26,2.14.5,3.22.68A21.26,21.26,0,0,0,209.31,399Z"/><path class="cls-4" d="M202.11,392.93a3.86,3.86,0,0,1,4.27,1.23c-.79-.15-1.45-.37-2.15-.56S202.86,393.22,202.11,392.93Z"/><path class="cls-4" d="M187.06,326.05a7,7,0,0,1,4.82,0,7.37,7.37,0,0,1,3.85,3.18l-1,.15a2.39,2.39,0,0,1,1-1.5,7.82,7.82,0,0,1,1.39-.74,12.18,12.18,0,0,1,9-.2l-.7.9a13.15,13.15,0,0,0-2.3-2.3,5.16,5.16,0,0,1-1.8-3.2c-.12-1.41,1.14-2.38.57-3.13a1.71,1.71,0,0,0-1.4-.44,3.63,3.63,0,0,1-1.7-.13,4.14,4.14,0,0,0,1.67-.14,2.09,2.09,0,0,1,1.79.38,1.37,1.37,0,0,1,.37,1,3.26,3.26,0,0,1-.21.92,2.79,2.79,0,0,0-.25,1.48,4.33,4.33,0,0,0,1.67,2.48,13.86,13.86,0,0,1,2.58,2.43l1.08,1.53-1.78-.64a11.77,11.77,0,0,0-5.46-.54,12.42,12.42,0,0,0-2.68.69c-.87.32-1.73.77-1.86,1.36l-.32,1.45-.64-1.3a6.89,6.89,0,0,0-3.19-3.07A7.28,7.28,0,0,0,187.06,326.05Z"/><path class="cls-4" d="M198.82,330.56c-.55-1.49-.81-3-1.3-4.37a10.85,10.85,0,0,0-2.16-3.85,4.59,4.59,0,0,1,1.9,1.43,6.91,6.91,0,0,1,1.14,2.12A10.6,10.6,0,0,1,198.82,330.56Z"/><path class="cls-4" d="M203.07,329.27a3.13,3.13,0,0,1,2.85,2.28c-.55-.37-1-.75-1.45-1.11S203.55,329.72,203.07,329.27Z"/><path class="cls-4" d="M350,186.77a4.31,4.31,0,0,0-2.34.49c-.71.31-1.34.82-1.42,1.41a3.11,3.11,0,0,0,0,1c0,.07,0,0,.16.12a3.66,3.66,0,0,0,.5.16,5.81,5.81,0,0,0,2.24,0c.79-.09,1.63-.26,2.49-.3a13.57,13.57,0,0,1,2.55.1,11.78,11.78,0,0,1,2.48.59,2.54,2.54,0,0,1,1.74,1.8,2.49,2.49,0,0,0-1.9-1.27,17.28,17.28,0,0,0-2.39-.24,22.72,22.72,0,0,0-4.82.45,6.55,6.55,0,0,1-2.67-.09,4.22,4.22,0,0,1-.67-.26,1.3,1.3,0,0,1-.66-.75,1.91,1.91,0,0,1,0-.81,3.52,3.52,0,0,1,.12-.67,2.14,2.14,0,0,1,.87-1.21,3.82,3.82,0,0,1,1.23-.54A4,4,0,0,1,350,186.77Z"/><path class="cls-4" d="M349.26,190.67a3.23,3.23,0,0,0-2.66,1.5,1.8,1.8,0,0,0-.22,1.34.83.83,0,0,0,.94.45c.44,0,1-.24,1.56-.34a16.82,16.82,0,0,1,1.71-.26,15.83,15.83,0,0,1,3.44.1,14.89,14.89,0,0,1,3.34.91,6.5,6.5,0,0,1,2.83,2.15,12.77,12.77,0,0,1,.85,1.51,4.75,4.75,0,0,1,.52,1.71,7.84,7.84,0,0,1-.22,1.71l-.16.82-.1.41a.41.41,0,0,1-.06.2s-.07.07-.11,0,0-.1,0-.07,0,0,0,.06.05,0,.05,0a.39.39,0,0,0,0-.19v-.42l0-.84a7.75,7.75,0,0,0,0-1.61,4.09,4.09,0,0,0-.62-1.41,11,11,0,0,0-.9-1.33,5.89,5.89,0,0,0-2.52-1.69,14.82,14.82,0,0,0-3.1-.78,15,15,0,0,0-3.21-.15,12.39,12.39,0,0,0-1.6.16,14,14,0,0,1-1.71.25,2.11,2.11,0,0,1-1-.25,1.4,1.4,0,0,1-.67-.89,2.4,2.4,0,0,1,.47-1.84A3.34,3.34,0,0,1,349.26,190.67Z"/><path class="cls-4" d="M349.19,209.59a21.46,21.46,0,0,1,.22-6.69,40.2,40.2,0,0,1,1.69-6.49,54.67,54.67,0,0,1,2.56-6.18c.5-1,1-2,1.57-3s1.14-1.91,1.76-2.83l-2.51,6.15c-.8,2.06-1.62,4.1-2.31,6.18s-1.36,4.18-1.89,6.31c-.26,1.06-.5,2.14-.69,3.22A22.4,22.4,0,0,0,349.19,209.59Z"/><path class="cls-4" d="M355.28,202.4a3.58,3.58,0,0,1,.06,2.33,3.64,3.64,0,0,1-1.3,1.94c.16-.79.38-1.46.57-2.15S355,203.15,355.28,202.4Z"/><path class="cls-4" d="M296.53,201.83c2.47.5,4.91,1.09,7.36,1.66s4.87,1.23,7.29,1.87q7.27,2,14.47,4.17l-.92,1.35c-1.09-1.41-2.14-2.85-3.2-4.28s-2.09-2.88-3.14-4.32c-2.06-2.9-4.1-5.82-6-8.82,2.42,2.62,4.73,5.34,7,8.06,1.13,1.38,2.28,2.74,3.39,4.13s2.24,2.77,3.33,4.18l1.6,2.06-2.53-.71c-4.82-1.37-9.62-2.84-14.4-4.37-2.39-.78-4.77-1.56-7.15-2.39S298.88,202.75,296.53,201.83Z"/><path class="cls-4" d="M312.73,202.58c.87-2.05,1.86-4,2.92-6s2.15-3.86,3.32-5.73l.42-.67.24.72c.25.77.5,1.55.74,2.33s.46,1.57.65,2.36c-.39-.72-.73-1.46-1.08-2.2s-.67-1.49-1-2.23l.65.05c-1,2-2.1,3.88-3.23,5.78S314,200.78,312.73,202.58Z"/><path class="cls-4" d="M498,264.68a22,22,0,0,0,5.51,1.85c1.82.36,3.74.13,4.77-1.19a3.62,3.62,0,0,0,.88-2.3,1.57,1.57,0,0,1,.49-1.14,1.16,1.16,0,0,1,.78-.25,1.89,1.89,0,0,1,.55.14,2.22,2.22,0,0,0,.53.21.78.78,0,0,0,.44-.05,3.19,3.19,0,0,0,1-.78,1,1,0,0,1,.24-.19.6.6,0,0,1,.34-.09h.29l.2,0c.25.05.5.1.75.17a8.07,8.07,0,0,1,2.71,1.33,11.11,11.11,0,0,0-2.84-.65c-.43,0-1.12-.07-1,0a3.66,3.66,0,0,1-1.21,1.16,2,2,0,0,1-1,.24,3,3,0,0,1-.88-.24c-.1,0-.16,0-.16,0a.15.15,0,0,0,.09,0c.09-.09,0,0,0,.22a4.91,4.91,0,0,1-1.12,3.14,4.79,4.79,0,0,1-2.94,1.63,7.17,7.17,0,0,1-3.18-.29A13.23,13.23,0,0,1,498,264.68Z"/><path class="cls-4" d="M505.36,256.09a12.38,12.38,0,0,0,2.57.28,3,3,0,0,0,1.14-.29,8.27,8.27,0,0,1,1.23-.58,4.55,4.55,0,0,1,2.83.08,6.29,6.29,0,0,1,2.32,1.43,14.33,14.33,0,0,0-2.49-.79,4.86,4.86,0,0,0-2.4.09,10.37,10.37,0,0,0-1.19.51,3.22,3.22,0,0,1-1.44.21A5.77,5.77,0,0,1,505.36,256.09Z"/><path class="cls-4" d="M526.05,261.47c-1-.49-2-1-2.94-1.56a14.79,14.79,0,0,1-2.85-1.91,5.07,5.07,0,0,1-1.1-1.61c-.25-.57-.41-1.1-.59-1.56a12.33,12.33,0,0,0-1.41-2.64,5.59,5.59,0,0,0-4.55-2.62,3.68,3.68,0,0,0-2.42.73,3.18,3.18,0,0,0-.49.44,5.24,5.24,0,0,1-.71.69,2.68,2.68,0,0,1-2.16.52l.81-.7a3.87,3.87,0,0,0,.87,2.24,4.62,4.62,0,0,1,.61,1.4,2,2,0,0,1-.15,1.47,1.92,1.92,0,0,0-.28-1.31,6,6,0,0,0-.85-1.05,12.35,12.35,0,0,1-1-1.11,3.17,3.17,0,0,1-.63-1.65l0-.68.85,0a1.31,1.31,0,0,0,.9-.39,4.72,4.72,0,0,0,.4-.53,5.12,5.12,0,0,1,.63-.75,5.71,5.71,0,0,1,3.62-1.47,7,7,0,0,1,3.74.94A8.61,8.61,0,0,1,519,251a11.71,11.71,0,0,1,1.47,3.25c.18.57.28,1.11.41,1.56a3.05,3.05,0,0,0,.59,1.18,18.91,18.91,0,0,0,2.25,2.21C524.48,259.89,525.27,260.66,526.05,261.47Z"/><path class="cls-4" d="M540.05,276.56a7,7,0,0,1-3.44,3.38,7.29,7.29,0,0,1-5,.45l.57-.78a2.37,2.37,0,0,1,.32,1.8,8.34,8.34,0,0,1-.47,1.51,11.82,11.82,0,0,1-1.5,2.66,12.11,12.11,0,0,1-4.73,3.81l-.14-1.12a14.15,14.15,0,0,0,3.26,0,5.08,5.08,0,0,1,3.53,1c1.08.91.87,2.49,1.8,2.61a1.68,1.68,0,0,0,1.3-.67,3.76,3.76,0,0,1,1.3-1.11,4.22,4.22,0,0,0-1.09,1.28,2,2,0,0,1-1.53,1,1.34,1.34,0,0,1-.95-.43,3.36,3.36,0,0,1-.51-.8,2.71,2.71,0,0,0-.86-1.22,4.28,4.28,0,0,0-2.94-.59,14.18,14.18,0,0,1-3.54.1l-1.84-.33,1.71-.8a11.91,11.91,0,0,0,4.26-3.46,12.65,12.65,0,0,0,1.41-2.38c.39-.84.69-1.77.36-2.28l-.8-1.25,1.37.47a6.87,6.87,0,0,0,4.43-.08A7.15,7.15,0,0,0,540.05,276.56Z"/><path class="cls-4" d="M528.54,281.65c1.43.67,2.67,1.55,4,2.19a11.18,11.18,0,0,0,4.25,1.21,4.5,4.5,0,0,1-2.36.31,6.93,6.93,0,0,1-2.31-.69A10.68,10.68,0,0,1,528.54,281.65Z"/><path class="cls-4" d="M526.43,285.57a3.16,3.16,0,0,1-3.62.39c.65-.13,1.22-.17,1.81-.24S525.77,285.58,526.43,285.57Z"/><path class="cls-4" d="M546.19,297.22c-.51,2.47-1.1,4.91-1.68,7.35s-1.24,4.87-1.89,7.29q-2,7.27-4.19,14.46l-1.35-.93c1.41-1.08,2.85-2.12,4.28-3.18s2.88-2.09,4.33-3.13c2.9-2.06,5.83-4.1,8.84-6-2.63,2.42-5.35,4.72-8.09,7-1.38,1.13-2.74,2.28-4.13,3.38s-2.77,2.23-4.18,3.32l-2.07,1.59.72-2.52q2.07-7.23,4.39-14.4c.79-2.38,1.58-4.76,2.41-7.13S545.27,299.56,546.19,297.22Z"/><path class="cls-4" d="M545.41,313.41c2,.88,4,1.88,6,2.93s3.85,2.17,5.72,3.34l.67.42-.72.24c-.77.25-1.55.5-2.33.73s-1.57.46-2.37.65c.72-.39,1.47-.72,2.2-1.08s1.49-.67,2.24-1l0,.65c-2-1-3.88-2.11-5.77-3.25S547.2,314.72,545.41,313.41Z"/><path class="cls-4" d="M419.89,184.54c3.15,5.33,6.12,10.74,9,16.18s5.74,10.91,8.56,16.4,5.54,11,8.22,16.55,5.35,11.11,7.94,16.7l-4,.53c.81-4.29,1.71-8.57,2.57-12.85s1.83-8.56,2.73-12.83,1.92-8.54,3-12.79,2.1-8.5,3.26-12.73c-.4,4.37-.9,8.72-1.45,13.06s-1.15,8.68-1.76,13-1.25,8.65-2,13-1.38,8.63-2.15,12.94l-1.13,6.4-2.88-5.87q-4.06-8.3-8-16.67c-2.62-5.58-5.15-11.2-7.69-16.82s-5-11.28-7.36-17S422.05,190.34,419.89,184.54Z"/><path class="cls-4" d="M445.11,215.35c2.58-.9,5.19-1.68,7.8-2.41s5.25-1.41,7.88-2,5.28-1.25,7.94-1.78,5.32-1.08,8-1.56l1.9-.34-.92,1.62q-1.49,2.61-3,5.18c-1.05,1.71-2.11,3.42-3.25,5.08.68-1.9,1.46-3.75,2.24-5.59s1.62-3.67,2.46-5.48l1,1.27q-3.93,1-7.91,1.91c-2.64.62-5.3,1.14-7.95,1.68s-5.34,1-8,1.41S447.83,215.1,445.11,215.35Z"/><path class="cls-4" d="M568.27,359.19c-4.08,4.65-8.31,9.14-12.57,13.6s-8.6,8.85-12.94,13.22-8.75,8.69-13.19,13-8.9,8.52-13.41,12.72L514.41,408c4.33-.56,8.68-1,13-1.54s8.69-.92,13-1.38,8.71-.83,13.07-1.15,8.74-.65,13.12-.85c-4.28,1-8.57,1.85-12.87,2.67s-8.6,1.59-12.91,2.36-8.62,1.49-12.94,2.13-8.64,1.37-13,2l-6.44.9,4.69-4.55q6.63-6.45,13.37-12.76c4.49-4.22,9.06-8.36,13.6-12.53s9.18-8.23,13.86-12.25S563.43,363,568.27,359.19Z"/><path class="cls-4" d="M546.8,392.72c1.66,2.17,3.21,4.4,4.71,6.66s3,4.55,4.39,6.86,2.82,4.64,4.15,7,2.67,4.72,4,7.11l.92,1.7-1.83-.37q-2.94-.6-5.87-1.29c-2-.47-3.89-.94-5.83-1.52,2,.07,4,.24,6,.41s4,.4,6,.64l-.91,1.33c-1.46-2.29-2.89-4.6-4.27-6.93s-2.73-4.69-4.06-7.05-2.6-4.76-3.83-7.18S547.89,395.22,546.8,392.72Z"/><path class="cls-4" d="M448.23,554.4c-5.68-2.44-11.27-5.07-16.83-7.74s-11.08-5.43-16.58-8.2-11-5.63-16.41-8.52-10.86-5.83-16.25-8.81l2.93-2.8c1.87,3.95,3.67,7.93,5.5,11.9s3.57,8,5.35,12,3.49,8,5.15,12.07,3.32,8.1,4.87,12.21c-2.25-3.77-4.41-7.58-6.52-11.41s-4.19-7.69-6.25-11.55-4.09-7.73-6-11.64-4-7.78-5.89-11.71l-2.86-5.84,5.78,3q8.18,4.32,16.28,8.77c5.4,3,10.76,6,16.12,9s10.67,6.18,15.95,9.38S443.07,551,448.23,554.4Z"/><path class="cls-4" d="M409.7,544.38c-1.55,2.25-3.2,4.41-4.88,6.55s-3.41,4.22-5.16,6.29-3.53,4.12-5.36,6.12-3.67,4-5.54,6l-1.33,1.4-.22-1.85c-.22-2-.43-4-.59-6s-.32-4-.37-6c.57,1.94,1,3.89,1.48,5.85s.86,3.91,1.25,5.87l-1.55-.45c1.73-2.09,3.47-4.17,5.27-6.2s3.6-4,5.44-6,3.72-4,5.64-5.87S407.65,546.19,409.7,544.38Z"/><path class="cls-4" d="M225.42,500.79c.56-6.16,1.33-12.29,2.14-18.4s1.73-12.21,2.66-18.31,1.95-12.17,3-18.24,2.17-12.13,3.34-18.18l3.56,1.91c-3.17,3-6.4,5.95-9.61,8.92s-6.48,5.87-9.72,8.81-6.55,5.8-9.89,8.63-6.67,5.67-10.09,8.42c2.88-3.31,5.84-6.54,8.82-9.74s6-6.36,9-9.52,6.08-6.28,9.2-9.35,6.17-6.19,9.31-9.24l4.66-4.52-1.1,6.44c-1,6.07-2.15,12.13-3.29,18.19s-2.38,12.09-3.6,18.14-2.56,12.06-4,18.06S227.07,494.82,225.42,500.79Z"/><path class="cls-4" d="M223,461.05c-2.61-.78-5.18-1.67-7.73-2.61s-5.08-1.93-7.59-3-5-2.08-7.47-3.2-4.94-2.24-7.39-3.41l-1.74-.84,1.69-.77c1.82-.83,3.65-1.65,5.5-2.43s3.71-1.53,5.61-2.21c-1.67,1.14-3.38,2.18-5.1,3.22s-3.45,2-5.2,3l-.05-1.61c2.53,1,5,2,7.53,3.09s5,2.17,7.44,3.3,4.9,2.31,7.33,3.54S220.65,459.66,223,461.05Z"/><path class="cls-4" d="M207.32,272.34c6-1.38,12.09-2.55,18.16-3.67s12.15-2.15,18.23-3.15,12.18-1.92,18.28-2.79,12.2-1.7,18.32-2.46l-.72,4c-3.84-2.08-7.64-4.24-11.46-6.37s-7.59-4.35-11.38-6.51-7.55-4.43-11.28-6.72-7.45-4.59-11.13-7c4,1.72,8,3.52,12,5.37s7.91,3.74,11.85,5.64,7.86,3.84,11.74,5.84,7.8,3.95,11.67,6l5.75,3-6.47,1c-6.1.9-12.2,1.72-18.31,2.52s-12.24,1.48-18.36,2.2S232,270.5,225.8,271,213.5,272.06,207.32,272.34Z"/><path class="cls-4" d="M244.35,257.72c-.07-2.73,0-5.45.09-8.17s.26-5.42.46-8.12.42-5.41.72-8.11.6-5.39,1-8.07l.25-1.92,1.27,1.37c1.35,1.47,2.69,3,4,4.48s2.61,3,3.84,4.64c-1.6-1.23-3.12-2.54-4.64-3.84s-3-2.66-4.46-4l1.51-.54c-.16,2.7-.35,5.41-.6,8.11s-.52,5.4-.83,8.09-.68,5.38-1.09,8.07S244.94,255.05,244.35,257.72Z"/></g></g></g></g></svg>