<?xml version="1.0" encoding="utf-8"?>
<!-- Generator: Adobe Illustrator 23.0.2, SVG Export Plug-In . SVG Version: 6.00 Build 0)  -->
<svg version="1.1" id="Слой_1" xmlns="http://www.w3.org/2000/svg" xmlns:xlink="http://www.w3.org/1999/xlink" x="0px" y="0px"
	 viewBox="0 0 1245 502" style="enable-background:new 0 0 1245 502;" xml:space="preserve">
<style type="text/css">
	.st0{fill:#8567B2;}
</style>
<g>
	<path class="st0" d="M752.1,453.7c-12.5,4.7-34.7,13.1-56.1,22.7l1.8-1.4l0,0c20.4-8.9,40.9-16.8,52.8-21.2
		c0.4-0.1,0.7-0.3,1.1-0.4C751.9,453.4,752,453.6,752.1,453.7z"/>
	<path class="st0" d="M721.1,302.7l19.8,26.1c-7.2,23.9-17.2,44.7-35.1,44.7c0,0-45.7,5.7-45.7-46.2
		C660.1,327.3,691.5,323.3,721.1,302.7z"/>
	<path class="st0" d="M626.7,327.3c0,52-45.7,46.2-45.7,46.2c-16.1,0-24-15-31.2-36l23.2-29.5C601,325.9,626.7,327.3,626.7,327.3z"
		/>
	<g>
		<path class="st0" d="M1107.8,356.9c-28.2-1.2-55-12.7-75.5-32.2c-16.5-15.7-34.7-29.8-34.7-29.8c-10.3-10.9,6.2-47.3,6.2-47.3
			c-15.5,2.7-43.8,29.2-56.9,42.1c-4.5,4.4-10.6,6.8-16.9,6.5l-37.5,0.7c58.9,33.8-1.9,54.3-1.9,54.3c-33.9,0-60.4-16.8-78.4-33.6
			c-1.5-3.4-3.4-6.4-5.7-8.4c-4.7-4.2-6.5-11.9-6.5-11.9l-5.5-10.9c0,0-11.8-61.3-5.7-73.7l-12.3,4.1c0,0-5.2,3.9-16.5-4.8
			c-9.5-20.4-32.6-44.7-33.7-45.8c0,0,0-0.1-0.1-0.1l-62.6-52L648,102.8c-5.3-2.7-9.5,1.8-10.4,2.8c-0.1,0.2-0.3,0.3-0.5,0.3
			c-4.3,1.2-6.4-3.6-6.4-3.6C627.2,91.8,614,90.7,602.3,92c-9.8,1.1-19.4,4.2-28.2,8.6c-45.2,23-71.4,34.3-86.6,39.9
			c-33.9-17.6,2.9-23.5,2.9-23.5c-43.7-36.2-117.7-42.3-117.7-42.3c61.9,19.6,58.8,72.5,58.8,72.5c-4.5,3-19.6-4.5-19.6-4.5
			c3,19.6,21.1,37.7,21.1,37.7c25.5,21.5,89.1,9.6,102.9,6.7c1.1,0.8,1.6,2.3,0.9,3.7l-8.9,17.7c-2.2,4.5-3.7,9.4-4.3,14.4
			c-0.2,1.8-0.5,3.6-0.8,5.3c-0.3,1.6-0.6,3.1-1,4.7c-1.4,6.1-3.3,12.3-5.6,18.2l-27.3,27.3l-10.3-4.1l-16.4-26.7
			c-2.1-30.8,8.2-49.3,8.2-49.3c-14.4-4.1-90.4,80.2-90.4,80.2v47.3l-32.9,41.1l-57.6-55.5c-10.3-2.1,0-18.5,0-18.5
			c-28.8,6.2-71.9,61.7-71.9,61.7l-28.8-14.4l-26.7,14.4L1.8,362.8l139.8,18.5l4.1,14.4l41.1-22.6c0,0,26.7,37,45.2,39.1
			c0,0-23.6-21.6,52.4-46.2c0,0,69.9,53.4,43.2,84.3c0,0,39.1-4.1,47.3-49.3c0,0,41.1-88.4,78.1-82.2c0,0-16.4,39.1-24.7,43.2
			c0,0,51.4,22.6-12.3,78.1c0,0,36.5-0.3,75.7,2.6c25.9,6.6,44.3,13.6,47.2,14.8c0.2,0.1,0.3,0.1,0.3,0.1c0,0,0.1,0,0.1,0
			c19.4,5.7,48.9,18.3,72,28.8c17.6,8,31.6,14.8,34.5,16.2c0.4,0.2,0.8,0.1,1.1-0.1c10.7-8.3,28.9-17.5,47.7-25.9
			c1.1-0.5,2.2-1,3.3-1.5l0,0c20.4-8.9,40.9-16.8,52.8-21.2c0.4-0.1,0.7-0.3,1.1-0.4c4.1-1.5,7.1-2.6,8.4-3.1
			c0.6-0.2,1.1-0.5,1.6-0.8c29.7-17.7,49-23.7,49-23.7c20.7-2.9,18.3-17.4,18.1-18.1c0,0,0,0,0,0c-2.6-8.7-4.7-18.7-6.3-28.3
			c10.3,10.2,23.9,18.2,23.9,18.2c-2.1,5.4,0,30.9,0,30.9c4.8-6.8,8.7-10.8,11.8-12.9c4.3-2.9,10-0.7,11.4,4.3c0.8,3,2.4,6,4,8.6
			c3.4,5.4,4.5,11.9,2.9,18.1l-3.4,12.9c1.6-6.9,19.9-20.2,28.5-26.1c2.8-1.9,5-4.5,6.5-7.6c6.5-13.2,15.4-23.1,22.6-29.6
			c4.3-3.9,8.2-8.2,11.5-12.9c3.4-4.7,6.2-9.7,8.4-15.1c0.4-0.9,0.9-1.8,1.6-2.5c40.4-42.1,60.6-17.1,60.6-17.1
			c15.4,29.1,31.1,44.3,42.9,52.2c11.8,8,19.8,8.6,19.8,8.6c-4.6-11.2,0.3-24.1,11.2-29.5l1.4-0.7c13.4-6.5,27.9-10.3,42.7-11.1
			l102.9-6L1107.8,356.9z M749.8,390.3l0.3-0.4c-5.8,4.9-68.4,56.9-93.4,76.1c-5.1,3.9-12.1,3.8-17.1-0.1l-80.8-64.7L527.3,376
			l-2.6-4.3c-2.6-4.3-2.2-9.7,0.9-13.6l6.9-8.8l10.3-13.2l14.6-18.7l27.1-34.8c0-0.1,35.3-29.5,52.9-44.1c5.6-4.7,13.8-4.7,19.4,0
			l55.9,46.9c0,0,0.1,0.1,0.2,0.2l22.5,28.1l7,8.8l3.6,8.1l7.6,17C754.6,349.9,766.4,378.2,749.8,390.3z"/>
		<path class="st0" d="M342.5,74.7c0,0-80,6-33.2,52.8C309.2,127.6,285.1,92.8,342.5,74.7z"/>
		<path class="st0" d="M832.9,261.7c0,0-16.2,78.6,41.7,46.4C874.6,308.1,834.5,321.8,832.9,261.7z"/>
		<path class="st0" d="M380.4,7.1c0,0,41.5,7.2,46.9,33.6C427.3,40.7,427.7-7.1,380.4,7.1z"/>
		<path class="st0" d="M259.9,403.7c0,0,41.5,7.2,46.9,33.6C306.8,437.2,307.3,389.4,259.9,403.7z"/>
		<path class="st0" d="M960,393.3c0,0,32.1-27.3,55.8-14.7C1015.8,378.6,979.3,347.8,960,393.3z"/>
	</g>
</g>
</svg>
