<svg xmlns="http://www.w3.org/2000/svg" viewBox="0 0 62.93 51.94"><defs><style>.cls-1{fill:#8567b2;}</style></defs><title>Ресурс 16</title><g id="Слой_2" data-name="Слой 2"><g id="Слой_1-2" data-name="Слой 1"><path class="cls-1" d="M37.45.07c-.41,3.65-1.1,7.26-1.84,10.86a99.9,99.9,0,0,1-2.93,10.68c-1.17,3.51-2.26,7.16-4.43,10.32a25,25,0,0,1-3.73,4.38,13,13,0,0,1-4.94,3L19.37,39A45.53,45.53,0,0,0,25,30c.8-1.55,1.59-3.12,2.46-4.68s1.69-3.15,2.41-4.79,1.41-3.32,2.05-5,1.29-3.38,1.88-5.1C35,7,36.07,3.51,37.08,0Z"/><path class="cls-1" d="M62.85,38.62c-3.62-.49-7.24-.92-10.87-1.17-1.8-.15-3.61-.26-5.42-.34S43,37,41.15,37s-3.59.11-5.36.28-3.53.26-5.27.37A45.46,45.46,0,0,0,20,39.12l-.21-.32a12.7,12.7,0,0,1,4.73-3.32,24.4,24.4,0,0,1,5.51-1.64c3.76-.72,7.54-.24,11.23.09a102.84,102.84,0,0,1,11,1.63c3.6.77,7.17,1.6,10.68,2.69Z"/><path class="cls-1" d="M18.08,12.71C17.67,16.36,17,20,16.23,23.57a101.15,101.15,0,0,1-2.92,10.68c-1.17,3.5-2.26,7.16-4.44,10.31a24.59,24.59,0,0,1-3.72,4.38,12.85,12.85,0,0,1-4.94,3L0,51.62a46.61,46.61,0,0,0,5.6-9C6.4,41.07,7.19,39.5,8.05,38a51.3,51.3,0,0,0,2.42-4.8q1.09-2.46,2-5t1.88-5.1c1.23-3.42,2.3-6.9,3.3-10.41Z"/><path class="cls-1" d="M43.47,51.26c-3.61-.5-7.23-.92-10.86-1.18-1.81-.15-3.62-.26-5.42-.33s-3.61-.15-5.41-.14-3.59.11-5.36.28-3.53.26-5.27.36A46.74,46.74,0,0,0,.66,51.75l-.21-.31a12.86,12.86,0,0,1,4.73-3.32,24.66,24.66,0,0,1,5.52-1.65c3.76-.72,7.54-.24,11.22.1a100.17,100.17,0,0,1,11,1.63c3.6.77,7.17,1.59,10.68,2.69Z"/></g></g></svg>