<svg xmlns="http://www.w3.org/2000/svg" viewBox="0 0 427.25 422.15"><defs><style>.cls-1{opacity:0.3;}.cls-2{fill:#303030;}</style></defs><title>Ресурс 15</title><g id="Слой_2" data-name="Слой 2"><g id="Слой_1-2" data-name="Слой 1"><g class="cls-1"><path class="cls-2" d="M75.73,176.73a46.77,46.77,0,0,0-1.19-7.18l-1-3.47c-.36-1.15-.71-2.29-1.14-3.37A17.07,17.07,0,0,0,69,157a9.05,9.05,0,0,0-5.33-2.81,9.45,9.45,0,0,0-4.52.47c-.23.11-.48.18-.7.31l-.33.16-.44.23a6.39,6.39,0,0,1-1.17.48,3.21,3.21,0,0,1-1.87,0,2.81,2.81,0,0,1-1.55-1.33,4.49,4.49,0,0,1-.42-1.35l-.12-.89a2.55,2.55,0,0,0-.12-.48,2.07,2.07,0,0,0-.69-.86,4.49,4.49,0,0,0-1.26-.63c-.51-.17-1-.27-1.69-.44a3.58,3.58,0,0,1-.72-.26,2.24,2.24,0,0,1-.71-.65,5.53,5.53,0,0,1-.47-1c-.24-.6-.46-1.2-.64-1.81a20.1,20.1,0,0,1-.76-7.45,27.93,27.93,0,0,0,2.37,6.82q.39.79.84,1.56a3.88,3.88,0,0,0,.39.6s0,0,0-.06,0,0,.15,0a9.12,9.12,0,0,1,4,1A5,5,0,0,1,55,150.4a4.8,4.8,0,0,1,.46,1.25l.19.92a1,1,0,0,0,.14.39s-.09-.15-.18-.18-.18,0-.07-.06a3.87,3.87,0,0,0,.5-.27l.36-.22.48-.26c.31-.18.64-.31,1-.47a12,12,0,0,1,2-.63,12.33,12.33,0,0,1,4.24-.15,11.94,11.94,0,0,1,4,1.37,12.35,12.35,0,0,1,3.25,2.69A17.86,17.86,0,0,1,75,161.86a33,33,0,0,1,.78,3.7l.44,3.73A27.23,27.23,0,0,1,75.73,176.73Z"/><path class="cls-2" d="M48,172.35a30.18,30.18,0,0,0-2.79-5.79,7.45,7.45,0,0,0-2.07-2,20.21,20.21,0,0,1-2.86-1.84,11.36,11.36,0,0,1-3.54-6.07,15.37,15.37,0,0,1,0-6.75,34.86,34.86,0,0,0,1.57,6.27,12.31,12.31,0,0,0,3.34,5,8.77,8.77,0,0,0,1.18.87c.43.29.94.55,1.43.93a8,8,0,0,1,2.35,2.79A14.62,14.62,0,0,1,48,172.35Z"/><path class="cls-2" d="M32.21,121.73c.29,2.73.45,5.47.55,8.22a35.09,35.09,0,0,1-.29,8.5,11.74,11.74,0,0,1-1.94,4.43c-.89,1.28-1.79,2.3-2.52,3.3a30.93,30.93,0,0,0-3.7,6.41,17.41,17.41,0,0,0-1.4,6.78,12.34,12.34,0,0,0,1.81,6.24,9.49,9.49,0,0,0,4.71,4.14,9.13,9.13,0,0,0,1.58.44,12,12,0,0,1,2.37.58,6.81,6.81,0,0,1,3.94,3.89l-2.56-.78a4.78,4.78,0,0,0,1.93-1.8,26.41,26.41,0,0,0,1.65-3A12.36,12.36,0,0,1,40.49,166a4.88,4.88,0,0,1,3.3-1.62,4.93,4.93,0,0,0-2.38,2.32,13.93,13.93,0,0,0-1.11,3.14,25.18,25.18,0,0,1-1,3.58,7.68,7.68,0,0,1-2.64,3.49l-1.42,1-1.13-1.77a3.08,3.08,0,0,0-2-1.37,12.85,12.85,0,0,0-1.63-.15,14.71,14.71,0,0,1-2.4-.36,12.83,12.83,0,0,1-4.49-2.17,15.4,15.4,0,0,1-3.35-3.54,16.81,16.81,0,0,1-2.92-9.11,20.84,20.84,0,0,1,2-9,29.32,29.32,0,0,1,4.91-7.35c1-1.11,2-2,2.77-2.9a8.26,8.26,0,0,0,1.72-2.78,23.15,23.15,0,0,0,1-3.64c.22-1.33.47-2.66.74-4C30.94,127.09,31.52,124.42,32.21,121.73Z"/><path class="cls-2" d="M100.42,382.39a21.08,21.08,0,0,1,1.67-7.9,24.67,24.67,0,0,1,4.41-6.95,25.67,25.67,0,0,1,6.53-5.22,23.87,23.87,0,0,1,8.06-2.72l-.72,3.14a6.53,6.53,0,0,1-2.26-2.33,10,10,0,0,1-1.08-2.74,19.89,19.89,0,0,1-.43-2.68c0-.85-.13-1.7-.14-2.55a39.16,39.16,0,0,1,1.09-10.12,40.58,40.58,0,0,1,3.58-9.55,42.17,42.17,0,0,1,5.87-8.35l1.89,3.28c-3.25.63-6.43,2.56-10,4.24a21.8,21.8,0,0,1-5.78,1.9,13.24,13.24,0,0,1-6.33-.3,9.5,9.5,0,0,1-2.9-1.57,26.53,26.53,0,0,1-2.13-2.08c-1.28-1.33-2.52-2.37-3.94-2A3.72,3.72,0,0,0,96,329.34a8.93,8.93,0,0,0-1.24,2.35c-.62,1.73-1.12,3.75-2.52,5.1,1.11-1.58,1.23-3.48,1.64-5.35a9.52,9.52,0,0,1,1-2.83,5.24,5.24,0,0,1,2.38-2.24,4.4,4.4,0,0,1,3.47.09,10.53,10.53,0,0,1,2.59,1.77,22.11,22.11,0,0,0,2.1,1.7,6.5,6.5,0,0,0,2.17.91,10.33,10.33,0,0,0,4.9-.13,20,20,0,0,0,4.85-1.94c3.22-1.65,6.49-4,10.7-5l6-1.43L130,327.09a38.28,38.28,0,0,0-5.18,7.59,42.6,42.6,0,0,0-3.28,8.6,40.83,40.83,0,0,0-1.19,9.14c0,.77,0,1.53,0,2.31a15.76,15.76,0,0,0,.24,2.13,4.72,4.72,0,0,0,1.62,3l3.87,2.79-4.6.35a20.61,20.61,0,0,0-7.13,1.89,24.3,24.3,0,0,0-6.3,4.17,25.3,25.3,0,0,0-4.84,6A23.64,23.64,0,0,0,100.42,382.39Z"/><path class="cls-2" d="M128.93,351.66c-2.64-.05-5.18-.4-7.69-.69s-5-.59-7.41-.72a42.25,42.25,0,0,0-7.29.2,33.42,33.42,0,0,0-7.31,1.7,15.1,15.1,0,0,1,6.8-4.09,23.09,23.09,0,0,1,8-.92,31.49,31.49,0,0,1,7.76,1.45A37,37,0,0,1,128.93,351.66Z"/><path class="cls-2" d="M130.22,336.92a8.31,8.31,0,0,1,1.79-2.71,11.32,11.32,0,0,1,2.55-2,11.2,11.2,0,0,1,3-1.17,8.2,8.2,0,0,1,3.24-.13c-.91.64-1.79,1.14-2.65,1.65l-2.57,1.45L133,335.5C132.12,336,131.24,336.47,130.22,336.92Z"/><path class="cls-2" d="M403.06,142.44a8.12,8.12,0,0,0-.86-3.23,18.06,18.06,0,0,0-1.66-2.86c-1.21-1.79-2.92-3.24-4.57-3.13a11.66,11.66,0,0,0-1.52.19,3.23,3.23,0,0,0-1.13.32.36.36,0,0,0-.14.15,1.93,1.93,0,0,0-.11.37,9.18,9.18,0,0,0-.18,1.42,17,17,0,0,0,1.14,6.09c.69,2.08,1.57,4.29,2.11,6.6a38.43,38.43,0,0,1,1,7,32.62,32.62,0,0,1-.33,7,9.57,9.57,0,0,1-1.29,3.4,5.45,5.45,0,0,1-2.7,2.24,5.8,5.8,0,0,0,1.93-2.64,9.16,9.16,0,0,0,.53-3.16,28.85,28.85,0,0,0-.17-3.32c-.11-1.11-.23-2.21-.41-3.31a49.1,49.1,0,0,0-1.47-6.46c-.61-2.1-1.45-4.14-2.21-6.38a17.7,17.7,0,0,1-1.13-7.31,13.69,13.69,0,0,1,.38-1.95,4.22,4.22,0,0,1,.56-1.2,3.23,3.23,0,0,1,1.13-1,5.38,5.38,0,0,1,2.16-.53,14.72,14.72,0,0,1,1.9,0,5.93,5.93,0,0,1,3.72,1.75,10.76,10.76,0,0,1,2.11,3.06,17.19,17.19,0,0,1,1.15,3.37A7,7,0,0,1,403.06,142.44Z"/><path class="cls-2" d="M392.11,142.54a11.37,11.37,0,0,0-2-4,7.09,7.09,0,0,0-3.42-2.42,5,5,0,0,0-3.75.07,1.77,1.77,0,0,0-.82,1.12,3.3,3.3,0,0,0,.07,1.67,12.14,12.14,0,0,0,.79,1.91c.33.69.65,1.43,1,2.16a42,42,0,0,1,1.57,4.5,42.74,42.74,0,0,1,1.49,9.41,38,38,0,0,1-.1,4.77,33.69,33.69,0,0,1-.66,4.75,17.75,17.75,0,0,1-4.38,8.79,29.47,29.47,0,0,1-3.67,3.06,12.66,12.66,0,0,1-4.35,2.29,20.49,20.49,0,0,1-4.76.3l-2.31,0-1.15,0a2.24,2.24,0,0,1-.61-.07c-.09,0-.22-.16-.12-.29a.17.17,0,0,1,.15,0c.05,0,.11.06.06.1,0-.12-.15-.07-.17,0s.05.13.12.14a1.82,1.82,0,0,0,.55-.06l1.14-.2L369,180a21.15,21.15,0,0,0,4.36-.9,11.34,11.34,0,0,0,3.51-2.42A33.14,33.14,0,0,0,380,173.6a16.32,16.32,0,0,0,3.28-7.72,39.34,39.34,0,0,0,.54-8.82,42.12,42.12,0,0,0-1.23-8.78,37.87,37.87,0,0,0-1.25-4.27c-.25-.7-.52-1.37-.8-2.09a14.77,14.77,0,0,1-.77-2.43,5.58,5.58,0,0,1,.17-2.88,3.81,3.81,0,0,1,2.07-2.29,5.48,5.48,0,0,1,2.75-.35,8,8,0,0,1,2.47.7,8.1,8.1,0,0,1,3.57,3.37A10.24,10.24,0,0,1,392.11,142.54Z"/><path class="cls-2" d="M340.72,152.06a41.49,41.49,0,0,1,9-2.14c1.54-.22,3.08-.33,4.62-.49s3.09-.17,4.64-.2,3.09,0,4.64,0l4.63.22c3.08.27,6.16.54,9.22,1s6.09,1,9.11,1.61c1.52.3,3,.68,4.5,1s3,.74,4.48,1.14c3,.84,5.9,1.78,8.82,2.72s5.77,2.14,8.61,3.33c-3-.53-6-1.19-9-1.84s-6-1.19-9-1.82-6-1.2-9-1.65l-4.49-.78c-1.5-.27-3-.43-4.51-.65-6-.91-12-1.56-18.08-1.91-1.52-.1-3-.1-4.55-.19s-3-.06-4.55,0A63.74,63.74,0,0,0,340.72,152.06Z"/><path class="cls-2" d="M363.35,164.89a8.2,8.2,0,0,1-3.05,1.21,11.61,11.61,0,0,1-6.42-.61,8.46,8.46,0,0,1-2.76-1.77c1.13,0,2.15.09,3.16.17l3,.28,3,.29C361.23,164.58,362.25,164.67,363.35,164.89Z"/><path class="cls-2" d="M341.27,364.87a2.46,2.46,0,0,0,2.2.86,2.63,2.63,0,0,0,1.91-1.16c.79-1.33.56-3,.11-4.59a71.47,71.47,0,0,0-3.35-9.48,27.61,27.61,0,0,0-5.39-8.11,16.22,16.22,0,0,0-8.07-4.68,12,12,0,0,0-8.9,1.32c-2.61,1.56-4.31,4.46-5.45,7.5a28.75,28.75,0,0,0,0,19.6,26.25,26.25,0,0,1-1.88-20.25,19.48,19.48,0,0,1,2.19-4.9,13,13,0,0,1,3.84-4,14.37,14.37,0,0,1,10.76-1.79,18.45,18.45,0,0,1,9.28,5.51,27.6,27.6,0,0,1,5.49,9,58.61,58.61,0,0,1,2.74,10,10.86,10.86,0,0,1,.17,2.68A4.76,4.76,0,0,1,346,365a3.16,3.16,0,0,1-2.47,1.12A2.69,2.69,0,0,1,341.27,364.87Z"/><path class="cls-2" d="M322.87,360.36a1.85,1.85,0,0,1-1.51,0,6.27,6.27,0,0,1-1.41-.66c-.89-.55-1.69-1.15-2.51-1.75a42.83,42.83,0,0,1-4.58-4,55.77,55.77,0,0,1-7.5-9.62,76.06,76.06,0,0,1-5.55-10.81,33.81,33.81,0,0,1-2-5.79,10.93,10.93,0,0,1,.2-6.11,12.82,12.82,0,0,0,1,5.74,50.83,50.83,0,0,0,2.61,5.29c1,1.75,1.87,3.51,2.88,5.22s2,3.43,3,5.1a98.24,98.24,0,0,0,6.78,9.68c1.26,1.51,2.53,3,3.9,4.46.69.72,1.38,1.46,2.09,2.12a7,7,0,0,0,1.18.86A1.69,1.69,0,0,0,322.87,360.36Z"/><path class="cls-2" d="M311.44,332.17c-1,2-1.95,3.92-2.76,5.93a31.58,31.58,0,0,0-1.78,6.14,21.75,21.75,0,0,0-.19,6.29c.22,2.11.7,4.22,1.14,6.36l.8,3.87-2.14-3.27a37.56,37.56,0,0,0-3.61-4.67,44.74,44.74,0,0,0-4.33-4.14,25.11,25.11,0,0,1,5,3.44,27.84,27.84,0,0,1,4.15,4.52l-1.34.6a44.9,44.9,0,0,1-1.38-6.52,20.32,20.32,0,0,1,.36-6.78A28.46,28.46,0,0,1,311.44,332.17Z"/><path class="cls-2" d="M376.17,272a22.54,22.54,0,0,0,.93,6c.53,1.89,1.67,3.57,3.42,3.9a3.76,3.76,0,0,0,2.58-.29,1.65,1.65,0,0,1,1.3-.09,1.21,1.21,0,0,1,.61.61,1.76,1.76,0,0,1,.13.59,2.5,2.5,0,0,0,.06.59,1.06,1.06,0,0,0,.26.39,3.48,3.48,0,0,0,1.22.55.94.94,0,0,1,.57.43,2.71,2.71,0,0,1,.17.45q.12.39.21.78a8.57,8.57,0,0,1,.07,3.19,12.58,12.58,0,0,0-.77-3c-.1-.24-.2-.47-.31-.69a2,2,0,0,0-.14-.27s0,.05-.06,0a3.82,3.82,0,0,1-1.67-.57,2.18,2.18,0,0,1-.7-.82,3.24,3.24,0,0,1-.21-.94.37.37,0,0,0,0-.17s0,.07.07.08,0,0-.19.13a5.23,5.23,0,0,1-3.49.46,5.09,5.09,0,0,1-2.95-2,7.48,7.48,0,0,1-1.27-3.12A13.89,13.89,0,0,1,376.17,272Z"/><path class="cls-2" d="M387.79,274.76a13.25,13.25,0,0,0,1,2.55,3.05,3.05,0,0,0,.83.92,11.17,11.17,0,0,1,1.14.87,4.91,4.91,0,0,1,1.29,2.7,6.56,6.56,0,0,1-.23,2.86,15.18,15.18,0,0,0-.45-2.71,5.35,5.35,0,0,0-1.25-2.22,12.8,12.8,0,0,0-1.05-.86,3.36,3.36,0,0,1-.9-1.25A6.15,6.15,0,0,1,387.79,274.76Z"/><path class="cls-2" d="M392.76,296.74c0-1.17,0-2.34,0-3.5a15.91,15.91,0,0,1,.41-3.6,5.18,5.18,0,0,1,1-1.8c.41-.52.82-.92,1.17-1.32a12.58,12.58,0,0,0,1.78-2.59,7.41,7.41,0,0,0,.83-2.83,5.3,5.3,0,0,0-.56-2.7,3.87,3.87,0,0,0-1.86-1.92,3.71,3.71,0,0,0-.65-.24,6,6,0,0,1-1-.33,2.83,2.83,0,0,1-1.53-1.77l1.05.41c-.63.19-1.15,1-1.68,1.9a5,5,0,0,1-1,1.25,2.1,2.1,0,0,1-1.46.58,2.06,2.06,0,0,0,1.09-.91,5.78,5.78,0,0,0,.58-1.29,10.07,10.07,0,0,1,.56-1.48,3.36,3.36,0,0,1,1.23-1.39l.62-.37.43.78a1.37,1.37,0,0,0,.8.65,4.81,4.81,0,0,0,.68.12,6.9,6.9,0,0,1,1,.23,6,6,0,0,1,3.13,2.68,7.1,7.1,0,0,1,.93,4,9.08,9.08,0,0,1-1.15,3.76,13,13,0,0,1-2.34,2.94c-.44.45-.91.8-1.27,1.14a3.6,3.6,0,0,0-.82,1.12,21.27,21.27,0,0,0-1,3.18C393.48,294.51,393.14,295.62,392.76,296.74Z"/><path class="cls-2" d="M213.62,422.15a212.23,212.23,0,0,1-77.21-14.4L130,405.27l5.81-3.61a53.2,53.2,0,0,0,13.43-11.93,53.85,53.85,0,0,0-83.94-67.48A53.11,53.11,0,0,0,55,343.34L53.4,350,49,344.73A214,214,0,0,1,0,208.66c0-3.91.11-7.86.33-11.74l.4-6.8L6,194.51a53.85,53.85,0,1,0,30.29-95l-6.82.54,3.67-5.78A213,213,0,0,1,159.62,1.81L166.23.09l-2.59,6.32A52.85,52.85,0,0,0,159.74,24a53.91,53.91,0,0,0,51,56.58c.93,0,1.87.07,2.8.07A53.9,53.9,0,0,0,263.35,6.31L260.77,0l6.6,1.71A213.32,213.32,0,0,1,393.42,93.1l3.71,5.77-6.85-.51a53.84,53.84,0,1,0,30.94,94.8l5.16-4.38.46,6.76c.27,4,.4,8.2.41,12.85h0A214.15,214.15,0,0,1,379.1,343.67l-4.32,5.27-1.65-6.61a53.84,53.84,0,1,0-97.34,42.4,53.19,53.19,0,0,0,16.86,16.43l5.85,3.57-6.37,2.52a212.33,212.33,0,0,1-78.37,14.9Zm-68.69-18.53a205.6,205.6,0,0,0,68.69,11.69h.13a205.53,205.53,0,0,0,69.82-12.13,60.68,60.68,0,1,1,88.1-81.05,60.82,60.82,0,0,1,6.13,12.16A207.32,207.32,0,0,0,420.41,208.4h0c0-2.09,0-4.08-.09-6A60.69,60.69,0,1,1,370.6,93.47a61.28,61.28,0,0,1,13.49-2A206.32,206.32,0,0,0,271.87,10.05,59.72,59.72,0,0,1,274.1,29.9a60.68,60.68,0,1,1-121.19-6.3,59.72,59.72,0,0,1,2.22-13.46A206,206,0,0,0,42.41,92.52,60,60,0,0,1,62,96.43a60.76,60.76,0,0,1,35.25,78.24A60.67,60.67,0,0,1,19,210a61.74,61.74,0,0,1-12.11-6.21c0,1.63,0,3.26,0,4.92A207.17,207.17,0,0,0,50.25,335.32a60.7,60.7,0,0,1,95.1-26.62,60.73,60.73,0,0,1-.42,94.92Z"/><path class="cls-2" d="M409.34,244.87a4.65,4.65,0,0,0,.26-2.5,2.26,2.26,0,0,0-1-1.88,3.45,3.45,0,0,0-1-.31c-.09,0-.06,0-.18.13a3.54,3.54,0,0,0-.32.44,6.14,6.14,0,0,0-.72,2.25c-.16.83-.26,1.73-.5,2.6a15,15,0,0,1-.92,2.53,12.57,12.57,0,0,1-1.39,2.3,2.68,2.68,0,0,1-2.36,1.17,2.71,2.71,0,0,0,1.88-1.5,17.25,17.25,0,0,0,1-2.33,23.58,23.58,0,0,0,1.1-5,7,7,0,0,1,.95-2.65,4.43,4.43,0,0,1,.48-.59,1.33,1.33,0,0,1,1-.42,2.13,2.13,0,0,1,.82.21,6.74,6.74,0,0,1,.64.34,2.32,2.32,0,0,1,.94,1.26,4.09,4.09,0,0,1,.14,1.42A4.13,4.13,0,0,1,409.34,244.87Z"/><path class="cls-2" d="M405.65,242.92a3.4,3.4,0,0,0-.65-3.16,1.89,1.89,0,0,0-1.27-.65c-.38,0-.66.34-.76.8s-.08,1.08-.16,1.68a15.52,15.52,0,0,1-.29,1.79,15.89,15.89,0,0,1-1.21,3.43,15.3,15.3,0,0,1-2,3.06,6.74,6.74,0,0,1-3.07,2.15,11.7,11.7,0,0,1-1.78.36,5,5,0,0,1-1.88,0,8.55,8.55,0,0,1-1.64-.77l-.78-.43-.38-.22a1.07,1.07,0,0,1-.19-.13s0-.1,0-.12.11,0,.06.06,0-.06-.05,0,0,0,0,.07a.68.68,0,0,0,.19.08l.42.14.83.3a8.1,8.1,0,0,0,1.63.48,4.3,4.3,0,0,0,1.61-.17,12.77,12.77,0,0,0,1.62-.48,6.18,6.18,0,0,0,2.51-2,14.74,14.74,0,0,0,1.78-2.86,16.13,16.13,0,0,0,1.19-3.17,13.22,13.22,0,0,0,.35-1.66,14.63,14.63,0,0,1,.3-1.8,2.14,2.14,0,0,1,.58-.93,1.43,1.43,0,0,1,1.11-.39,2.48,2.48,0,0,1,1.69,1.06A3.53,3.53,0,0,1,405.65,242.92Z"/><path class="cls-2" d="M386.68,236.77a22,22,0,0,1,6.64,2.37,42.09,42.09,0,0,1,6,3.77,58.73,58.73,0,0,1,5.38,4.57c.84.82,1.65,1.67,2.46,2.52s1.55,1.76,2.28,2.68l-5.36-4.5c-1.82-1.46-3.6-2.94-5.48-4.3s-3.75-2.71-5.72-3.93c-1-.6-2-1.19-3-1.73A23.33,23.33,0,0,0,386.68,236.77Z"/><path class="cls-2" d="M391.94,245.19a4.06,4.06,0,0,1-3.89-2.62c.74.41,1.34.85,2,1.26S391.28,244.65,391.94,245.19Z"/><path class="cls-2" d="M259.64,406.49a7.37,7.37,0,0,1-2.32-4.52,7.75,7.75,0,0,1,1.1-5.14l.61.82a2.51,2.51,0,0,1-1.91-.25,7.34,7.34,0,0,1-1.37-.94,12.25,12.25,0,0,1-2.21-2.34,12.81,12.81,0,0,1-2.36-6l1.18.22a14.12,14.12,0,0,0-1,3.27,5.39,5.39,0,0,1-2.11,3.24,3.87,3.87,0,0,1-1.92.46c-.58,0-1.09.11-1.28.53a1.76,1.76,0,0,0,.27,1.52,4.23,4.23,0,0,1,.71,1.66,4.49,4.49,0,0,0-.95-1.5,2.16,2.16,0,0,1-.52-1.85,1.39,1.39,0,0,1,.74-.82,2.94,2.94,0,0,1,.95-.26,2.85,2.85,0,0,0,1.51-.49,4.5,4.5,0,0,0,1.51-2.77,15,15,0,0,1,1-3.59l.91-1.76.27,2a12.58,12.58,0,0,0,2.15,5.37,13.39,13.39,0,0,0,1.95,2.17c.72.65,1.57,1.24,2.18,1.07l1.51-.41-.9,1.24a7.2,7.2,0,0,0-1.31,4.47A7.58,7.58,0,0,0,259.64,406.49Z"/><path class="cls-2" d="M258.13,393.31c-1.13,1.23-2.4,2.2-3.45,3.34a11.48,11.48,0,0,0-2.55,3.9,4.73,4.73,0,0,1,.41-2.48A7.41,7.41,0,0,1,254,396,11.26,11.26,0,0,1,258.13,393.31Z"/><path class="cls-2" d="M254.85,390a3.17,3.17,0,0,1-.23-2,3.08,3.08,0,0,1,1-1.76c-.08.69-.22,1.28-.33,1.89S255,389.29,254.85,390Z"/><path class="cls-2" d="M178.43,404.47a4.79,4.79,0,0,0,2.51.25,2.27,2.27,0,0,0,1.87-1,3,3,0,0,0,.3-1c0-.09,0-.06-.12-.18a5.15,5.15,0,0,0-.45-.32,6.37,6.37,0,0,0-2.26-.7c-.82-.16-1.72-.26-2.59-.48a15.06,15.06,0,0,1-2.54-.91,12.6,12.6,0,0,1-2.31-1.38,2.67,2.67,0,0,1-1.18-2.36,2.68,2.68,0,0,0,1.51,1.88,17.15,17.15,0,0,0,2.33,1,23.17,23.17,0,0,0,5,1.07,7.09,7.09,0,0,1,2.66.94,3.76,3.76,0,0,1,.59.48,1.29,1.29,0,0,1,.43.95,2.18,2.18,0,0,1-.21.83c-.1.2-.2.41-.34.64a2.22,2.22,0,0,1-1.25.94,4.11,4.11,0,0,1-1.42.16A4.17,4.17,0,0,1,178.43,404.47Z"/><path class="cls-2" d="M180.37,400.77a3.37,3.37,0,0,0,3.14-.68,1.87,1.87,0,0,0,.65-1.27c0-.37-.34-.65-.8-.75s-1.08-.07-1.68-.15a15.32,15.32,0,0,1-1.8-.28,16,16,0,0,1-3.43-1.19,15,15,0,0,1-3.07-2,6.68,6.68,0,0,1-2.17-3.06,10.65,10.65,0,0,1-.37-1.78,5,5,0,0,1,0-1.88,8.31,8.31,0,0,1,.76-1.65l.42-.77.22-.38a.64.64,0,0,1,.13-.19s.1,0,.12,0,0,.11-.06.07.05,0,0-.06,0,0-.07,0a.84.84,0,0,0-.08.19l-.13.42-.3.83a7.7,7.7,0,0,0-.47,1.64,4.32,4.32,0,0,0,.18,1.61,12.77,12.77,0,0,0,.48,1.62,6.19,6.19,0,0,0,2,2.49,14.77,14.77,0,0,0,2.87,1.77,16.3,16.3,0,0,0,3.17,1.17,15.94,15.94,0,0,0,1.67.34,14.45,14.45,0,0,1,1.8.29,2.06,2.06,0,0,1,.94.57,1.47,1.47,0,0,1,.4,1.11,2.55,2.55,0,0,1-1.06,1.69A3.51,3.51,0,0,1,180.37,400.77Z"/><path class="cls-2" d="M186.4,381.76a22.11,22.11,0,0,1-2.33,6.66,43.26,43.26,0,0,1-3.74,6,58.57,58.57,0,0,1-4.53,5.4c-.82.85-1.66,1.67-2.51,2.48s-1.75,1.56-2.66,2.3l4.47-5.4c1.44-1.82,2.92-3.61,4.26-5.49s2.69-3.77,3.9-5.75c.59-1,1.18-2,1.71-3A22.71,22.71,0,0,0,186.4,381.76Z"/><path class="cls-2" d="M178,387.07a4,4,0,0,1,2.59-3.9c-.41.74-.84,1.34-1.25,2S178.54,386.4,178,387.07Z"/><path class="cls-2" d="M236.92,406.19c-4.64-2.57-9.14-5.36-13.62-8.18s-8.87-5.76-13.23-8.76l1.35-1.07c.65,1.76,1.25,3.54,1.87,5.31s1.2,3.56,1.8,5.34c1.15,3.57,2.28,7.15,3.28,10.78-1.61-3.4-3.08-6.86-4.52-10.33-.7-1.74-1.42-3.47-2.1-5.22s-1.38-3.49-2-5.25l-.95-2.58,2.31,1.51q6.63,4.36,13.11,8.94C228.5,399.76,232.79,402.86,236.92,406.19Z"/><path class="cls-2" d="M220.87,400.32c-1.52,1.78-3.14,3.46-4.81,5.08s-3.39,3.19-5.16,4.71l-.63.54v-.8c0-.86,0-1.72,0-2.58s0-1.72.09-2.58c.16.85.27,1.7.39,2.55s.21,1.71.29,2.57l-.64-.26c1.65-1.65,3.34-3.24,5.08-4.79S219,401.72,220.87,400.32Z"/><path class="cls-2" d="M48.55,265.06a23.08,23.08,0,0,0-4.62-4c-1.63-1.09-3.59-1.64-5.14-.77A3.8,3.8,0,0,0,37,262.16a1.68,1.68,0,0,1-.94.91,1.25,1.25,0,0,1-.86-.07,1.94,1.94,0,0,1-.49-.37,2.79,2.79,0,0,0-.42-.41.85.85,0,0,0-.45-.12,3,3,0,0,0-1.28.36,1.09,1.09,0,0,1-.73,0,2.72,2.72,0,0,1-.41-.23c-.23-.15-.45-.31-.66-.47a8.38,8.38,0,0,1-2.11-2.38,12.05,12.05,0,0,0,2.5,1.76c.23.12.45.23.68.33a1.07,1.07,0,0,0,.28.11s-.06,0,0-.05a4,4,0,0,1,1.65-.64,2.12,2.12,0,0,1,1.06.17,2.8,2.8,0,0,1,.76.59.47.47,0,0,0,.15.1.15.15,0,0,0-.11,0c-.12.06,0,0,.07-.22a5.16,5.16,0,0,1,2.37-2.6,5.07,5.07,0,0,1,3.52-.41,7.73,7.73,0,0,1,3,1.56A14,14,0,0,1,48.55,265.06Z"/><path class="cls-2" d="M37.87,270.44a12.09,12.09,0,0,0-2.4-1.31,2.85,2.85,0,0,0-1.22-.17,9.45,9.45,0,0,1-1.44.06,4.82,4.82,0,0,1-2.72-1.22,6.49,6.49,0,0,1-1.68-2.33,15.62,15.62,0,0,0,2.1,1.78,5.24,5.24,0,0,0,2.38.88,10.45,10.45,0,0,0,1.36,0,3.27,3.27,0,0,1,1.5.38A6.12,6.12,0,0,1,37.87,270.44Z"/><path class="cls-2" d="M19.88,256.86c.78.87,1.51,1.78,2.23,2.71a15.54,15.54,0,0,1,2,3,5.17,5.17,0,0,1,.42,2c0,.66,0,1.24-.05,1.76a12.5,12.5,0,0,0,.32,3.14A7.33,7.33,0,0,0,26,272.16a5.18,5.18,0,0,0,2.18,1.71,3.83,3.83,0,0,0,2.65.26,4,4,0,0,0,.66-.23,5.41,5.41,0,0,1,1-.39,2.86,2.86,0,0,1,2.32.36l-1.07.37a4.26,4.26,0,0,0,0-2.54,4.77,4.77,0,0,1,0-1.6,2,2,0,0,1,.74-1.38,2,2,0,0,0-.25,1.39,6.17,6.17,0,0,0,.39,1.36,9.62,9.62,0,0,1,.53,1.49,3.38,3.38,0,0,1,0,1.86l-.24.68-.83-.32a1.36,1.36,0,0,0-1,0,4.38,4.38,0,0,0-.6.35,6,6,0,0,1-.91.48,6,6,0,0,1-4.13,0,7.12,7.12,0,0,1-3.26-2.42A8.86,8.86,0,0,1,22.54,270a12.8,12.8,0,0,1-.12-3.75c.06-.63.18-1.2.24-1.69a3.63,3.63,0,0,0-.1-1.39,21.53,21.53,0,0,0-1.3-3.06Q20.53,258.51,19.88,256.86Z"/><path class="cls-2" d="M40.71,307.18a4.73,4.73,0,0,0,1.42,2.07,2.25,2.25,0,0,0,1.95.82,3.33,3.33,0,0,0,1-.4c0-.07,0,0,0-.21a3.39,3.39,0,0,0,0-.55,6.16,6.16,0,0,0-.9-2.18c-.42-.73-.92-1.49-1.3-2.31a14.11,14.11,0,0,1-.93-2.52,12.51,12.51,0,0,1-.43-2.66,2.69,2.69,0,0,1,1.06-2.42,2.66,2.66,0,0,0-.47,2.36,16.5,16.5,0,0,0,.73,2.43,23.76,23.76,0,0,0,2.37,4.51,7.09,7.09,0,0,1,1,2.65,4.69,4.69,0,0,1,0,.75,1.27,1.27,0,0,1-.46,1,1.92,1.92,0,0,1-.76.36,6.24,6.24,0,0,1-.71.16,2.28,2.28,0,0,1-1.53-.36,4.34,4.34,0,0,1-1-1A4.21,4.21,0,0,1,40.71,307.18Z"/><path class="cls-2" d="M44.79,306.29a3.42,3.42,0,0,0,2.54,2,1.86,1.86,0,0,0,1.39-.32.88.88,0,0,0,.07-1.1c-.22-.41-.64-.88-1-1.39a17.43,17.43,0,0,1-.94-1.56,16.34,16.34,0,0,1-1.29-3.39,15.74,15.74,0,0,1-.45-3.62,6.77,6.77,0,0,1,1-3.62,10.32,10.32,0,0,1,1.13-1.43,5,5,0,0,1,1.45-1.2,7.86,7.86,0,0,1,1.75-.47l.87-.18.43-.07a.58.58,0,0,1,.23,0s.1,0,.07.09-.1.05-.08,0,.06,0,.06,0,0,0,0,0a.76.76,0,0,0-.2.06l-.41.17-.83.3a7.92,7.92,0,0,0-1.56.69,4.48,4.48,0,0,0-1.12,1.17,11.8,11.8,0,0,0-.93,1.41,6.18,6.18,0,0,0-.63,3.14,15.05,15.05,0,0,0,.49,3.33,15.75,15.75,0,0,0,1.14,3.19,15.46,15.46,0,0,0,.8,1.5,13.93,13.93,0,0,1,.94,1.56,2.22,2.22,0,0,1,.16,1.09,1.45,1.45,0,0,1-.6,1,2.45,2.45,0,0,1-2,.27A3.51,3.51,0,0,1,44.79,306.29Z"/><path class="cls-2" d="M63.25,298.73a22.5,22.5,0,0,1-6.6,2.48,42.68,42.68,0,0,1-7,1,57.18,57.18,0,0,1-7,0c-1.17-.08-2.34-.2-3.51-.33s-2.32-.34-3.47-.57l7,0c2.33-.06,4.65-.08,7-.25s4.61-.36,6.9-.7c1.14-.18,2.29-.37,3.42-.63A22,22,0,0,0,63.25,298.73Z"/><path class="cls-2" d="M53.8,295.7a4.06,4.06,0,0,1,4.66-.52c-.84.17-1.57.22-2.33.31S54.65,295.67,53.8,295.7Z"/><path class="cls-2" d="M12.32,236.51a7.36,7.36,0,0,1,4.71-1.9,7.71,7.71,0,0,1,5,1.56l-.87.53a2.48,2.48,0,0,1,.42-1.88,8,8,0,0,1,1.06-1.28,12.27,12.27,0,0,1,2.54-2,12.76,12.76,0,0,1,6.14-1.81L31,230.9a14.46,14.46,0,0,0-3.17-1.33,5.36,5.36,0,0,1-3-2.39,3.8,3.8,0,0,1-.29-2c0-.58,0-1.1-.42-1.33a1.78,1.78,0,0,0-1.54.13,3.93,3.93,0,0,1-1.71.56,4.32,4.32,0,0,0,1.58-.81,2.13,2.13,0,0,1,1.89-.34,1.37,1.37,0,0,1,.75.8,3.21,3.21,0,0,1,.17,1,2.93,2.93,0,0,0,.35,1.54,4.59,4.59,0,0,0,2.63,1.76,14.06,14.06,0,0,1,3.48,1.33l1.67,1.06-2,.09a12.32,12.32,0,0,0-5.54,1.66,12.81,12.81,0,0,0-2.34,1.74c-.72.67-1.38,1.45-1.27,2.08l.27,1.54-1.14-1A7.28,7.28,0,0,0,17,235.3,7.65,7.65,0,0,0,12.32,236.51Z"/><path class="cls-2" d="M25.59,236.2c-1.13-1.24-2-2.59-3-3.74a11.75,11.75,0,0,0-3.65-2.9,4.78,4.78,0,0,1,2.43.64,7.43,7.43,0,0,1,2,1.61A11.2,11.2,0,0,1,25.59,236.2Z"/><path class="cls-2" d="M29.22,233.23a3.37,3.37,0,0,1,3.69,1.08c-.69-.13-1.26-.33-1.86-.49S29.87,233.48,29.22,233.23Z"/><path class="cls-2" d="M110.41,38.3a4.69,4.69,0,0,0-2,1.47,2.29,2.29,0,0,0-.76,2,3.36,3.36,0,0,0,.42.94c.07,0,0,0,.22,0a5.24,5.24,0,0,0,.54-.06,6.25,6.25,0,0,0,2.16-1c.72-.43,1.46-1,2.27-1.36a14.45,14.45,0,0,1,2.5-1,11.84,11.84,0,0,1,2.64-.5,2.69,2.69,0,0,1,2.45,1,2.69,2.69,0,0,0-2.37-.41,17.45,17.45,0,0,0-2.41.8,23.63,23.63,0,0,0-4.45,2.49A7,7,0,0,1,109,43.79a4.78,4.78,0,0,1-.76,0,1.32,1.32,0,0,1-1-.43,2.15,2.15,0,0,1-.38-.76c-.06-.21-.13-.44-.18-.7a2.29,2.29,0,0,1,.32-1.54,4.22,4.22,0,0,1,1-1A4.12,4.12,0,0,1,110.41,38.3Z"/><path class="cls-2" d="M111.41,42.36a3.39,3.39,0,0,0-1.91,2.58,1.89,1.89,0,0,0,.35,1.39.89.89,0,0,0,1.1,0c.41-.22.86-.66,1.36-1a15.42,15.42,0,0,1,1.54-1A16.16,16.16,0,0,1,117.21,43a15,15,0,0,1,3.6-.55,6.74,6.74,0,0,1,3.65.86,11.8,11.8,0,0,1,1.46,1.09,5,5,0,0,1,1.23,1.41,8.07,8.07,0,0,1,.52,1.75l.2.86.09.43a.57.57,0,0,1,0,.23s0,.09-.09.07,0-.1,0-.09,0,.07,0,.07,0,0,0-.06a.49.49,0,0,0-.07-.19l-.17-.41-.33-.82a7.82,7.82,0,0,0-.73-1.54,4.52,4.52,0,0,0-1.2-1.09,13.93,13.93,0,0,0-1.43-.89,6.15,6.15,0,0,0-3.16-.55,15.11,15.11,0,0,0-3.32.58,16,16,0,0,0-3.15,1.22,16.57,16.57,0,0,0-1.48.84,13.37,13.37,0,0,1-1.54,1,2.07,2.07,0,0,1-1.08.19,1.37,1.37,0,0,1-1-.57,2.47,2.47,0,0,1-.33-2A3.48,3.48,0,0,1,111.41,42.36Z"/><path class="cls-2" d="M119.45,60.6a22.42,22.42,0,0,1-2.65-6.53,43.52,43.52,0,0,1-1.16-7,57.4,57.4,0,0,1-.18-7.06c.06-1.17.15-2.34.24-3.51s.28-2.33.48-3.49l.22,7c.12,2.33.2,4.64.43,7s.48,4.6.88,6.88c.21,1.14.44,2.27.72,3.4A23.23,23.23,0,0,0,119.45,60.6Z"/><path class="cls-2" d="M122.24,51.08a4.07,4.07,0,0,1,.63,4.64c-.19-.83-.26-1.57-.37-2.31S122.28,51.92,122.24,51.08Z"/><path class="cls-2" d="M65.41,75.7c5.18-1.15,10.4-2,15.62-2.87s10.47-1.55,15.72-2.19l-.31,1.7c-1.65-.9-3.27-1.83-4.91-2.75s-3.25-1.88-4.88-2.82c-3.23-1.91-6.44-3.85-9.59-5.92,3.46,1.5,6.84,3.12,10.22,4.77,1.67.84,3.36,1.66,5,2.53s3.34,1.7,5,2.59l2.43,1.31L97,72.44c-5.24.75-10.49,1.39-15.75,2S70.71,75.46,65.41,75.7Z"/><path class="cls-2" d="M81.32,69.48c0-2.34.08-4.67.26-7s.43-4.64.75-6.94l.12-.82.53.58c.58.64,1.15,1.28,1.72,1.93s1.11,1.31,1.64,2c-.69-.53-1.33-1.1-2-1.66s-1.28-1.14-1.91-1.73l.65-.23c-.14,2.33-.36,4.64-.64,7S81.82,67.19,81.32,69.48Z"/><path class="cls-2" d="M286.34,49.92a22.82,22.82,0,0,0,6.1-.58c1.91-.43,3.66-1.47,4.09-3.19a3.75,3.75,0,0,0-.14-2.59,1.62,1.62,0,0,1,0-1.31,1.23,1.23,0,0,1,.65-.57,1.65,1.65,0,0,1,.6-.1,2.87,2.87,0,0,0,.59,0,1,1,0,0,0,.4-.24,3.32,3.32,0,0,0,.62-1.18,1,1,0,0,1,.47-.56c.22-.09.31-.09.45-.14s.53-.12.8-.16a8.48,8.48,0,0,1,3.18.12,11.49,11.49,0,0,0-3,.6c-.24.08-.47.16-.7.26a1.25,1.25,0,0,0-.28.13s.05,0,0,.06a4,4,0,0,1-.67,1.63,2.13,2.13,0,0,1-.86.65,2.82,2.82,0,0,1-.95.15.37.37,0,0,0-.17,0,.13.13,0,0,0,.08-.07c0-.12,0,0,.12.2a5.21,5.21,0,0,1,.26,3.51,5.08,5.08,0,0,1-2.14,2.83,7.59,7.59,0,0,1-3.18,1.09A14,14,0,0,1,286.34,49.92Z"/><path class="cls-2" d="M289.8,38.48a13,13,0,0,0,2.6-.84,2.93,2.93,0,0,0,1-.77,9.82,9.82,0,0,1,.94-1.09,4.84,4.84,0,0,1,2.76-1.13,6.6,6.6,0,0,1,2.84.39,14.91,14.91,0,0,0-2.73.3,5.24,5.24,0,0,0-2.28,1.11,13.56,13.56,0,0,0-.92,1,3.3,3.3,0,0,1-1.3.82A6.17,6.17,0,0,1,289.8,38.48Z"/><path class="cls-2" d="M312,34.79c-1.16,0-2.33-.13-3.49-.25a15.22,15.22,0,0,1-3.57-.62,5.09,5.09,0,0,1-1.74-1.08c-.49-.44-.87-.88-1.24-1.25a12.86,12.86,0,0,0-2.49-1.92,7.5,7.5,0,0,0-2.78-1,5.37,5.37,0,0,0-2.73.4,3.9,3.9,0,0,0-2,1.74,5.56,5.56,0,0,0-.28.64,6,6,0,0,1-.38,1,2.87,2.87,0,0,1-1.86,1.43l.47-1c.15.64,1,1.21,1.8,1.79a5.07,5.07,0,0,1,1.19,1.08,2.12,2.12,0,0,1,.49,1.49,2.09,2.09,0,0,0-.84-1.14,5.78,5.78,0,0,0-1.26-.65,10.56,10.56,0,0,1-1.44-.65,3.31,3.31,0,0,1-1.32-1.31l-.33-.64.8-.38a1.36,1.36,0,0,0,.7-.76,5.37,5.37,0,0,0,.16-.68,6.25,6.25,0,0,1,.28-1A6,6,0,0,1,293,27a7.17,7.17,0,0,1,4-.7,8.86,8.86,0,0,1,3.68,1.37,13,13,0,0,1,2.81,2.5c.41.47.74.95,1.06,1.33a3.4,3.4,0,0,0,1.07.89,21,21,0,0,0,3.12,1.16C309.85,33.94,310.94,34.34,312,34.79Z"/><path class="cls-2" d="M332,43.33a7.35,7.35,0,0,1-1.87,4.72,7.7,7.7,0,0,1-4.58,2.57l.21-1a2.48,2.48,0,0,1,1.08,1.59,8.17,8.17,0,0,1,.2,1.66,12.45,12.45,0,0,1-.31,3.21,12.84,12.84,0,0,1-2.92,5.7l-.61-1a14.77,14.77,0,0,0,3.13-1.39,5.41,5.41,0,0,1,3.83-.55A3.76,3.76,0,0,1,331.76,60c.41.41.8.74,1.25.61a1.8,1.8,0,0,0,1-1.21,3.92,3.92,0,0,1,.77-1.62,4.47,4.47,0,0,0-.5,1.7A2.16,2.16,0,0,1,333.2,61a1.36,1.36,0,0,1-1.1,0,3.42,3.42,0,0,1-.83-.55,2.79,2.79,0,0,0-1.36-.81,4.59,4.59,0,0,0-3.08.69A14.24,14.24,0,0,1,323.46,62l-1.91.48,1.3-1.51a12.53,12.53,0,0,0,2.62-5.16,12.76,12.76,0,0,0,.34-2.89c0-1-.09-2-.63-2.35l-1.3-.86,1.52-.14a7.26,7.26,0,0,0,4.23-2A7.58,7.58,0,0,0,332,43.33Z"/><path class="cls-2" d="M323.08,53.16c1.67,0,3.24.34,4.79.39a11.53,11.53,0,0,0,4.61-.66,4.72,4.72,0,0,1-2.13,1.32,7.22,7.22,0,0,1-2.52.32A11.16,11.16,0,0,1,323.08,53.16Z"/><path class="cls-2" d="M322.73,57.83a3.08,3.08,0,0,1-1.35,1.5,3.12,3.12,0,0,1-2,.43c.58-.4,1.11-.68,1.65-1S322.1,58.13,322.73,57.83Z"/><path class="cls-2" d="M346.76,60.59c1.13,5.19,2,10.41,2.83,15.64S351.12,86.7,351.75,92l-1.7-.32c.9-1.65,1.84-3.27,2.76-4.9s1.88-3.25,2.83-4.87c1.92-3.23,3.86-6.44,5.93-9.58-1.5,3.45-3.13,6.83-4.78,10.2-.85,1.68-1.67,3.37-2.54,5s-1.71,3.34-2.6,5l-1.31,2.42L350,92.18c-.74-5.24-1.37-10.49-1.94-15.75S347,65.9,346.76,60.59Z"/><path class="cls-2" d="M352.94,76.52c2.34,0,4.67.09,7,.27s4.63.44,6.94.77l.82.11-.59.54c-.63.58-1.28,1.15-1.93,1.71s-1.31,1.11-2,1.63c.53-.68,1.1-1.32,1.66-2s1.15-1.28,1.73-1.9l.23.65c-2.32-.15-4.64-.38-7-.66S355.23,77,352.94,76.52Z"/><path class="cls-2" d="M176.82,6.19c5.32,3.77,10.49,7.72,15.63,11.7S202.66,25.94,207.73,30s10.05,8.23,15,12.42,9.91,8.41,14.8,12.68l-3.63,2.23c-1.06-4.48-2-9-3-13.48s-1.91-9-2.87-13.53-1.81-9-2.63-13.58-1.63-9.09-2.31-13.66c1.48,4.38,2.86,8.78,4.19,13.2s2.61,8.85,3.88,13.28,2.5,8.88,3.65,13.34,2.37,8.91,3.48,13.38L239.92,63l-5.29-4.42q-7.47-6.26-14.83-12.64C214.88,41.64,210,37.31,205.18,33s-9.63-8.74-14.36-13.2S181.38,10.85,176.82,6.19Z"/><path class="cls-2" d="M214.31,25.05c2.1-2,4.28-3.84,6.48-5.66s4.45-3.6,6.72-5.35,4.55-3.46,6.88-5.11,4.66-3.32,7-4.92l1.68-1.15-.19,2c-.21,2.1-.44,4.2-.71,6.29s-.56,4.19-1,6.28c-.15-2.12-.19-4.23-.23-6.35s0-4.22,0-6.33l1.5.81c-2.25,1.78-4.51,3.53-6.81,5.23s-4.61,3.37-6.94,5-4.71,3.25-7.12,4.8S216.82,23.64,214.31,25.05Z"/><path class="cls-2" d="M282.25,221.87a26.65,26.65,0,0,0,1.84,6.92c.87,2.12,2.4,3.94,4.47,4.11a4.5,4.5,0,0,0,3-.67,3.2,3.2,0,0,1,.58-.26,1.61,1.61,0,0,1,.93,0,1.36,1.36,0,0,1,.78.64,1.86,1.86,0,0,1,.23.66,4.23,4.23,0,0,0,.14.68,1.14,1.14,0,0,0,.36.42,3.72,3.72,0,0,0,1.48.48,2,2,0,0,1,.36.13.92.92,0,0,1,.36.31,2.26,2.26,0,0,1,.25.49c.13.3.24.59.34.89a10.16,10.16,0,0,1,.49,3.69,13.92,13.92,0,0,0-1.28-3.35c-.14-.26-.28-.52-.43-.76a2.59,2.59,0,0,0-.21-.3s.06.05-.06,0a4.42,4.42,0,0,1-2-.45,2.51,2.51,0,0,1-.92-.86,3.67,3.67,0,0,1-.36-1.07.82.82,0,0,0-.07-.19s0,.07.09.08,0,0-.21.17a6.1,6.1,0,0,1-4,1,5.89,5.89,0,0,1-3.67-1.92,8.75,8.75,0,0,1-1.87-3.46A16.25,16.25,0,0,1,282.25,221.87Z"/><path class="cls-2" d="M296.11,223.65a15.17,15.17,0,0,0,1.47,2.84,3.66,3.66,0,0,0,1.07,1,9.85,9.85,0,0,1,1.44.87,5.66,5.66,0,0,1,1.84,3,7.75,7.75,0,0,1,.1,3.35,17.92,17.92,0,0,0-.87-3.09,6.2,6.2,0,0,0-1.73-2.42,13,13,0,0,0-1.34-.87,4,4,0,0,1-1.2-1.34A7.42,7.42,0,0,1,296.11,223.65Z"/><path class="cls-2" d="M304.65,248.58c-.17-1.35-.3-2.72-.38-4.08a17.63,17.63,0,0,1,0-4.23,6,6,0,0,1,.91-2.22c.41-.65.84-1.17,1.2-1.68a14.75,14.75,0,0,0,1.74-3.24,8.62,8.62,0,0,0,.6-3.39,6.1,6.1,0,0,0-1-3.07,4.49,4.49,0,0,0-2.39-2,4.06,4.06,0,0,0-.8-.2,8.07,8.07,0,0,1-1.18-.26,3.3,3.3,0,0,1-2-1.87l1.27.35c-.7.3-1.2,1.35-1.7,2.42a6.23,6.23,0,0,1-1,1.58,2.42,2.42,0,0,1-1.62.85,2.4,2.4,0,0,0,1.16-1.19,7,7,0,0,0,.5-1.57,12.19,12.19,0,0,1,.47-1.79,3.91,3.91,0,0,1,1.26-1.78l.67-.5.6.85a1.58,1.58,0,0,0,1,.66,5.41,5.41,0,0,0,.81.05,6.61,6.61,0,0,1,1.2.14,7,7,0,0,1,4,2.72,8.39,8.39,0,0,1,1.57,4.49,10.38,10.38,0,0,1-.87,4.51,14.82,14.82,0,0,1-2.34,3.72c-.46.57-.95,1-1.33,1.48a3.9,3.9,0,0,0-.81,1.41,10.23,10.23,0,0,0-.44,1.83c-.09.66-.19,1.32-.31,2C305.21,245.9,305,247.23,304.65,248.58Z"/><path class="cls-2" d="M267.05,120a10.57,10.57,0,0,1-.71,4,12.27,12.27,0,0,1-2.1,3.52,12.13,12.13,0,0,1-7.13,4.15l.31-1.57a3.86,3.86,0,0,1,1.73,2.47,12.79,12.79,0,0,1,.36,2.59,19.48,19.48,0,0,1-.4,5.05,20.24,20.24,0,0,1-1.64,4.79,21,21,0,0,1-2.8,4.23l-1-1.6a22.43,22.43,0,0,0,4.89-2.25,8.41,8.41,0,0,1,6-1,4.55,4.55,0,0,1,1.46.73,13.78,13.78,0,0,1,1.09,1c.65.65,1.29,1.15,2,.92a2.85,2.85,0,0,0,1.48-1.91,6.35,6.35,0,0,1,1.18-2.57,7,7,0,0,0-.74,2.68,3.3,3.3,0,0,1-1.61,2.57,2.21,2.21,0,0,1-1.73,0,5.48,5.48,0,0,1-1.31-.85,11.12,11.12,0,0,0-1.06-.81,3.16,3.16,0,0,0-1.09-.42,7,7,0,0,0-4.82,1.17,23,23,0,0,1-5.25,2.61l-3,.8,2-2.4a19.56,19.56,0,0,0,4.43-12.72,11,11,0,0,0-.2-2.21,2.29,2.29,0,0,0-.85-1.46l-2-1.33,2.28-.24a11.42,11.42,0,0,0,6.59-3.21A12.13,12.13,0,0,0,267.05,120Z"/><path class="cls-2" d="M253.32,135.71a36.65,36.65,0,0,1,3.83.23c1.25.11,2.48.24,3.7.25a20.88,20.88,0,0,0,3.62-.2,17.07,17.07,0,0,0,3.61-1,7.58,7.58,0,0,1-3.32,2.13,11.78,11.78,0,0,1-3.95.57,16.71,16.71,0,0,1-3.88-.61A18.3,18.3,0,0,1,253.32,135.71Z"/><path class="cls-2" d="M252.89,143.05a4.81,4.81,0,0,1-2.09,2.38,4.87,4.87,0,0,1-3.08.74c.89-.65,1.72-1.11,2.55-1.62S251.91,143.53,252.89,143.05Z"/><path class="cls-2" d="M120.09,243.57a6.18,6.18,0,0,0,1.34,3,3,3,0,0,0,2.32,1.49,4.49,4.49,0,0,0,1.31-.29c.08-.08.06,0,.12-.26a5.51,5.51,0,0,0,.06-.71,8,8,0,0,0-.65-3c-.36-1-.83-2.11-1.14-3.25a18.59,18.59,0,0,1-.61-3.46,15.78,15.78,0,0,1,.06-3.5,3.5,3.5,0,0,1,1.9-2.86,3.48,3.48,0,0,0-1.14,2.92,24.23,24.23,0,0,0,.38,3.28,26.64,26.64,0,0,0,.82,3.19c.33,1,.78,2,1.2,3.14a9.29,9.29,0,0,1,.66,3.62,6.54,6.54,0,0,1-.16,1,2.18,2.18,0,0,1-.26.61,1.73,1.73,0,0,1-.55.5,2.73,2.73,0,0,1-1.07.29,9.06,9.06,0,0,1-.94,0,3,3,0,0,1-1.87-.81,5.32,5.32,0,0,1-1.09-1.5,8.22,8.22,0,0,1-.62-1.65A3.55,3.55,0,0,1,120.09,243.57Z"/><path class="cls-2" d="M125.53,243.36a4.44,4.44,0,0,0,2.8,3.13,2.49,2.49,0,0,0,1.86-.09,1.16,1.16,0,0,0,.33-1.4c-.18-.58-.62-1.27-.92-2a19.67,19.67,0,0,1-.84-2.21,20.53,20.53,0,0,1-.88-4.65,19.91,19.91,0,0,1,.24-4.75,8.83,8.83,0,0,1,2.06-4.43,14.4,14.4,0,0,1,1.78-1.57,6.39,6.39,0,0,1,2.12-1.2,10.78,10.78,0,0,1,2.36-.21l1.15,0h.58a1.62,1.62,0,0,1,.3,0s.11.08.06.14-.14,0-.11,0,.08,0,.09,0,0-.07-.06-.07a.88.88,0,0,0-.27,0l-.57.11-1.13.21a10.09,10.09,0,0,0-2.15.51,5.91,5.91,0,0,0-1.71,1.25,17.44,17.44,0,0,0-1.52,1.6,8.07,8.07,0,0,0-1.52,3.88,19.5,19.5,0,0,0-.14,4.39,20.62,20.62,0,0,0,.73,4.34,20,20,0,0,0,.69,2.11,17.68,17.68,0,0,1,.84,2.22,2.78,2.78,0,0,1,0,1.43,1.88,1.88,0,0,1-1,1.17,3.28,3.28,0,0,1-2.6-.1A4.58,4.58,0,0,1,125.53,243.36Z"/><path class="cls-2" d="M150.93,237.9a29.21,29.21,0,0,1-9,1.67,56.56,56.56,0,0,1-9.2-.36,74.41,74.41,0,0,1-9-1.63c-1.49-.37-3-.8-4.43-1.23s-2.9-1-4.32-1.53c1.52.22,3,.53,4.51.79s3,.51,4.48.78c3,.45,6,1,9,1.27s6,.61,9,.69c1.51,0,3,.05,4.52,0A30.06,30.06,0,0,0,150.93,237.9Z"/><path class="cls-2" d="M139.5,231.84a5,5,0,0,1,3.12-.76,4.94,4.94,0,0,1,3,1.17c-1.11,0-2.07-.08-3-.13S140.6,232,139.5,231.84Z"/><path class="cls-2" d="M147.63,132.17a1.29,1.29,0,0,0-2,.2,2.83,2.83,0,0,0,0,2.28,35.5,35.5,0,0,0,1.8,4.67,13.56,13.56,0,0,0,2.8,4,8,8,0,0,0,4.07,2.21,6,6,0,0,0,4.41-.78,7.16,7.16,0,0,0,2.6-3.81,14.24,14.24,0,0,0-.27-9.73,13,13,0,0,1,1.22,10,7.93,7.93,0,0,1-2.87,4.51,7.16,7.16,0,0,1-5.32,1,9.12,9.12,0,0,1-4.69-2.61,13.74,13.74,0,0,1-2.86-4.4,28.75,28.75,0,0,1-1.5-4.92,3.32,3.32,0,0,1,.32-2.64,1.53,1.53,0,0,1,1.2-.59A1.31,1.31,0,0,1,147.63,132.17Z"/><path class="cls-2" d="M156.83,134.14c.48-.25,1,.05,1.47.27s.85.55,1.27.83a22.82,22.82,0,0,1,2.33,1.94,27.85,27.85,0,0,1,3.86,4.68,36.85,36.85,0,0,1,2.91,5.29,17.09,17.09,0,0,1,1.08,2.85,5.51,5.51,0,0,1,0,3c.08-2-1-3.72-2-5.43s-2-3.41-3.08-5a47.58,47.58,0,0,0-3.51-4.71c-.64-.74-1.3-1.47-2-2.17-.35-.34-.71-.7-1.07-1S157.33,134,156.83,134.14Z"/><path class="cls-2" d="M162.92,148c.48-1,.9-2,1.29-3a16.21,16.21,0,0,0,.79-3.08,10.94,10.94,0,0,0,0-3.13,31.9,31.9,0,0,0-.66-3.14l-.45-1.89,1.1,1.57a19.18,19.18,0,0,0,1.86,2.27,22.06,22.06,0,0,0,2.21,2,12.59,12.59,0,0,1-2.53-1.64,14.17,14.17,0,0,1-2.13-2.18l.65-.32a21.31,21.31,0,0,1,.78,3.22,10,10,0,0,1-.08,3.37,12.25,12.25,0,0,1-1.09,3.15A16.36,16.36,0,0,1,162.92,148Z"/><path class="cls-2" d="M131.61,178.82a11,11,0,0,0-.55-3,2.47,2.47,0,0,0-1.75-1.89,1.86,1.86,0,0,0-1.28.18.82.82,0,0,1-.64.07.67.67,0,0,1-.32-.3,1,1,0,0,1-.07-.29,1.58,1.58,0,0,0,0-.29.54.54,0,0,0-.13-.19,1.58,1.58,0,0,0-.61-.26c-.22,0-.38-.35-.39-.43s-.08-.25-.11-.38a4.44,4.44,0,0,1-.08-1.58,5.86,5.86,0,0,0,.42,1.46c.09.21.25.54.27.46a1.88,1.88,0,0,1,.84.26,1.08,1.08,0,0,1,.36.4,1.62,1.62,0,0,1,.11.46c0,.12,0,.07,0,.05s0,0,.1-.07a2.47,2.47,0,0,1,3.21.66,3.68,3.68,0,0,1,.68,1.53A6.94,6.94,0,0,1,131.61,178.82Z"/><path class="cls-2" d="M125.8,177.6a5.88,5.88,0,0,0-.53-1.25,1.51,1.51,0,0,0-.42-.45,4.8,4.8,0,0,1-.58-.41,2.58,2.58,0,0,1-.68-1.32,3.43,3.43,0,0,1,.07-1.43,3.77,3.77,0,0,0,.92,2.42,4.91,4.91,0,0,0,.53.42,1.52,1.52,0,0,1,.46.61A3,3,0,0,1,125.8,177.6Z"/><path class="cls-2" d="M123,166.75c0,.58,0,1.16,0,1.74a7.42,7.42,0,0,1-.15,1.79,2.65,2.65,0,0,1-.46.92c-.2.26-.4.46-.56.66a6,6,0,0,0-.85,1.32,2.92,2.92,0,0,0-.06,2.75,2,2,0,0,0,1,.93c.16.07.55.17.83.26a1.4,1.4,0,0,1,.79.86l-.53-.19c.31-.11.55-.54.8-1a2.73,2.73,0,0,1,.49-.64,1,1,0,0,1,.71-.3,1.53,1.53,0,0,0-.79,1.11,4.68,4.68,0,0,1-.26.74,1.65,1.65,0,0,1-.59.71l-.3.19-.23-.38a.7.7,0,0,0-.41-.31,5,5,0,0,1-.84-.15,2.94,2.94,0,0,1-1.6-1.29,3.67,3.67,0,0,1-.51-1.95,4.43,4.43,0,0,1,.52-1.88,6.42,6.42,0,0,1,1.11-1.5c.46-.46.85-.7,1-1.15a10.86,10.86,0,0,0,.45-1.6C122.69,167.87,122.84,167.31,123,166.75Z"/><path class="cls-2" d="M192.82,312.32l-3.3-.76A106,106,0,0,1,125.59,268l-1.93-2.82,3.41.16a26.76,26.76,0,1,0-16.72-46.67l-2.51,2.25-.32-3.35c-.19-2-.32-4.07-.38-6.38h0a106.42,106.42,0,0,1,22-67.9l2.07-2.68.92,3.26a26.78,26.78,0,0,0,41.06,14.8,26.79,26.79,0,0,0-1.91-45.18l-3-1.69,3.13-1.34a106.53,106.53,0,0,1,77.37-2.47l3.2,1.14L249.18,111a26.29,26.29,0,0,0-6.51,6.12,26.77,26.77,0,1,0,47.52,21.71l.69-3.34,2.25,2.56a106.4,106.4,0,0,1,26.29,66.91c.06,2,.06,3.91,0,5.84l-.09,3.39L316.67,212A26.77,26.77,0,1,0,303,259.68l3.38-.37-1.74,2.93A105.89,105.89,0,0,1,243.06,310l-3.26.95,1.19-3.18a26.17,26.17,0,0,0,1.69-8.77,26.76,26.76,0,1,0-51.23,10.24Zm-62.57-43.67a102.56,102.56,0,0,0,56.91,38.83,30.17,30.17,0,1,1,58.92-8.42,29.56,29.56,0,0,1-.91,6.71A102.45,102.45,0,0,0,300,263.24a30.17,30.17,0,1,1,10-58.68,30.54,30.54,0,0,1,6.1,2.91c0-.81,0-1.62,0-2.45a103,103,0,0,0-23.38-62.32,30.16,30.16,0,1,1-48-32.58,103.24,103.24,0,0,0-68.88,2.19A30.25,30.25,0,0,1,187.59,142a30.16,30.16,0,0,1-54.46,11.86,30.37,30.37,0,0,1-3.22-6A103.13,103.13,0,0,0,110.53,211h0c0,1,.08,2,.13,3a29.81,29.81,0,0,1,8.89-4.36,30.16,30.16,0,1,1,10.7,59Z"/><path class="cls-2" d="M115.51,192.76a2.32,2.32,0,0,0-.09,1.25,1.09,1.09,0,0,0,.5.92,1.83,1.83,0,0,0,.5.14s0,0,.08-.07.11-.15.16-.22a3.16,3.16,0,0,0,.32-1.13,8.36,8.36,0,0,1,.64-2.57,7.33,7.33,0,0,1,.65-1.16,1.36,1.36,0,0,1,1.16-.62,1.29,1.29,0,0,0-.91.77,7,7,0,0,0-.48,1.17,12.74,12.74,0,0,0-.47,2.49,3.62,3.62,0,0,1-.43,1.34,3,3,0,0,1-.23.3.68.68,0,0,1-.47.22,1.66,1.66,0,0,1-.74-.26,1.44,1.44,0,0,1-.57-1.31A2.06,2.06,0,0,1,115.51,192.76Z"/><path class="cls-2" d="M117.37,193.68a1.71,1.71,0,0,0,.37,1.56,1,1,0,0,0,.64.31c.2,0,.33-.19.37-.41a14.36,14.36,0,0,1,.17-1.74,8,8,0,0,1,.56-1.72,7.46,7.46,0,0,1,.94-1.55,3.1,3.1,0,0,1,1.49-1.08,2.55,2.55,0,0,1,2.65.11l.39.2.19.11a.53.53,0,0,1,.1.06c.05.05-.06.09,0,0s.06,0,0,0a.23.23,0,0,0-.1,0l-.21-.07-.41-.13a2.53,2.53,0,0,0-2.41.16,4.61,4.61,0,0,0-2.07,2.46,7.45,7.45,0,0,0-.54,1.59,7.6,7.6,0,0,0-.16.83,6.59,6.59,0,0,1-.12.9.87.87,0,0,1-.82.68,1.25,1.25,0,0,1-.85-.5A1.76,1.76,0,0,1,117.37,193.68Z"/><path class="cls-2" d="M126.89,196.46a11.11,11.11,0,0,1-3.33-1.08,20.44,20.44,0,0,1-3-1.79,27.48,27.48,0,0,1-2.74-2.2l-1.26-1.21c-.39-.43-.79-.85-1.17-1.3l2.73,2.16c.93.7,1.83,1.41,2.78,2.06s1.91,1.29,2.9,1.87c.49.29,1,.57,1.52.82A11.26,11.26,0,0,0,126.89,196.46Z"/><path class="cls-2" d="M124.16,192.36a1.9,1.9,0,0,1,1.18.3,2,2,0,0,1,.79.94c-.39-.19-.67-.42-1-.6S124.49,192.62,124.16,192.36Z"/><path class="cls-2" d="M187.6,110.32a3.85,3.85,0,0,1,.74,4.79l-.31-.4a1.23,1.23,0,0,1,.95.09,4.36,4.36,0,0,1,.69.46,6.71,6.71,0,0,1,1.13,1.13,6.16,6.16,0,0,1,1.25,2.92l-.57-.09a6.74,6.74,0,0,0,.46-1.64,2.66,2.66,0,0,1,1-1.63c.6-.42,1.37-.1,1.57-.55a.89.89,0,0,0-.16-.75,2.08,2.08,0,0,1-.38-.81,2.38,2.38,0,0,0,.5.73,1.06,1.06,0,0,1,.28.91c-.11.4-.55.52-.83.56a1.31,1.31,0,0,0-.74.26,2.23,2.23,0,0,0-.71,1.4,7.57,7.57,0,0,1-.46,1.8l-.4.83-.17-.92a6.26,6.26,0,0,0-1.15-2.64,5.9,5.9,0,0,0-1-1.06c-.37-.31-.8-.59-1.1-.49l-.74.22.43-.62A3.83,3.83,0,0,0,187.6,110.32Z"/><path class="cls-2" d="M188.54,116.85c.53-.63,1.17-1.11,1.66-1.71a5.6,5.6,0,0,0,1.22-2,2.48,2.48,0,0,1-.18,1.23,4.2,4.2,0,0,1-.67,1.07A5.77,5.77,0,0,1,188.54,116.85Z"/><path class="cls-2" d="M190.21,118.47a1.54,1.54,0,0,1,.14,1,1.58,1.58,0,0,1-.45.89c0-.34.1-.63.13-.94S190.12,118.8,190.21,118.47Z"/><path class="cls-2" d="M228,110.17a2.32,2.32,0,0,0-1.25-.09,1.11,1.11,0,0,0-.92.51,1.83,1.83,0,0,0-.14.5s0,0,.07.08a1.14,1.14,0,0,0,.23.15,3,3,0,0,0,1.13.33,7.29,7.29,0,0,1,3.74,1.26,1.36,1.36,0,0,1,.62,1.16,1.31,1.31,0,0,0-.78-.91,7.94,7.94,0,0,0-1.17-.47,12,12,0,0,0-2.5-.45,3.57,3.57,0,0,1-1.33-.43,2.17,2.17,0,0,1-.3-.23.66.66,0,0,1-.23-.47,1.66,1.66,0,0,1,.25-.74,1.47,1.47,0,0,1,1.31-.58A2.11,2.11,0,0,1,228,110.17Z"/><path class="cls-2" d="M227.07,112a1.68,1.68,0,0,0-1.56.38,1,1,0,0,0-.31.64c0,.19.19.32.42.37a11,11,0,0,1,1.73.16,7.55,7.55,0,0,1,1.73.54,7.41,7.41,0,0,1,1.55.93,3.1,3.1,0,0,1,1.1,1.49,4.26,4.26,0,0,1,.25,1.81,3.91,3.91,0,0,1-.35.83l-.2.4-.11.19a.27.27,0,0,1-.06.1c0,.05-.09-.06,0,0s0,.06,0,0a.29.29,0,0,0,0-.1l.07-.21.13-.42a3.59,3.59,0,0,0,.21-.81,3.8,3.8,0,0,0-.39-1.59,4.54,4.54,0,0,0-2.47-2.06,8,8,0,0,0-1.59-.53,6,6,0,0,0-.83-.15,6.59,6.59,0,0,1-.9-.12.85.85,0,0,1-.68-.81,1.25,1.25,0,0,1,.49-.86A1.76,1.76,0,0,1,227.07,112Z"/><path class="cls-2" d="M224.34,121.57a10.7,10.7,0,0,1,1.07-3.34,20.07,20.07,0,0,1,1.77-3,28.81,28.81,0,0,1,2.17-2.75l1.21-1.26c.43-.4.85-.81,1.29-1.18l-2.14,2.74c-.69.93-1.4,1.84-2,2.79s-1.28,1.91-1.86,2.91c-.29.5-.56,1-.8,1.53A9.82,9.82,0,0,0,224.34,121.57Z"/><path class="cls-2" d="M228.43,118.81a1.92,1.92,0,0,1-.3,1.19,2,2,0,0,1-.93.79c.18-.38.41-.67.59-1S228.17,119.15,228.43,118.81Z"/><path class="cls-2" d="M198.89,110.15c2.34,1.21,4.61,2.54,6.88,3.87s4.49,2.74,6.7,4.16l-.66.55q-1-2.6-1.95-5.24c-.31-.88-.65-1.75-.94-2.64s-.59-1.77-.86-2.67c.43.84.82,1.68,1.22,2.53s.77,1.7,1.16,2.55c.77,1.7,1.5,3.41,2.21,5.14l.53,1.28L212,119c-2.24-1.38-4.45-2.81-6.64-4.26S201,111.74,198.89,110.15Z"/><path class="cls-2" d="M207,112.83c.73-.9,1.51-1.76,2.32-2.58.41-.41.8-.84,1.23-1.23l1.26-1.19.31-.29V108c0,.85.07,1.71,0,2.57-.18-.85-.3-1.69-.41-2.54l.32.12-1.21,1.24c-.4.42-.84.81-1.25,1.21C208.73,111.35,207.86,112.11,207,112.83Z"/><path class="cls-2" d="M294.5,177.59a11,11,0,0,0,2.35,1.93,2.48,2.48,0,0,0,2.56.31,1.84,1.84,0,0,0,.86-1,.85.85,0,0,1,.45-.47.58.58,0,0,1,.43,0,.9.9,0,0,1,.25.17,1.52,1.52,0,0,0,.21.2.52.52,0,0,0,.23.06,1.73,1.73,0,0,0,.63-.2c.18-.13.52,0,.57.08l.34.22a4.71,4.71,0,0,1,1.08,1.15,5.83,5.83,0,0,0-1.27-.84c-.21-.1-.54-.25-.5-.18a1.89,1.89,0,0,1-.81.34,1,1,0,0,1-.53-.07,1.4,1.4,0,0,1-.39-.28c-.1-.08-.08,0,0,0s0,0,0,.11a2.55,2.55,0,0,1-1.14,1.33,2.52,2.52,0,0,1-1.74.25,3.82,3.82,0,0,1-1.5-.73A7,7,0,0,1,294.5,177.59Z"/><path class="cls-2" d="M299.73,174.77a6.6,6.6,0,0,0,1.21.62,1.6,1.6,0,0,0,.61.07,5.09,5.09,0,0,1,.71-.06,2.51,2.51,0,0,1,1.37.57,3.3,3.3,0,0,1,.87,1.13,3.81,3.81,0,0,0-2.27-1.26,5.2,5.2,0,0,0-.67,0,1.49,1.49,0,0,1-.75-.16A3.15,3.15,0,0,1,299.73,174.77Z"/><path class="cls-2" d="M308.86,181.26c-.4-.43-.78-.86-1.15-1.31a7.85,7.85,0,0,1-1-1.47,2.82,2.82,0,0,1-.24-1c0-.33,0-.62,0-.88a6.58,6.58,0,0,0-.2-1.55,3,3,0,0,0-1.74-2.14,2,2,0,0,0-1.33-.09c-.16,0-.52.22-.79.33a1.42,1.42,0,0,1-1.16-.14l.53-.2a2.07,2.07,0,0,0,0,1.26,2.68,2.68,0,0,1,0,.8,1,1,0,0,1-.35.69,1.56,1.56,0,0,0-.11-1.36,4.83,4.83,0,0,1-.29-.73,1.63,1.63,0,0,1,0-.93l.1-.34.42.15a.72.72,0,0,0,.52,0,5.43,5.43,0,0,1,.74-.43,3,3,0,0,1,2.05-.05,3.69,3.69,0,0,1,1.65,1.16,4.58,4.58,0,0,1,.82,1.78,6.16,6.16,0,0,1,.11,1.86,4,4,0,0,0,0,1.53,10.92,10.92,0,0,0,.69,1.5C308.39,180.19,308.63,180.72,308.86,181.26Z"/><path class="cls-2" d="M297.79,156.55a2.29,2.29,0,0,0-.73-1,1.1,1.1,0,0,0-1-.38,1.59,1.59,0,0,0-.47.22s0,0,0,.1a1.24,1.24,0,0,0,0,.27,3,3,0,0,0,.48,1.08,8.53,8.53,0,0,1,1.17,2.36,6.55,6.55,0,0,1,.25,1.32,1.33,1.33,0,0,1-.49,1.21,1.31,1.31,0,0,0,.2-1.18,7.2,7.2,0,0,0-.39-1.19,12.48,12.48,0,0,0-1.25-2.21,3.43,3.43,0,0,1-.53-1.3,2.3,2.3,0,0,1,0-.38.69.69,0,0,1,.22-.47,1.59,1.59,0,0,1,.73-.28,1.44,1.44,0,0,1,1.28.63A2.09,2.09,0,0,1,297.79,156.55Z"/><path class="cls-2" d="M295.78,157.05a1.7,1.7,0,0,0-1.29-.94.92.92,0,0,0-.69.17.43.43,0,0,0,0,.55,13.35,13.35,0,0,1,1,1.44,7.66,7.66,0,0,1,1,3.46,3,3,0,0,1-.44,1.79,4,4,0,0,1-1.23,1.36,4.21,4.21,0,0,1-.86.26l-.43.1-.21,0s-.07,0-.12,0,0-.1,0-.05,0,0,0,0a.18.18,0,0,0,.09,0l.2-.08.41-.17a3.82,3.82,0,0,0,.76-.36,3.72,3.72,0,0,0,1-1.32,4.6,4.6,0,0,0,0-3.21,8.14,8.14,0,0,0-.62-1.57,7.53,7.53,0,0,0-.41-.73,6.45,6.45,0,0,1-.49-.77.84.84,0,0,1,.19-1,1.22,1.22,0,0,1,1-.17A1.75,1.75,0,0,1,295.78,157.05Z"/><path class="cls-2" d="M286.71,161.07a11.22,11.22,0,0,1,3.25-1.32,20.29,20.29,0,0,1,3.47-.59,27.23,27.23,0,0,1,3.5-.09l1.75.11c.58.08,1.16.14,1.73.24l-3.48.11c-1.15.07-2.31.1-3.45.22s-2.29.25-3.42.45a16.39,16.39,0,0,0-1.69.36A12.67,12.67,0,0,0,286.71,161.07Z"/><path class="cls-2" d="M291.45,162.44a2,2,0,0,1-2.3.33c.41-.11.77-.12,1.15-.19S291,162.46,291.45,162.44Z"/><path class="cls-2" d="M312.91,191.26a3.85,3.85,0,0,1-4.84.31l.43-.28a1.23,1.23,0,0,1-.18.94,4.36,4.36,0,0,1-.52.65,6,6,0,0,1-1.22,1,6.18,6.18,0,0,1-3,1l.14-.55a7.12,7.12,0,0,0,1.6.6,2.64,2.64,0,0,1,1.53,1.15c.36.64,0,1.38.41,1.62a.88.88,0,0,0,.76-.09,2,2,0,0,1,.84-.3,2.15,2.15,0,0,0-.77.42,1.08,1.08,0,0,1-.94.2.91.91,0,0,1-.48-.87,1.42,1.42,0,0,0-.19-.77,2.28,2.28,0,0,0-1.33-.83,7.22,7.22,0,0,1-1.75-.62l-.8-.48.94-.08a6.32,6.32,0,0,0,2.73-.91,5.52,5.52,0,0,0,1.14-.9c.35-.34.66-.74.6-1.05l-.16-.76.58.49A3.84,3.84,0,0,0,312.91,191.26Z"/><path class="cls-2" d="M306.32,191.61c.58.59,1,1.27,1.55,1.81a5.54,5.54,0,0,0,1.86,1.39,2.49,2.49,0,0,1-1.22-.29,3.93,3.93,0,0,1-1-.77A5.66,5.66,0,0,1,306.32,191.61Z"/><path class="cls-2" d="M304.56,193.13a1.59,1.59,0,0,1-1,.05,1.56,1.56,0,0,1-.84-.53c.34,0,.62.16.93.22S304.23,193,304.56,193.13Z"/><path class="cls-2" d="M267,291.15a2.4,2.4,0,0,0,1-.76,1.1,1.1,0,0,0,.35-1,1.44,1.44,0,0,0-.22-.45s0,0-.11,0l-.27,0a3.13,3.13,0,0,0-1.06.51,8.43,8.43,0,0,1-2.34,1.23,7.19,7.19,0,0,1-1.3.29,1.37,1.37,0,0,1-1.23-.45,1.31,1.31,0,0,0,1.18.16,7.32,7.32,0,0,0,1.19-.42,12.16,12.16,0,0,0,2.17-1.31,3.42,3.42,0,0,1,1.29-.56,2.22,2.22,0,0,1,.37,0,.64.64,0,0,1,.48.2,1.61,1.61,0,0,1,.3.72,1.43,1.43,0,0,1-.59,1.3A2.19,2.19,0,0,1,267,291.15Z"/><path class="cls-2" d="M266.43,289.14a1.67,1.67,0,0,0,.92-1.31,1,1,0,0,0-.19-.69.46.46,0,0,0-.56,0,12.71,12.71,0,0,1-1.4,1,8.24,8.24,0,0,1-1.66.74,7.65,7.65,0,0,1-1.78.32,3,3,0,0,1-1.81-.39,2.54,2.54,0,0,1-1.67-2l-.11-.42-.05-.22a.36.36,0,0,1,0-.11c0-.07.11,0,0,0s0-.06,0,0a.38.38,0,0,0,0,.1l.09.2.18.4a3.76,3.76,0,0,0,.38.75,3.81,3.81,0,0,0,1.34.94,4.65,4.65,0,0,0,3.22-.09,8.12,8.12,0,0,0,1.55-.66,7.71,7.71,0,0,0,.72-.44,6.49,6.49,0,0,1,.75-.5.85.85,0,0,1,1.05.16,1.28,1.28,0,0,1,.2,1A1.73,1.73,0,0,1,266.43,289.14Z"/><path class="cls-2" d="M262.18,280.19a11.37,11.37,0,0,1,1.41,3.21,22.63,22.63,0,0,1,.68,3.45,27.27,27.27,0,0,1,.18,3.5l-.07,1.75c-.06.58-.1,1.16-.19,1.74l-.2-3.48c-.1-1.15-.17-2.3-.32-3.44s-.3-2.28-.53-3.41a17.11,17.11,0,0,0-.41-1.68A12.15,12.15,0,0,0,262.18,280.19Z"/><path class="cls-2" d="M260.93,285a2,2,0,0,1-.56-1.09,2,2,0,0,1,.18-1.21c.11.41.13.77.22,1.14S260.9,284.54,260.93,285Z"/><path class="cls-2" d="M288.82,271.92c-2.56.64-5.15,1.14-7.73,1.65s-5.18.92-7.78,1.31l.13-.84c1.66.85,3.31,1.72,4.94,2.63.82.46,1.64.89,2.45,1.37s1.61.93,2.41,1.42c-.87-.34-1.73-.72-2.59-1.08s-1.7-.77-2.55-1.15c-1.7-.76-3.39-1.57-5.06-2.39l-1.24-.61,1.37-.24q3.88-.66,7.8-1.2C283.58,272.46,286.19,272.12,288.82,271.92Z"/><path class="cls-2" d="M281,275.24c0,1.16,0,2.32,0,3.48,0,.57,0,1.15-.11,1.73l-.16,1.73,0,.42-.28-.3c-.59-.62-1.18-1.24-1.73-1.9.69.51,1.34,1.07,2,1.63l-.32.12.08-1.73c0-.58.1-1.16.14-1.73C280.64,277.53,280.79,276.38,281,275.24Z"/><path class="cls-2" d="M179.4,287.88a11.21,11.21,0,0,0-3,.37,2.49,2.49,0,0,0-2,1.65,2,2,0,0,0,.11,1.28.84.84,0,0,1,0,.65.55.55,0,0,1-.31.29.75.75,0,0,1-.3.06,1.48,1.48,0,0,0-.29,0,.46.46,0,0,0-.2.13,1.7,1.7,0,0,0-.29.59c0,.22-.38.36-.45.36s-.26.07-.39.09a4.41,4.41,0,0,1-1.58,0,5.51,5.51,0,0,0,1.48-.34c.22-.08.55-.22.48-.24A1.74,1.74,0,0,1,173,292a1.07,1.07,0,0,1,.41-.34,1.85,1.85,0,0,1,.47-.09c.13,0,.08,0,0,0s0,0,0-.1a2.5,2.5,0,0,1,.84-3.18,3.85,3.85,0,0,1,1.56-.58A6.92,6.92,0,0,1,179.4,287.88Z"/><path class="cls-2" d="M177.85,293.61a6.64,6.64,0,0,0-1.28.45,1.68,1.68,0,0,0-.48.4,5,5,0,0,1-.44.55,2.55,2.55,0,0,1-1.36.61,3.39,3.39,0,0,1-1.42-.16,3.74,3.74,0,0,0,2.47-.77,4.66,4.66,0,0,0,.45-.51,1.69,1.69,0,0,1,.63-.43A3.35,3.35,0,0,1,177.85,293.61Z"/><path class="cls-2" d="M166.86,295.76c.57,0,1.16,0,1.74.08a7.55,7.55,0,0,1,1.77.25,2.72,2.72,0,0,1,.89.51c.25.21.44.43.63.6a6.27,6.27,0,0,0,1.27.93,3,3,0,0,0,2.74.21,1.94,1.94,0,0,0,1-.89c.08-.15.2-.54.31-.81a1.41,1.41,0,0,1,.9-.74l-.22.52c-.08-.32-.5-.59-.92-.86a2.71,2.71,0,0,1-.6-.52,1,1,0,0,1-.27-.74,1.53,1.53,0,0,0,1.07.86,6.13,6.13,0,0,1,.72.3,1.66,1.66,0,0,1,.68.64l.17.31-.39.2a.72.72,0,0,0-.34.39,5.69,5.69,0,0,1-.2.83,2.92,2.92,0,0,1-1.37,1.52,3.66,3.66,0,0,1-2,.4,4.47,4.47,0,0,1-1.85-.63,6,6,0,0,1-1.43-1.2c-.44-.48-.66-.88-1.1-1.07a10.94,10.94,0,0,0-1.56-.53C168,296.15,167.4,296,166.86,295.76Z"/><path class="cls-2" d="M156.82,291.8a3.84,3.84,0,0,1,3.1-3.71l-.09.5a1.25,1.25,0,0,1-.56-.78,4,4,0,0,1-.11-.82,6.63,6.63,0,0,1,.1-1.6,6.19,6.19,0,0,1,1.37-2.86l.31.48a7.17,7.17,0,0,0-1.54.74,2.61,2.61,0,0,1-1.89.32c-.71-.18-1-1-1.45-.82a.92.92,0,0,0-.46.62,2,2,0,0,1-.36.82,2.29,2.29,0,0,0,.23-.85,1,1,0,0,1,.5-.82.92.92,0,0,1,1,.25,1.45,1.45,0,0,0,.68.39,2.28,2.28,0,0,0,1.53-.39,7.29,7.29,0,0,1,1.65-.84l.9-.25-.59.73a6.54,6.54,0,0,0-1.23,2.61,6.33,6.33,0,0,0-.13,1.44c0,.49.09,1,.36,1.16l.65.41-.75.09A3.81,3.81,0,0,0,156.82,291.8Z"/><path class="cls-2" d="M161.1,286.79c-.83,0-1.61-.15-2.38-.13a5.53,5.53,0,0,0-2.28.4,2.41,2.41,0,0,1,1-.69,4.08,4.08,0,0,1,1.25-.19A5.66,5.66,0,0,1,161.1,286.79Z"/><path class="cls-2" d="M161.21,284.46a1.66,1.66,0,0,1,.65-.76,1.61,1.61,0,0,1,1-.24c-.28.21-.55.34-.8.52S161.52,284.31,161.21,284.46Z"/><path class="cls-2" d="M149.23,283.43c-.63-2.56-1.13-5.14-1.63-7.72s-.91-5.18-1.29-7.79l.84.14c-.85,1.65-1.73,3.3-2.64,4.93-.46.81-.89,1.64-1.37,2.44s-.94,1.62-1.43,2.41c.34-.87.72-1.72,1.09-2.58s.77-1.7,1.15-2.56q1.16-2.55,2.4-5.05l.61-1.24.24,1.37q.66,3.9,1.18,7.8C148.71,278.19,149,280.8,149.23,283.43Z"/><path class="cls-2" d="M145.94,275.61c-1.17,0-2.33,0-3.48-.05-.58,0-1.16-.05-1.73-.11l-1.73-.16-.42,0,.3-.28c.62-.59,1.24-1.17,1.9-1.72-.51.69-1.07,1.34-1.63,2l-.12-.32,1.73.09c.58,0,1.15.1,1.73.14C143.64,275.24,144.79,275.4,145.94,275.61Z"/><path class="cls-2" d="M234.45,308.05c-5.38-3.62-10.55-7.49-15.7-11.4s-10.18-7.95-15.17-12.06l1.77-1.15c.6,2.21,1.13,4.43,1.7,6.65s1.08,4.46,1.62,6.68,1,4.47,1.5,6.72.93,4.49,1.34,6.75c-.79-2.16-1.55-4.32-2.27-6.5s-1.42-4.36-2.12-6.54-1.37-4.38-2-6.58-1.31-4.39-1.91-6.6l-.89-3.24,2.65,2.09q7.6,6,15,12.26C224.89,299.33,229.77,303.56,234.45,308.05Z"/><path class="cls-2" d="M215.55,299.21c-2.05,2-4.19,3.86-6.4,5.66-1.11.89-2.21,1.78-3.35,2.64s-2.27,1.71-3.42,2.54l-.82.59.07-1c.14-2.09.33-4.18.65-6.27.19,2.1.26,4.2.28,6.3l-.75-.39c1.09-.91,2.19-1.81,3.3-2.69s2.25-1.74,3.38-2.6C210.77,302.33,213.11,300.7,215.55,299.21Z"/></g></g></g></svg>