<svg xmlns="http://www.w3.org/2000/svg" viewBox="0 0 101.84 145.39"><defs><style>.cls-1{fill:#866bc6;}</style></defs><title>Ресурс 4</title><g id="Слой_2" data-name="Слой 2"><g id="Слой_1-2" data-name="Слой 1"><path class="cls-1" d="M101.84,85.54c-4.69,4.06-9.64,7.78-14.68,11.39s-10.33,6.85-15.58,10.14-10.69,6.29-16.36,9a79.91,79.91,0,0,1-8.88,3.69,37.46,37.46,0,0,1-4.91,1.3,22.92,22.92,0,0,1-2.77.32,10.46,10.46,0,0,1-3.38-.38,7.15,7.15,0,0,1-2-1,6.54,6.54,0,0,1-1.72-1.87,7.19,7.19,0,0,1-.94-4.13,15.1,15.1,0,0,1,1.65-5.68,43.14,43.14,0,0,1,5.58-8.28c.5-.58,1-1.15,1.39-1.68.21-.27.4-.53.55-.75l.17-.26,0,0a.68.68,0,0,0,0,.13,1.31,1.31,0,0,0,0,.27.76.76,0,0,0,0,.15s0,.22,0,.33a2.23,2.23,0,0,0,0,.36l0,.17a1.8,1.8,0,0,0,.09.28,2.77,2.77,0,0,0,.68,1,2.74,2.74,0,0,0,.89.56,2.13,2.13,0,0,0,.51.14l.26,0h.26l.09,0h0s0,0-.05,0a1.67,1.67,0,0,0-.29.1,18.05,18.05,0,0,0-1.8.84c-1.31.68-2.64,1.45-4.19,2.19a19.06,19.06,0,0,1-2.55,1,9.39,9.39,0,0,1-3.25.44,5.24,5.24,0,0,1-1.1-.18,4.38,4.38,0,0,1-1.28-.57,4.3,4.3,0,0,1-1.69-2.15,6.59,6.59,0,0,1-.37-1.81c0-.25,0-.49,0-.71s0-.2,0-.18a1.7,1.7,0,0,0,.13.44,2.41,2.41,0,0,0,.37.56,2.34,2.34,0,0,0,.69.5,1.75,1.75,0,0,0,.9.16c.24,0,.12,0,0,0a7.63,7.63,0,0,0-.92.31l-2.13.78c-2.84,1.07-5.66,2.22-8.47,3.43-5.63,2.4-11.18,5-16.8,7.66,2.41-1.95,4.91-3.78,7.46-5.55s5.15-3.47,7.82-5.08,5.39-3.14,8.19-4.55l2.1-1c.36-.17.71-.34,1.23-.54A4.28,4.28,0,0,1,28,96.54a3,3,0,0,1,1.47.24,2.93,2.93,0,0,1,.92.67,2.89,2.89,0,0,1,.51.81,3.3,3.3,0,0,1,.26,1l0,.4c0,.16,0,.31.06.44a1.18,1.18,0,0,0,.14.44s-.09-.25-.28-.38a1,1,0,0,0-.22-.12s0,0,0,0a5.71,5.71,0,0,0,1.28-.35,14.57,14.57,0,0,0,1.69-.83c1.19-.67,2.48-1.51,3.85-2.33A22.08,22.08,0,0,1,40,95.24a6,6,0,0,1,.78-.32,4.48,4.48,0,0,1,.5-.15l.3-.07.15,0,.23,0,.46,0h.23a2.87,2.87,0,0,1,.41.05,5.06,5.06,0,0,1,.79.19,3.78,3.78,0,0,1,1.13.71,3.63,3.63,0,0,1,.84,1.22c0,.12.09.25.12.35l.06.24a4.43,4.43,0,0,1,.06.51,2.54,2.54,0,0,1,0,.47l0,.29a5.33,5.33,0,0,1-.11.55,6.55,6.55,0,0,1-.45,1.16c-.14.28-.28.52-.41.73-.27.43-.52.81-.77,1.15-.51.71-1,1.34-1.47,2a39.46,39.46,0,0,0-4.54,7.11,9.16,9.16,0,0,0-1,3.12c0,.42.09.44,0,.32s-.09-.16-.18-.18-.06,0,.08,0a3.45,3.45,0,0,0,1.19.12,13.88,13.88,0,0,0,1.81-.2,35,35,0,0,0,4-1,83.19,83.19,0,0,0,8.26-3.17c5.51-2.4,11-5.13,16.47-7.86S80,97,85.43,94.1Z"/><path class="cls-1" d="M51.33,66A70.23,70.23,0,0,0,64,70.65a54.61,54.61,0,0,0,6.53,1.11c2.27.22,4.5.45,6.79.74a46.18,46.18,0,0,1,13.47,4,25.18,25.18,0,0,1,10.65,9A37.44,37.44,0,0,0,89.73,79a71.3,71.3,0,0,0-12.92-3c-2.23-.3-4.53-.59-6.79-.93a36.26,36.26,0,0,1-6.82-1.79A35.35,35.35,0,0,1,51.33,66Z"/><path class="cls-1" d="M91.6,6.64C87.89,10,84,13.21,80,16.23c-2,1.5-4,3-6.09,4.41a64.82,64.82,0,0,1-6.58,4.15,33.18,33.18,0,0,1-7.71,3,73.28,73.28,0,0,1-7.7,1.37,135.92,135.92,0,0,0-14.09,2.65,71.77,71.77,0,0,0-13.09,4.46A35.06,35.06,0,0,0,19,39.46a19.38,19.38,0,0,0-4.29,4,10.49,10.49,0,0,0-2.16,4.59,7.34,7.34,0,0,0,0,2.19,6.3,6.3,0,0,0,.76,2.06l.29.51.39.49a8.67,8.67,0,0,0,.88,1,34.71,34.71,0,0,0,2.72,2.27,13.3,13.3,0,0,1,1.86,1.84A9,9,0,0,1,21,61.15a7.85,7.85,0,0,1,.35,3.34,8.06,8.06,0,0,1-1,3.06l-2.68-4.88a19.25,19.25,0,0,0,6.5-.08c2.31-.36,4.71-1,7.19-1.55A38.47,38.47,0,0,1,39.13,60a15.68,15.68,0,0,1,7.62,1.53,17.2,17.2,0,0,0-7.3.7,43.36,43.36,0,0,0-6.8,2.66,70.36,70.36,0,0,1-7.16,3.06,23.93,23.93,0,0,1-8.44,1.43l-3.81-.09,1.14-4.78a.8.8,0,0,0-.16-.81,5.12,5.12,0,0,0-1.28-1,35.33,35.33,0,0,1-3.25-2.18,12.28,12.28,0,0,1-1.81-1.59L7,58c-.26-.33-.5-.68-.75-1A14.07,14.07,0,0,1,3.67,47a18,18,0,0,1,1.18-4.86c.33-.73.65-1.48,1-2.17s.78-1.37,1.24-2a26.61,26.61,0,0,1,6.32-6.34,44.36,44.36,0,0,1,7.18-4.2,68.65,68.65,0,0,1,15.15-4.8,102.07,102.07,0,0,1,15.33-1.84c2.49-.14,4.85-.2,7.07-.5a28.65,28.65,0,0,0,6.44-1.56C66.78,18,68.94,17,71.2,16L78,12.82C82.46,10.74,87,8.64,91.6,6.64Z"/><path class="cls-1" d="M25.89,0A116.86,116.86,0,0,1,39.07,14.66,167,167,0,0,1,50.16,31.05a182.12,182.12,0,0,1,9.2,17.57c2.71,6,5.06,12.24,7.18,18.52a189.83,189.83,0,0,1,5,19.22l.89,4.88c.31,1.63.5,3.28.75,4.91.55,3.27.78,6.58,1.1,9.87a151.66,151.66,0,0,1-2,39.37,271.29,271.29,0,0,0-2.44-38.88,228.86,228.86,0,0,0-8.78-37.62A240,240,0,0,0,46.28,33.2c-1.45-2.89-3-5.72-4.58-8.56-.78-1.42-1.61-2.82-2.41-4.23l-2.51-4.17C33.41,10.69,29.81,5.26,25.89,0Z"/></g></g></svg>