<svg xmlns="http://www.w3.org/2000/svg" viewBox="0 0 33.53 39.73"><defs><style>.cls-1{fill:#866bc6;}</style></defs><title>Ресурс 2</title><g id="Слой_2" data-name="Слой 2"><g id="Слой_1-2" data-name="Слой 1"><path class="cls-1" d="M8.91,39.73a34.32,34.32,0,0,0,7.85-4.86c2.3-1.85,4-4.43,3.41-7A6,6,0,0,0,19.52,26a6.41,6.41,0,0,0-.55-.81c-.11-.12-.21-.25-.33-.36l-.4-.39a4.37,4.37,0,0,1-.53-.61,2.06,2.06,0,0,1-.36-1.14,1.84,1.84,0,0,1,.49-1.21,2.65,2.65,0,0,1,.74-.53,4.2,4.2,0,0,0,.78-.43,1.29,1.29,0,0,0,.38-.59,4.82,4.82,0,0,0,.06-2,2.05,2.05,0,0,1,0-.49,1.29,1.29,0,0,1,.25-.57,3.58,3.58,0,0,1,.52-.49c.32-.26.64-.52,1-.75a13,13,0,0,1,4.38-2,17.83,17.83,0,0,0-3.67,2.83c-.27.26-.53.54-.78.82a3.18,3.18,0,0,0-.29.36s0,0,0,0l0,.09a5.92,5.92,0,0,1,.18,2.65,3.18,3.18,0,0,1-.72,1.46,4.69,4.69,0,0,1-1.18.83.6.6,0,0,0-.21.17.23.23,0,0,0,.07-.15c0-.19,0,0,.29.2.11.09.29.24.46.41s.32.33.48.5a7.73,7.73,0,0,1,.79,1.11,8,8,0,0,1,1,2.55,7.66,7.66,0,0,1-1,5.25,11.61,11.61,0,0,1-3.58,3.6A21,21,0,0,1,8.91,39.73Z" transform="translate(0 0)"/><path class="cls-1" d="M5.94,22a19.22,19.22,0,0,0,3-2.86,4.59,4.59,0,0,0,.79-1.69,14.89,14.89,0,0,1,.55-2.1,7.27,7.27,0,0,1,3-3.38,10,10,0,0,1,4.11-1.37,23,23,0,0,0-3.5,2.23,8,8,0,0,0-2.34,3,18.79,18.79,0,0,0-.57,2,5.09,5.09,0,0,1-1.21,2A9.38,9.38,0,0,1,5.94,22Z" transform="translate(0 0)"/><path class="cls-1" d="M33.53,2.12c-1.6.72-3.24,1.38-4.89,2a22.66,22.66,0,0,1-5.23,1.55,7.64,7.64,0,0,1-3.08-.29c-1-.27-1.76-.61-2.52-.85a19.72,19.72,0,0,0-4.65-.95,11.09,11.09,0,0,0-4.4.52A8,8,0,0,0,5.33,6.46a6.11,6.11,0,0,0-1.57,3.7,6.55,6.55,0,0,0,.05,1.05,9.39,9.39,0,0,1,.13,1.56A4.29,4.29,0,0,1,2.38,16l0-1.7c.64.75,2.12,1,3.63,1.2a7.78,7.78,0,0,1,2.33.68,3.08,3.08,0,0,1,1.65,1.68,3,3,0,0,0-1.89-1,9,9,0,0,0-2.14,0,15.25,15.25,0,0,1-2.38.09A5.06,5.06,0,0,1,.87,16L0,15.35l.83-1.06a2.14,2.14,0,0,0,.44-1.49,9.8,9.8,0,0,0-.24-1,8.51,8.51,0,0,1-.28-1.53A8.84,8.84,0,0,1,2.63,4.32,10.81,10.81,0,0,1,7.58.7,13.38,13.38,0,0,1,13.47.09a18.94,18.94,0,0,1,5.47,1.5c.87.37,1.64.8,2.32,1.1a5,5,0,0,0,2,.48A14.69,14.69,0,0,0,25.72,3c.85-.14,1.71-.26,2.57-.37C30,2.43,31.75,2.24,33.53,2.12Z" transform="translate(0 0)"/></g></g></svg>