<svg xmlns="http://www.w3.org/2000/svg" viewBox="0 0 149.43 160.74"><defs><style>.cls-1{fill:#866bc6;}</style></defs><title>Ресурс 8</title><g id="Слой_2" data-name="Слой 2"><g id="Слой_1-2" data-name="Слой 1"><path class="cls-1" d="M55.27,160.74A13.57,13.57,0,0,0,58.09,154a17.18,17.18,0,0,0-.51-7.14c-1.32-4.61-4.17-8.62-7.46-12.18a90.15,90.15,0,0,0-10.82-9.91c-3.87-3.06-7.85-6-11.86-9.06A146.06,146.06,0,0,1,15.63,106,65.35,65.35,0,0,1,5.38,94.18,33.44,33.44,0,0,1,1.51,87,20.59,20.59,0,0,1,0,78.24a15.42,15.42,0,0,1,3.41-8.8,12.5,12.5,0,0,1,4-3.19,39.6,39.6,0,0,1,3.78-1.51,15.13,15.13,0,0,0,5-3.43A36.9,36.9,0,0,0,20.4,55.9c1.38-2,2.73-4.11,4.28-6.25a32.37,32.37,0,0,1,5.59-6.15A21,21,0,0,1,34,41.06l2.11-.87a18.4,18.4,0,0,1,2.17-.58c2.86-.57,5.45-.56,7.66-.85a14.72,14.72,0,0,0,3-.68,13,13,0,0,0,2.68-1.4,47.9,47.9,0,0,0,5.39-4.58,28.36,28.36,0,0,1,6.63-4.84,22,22,0,0,1,8.05-2c2.64-.19,5.06-.27,7.7-.26a21.2,21.2,0,0,1,8,1.4A13.42,13.42,0,0,1,91,28.61c1,.85,1.93,1.74,2.82,2.54a13.15,13.15,0,0,0,2.78,2,13.09,13.09,0,0,0,3.29,1.07c2.35.5,5,.58,7.43,1.42a10.71,10.71,0,0,1,3.4,1.85A6.72,6.72,0,0,1,112,38.92a5.73,5.73,0,0,1,.46.84c.13.26.27.67,0,.9.21-.26,0-.6-.14-.83a5.07,5.07,0,0,0-.55-.74,6.64,6.64,0,0,0-1.38-1.17A9.94,9.94,0,0,0,107,36.63c-2.36-.51-4.83-.31-7.42-.54a14,14,0,0,1-3.94-.85,15.52,15.52,0,0,1-3.51-2c-2.09-1.57-3.85-3.09-5.91-3.69a18.3,18.3,0,0,0-6.75-.61c-2.36.17-4.93.44-7.26.78a19.3,19.3,0,0,0-6.34,1.94,24,24,0,0,0-5.18,4.3A51.61,51.61,0,0,1,55,41.33a18.73,18.73,0,0,1-3.87,2.21,20.3,20.3,0,0,1-4.24,1.14c-2.74.45-5.18.55-7.22,1a11.78,11.78,0,0,0-5.24,2.74,28.55,28.55,0,0,0-4.35,5c-1.36,1.93-2.66,4.05-4.08,6.19A44.19,44.19,0,0,1,21,66a21.9,21.9,0,0,1-7.3,5c-1.36.52-2.46.85-3.2,1.23a5.62,5.62,0,0,0-1.84,1.48,8.91,8.91,0,0,0-1.91,5,14.11,14.11,0,0,0,1,5.94,29.8,29.8,0,0,0,3.11,6,63.5,63.5,0,0,0,9,11c3.43,3.42,7.15,6.64,11,9.85,7.61,6.38,15.62,12.83,21.93,21a43.93,43.93,0,0,1,4.2,6.52,25.12,25.12,0,0,1,2.55,7.39,18.56,18.56,0,0,1-.32,7.75A13.66,13.66,0,0,1,55.27,160.74Z"/><path class="cls-1" d="M101.28,31.38q.87-3.79,1.82-7.57L105,16.28l2-7.51a20.51,20.51,0,0,0,1-7.24L107.83,0l1.57.22a14.93,14.93,0,0,1,11.79,9.69l.3,1c.08.3.15.56.23.78.16.46.3.59.36.61a2.35,2.35,0,0,0,1,.05,6.49,6.49,0,0,1,2.29.13A4.3,4.3,0,0,1,127.6,14a9.26,9.26,0,0,1,1.13,1.86,17.52,17.52,0,0,0,1.48,2.93c.55.61.86.75,2.08.75a10,10,0,0,1,2.1.12,5.41,5.41,0,0,1,2.23,1,15.84,15.84,0,0,1,2.71,2.9,10.92,10.92,0,0,0,2.39,2.2c.94.66,2,1.27,3,2a12.1,12.1,0,0,1,3,2.68,8.33,8.33,0,0,1,1.63,3.89,5.68,5.68,0,0,1-.16,2.27,4.68,4.68,0,0,1-1.22,2l-.29.29-.36,0a7.71,7.71,0,0,1-3.43-.58c-1-.39-2-.87-2.85-1.27a9.2,9.2,0,0,0-2.7-.82,8.37,8.37,0,0,0-2.82.08,10.5,10.5,0,0,0-5.14,2.62,10.29,10.29,0,0,0-1.87,2.32,9.45,9.45,0,0,0-1.06,2.83,9.93,9.93,0,0,1,.71-3,10.32,10.32,0,0,1,1.7-2.65A11.09,11.09,0,0,1,135.26,35a9.94,9.94,0,0,1,6.48.37c2,.74,3.79,1.58,5.41,1.36l-.65.31a2.83,2.83,0,0,0,.59-2.45,6.09,6.09,0,0,0-1.3-2.68,10.28,10.28,0,0,0-2.49-2c-1-.62-2-1.21-3.12-1.92a17.3,17.3,0,0,1-1.59-1.19,12.94,12.94,0,0,1-1.43-1.44A15.64,15.64,0,0,0,134.91,23a2.5,2.5,0,0,0-1.06-.48,8.83,8.83,0,0,0-1.54,0,6.69,6.69,0,0,1-2.3-.29,5,5,0,0,1-2.11-1.53A17,17,0,0,1,126,17.09c-.47-1-1-1.71-1.45-1.79a3.63,3.63,0,0,0-1.32,0,4.58,4.58,0,0,1-2.55-.42,3.25,3.25,0,0,1-1.18-1.08,4.67,4.67,0,0,1-.55-1.17c-.12-.36-.2-.69-.28-1l-.23-.78A12.51,12.51,0,0,0,109,2.65l1.41-1.3a22.6,22.6,0,0,1-1.42,8l-2.5,7.37L104,24.07Q102.66,27.73,101.28,31.38Z"/><path class="cls-1" d="M72.13,143a6.36,6.36,0,0,0,2.77-1.74,9.55,9.55,0,0,0,1.75-2.71,56.46,56.46,0,0,1,2.82-6.27c2.69-4.06,6.77-6.54,9.35-9.76A38.71,38.71,0,0,0,92.19,117a32.34,32.34,0,0,1,3.91-6,50.5,50.5,0,0,1,5.15-4.73,19.89,19.89,0,0,0,4.17-4.46,15,15,0,0,0,2-5.59c.41-2.08.59-4.33,1.06-6.66a21.81,21.81,0,0,1,2.5-6.85c1.17-2.09,2.54-3.92,3.77-5.73a32.44,32.44,0,0,0,5-25.06,28.55,28.55,0,0,1,2,13.49,32.28,32.28,0,0,1-1.43,6.84,33,33,0,0,1-2.9,6.4c-1.14,2-2.36,3.87-3.33,5.74a18.24,18.24,0,0,0-1.85,5.86c-.35,2.1-.52,4.34-.93,6.68a19,19,0,0,1-2.49,7,23.83,23.83,0,0,1-5,5.32,59.41,59.41,0,0,0-4.88,4.29,28.62,28.62,0,0,0-3.67,5.16,32.73,32.73,0,0,1-4.07,5.76c-3.34,3.59-7.47,5.57-10.11,8.85-1.32,1.6-2.18,3.73-3.46,5.67a10.71,10.71,0,0,1-2.32,2.62A6.4,6.4,0,0,1,72.13,143Z"/><path class="cls-1" d="M106.44,29.44c2,2.4,4.77,4,7.35,5.74s5.18,3.5,7.75,5.35a19.24,19.24,0,0,1,3.64,3.27,6,6,0,0,1,1.25,2.45,2.49,2.49,0,0,1-.25,1.79,2.53,2.53,0,0,1-1.49,1.07,6.51,6.51,0,0,1-2.74,0,18.63,18.63,0,0,1-2.42-.62,44.17,44.17,0,0,1-4.43-1.84A34.56,34.56,0,0,0,110.88,45a7.75,7.75,0,0,0-2.06-.38,2.83,2.83,0,0,0-1.57.29c-.06.09,0,0,0,.15a2.17,2.17,0,0,0,.38.72,5.66,5.66,0,0,1,.69,1.18,2.33,2.33,0,0,1,0,1.84A2.41,2.41,0,0,1,107,50a4.32,4.32,0,0,1-1.4.31A7.46,7.46,0,0,1,103,50a19.22,19.22,0,0,1-8.06-5.29c-.56-.58-1-1.2-1.58-1.7a3.4,3.4,0,0,0-1.89-1,14.7,14.7,0,0,0-2.3,0,3.39,3.39,0,0,0-1.1.25.93.93,0,0,0-.59.89,1,1,0,0,1,.51-1,3.65,3.65,0,0,1,1.14-.42,13.42,13.42,0,0,1,2.38-.21,4,4,0,0,1,2.33.93c.66.5,1.2,1.08,1.78,1.57a19.34,19.34,0,0,0,7.76,4.49,6.31,6.31,0,0,0,2.06.13c.65,0,1.26-.36,1.27-.55s-.07-.61-.6-1.25a3.87,3.87,0,0,1-.7-1.34,1.94,1.94,0,0,1,.59-2,3.13,3.13,0,0,1,1.5-.7,5.5,5.5,0,0,1,1.38-.11,9.52,9.52,0,0,1,2.56.44,33.68,33.68,0,0,1,4.5,1.77c1.43.65,2.81,1.32,4.22,1.8a16.79,16.79,0,0,0,2.13.57,5.19,5.19,0,0,0,1.91,0,.74.74,0,0,0,.41-.22.69.69,0,0,0,.05-.49,4.45,4.45,0,0,0-.85-1.7,20.69,20.69,0,0,0-3.21-3.12L113.22,36c-1.22-1-2.45-2-3.64-3A15.41,15.41,0,0,1,106.44,29.44Z"/></g></g></svg>