<svg xmlns="http://www.w3.org/2000/svg" viewBox="0 0 143.96 110"><defs><style>.cls-1{fill:#866bc6;}</style></defs><title>Ресурс 22</title><g id="Слой_2" data-name="Слой 2"><g id="Слой_1-2" data-name="Слой 1"><path class="cls-1" d="M136.57,24.73v-.18l-.12-2.13,2.11-.37.26-.05-.08-.24-.8-2.79,1.9-.59h0l0,0c.69-.6,1.35-1.22,2.06-1.8s1.36-1.21,2-1.83c-.7.59-1.37,1.19-2.11,1.73s-1.42,1.11-2.12,1.68l-2.06.56-.17,0,.05.17.67,2.72-2.11.3-.24,0v.25l0,2.19-1.42.93-.07,0,0,.09-.8,1.48-1.61.74-1.53-.83L129.09,26l-.33-2.32-.07-.5-.51.11-2.58.58-1.29-.57-.4-2.12,0-.15-.11-.12-1.19-1.3-1-1.65-.07-.11-.11-.07-1.48-1-.09-.06-.1,0L117.47,16l-.27-.07-.24.16-2.09,1.38-.17.11-.07.19-.69,1.81-1,1.61-.14.21.06.26.41,1.92-1.92-.16-.21,0-.19.11-1.08.65-1.45.52L107,24.18l-1.6-.95L105,23l-.37.3-1.31,1-1.18-1.12-.3-.29-.4.13-1.61.52-.16.05-.21.05-.4.11-.82.22-.47.12,0,.48-.16,1.51v.13l.11,1.44L96.23,29l-.4.36.25.47.79,1.46-1.11,1.2-.27.29.12.37.53,1.55-.1.17-.41-.44-.32-.33-.42.19-1.79.8H91.68l-1.37-.82-.2-.12-.22,0-.3,0L90.1,34l-.68-1.42-.21-1.5.08-1.68,0-.3-.21-.19L87.84,27.7l-.28-1.43v-.08l-.48-1.43,1.26-1.19,2-.64.2-.06.09-.17.8-1.51.09-.17,0-.17L91,19.34l.85-1.05,0-.06,0-.06.47-1.23,0-.06v-.06L92.5,15l1.74-.71.18-.07,0-.18.39-1.89,1-1.37,1.28-1.14L98.86,9c1.25,0,2.48.12,3.73.23l1.89.28h0l1.6-.36.1,0V9l.12-1.56.73-1.8h0l.24-1.86.35-1.85h0L107.37,0l.26,1.9-.4,1.83-.29,1.85-.79,1.79v0L106,8.88l-1.49.29-1.86-.33h0c-1.25-.15-2.52-.26-3.78-.35h0l-.05,0-1.84.67,0,0,0,0-1.37,1.15v0l0,0-1.12,1.42,0,.05,0,.07-.41,1.76L92,14.41l-.22.08,0,.24-.16,2-.45,1.1-1,1.15-.14.17.06.23.37,1.54L89.79,22l-1.9.56-.11,0-.09.09L86,24.19l-.26.23.1.35.53,1.73.26,1.62,0,.18.15.15L88,29.58l-.11,1.47v.12l.18,1.66,0,.1,0,.1.58,1.32-.39.06L87,33.6l-.06,0-.06,0-2.29-.82-.71-.25-.09.73-.31,2.45,0,.19.08.15.8,1.52-.12,1.55v.25l.17.17,1.33,1.29-1,1.44-.17.26.14.25.7,1.24-1.22-.56L84,43.33l-.16.06L82.17,44l0,0,0,0-1.44,1-1.41-1-.18-.13-.18.1-.82.45a19.22,19.22,0,0,0-24.12-1.19v-.07l-.18-.07-1.87-.77-.26-1.44,0-.26-.26-.06-2-.46L48.9,40l-.1.43-.51,2.26-1.23.62h-2l-.14.1-1.4,1,0,0-.05.06-1,1.27-.92.17-.12-1.05-.14-1.46,1-1.44.27-.39-.32-.36L41,39.89l1.13-1.19.08-.08,0-.11L43,36.86l.1-.21L43,36.42,42.53,35l.91-1.38.21-.32L43.48,33l-.92-1.86.29-.19L41.8,29.35l-.44-1.8,0-.17-.1-.11L40,25.84l-.37-1.5L40,23.2l1.3-.75,0,0,0,0,1.28-1,.09-.07,0-.09.71-1.4L44.81,19l.08-.06,0-.07,1-1.52.31-.48-.55-.12L44,16.35l-1.15-1.1-.07-.06-.08,0-1.6-.39-1.51-.61L40,12.6l.88-1.43,0,0h0l.64-1.55V9.53l0-1.75,1.49-.69,1.55-.52,1.64-.35h0l3-1.23L46.28,6.11l-1.65.3h0L43,6.87h0l-1.61.68-.08,0v.09l-.1,1.8L40.57,11l-1,1.42v.06L39,14.24l-.07.23.23.1,1.72.78h0l1.51.42,1.13,1.15.07.07.1,0,1.2.3-.64.94-1.38.83-.1.06-.07.11L42,20.66l-1.2.91-1.48.78-.17.09-.08.19-.6,1.47-.06.16,0,.18.38,1.82,0,.13.1.13L40.13,28l.38,1.8,0,.11.07.11.56.9-1.26.59L38,30.77l-.42-.15-.32.32-1.32,1.37-1.75-.57-.41-.13-.31.3L32,33.29l-1.59-.53-.14,0h-.13l-2,.14-1.7-.59.16-1.91.31-2,0-.17L27,28l-.65-1.77-.2-.54-.55.13-1.62.37-.13,0-.1.08-1.5,1.06-.09.07-.07.09-1,1.52-1.51.25-.88-1.41-.11-.17-.19-.07-1.49-.56-.69-1.75-.73-1.84-.37,1.93-.32,1.74-1.65.45-.26.07-.09.24-.2.54-.45-.6,0-.07-.06,0-1.57-1.11L9,25.73l-.23-2,0-.26L8.5,23.4l-2-.68.41-1.86v0h0l.24-1.92v-.08l0-.07-.7-1.65-.22-.54L6,17.1l-.62,1.43-2.45-.7-.17,0,0,.17L2.4,20.33,1.13,21.38h0L0,22.72l1.19-1.27,1.37-1,0,0v0L3,18.17,5.43,19,5.6,19l.09-.17.5-1,.4,1.07-.3,1.82-.57,2.15-.08.32L6,23.3l2,.76.17,2,0,.19.17.12,1.57,1.09,1.45,1.08.92,1.31.52.74.35-.85.45-1.13,1.75-.42.32-.08.07-.34,0-.12.06.18.09.24.26.1,1.53.59,1,1.6.22.35.41-.07,2.18-.35.26,0,.15-.22L23,28.36l1.3-.91.94-.21.38,1.07-.3,1.86v0l-.22,2.46-.05.52.5.18,2.31.82.13,0h.15l1.95-.12,1.86.64.41.15.32-.31,1.43-1.39,1.76.56.42.14.3-.32,1.31-1.38,1.76.63.27.1.25-.12,1.39-.65.53,1-.86,1.32-.17.26.09.29.49,1.5-.57,1.34-1.43,1.53-.38.42.37.42,1.25,1.41-.84,1.24-.13.19,0,.22L40.16,45l.24,1.68.08.62.6-.12,1.72-.36.21-.05.12-.16,1.08-1.41,1.18-.89,1.79,0h.12l.1,0,1.51-.81.19-.11,0-.2L49.56,41l1.31.28.29,1.36.05.21.18.07,1.92.73v0a19.27,19.27,0,0,0,.8,30.94l-.17.62-1.73.6L52,76l-.05.28-.33,2-1.36,1,0,0-.05.06L49,80.7l-1.49.52-1.64-.28-.19,0-.18.08,0,0-.81-1.33,0-.06,0,0c-.75-.86-1.53-1.73-2.31-2.57l-.08-.09-.09-.05-1.55-.82L38,74l-.88-1.8-.2-.43-.44.16-1.89.72h0l0,0L33,73.57c-1,.49-2,1-3,1.52l-.81-1.51-.05-.11-.11,0-1.47-.71-.89-1.41-.07-.1-.11,0-1.73-.45-1.11-1-.25-.22-.15.29-.69,1.35-1.14,1.26,0,0v0l-.63,1.57h0l-.46,1.62-1,1.33,0,0v0l-.21,1.75-1.19,1.24-2.08.25L13.57,80l2.09.43h0l2.11-.19h0l0,0,1.26-1.24,0,0v0l.27-1.74,1.07-1.29,0,0v0L21,74.19l.66-1.51,1.18-1.22,0,0,0,0,.58-1.07.9.85.05,0,.06,0,1.65.48L27,73.16l0,.08.09,0,1.42.74.89,1.77.17.34.35-.17c1.15-.55,2.28-1.07,3.43-1.59h0l0,0,1.51-.85L36.34,73,37,74.53l0,.1.1.09L39.78,77l0,0,.06,0,1.47.84c.71.83,1.41,1.66,2.11,2.51l.67,1.19h0l-1.63-.75-.31-.13-.29.17-1.46.86-1.57.16-.63.07,0,.63.1,1.87v.26l.2.19,1.32,1.28.15,1.48-.32,1.09-.92,1.24-1.66.42L35.34,90l-.15,0-.14,0-1.82.37h-.07l-.06,0-1.63.68-1.74-.19h-.1l-.1,0-1.66.36-1,.21.58.78,1,1.36.25,2,0,.24L29,96l1.46,1.17L28.82,98l0,0h0L27,99.17l-.09.06-.05.09-1.13,1.88-.07.11v.12l.08,1.95v.19l.13.1,1.07.86-.72.78-1.77.14h-.15l-.06.13-.78,1.63-1.75.2h-.08l0,.06-.82,1.7-1.44.81,1.52-.7h0v0l.92-1.58,1.79-.09h.11l.05-.1.86-1.53,1.76,0h.12l.09-.1,1.13-1.08.28-.27-.3-.26-1.19-1v-1.64l1.06-1.64,1.68-1,2.44-1.11.78-.37-.67-.57-1.89-1.61-.22-1.89,0-.16-.1-.13-.52-.72.61-.12,1.8.22.17,0,.15-.07,1.73-.69.91-.17.47,1.36L35,93l0,0,.93,1.6.64,1.7,0,.09,0,0,1.12,1.48.56,1.73.08.24.21,0,1.57.39,0,0h0c1.06,0,2.11.09,3.16.15l1.34.6,1,1.56v0h0l1.38,1.43.7,1.88h0l1.13,1.61-1-1.67L47.32,104v0l0,0L46,102.47l-.92-1.68,0-.05-.07,0L43.57,100l0,0h-.06c-1-.13-2.11-.24-3.15-.34l-1.27-.4-.43-1.64,0-.07,0-.08-1-1.51L37,94.15v0l0-.06-.81-1.6-.24-.88,1.07.27.16,0,.17,0,2.08-.5.24-.06.15-.2L41,89.55l.08-.1,0-.13L41.44,88l0-.13V87.7l-.23-1.86,0-.25L41,85.42l-1.33-1.26-.07-1,1.07-.12.14,0L41,83l1.3-.79,1.6.7.27.12.26-.12,1.43-.7,1.61.26.16,0,.15,0,1.78-.67.16-.06.1-.13L51,80l1.41-1.1.18-.14,0-.2.25-1.93L54.46,76l.22-.09,0-.21.13-.57a19.16,19.16,0,0,0,18.91,1.06l0,.09.14.23.13.21,1,1.69.42.67.37-.73,1-2,1.81.63.49.16.2-.49L80.08,75l1-.61.8,1.24v0l0,0,1,1.22.42,1.63.06.21.18.14,1.33,1L85,80,85,80l1.82.77.1,0h.11L89,81h.19l.17-.09,1.57-.83,1,.55.74.79L92.4,82.7l0,.11v.1l.2,1.65v0l.29,1.45-.57,1.36-.62,1.46,1.47-.59,1-.41,1.2.94.32.25.35-.16,1.49-.7,1.35-.75,1.58-.46.27-.08.11-.23.73-1.55.64-.23L102,86l-.07.36.29.17,1.71,1,.37,1.34-.16,1.79,0,.28.24.1,1.75.74h.07l1.78.3,1.36,1.15.06,0h.07c1.18,0,2.35,0,3.53.08l1.61,1L113,93.27h0c-1.15-.14-2.31-.23-3.46-.32l-1.29-1.24,0,0h-.08l-1.77-.43-1.43-.68.21-1.61v-.06l0-.08-.37-1.6,0-.16-.16-.11-1.51-1,.44-1.67.24-.92-.93.28-1.8.55-.22.07-.11.22-.76,1.49-1.4.39-.07,0-.06,0-1.42.76-1.06.48-1.18-1-.29-.24-.25.1,0-.09.08-.19,0-.2-.31-1.62-.16-1.52.33-1.53.08-.36-.25-.26-1-1.06.47-1.43.83-1.45.88-1.39,1.49-.94,1.61-.68,2-.12.24,0,.15-.18,1.09-1.29,1.37-.72.43-.23-.19-.42-.59-1.34.32-1.56,0-.21-.12-.16-1-1.32-.21-1.28,1.6-.16,1.89,0h.13l.1-.08L107,63.51l1.64-.13h1.61l.92.9.32,1.57v.06l0,0,1,1.31.07,1.69V69l0,0,1.27,1.52,1.13,1.6,1,1.66.16.26,0-.3.27-1.9L118,70.44h0v0l.17-2,1.65-1.33L118.1,68.4h0l-.23,2-1.43,1.39,0,0v0l-.27,1.62L115.28,72l-1.09-1.64h0L113,68.84l0-1.7v-.07l0,0-1-1.35-.28-1.6,0-.08-.06-.06-1-1.06-.08-.09h-1.66a1.76,1.76,0,0,0-.23,0l-1.75.09h-.1l-.09.07-1.51,1.15L103.32,64h0l-2.08.15-.43,0,.06.44.25,1.83v.1l.07.09.9,1.25-.34,1.51,0,.14.06.15.43,1-1.07.53-.09,0-.07.08-1,1.15-1.84.07H98l-.1,0-1.76.7h0l0,0-1.68,1-.12.06-.08.13-1,1.48-1,1.54,0,.05,0,.08-.42,1.19-.48-.25-.34-.18-.32.18-1.72.93-1.59-.09-1.65-.67L84.51,78l-.42-1.53,0-.13-.07-.1-1-1.29-1.13-1.7-.33-.49-.5.31-1.68,1-.18.11-.06.18-.51,1.42-1.74-.52-.43-.13-.18.39-.77,1.71-.66-1-.14-.21-.12-.19,0,0a19.29,19.29,0,0,0,4.08-31L79,44.7l1.43,1.09.2.16.22-.15,1.64-1.06,1.45-.52,2.31,1.12,1.23.59-.65-1.21-1.17-2.19L86.77,41l.25-.35-.3-.3L85.3,38.91l.14-1.47v-.15l-.07-.15-.74-1.5.23-1.54,1.54.56,1.46.92.19.12.23,0,1.57-.24,1.33.8.14.09h2l.13-.06L95,35.61l.38.4-.5,1.08,1.53.67.46,1.34.68,1.62,0,.06,0,0,.92,1.41,0,0,0,0,1.29,1.49.35.4.42-.31,1.75-1.28,0,0h0l1.33-1.14,1.69.07h1.71l1.11,1.43.1.12.13,0,1.84.45.25.06.15-.2,1-1.27,1.5-.32h.06l.05,0,1.35-.8h0l0,0,1.06-.93.89,1.32.34,1.87v.05l0,0,1.13,1.44.51,1.79v0l0,0,1.2,1.79.05.09.1,0,1.88-.53h0l0,0,1.09-1.57h1.7l1.42-.77,1.59-.33-1.6.28h0l-1.44.72-1.7-.07h0l0,0-1.14,1.54-1.77.44L119,46.38l-.46-1.82v0l0,0L117.42,43l-.28-1.88v0l0-.05-1-1.67-.17-.27-.26.21-1.31,1.08-1.31.72-1.6.29-.13,0-.08.11-.93,1.14-1.43-.4-1.12-1.53-.12-.18h-2.12l-1.9-.13h-.19l-.16.13-1.49,1.2-1.33.92-.89-1.08-.82-1.35-.58-1.53-.52-1.64-.09-.27-.27-.14-.58-.27.07-.13.7-1.17.15-.25-.09-.29L97,33.07l1.18-1.25.32-.35-.22-.42-.74-1.42,1.32-1.15.26-.22,0-.35L99,26.21l.11-1,.36-.09.4-.1.21-.06.24-.07,1.21-.39,1.32,1.24.45.42.47-.38,1.41-1.14,1.24.73.06,0,.05,0,1.68.6.23.08.23-.08,1.74-.63.07,0,.05,0,1-.58,2.58.19.88.07-.19-.86-.56-2.53.87-1.44,0-.05,0,0,.63-1.7,1.68-1.12,1.94.51,1.3.88,1,1.56,0,.06,0,0,1.16,1.21.48,2.21.06.28.25.1,1.71.72.17.07.16,0,2.23-.56.33,2,0,.21.17.1,1.56.95h0l1.74.89.19.09.17-.09,1.89-.92.12-.06.05-.11.8-1.54,1.44-1ZM81.8,58.89a16.54,16.54,0,0,1-8.47,14.42L73.25,73v0h0l-.77-1.51v0h0l-1-1.39,0,0,0,0-1.58-.86-.25-1.8v0l0,0-1.33-1.11,1.2,1.2.11,1.87v.07l.07,0,1.54,1L72,71.71l.66,1.51.1.4a16.42,16.42,0,0,1-16.47-.86l.11-.11,1.71-.84.1,0,.05-.09.82-1.61,1.63-.9,0,0,0,0,1.17-1.39,1.4-1.2h0l1-1.51-1.15,1.41-1.49,1.1h0l-1.23,1.3-1.73.81-.07,0,0,.08-.91,1.53L56,72l0,0-.05,0-.27.24A16.48,16.48,0,0,1,54.3,46.54l.22.42,0,.07.06,0,1.56.94-.37,2.17,0,.11.08.06,1.44,1.12.24,1.86v0l0,0,1.3,1.25L60,56,59,54.57h0l-1.2-1.3-.15-1.9v0l0,0-1.34-1.14.47-2.2,0-.15-.13-.09L55,46.65l-.24-.52a16.47,16.47,0,0,1,20.55-.36l-.78.25-.27.08.1.25.9,2.21-1.68.83-.06,0,0,.07c-.34,1.07-.65,2.17-.9,3.26l-1.37,1.13,0,0v0l0,1.85.12-1.83,1.44-1.07h0v0l.49-1.64.52-1.53,1.82-.82.17-.08-.06-.18-.79-2.15.93-.25A16.54,16.54,0,0,1,81.8,58.89Z"/></g></g></svg>