<?xml version="1.0" encoding="utf-8"?>
<!-- Generator: Adobe Illustrator 28.0.0, SVG Export Plug-In . SVG Version: 6.00 Build 0)  -->
<svg version="1.1" id="Layer_1" xmlns="http://www.w3.org/2000/svg" xmlns:xlink="http://www.w3.org/1999/xlink" x="0px" y="0px"
	 viewBox="0 0 177 177" style="enable-background:new 0 0 177 177;" xml:space="preserve">
<style type="text/css">
	.st0{fill:#866BC6;}
	.st1{fill:#6633CC;}
	.st2{fill:none;stroke:#866BC6;stroke-width:2.45;stroke-miterlimit:10;}
</style>
<g>
	<g id="Слой_2">
		<g id="Слой_3">
			
				<image style="overflow:visible;opacity:0.45;enable-background:new    ;" width="100" height="133" xlink:href="2C2E5483.png"  transform="matrix(0.99 0 0 0.99 37.51 25.675)">
			</image>
			<polygon class="st0" points="111,38.8 98.8,93.2 81.3,76.7 85.6,121.8 86.9,134.7 87.4,140 87.9,142.4 88.9,140.1 90.8,99.7 
				108.6,116.8 			"/>
			<polygon class="st1" points="50.7,107.4 80.9,138.4 82.7,140.5 84.7,141.8 82.5,138.8 66.2,116.2 84.4,119.4 53.2,77.8 
				68.4,110.2 			"/>
			<polygon class="st0" points="80.2,143.2 82,143.5 82.2,143.4 80.8,143 69.9,139.9 76.2,136.7 55.8,131.2 69,137.5 62.8,140.7 			
				"/>
			<polygon class="st1" points="123.5,114.3 105.5,131.4 100.4,120.2 90.9,142.6 90.4,143.8 92.1,143.2 93.4,141.7 100.1,131.6 
				105.2,143.1 			"/>
			
				<image style="overflow:visible;opacity:0.75;enable-background:new    ;" width="178" height="178" xlink:href="2C2E5481.png"  transform="matrix(0.9944 0 0 0.9944 0 0)">
			</image>
			<circle class="st2" cx="88.6" cy="88.4" r="75.2"/>
		</g>
	</g>
</g>
</svg>
