<svg xmlns="http://www.w3.org/2000/svg" viewBox="0 0 72.77 105.04"><defs><style>.cls-1{fill:#866bc6;}.cls-2{fill:#63c;}</style></defs><title>Ресурс 20</title><g id="Слой_2" data-name="Слой 2"><g id="Слой_1-2" data-name="Слой 1"><polygon class="cls-1" points="60.31 0 48.12 54.4 30.57 37.94 34.94 83 36.19 95.92 36.7 101.2 37.18 103.61 38.21 101.33 40.09 60.86 57.9 78.02 60.31 0"/><polygon class="cls-2" points="0 68.58 30.21 99.59 31.99 101.72 33.96 102.95 31.82 100 15.47 77.44 33.69 80.58 2.52 39.01 17.74 71.44 0 68.58"/><polygon class="cls-1" points="29.53 104.43 31.3 104.69 31.55 104.6 30.13 104.19 19.19 101.06 25.54 97.89 5.08 92.37 18.29 98.74 12.16 101.89 29.53 104.43"/><polygon class="cls-2" points="72.77 75.53 54.79 92.63 49.7 81.41 40.25 103.82 39.73 105.04 41.42 104.38 42.68 102.89 49.39 92.78 54.48 104.35 72.77 75.53"/></g></g></svg>