<svg xmlns="http://www.w3.org/2000/svg" viewBox="0 0 84.6 114.82"><defs><style>.cls-1{fill:#866bc6;}.cls-2{fill:#1e1e1e;}.cls-3{fill:#63c;}</style></defs><title>Ресурс 21</title><g id="Слой_2" data-name="Слой 2"><g id="Слой_1-2" data-name="Слой 1"><path class="cls-1" d="M72.81,0s2.92,20.14-18.64,29.66c0,0-20.31,5.2-19.68,23.82,0,0-8-13,.72-34.1,0,0-24,20.86-19,46-2-3.81-6.39-8.14-16.2-8.14,0,0,9.77,3.86,8.48,16.5,0,0-3.89,25.92,25.34,39.28A14.24,14.24,0,0,0,47,112.42c9.62-5.69,26.49-19.11,25-42.81,0,0-8.19,12.93-15.09,13.83,0,0,.58-12,17.54-27C74.45,56.39,98.36,32.48,72.81,0Z"/><path class="cls-2" d="M50.21,99s-5-13.12,1.47-21c0,0,14.56-15.64,2.49-26.54,0,0,3.89,9-7.77,15.49,0,0-9.66,3.65-9.29,14.54,0,0-4.66-7.6.42-19.93,0,0-14,12.19-11.11,26.91-1.16-2.23-3.74-4.76-9.47-4.76,0,0,5.71,2.26,5,9.64a21.58,21.58,0,0,0,5.4,16.2A57.39,57.39,0,0,0,35.94,114a10.66,10.66,0,0,0,9.17-.51A62.65,62.65,0,0,0,54,107.62,24.34,24.34,0,0,0,59,90.93S54.25,98.49,50.21,99Z"/><path class="cls-3" d="M45.23,113.4a11.51,11.51,0,0,0,2.68-8.22s-2.26,3.56-4.15,3.81c0,0-2.34-6.18.68-9.89,0,0,5.46-6.87-.33-13.84,0,0,2.63,6.15-3,8.49a7.44,7.44,0,0,0-3.49,7s-2.19-3.58.2-9.38c0,0-6.61,5.74-5.23,12.66-.55-1-1.76-2.24-4.46-2.24a4.21,4.21,0,0,1,2.33,4.54A10,10,0,0,0,31.61,112c1.42.72,2.94,1.41,4.54,2.07a10.26,10.26,0,0,0,8.77-.49Z"/></g></g></svg>