<svg xmlns="http://www.w3.org/2000/svg" viewBox="0 0 116.97 112"><defs><style>.cls-1{fill:#866bc6;}.cls-2{fill:#63c;}</style></defs><title>Ресурс 19</title><g id="Слой_2" data-name="Слой 2"><g id="Слой_1-2" data-name="Слой 1"><path class="cls-1" d="M38,91a10.93,10.93,0,0,1-6-5.75A23.52,23.52,0,0,1,38,91Z"/><path class="cls-1" d="M79.67,94.26A33.81,33.81,0,0,1,46,95.76,44.45,44.45,0,0,0,79.67,94.26Z"/><path class="cls-1" d="M98.93,54.17a23.8,23.8,0,0,1-.77,16.6C99.51,56.35,98.73,59.25,98.93,54.17Z"/><path class="cls-1" d="M76.16,25.52A29.17,29.17,0,0,1,93.57,40.28,57.32,57.32,0,0,0,76.16,25.52Z"/><path class="cls-1" d="M26.72,44.48a32.71,32.71,0,0,1,22.49-20A46.7,46.7,0,0,0,26.72,44.48Z"/><path class="cls-1" d="M32.72,77.18a9.71,9.71,0,0,1-3-6.74A20.76,20.76,0,0,1,32.72,77.18Z"/><path class="cls-1" d="M65.84,94A30,30,0,0,1,37.68,83.8,39.42,39.42,0,0,0,65.84,94Z"/><path class="cls-1" d="M95.2,67.61A21.13,21.13,0,0,1,89,81,95.51,95.51,0,0,0,95.2,67.61Z"/><path class="cls-1" d="M86.21,36.4a25.87,25.87,0,0,1,9.29,18A50.88,50.88,0,0,0,86.21,36.4Z"/><path class="cls-1" d="M39.23,35.2a29,29,0,0,1,25.22-8.79A41.48,41.48,0,0,0,39.23,35.2Z"/><path class="cls-2" d="M81.91,72.39c-1,3.26-3.58,5.93-6.56,4.6-4.42,5-14.86,4.74-18.91-.3C50,78.8,42.5,75.5,41.93,70c-6.39-5.55-3.78-15.41,4.48-17.66a10,10,0,0,1,6.51-4.66c3.13-8.87,15.7-10.85,21.67-3.24A11.25,11.25,0,0,1,85.4,48.68c0-20.62-52.68-18.29-52.68,12.06,0,27.31,40.78,38.55,53.15,11.05A12.16,12.16,0,0,1,81.91,72.39Z"/><path class="cls-1" d="M49.21,69.31C38.94,74.59,13.37,86.05,0,91,13.66,84,39.35,73,49.21,69.31Z"/><path class="cls-1" d="M8.88,36.4A292,292,0,0,1,43.2,50.94,294.42,294.42,0,0,1,8.88,36.4Z"/><path class="cls-1" d="M8.88,56.59A326.91,326.91,0,0,1,48,60.74,327.12,327.12,0,0,1,8.88,56.59Z"/><path class="cls-1" d="M64.45,73.81A376.66,376.66,0,0,1,82.32,112,388.91,388.91,0,0,1,64.45,73.81Z"/><path class="cls-1" d="M56.44,76.69A255.77,255.77,0,0,1,46,109.93,258.38,258.38,0,0,1,56.44,76.69Z"/><path class="cls-1" d="M82.32,62.47a253.59,253.59,0,0,1,34.65,0A253.59,253.59,0,0,1,82.32,62.47Z"/><path class="cls-1" d="M73.39,49.78A260.66,260.66,0,0,1,99.64,26.33,263.13,263.13,0,0,1,73.39,49.78Z"/><path class="cls-1" d="M62.82,49.78C60.42,38.92,56.25,12.91,55.08,0,57.87,12.58,61.81,38.65,62.82,49.78Z"/><path class="cls-1" d="M28.43,21.33A100.52,100.52,0,0,1,42.34,38.05,100,100,0,0,1,28.43,21.33Z"/><path class="cls-1" d="M111,47.7A112.51,112.51,0,0,1,89,54.17,112.27,112.27,0,0,1,111,47.7Z"/><path class="cls-1" d="M100,96.61A83.85,83.85,0,0,1,84.87,83.8,83.84,83.84,0,0,1,100,96.61Z"/><path class="cls-1" d="M8.88,67.61a54.63,54.63,0,0,1,15.7-3A54.33,54.33,0,0,1,8.88,67.61Z"/><path class="cls-2" d="M100,73.81c0,1.17.61,22.89-32,28.75a15,15,0,0,0,10.67.54c5.81-1.91,6.73-3.55,6.73-3.55s7.24,0,9.84-2.65,3.27-7.77,3.27-7.77,3.22-1.2,4.3-6.59,0-5.85,0-5.85,2.19-2,.48-5.92S100,73.81,100,73.81Z"/><path class="cls-2" d="M79.67,20.48s12,5.7,15.83,14c0,0,.11-7.42-1.93-10.81s.93-4.78-2.71-6.94-7.81.77-7.81.77-4.85-2.66-9.66-1.56S68,18,68,18Z"/><path class="cls-2" d="M20.26,50.13A9.08,9.08,0,0,0,16.73,57v5.44S14,63.89,14,68.51s1,4.32,1,4.32-1.7,1.23-.62,6.07,8.53,6.35,8.53,6.35a10.11,10.11,0,0,0,5.55,2.88C21.54,79.07,20.16,61.62,20.26,50.13Z"/></g></g></svg>