<svg xmlns="http://www.w3.org/2000/svg" xmlns:xlink="http://www.w3.org/1999/xlink" viewBox="0 0 416.64 417"><defs><style>.cls-1,.cls-5,.cls-6{fill:none;}.cls-2{clip-path:url(#clip-path);}.cls-3{opacity:0.25;}.cls-4{fill:#303030;}.cls-5,.cls-6{stroke:#303030;stroke-miterlimit:10;}.cls-5{stroke-width:6.67px;}.cls-6{stroke-width:3.62px;}</style><clipPath id="clip-path" transform="translate(0 0)"><rect class="cls-1" x="6.66" y="110.26" width="406" height="180" rx="13.15"/></clipPath></defs><title>Ресурс 35</title><g id="Слой_2" data-name="Слой 2"><g id="Слой_1-2" data-name="Слой 1"><g class="cls-2"><g class="cls-3"><path class="cls-4" d="M350,303.39a22.36,22.36,0,0,0-.4,6c.11,1.91.84,3.76,2.43,4.44a3.68,3.68,0,0,0,2.52.27,1.63,1.63,0,0,1,1.26.19,1.15,1.15,0,0,1,.45.72,1.59,1.59,0,0,1,0,.58,3.06,3.06,0,0,0-.07.58.91.91,0,0,0,.17.42,3,3,0,0,0,1,.79,1.18,1.18,0,0,1,.25.19.67.67,0,0,1,.18.31,2.11,2.11,0,0,1,.07.3l0,.2c0,.26,0,.52,0,.79a8.3,8.3,0,0,1-.61,3.05,11.52,11.52,0,0,0-.1-3c-.07-.44-.22-1.14-.29-1a3.7,3.7,0,0,1-1.46-.9,2,2,0,0,1-.5-.93,3.12,3.12,0,0,1,0-.94.54.54,0,0,0,0-.17s0,.07.05.09,0,0-.21.08a5,5,0,0,1-3.42-.3,5,5,0,0,1-2.4-2.5,7.38,7.38,0,0,1-.54-3.24A13.57,13.57,0,0,1,350,303.39Z" transform="translate(0 0)"/><path class="cls-4" d="M360.5,308.52a12.16,12.16,0,0,0,.4,2.64,2.92,2.92,0,0,0,.59,1.06,9.2,9.2,0,0,1,.9,1.07,4.8,4.8,0,0,1,.66,2.84,6.52,6.52,0,0,1-.83,2.68,14.46,14.46,0,0,0,.15-2.68,5.18,5.18,0,0,0-.72-2.38,12.71,12.71,0,0,0-.82-1,3.24,3.24,0,0,1-.59-1.39A6.12,6.12,0,0,1,360.5,308.52Z" transform="translate(0 0)"/><path class="cls-4" d="M360.56,330.52c.23-1.11.49-2.22.79-3.32a14.89,14.89,0,0,1,1.15-3.34,5,5,0,0,1,1.32-1.51c.5-.41,1-.7,1.4-1a12.9,12.9,0,0,0,2.25-2.1,7.18,7.18,0,0,0,1.38-2.52,5.25,5.25,0,0,0,0-2.7,3.82,3.82,0,0,0-1.37-2.21,3.51,3.51,0,0,0-.57-.38,4.82,4.82,0,0,1-.87-.52,2.73,2.73,0,0,1-1.08-2l.91.61c-.64.05-1.32.75-2,1.46a5,5,0,0,1-1.23,1,2,2,0,0,1-1.51.24,2,2,0,0,0,1.23-.63,5.69,5.69,0,0,0,.82-1.11,11,11,0,0,1,.85-1.29,3.28,3.28,0,0,1,1.47-1.06l.67-.22.25.84a1.36,1.36,0,0,0,.61.79,5.87,5.87,0,0,0,.63.25,5.4,5.4,0,0,1,3.33,3.66,7,7,0,0,1,0,4,8.6,8.6,0,0,1-1.9,3.33,12.25,12.25,0,0,1-2.85,2.31c-.52.33-1,.57-1.45.82a3.35,3.35,0,0,0-1,.89,20.7,20.7,0,0,0-1.61,2.82C361.72,328.56,361.16,329.54,360.56,330.52Z" transform="translate(0 0)"/><path class="cls-5" d="M411,242.56A204.44,204.44,0,0,1,343.66,363a55.91,55.91,0,1,0-107,26.52,55.58,55.58,0,0,0,14.43,19.75A205.81,205.81,0,0,1,103.49,384.7,55.92,55.92,0,1,0,30.83,311,204.36,204.36,0,0,1,6.24,174.22c.63-3.74,1.36-7.41,2.19-11.06a55.91,55.91,0,1,0,47.51-92A205.6,205.6,0,0,1,190.64,3.9a55.11,55.11,0,0,0-7,17.29,55.9,55.9,0,1,0,109.13-.08,205.72,205.72,0,0,1,104.72,106.8,55.9,55.9,0,1,0,15.21,102.43C412.25,234.39,411.67,238.47,411,242.56Z" transform="translate(0 0)"/><path class="cls-4" d="M387.4,284.62a4.72,4.72,0,0,0,.78-2.32,2.23,2.23,0,0,0-.52-2,3.27,3.27,0,0,0-.87-.5c-.09,0-.06,0-.2.08a3.33,3.33,0,0,0-.4.36,6.09,6.09,0,0,0-1.17,2c-.32.75-.61,1.58-1,2.37a13.85,13.85,0,0,1-1.42,2.21,12,12,0,0,1-1.81,1.9,2.65,2.65,0,0,1-2.5.61,2.6,2.6,0,0,0,2.11-1,18.3,18.3,0,0,0,1.46-2,22.94,22.94,0,0,0,2.1-4.51,7,7,0,0,1,1.47-2.34A5.39,5.39,0,0,1,386,279a1.29,1.29,0,0,1,1-.2,2.12,2.12,0,0,1,.74.38,5.31,5.31,0,0,1,.54.46,2.2,2.2,0,0,1,.62,1.4,3.91,3.91,0,0,1-.16,1.38A4,4,0,0,1,387.4,284.62Z" transform="translate(0 0)"/><path class="cls-4" d="M384.29,282a3.32,3.32,0,0,0,0-3.15,1.89,1.89,0,0,0-1.07-.89c-.36-.08-.7.19-.9.6s-.3,1-.5,1.57a16.69,16.69,0,0,1-.66,1.65,16.48,16.48,0,0,1-1.88,3,15,15,0,0,1-2.55,2.49,6.57,6.57,0,0,1-3.38,1.39,10.53,10.53,0,0,1-1.78,0,4.81,4.81,0,0,1-1.78-.42,7.79,7.79,0,0,1-1.4-1.09l-.65-.57-.32-.29a.86.86,0,0,1-.15-.17s0-.1,0-.11.09,0,0,.07,0-.06,0-.05,0,.05,0,.07a.74.74,0,0,0,.17.12l.37.22.72.46a7.54,7.54,0,0,0,1.45.81,4.29,4.29,0,0,0,1.58.18,12.47,12.47,0,0,0,1.65-.11,6,6,0,0,0,2.81-1.36,14.22,14.22,0,0,0,2.3-2.35,15.82,15.82,0,0,0,1.81-2.76c.25-.49.49-1,.69-1.51a14.14,14.14,0,0,1,.66-1.65,2.15,2.15,0,0,1,.75-.78,1.44,1.44,0,0,1,1.15-.13,2.47,2.47,0,0,1,1.38,1.37A3.44,3.44,0,0,1,384.29,282Z" transform="translate(0 0)"/><path class="cls-4" d="M367.52,272.08a21.83,21.83,0,0,1,5.83,3.68,42.35,42.35,0,0,1,4.89,4.86,56.67,56.67,0,0,1,4.16,5.5c.62,1,1.22,1.94,1.81,2.92s1.1,2,1.6,3l-4.16-5.43c-1.41-1.77-2.8-3.57-4.3-5.26s-3-3.38-4.61-5c-.81-.78-1.64-1.55-2.5-2.28A22.93,22.93,0,0,0,367.52,272.08Z" transform="translate(0 0)"/><path class="cls-4" d="M370.74,281.22a3.94,3.94,0,0,1-3.15-3.32c.63.55,1.1,1.1,1.62,1.63S370.23,280.58,370.74,281.22Z" transform="translate(0 0)"/><path class="cls-4" d="M208.79,406.82a7.21,7.21,0,0,1-1.2-4.81,7.54,7.54,0,0,1,2.17-4.65l.4.91a2.42,2.42,0,0,1-1.76-.65,8.14,8.14,0,0,1-1.1-1.2,11.57,11.57,0,0,1-1.58-2.72,12.33,12.33,0,0,1-.93-6.18l1.07.47a14,14,0,0,0-1.7,2.88,5.24,5.24,0,0,1-2.73,2.61,3.58,3.58,0,0,1-1.92,0c-.56-.1-1.06-.13-1.34.23a1.76,1.76,0,0,0-.08,1.5,3.83,3.83,0,0,1,.31,1.73,4.28,4.28,0,0,0-.56-1.63,2.09,2.09,0,0,1-.09-1.88,1.32,1.32,0,0,1,.88-.61,2.93,2.93,0,0,1,1,0,2.87,2.87,0,0,0,1.54-.13,4.42,4.42,0,0,0,2-2.3,14,14,0,0,1,1.76-3.2l1.24-1.47-.17,1.94a12.24,12.24,0,0,0,.86,5.58,13.16,13.16,0,0,0,1.38,2.49c.54.78,1.21,1.53,1.84,1.51l1.52-.06-1.13,1a7.09,7.09,0,0,0-2.23,4A7.5,7.5,0,0,0,208.79,406.82Z" transform="translate(0 0)"/><path class="cls-4" d="M210.26,393.94c-1.34.93-2.76,1.57-4,2.42a11.28,11.28,0,0,0-3.28,3.15,4.53,4.53,0,0,1,.94-2.26,7.09,7.09,0,0,1,1.81-1.69A11.12,11.12,0,0,1,210.26,393.94Z" transform="translate(0 0)"/><path class="cls-4" d="M207.88,390a3.24,3.24,0,0,1,1.54-3.43c-.23.65-.49,1.18-.73,1.73S208.21,389.44,207.88,390Z" transform="translate(0 0)"/><path class="cls-4" d="M132,387a4.6,4.6,0,0,0,2.33.78,2.19,2.19,0,0,0,2-.52,3.1,3.1,0,0,0,.5-.86c0-.09,0-.06-.08-.2a4.36,4.36,0,0,0-.35-.4,6.09,6.09,0,0,0-2-1.17c-.75-.32-1.59-.62-2.37-1a13.42,13.42,0,0,1-2.21-1.42,12.57,12.57,0,0,1-1.9-1.82,2.62,2.62,0,0,1-.6-2.5,2.6,2.6,0,0,0,1,2.11,15.3,15.3,0,0,0,2,1.46,22.39,22.39,0,0,0,4.5,2.12,6.93,6.93,0,0,1,2.33,1.47,5.39,5.39,0,0,1,.45.59,1.3,1.3,0,0,1,.2,1,2.15,2.15,0,0,1-.38.73,7,7,0,0,1-.46.54,2.2,2.2,0,0,1-1.4.62A4.67,4.67,0,0,1,132,387Z" transform="translate(0 0)"/><path class="cls-4" d="M134.65,383.92a3.33,3.33,0,0,0,3.14.05,1.81,1.81,0,0,0,.9-1.07.86.86,0,0,0-.6-.89c-.41-.19-1-.31-1.57-.51a13.75,13.75,0,0,1-1.64-.67,15.64,15.64,0,0,1-3-1.88,15.41,15.41,0,0,1-2.49-2.55A6.63,6.63,0,0,1,128,373a11.8,11.8,0,0,1,0-1.79,4.83,4.83,0,0,1,.43-1.78,7.69,7.69,0,0,1,1.09-1.4l.57-.64.29-.32a.63.63,0,0,1,.17-.15s.1,0,.11,0-.05.1-.07,0,.06,0,0,0,0,0-.07,0a.52.52,0,0,0-.12.16l-.22.37-.47.73a7.79,7.79,0,0,0-.81,1.45,4.46,4.46,0,0,0-.18,1.57,14.48,14.48,0,0,0,.1,1.65,6.1,6.1,0,0,0,1.36,2.81A15.1,15.1,0,0,0,132.6,378a15.65,15.65,0,0,0,2.77,1.8,14.55,14.55,0,0,0,1.5.7,12.82,12.82,0,0,1,1.66.67,2,2,0,0,1,.76.75,1.42,1.42,0,0,1,.14,1.14,2.46,2.46,0,0,1-1.38,1.38A3.44,3.44,0,0,1,134.65,383.92Z" transform="translate(0 0)"/><path class="cls-4" d="M144.58,367.17a21.82,21.82,0,0,1-3.69,5.82,41.65,41.65,0,0,1-4.88,4.88,53.79,53.79,0,0,1-5.5,4.14c-1,.63-1.94,1.22-2.93,1.81s-2,1.1-3,1.6l5.44-4.15c1.78-1.41,3.57-2.79,5.27-4.29s3.39-3,5-4.6c.78-.82,1.56-1.64,2.29-2.5A22.82,22.82,0,0,0,144.58,367.17Z" transform="translate(0 0)"/><path class="cls-4" d="M135.43,370.37a3.94,3.94,0,0,1,3.33-3.14c-.56.62-1.1,1.09-1.63,1.61S136.08,369.85,135.43,370.37Z" transform="translate(0 0)"/><path class="cls-4" d="M187.25,401.53c-3.85-3.47-7.51-7.11-11.15-10.78s-7.18-7.44-10.66-11.25l1.52-.71c.23,1.81.41,3.64.61,5.46s.35,3.65.53,5.47c.31,3.65.6,7.31.75,11-.78-3.59-1.41-7.2-2-10.82-.28-1.81-.59-3.62-.85-5.43s-.54-3.62-.78-5.44l-.33-2.67,1.86,2c3.57,3.74,7.06,7.54,10.51,11.39S184.05,397.45,187.25,401.53Z" transform="translate(0 0)"/><path class="cls-4" d="M173.28,392.42c-1.85,1.35-3.76,2.59-5.7,3.76s-3.93,2.29-5.94,3.35l-.72.37.16-.76c.18-.82.36-1.64.56-2.45s.41-1.63.66-2.44c0,.84-.12,1.68-.19,2.52s-.18,1.67-.29,2.5l-.55-.39c1.92-1.21,3.89-2.35,5.88-3.44S171.18,393.33,173.28,392.42Z" transform="translate(0 0)"/><path class="cls-4" d="M41.33,240.68a22.48,22.48,0,0,0-3.92-4.52c-1.43-1.27-3.25-2.07-4.86-1.44a3.66,3.66,0,0,0-2,1.59,1.62,1.62,0,0,1-1,.75,1.17,1.17,0,0,1-.83-.19,1.75,1.75,0,0,1-.41-.41A3.45,3.45,0,0,0,28,236a.86.86,0,0,0-.42-.18,3,3,0,0,0-1.29.17,1.18,1.18,0,0,1-.31,0,.69.69,0,0,1-.35-.1,2,2,0,0,1-.26-.16l-.15-.13a7.41,7.41,0,0,1-.58-.54,8.25,8.25,0,0,1-1.72-2.59,11.14,11.14,0,0,0,2.19,2c.36.27,1,.66.9.51a3.89,3.89,0,0,1,1.68-.39,2.08,2.08,0,0,1,1,.31,3.22,3.22,0,0,1,.65.67.56.56,0,0,0,.13.11s-.06,0-.1,0,0,0,.1-.2a4.88,4.88,0,0,1,6.1-2.11,7.41,7.41,0,0,1,2.67,1.91A13.62,13.62,0,0,1,41.33,240.68Z" transform="translate(0 0)"/><path class="cls-4" d="M30.28,244.43a12.21,12.21,0,0,0-2.14-1.59A3,3,0,0,0,27,242.5a7.93,7.93,0,0,1-1.4-.13,4.71,4.71,0,0,1-2.47-1.54,6.44,6.44,0,0,1-1.3-2.48,15,15,0,0,0,1.78,2,5,5,0,0,0,2.19,1.17,11.52,11.52,0,0,0,1.32.17,3.32,3.32,0,0,1,1.39.56A6.13,6.13,0,0,1,30.28,244.43Z" transform="translate(0 0)"/><path class="cls-4" d="M14.73,228.86c.62.95,1.22,1.93,1.78,2.92A15.39,15.39,0,0,1,18.05,235a5,5,0,0,1,.13,2c-.07.64-.2,1.19-.29,1.7a12.2,12.2,0,0,0-.11,3.07,7.24,7.24,0,0,0,.79,2.76,5.22,5.22,0,0,0,1.87,1.95,3.86,3.86,0,0,0,2.53.61,4,4,0,0,0,.67-.14,5.4,5.4,0,0,1,1-.24,2.73,2.73,0,0,1,2.19.66l-1.08.21a4,4,0,0,0,.39-2.45,5.11,5.11,0,0,1,.19-1.55,2.09,2.09,0,0,1,.9-1.24,2,2,0,0,0-.43,1.31A5.81,5.81,0,0,0,27,245a10.73,10.73,0,0,1,.31,1.52,3.25,3.25,0,0,1-.3,1.79l-.31.62-.77-.42a1.36,1.36,0,0,0-1-.12,4.72,4.72,0,0,0-.62.26,5.54,5.54,0,0,1-.95.34,5.9,5.9,0,0,1-4-.59,6.89,6.89,0,0,1-2.82-2.79,8.52,8.52,0,0,1-1-3.7,12.66,12.66,0,0,1,.39-3.65c.14-.59.34-1.13.46-1.6a3.23,3.23,0,0,0,.09-1.35,20.19,20.19,0,0,0-.84-3.14C15.29,231.08,15,230,14.73,228.86Z" transform="translate(0 0)"/><path class="cls-4" d="M28.05,280.34a4.58,4.58,0,0,0,1.09,2.2,2.21,2.21,0,0,0,1.77,1,3.41,3.41,0,0,0,1-.26c.06-.06.05,0,.08-.2a3,3,0,0,0,0-.53,6,6,0,0,0-.58-2.23c-.3-.76-.68-1.56-.94-2.41a13.24,13.24,0,0,1-.56-2.57,12.06,12.06,0,0,1-.05-2.62,2.63,2.63,0,0,1,1.34-2.2,2.63,2.63,0,0,0-.77,2.22,17.08,17.08,0,0,0,.38,2.45,23.23,23.23,0,0,0,1.68,4.68,6.75,6.75,0,0,1,.6,2.69,4.82,4.82,0,0,1-.09.74,1.31,1.31,0,0,1-.57.85,2.29,2.29,0,0,1-.79.25c-.22,0-.45.05-.71.05a2.22,2.22,0,0,1-1.43-.55,4.39,4.39,0,0,1-.86-1.09A4.06,4.06,0,0,1,28.05,280.34Z" transform="translate(0 0)"/><path class="cls-4" d="M32.11,280a3.33,3.33,0,0,0,2.19,2.26,1.86,1.86,0,0,0,1.39-.12.89.89,0,0,0,.21-1.06c-.15-.42-.5-.93-.75-1.47a15.61,15.61,0,0,1-.69-1.63,15.78,15.78,0,0,1-.79-3.46,14.63,14.63,0,0,1,0-3.56,6.68,6.68,0,0,1,1.41-3.37,11.39,11.39,0,0,1,1.29-1.23,4.6,4.6,0,0,1,1.56-1,7.85,7.85,0,0,1,1.76-.22l.86,0,.43,0a.91.91,0,0,1,.23,0s.08.06.05.1-.1,0-.08,0,.06,0,.07,0a.06.06,0,0,0,0-.05,1,1,0,0,0-.21,0l-.41.1-.85.18a8,8,0,0,0-1.59.45,4.3,4.3,0,0,0-1.25,1,13.54,13.54,0,0,0-1.09,1.23,6.08,6.08,0,0,0-1,3,15,15,0,0,0,0,3.28,15.57,15.57,0,0,0,.68,3.24,13.65,13.65,0,0,0,.57,1.55,12.65,12.65,0,0,1,.69,1.65,2,2,0,0,1,0,1.07,1.4,1.4,0,0,1-.71.9,2.44,2.44,0,0,1-2,0A3.44,3.44,0,0,1,32.11,280Z" transform="translate(0 0)"/><path class="cls-4" d="M51,275.22a22,22,0,0,1-6.72,1.51,41.83,41.83,0,0,1-6.9,0,55.7,55.7,0,0,1-6.82-1c-1.12-.24-2.24-.51-3.35-.79s-2.2-.65-3.28-1l6.78.92c2.26.26,4.5.56,6.76.7s4.51.29,6.77.27c1.13,0,2.26-.06,3.39-.15A21.47,21.47,0,0,0,51,275.22Z" transform="translate(0 0)"/><path class="cls-4" d="M42.26,271a3.73,3.73,0,0,1,2.3-.66,3.63,3.63,0,0,1,2.27.8c-.83,0-1.55,0-2.29,0S43.08,271.1,42.26,271Z" transform="translate(0 0)"/><path class="cls-4" d="M10.17,208.16A7.23,7.23,0,0,1,15,207a7.56,7.56,0,0,1,4.64,2.19l-.91.39a2.43,2.43,0,0,1,.65-1.76,8.05,8.05,0,0,1,1.2-1.09,11.92,11.92,0,0,1,2.72-1.58,12.49,12.49,0,0,1,6.19-.92L29,205.27a13.61,13.61,0,0,0-2.88-1.71,5.32,5.32,0,0,1-2.61-2.73,3.68,3.68,0,0,1,0-1.92c.1-.56.14-1.06-.23-1.35a1.72,1.72,0,0,0-1.5-.07,3.93,3.93,0,0,1-1.73.3,4.39,4.39,0,0,0,1.63-.56,2.09,2.09,0,0,1,1.88-.08,1.37,1.37,0,0,1,.62.87,3.2,3.2,0,0,1,0,1,2.85,2.85,0,0,0,.13,1.54,4.45,4.45,0,0,0,2.3,2.06,14.11,14.11,0,0,1,3.19,1.76l1.46,1.24-1.93-.17a12,12,0,0,0-5.59.85,12.58,12.58,0,0,0-2.49,1.37c-.78.54-1.53,1.21-1.51,1.83l.05,1.53-1-1.13a7,7,0,0,0-4-2.24A7.43,7.43,0,0,0,10.17,208.16Z" transform="translate(0 0)"/><path class="cls-4" d="M23,209.65c-.92-1.34-1.56-2.76-2.4-4a11.32,11.32,0,0,0-3.15-3.29,4.54,4.54,0,0,1,2.26.95,7.09,7.09,0,0,1,1.69,1.81A11.09,11.09,0,0,1,23,209.65Z" transform="translate(0 0)"/><path class="cls-4" d="M27,207.28a3.26,3.26,0,0,1,3.43,1.55c-.65-.23-1.18-.49-1.73-.74S27.55,207.61,27,207.28Z" transform="translate(0 0)"/><path class="cls-4" d="M137,27.68a4.52,4.52,0,0,0-2.2,1.08,2.2,2.2,0,0,0-1.06,1.77,3.1,3.1,0,0,0,.26,1c.05.06,0,0,.19.08a4.75,4.75,0,0,0,.54,0,6.08,6.08,0,0,0,2.23-.57c.76-.3,1.56-.68,2.41-.94a14.18,14.18,0,0,1,2.57-.55,12.06,12.06,0,0,1,2.62,0,2.66,2.66,0,0,1,2.2,1.35,2.63,2.63,0,0,0-2.22-.77,15.76,15.76,0,0,0-2.45.37,22.68,22.68,0,0,0-4.69,1.67,6.72,6.72,0,0,1-2.69.6,3.66,3.66,0,0,1-.73-.1,1.26,1.26,0,0,1-.85-.57,2.29,2.29,0,0,1-.25-.79c0-.22,0-.45,0-.71a2.18,2.18,0,0,1,.56-1.42A4.63,4.63,0,0,1,137,27.68Z" transform="translate(0 0)"/><path class="cls-4" d="M137.33,31.74a3.36,3.36,0,0,0-2.27,2.18,1.84,1.84,0,0,0,.12,1.39.87.87,0,0,0,1.06.22c.42-.16.93-.5,1.47-.75a15.61,15.61,0,0,1,1.63-.69,16.5,16.5,0,0,1,3.46-.78,15.24,15.24,0,0,1,3.57.06,6.57,6.57,0,0,1,3.36,1.42A10.61,10.61,0,0,1,151,36.08a4.93,4.93,0,0,1,1,1.56,7.89,7.89,0,0,1,.21,1.76l.05.86,0,.43a.91.91,0,0,1,0,.23s-.06.08-.11,0,0-.1,0-.08,0,.06,0,.07,0,0,0-.05a.75.75,0,0,0,0-.2l-.1-.42-.18-.84a7.32,7.32,0,0,0-.45-1.6,4.26,4.26,0,0,0-1-1.25,12.54,12.54,0,0,0-1.24-1.1,6,6,0,0,0-2.94-1,14.48,14.48,0,0,0-3.29,0,15.53,15.53,0,0,0-3.24.66,14.56,14.56,0,0,0-1.56.57,13.08,13.08,0,0,1-1.64.69,2,2,0,0,1-1.07,0,1.39,1.39,0,0,1-.9-.72,2.45,2.45,0,0,1,0-1.95A3.46,3.46,0,0,1,137.33,31.74Z" transform="translate(0 0)"/><path class="cls-4" d="M142.1,50.62a21.43,21.43,0,0,1-1.49-6.72,40.76,40.76,0,0,1,0-6.9,55.72,55.72,0,0,1,1-6.82c.24-1.12.52-2.24.8-3.34s.65-2.2,1-3.28l-.93,6.77c-.26,2.26-.57,4.5-.72,6.76s-.29,4.51-.27,6.77c0,1.13,0,2.26.13,3.39A21.47,21.47,0,0,0,142.1,50.62Z" transform="translate(0 0)"/><path class="cls-4" d="M146.33,41.91a3.67,3.67,0,0,1,.65,2.31,3.63,3.63,0,0,1-.8,2.26c0-.83,0-1.55,0-2.29S146.23,42.73,146.33,41.91Z" transform="translate(0 0)"/><path class="cls-4" d="M87.6,56.33c5.18-.25,10.35-.25,15.52-.21s10.33.22,15.48.46L118,58.16c-1.45-1.12-2.86-2.29-4.28-3.44s-2.82-2.34-4.24-3.51c-2.79-2.37-5.58-4.76-8.27-7.26,3.09,2,6.08,4.11,9.06,6.25,1.48,1.09,3,2.15,4.43,3.25s2.94,2.19,4.39,3.32l2.12,1.65-2.7-.07c-5.16-.13-10.32-.37-15.48-.67S92.75,57,87.6,56.33Z" transform="translate(0 0)"/><path class="cls-4" d="M103.94,53c.35-2.26.83-4.49,1.39-6.69s1.17-4.39,1.85-6.56l.25-.77.42.65c.45.71.9,1.42,1.33,2.14s.86,1.44,1.26,2.19c-.58-.62-1.1-1.28-1.64-1.92s-1-1.31-1.56-2l.66-.12c-.51,2.22-1.1,4.41-1.75,6.59S104.79,50.82,103.94,53Z" transform="translate(0 0)"/><path class="cls-4" d="M304.49,67.57a22.39,22.39,0,0,0,6,.43c1.91-.1,3.76-.81,4.46-2.4a3.72,3.72,0,0,0,.28-2.51,1.59,1.59,0,0,1,.2-1.26,1.11,1.11,0,0,1,.72-.45,1.59,1.59,0,0,1,.58,0,2.38,2.38,0,0,0,.58.07.79.79,0,0,0,.42-.16,3,3,0,0,0,.79-1,1.28,1.28,0,0,1,.2-.25.64.64,0,0,1,.31-.17,2.26,2.26,0,0,1,.3-.08h.2c.26,0,.52,0,.79,0a8.22,8.22,0,0,1,3,.63,11.46,11.46,0,0,0-3,.09c-.44.06-1.14.21-1,.27a3.87,3.87,0,0,1-.92,1.47,2.07,2.07,0,0,1-.93.49,3,3,0,0,1-.93,0c-.11,0-.17,0-.17,0s.06,0,.09,0,0,0,.07.21a4.89,4.89,0,0,1-2.84,5.8,7.49,7.49,0,0,1-3.24.53A13.67,13.67,0,0,1,304.49,67.57Z" transform="translate(0 0)"/><path class="cls-4" d="M309.69,57.12a12.82,12.82,0,0,0,2.64-.38,3.07,3.07,0,0,0,1.06-.59,9.33,9.33,0,0,1,1.08-.89,4.71,4.71,0,0,1,2.84-.64,6.3,6.3,0,0,1,2.67.84,14.38,14.38,0,0,0-2.67-.16,5.13,5.13,0,0,0-2.38.7,11.26,11.26,0,0,0-1.05.82,3.41,3.41,0,0,1-1.39.58A6.25,6.25,0,0,1,309.69,57.12Z" transform="translate(0 0)"/><path class="cls-4" d="M331.69,57.19c-1.11-.23-2.22-.5-3.32-.81A14.91,14.91,0,0,1,325,55.21a5.31,5.31,0,0,1-1.51-1.32c-.4-.51-.69-1-1-1.41a12.17,12.17,0,0,0-2.08-2.26,7,7,0,0,0-2.51-1.4,5.15,5.15,0,0,0-2.7-.06,3.79,3.79,0,0,0-2.6,1.91,5.64,5.64,0,0,1-.53.87,2.76,2.76,0,0,1-2,1.07l.62-.91c0,.64.74,1.33,1.45,2a5.08,5.08,0,0,1,1,1.24,2,2,0,0,1,.23,1.51,2,2,0,0,0-.62-1.23,5.36,5.36,0,0,0-1.11-.83,10.24,10.24,0,0,1-1.28-.86,3.24,3.24,0,0,1-1.05-1.48l-.22-.66.84-.25a1.27,1.27,0,0,0,.79-.61,4.68,4.68,0,0,0,.27-.63,5.67,5.67,0,0,1,.43-.91,5.9,5.9,0,0,1,3.24-2.39,7.05,7.05,0,0,1,4,0,8.66,8.66,0,0,1,3.32,1.92,12.57,12.57,0,0,1,2.3,2.87c.32.52.55,1,.8,1.45a3.27,3.27,0,0,0,.89,1,20,20,0,0,0,2.81,1.63C329.73,56,330.71,56.59,331.69,57.19Z" transform="translate(0 0)"/><path class="cls-4" d="M349.51,68.67a7.15,7.15,0,0,1-2.57,4.24,7.53,7.53,0,0,1-4.83,1.72l.37-.92a2.41,2.41,0,0,1,.77,1.71,7.81,7.81,0,0,1-.07,1.62,12.21,12.21,0,0,1-.82,3,12.38,12.38,0,0,1-3.75,5L338.19,84a14,14,0,0,0,3.25-.82,5.28,5.28,0,0,1,3.77.1,3.63,3.63,0,0,1,1.37,1.35c.32.47.65.85,1.1.8a1.76,1.76,0,0,0,1.13-1,3.81,3.81,0,0,1,1-1.44,4.36,4.36,0,0,0-.76,1.56,2.1,2.1,0,0,1-1.28,1.38,1.38,1.38,0,0,1-1-.19,3.05,3.05,0,0,1-.71-.67,2.88,2.88,0,0,0-1.18-1,4.37,4.37,0,0,0-3.07.17,14.28,14.28,0,0,1-3.51,1l-1.92.15,1.5-1.24a12.28,12.28,0,0,0,3.36-4.54,12.55,12.55,0,0,0,.8-2.73c.18-.94.24-1.94-.22-2.37l-1.11-1,1.48.12a7.09,7.09,0,0,0,4.4-1.21A7.4,7.4,0,0,0,349.51,68.67Z" transform="translate(0 0)"/><path class="cls-4" d="M339.33,76.68c1.6.31,3.06.86,4.55,1.16a11.38,11.38,0,0,0,4.55.12,4.78,4.78,0,0,1-2.28.92,7.32,7.32,0,0,1-2.47-.1A11,11,0,0,1,339.33,76.68Z" transform="translate(0 0)"/><path class="cls-4" d="M338.23,81.12a3,3,0,0,1-1.55,1.22,3.09,3.09,0,0,1-2,.1c.62-.3,1.18-.48,1.75-.7S337.57,81.31,338.23,81.12Z" transform="translate(0 0)"/><path class="cls-4" d="M360.91,87.7c.24,5.18.23,10.34.18,15.51s-.24,10.33-.49,15.49l-1.58-.58c1.13-1.44,2.3-2.85,3.45-4.27s2.34-2.82,3.52-4.23c2.37-2.79,4.77-5.57,7.28-8.26-2,3.08-4.13,6.07-6.28,9-1.08,1.47-2.15,3-3.26,4.42s-2.19,2.94-3.32,4.38l-1.66,2.12.08-2.7c.14-5.16.39-10.32.7-15.48S360.26,92.84,360.91,87.7Z" transform="translate(0 0)"/><path class="cls-4" d="M364.26,104c2.26.36,4.48.85,6.69,1.41s4.39,1.17,6.55,1.86l.77.25-.65.42c-.71.45-1.42.9-2.14,1.33s-1.45.85-2.19,1.25c.62-.57,1.28-1.1,1.92-1.64s1.31-1,2-1.55l.11.66q-3.32-.78-6.58-1.76C368.54,105.62,366.38,104.89,364.26,104Z" transform="translate(0 0)"/><path class="cls-4" d="M206.2,7.6c4.5,4.5,8.83,9.15,13.13,13.82s8.52,9.41,12.73,14.16S240.4,45.15,244.49,50s8.16,9.71,12.18,14.62l-3.87,1.56c-.29-4.49-.48-9-.71-13.48s-.37-9-.56-13.49-.27-9-.31-13.5-.09-9,0-13.53c.71,4.46,1.32,8.93,1.88,13.4s1.07,8.94,1.57,13.41,1,9,1.33,13.44.83,9,1.17,13.44l.5,6.68-4.36-5.12c-4.12-4.82-8.18-9.7-12.22-14.59s-8-9.85-12-14.8-7.84-10-11.67-15S209.83,12.83,206.2,7.6Z" transform="translate(0 0)"/><path class="cls-4" d="M239.21,31.88c2.34-1.56,4.74-3,7.16-4.4s4.87-2.74,7.34-4.05,4.94-2.59,7.46-3.8,5-2.43,7.57-3.59l1.81-.83L270,17.07q-.81,3-1.71,5.94c-.61,2-1.22,3.94-1.95,5.89.2-2.07.51-4.11.82-6.15s.68-4.07,1.05-6.09l1.31,1c-2.45,1.34-4.91,2.66-7.4,3.92s-5,2.49-7.51,3.7-5.07,2.36-7.63,3.46S241.86,30.93,239.21,31.88Z" transform="translate(0 0)"/><path class="cls-4" d="M398.75,143.85c-2.88,5.68-5.95,11.24-9.06,16.77s-6.31,11-9.52,16.49-6.51,10.89-9.85,16.29-6.7,10.77-10.13,16.11l-2.67-3.19c4.17-1.67,8.39-3.25,12.59-4.86s8.43-3.14,12.65-4.71,8.47-3.05,12.74-4.49,8.54-2.87,12.86-4.19q-6,3.09-12.15,5.94c-4.07,2-8.17,3.79-12.27,5.66s-8.21,3.68-12.36,5.43-8.26,3.56-12.42,5.28L353,212.92l3.51-5.73c3.31-5.42,6.69-10.79,10.08-16.14s6.9-10.66,10.37-16,7.05-10.55,10.68-15.76S394.9,148.92,398.75,143.85Z" transform="translate(0 0)"/><path class="cls-4" d="M385.91,182.76c2.2,1.75,4.32,3.58,6.4,5.45s4.11,3.78,6.12,5.72,4,3.9,5.93,5.91,3.86,4,5.75,6.08l1.35,1.47-1.92.09c-2.05.1-4.11.18-6.17.22s-4.13.06-6.21,0c2-.45,4.07-.79,6.1-1.13s4.08-.62,6.12-.88l-.57,1.55c-2-1.91-4.05-3.84-6-5.82s-3.92-4-5.85-6-3.81-4.08-5.65-6.18S387.63,185,385.91,182.76Z" transform="translate(0 0)"/><path class="cls-4" d="M328.91,369.16c-6.29-1-12.53-2.18-18.76-3.42s-12.43-2.58-18.63-3.94S279.15,359,273,357.49s-12.31-3-18.45-4.64l2.2-3.53c2.88,3.45,5.69,7,8.53,10.46s5.59,7.05,8.4,10.57,5.52,7.11,8.21,10.73,5.38,7.23,8,10.92c-3.21-3.18-6.34-6.43-9.42-9.71s-6.14-6.59-9.18-9.91-6.05-6.67-9-10.07-5.95-6.75-8.86-10.17l-4.34-5.09,6.54,1.56c6.17,1.47,12.32,3,18.47,4.58s12.26,3.25,18.39,4.9,12.21,3.43,18.29,5.27S322.89,367.07,328.91,369.16Z" transform="translate(0 0)"/><path class="cls-4" d="M287.93,369c-1,2.64-2.06,5.21-3.19,7.77s-2.32,5.08-3.54,7.6-2.47,5-3.79,7.46-2.63,4.93-4,7.36l-1,1.74-.68-1.8q-1.11-2.88-2.13-5.8c-.66-2-1.33-3.91-1.9-5.91,1.06,1.79,2,3.62,3,5.45s1.85,3.68,2.74,5.54l-1.66-.06c1.19-2.52,2.4-5,3.67-7.53s2.57-4.95,3.88-7.41,2.71-4.89,4.13-7.3S286.35,371.33,287.93,369Z" transform="translate(0 0)"/><path class="cls-4" d="M93.05,372.6c-1-6.29-1.81-12.59-2.57-18.89s-1.4-12.62-2-18.94-1.16-12.63-1.64-19-.94-12.65-1.32-19l4,1c-2.39,3.81-4.86,7.57-7.3,11.35s-5,7.51-7.45,11.26-5,7.46-7.65,11.14-5.2,7.35-7.91,11c2-4,4.15-8,6.31-12s4.37-7.88,6.58-11.8,4.46-7.82,6.78-11.67,4.57-7.75,6.93-11.59l3.49-5.7.55,6.7c.51,6.32,1,12.65,1.37,19s.71,12.67,1,19,.52,12.68.66,19S93.17,366.23,93.05,372.6Z" transform="translate(0 0)"/><path class="cls-4" d="M80.49,333.59c-2.81-.1-5.6-.34-8.38-.62s-5.56-.63-8.32-1-5.53-.8-8.28-1.29-5.49-1-8.23-1.52l-2-.38,1.49-1.21c1.6-1.29,3.22-2.57,4.86-3.82s3.3-2.48,5-3.63c-1.37,1.55-2.82,3-4.26,4.5s-2.93,2.91-4.42,4.33l-.46-1.6c2.77.35,5.54.72,8.3,1.16s5.5.9,8.25,1.39,5.49,1.05,8.22,1.66S77.79,332.81,80.49,333.59Z" transform="translate(0 0)"/><path class="cls-4" d="M16.66,149.43c5.66-2.92,11.4-5.63,17.16-8.3s11.57-5.24,17.38-7.8,11.65-5,17.51-7.44,11.74-4.81,17.64-7.14l.3,4.16c-4.36-1.1-8.7-2.28-13.05-3.43s-8.68-2.39-13-3.59-8.66-2.48-13-3.82S39,109.4,34.74,108c4.47.68,8.91,1.46,13.34,2.29s8.84,1.71,13.25,2.6,8.82,1.81,13.2,2.83,8.79,1.94,13.16,3l6.51,1.55-6.2,2.6c-5.85,2.45-11.73,4.83-17.62,7.19s-11.82,4.6-17.75,6.88-11.89,4.42-17.88,6.52S22.75,147.57,16.66,149.43Z" transform="translate(0 0)"/><path class="cls-4" d="M49.85,125.39c-.77-2.7-1.41-5.43-2-8.16s-1.13-5.47-1.62-8.22-1-5.5-1.35-8.26-.78-5.53-1.11-8.31l-.23-2,1.61,1c1.72,1.13,3.44,2.27,5.14,3.44s3.38,2.37,5,3.65c-1.91-.82-3.76-1.73-5.61-2.65S46,94.07,44.21,93.09l1.38-.93c.53,2.74,1,5.49,1.47,8.25s.85,5.51,1.24,8.28.69,5.54,1,8.32S49.75,122.58,49.85,125.39Z" transform="translate(0 0)"/></g><g class="cls-3"><path class="cls-4" d="M269.86,276.83a11.7,11.7,0,0,0-1,3.08,2.62,2.62,0,0,0,.68,2.66,2,2,0,0,0,1.28.48.91.91,0,0,1,.64.27.68.68,0,0,1,.14.44,1,1,0,0,1-.08.31,1.71,1.71,0,0,0-.11.29.57.57,0,0,0,0,.25,1.71,1.71,0,0,0,.44.55c.19.13.17.52.14.59s-.05.29-.09.42a4.76,4.76,0,0,1-.73,1.52,5.9,5.9,0,0,0,.35-1.58c0-.24,0-.63,0-.57a2.2,2.2,0,0,1-.65-.67,1.09,1.09,0,0,1-.13-.55,1.5,1.5,0,0,1,.13-.49c0-.13,0-.1,0,0s0,0-.12,0a2.76,2.76,0,0,1-1.76-.62,2.7,2.7,0,0,1-.92-1.63,4.06,4.06,0,0,1,.15-1.78A7.55,7.55,0,0,1,269.86,276.83Z" transform="translate(0 0)"/><path class="cls-4" d="M274.68,280.94a6,6,0,0,0-.15,1.44,1.72,1.72,0,0,0,.16.63,5.55,5.55,0,0,1,.34.69,2.66,2.66,0,0,1,0,1.58,3.62,3.62,0,0,1-.79,1.29,7.45,7.45,0,0,0,.44-1.39,2.64,2.64,0,0,0-.06-1.34,6.06,6.06,0,0,0-.29-.66,1.72,1.72,0,0,1-.12-.81A3.24,3.24,0,0,1,274.68,280.94Z" transform="translate(0 0)"/><path class="cls-4" d="M271.75,292.5c.27-.55.55-1.1.86-1.64a8.36,8.36,0,0,1,1.06-1.6,2.62,2.62,0,0,1,.89-.61c.32-.15.61-.24.87-.34a7.08,7.08,0,0,0,1.46-.8,3.12,3.12,0,0,0,1.46-2.55,2.13,2.13,0,0,0-.42-1.35c-.11-.15-.42-.43-.64-.66a1.51,1.51,0,0,1-.3-1.2l.4.44a2.24,2.24,0,0,0-1.25.5,2.72,2.72,0,0,1-.78.34,1.1,1.1,0,0,1-.82-.07,1.64,1.64,0,0,0,1.31-.64,5.74,5.74,0,0,1,.62-.57,1.86,1.86,0,0,1,.92-.36l.38,0v.47a.75.75,0,0,0,.22.5,5.5,5.5,0,0,1,.72.57,3.17,3.17,0,0,1,.83,2A3.86,3.86,0,0,1,279,287a4.69,4.69,0,0,1-1.45,1.49,6.69,6.69,0,0,1-1.8.84,4.05,4.05,0,0,0-1.53.56,12.33,12.33,0,0,0-1.23,1.26C272.62,291.63,272.2,292.07,271.75,292.5Z" transform="translate(0 0)"/><path class="cls-6" d="M310.08,253.07a110.91,110.91,0,0,1-51.58,54.2,30.32,30.32,0,1,0-54.87,11.85,111.69,111.69,0,0,1-74.23-32.74,30.33,30.33,0,1,0-28.25-48.52,110.84,110.84,0,0,1,5.48-75.15c.83-1.88,1.71-3.71,2.64-5.51a30.33,30.33,0,1,0,37.34-41.94A111.48,111.48,0,0,1,226.42,98a30.32,30.32,0,1,0,51.33,22.78A111.56,111.56,0,0,1,318.39,191a30.32,30.32,0,1,0-5.79,55.86C311.84,249,311,251,310.08,253.07Z" transform="translate(0 0)"/><path class="cls-4" d="M292,272a2.41,2.41,0,0,0,.73-1.12,1.22,1.22,0,0,0,0-1.12,1.93,1.93,0,0,0-.39-.38s0,0-.11,0a1.26,1.26,0,0,0-.26.13,3.24,3.24,0,0,0-.88.89,9.12,9.12,0,0,1-1.9,2.08,6.27,6.27,0,0,1-1.21.75,1.41,1.41,0,0,1-1.39,0,1.38,1.38,0,0,0,1.24-.26,9.4,9.4,0,0,0,1-.85,13,13,0,0,0,1.71-2.09,3.72,3.72,0,0,1,1.09-1,3.17,3.17,0,0,1,.37-.16.71.71,0,0,1,.55,0,1.79,1.79,0,0,1,.56.62A1.51,1.51,0,0,1,293,271,2.23,2.23,0,0,1,292,272Z" transform="translate(0 0)"/><path class="cls-4" d="M290.75,270.19a1.8,1.8,0,0,0,.45-1.64,1,1,0,0,0-.45-.62.47.47,0,0,0-.55.2c-.15.19-.29.49-.47.75s-.37.53-.57.78a8.33,8.33,0,0,1-1.39,1.33,8.45,8.45,0,0,1-1.68,1,3.33,3.33,0,0,1-1.95.26,4.31,4.31,0,0,1-1.82-.71,4,4,0,0,1-.59-.75l-.27-.39-.12-.2a.33.33,0,0,1-.06-.1s0-.06,0-.06.05,0,0,0-.06,0,0,0l.08.08.16.17.32.34a3.76,3.76,0,0,0,.65.62,4.45,4.45,0,0,0,1.68.45,4.84,4.84,0,0,0,3.19-1.24,7.59,7.59,0,0,0,1.32-1.21c.2-.22.39-.46.57-.7a7.57,7.57,0,0,1,.57-.78.92.92,0,0,1,1.12-.22,1.37,1.37,0,0,1,.54.91A1.86,1.86,0,0,1,290.75,270.19Z" transform="translate(0 0)"/><path class="cls-4" d="M283.27,262.74a11.82,11.82,0,0,1,2.57,2.71,23.13,23.13,0,0,1,1.91,3.22,30.53,30.53,0,0,1,1.45,3.44c.2.59.38,1.19.55,1.78s.31,1.21.44,1.82l-1.46-3.42c-.5-1.12-1-2.25-1.55-3.34s-1.12-2.18-1.76-3.23A19.41,19.41,0,0,0,283.27,262.74Z" transform="translate(0 0)"/><path class="cls-4" d="M283.73,268a2,2,0,0,1-1-.89,2.08,2.08,0,0,1-.26-1.27c.26.36.42.73.63,1.07S283.55,267.56,283.73,268Z" transform="translate(0 0)"/><path class="cls-4" d="M181.75,312.17a4.1,4.1,0,0,1,1.78-4.84l.09.53a1.35,1.35,0,0,1-.84-.58,4.88,4.88,0,0,1-.41-.78,7.31,7.31,0,0,1-.47-1.64,6.56,6.56,0,0,1,.35-3.37l.48.38a7.78,7.78,0,0,0-1.27,1.29,2.83,2.83,0,0,1-1.78,1c-.79.08-1.34-.62-1.75-.3a.92.92,0,0,0-.24.78,2.18,2.18,0,0,1-.07.95,2.45,2.45,0,0,0-.08-.93,1.12,1.12,0,0,1,.21-1,1,1,0,0,1,1.05-.09,1.59,1.59,0,0,0,.83.14,2.44,2.44,0,0,0,1.39-.94,7.83,7.83,0,0,1,1.35-1.43l.81-.57-.32.94a6.87,6.87,0,0,0-.3,3.05,6.37,6.37,0,0,0,.39,1.5c.18.49.44,1,.77,1l.8.17-.72.36A4.07,4.07,0,0,0,181.75,312.17Z" transform="translate(0 0)"/><path class="cls-4" d="M184.25,305.6c-.83.3-1.66.45-2.43.73a6.11,6.11,0,0,0-2.16,1.21,3.2,3.2,0,0,1,2-1.71A6,6,0,0,1,184.25,305.6Z" transform="translate(0 0)"/><path class="cls-4" d="M183.53,303.23a1.65,1.65,0,0,1,.38-1,1.71,1.71,0,0,1,.89-.6c-.2.32-.43.54-.62.81S183.79,303,183.53,303.23Z" transform="translate(0 0)"/><path class="cls-4" d="M144.07,291.43a2.33,2.33,0,0,0,1.11.72,1.19,1.19,0,0,0,1.12,0,1.69,1.69,0,0,0,.38-.39s0,0,0-.11-.09-.18-.14-.26a3.2,3.2,0,0,0-.88-.88,9.12,9.12,0,0,1-2.08-1.9,6.54,6.54,0,0,1-.75-1.22,1.43,1.43,0,0,1,0-1.39,1.4,1.4,0,0,0,.25,1.25,8.38,8.38,0,0,0,.86,1A12,12,0,0,0,146,290a3.69,3.69,0,0,1,1,1.09,1.73,1.73,0,0,1,.16.37.67.67,0,0,1,0,.55,1.75,1.75,0,0,1-.61.56,1.51,1.51,0,0,1-1.52-.13A2.22,2.22,0,0,1,144.07,291.43Z" transform="translate(0 0)"/><path class="cls-4" d="M145.88,290.16a1.8,1.8,0,0,0,1.64.45,1,1,0,0,0,.62-.44.48.48,0,0,0-.2-.55c-.19-.16-.49-.3-.75-.48s-.53-.37-.78-.57a8.35,8.35,0,0,1-1.32-1.4,8.18,8.18,0,0,1-1-1.67,3.27,3.27,0,0,1-.25-1.95,4.07,4.07,0,0,1,.7-1.82,3.71,3.71,0,0,1,.76-.59l.39-.27.19-.12a.6.6,0,0,1,.11-.06s.06,0,.06,0,0,0-.05,0,0-.06,0,0l-.09.07-.16.17-.34.32a3.43,3.43,0,0,0-.62.65,4.28,4.28,0,0,0-.46,1.68,4.83,4.83,0,0,0,1.23,3.19,8.47,8.47,0,0,0,1.21,1.32,6.23,6.23,0,0,0,.7.57,7.79,7.79,0,0,1,.78.58.9.9,0,0,1,.22,1.11,1.32,1.32,0,0,1-.91.54A1.85,1.85,0,0,1,145.88,290.16Z" transform="translate(0 0)"/><path class="cls-4" d="M153.35,282.69a12.07,12.07,0,0,1-2.72,2.57,23.25,23.25,0,0,1-3.22,1.9A29.57,29.57,0,0,1,144,288.6c-.59.2-1.19.38-1.78.56s-1.21.3-1.82.43l3.42-1.45c1.12-.51,2.25-1,3.35-1.55s2.18-1.11,3.23-1.75A20,20,0,0,0,153.35,282.69Z" transform="translate(0 0)"/><path class="cls-4" d="M148.11,283.15a2.05,2.05,0,0,1,.89-.95,2.12,2.12,0,0,1,1.28-.26c-.37.26-.73.41-1.07.63S148.52,283,148.11,283.15Z" transform="translate(0 0)"/><path class="cls-4" d="M171.14,306.49c-1.55-2.34-3-4.76-4.41-7.17s-2.76-4.87-4.08-7.34l.89-.17c-.26,2-.55,3.93-.88,5.9-.17,1-.31,2-.5,2.94s-.36,2-.58,2.93c0-1,.11-2,.17-3s.16-2,.24-3q.25-3,.6-5.93l.17-1.46.73,1.29c1.37,2.44,2.69,4.91,4,7.4S170,303.92,171.14,306.49Z" transform="translate(0 0)"/><path class="cls-4" d="M165,299.82c-1.15.46-2.32.85-3.5,1.21s-2.37.68-3.58,1l-.42.1.19-.38c.41-.81.82-1.62,1.29-2.4-.27.87-.6,1.72-.93,2.57l-.23-.28c1.17-.38,2.36-.71,3.55-1S163.8,300,165,299.82Z" transform="translate(0 0)"/><path class="cls-4" d="M116.12,202.35a11.75,11.75,0,0,0-1.45-2.9,2.65,2.65,0,0,0-2.36-1.41,2,2,0,0,0-1.25.56.85.85,0,0,1-.64.26.61.61,0,0,1-.41-.21.89.89,0,0,1-.16-.27,1,1,0,0,0-.13-.29.38.38,0,0,0-.19-.15,1.63,1.63,0,0,0-.7-.08c-.23,0-.5-.25-.52-.33a3.17,3.17,0,0,1-.23-.36,4.87,4.87,0,0,1-.56-1.59,6.06,6.06,0,0,0,.88,1.37c.15.19.41.47.4.39a2,2,0,0,1,.94,0,1,1,0,0,1,.48.3,1.34,1.34,0,0,1,.26.44c.06.11.06.06,0,0s0,0,.08-.09a2.66,2.66,0,0,1,3.49-.29,3.91,3.91,0,0,1,1.14,1.37A7.39,7.39,0,0,1,116.12,202.35Z" transform="translate(0 0)"/><path class="cls-4" d="M109.81,202.83a6.43,6.43,0,0,0-.91-1.13,1.59,1.59,0,0,0-.56-.33,5.18,5.18,0,0,1-.72-.25,2.68,2.68,0,0,1-1.09-1.15,3.49,3.49,0,0,1-.35-1.48,7.58,7.58,0,0,0,.67,1.3,2.61,2.61,0,0,0,1,.91,6.21,6.21,0,0,0,.67.27,1.63,1.63,0,0,1,.65.48A3.25,3.25,0,0,1,109.81,202.83Z" transform="translate(0 0)"/><path class="cls-4" d="M103.74,192.56c.2.58.38,1.18.54,1.77a7.83,7.83,0,0,1,.38,1.88,2.79,2.79,0,0,1-.2,1.07c-.12.33-.27.6-.38.85a6.78,6.78,0,0,0-.47,1.6,3.14,3.14,0,0,0,.76,2.83,2.08,2.08,0,0,0,1.25.66c.18,0,.6,0,.92,0a1.49,1.49,0,0,1,1.06.64l-.6,0a2.14,2.14,0,0,0,.54-1.23,2.55,2.55,0,0,1,.31-.79,1.11,1.11,0,0,1,.64-.53,1.62,1.62,0,0,0-.48,1.38,6,6,0,0,1-.05.83,1.74,1.74,0,0,1-.39.91l-.25.28-.35-.32a.72.72,0,0,0-.51-.2,6.12,6.12,0,0,1-.91.1,3.2,3.2,0,0,1-2-.84,4,4,0,0,1-1.11-1.85,4.87,4.87,0,0,1,0-2.08,6.81,6.81,0,0,1,.7-1.86,4,4,0,0,0,.68-1.48,10.43,10.43,0,0,0,0-1.76C103.73,193.8,103.72,193.18,103.74,192.56Z" transform="translate(0 0)"/><path class="cls-4" d="M103.81,221.39a2.46,2.46,0,0,0,.27,1.31c.18.4.46.75.8.79a1.56,1.56,0,0,0,.54,0s0,0,.07-.09a2.14,2.14,0,0,0,.09-.27,3.55,3.55,0,0,0,0-1.26,8.79,8.79,0,0,1-.12-2.81,6.82,6.82,0,0,1,.32-1.39,1.45,1.45,0,0,1,1-1,1.4,1.4,0,0,0-.71,1.06,10,10,0,0,0-.13,1.34,12.38,12.38,0,0,0,.26,2.69,3.77,3.77,0,0,1,0,1.49,3,3,0,0,1-.15.38.71.71,0,0,1-.41.36,1.72,1.72,0,0,1-.83,0,1.48,1.48,0,0,1-1-1.17A2.19,2.19,0,0,1,103.81,221.39Z" transform="translate(0 0)"/><path class="cls-4" d="M106,221.78a1.78,1.78,0,0,0,.84,1.48,1,1,0,0,0,.75.13.49.49,0,0,0,.25-.53c0-.24-.14-.56-.2-.87s-.11-.63-.14-1a8.9,8.9,0,0,1,.05-1.93,8.15,8.15,0,0,1,.51-1.86,3.2,3.2,0,0,1,1.2-1.56,4,4,0,0,1,1.78-.79,4.85,4.85,0,0,1,1,.12l.46.09.23,0,.11,0s0,.05,0,.07-.06,0,0,0,.06,0,0,0-.07,0-.11,0H112a3.83,3.83,0,0,0-.9,0,4.4,4.4,0,0,0-1.51.86,4.93,4.93,0,0,0-1.39,3.13,8.26,8.26,0,0,0-.08,1.79,6.86,6.86,0,0,0,.09.9,7.16,7.16,0,0,1,.14,1,.91.91,0,0,1-.63.95,1.38,1.38,0,0,1-1-.27A1.84,1.84,0,0,1,106,221.78Z" transform="translate(0 0)"/><path class="cls-4" d="M116.55,221.8a12,12,0,0,1-3.74-.12,22.63,22.63,0,0,1-3.62-.93,30.71,30.71,0,0,1-3.46-1.43c-.55-.27-1.1-.57-1.65-.87s-1.06-.63-1.58-1l3.44,1.4c1.15.44,2.29.9,3.45,1.28s2.33.75,3.52,1A21.11,21.11,0,0,0,116.55,221.8Z" transform="translate(0 0)"/><path class="cls-4" d="M112.53,218.41a2.07,2.07,0,0,1,1.3,0,2,2,0,0,1,1.08.72c-.44-.07-.8-.22-1.2-.31S113,218.58,112.53,218.41Z" transform="translate(0 0)"/><path class="cls-4" d="M104.13,181.07a4.1,4.1,0,0,1,4.83,1.79l-.53.09a1.32,1.32,0,0,1,.59-.84,4,4,0,0,1,.77-.4,7.31,7.31,0,0,1,1.64-.47,6.45,6.45,0,0,1,3.37.36l-.37.48a7.53,7.53,0,0,0-1.3-1.28,2.84,2.84,0,0,1-1-1.79c-.08-.78.62-1.33.3-1.74a1,1,0,0,0-.78-.25,2,2,0,0,1-1-.07,2.31,2.31,0,0,0,.94-.08,1.15,1.15,0,0,1,1,.22.93.93,0,0,1,.09,1,1.59,1.59,0,0,0-.14.83,2.39,2.39,0,0,0,.94,1.39,8.21,8.21,0,0,1,1.43,1.36l.57.81-1-.33a6.85,6.85,0,0,0-3-.3,6.48,6.48,0,0,0-1.5.38c-.48.19-1,.44-1,.77l-.17.8-.36-.72A4.06,4.06,0,0,0,104.13,181.07Z" transform="translate(0 0)"/><path class="cls-4" d="M110.69,183.59c-.3-.83-.45-1.67-.72-2.44a6.14,6.14,0,0,0-1.21-2.15,3.17,3.17,0,0,1,1.7,2A6.1,6.1,0,0,1,110.69,183.59Z" transform="translate(0 0)"/><path class="cls-4" d="M113.06,182.87a1.75,1.75,0,0,1,1.59,1.27c-.31-.2-.53-.43-.8-.62S113.33,183.13,113.06,182.87Z" transform="translate(0 0)"/><path class="cls-4" d="M195.06,103.32a2.42,2.42,0,0,0-1.3.27c-.4.17-.75.46-.79.79a1.67,1.67,0,0,0,0,.55s0,0,.09.07l.28.09a3.5,3.5,0,0,0,1.25,0,9.09,9.09,0,0,1,2.81-.12,6.69,6.69,0,0,1,1.39.33,1.45,1.45,0,0,1,1,1,1.37,1.37,0,0,0-1.06-.71,9.81,9.81,0,0,0-1.34-.13,11.83,11.83,0,0,0-2.69.25,4,4,0,0,1-1.49,0,2.39,2.39,0,0,1-.37-.15.71.71,0,0,1-.37-.42,1.73,1.73,0,0,1,0-.83,1.5,1.5,0,0,1,1.18-1A2.16,2.16,0,0,1,195.06,103.32Z" transform="translate(0 0)"/><path class="cls-4" d="M194.67,105.5a1.78,1.78,0,0,0-1.48.84,1,1,0,0,0-.13.74.47.47,0,0,0,.53.26c.24,0,.55-.14.87-.2s.63-.11.95-.14a8.91,8.91,0,0,1,1.93.06,8.67,8.67,0,0,1,1.86.5,3.44,3.44,0,0,1,1.56,1.21,4.24,4.24,0,0,1,.78,1.79,4.74,4.74,0,0,1-.12,1l-.09.46-.05.23a.28.28,0,0,1,0,.12s0,0-.06,0,0-.06,0,0,0,.07,0,0a.37.37,0,0,0,0-.11V112l0-.47a3.83,3.83,0,0,0,0-.9,4.5,4.5,0,0,0-.86-1.51,4.83,4.83,0,0,0-3.13-1.39,8.24,8.24,0,0,0-1.79-.09,6.88,6.88,0,0,0-.89.09,7.59,7.59,0,0,1-1,.14.91.91,0,0,1-.94-.64,1.36,1.36,0,0,1,.27-1A1.84,1.84,0,0,1,194.67,105.5Z" transform="translate(0 0)"/><path class="cls-4" d="M194.64,116.06a11.46,11.46,0,0,1,.12-3.74,22.66,22.66,0,0,1,.94-3.62,30.55,30.55,0,0,1,1.43-3.45c.28-.56.58-1.1.87-1.65s.64-1.07,1-1.58l-1.41,3.43c-.44,1.15-.9,2.29-1.28,3.46s-.76,2.33-1.06,3.51A19.34,19.34,0,0,0,194.64,116.06Z" transform="translate(0 0)"/><path class="cls-4" d="M198,112.05a2.14,2.14,0,0,1,0,1.3,2.11,2.11,0,0,1-.73,1.08c.08-.45.23-.81.32-1.2S197.86,112.46,198,112.05Z" transform="translate(0 0)"/><path class="cls-4" d="M165.24,111.72c2.75.57,5.46,1.28,8.18,2s5.39,1.5,8.07,2.32l-.51.76q-1.8-2.37-3.53-4.81c-.57-.81-1.17-1.6-1.72-2.43s-1.12-1.64-1.66-2.49c.68.73,1.33,1.49,2,2.24s1.29,1.52,1.93,2.27c1.28,1.52,2.53,3.07,3.76,4.63l.91,1.16-1.43-.4c-2.69-.77-5.37-1.59-8-2.44S167.86,112.74,165.24,111.72Z" transform="translate(0 0)"/><path class="cls-4" d="M174.28,112.14c.49-1.13,1-2.24,1.63-3.32s1.2-2.15,1.85-3.2l.24-.37.13.4c.28.86.56,1.73.78,2.62-.43-.81-.79-1.65-1.16-2.48l.36,0c-.56,1.09-1.17,2.17-1.8,3.23S175,111.14,174.28,112.14Z" transform="translate(0 0)"/><path class="cls-4" d="M277.67,146.81a11.76,11.76,0,0,0,3.08,1,2.64,2.64,0,0,0,2.67-.66,2,2,0,0,0,.48-1.28.93.93,0,0,1,.28-.64.65.65,0,0,1,.43-.14.91.91,0,0,1,.31.08,2.24,2.24,0,0,0,.29.12.57.57,0,0,0,.25,0,1.71,1.71,0,0,0,.55-.44c.13-.19.53-.17.6-.13l.42.09a4.73,4.73,0,0,1,1.51.74,5.56,5.56,0,0,0-1.58-.36c-.24,0-.63,0-.56,0a2.13,2.13,0,0,1-.68.65,1.12,1.12,0,0,1-.55.13,1.67,1.67,0,0,1-.5-.13c-.12,0-.09,0,0,0s0,0,0,.13a2.66,2.66,0,0,1-2.27,2.66,4.06,4.06,0,0,1-1.78-.16A7.56,7.56,0,0,1,277.67,146.81Z" transform="translate(0 0)"/><path class="cls-4" d="M281.81,142a6.68,6.68,0,0,0,1.44.16,2,2,0,0,0,.64-.16,4.78,4.78,0,0,1,.68-.33,2.65,2.65,0,0,1,1.58,0,3.7,3.7,0,0,1,1.29.8,7.6,7.6,0,0,0-1.38-.44,2.57,2.57,0,0,0-1.35,0,4.48,4.48,0,0,0-.66.28,1.72,1.72,0,0,1-.81.12A3.38,3.38,0,0,1,281.81,142Z" transform="translate(0 0)"/><path class="cls-4" d="M293.36,145c-.56-.27-1.1-.56-1.64-.87a8.53,8.53,0,0,1-1.59-1.07,2.66,2.66,0,0,1-.61-.9c-.14-.32-.23-.61-.33-.87a7.39,7.39,0,0,0-.79-1.47,3.14,3.14,0,0,0-2.54-1.47,2.08,2.08,0,0,0-1.35.41c-.15.11-.44.42-.67.64a1.51,1.51,0,0,1-1.21.29l.45-.4a2.19,2.19,0,0,0,.49,1.25,2.72,2.72,0,0,1,.34.78,1.12,1.12,0,0,1-.08.83,1.63,1.63,0,0,0-.63-1.32,5.69,5.69,0,0,1-.56-.62,1.86,1.86,0,0,1-.36-.92l0-.38h.47a.73.73,0,0,0,.5-.22,8,8,0,0,1,.58-.71,3.1,3.1,0,0,1,2-.82,3.85,3.85,0,0,1,2.09.52,4.8,4.8,0,0,1,1.48,1.46,6.72,6.72,0,0,1,.83,1.81,3.9,3.9,0,0,0,.55,1.53,10.6,10.6,0,0,0,1.26,1.24Q292.72,144.34,293.36,145Z" transform="translate(0 0)"/><path class="cls-4" d="M301.18,153.45a4.09,4.09,0,0,1-4.69,2.13l.31-.43a1.31,1.31,0,0,1,.18,1,4.35,4.35,0,0,1-.27.84,6.6,6.6,0,0,1-.83,1.49,6.67,6.67,0,0,1-2.64,2.12l-.07-.61a7.29,7.29,0,0,0,1.81,0,2.81,2.81,0,0,1,2,.56c.6.5.49,1.38,1,1.45a.92.92,0,0,0,.73-.37,2.14,2.14,0,0,1,.72-.62,2.47,2.47,0,0,0-.61.71,1.12,1.12,0,0,1-.85.56c-.44,0-.69-.42-.81-.69a1.64,1.64,0,0,0-.48-.69,2.36,2.36,0,0,0-1.65-.32,8,8,0,0,1-2,0l-1-.17.9-.44a6.86,6.86,0,0,0,2.38-1.94,6.08,6.08,0,0,0,.79-1.32c.21-.47.37-1,.19-1.28l-.44-.7.76.27A4.1,4.1,0,0,0,301.18,153.45Z" transform="translate(0 0)"/><path class="cls-4" d="M294.75,156.29c.8.37,1.49.86,2.23,1.22a6.12,6.12,0,0,0,2.38.67,3.18,3.18,0,0,1-2.61-.21A6,6,0,0,1,294.75,156.29Z" transform="translate(0 0)"/><path class="cls-4" d="M293.58,158.47a1.74,1.74,0,0,1-1,.43,1.67,1.67,0,0,1-1.05-.21c.36-.08.68-.08,1-.13S293.21,158.47,293.58,158.47Z" transform="translate(0 0)"/><path class="cls-4" d="M304.6,165c-.57,2.75-1.28,5.46-2,8.17s-1.51,5.4-2.34,8.07l-.75-.52c1.58-1.19,3.18-2.37,4.81-3.51.81-.57,1.61-1.17,2.44-1.72s1.64-1.12,2.49-1.65c-.73.68-1.49,1.32-2.24,2s-1.52,1.28-2.28,1.92c-1.52,1.28-3.07,2.52-4.64,3.75l-1.16.9.41-1.42q1.15-4,2.45-8C302.69,170.25,303.58,167.59,304.6,165Z" transform="translate(0 0)"/><path class="cls-4" d="M304.17,174c1.13.49,2.24,1,3.32,1.63s2.15,1.21,3.19,1.87l.38.23-.41.13c-.86.28-1.73.56-2.62.77.81-.42,1.65-.78,2.48-1.15l0,.37c-1.09-.57-2.16-1.18-3.22-1.82S305.17,174.75,304.17,174Z" transform="translate(0 0)"/><path class="cls-4" d="M234.1,102.08c3.5,6,6.68,12.06,9.82,18.18s6.12,12.33,9,18.57l-2.23.29c.44-2.4.95-4.78,1.43-7.18s1-4.77,1.53-7.16,1.07-4.76,1.65-7.14,1.17-4.74,1.82-7.1q-.34,3.66-.81,7.29c-.3,2.43-.65,4.84-1,7.26s-.7,4.83-1.11,7.24-.77,4.82-1.21,7.22l-.64,3.52-1.58-3.23c-3-6.18-5.93-12.41-8.76-18.69S236.53,108.54,234.1,102.08Z" transform="translate(0 0)"/><path class="cls-4" d="M248.18,119.27c2.88-1,5.81-1.77,8.75-2.48,1.48-.35,2.95-.7,4.43-1s3-.59,4.46-.86l1.06-.19-.51.9c-1.1,1.94-2.25,3.87-3.51,5.73.78-2.11,1.68-4.16,2.63-6.18l.54.71c-1.46.38-2.93.74-4.41,1.06s-3,.64-4.45.94C254.2,118.47,251.21,119,248.18,119.27Z" transform="translate(0 0)"/><path class="cls-4" d="M316.93,199.57c-4.57,5.17-9.39,10.09-14.24,15s-9.82,9.64-14.86,14.33l-1-2c2.42-.33,4.85-.58,7.27-.87s4.85-.51,7.28-.77,4.86-.46,7.3-.64,4.87-.36,7.32-.47c-2.39.53-4.78,1-7.18,1.48s-4.81.89-7.21,1.32-4.81.83-7.22,1.19-4.82.77-7.24,1.1l-3.55.48,2.58-2.51q7.4-7.18,15.05-14.12C306.38,208.44,311.54,203.88,316.93,199.57Z" transform="translate(0 0)"/><path class="cls-4" d="M305,218.29c1.83,2.43,3.48,5,5.07,7.55.79,1.29,1.58,2.58,2.32,3.9s1.49,2.64,2.21,4l.51.95-1-.21c-2.19-.44-4.37-.94-6.53-1.56,2.25.09,4.47.31,6.69.58l-.51.74c-.81-1.28-1.61-2.56-2.38-3.87s-1.52-2.61-2.27-3.93C307.58,223.76,306.17,221.08,305,218.29Z" transform="translate(0 0)"/><path class="cls-4" d="M249.92,308.54c-6.33-2.75-12.5-5.8-18.65-8.9S219.06,293.3,213,290l1.62-1.55c1.06,2.2,2.06,4.43,3.08,6.64s2,4.46,3,6.69,2,4.47,2.87,6.73,1.86,4.53,2.72,6.82q-1.87-3.17-3.64-6.37c-1.19-2.13-2.33-4.29-3.49-6.44s-2.28-4.32-3.37-6.5-2.22-4.35-3.28-6.54L211,286.21l3.18,1.68c6.09,3.2,12.11,6.53,18.09,9.93S244.15,304.75,249.92,308.54Z" transform="translate(0 0)"/><path class="cls-4" d="M228.41,303c-1.74,2.5-3.65,4.86-5.6,7.17-1,1.14-2,2.3-3,3.41s-2,2.23-3.09,3.33l-.74.78-.12-1c-.25-2.22-.46-4.45-.54-6.7.61,2.17,1.09,4.35,1.52,6.54l-.86-.25c1-1.17,1.94-2.33,2.94-3.46s2-2.26,3-3.38C224,307.15,226.14,305,228.41,303Z" transform="translate(0 0)"/><path class="cls-4" d="M125.54,278.61c.65-6.87,1.64-13.68,2.68-20.49s2.25-13.57,3.56-20.33l2,1.06c-1.76,1.69-3.57,3.33-5.36,5s-3.62,3.27-5.42,4.91-3.66,3.24-5.52,4.82-3.73,3.17-5.64,4.7q2.43-2.76,4.93-5.43c1.66-1.8,3.36-3.56,5-5.32s3.4-3.51,5.14-5.22,3.44-3.46,5.2-5.15l2.58-2.48-.6,3.54c-1.16,6.79-2.46,13.54-3.84,20.28S127.36,272,125.54,278.61Z" transform="translate(0 0)"/><path class="cls-4" d="M124.19,256.43c-2.91-.88-5.75-2-8.55-3.11-1.4-.58-2.8-1.16-4.17-1.78s-2.76-1.25-4.13-1.91l-1-.47.95-.43c2-.93,4.08-1.82,6.2-2.58-1.87,1.25-3.8,2.38-5.75,3.47l0-.9c1.41.55,2.81,1.12,4.2,1.72s2.78,1.22,4.15,1.84C118.84,253.56,121.56,254.9,124.19,256.43Z" transform="translate(0 0)"/><path class="cls-4" d="M115.44,151.09c6.74-1.52,13.52-2.69,20.31-3.81s13.61-2.07,20.43-2.92l-.39,2.21c-2.16-1.15-4.27-2.37-6.41-3.55s-4.23-2.43-6.35-3.64-4.21-2.47-6.29-3.75-4.17-2.56-6.22-3.9q3.39,1.44,6.7,3c2.22,1,4.41,2.09,6.61,3.14s4.39,2.15,6.56,3.27,4.36,2.2,6.51,3.35l3.16,1.68-3.56.53c-6.81,1-13.63,1.86-20.47,2.63S122.34,150.75,115.44,151.09Z" transform="translate(0 0)"/><path class="cls-4" d="M136.11,142.93c-.06-3.05.08-6.08.3-9.1.12-1.51.24-3,.41-4.52s.33-3,.53-4.51l.14-1.07.71.76c1.51,1.65,3,3.32,4.38,5.1-1.77-1.39-3.44-2.88-5.08-4.39l.84-.31c-.09,1.52-.19,3-.33,4.53s-.3,3-.47,4.52C137.18,137,136.75,140,136.11,142.93Z" transform="translate(0 0)"/></g></g></g></g></svg>