<svg xmlns="http://www.w3.org/2000/svg" viewBox="0 0 23.05 32.26"><defs><style>.cls-1{fill:#866bc6;}</style></defs><title>Ресурс 80</title><g id="Слой_2" data-name="Слой 2"><g id="Слой_1-2" data-name="Слой 1"><path class="cls-1" d="M16.87,3.83s-4.14-6.52-6-.42C10.87,3.41,12.73-.22,16.87,3.83Z"/><path class="cls-1" d="M2.65,16.32s-1.85-3-.09-5.11C2.56,11.21-1.23,14.33,2.65,16.32Z"/><path class="cls-1" d="M20.3,0s3,2,2.24,4.59C22.54,4.59,24.65.16,20.3,0Z"/><path class="cls-1" d="M18,5.37s.72,4.71-4.6,6.94c0,0-5,1.21-4.86,5.57,0,0-2-3,.18-8-.17.14-5.91,5-4.69,10.77-.49-.89-1.58-1.91-4-1.91a3.58,3.58,0,0,1,2.09,3.86s-1,6.47,7,9.49A2.23,2.23,0,0,0,10.88,32C13,31,18.16,27.79,17.77,21.65c0,0-2,3-3.73,3.23,0,0,.14-2.82,4.33-6.32C18.37,18.56,24.27,13,18,5.37ZM7.87,30.07c-.48.31-1.34-.14-1.91-1s-.64-1.84-.15-2.15,1.33.14,1.9,1S8.36,29.75,7.87,30.07Zm5.49-1c-.57.88-1.42,1.33-1.91,1s-.41-1.28.16-2.16,1.42-1.33,1.91-1S13.93,28.18,13.36,29.05Z"/></g></g></svg>