<svg xmlns="http://www.w3.org/2000/svg" viewBox="0 0 41 32.19"><defs><style>.cls-1{fill:#866bc6;}.cls-2{fill:#63c;}</style></defs><title>Ресурс 81</title><g id="Слой_2" data-name="Слой 2"><g id="Слой_1-2" data-name="Слой 1"><path class="cls-1" d="M27.37,3.83s-4.13-6.52-6-.43C21.39,3.4,23.24-.22,27.37,3.83Z"/><path class="cls-1" d="M13.18,16.29s-1.84-3-.09-5.1C13.09,11.19,9.31,14.3,13.18,16.29Z"/><path class="cls-1" d="M30.79,0s3,2,2.24,4.58C33,4.58,35.14.16,30.79,0Z"/><path class="cls-1" d="M28.47,5.36s.71,4.7-4.6,6.92c0,0-5,1.21-4.84,5.56,0,0-2-3,.17-8-.16.14-5.89,4.95-4.68,10.74-.48-.89-1.57-1.89-4-1.89a3.56,3.56,0,0,1,2.08,3.85s-1,6.45,7,9.46A2.25,2.25,0,0,0,21.4,32c2.11-1,7.26-4.22,6.87-10.35,0,0-2,3-3.72,3.22,0,0,.14-2.81,4.32-6.31C28.87,18.52,34.76,12.94,28.47,5.36ZM18.39,30c-.48.31-1.33-.14-1.9-1s-.64-1.83-.16-2.15,1.33.14,1.9,1S18.87,29.69,18.39,30Zm5.48-1c-.57.88-1.42,1.33-1.91,1s-.41-1.28.16-2.15,1.42-1.33,1.91-1S24.44,28.12,23.87,29Z"/><path class="cls-2" d="M41,19.17c0,5.73-2.43,10.56-5.74,12,2.05-1.89,3.5-6.55,3.5-12s-1.45-10.1-3.5-12C38.57,8.61,41,13.44,41,19.17Z"/><path class="cls-2" d="M0,19.17c0,5.73,2.43,10.56,5.74,12-2.05-1.89-3.5-6.55-3.5-12s1.45-10.1,3.5-12C2.43,8.61,0,13.44,0,19.17Z"/></g></g></svg>