<svg xmlns="http://www.w3.org/2000/svg" viewBox="0 0 61.78 53.28"><defs><style>.cls-1{fill:#8567b2;}.cls-2{fill:#63c;}</style></defs><title>Ресурс 78</title><g id="Слой_2" data-name="Слой 2"><g id="Слой_1-2" data-name="Слой 1"><path class="cls-1" d="M28.52,42.43a57.31,57.31,0,0,0-6.34-2.54h0c.28-.32.52-.57.72-.77A.83.83,0,0,1,23.91,39Z"/><path class="cls-1" d="M40.81,39.57c-1.11.41-3.06,1.15-5,2L39.32,39a.83.83,0,0,1,1,.14Z"/><path class="cls-1" d="M38.07,26.27l1.75,2.3c-.64,2.1-1.52,3.93-3.09,3.93,0,0-4,.51-4-4.07A13.24,13.24,0,0,0,38.07,26.27Z"/><path class="cls-1" d="M29.76,28.43c0,4.58-4,4.07-4,4.07-1.42,0-2.12-1.32-2.75-3.17l2-2.6A10.81,10.81,0,0,0,29.76,28.43Z"/><path class="cls-1" d="M21.58,16a.26.26,0,0,1,.26.38L21.06,18a3.8,3.8,0,0,0-.38,1.27A17.65,17.65,0,0,1,18,25.78a4.25,4.25,0,0,1-.46.57c-.84.9-.49,3.7-.49,3.7l-1.12,3.27a4.56,4.56,0,0,1-1,1.71,2.94,2.94,0,0,0-.75,1.31,1.29,1.29,0,0,0,1,1.64,39.44,39.44,0,0,1,6.9,1.9h0a57.21,57.21,0,0,1,6.33,2.54c1.56.7,2.78,1.3,3.05,1.43a.09.09,0,0,0,.09,0,22.45,22.45,0,0,1,4.21-2.28c1.88-.84,3.84-1.59,4.94-2l.84-.31.14-.07A22.92,22.92,0,0,1,46,37.11c1.82-.26,1.61-1.54,1.59-1.59h0a35,35,0,0,1-1-6,4.52,4.52,0,0,0-1-2.63A2.25,2.25,0,0,1,45,25.79l-2.66-5.26a7.42,7.42,0,0,1-.59-1.5c-.48-1.88-3.14-4.67-3.24-4.78h0L33,9.65l-1.4-1a.75.75,0,0,0-.91.24.05.05,0,0,1,0,0c-.38.11-.57-.31-.57-.31-.31-.93-1.47-1-2.51-.91a7.29,7.29,0,0,0-2.48.76c-8.54,4.34-9.37,4-9.49,4h0M40.6,34l0,0c-.51.43-6,5-8.22,6.7a1.22,1.22,0,0,1-1.51,0L21,32.72l-.23-.38a1.06,1.06,0,0,1,.08-1.2l1.51-1.94,1.29-1.65L26,24.48,30.7,20.6a1.34,1.34,0,0,1,1.71,0l4.93,4.14h0l2,2.48L40,28l.32.71.67,1.5C41,30.42,42.06,32.92,40.6,34Z"/><path class="cls-1" d="M22,16s-6.78,1.59-9.31-.53a7.29,7.29,0,0,1-1.86-3.33s1.33.67,1.73.4c0,0,.27-4.65-5.18-6.38,0,0,6.51.53,10.37,3.72,0,0-3.33.54-.14,2.13"/><path class="cls-1" d="M4.72,6.19s-7,.53-2.92,4.65C1.8,10.84-.33,7.78,4.72,6.19Z"/><path class="cls-1" d="M8.06.23s3.65.64,4.13,3C12.19,3.19,12.23-1,8.06.23Z"/><path class="cls-2" d="M61.78,27.71c0,12.22-6.23,22.51-14.7,25.57,5.25-4,9-14,9-25.57s-3.71-21.53-9-25.57C55.55,5.2,61.78,15.49,61.78,27.71Z"/><path class="cls-2" d="M0,27.71C0,39.93,6.23,50.22,14.71,53.28c-5.25-4-9-14-9-25.57s3.72-21.53,9-25.57C6.23,5.2,0,15.49,0,27.71Z"/></g></g></svg>