<svg xmlns="http://www.w3.org/2000/svg" viewBox="0 0 79.27 79.27"><defs><style>.cls-1{fill:#866bc6;}.cls-2{fill:none;stroke:#866bc6;stroke-miterlimit:10;stroke-width:1.27px;}</style></defs><title>Ресурс 82</title><g id="Слой_2" data-name="Слой 2"><g id="Слой_1-2" data-name="Слой 1"><path class="cls-1" d="M32,56.35a30.25,30.25,0,0,0,6.92-4.27c2-1.64,3.5-3.91,3-6.21a5.2,5.2,0,0,0-.58-1.63,4.22,4.22,0,0,0-.48-.71c-.1-.11-.18-.22-.29-.32l-.35-.34a3.36,3.36,0,0,1-.47-.54,1.89,1.89,0,0,1-.32-1,1.56,1.56,0,0,1,.44-1.06,2.31,2.31,0,0,1,.65-.47,4.27,4.27,0,0,0,.69-.37,1.24,1.24,0,0,0,.33-.53,4.22,4.22,0,0,0,.05-1.77,1.59,1.59,0,0,1,0-.43,1.34,1.34,0,0,1,.22-.5,4,4,0,0,1,.46-.43c.28-.23.56-.46.85-.66A11.38,11.38,0,0,1,47,33.36a15.64,15.64,0,0,0-3.23,2.48c-.24.24-.47.48-.69.73a1.9,1.9,0,0,0-.25.32s0,0,0,0,0,0,0,.08a5.11,5.11,0,0,1,.17,2.33,2.9,2.9,0,0,1-.64,1.29,4.08,4.08,0,0,1-1,.73.5.5,0,0,0-.18.15.19.19,0,0,0,.06-.13c0-.17,0,0,.25.17l.41.36c.15.14.28.3.42.44a6.81,6.81,0,0,1,.7,1,6.9,6.9,0,0,1,.84,2.24A6.73,6.73,0,0,1,43,50.15a10,10,0,0,1-3.15,3.16A18.36,18.36,0,0,1,32,56.35Z"/><path class="cls-1" d="M29.39,40.69A17,17,0,0,0,32,38.17a4.07,4.07,0,0,0,.7-1.49,11.41,11.41,0,0,1,.48-1.84,6.41,6.41,0,0,1,2.62-3,8.69,8.69,0,0,1,3.61-1.21,19.63,19.63,0,0,0-3.07,2,6.82,6.82,0,0,0-2.06,2.68A14.42,14.42,0,0,0,33.77,37a4.39,4.39,0,0,1-1.07,1.75A8.18,8.18,0,0,1,29.39,40.69Z"/><path class="cls-1" d="M53.7,23.22c-1.41.64-2.85,1.22-4.31,1.76a20.26,20.26,0,0,1-4.6,1.36,6.94,6.94,0,0,1-2.72-.25c-.85-.24-1.55-.54-2.22-.75a17.11,17.11,0,0,0-4.09-.84,9.68,9.68,0,0,0-3.89.46,7,7,0,0,0-3,2.08,5.46,5.46,0,0,0-1.38,3.26,5.14,5.14,0,0,0,.05.93,8.56,8.56,0,0,1,.11,1.38,3.76,3.76,0,0,1-1.38,2.79l0-1.5c.56.67,1.87.87,3.2,1.07a6.5,6.5,0,0,1,2.05.59A2.74,2.74,0,0,1,32.92,37a2.77,2.77,0,0,0-1.67-.86,7.38,7.38,0,0,0-1.88,0,15.77,15.77,0,0,1-2.1.08,4.55,4.55,0,0,1-2.34-.79l-.77-.56.73-.94a1.89,1.89,0,0,0,.39-1.31,7.07,7.07,0,0,0-.22-.9,7.56,7.56,0,0,1-.24-1.35,7.73,7.73,0,0,1,1.66-5.22A9.43,9.43,0,0,1,30.84,22,11.69,11.69,0,0,1,36,21.44a16.46,16.46,0,0,1,4.81,1.31c.77.33,1.45.71,2,1a4.49,4.49,0,0,0,1.8.43A12.34,12.34,0,0,0,46.82,24c.75-.12,1.5-.23,2.26-.32C50.6,23.5,52.13,23.33,53.7,23.22Z"/><path class="cls-1" d="M69.14,53a3.84,3.84,0,0,0,.12,1.13.87.87,0,0,0,.59.76.73.73,0,0,0,.48,0,.32.32,0,0,1,.24,0,.22.22,0,0,1,.12.22c0,.12,0,.12,0,.19a1.2,1.2,0,0,0,.23.12c.16.1.12.23.15.31a1.94,1.94,0,0,1,0,.59,1.81,1.81,0,0,0-.12-.56c0-.08-.06-.2-.09-.18a1.33,1.33,0,0,1-.3-.12.44.44,0,0,1-.15-.33c0-.05,0,0,0,0s0,0,0,0a1,1,0,0,1-.65,0,1,1,0,0,1-.71-1,2.35,2.35,0,0,1,0-.59Z"/><path class="cls-1" d="M71.26,53.59a3.51,3.51,0,0,0,.15.49c.07.15.21.21.36.35a1.1,1.1,0,0,1,.14,1,1.3,1.3,0,0,0-.27-.92c-.09-.12-.27-.23-.33-.42A1.06,1.06,0,0,1,71.26,53.59Z"/><path class="cls-1" d="M72,57.71a5.52,5.52,0,0,1,.16-1.31,1.68,1.68,0,0,1,.42-.55,1.92,1.92,0,0,0,.36-.46,1.17,1.17,0,0,0,.11-1,.73.73,0,0,0-.33-.36,2.23,2.23,0,0,0-.3-.13.54.54,0,0,1-.27-.34l.19.08c-.12,0-.22.19-.33.34s-.27.34-.47.32a.61.61,0,0,0,.33-.39.8.8,0,0,1,.36-.51l.12-.07.06.15a.27.27,0,0,0,.15.13,1.78,1.78,0,0,1,.31.08,1.07,1.07,0,0,1,.54.53,1.39,1.39,0,0,1-.11,1.42,2.56,2.56,0,0,1-.46.52c-.14.16-.34.24-.41.4C72.24,56.87,72.14,57.32,72,57.71Z"/><circle class="cls-2" cx="39.63" cy="39.63" r="39"/><path class="cls-1" d="M75.55,48.26a.8.8,0,0,0,.07-.46c0-.15,0-.31-.17-.35s-.13-.08-.17-.07-.06,0-.1.1a1.06,1.06,0,0,0-.15.41,3.21,3.21,0,0,1-.32.93,1.46,1.46,0,0,1-.29.41.48.48,0,0,1-.44.2.44.44,0,0,0,.36-.27,2,2,0,0,0,.22-.41,4.35,4.35,0,0,0,.25-.91,1.33,1.33,0,0,1,.2-.48.4.4,0,0,1,.28-.18.57.57,0,0,1,.27.13.53.53,0,0,1,.17.5A.9.9,0,0,1,75.55,48.26Z"/><path class="cls-1" d="M74.88,47.86a.59.59,0,0,0-.09-.59c-.13-.16-.35-.19-.38,0A3.26,3.26,0,0,1,74,48.54a1.77,1.77,0,0,1-1,.91,1.73,1.73,0,0,1-.68,0,1.87,1.87,0,0,1-.52-.32,2.41,2.41,0,0,0,.55.22,1.79,1.79,0,0,0,.6-.09,1.75,1.75,0,0,0,.85-.85,4.28,4.28,0,0,0,.41-1.22.3.3,0,0,1,.32-.22.44.44,0,0,1,.3.21A.66.66,0,0,1,74.88,47.86Z"/><path class="cls-1" d="M71.43,46.54A5.91,5.91,0,0,1,73.7,47.8q.51.44,1,.9c.29.32.57.66.83,1-.64-.59-1.26-1.2-1.93-1.74-.32-.28-.67-.53-1-.78A6.45,6.45,0,0,0,71.43,46.54Z"/><path class="cls-1" d="M72.32,48.15a.77.77,0,0,1-.7-.52c.14.08.23.19.36.25S72.2,48,72.32,48.15Z"/><path class="cls-1" d="M70.41,61.42a1.43,1.43,0,0,1-1.36-1.19l.18,0a.69.69,0,0,1-.6.24,2.32,2.32,0,0,1-.59,0A2.24,2.24,0,0,1,67,59.92l.18-.11a2.48,2.48,0,0,0,.27.58,1,1,0,0,1,.1.71c-.08.26-.37.36-.32.53s.36.18.53.32c-.18-.13-.46,0-.62-.28a.36.36,0,0,1,.1-.36.59.59,0,0,0,.16-.25.88.88,0,0,0-.14-.58,2.38,2.38,0,0,1-.3-.62l-.08-.34.27.23a2.31,2.31,0,0,0,1.5.54c.18,0,.37,0,.43-.12l.16-.24,0,.28A1.41,1.41,0,0,0,70.41,61.42Z"/><path class="cls-1" d="M68.57,59.78a5.19,5.19,0,0,1-.06.89,1.84,1.84,0,0,0,.12.86,1.24,1.24,0,0,1-.31-.87A6.78,6.78,0,0,1,68.57,59.78Z"/><path class="cls-1" d="M67.71,59.72a.63.63,0,0,1-.37-.61C67.48,59.32,67.58,59.5,67.71,59.72Z"/><path class="cls-1" d="M76.5,37.45c-.53.83-1.1,1.63-1.67,2.43s-1.15,1.59-1.77,2.36L72.89,42c1.33-.39,2.68-.76,4-1.06-1.3.51-2.62,1-4,1.37l-.46.15.28-.4c.58-.8,1.2-1.56,1.8-2.34S75.84,38.18,76.5,37.45Z"/><path class="cls-1" d="M75.24,40.36c.31.3.59.63.88,1s.55.66.81,1l.08.1h-.12l-1-.06a7.73,7.73,0,0,1,1-.06l0,.09a11.15,11.15,0,0,1-.83-1A12.68,12.68,0,0,1,75.24,40.36Z"/><path class="cls-1" d="M51,69.93a3.52,3.52,0,0,0-.71.89.85.85,0,0,0-.12,1,.73.73,0,0,0,.35.32.33.33,0,0,1,.18.16.25.25,0,0,1-.07.25c-.09.09-.09.09-.1.17a2,2,0,0,0,.07.25c0,.18-.07.24-.11.33a2,2,0,0,1-.43.4,1.86,1.86,0,0,0,.32-.47c0-.08.1-.2.06-.2a1.58,1.58,0,0,1-.12-.29.38.38,0,0,1,.13-.34s0,0,0,0,0,0,0,0a1,1,0,0,1-.5-.42,1.05,1.05,0,0,1,.2-1.2,2.32,2.32,0,0,1,.39-.44Z"/><path class="cls-1" d="M52.1,71.88a2.46,2.46,0,0,0-.24.45c-.07.15,0,.3,0,.5a1.07,1.07,0,0,1-.63.83,1.36,1.36,0,0,0,.47-.84,1.1,1.1,0,0,1,.06-.53A1,1,0,0,1,52.1,71.88Z"/><path class="cls-1" d="M49.68,75.29a6.13,6.13,0,0,1,1-.81,1.69,1.69,0,0,1,.69-.09,2.2,2.2,0,0,0,.58-.07,1.16,1.16,0,0,0,.81-.66.75.75,0,0,0,0-.49,2.07,2.07,0,0,0-.12-.3.58.58,0,0,1,0-.43l.08.19a.87.87,0,0,0-.48,0,.57.57,0,0,1-.55-.12.54.54,0,0,0,.51,0,.81.81,0,0,1,.61-.1l.13,0-.06.16a.25.25,0,0,0,0,.19,2,2,0,0,1,.17.28,1.1,1.1,0,0,1,0,.76,1.4,1.4,0,0,1-1.09.92,2.68,2.68,0,0,1-.69,0c-.21,0-.41-.07-.58,0C50.46,74.89,50.08,75.13,49.68,75.29Z"/><path class="cls-1" d="M58.89,71.15a.81.81,0,0,0,.38-.27c.1-.12.19-.25.13-.38a.44.44,0,0,0-.07-.17s-.07,0-.14,0a1.13,1.13,0,0,0-.4.19,3.62,3.62,0,0,1-.88.44,2,2,0,0,1-.5.08.51.51,0,0,1-.45-.17.46.46,0,0,0,.45.06,1.87,1.87,0,0,0,.44-.14,3.91,3.91,0,0,0,.82-.46,1.33,1.33,0,0,1,.49-.2.38.38,0,0,1,.31.07.4.4,0,0,1,.1.28.51.51,0,0,1-.22.48A.89.89,0,0,1,58.89,71.15Z"/><path class="cls-1" d="M58.71,70.4a.63.63,0,0,0,.35-.48c0-.21-.11-.39-.27-.26a3.58,3.58,0,0,1-1.16.62,1.73,1.73,0,0,1-1.34-.06,1.8,1.8,0,0,1-.5-.45,2.15,2.15,0,0,1-.15-.61,3.07,3.07,0,0,0,.24.55,1.6,1.6,0,0,0,.49.36,1.66,1.66,0,0,0,1.2,0,4.11,4.11,0,0,0,1.15-.57.3.3,0,0,1,.38.07.44.44,0,0,1,.07.36A.7.7,0,0,1,58.71,70.4Z"/><path class="cls-1" d="M57.2,67a5.92,5.92,0,0,1,.72,2.5,11.46,11.46,0,0,1,0,1.31,11.21,11.21,0,0,1-.12,1.3c0-.87,0-1.73-.13-2.59a11.22,11.22,0,0,0-.17-1.28A6.67,6.67,0,0,0,57.2,67Z"/><path class="cls-1" d="M56.69,68.79a.93.93,0,0,1-.2-.41.84.84,0,0,1,.08-.45c0,.15,0,.29.07.42S56.69,68.63,56.69,68.79Z"/><path class="cls-1" d="M46,76.81a1.43,1.43,0,0,1-.12-1.8l.1.15c-.28.06-.45-.14-.59-.25a2.82,2.82,0,0,1-.38-.46,2.3,2.3,0,0,1-.37-1.13l.21.05a3,3,0,0,0-.23.6,1,1,0,0,1-.43.57c-.23.14-.51,0-.6.15s.14.38.15.6c0-.22-.31-.35-.23-.64s.22-.17.32-.18a.45.45,0,0,0,.29-.07.86.86,0,0,0,.31-.5,2.68,2.68,0,0,1,.23-.65l.18-.3,0,.35a2.48,2.48,0,0,0,.35,1,2,2,0,0,0,.33.43c.13.13.28.24.4.22l.28-.06-.18.22A1.41,1.41,0,0,0,46,76.81Z"/><path class="cls-1" d="M45.81,74.35a5.15,5.15,0,0,1-.67.58,1.78,1.78,0,0,0-.52.69A1.2,1.2,0,0,1,45,74.8,5.8,5.8,0,0,1,45.81,74.35Z"/><path class="cls-1" d="M45.25,73.69a.62.62,0,0,1,.18-.69C45.37,73.25,45.31,73.45,45.25,73.69Z"/><path class="cls-1" d="M67.22,64.18c-1,.22-1.93.38-2.9.54s-1.94.31-2.91.42l.05-.31c1.22.67,2.43,1.36,3.61,2.11-1.28-.56-2.53-1.18-3.76-1.82l-.44-.23.49-.08c1-.15,2-.25,2.92-.38S66.24,64.23,67.22,64.18Z"/><path class="cls-1" d="M64.27,65.35c0,.43,0,.86,0,1.29s-.08.86-.14,1.29v.13L64,68q-.33-.34-.63-.72a8.62,8.62,0,0,1,.71.63l-.1,0c0-.43.05-.86.12-1.29S64.18,65.77,64.27,65.35Z"/><path class="cls-1" d="M26.25,69.11a3.81,3.81,0,0,0-1.13.12.85.85,0,0,0-.76.58.69.69,0,0,0,0,.49.33.33,0,0,1,0,.23.25.25,0,0,1-.23.13c-.12,0-.12,0-.19,0s-.06.13-.12.23-.22.12-.31.15a1.67,1.67,0,0,1-.59,0,1.74,1.74,0,0,0,.56-.11c.08,0,.21-.06.18-.09a1.7,1.7,0,0,1,.12-.3.41.41,0,0,1,.34-.15s0,0,0,0,0,0,0,0a1,1,0,0,1-.06-.65,1,1,0,0,1,1-.71,2.43,2.43,0,0,1,.6,0Z"/><path class="cls-1" d="M25.61,71.23a3,3,0,0,0-.48.15c-.16.07-.22.21-.35.36a1.12,1.12,0,0,1-1,.14,1.34,1.34,0,0,0,.93-.27c.11-.09.22-.27.41-.33A1.08,1.08,0,0,1,25.61,71.23Z"/><path class="cls-1" d="M21.49,71.93a6.69,6.69,0,0,1,1.31.16,1.85,1.85,0,0,1,.55.43,2.21,2.21,0,0,0,.46.36,1.16,1.16,0,0,0,1,.11.71.71,0,0,0,.37-.33,2.23,2.23,0,0,0,.13-.3.54.54,0,0,1,.34-.27l-.08.19c0-.12-.19-.22-.34-.33s-.34-.27-.32-.47a.61.61,0,0,0,.39.33.8.8,0,0,1,.51.36l.07.12-.15.06a.27.27,0,0,0-.13.15c0,.1,0,.17-.08.31a1.07,1.07,0,0,1-.53.54,1.39,1.39,0,0,1-1.42-.11,2.56,2.56,0,0,1-.52-.46c-.16-.14-.24-.34-.4-.42C22.33,72.21,21.88,72.1,21.49,71.93Z"/><path class="cls-1" d="M30.93,75.53a.81.81,0,0,0,.46.07c.15,0,.31,0,.36-.17a.47.47,0,0,0,.07-.17.28.28,0,0,0-.1-.1,1.12,1.12,0,0,0-.41-.15,3.27,3.27,0,0,1-.94-.32A1.81,1.81,0,0,1,30,74.4a.47.47,0,0,1-.19-.44.42.42,0,0,0,.27.36,1.6,1.6,0,0,0,.41.22,3.82,3.82,0,0,0,.91.25,1.35,1.35,0,0,1,.48.21.34.34,0,0,1,.17.27.46.46,0,0,1-.13.27.5.5,0,0,1-.49.17A.89.89,0,0,1,30.93,75.53Z"/><path class="cls-1" d="M31.33,74.86a.59.59,0,0,0,.59-.09c.17-.13.2-.34,0-.37A3.57,3.57,0,0,1,30.65,74a1.79,1.79,0,0,1-.9-1,1.73,1.73,0,0,1,0-.68,1.87,1.87,0,0,1,.32-.52,2.41,2.41,0,0,0-.22.55,1.79,1.79,0,0,0,.09.6,1.71,1.71,0,0,0,.85.85,3.84,3.84,0,0,0,1.21.41.32.32,0,0,1,.23.32.49.49,0,0,1-.22.3A.66.66,0,0,1,31.33,74.86Z"/><path class="cls-1" d="M32.66,71.41a5.85,5.85,0,0,1-1.27,2.28,11.5,11.5,0,0,1-.9,1,11.3,11.3,0,0,1-1,.82c.59-.63,1.2-1.25,1.74-1.91a12.65,12.65,0,0,0,.79-1A7,7,0,0,0,32.66,71.41Z"/><path class="cls-1" d="M31.05,72.3a.86.86,0,0,1,.15-.43.81.81,0,0,1,.37-.26,3.79,3.79,0,0,0-.25.35C31.21,72.06,31.16,72.19,31.05,72.3Z"/><path class="cls-1" d="M17.78,70.36A1.43,1.43,0,0,1,19,69l0,.18a.68.68,0,0,1-.23-.6,2.43,2.43,0,0,1,.05-.6,2.35,2.35,0,0,1,.54-1l.11.18a2.89,2.89,0,0,0-.58.26,1,1,0,0,1-.71.1c-.26-.07-.35-.37-.53-.32s-.18.37-.32.53c.13-.18,0-.46.29-.61s.28,0,.35.1a.56.56,0,0,0,.25.15.87.87,0,0,0,.58-.13,2.55,2.55,0,0,1,.62-.3l.34-.08-.23.26a2.52,2.52,0,0,0-.48,1,2.33,2.33,0,0,0-.06.53c0,.18,0,.37.12.44l.24.16-.28,0A1.43,1.43,0,0,0,17.78,70.36Z"/><path class="cls-1" d="M19.43,68.53a6.3,6.3,0,0,1-.89-.07,1.85,1.85,0,0,0-.86.13,1.22,1.22,0,0,1,.86-.31A6.49,6.49,0,0,1,19.43,68.53Z"/><path class="cls-1" d="M19.49,67.66a.64.64,0,0,1,.61-.36C19.89,67.44,19.71,67.54,19.49,67.66Z"/><path class="cls-1" d="M41.74,76.5c-.83-.53-1.63-1.1-2.43-1.67S37.73,73.67,37,73.06l.26-.18c.39,1.34.75,2.68,1.05,4.05-.51-1.3-1-2.62-1.36-4l-.15-.47.4.29c.79.58,1.56,1.2,2.33,1.8S41,75.84,41.74,76.5Z"/><path class="cls-1" d="M38.84,75.23c-.3.32-.64.6-1,.88s-.66.55-1,.82l-.1.07v-.12a7.73,7.73,0,0,1,.06-1q0,.48.06,1l-.1,0c.32-.28.64-.57,1-.83S38.47,75.47,38.84,75.23Z"/><path class="cls-1" d="M9.31,51a3.48,3.48,0,0,0-.88-.71.85.85,0,0,0-.95-.13.67.67,0,0,0-.32.36.38.38,0,0,1-.17.17.25.25,0,0,1-.25-.07c-.08-.08-.08-.09-.17-.1a1.91,1.91,0,0,0-.24.07c-.19,0-.24-.07-.33-.11A1.63,1.63,0,0,1,5.6,50a1.86,1.86,0,0,0,.47.32c.08,0,.19.1.2.06a1.15,1.15,0,0,1,.29-.12.38.38,0,0,1,.34.13s0,0,0,0,0,0,0,0a.91.91,0,0,1,.42-.49,1,1,0,0,1,1.19.19,2.47,2.47,0,0,1,.45.4Z"/><path class="cls-1" d="M7.36,52a3.28,3.28,0,0,0-.45-.24c-.15-.06-.3,0-.49,0a1.07,1.07,0,0,1-.84-.63,1.33,1.33,0,0,0,.85.47,1.08,1.08,0,0,1,.52.06A1,1,0,0,1,7.36,52Z"/><path class="cls-1" d="M4,49.61a5.5,5.5,0,0,1,.81,1,1.77,1.77,0,0,1,.1.7,1.6,1.6,0,0,0,.07.58,1.17,1.17,0,0,0,.65.81.75.75,0,0,0,.49,0,2.07,2.07,0,0,0,.3-.12.53.53,0,0,1,.43.06l-.19.07a.86.86,0,0,0,0-.48.55.55,0,0,1,.11-.55.57.57,0,0,0,0,.51.81.81,0,0,1,.1.61l0,.13-.16,0a.21.21,0,0,0-.19,0,2,2,0,0,1-.28.17,1.1,1.1,0,0,1-.76,0A1.42,1.42,0,0,1,4.52,52a2.31,2.31,0,0,1,0-.69c0-.21.07-.41,0-.58C4.35,50.39,4.11,50,4,49.61Z"/><path class="cls-1" d="M8.08,58.83a.86.86,0,0,0,.27.38c.12.1.25.18.37.13s.15,0,.17-.07,0-.07,0-.14a1,1,0,0,0-.18-.4,3.89,3.89,0,0,1-.44-.89,2,2,0,0,1-.08-.49.49.49,0,0,1,.17-.45.43.43,0,0,0-.06.44,1.94,1.94,0,0,0,.14.45,4.17,4.17,0,0,0,.46.82,1.27,1.27,0,0,1,.19.48.34.34,0,0,1-.07.32.53.53,0,0,1-.28.1.52.52,0,0,1-.47-.23A.86.86,0,0,1,8.08,58.83Z"/><path class="cls-1" d="M8.83,58.64a.63.63,0,0,0,.48.36c.21,0,.38-.11.26-.28A3.63,3.63,0,0,1,9,57.57,1.78,1.78,0,0,1,9,56.23a1.69,1.69,0,0,1,.46-.5,1.8,1.8,0,0,1,.6-.15,2.73,2.73,0,0,0-.54.24,1.51,1.51,0,0,0-.37.49,1.71,1.71,0,0,0,0,1.2,4.11,4.11,0,0,0,.57,1.15.3.3,0,0,1-.07.38.47.47,0,0,1-.36.06A.66.66,0,0,1,8.83,58.64Z"/><path class="cls-1" d="M12.21,57.14a5.88,5.88,0,0,1-2.5.72c-.44,0-.87,0-1.31,0a11.45,11.45,0,0,1-1.3-.13c.87,0,1.73,0,2.59-.13A9.33,9.33,0,0,0,11,57.47,6,6,0,0,0,12.21,57.14Z"/><path class="cls-1" d="M10.45,56.63a.74.74,0,0,1,.86-.12c-.16,0-.29,0-.43.07S10.6,56.63,10.45,56.63Z"/><path class="cls-1" d="M2.45,45.87a1.43,1.43,0,0,1,1.8-.11l-.16.1a.69.69,0,0,1,.26-.59,2.07,2.07,0,0,1,.46-.38,2.26,2.26,0,0,1,1.13-.37l-.05.21a2.5,2.5,0,0,0-.6-.23.94.94,0,0,1-.57-.43c-.14-.24,0-.51-.15-.6s-.38.13-.6.14c.22,0,.35-.3.64-.23a.37.37,0,0,1,.18.33.42.42,0,0,0,.07.28.78.78,0,0,0,.49.31,3.11,3.11,0,0,1,.66.24l.29.18-.35,0a2.47,2.47,0,0,0-1,.34,2.72,2.72,0,0,0-.42.34c-.13.13-.25.28-.22.39l0,.28-.21-.18A1.44,1.44,0,0,0,2.45,45.87Z"/><path class="cls-1" d="M4.91,45.74a4.64,4.64,0,0,1-.58-.68,1.82,1.82,0,0,0-.7-.51,1.23,1.23,0,0,1,.83.39A6.3,6.3,0,0,1,4.91,45.74Z"/><path class="cls-1" d="M5.56,45.17a.64.64,0,0,1,.69.19Z"/><path class="cls-1" d="M15,67.17c-.21-1-.37-1.93-.54-2.9s-.3-1.94-.4-2.92l.3.06c-.67,1.22-1.36,2.43-2.12,3.6.56-1.28,1.19-2.52,1.84-3.76l.22-.43.08.49c.15,1,.25,1.95.38,2.92S15,66.18,15,67.17Z"/><path class="cls-1" d="M13.87,64.22c-.43,0-.86,0-1.29-.06s-.86-.08-1.29-.14h-.13l.09-.09q.35-.33.72-.63-.3.38-.63.72l0-.11c.43,0,.86.05,1.29.12S13.45,64.12,13.87,64.22Z"/><path class="cls-1" d="M10.19,26.18a3.48,3.48,0,0,0-.13-1.12.86.86,0,0,0-.57-.77.76.76,0,0,0-.49,0,.29.29,0,0,1-.23,0,.23.23,0,0,1-.13-.22c0-.12,0-.13-.05-.19a1.2,1.2,0,0,0-.23-.12c-.16-.1-.11-.23-.15-.31a1.94,1.94,0,0,1,0-.59,2,2,0,0,0,.11.55c0,.09.07.21.09.19a1.17,1.17,0,0,1,.3.12.41.41,0,0,1,.15.33c0,.05,0,0,0,0s0,0,0,0a1,1,0,0,1,.65,0,1,1,0,0,1,.71,1,3,3,0,0,1,0,.6Z"/><path class="cls-1" d="M8.06,25.55a3.5,3.5,0,0,0-.14-.49c-.07-.15-.21-.22-.36-.35a1.12,1.12,0,0,1-.14-1,1.34,1.34,0,0,0,.27.93c.09.11.27.23.33.42A1.06,1.06,0,0,1,8.06,25.55Z"/><path class="cls-1" d="M7.37,21.42a5.46,5.46,0,0,1-.16,1.31,1.89,1.89,0,0,1-.43.56,2,2,0,0,0-.36.46,1.13,1.13,0,0,0-.11,1,.71.71,0,0,0,.33.37,2.23,2.23,0,0,0,.3.13.55.55,0,0,1,.26.34L7,25.53c.12,0,.22-.19.33-.34s.27-.33.47-.31a.57.57,0,0,0-.33.39.85.85,0,0,1-.36.51L7,25.84l-.07-.15a.23.23,0,0,0-.14-.13,1.78,1.78,0,0,1-.31-.08A1.07,1.07,0,0,1,6,25a1.37,1.37,0,0,1,.12-1.42A2.51,2.51,0,0,1,6.52,23c.15-.16.34-.24.42-.4C7.1,22.26,7.2,21.81,7.37,21.42Z"/><path class="cls-1" d="M3.76,30.86a.81.81,0,0,0-.08.46c0,.15,0,.3.17.35s.13.08.17.07.06,0,.1-.1a1.25,1.25,0,0,0,.16-.41,3.63,3.63,0,0,1,.31-.93,1.73,1.73,0,0,1,.3-.41.49.49,0,0,1,.43-.2A.44.44,0,0,0,5,30a1.62,1.62,0,0,0-.22.41,4.11,4.11,0,0,0-.26.91,1.26,1.26,0,0,1-.2.48.4.4,0,0,1-.28.18.49.49,0,0,1-.26-.13.52.52,0,0,1-.18-.5A.83.83,0,0,1,3.76,30.86Z"/><path class="cls-1" d="M4.42,31.26a.64.64,0,0,0,.09.59c.13.16.35.19.38,0a3.38,3.38,0,0,1,.38-1.26,1.77,1.77,0,0,1,1-.9,1.79,1.79,0,0,1,.69,0,1.87,1.87,0,0,1,.52.32,3.3,3.3,0,0,0-.55-.22,1.79,1.79,0,0,0-.6.09,1.64,1.64,0,0,0-.85.85A3.85,3.85,0,0,0,5,31.9a.29.29,0,0,1-.32.22.44.44,0,0,1-.3-.21A.66.66,0,0,1,4.42,31.26Z"/><path class="cls-1" d="M7.87,32.59A5.74,5.74,0,0,1,5.6,31.32a10.51,10.51,0,0,1-1.78-1.91c.64.59,1.25,1.2,1.92,1.74a11.11,11.11,0,0,0,1,.79A6.45,6.45,0,0,0,7.87,32.59Z"/><path class="cls-1" d="M7,31a.86.86,0,0,1,.43.15.92.92,0,0,1,.26.38c-.14-.08-.22-.19-.35-.26S7.1,31.09,7,31Z"/><path class="cls-1" d="M9,17.72a1.44,1.44,0,0,1,1.36,1.19l-.19,0a.68.68,0,0,1,.6-.23,2.43,2.43,0,0,1,.6.05,2.3,2.3,0,0,1,1,.54l-.18.11a2.89,2.89,0,0,0-.26-.58,1,1,0,0,1-.1-.71c.07-.26.37-.35.32-.53s-.36-.17-.53-.32c.18.13.47,0,.62.29a.32.32,0,0,1-.11.35.63.63,0,0,0-.15.26.86.86,0,0,0,.13.57,2.74,2.74,0,0,1,.3.62l.08.34-.26-.23a2.31,2.31,0,0,0-1.5-.54c-.18,0-.37,0-.44.12l-.16.24,0-.28A1.41,1.41,0,0,0,9,17.72Z"/><path class="cls-1" d="M10.78,19.37a6.3,6.3,0,0,1,.07-.89,1.84,1.84,0,0,0-.12-.86,1.17,1.17,0,0,1,.3.86A5.33,5.33,0,0,1,10.78,19.37Z"/><path class="cls-1" d="M11.65,19.43a.62.62,0,0,1,.35.62C11.87,19.83,11.77,19.65,11.65,19.43Z"/><path class="cls-1" d="M2.76,41.67c.54-.83,1.11-1.63,1.68-2.43s1.16-1.58,1.78-2.35l.17.26c-1.33.39-2.68.75-4,1,1.31-.5,2.63-.94,4-1.35l.47-.15-.3.4c-.57.8-1.2,1.55-1.8,2.33S3.43,40.94,2.76,41.67Z"/><path class="cls-1" d="M4,38.76c-.32-.3-.59-.63-.88-.95s-.55-.67-.81-1l-.08-.1h.12a7.73,7.73,0,0,1,1,.06c-.32,0-.64.05-1,.06l0-.1c.28.33.58.65.83,1S3.8,38.4,4,38.76Z"/><path class="cls-1" d="M28.35,9.29a3.48,3.48,0,0,0,.71-.88.85.85,0,0,0,.14-1,.72.72,0,0,0-.36-.33A.26.26,0,0,1,28.67,7a.23.23,0,0,1,.07-.25c.08-.09.09-.09.1-.17a2.23,2.23,0,0,0-.08-.24c0-.19.08-.25.11-.33a1.67,1.67,0,0,1,.44-.4,1.63,1.63,0,0,0-.32.47c0,.08-.1.19-.06.19a2.33,2.33,0,0,1,.12.3.41.41,0,0,1-.13.34s0,0,0,0,0,0,0,0a1,1,0,0,1,.5.42,1.05,1.05,0,0,1-.2,1.2,2.87,2.87,0,0,1-.39.45Z"/><path class="cls-1" d="M27.31,7.34a4,4,0,0,0,.24-.45,1.21,1.21,0,0,0,0-.5,1.1,1.1,0,0,1,.64-.83,1.29,1.29,0,0,0-.47.84,1.24,1.24,0,0,1-.06.53A1.14,1.14,0,0,1,27.31,7.34Z"/><path class="cls-1" d="M29.74,3.93a5.57,5.57,0,0,1-1,.81,1.59,1.59,0,0,1-.7.09,2.2,2.2,0,0,0-.58.07,1.17,1.17,0,0,0-.81.65.78.78,0,0,0,0,.5c0,.06.08.19.12.3a.52.52,0,0,1-.06.42l-.07-.19a.83.83,0,0,0,.47,0,.61.61,0,0,1,.56.11.57.57,0,0,0-.51,0,.88.88,0,0,1-.62.11l-.13,0,.06-.15a.23.23,0,0,0,0-.2,2.76,2.76,0,0,1-.16-.27,1.13,1.13,0,0,1,0-.77,1.39,1.39,0,0,1,1.09-.91,2.75,2.75,0,0,1,.7,0c.2,0,.4.08.57,0C29,4.33,29.34,4.09,29.74,3.93Z"/><path class="cls-1" d="M20.51,8a.81.81,0,0,0-.38.27c-.1.11-.19.25-.14.37a.73.73,0,0,0,.07.17.23.23,0,0,0,.15,0,1.08,1.08,0,0,0,.4-.18,3.27,3.27,0,0,1,.88-.43A1.36,1.36,0,0,1,22,8.16a.47.47,0,0,1,.45.17A.41.41,0,0,0,22,8.27a1.39,1.39,0,0,0-.44.13,4,4,0,0,0-.83.46,1.13,1.13,0,0,1-.48.19A.34.34,0,0,1,19.92,9a.53.53,0,0,1-.1-.28.52.52,0,0,1,.23-.47A.89.89,0,0,1,20.51,8Z"/><path class="cls-1" d="M20.69,8.79a.63.63,0,0,0-.36.48c0,.21.11.38.28.26a3.63,3.63,0,0,1,1.15-.62A1.83,1.83,0,0,1,23.1,9a1.91,1.91,0,0,1,.51.47,2,2,0,0,1,.14.6,3.07,3.07,0,0,0-.24-.55A1.48,1.48,0,0,0,23,9.13a1.65,1.65,0,0,0-1.2,0,3.82,3.82,0,0,0-1.15.56.3.3,0,0,1-.38-.07.49.49,0,0,1-.06-.37A.67.67,0,0,1,20.69,8.79Z"/><path class="cls-1" d="M22.18,12.18a6.1,6.1,0,0,1-.71-2.51c0-.43,0-.87,0-1.31a11.47,11.47,0,0,1,.14-1.3c0,.87,0,1.74.12,2.59a9.14,9.14,0,0,0,.16,1.28A7,7,0,0,0,22.18,12.18Z"/><path class="cls-1" d="M22.7,10.41a.81.81,0,0,1,.19.41.84.84,0,0,1-.07.45c0-.15,0-.29-.07-.43S22.7,10.57,22.7,10.41Z"/><path class="cls-1" d="M33.48,2.43a1.46,1.46,0,0,1,.11,1.81l-.11-.16a.69.69,0,0,1,.59.26,2.44,2.44,0,0,1,.39.46,2.36,2.36,0,0,1,.36,1.13l-.21,0a3,3,0,0,0,.23-.6.94.94,0,0,1,.43-.57c.24-.14.51,0,.6-.15s-.13-.38-.14-.6c0,.22.3.35.23.64a.37.37,0,0,1-.33.18.44.44,0,0,0-.28.07.83.83,0,0,0-.32.5A2.68,2.68,0,0,1,34.8,6l-.18.29,0-.35a2.45,2.45,0,0,0-.33-1,2.31,2.31,0,0,0-.34-.42c-.12-.13-.27-.25-.39-.23l-.28.06.18-.22A1.42,1.42,0,0,0,33.48,2.43Z"/><path class="cls-1" d="M33.6,4.89a6,6,0,0,1,.68-.57,2,2,0,0,0,.52-.7,1.24,1.24,0,0,1-.4.83A5.21,5.21,0,0,1,33.6,4.89Z"/><path class="cls-1" d="M34.16,5.55a.62.62,0,0,1-.18.69C34,6,34.1,5.79,34.16,5.55Z"/><path class="cls-1" d="M12.15,15c1-.21,1.93-.37,2.9-.53S17,14.15,18,14l-.06.31c-1.22-.67-2.42-1.37-3.59-2.13,1.27.56,2.52,1.19,3.75,1.84l.43.23-.49.08c-1,.15-2,.24-2.92.36S13.14,14.93,12.15,15Z"/><path class="cls-1" d="M15.11,13.82c0-.43,0-.86.05-1.3s.09-.85.14-1.28l0-.13.09.09q.33.35.63.72-.37-.3-.72-.63l.1,0c0,.43-.05.86-.11,1.29S15.2,13.4,15.11,13.82Z"/><path class="cls-1" d="M53.15,10.22a3.78,3.78,0,0,0,1.12-.13A.86.86,0,0,0,55,9.52.79.79,0,0,0,55,9a.27.27,0,0,1,0-.24.26.26,0,0,1,.23-.13c.11,0,.12,0,.18-.05s.07-.13.13-.22.22-.12.31-.16a1.94,1.94,0,0,1,.59,0,1.47,1.47,0,0,0-.56.11c-.08,0-.21.06-.18.09a1.75,1.75,0,0,1-.13.29c0,.11-.26.16-.33.15s0,0,0,0,0,0,0,0a.93.93,0,0,1,0,.64,1,1,0,0,1-1,.71,2.42,2.42,0,0,1-.6,0Z"/><path class="cls-1" d="M53.79,8.09A3,3,0,0,0,54.27,8c.16-.07.22-.21.36-.36a1.08,1.08,0,0,1,1-.13,1.3,1.3,0,0,0-.94.26c-.11.09-.22.27-.41.33A1.07,1.07,0,0,1,53.79,8.09Z"/><path class="cls-1" d="M57.91,7.41a6,6,0,0,1-1.3-.17,1.62,1.62,0,0,1-.56-.42,2,2,0,0,0-.46-.37,1.18,1.18,0,0,0-1-.11.8.8,0,0,0-.37.33c0,.06-.08.2-.13.3a.52.52,0,0,1-.34.26l.09-.18c0,.12.18.22.33.33s.34.27.32.47a.59.59,0,0,0-.39-.33.83.83,0,0,1-.51-.36L53.49,7,53.64,7a.22.22,0,0,0,.14-.14,1.63,1.63,0,0,1,.07-.31A1.09,1.09,0,0,1,54.39,6a1.39,1.39,0,0,1,1.42.12,2.56,2.56,0,0,1,.52.46c.15.14.24.34.4.41C57.08,7.13,57.52,7.24,57.91,7.41Z"/><path class="cls-1" d="M48.49,3.78A.74.74,0,0,0,48,3.7c-.15,0-.31,0-.36.17A.47.47,0,0,0,47.6,4s0,.06.1.1a1.06,1.06,0,0,0,.41.15,3.54,3.54,0,0,1,.93.32,1.73,1.73,0,0,1,.41.3.45.45,0,0,1,.19.44A.41.41,0,0,0,49.38,5,1.62,1.62,0,0,0,49,4.77a4.11,4.11,0,0,0-.91-.26,1.2,1.2,0,0,1-.48-.21A.34.34,0,0,1,47.41,4a.52.52,0,0,1,.12-.27.54.54,0,0,1,.5-.17A.86.86,0,0,1,48.49,3.78Z"/><path class="cls-1" d="M48.08,4.44a.59.59,0,0,0-.59.09c-.16.13-.19.34,0,.37a3.57,3.57,0,0,1,1.26.38,1.84,1.84,0,0,1,.9,1,1.73,1.73,0,0,1,0,.68,2.13,2.13,0,0,1-.33.52,2.41,2.41,0,0,0,.22-.55,1.77,1.77,0,0,0-.08-.6,1.68,1.68,0,0,0-.85-.85,3.85,3.85,0,0,0-1.21-.42.3.3,0,0,1-.22-.32.44.44,0,0,1,.21-.3A.66.66,0,0,1,48.08,4.44Z"/><path class="cls-1" d="M46.74,7.89A5.76,5.76,0,0,1,48,5.62a10.11,10.11,0,0,1,.9-1,9.78,9.78,0,0,1,1-.82c-.59.63-1.2,1.24-1.74,1.91a9.48,9.48,0,0,0-.79,1A6.33,6.33,0,0,0,46.74,7.89Z"/><path class="cls-1" d="M48.36,7a.9.9,0,0,1-.16.43.83.83,0,0,1-.37.27c.08-.14.19-.23.25-.36A3.39,3.39,0,0,0,48.36,7Z"/><path class="cls-1" d="M61.62,9a1.45,1.45,0,0,1-1.2,1.35l0-.19a.71.71,0,0,1,.23.61,1.94,1.94,0,0,1-.06.59,2.28,2.28,0,0,1-.54,1.06L60,12.23a2.26,2.26,0,0,0,.58-.26,1,1,0,0,1,.71-.1c.27.08.36.38.53.33s.18-.37.33-.53c-.14.18,0,.46-.29.61a.34.34,0,0,1-.36-.1.48.48,0,0,0-.25-.15.79.79,0,0,0-.57.13,2.62,2.62,0,0,1-.63.29l-.34.08.23-.26a2.37,2.37,0,0,0,.49-1,2.48,2.48,0,0,0,.06-.54c0-.18,0-.37-.12-.44l-.24-.15.28,0A1.42,1.42,0,0,0,61.62,9Z"/><path class="cls-1" d="M60,10.82a6.42,6.42,0,0,1,.89.07,1.72,1.72,0,0,0,.86-.12,1.24,1.24,0,0,1-.87.31A6.82,6.82,0,0,1,60,10.82Z"/><path class="cls-1" d="M59.9,11.69a.65.65,0,0,1-.62.36C59.49,11.91,59.68,11.81,59.9,11.69Z"/><path class="cls-1" d="M37.68,2.76c.83.53,1.62,1.11,2.42,1.68s1.58,1.16,2.34,1.78l-.25.18c-.39-1.34-.74-2.69-1-4.05.51,1.3.94,2.62,1.35,4l.14.47-.39-.29c-.8-.58-1.55-1.2-2.33-1.81S38.41,3.42,37.68,2.76Z"/><path class="cls-1" d="M40.58,4c.3-.32.63-.59,1-.88s.67-.54,1-.81l.1-.07V2.4c0,.32,0,.64-.07,1,0-.32,0-.64,0-1l.09.05c-.32.28-.64.57-1,.82S41,3.81,40.58,4Z"/><path class="cls-1" d="M70,28.42a3.71,3.71,0,0,0,.88.71.85.85,0,0,0,1,.13.7.7,0,0,0,.33-.35.26.26,0,0,1,.16-.17.23.23,0,0,1,.25.07c.09.08.09.08.17.09a1.22,1.22,0,0,0,.25-.07c.18,0,.24.08.32.11a1.84,1.84,0,0,1,.4.44,1.63,1.63,0,0,0-.47-.32c-.08,0-.19-.1-.19-.06a2.33,2.33,0,0,1-.3.12.39.39,0,0,1-.34-.14s0,0,0,0,0,0,0,0a.92.92,0,0,1-.42.49,1,1,0,0,1-1.2-.19,2.47,2.47,0,0,1-.45-.4Z"/><path class="cls-1" d="M72,27.37a2.46,2.46,0,0,0,.45.24c.15.07.3,0,.49,0a1.09,1.09,0,0,1,.83.64,1.29,1.29,0,0,0-.84-.47,1.46,1.46,0,0,1-.53-.06A1.13,1.13,0,0,1,72,27.37Z"/><path class="cls-1" d="M75.35,29.81a5.62,5.62,0,0,1-.8-1,1.58,1.58,0,0,1-.09-.7,2.25,2.25,0,0,0-.07-.58,1.15,1.15,0,0,0-.65-.81.75.75,0,0,0-.49,0,1.33,1.33,0,0,0-.3.12.58.58,0,0,1-.43-.06l.19-.07a.84.84,0,0,0,0,.47.59.59,0,0,1-.12.56.57.57,0,0,0,0-.51.84.84,0,0,1-.1-.62l0-.13.15.06a.25.25,0,0,0,.19,0,2.13,2.13,0,0,1,.28-.16,1.1,1.1,0,0,1,.76,0,1.4,1.4,0,0,1,.92,1.09,2.38,2.38,0,0,1,0,.7c0,.21-.07.41,0,.57C75,29,75.2,29.41,75.35,29.81Z"/><path class="cls-1" d="M71.27,20.57a.86.86,0,0,0-.27-.38c-.12-.1-.25-.19-.37-.13a.34.34,0,0,0-.17.07s0,.07,0,.14a1.13,1.13,0,0,0,.19.4,3.86,3.86,0,0,1,.43.89,1.93,1.93,0,0,1,.08.49.5.5,0,0,1-.17.45.43.43,0,0,0,.06-.44,1.91,1.91,0,0,0-.13-.45,4.17,4.17,0,0,0-.46-.82,1.41,1.41,0,0,1-.2-.49.38.38,0,0,1,.08-.32.44.44,0,0,1,.28-.09.52.52,0,0,1,.47.23A.83.83,0,0,1,71.27,20.57Z"/><path class="cls-1" d="M70.52,20.75A.61.61,0,0,0,70,20.4c-.21,0-.39.1-.26.27a3.38,3.38,0,0,1,.61,1.16,1.78,1.78,0,0,1-.06,1.34,1.83,1.83,0,0,1-.46.5,2.08,2.08,0,0,1-.61.14,3,3,0,0,0,.55-.23,2,2,0,0,0,.37-.49,1.71,1.71,0,0,0,0-1.2,3.82,3.82,0,0,0-.56-1.15.31.31,0,0,1,.07-.39.47.47,0,0,1,.36-.06A.7.7,0,0,1,70.52,20.75Z"/><path class="cls-1" d="M67.13,22.24a5.89,5.89,0,0,1,2.5-.7,9.59,9.59,0,0,1,1.31,0c.44,0,.87.07,1.3.13-.87,0-1.73,0-2.59.12a10.75,10.75,0,0,0-1.27.16A5.88,5.88,0,0,0,67.13,22.24Z"/><path class="cls-1" d="M68.89,22.76a.78.78,0,0,1-.41.19.79.79,0,0,1-.45-.08c.15,0,.29,0,.43-.06S68.73,22.76,68.89,22.76Z"/><path class="cls-1" d="M76.85,33.55a1.44,1.44,0,0,1-1.81.11l.16-.1a.69.69,0,0,1-.26.59,2.82,2.82,0,0,1-.46.38,2.28,2.28,0,0,1-1.13.36l.05-.21a2.5,2.5,0,0,0,.6.23,1,1,0,0,1,.57.43c.13.24,0,.51.15.61s.38-.14.6-.15c-.22,0-.35.31-.64.23a.34.34,0,0,1-.18-.33.61.61,0,0,0-.07-.28.82.82,0,0,0-.5-.31,3.25,3.25,0,0,1-.65-.24L73,34.69l.35,0a2.32,2.32,0,0,0,1-.33,2.27,2.27,0,0,0,.42-.33c.13-.13.25-.28.23-.4L75,33.32l.22.18A1.42,1.42,0,0,0,76.85,33.55Z"/><path class="cls-1" d="M74.39,33.67a7.08,7.08,0,0,1,.57.68,1.78,1.78,0,0,0,.69.52,1.17,1.17,0,0,1-.82-.4A5.21,5.21,0,0,1,74.39,33.67Z"/><path class="cls-1" d="M73.73,34.24a.64.64,0,0,1-.69-.19Z"/><path class="cls-1" d="M64.35,12.2c.21,1,.37,1.93.53,2.9s.29,2,.39,2.92L65,18c.67-1.21,1.37-2.42,2.13-3.59-.57,1.28-1.19,2.52-1.85,3.75l-.23.43L65,18.06c-.15-1-.25-1.94-.37-2.92S64.4,13.19,64.35,12.2Z"/><path class="cls-1" d="M65.5,15.16c.43,0,.86,0,1.29.06s.86.09,1.29.14l.13,0-.09.09a8.42,8.42,0,0,1-.72.62c.2-.25.41-.48.63-.71l0,.1c-.43,0-.86-.05-1.29-.12S65.92,15.26,65.5,15.16Z"/></g></g></svg>