<svg xmlns="http://www.w3.org/2000/svg" viewBox="0 0 34.25 19.12"><defs><style>.cls-1{fill:#8567b2;}</style></defs><title>Ресурс 37</title><g id="Слой_2" data-name="Слой 2"><g id="Слой_1-2" data-name="Слой 1"><path class="cls-1" d="M.13.3C2,1.37,3.85,2.56,5.65,3.79s3.52,2.58,5.21,4a23.43,23.43,0,0,1,4.67,4.76A13.1,13.1,0,0,1,17,15.65a6,6,0,0,1,.19,3.47H17A16.43,16.43,0,0,0,13.64,14c-1.37-1.53-2.6-3.26-4.08-4.8s-3-3-4.64-4.45S1.68,1.86,0,.5Z"/><path class="cls-1" d="M34.25.2C32.58,1.57,30.92,3,29.34,4.42s-3.16,2.92-4.63,4.47S22,12.17,20.65,13.7a16.54,16.54,0,0,0-3.34,5.17h-.24a6,6,0,0,1,.18-3.47,12.55,12.55,0,0,1,1.51-3.1,23.18,23.18,0,0,1,4.65-4.78c1.68-1.42,3.42-2.75,5.19-4S32.22,1.07,34.12,0Z"/></g></g></svg>