<svg xmlns="http://www.w3.org/2000/svg" viewBox="0 0 371.87 360.49"><defs><style>.cls-1{fill:#866bc6;}.cls-2{fill:none;stroke:#866bc6;stroke-miterlimit:10;stroke-width:3px;}</style></defs><title>Ресурс 62</title><g id="Слой_2" data-name="Слой 2"><g id="Слой_1-2" data-name="Слой 1"><path class="cls-1" d="M257.86,274.44a2.84,2.84,0,0,0,1.26-1,1.45,1.45,0,0,0,.43-1.29,2,2,0,0,0-.31-.59s0,0-.14,0a2,2,0,0,0-.34.06,4.07,4.07,0,0,0-1.36.69c-.45.3-.9.66-1.41,1a9.64,9.64,0,0,1-1.57.72,8,8,0,0,1-1.69.41,1.76,1.76,0,0,1-1.6-.55,1.72,1.72,0,0,0,1.54.18,12.24,12.24,0,0,0,1.52-.59,15.19,15.19,0,0,0,2.77-1.76,4.65,4.65,0,0,1,1.65-.77,3.73,3.73,0,0,1,.48,0,.86.86,0,0,1,.63.25,2.11,2.11,0,0,1,.41.92,1.82,1.82,0,0,1-.73,1.7A2.67,2.67,0,0,1,257.86,274.44Z" transform="translate(0)"/><path class="cls-1" d="M257.08,271.87a2.19,2.19,0,0,0,1.15-1.73,1.24,1.24,0,0,0-.27-.88.57.57,0,0,0-.72,0c-.25.16-.52.46-.84.69a9.11,9.11,0,0,1-.95.68,10.73,10.73,0,0,1-2.11,1,10.57,10.57,0,0,1-2.3.48,4.37,4.37,0,0,1-2.37-.44,7.8,7.8,0,0,1-1-.65,3.16,3.16,0,0,1-.85-.86,5.67,5.67,0,0,1-.39-1.11l-.15-.54-.07-.28a.32.32,0,0,1,0-.14s0-.07.06-.05,0,.06,0,.05-.05-.06,0,0a.31.31,0,0,0,0,.12l.13.26.23.51a4.94,4.94,0,0,0,.52,1,2.75,2.75,0,0,0,.8.66,7.64,7.64,0,0,0,1,.53,6.25,6.25,0,0,0,4.16-.24,10.47,10.47,0,0,0,2-.9,8.39,8.39,0,0,0,.92-.59,7.53,7.53,0,0,1,1-.67,1.39,1.39,0,0,1,.68-.16,1,1,0,0,1,.68.33,1.61,1.61,0,0,1,.28,1.25A2.26,2.26,0,0,1,257.08,271.87Z" transform="translate(0)"/><path class="cls-1" d="M251.3,260.41a14.1,14.1,0,0,1,1.92,4.12,26.88,26.88,0,0,1,1,4.44,34.25,34.25,0,0,1,.34,4.52l0,2.27c-.06.75-.1,1.51-.19,2.26l-.37-4.5c-.16-1.48-.29-3-.52-4.44s-.46-2.95-.79-4.4c-.16-.73-.35-1.45-.58-2.16A14.82,14.82,0,0,0,251.3,260.41Z" transform="translate(0)"/><path class="cls-1" d="M249.84,266.63a2.59,2.59,0,0,1-.57-3c.15.52.22,1,.32,1.47S249.78,266.09,249.84,266.63Z" transform="translate(0)"/><path class="cls-1" d="M115.32,278.66a4.67,4.67,0,0,1,1-3.1,5.1,5.1,0,0,1,2.86-1.8l-.11.64a1.57,1.57,0,0,1-.74-1,4.61,4.61,0,0,1-.18-1.06,8,8,0,0,1,.08-2.07,8.19,8.19,0,0,1,1.69-3.76l.43.64a9.32,9.32,0,0,0-2,1,3.47,3.47,0,0,1-2.44.47c-.93-.21-1.3-1.22-1.9-1a1.18,1.18,0,0,0-.58.81,2.64,2.64,0,0,1-.44,1.07,2.82,2.82,0,0,0,.26-1.11,1.39,1.39,0,0,1,.63-1.07.82.82,0,0,1,.7,0,2.09,2.09,0,0,1,.55.32,1.88,1.88,0,0,0,.9.49,2.94,2.94,0,0,0,2-.56,9,9,0,0,1,2.11-1.15l1.21-.37-.78,1a8,8,0,0,0-1.63,5.28c0,.62.12,1.27.48,1.49l.85.51-1,.13A4.93,4.93,0,0,0,115.32,278.66Z" transform="translate(0)"/><path class="cls-1" d="M120.71,272c-1.07,0-2.09-.11-3.09-.09a7.27,7.27,0,0,0-2.94.58,3.81,3.81,0,0,1,2.93-1.21A7.13,7.13,0,0,1,120.71,272Z" transform="translate(0)"/><path class="cls-1" d="M120.78,269a2.09,2.09,0,0,1,.82-1,2.07,2.07,0,0,1,1.25-.35c-.35.29-.7.46-1,.7S121.18,268.82,120.78,269Z" transform="translate(0)"/><path class="cls-1" d="M105.25,268.06c-.45-1.65-.85-3.31-1.25-5s-.74-3.33-1.1-5q-1-5-1.91-10l1.1.14c-2.12,4.34-4.33,8.64-6.76,12.83,1.73-4.53,3.67-9,5.7-13.33l.76-1.63.35,1.78c.65,3.34,1.23,6.69,1.77,10.05.26,1.69.52,3.37.74,5.06S105.09,266.36,105.25,268.06Z" transform="translate(0)"/><path class="cls-1" d="M100.74,258c-1.5.09-3,.1-4.5.06s-3-.12-4.49-.26l-.53-.05.37-.36c.78-.78,1.57-1.56,2.41-2.28-.65.91-1.35,1.76-2,2.61l-.17-.41c1.5,0,3,.09,4.49.19S99.25,257.79,100.74,258Z" transform="translate(0)"/><path class="cls-1" d="M81.56,126.91A14.42,14.42,0,0,0,81,123a3.26,3.26,0,0,0-2.19-2.53,2.38,2.38,0,0,0-1.65.18,1.07,1.07,0,0,1-.84,0,.73.73,0,0,1-.39-.4,1,1,0,0,1-.09-.37,2,2,0,0,0,0-.38.49.49,0,0,0-.17-.25,2,2,0,0,0-.78-.36.63.63,0,0,1-.34-.27.89.89,0,0,1-.13-.31,4.07,4.07,0,0,1-.13-.5,5.66,5.66,0,0,1,0-2.05,7.21,7.21,0,0,0,.48,1.92c.11.27.3.7.32.6a2.39,2.39,0,0,1,1.07.38,1.39,1.39,0,0,1,.45.53,2,2,0,0,1,.13.6c0,.16,0,.1,0,.06s0,0,.13-.08a3.31,3.31,0,0,1,2.24-.28,3.26,3.26,0,0,1,1.89,1.28,4.75,4.75,0,0,1,.8,2A9.15,9.15,0,0,1,81.56,126.91Z" transform="translate(0)"/><path class="cls-1" d="M74.09,125.06a8.06,8.06,0,0,0-.62-1.65,1.88,1.88,0,0,0-.53-.59,5.77,5.77,0,0,1-.72-.57,3.07,3.07,0,0,1-.82-1.74,4.21,4.21,0,0,1,.16-1.84,9.7,9.7,0,0,0,.27,1.75,3.47,3.47,0,0,0,.8,1.43,8.58,8.58,0,0,0,.67.56,2,2,0,0,1,.57.81A4,4,0,0,1,74.09,125.06Z" transform="translate(0)"/><path class="cls-1" d="M71,110.89c0,.75,0,1.5,0,2.25a10,10,0,0,1-.28,2.31,3.38,3.38,0,0,1-.64,1.16c-.27.33-.54.59-.76.84a8.47,8.47,0,0,0-1.17,1.66,3.83,3.83,0,0,0-.19,3.56,2.5,2.5,0,0,0,1.18,1.24c.24.14.55.16,1.06.38a1.84,1.84,0,0,1,1,1.14l-.68-.27c.4-.12.75-.66,1.09-1.21a3.35,3.35,0,0,1,.66-.8,1.35,1.35,0,0,1,.94-.36,1.35,1.35,0,0,0-.71.57,4.8,4.8,0,0,0-.38.83,6.55,6.55,0,0,1-.36,1,2.24,2.24,0,0,1-.8.89l-.4.23-.28-.5a.87.87,0,0,0-.51-.42c-.18-.07-.63-.08-1.08-.23a3.93,3.93,0,0,1-2-1.75,4.76,4.76,0,0,1-.57-2.55,5.83,5.83,0,0,1,.76-2.41,8.15,8.15,0,0,1,1.51-1.88c.61-.58,1.12-.87,1.36-1.45a14,14,0,0,0,.65-2C70.53,112.32,70.75,111.61,71,110.89Z" transform="translate(0)"/><path class="cls-1" d="M60.07,144.18a3.07,3.07,0,0,0-.18,1.61,1.45,1.45,0,0,0,.62,1.21,2.1,2.1,0,0,0,.63.21s0,0,.11-.08a3.06,3.06,0,0,0,.21-.29,4,4,0,0,0,.47-1.44c.11-.53.18-1.11.34-1.67a8.28,8.28,0,0,1,.6-1.62,8.41,8.41,0,0,1,.91-1.48,1.76,1.76,0,0,1,1.52-.74,1.69,1.69,0,0,0-1.21,1,10.52,10.52,0,0,0-.66,1.49,15.22,15.22,0,0,0-.74,3.2,4.5,4.5,0,0,1-.62,1.7,3.93,3.93,0,0,1-.31.38.81.81,0,0,1-.62.26,2,2,0,0,1-.94-.36,1.83,1.83,0,0,1-.69-1.72A2.81,2.81,0,0,1,60.07,144.18Z" transform="translate(0)"/><path class="cls-1" d="M62.44,145.46a2.19,2.19,0,0,0,.41,2,1.25,1.25,0,0,0,.81.44c.25,0,.43-.23.5-.52s0-.7.1-1.09a9.23,9.23,0,0,1,.2-1.15,10.91,10.91,0,0,1,.79-2.2,10.42,10.42,0,0,1,1.3-2,4.31,4.31,0,0,1,2-1.36,8.29,8.29,0,0,1,1.15-.22,3.09,3.09,0,0,1,1.21,0A4.93,4.93,0,0,1,72,140l.49.28.24.14a1,1,0,0,1,.13.09s0,.06,0,.08-.07,0,0,0,.08,0,0,0a.26.26,0,0,0-.12,0l-.27-.09-.53-.2a5,5,0,0,0-1-.32,2.88,2.88,0,0,0-1,.09,8.52,8.52,0,0,0-1,.3,6.25,6.25,0,0,0-2.78,3.11,11.53,11.53,0,0,0-1,3.1,8.62,8.62,0,0,1-.21,1.15,1.4,1.4,0,0,1-.37.6,1,1,0,0,1-.71.24,1.65,1.65,0,0,1-1.09-.68A2.26,2.26,0,0,1,62.44,145.46Z" transform="translate(0)"/><path class="cls-1" d="M74.62,149.51A14.35,14.35,0,0,1,70.36,148a26.84,26.84,0,0,1-3.83-2.46,33.62,33.62,0,0,1-3.44-3l-1.57-1.63c-.49-.58-1-1.14-1.46-1.73l3.43,2.92c1.17.94,2.3,1.91,3.5,2.79s2.41,1.76,3.66,2.56c.63.4,1.27.78,1.93,1.12A14.62,14.62,0,0,0,74.62,149.51Z" transform="translate(0)"/><path class="cls-1" d="M71.27,144.06a2.55,2.55,0,0,1,1.52.46,2.46,2.46,0,0,1,1,1.25c-.47-.27-.85-.56-1.26-.83S71.7,144.41,71.27,144.06Z" transform="translate(0)"/><path class="cls-1" d="M172.82,41.13c1.49.85,2.93,1.75,4.38,2.64s2.88,1.83,4.3,2.76c2.84,1.88,5.66,3.8,8.43,5.77l-.88.67c-1.56-4.57-3-9.17-4.25-13.85,2,4.42,3.7,8.93,5.35,13.47l.61,1.68-1.49-1c-2.82-1.91-5.6-3.88-8.35-5.88-1.37-1-2.74-2-4.09-3.07S174.14,42.22,172.82,41.13Z" transform="translate(0)"/><path class="cls-1" d="M183.09,45.07c1-1.13,2.06-2.19,3.15-3.22s2.21-2,3.37-3l.41-.34V39c0,1.11,0,2.22-.1,3.33-.18-1.1-.28-2.2-.38-3.3l.4.17c-1.07,1-2.18,2-3.31,3S184.31,44.19,183.09,45.07Z" transform="translate(0)"/><path class="cls-1" d="M289.13,124.55a14,14,0,0,0,3.15,2.36,3.21,3.21,0,0,0,3.33.26,2.44,2.44,0,0,0,1.05-1.3,1.05,1.05,0,0,1,.56-.63.8.8,0,0,1,.55,0,1,1,0,0,1,.33.21,1.85,1.85,0,0,0,.29.25.64.64,0,0,0,.3.06,2,2,0,0,0,.8-.3.65.65,0,0,1,.44,0,1.65,1.65,0,0,1,.3.12l.45.27a5.89,5.89,0,0,1,1.47,1.43,7.2,7.2,0,0,0-1.7-1c-.26-.12-.7-.29-.65-.21a2.41,2.41,0,0,1-1,.49,1.39,1.39,0,0,1-.69-.06,2.1,2.1,0,0,1-.51-.34c-.13-.1-.11,0,0,0s0,0,0,.14a3.36,3.36,0,0,1-1.4,1.78,3.28,3.28,0,0,1-2.24.43,4.84,4.84,0,0,1-2-.87A8.93,8.93,0,0,1,289.13,124.55Z" transform="translate(0)"/><path class="cls-1" d="M295.73,120.6a7.51,7.51,0,0,0,1.59.73,2,2,0,0,0,.8,0,6.11,6.11,0,0,1,.92-.11,3.09,3.09,0,0,1,1.8.66,4.33,4.33,0,0,1,1.19,1.41,9.79,9.79,0,0,0-1.43-1,3.37,3.37,0,0,0-1.57-.45,6.92,6.92,0,0,0-.87.07,2,2,0,0,1-1-.17A4,4,0,0,1,295.73,120.6Z" transform="translate(0)"/><path class="cls-1" d="M307.9,128.47c-.53-.52-1-1.07-1.55-1.63a9.92,9.92,0,0,1-1.43-1.83,3.62,3.62,0,0,1-.37-1.28c0-.42,0-.79-.05-1.13a8.13,8.13,0,0,0-.34-2,3.82,3.82,0,0,0-2.37-2.67,2.55,2.55,0,0,0-1.72,0c-.26.07-.5.27-1,.47a1.82,1.82,0,0,1-1.5-.12l.67-.28a2.59,2.59,0,0,0,.08,1.63,3.5,3.5,0,0,1,.1,1,1.36,1.36,0,0,1-.41.92,1.29,1.29,0,0,0,.09-.9,3.44,3.44,0,0,0-.32-.86,5.31,5.31,0,0,1-.4-.93,2.06,2.06,0,0,1-.06-1.19l.11-.45.56.16a.88.88,0,0,0,.66-.05,9.41,9.41,0,0,1,.93-.61,3.91,3.91,0,0,1,2.65-.17,4.73,4.73,0,0,1,2.2,1.4,5.7,5.7,0,0,1,1.16,2.25,8.22,8.22,0,0,1,.26,2.4,4.9,4.9,0,0,0,.05,2,14.45,14.45,0,0,0,1,1.91C307.23,127.12,307.58,127.79,307.9,128.47Z" transform="translate(0)"/><path class="cls-1" d="M313.7,141.18a4.74,4.74,0,0,1-2.93,1.44,5.12,5.12,0,0,1-3.3-.77l.54-.38a1.65,1.65,0,0,1-.18,1.23,5.21,5.21,0,0,1-.62.87,7.82,7.82,0,0,1-1.54,1.39,8.12,8.12,0,0,1-3.86,1.45l.16-.75a9.31,9.31,0,0,0,2.09.7,3.45,3.45,0,0,1,2.05,1.4c.51.81.05,1.78.62,2.06a1.15,1.15,0,0,0,1-.15,2.41,2.41,0,0,1,1.07-.44,2.82,2.82,0,0,0-1,.59,1.37,1.37,0,0,1-1.19.31.83.83,0,0,1-.52-.48,2.1,2.1,0,0,1-.16-.62,2,2,0,0,0-.28-1,3,3,0,0,0-1.78-1,9.06,9.06,0,0,1-2.3-.69l-1.12-.6,1.27-.15a8.09,8.09,0,0,0,3.48-1.33,8.31,8.31,0,0,0,1.42-1.23c.43-.45.82-1,.72-1.39l-.24-1,.77.59A5,5,0,0,0,313.7,141.18Z" transform="translate(0)"/><path class="cls-1" d="M305.2,142c.78.74,1.4,1.57,2.11,2.26a7.58,7.58,0,0,0,2.48,1.69,3.85,3.85,0,0,1-2.92-1.24A7.28,7.28,0,0,1,305.2,142Z" transform="translate(0)"/><path class="cls-1" d="M303,144.07a2.11,2.11,0,0,1-1.29.13,2.06,2.06,0,0,1-1.12-.65c.44,0,.81.17,1.21.23S302.59,143.93,303,144.07Z" transform="translate(0)"/><circle class="cls-2" cx="314.19" cy="212.32" r="56.17"/><circle class="cls-2" cx="184.24" cy="302.81" r="56.17"/><circle class="cls-2" cx="57.69" cy="207.63" r="56.17"/><circle class="cls-2" cx="108.59" cy="57.68" r="56.17"/><circle class="cls-2" cx="266.94" cy="59.21" r="56.17"/><path class="cls-2" d="M70.4,98.88a136.09,136.09,0,0,0-17.93,52.81" transform="translate(0)"/><path class="cls-2" d="M304.31,101.16a135.46,135.46,0,0,1,17.14,55.45" transform="translate(0)"/><path class="cls-2" d="M84.9,256.78a134.31,134.31,0,0,0,44.57,33.51" transform="translate(0)"/><path class="cls-2" d="M239.43,292.29a135.54,135.54,0,0,0,45.78-31.85" transform="translate(0)"/><path class="cls-2" d="M160.11,35.26a134.29,134.29,0,0,1,55.76.54" transform="translate(0)"/></g></g></svg>