<svg xmlns="http://www.w3.org/2000/svg" viewBox="0 0 349.22 329.38"><defs><style>.cls-1{fill:none;stroke:#866bc6;stroke-miterlimit:10;stroke-width:4.38px;}.cls-2{fill:#866bc6;}</style></defs><title>Ресурс 65</title><g id="Слой_2" data-name="Слой 2"><g id="Слой_1-2" data-name="Слой 1"><path class="cls-1" d="M41.3,204.81a134.71,134.71,0,0,1,81.33-136.2"/><path class="cls-1" d="M232.15,70.37A134.86,134.86,0,0,1,309.21,208"/><path class="cls-1" d="M94.8,300.39a134.89,134.89,0,0,0,158.65,1.9"/><path class="cls-2" d="M228.32,311.47a4.73,4.73,0,0,1-2-2.57,5,5,0,0,1,.07-3.36l.48.44a1.61,1.61,0,0,1-1.23.08,5.17,5.17,0,0,1-1-.43,8,8,0,0,1-1.67-1.21,8.2,8.2,0,0,1-2.21-3.46h.77a9.16,9.16,0,0,0-.25,2.19,3.43,3.43,0,0,1-1,2.28c-.68.66-1.73.41-1.88,1a1.13,1.13,0,0,0,.35.93,2.48,2.48,0,0,1,.65.95,3.07,3.07,0,0,0-.78-.83,1.4,1.4,0,0,1-.55-1.1.92.92,0,0,1,.36-.6,1.93,1.93,0,0,1,.58-.28A1.82,1.82,0,0,0,220,305a2.91,2.91,0,0,0,.61-1.94,9.08,9.08,0,0,1,.2-2.38l.36-1.21.41,1.21a8,8,0,0,0,2,3.11A8.12,8.12,0,0,0,225,305c.54.33,1.13.6,1.5.42l.9-.43-.42.87A4.93,4.93,0,0,0,228.32,311.47Z"/><path class="cls-2" d="M225.78,303.36c-.56.91-1.24,1.67-1.77,2.51a7.31,7.31,0,0,0-1.13,2.77,3.81,3.81,0,0,1,.6-3.11A7.11,7.11,0,0,1,225.78,303.36Z"/><path class="cls-2" d="M223.31,301.65a2.05,2.05,0,0,1-.39-1.24,2.1,2.1,0,0,1,.4-1.23c.05.45,0,.84,0,1.24S223.36,301.2,223.31,301.65Z"/><path class="cls-2" d="M155.83,302.56a14.38,14.38,0,0,0-3.69,1.34,3.2,3.2,0,0,0-2,2.63,2.48,2.48,0,0,0,.51,1.59,1,1,0,0,1,.22.8.82.82,0,0,1-.31.47,1,1,0,0,1-.35.15c-.2.06-.31.08-.37.11a.54.54,0,0,0-.2.22,2,2,0,0,0-.2.83c0,.28-.37.55-.46.57a5.08,5.08,0,0,1-.47.23,5.32,5.32,0,0,1-2,.44,7.23,7.23,0,0,0,1.77-.85c.25-.16.63-.43.53-.44a2.32,2.32,0,0,1,.15-1.12,1.42,1.42,0,0,1,.42-.54,1.83,1.83,0,0,1,.57-.24c.15-.06.08-.07.06,0s0,0-.11-.11a3.33,3.33,0,0,1-.72-2.13,3.26,3.26,0,0,1,.87-2.1,4.77,4.77,0,0,1,1.8-1.18A8.92,8.92,0,0,1,155.83,302.56Z"/><path class="cls-2" d="M155.52,310.21a8.66,8.66,0,0,0-1.48.93,2.08,2.08,0,0,0-.47.64,6.26,6.26,0,0,1-.41.82,3,3,0,0,1-1.53,1.15,4.39,4.39,0,0,1-1.82.22,9.13,9.13,0,0,0,1.64-.62,3.4,3.4,0,0,0,1.24-1.07,7.69,7.69,0,0,0,.41-.77,2.07,2.07,0,0,1,.67-.71A4.09,4.09,0,0,1,155.52,310.21Z"/><path class="cls-2" d="M142.33,316.07c.73-.16,1.47-.29,2.21-.4a9.52,9.52,0,0,1,2.31-.2,3.38,3.38,0,0,1,1.25.39c.38.2.68.41,1,.58a8.63,8.63,0,0,0,1.86.8,3.83,3.83,0,0,0,3.51-.53,2.54,2.54,0,0,0,1-1.41c.09-.25.05-.56.15-1.1a1.8,1.8,0,0,1,.93-1.18l-.13.71c-.2-.37-.8-.6-1.41-.82a3.31,3.31,0,0,1-.91-.48,1.4,1.4,0,0,1-.54-.84,1.3,1.3,0,0,0,.7.57,3.83,3.83,0,0,0,.89.2,6.54,6.54,0,0,1,1,.17,2.2,2.2,0,0,1,1,.6l.3.34-.43.37a.86.86,0,0,0-.31.58c0,.2,0,.64,0,1.11a3.82,3.82,0,0,1-1.3,2.3,4.65,4.65,0,0,1-2.37,1.08,5.82,5.82,0,0,1-2.5-.26,7.74,7.74,0,0,1-2.14-1.1,5.15,5.15,0,0,0-1.68-1,13.8,13.8,0,0,0-2.12-.22C143.82,316.25,143.08,316.17,142.33,316.07Z"/><path class="cls-2" d="M177,320a3,3,0,0,0,1.61-.15,1.47,1.47,0,0,0,1.06-.84,2.46,2.46,0,0,0,.07-.66c0-.05,0,0-.1-.09a1.87,1.87,0,0,0-.32-.15,3.9,3.9,0,0,0-1.51-.17c-.53,0-1.11,0-1.69,0a9.7,9.7,0,0,1-1.7-.26,8.49,8.49,0,0,1-1.62-.59,1.74,1.74,0,0,1-1-1.34,1.64,1.64,0,0,0,1.18,1,10.33,10.33,0,0,0,1.58.35,14.83,14.83,0,0,0,3.27.07,4.72,4.72,0,0,1,1.79.26,3.42,3.42,0,0,1,.42.23.9.9,0,0,1,.39.56,2.22,2.22,0,0,1-.16,1,1.84,1.84,0,0,1-1.55,1A2.79,2.79,0,0,1,177,320Z"/><path class="cls-2" d="M177.76,317.46a2.17,2.17,0,0,0,1.9-.8,1.22,1.22,0,0,0,.26-.88c0-.25-.3-.38-.6-.38s-.69.09-1.08.11a9.06,9.06,0,0,1-1.16,0,10.55,10.55,0,0,1-2.31-.33,9.65,9.65,0,0,1-2.17-.87,4.31,4.31,0,0,1-1.73-1.66,7,7,0,0,1-.44-1.08,3.06,3.06,0,0,1-.23-1.18,5.05,5.05,0,0,1,.28-1.13l.17-.53.09-.27a.84.84,0,0,1,.06-.14s0,0,.08,0,0,.07,0,0,0-.08,0,0,0,.08,0,.13l0,.28-.08.56a4.53,4.53,0,0,0-.1,1.08,2.51,2.51,0,0,0,.3,1,6.68,6.68,0,0,0,.5,1,6.23,6.23,0,0,0,3.59,2.09,11,11,0,0,0,2.14.35,9.89,9.89,0,0,0,1.09,0,10.58,10.58,0,0,1,1.16,0,1.37,1.37,0,0,1,.66.25.94.94,0,0,1,.38.64,1.58,1.58,0,0,1-.45,1.19A2.24,2.24,0,0,1,177.76,317.46Z"/><path class="cls-2" d="M179.26,304.78a14.11,14.11,0,0,1-.67,4.46,26.36,26.36,0,0,1-1.62,4.23,36.2,36.2,0,0,1-2.2,3.95l-1.27,1.86c-.47.59-.92,1.2-1.4,1.77l2.16-3.93c.68-1.33,1.4-2.63,2-4s1.24-2.7,1.76-4.08c.27-.69.51-1.4.71-2.11A14.59,14.59,0,0,0,179.26,304.78Z"/><path class="cls-2" d="M174.62,309.13a2.55,2.55,0,0,1,.14-1.57,2.4,2.4,0,0,1,1-1.2c-.16.52-.37.95-.55,1.4S174.87,308.65,174.62,309.13Z"/><path class="cls-2" d="M128.58,314a4.68,4.68,0,0,1,.4-3.23,5.09,5.09,0,0,1,2.43-2.33l0,.65a1.57,1.57,0,0,1-.93-.81,6.53,6.53,0,0,1-.39-1,8.32,8.32,0,0,1,.57-6l.55.54a9.3,9.3,0,0,0-1.72,1.36,3.42,3.42,0,0,1-2.29.95c-1,0-1.51-.94-2-.61a1.15,1.15,0,0,0-.41.9,2.46,2.46,0,0,1-.22,1.13,2.68,2.68,0,0,0,0-1.13,1.4,1.4,0,0,1,.39-1.17.9.9,0,0,1,.69-.17,2.12,2.12,0,0,1,.6.21,1.87,1.87,0,0,0,1,.29,2.93,2.93,0,0,0,1.8-.93,9.17,9.17,0,0,1,1.83-1.55l1.11-.6-.57,1.14a8.11,8.11,0,0,0-.79,3.63,9,9,0,0,0,.25,1.85c.15.6.39,1.22.77,1.35l.94.33-.91.32A4.92,4.92,0,0,0,128.58,314Z"/><path class="cls-2" d="M132.52,306.46c-1,.25-2.06.31-3,.53a7.34,7.34,0,0,0-2.75,1.15,3.81,3.81,0,0,1,2.62-1.77A7.17,7.17,0,0,1,132.52,306.46Z"/><path class="cls-2" d="M132,303.51a2.14,2.14,0,0,1,1.75-1.74c-.28.35-.59.59-.85.89S132.34,303.22,132,303.51Z"/><path class="cls-2" d="M214,314c-1.62-.53-3.21-1.11-4.81-1.69s-3.17-1.2-4.75-1.81c-3.15-1.26-6.28-2.55-9.39-3.91l.72-.83c2.45,4.13,4.81,8.32,7,12.64-2.82-3.91-5.43-7.95-8-12l-.94-1.52,1.66.68q4.71,1.93,9.34,4c1.54.7,3.08,1.41,4.6,2.15S212.49,313.23,214,314Z"/><path class="cls-2" d="M203.19,312.28c-.75,1.3-1.57,2.55-2.42,3.77s-1.74,2.43-2.67,3.59l-.33.42-.1-.5c-.22-1.08-.44-2.16-.58-3.26.4,1,.73,2.09,1,3.14l-.43-.09c.83-1.23,1.71-2.44,2.61-3.63S202.17,313.39,203.19,312.28Z"/><path class="cls-2" d="M65.4,172.7A14.36,14.36,0,0,0,64.07,169a3.23,3.23,0,0,0-2.63-2,2.48,2.48,0,0,0-1.59.51,1.09,1.09,0,0,1-.81.22.79.79,0,0,1-.46-.31,1,1,0,0,1-.15-.36,2.84,2.84,0,0,0-.11-.36.7.7,0,0,0-.21-.21,2.15,2.15,0,0,0-.84-.2c-.28,0-.55-.37-.57-.46s-.16-.31-.23-.47a5.74,5.74,0,0,1-.44-2,7.23,7.23,0,0,0,.85,1.77c.16.25.44.63.44.53a2.57,2.57,0,0,1,1.12.15,1.38,1.38,0,0,1,.54.43,1.8,1.8,0,0,1,.24.56c.06.16.07.09,0,.06s0,0,.11-.1a3.29,3.29,0,0,1,2.13-.72,3.23,3.23,0,0,1,2.1.87,4.81,4.81,0,0,1,1.18,1.81A8.91,8.91,0,0,1,65.4,172.7Z"/><path class="cls-2" d="M57.75,172.38a8.38,8.38,0,0,0-.93-1.49,2,2,0,0,0-.64-.47,6.26,6.26,0,0,1-.82-.41,3.06,3.06,0,0,1-1.14-1.53,4.41,4.41,0,0,1-.22-1.83,9.23,9.23,0,0,0,.62,1.65,3.56,3.56,0,0,0,1.06,1.24c.2.14.51.26.77.41a2,2,0,0,1,.71.68A4,4,0,0,1,57.75,172.38Z"/><path class="cls-2" d="M51.91,159.17c.16.73.3,1.47.41,2.21a10.08,10.08,0,0,1,.18,2.31,3.21,3.21,0,0,1-.39,1.25c-.19.38-.41.68-.58,1a8.63,8.63,0,0,0-.8,1.86,3.82,3.82,0,0,0,.52,3.51,2.55,2.55,0,0,0,1.4,1c.26.09.57.05,1.11.16a1.84,1.84,0,0,1,1.18.92l-.71-.13c.37-.19.59-.79.82-1.4a3.31,3.31,0,0,1,.48-.91,1.36,1.36,0,0,1,.84-.54,1.35,1.35,0,0,0-.57.7,3.72,3.72,0,0,0-.2.89,6.54,6.54,0,0,1-.17,1,2.17,2.17,0,0,1-.6,1l-.35.31-.37-.44a.88.88,0,0,0-.58-.31,8.2,8.2,0,0,1-1.1,0,3.82,3.82,0,0,1-2.3-1.3,4.63,4.63,0,0,1-1.07-2.37,5.73,5.73,0,0,1,.26-2.51,7.88,7.88,0,0,1,1.1-2.14,4.9,4.9,0,0,0,1-1.67,13.8,13.8,0,0,0,.22-2.12C51.73,160.66,51.81,159.92,51.91,159.17Z"/><path class="cls-2" d="M47.89,193.82a2.94,2.94,0,0,0,.14,1.61c.15.5.45,1,.84,1.06a2.17,2.17,0,0,0,.66.08s0,0,.09-.11a1.57,1.57,0,0,0,.15-.32,3.83,3.83,0,0,0,.17-1.5c0-.54,0-1.11,0-1.69a8.94,8.94,0,0,1,.26-1.71,8.74,8.74,0,0,1,.59-1.62,1.78,1.78,0,0,1,1.34-1,1.67,1.67,0,0,0-1,1.17,10.73,10.73,0,0,0-.35,1.59,15.45,15.45,0,0,0-.08,3.27,4.47,4.47,0,0,1-.27,1.78,2,2,0,0,1-.23.43.85.85,0,0,1-.55.39,2.12,2.12,0,0,1-1-.17,1.85,1.85,0,0,1-1-1.55A2.79,2.79,0,0,1,47.89,193.82Z"/><path class="cls-2" d="M50.45,194.6a2.17,2.17,0,0,0,.8,1.9,1.22,1.22,0,0,0,.88.26c.24,0,.38-.3.38-.6s-.09-.69-.11-1.08a9,9,0,0,1,0-1.16,9.87,9.87,0,0,1,1.21-4.47,4.21,4.21,0,0,1,1.67-1.73,6.62,6.62,0,0,1,1.08-.44,3,3,0,0,1,1.17-.23,4.79,4.79,0,0,1,1.13.28l.54.17.27.1s.09,0,.13.06,0,.05,0,.07-.07,0,0,0,.08,0,0,0a.61.61,0,0,0-.13,0l-.28,0-.56-.09a5.26,5.26,0,0,0-1.09-.1,2.69,2.69,0,0,0-1,.3,6.19,6.19,0,0,0-1,.5,6.13,6.13,0,0,0-2.1,3.58,10.39,10.39,0,0,0-.35,2.14,7.93,7.93,0,0,0,0,1.09,8.66,8.66,0,0,1,0,1.17,1.38,1.38,0,0,1-.25.65.9.9,0,0,1-.65.38,1.61,1.61,0,0,1-1.19-.45A2.26,2.26,0,0,1,50.45,194.6Z"/><path class="cls-2" d="M63.13,196.12a14.4,14.4,0,0,1-4.46-.67,26.82,26.82,0,0,1-4.23-1.64,35.33,35.33,0,0,1-3.94-2.2l-1.86-1.28c-.59-.47-1.19-.92-1.77-1.4l3.93,2.17c1.32.68,2.63,1.4,4,2s2.7,1.24,4.08,1.77c.69.26,1.4.5,2.11.71A14.59,14.59,0,0,0,63.13,196.12Z"/><path class="cls-2" d="M58.79,191.48a2.42,2.42,0,0,1,1.57.14,2.48,2.48,0,0,1,1.2,1c-.52-.16-1-.37-1.4-.55S59.27,191.73,58.79,191.48Z"/><path class="cls-2" d="M54,145.43a4.66,4.66,0,0,1,3.23.4,5.07,5.07,0,0,1,2.33,2.44l-.65,0a1.58,1.58,0,0,1,.81-.92,6.24,6.24,0,0,1,1-.39,8.27,8.27,0,0,1,2-.32,8.08,8.08,0,0,1,4,.91l-.54.54a9.69,9.69,0,0,0-1.36-1.73,3.46,3.46,0,0,1-.94-2.28c0-.95.94-1.51.61-2.06a1.11,1.11,0,0,0-.9-.4,2.74,2.74,0,0,1-1.13-.22,3.06,3.06,0,0,0,1.13,0,1.37,1.37,0,0,1,1.17.39.88.88,0,0,1,.17.68,1.92,1.92,0,0,1-.21.6,2,2,0,0,0-.3,1,2.94,2.94,0,0,0,.94,1.8A9.48,9.48,0,0,1,67,147.74l.6,1.11-1.15-.56a7.93,7.93,0,0,0-3.62-.81,9,9,0,0,0-1.85.25c-.6.15-1.22.38-1.36.77l-.33.93-.32-.91A4.91,4.91,0,0,0,54,145.43Z"/><path class="cls-2" d="M61.55,149.38c-.25-1-.31-2.06-.52-3a7.45,7.45,0,0,0-1.15-2.76,3.81,3.81,0,0,1,1.76,2.63A7.16,7.16,0,0,1,61.55,149.38Z"/><path class="cls-2" d="M64.5,148.86a2,2,0,0,1,1.15.6,2.08,2.08,0,0,1,.58,1.15c-.35-.28-.59-.59-.88-.86S64.78,149.21,64.5,148.86Z"/><path class="cls-2" d="M111.72,100.64a14.4,14.4,0,0,0,1.68-3.55A3.2,3.2,0,0,0,113,93.8,2.38,2.38,0,0,0,111.5,93a1.08,1.08,0,0,1-.73-.42.81.81,0,0,1-.1-.54,1,1,0,0,1,.14-.36,2.39,2.39,0,0,0,.18-.34.75.75,0,0,0,0-.3,2.19,2.19,0,0,0-.45-.72c-.21-.19-.13-.66-.08-.74s.11-.33.17-.49a5.94,5.94,0,0,1,1.1-1.72,7.23,7.23,0,0,0-.65,1.86c-.06.28-.14.75-.07.68a2.42,2.42,0,0,1,.68.9,1.39,1.39,0,0,1,.09.68,2.29,2.29,0,0,1-.23.58c-.07.14,0,.11,0,0s0,0,.15,0a3.28,3.28,0,0,1,2,1,3.21,3.21,0,0,1,.86,2.1,4.81,4.81,0,0,1-.44,2.11A9,9,0,0,1,111.72,100.64Z"/><path class="cls-2" d="M106.55,95a8.47,8.47,0,0,0,.39-1.7,2.07,2.07,0,0,0-.11-.79,7.33,7.33,0,0,1-.3-.87,3.11,3.11,0,0,1,.28-1.89A4.17,4.17,0,0,1,108,88.31a9.53,9.53,0,0,0-.73,1.6,3.33,3.33,0,0,0-.12,1.62,5.55,5.55,0,0,0,.25.84,2,2,0,0,1,0,1A4,4,0,0,1,106.55,95Z"/><path class="cls-2" d="M111.77,81.54c-.4.63-.83,1.25-1.28,1.85a9.68,9.68,0,0,1-1.5,1.76,3.23,3.23,0,0,1-1.16.61c-.41.13-.77.19-1.1.28a8.37,8.37,0,0,0-1.88.74,3.81,3.81,0,0,0-2.12,2.85,2.54,2.54,0,0,0,.31,1.68c.11.24.36.43.66.89a1.83,1.83,0,0,1,.19,1.49l-.41-.6a2.61,2.61,0,0,0,1.57-.41,3.5,3.5,0,0,1,1-.3,1.33,1.33,0,0,1,1,.22,1.26,1.26,0,0,0-.9.09,3.42,3.42,0,0,0-.77.48,7.1,7.1,0,0,1-.83.59,2.11,2.11,0,0,1-1.15.29l-.46,0,0-.57a.85.85,0,0,0-.19-.63c-.12-.16-.49-.41-.78-.79a3.86,3.86,0,0,1-.7-2.55,4.71,4.71,0,0,1,.92-2.43,5.59,5.59,0,0,1,2-1.58,7.76,7.76,0,0,1,2.29-.74,4.84,4.84,0,0,0,1.92-.45A13,13,0,0,0,110,83Q110.87,82.23,111.77,81.54Z"/><path class="cls-2" d="M84.4,103.17a2.89,2.89,0,0,0-1,1.24,1.42,1.42,0,0,0-.16,1.34,2,2,0,0,0,.41.52s0,0,.14,0l.33-.12a3.83,3.83,0,0,0,1.18-.94c.38-.38.76-.82,1.2-1.2a9.32,9.32,0,0,1,1.39-1,7.64,7.64,0,0,1,1.56-.73,1.75,1.75,0,0,1,1.68.23,1.67,1.67,0,0,0-1.54.12,10.6,10.6,0,0,0-1.37.88,14.71,14.71,0,0,0-2.36,2.25,4.57,4.57,0,0,1-1.46,1.07,3.5,3.5,0,0,1-.46.14.83.83,0,0,1-.67-.12,2.07,2.07,0,0,1-.57-.82,1.81,1.81,0,0,1,.38-1.81A2.74,2.74,0,0,1,84.4,103.17Z"/><path class="cls-2" d="M85.66,105.53a2.18,2.18,0,0,0-.78,1.91,1.2,1.2,0,0,0,.44.81.57.57,0,0,0,.7-.16c.21-.2.42-.55.68-.84A9.37,9.37,0,0,1,89.36,105a9.74,9.74,0,0,1,2.15-.92,4.26,4.26,0,0,1,2.4,0,8.13,8.13,0,0,1,1.08.45,3.08,3.08,0,0,1,1,.68,5.2,5.2,0,0,1,.6,1l.26.5.12.25a.39.39,0,0,1,.05.14s0,.07,0,.06,0,0,0,0,.06,0,0,0a.37.37,0,0,0-.07-.12l-.17-.22-.34-.46a4.83,4.83,0,0,0-.69-.84,2.94,2.94,0,0,0-.91-.49,7.33,7.33,0,0,0-1-.33,6.16,6.16,0,0,0-4,1.05A10.52,10.52,0,0,0,88,106.94c-.27.24-.53.49-.78.76a7.76,7.76,0,0,1-.81.84,1.26,1.26,0,0,1-.64.29.94.94,0,0,1-.72-.19,1.58,1.58,0,0,1-.52-1.16A2.27,2.27,0,0,1,85.66,105.53Z"/><path class="cls-2" d="M93.54,115.59A14.48,14.48,0,0,1,90.87,112,25.43,25.43,0,0,1,89,107.81a35.35,35.35,0,0,1-1.23-4.36l-.41-2.21c-.08-.75-.19-1.5-.25-2.25l1.24,4.32c.45,1.42.86,2.85,1.37,4.24s1,2.78,1.63,4.13c.3.68.63,1.35,1,2A16.2,16.2,0,0,0,93.54,115.59Z"/><path class="cls-2" d="M93.76,109.23a2.49,2.49,0,0,1,1,1.21,2.42,2.42,0,0,1,.12,1.57c-.25-.48-.41-.93-.6-1.37S93.92,109.75,93.76,109.23Z"/><path class="cls-2" d="M62.38,133.51c1.52-.77,3.06-1.48,4.6-2.19s3.09-1.39,4.65-2.06q4.68-2,9.41-3.85l.07,1.1c-4.65-1.21-9.28-2.51-13.84-4.06,4.75.79,9.45,1.81,14.13,2.93l1.73.42-1.66.69q-4.69,1.94-9.46,3.71c-1.59.59-3.19,1.17-4.79,1.72S64,133,62.38,133.51Z"/><path class="cls-2" d="M71.28,127.13c-.39-1.45-.69-2.91-1-4.38s-.47-2.94-.63-4.43l-.06-.53.42.29c.92.61,1.83,1.22,2.71,1.9-1-.45-2-1-3-1.48l.37-.25c.28,1.47.51,2.94.71,4.42S71.22,125.63,71.28,127.13Z"/><path class="cls-2" d="M267.41,129a14.15,14.15,0,0,0,3.54,1.68,3.22,3.22,0,0,0,3.3-.41,2.43,2.43,0,0,0,.77-1.48,1.06,1.06,0,0,1,.42-.72A.76.76,0,0,1,276,128a1.49,1.49,0,0,1,.36.14,1.89,1.89,0,0,0,.34.19.75.75,0,0,0,.3,0,2.19,2.19,0,0,0,.72-.45c.19-.21.66-.13.74-.08l.49.17a5.77,5.77,0,0,1,1.72,1.11,7.26,7.26,0,0,0-1.86-.66c-.28-.06-.75-.14-.68-.07a2.42,2.42,0,0,1-.9.68,1.31,1.31,0,0,1-.69.08,1.89,1.89,0,0,1-.57-.23c-.14-.06-.11,0,0,0s0,0,0,.15a3.3,3.3,0,0,1-1,2,3.21,3.21,0,0,1-2.1.86,5,5,0,0,1-2.11-.44A9,9,0,0,1,267.41,129Z"/><path class="cls-2" d="M273.06,123.85a7.83,7.83,0,0,0,1.7.39,2.1,2.1,0,0,0,.79-.11,5.91,5.91,0,0,1,.87-.29,3,3,0,0,1,1.89.28,4.39,4.39,0,0,1,1.44,1.15,9.53,9.53,0,0,0-1.6-.74,3.47,3.47,0,0,0-1.62-.13c-.25,0-.55.17-.84.25a2,2,0,0,1-1,0A4.15,4.15,0,0,1,273.06,123.85Z"/><path class="cls-2" d="M286.5,129.1c-.62-.41-1.24-.83-1.84-1.28a10.55,10.55,0,0,1-1.76-1.51,3.36,3.36,0,0,1-.61-1.17c-.12-.4-.19-.76-.27-1.09a8.37,8.37,0,0,0-.74-1.88,3.75,3.75,0,0,0-2.84-2.12,2.54,2.54,0,0,0-1.68.29c-.24.12-.44.37-.89.67a1.83,1.83,0,0,1-1.49.18l.59-.41a2.68,2.68,0,0,0,.41,1.57,3.34,3.34,0,0,1,.3,1,1.35,1.35,0,0,1-.22,1,1.29,1.29,0,0,0-.09-.91,3.93,3.93,0,0,0-.48-.77,6.6,6.6,0,0,1-.58-.82,2.25,2.25,0,0,1-.3-1.16l0-.46.57,0a.86.86,0,0,0,.63-.19c.16-.12.41-.48.79-.77a3.8,3.8,0,0,1,2.55-.7,4.73,4.73,0,0,1,2.43.93,5.83,5.83,0,0,1,1.58,2,8,8,0,0,1,.73,2.29,4.77,4.77,0,0,0,.45,1.93,14.42,14.42,0,0,0,1.33,1.66C285.58,127.92,286.05,128.5,286.5,129.1Z"/><path class="cls-2" d="M264.93,101.68a2.86,2.86,0,0,0-1.23-1,1.45,1.45,0,0,0-1.34-.17,2,2,0,0,0-.52.41s0,0,0,.14a3.21,3.21,0,0,0,.12.33,4,4,0,0,0,.94,1.19c.38.38.82.76,1.2,1.2a10,10,0,0,1,1,1.4,7.64,7.64,0,0,1,.72,1.56,1.71,1.71,0,0,1-.23,1.67,1.65,1.65,0,0,0-.12-1.53,9.32,9.32,0,0,0-.87-1.37,14.36,14.36,0,0,0-2.25-2.37,4.84,4.84,0,0,1-1.07-1.46,3.22,3.22,0,0,1-.13-.47.81.81,0,0,1,.12-.66,2,2,0,0,1,.82-.58,1.81,1.81,0,0,1,1.8.39A2.68,2.68,0,0,1,264.93,101.68Z"/><path class="cls-2" d="M262.57,102.94a2.17,2.17,0,0,0-1.91-.78,1.19,1.19,0,0,0-.81.43.57.57,0,0,0,.16.7c.2.21.55.42.84.68a9.11,9.11,0,0,1,.84.8,10.09,10.09,0,0,1,1.39,1.87,10.21,10.21,0,0,1,.91,2.15,4.26,4.26,0,0,1,0,2.4,7,7,0,0,1-.45,1.08,3.08,3.08,0,0,1-.68,1,4.68,4.68,0,0,1-1,.59l-.5.26-.25.12a.84.84,0,0,1-.14.06s-.07,0-.06-.05.05,0,.05,0-.05.06,0,0a.75.75,0,0,0,.12-.07l.22-.18.46-.33a4.83,4.83,0,0,0,.84-.69,2.75,2.75,0,0,0,.49-.91,6.24,6.24,0,0,0,.33-1,6.15,6.15,0,0,0-1-4,10.39,10.39,0,0,0-1.25-1.76,9.45,9.45,0,0,0-.76-.79,8.65,8.65,0,0,1-.84-.8,1.43,1.43,0,0,1-.29-.65.94.94,0,0,1,.19-.72,1.61,1.61,0,0,1,1.17-.52A2.26,2.26,0,0,1,262.57,102.94Z"/><path class="cls-2" d="M252.5,110.8a14.48,14.48,0,0,1,3.64-2.67,26.79,26.79,0,0,1,4.15-1.82,34.78,34.78,0,0,1,4.36-1.21l2.21-.41c.75-.08,1.5-.19,2.25-.25l-4.32,1.23c-1.42.45-2.85.86-4.24,1.36s-2.79,1-4.14,1.63c-.68.3-1.35.62-2,1A15,15,0,0,0,252.5,110.8Z"/><path class="cls-2" d="M258.85,111a2.44,2.44,0,0,1-1.21,1,2.48,2.48,0,0,1-1.57.12c.49-.25.93-.41,1.38-.6S258.33,111.19,258.85,111Z"/><path class="cls-2" d="M294.7,140.34a4.71,4.71,0,0,1-2.58,2,5,5,0,0,1-3.37-.09l.45-.47a1.61,1.61,0,0,1,.07,1.23,5.07,5.07,0,0,1-.43,1,8,8,0,0,1-1.22,1.67,8.2,8.2,0,0,1-3.48,2.18V147a9.09,9.09,0,0,0,2.18.27,3.42,3.42,0,0,1,2.28,1c.66.69.4,1.73,1,1.89a1.13,1.13,0,0,0,.93-.35,2.61,2.61,0,0,1,1-.64,2.77,2.77,0,0,0-.83.77,1.39,1.39,0,0,1-1.11.54.84.84,0,0,1-.6-.36,1.93,1.93,0,0,1-.28-.58,1.89,1.89,0,0,0-.47-.89,2.86,2.86,0,0,0-1.94-.62,9.59,9.59,0,0,1-2.38-.22l-1.21-.36,1.21-.41a7.81,7.81,0,0,0,3.13-2,8.11,8.11,0,0,0,1.14-1.48c.33-.53.6-1.13.43-1.5l-.43-.9.87.42A4.93,4.93,0,0,0,294.7,140.34Z"/><path class="cls-2" d="M286.57,142.83c.91.57,1.67,1.25,2.51,1.79a7.58,7.58,0,0,0,2.75,1.15,3.8,3.8,0,0,1-3.1-.63A7.22,7.22,0,0,1,286.57,142.83Z"/><path class="cls-2" d="M284.85,145.29a2.13,2.13,0,0,1-2.47,0c.45,0,.83,0,1.23,0S284.4,145.24,284.85,145.29Z"/><path class="cls-2" d="M234.64,79.6c.76,1.52,1.47,3.06,2.19,4.6s1.37,3.1,2,4.66c1.32,3.12,2.6,6.25,3.82,9.42l-1.1.07c1.22-4.65,2.54-9.28,4.09-13.84-.8,4.75-1.83,9.45-3,14.12l-.42,1.74-.69-1.66q-1.92-4.71-3.69-9.48c-.58-1.59-1.16-3.18-1.71-4.79S235.13,81.23,234.64,79.6Z"/><path class="cls-2" d="M241,88.51c1.45-.38,2.91-.68,4.38-.94s3-.46,4.43-.62l.53-.06-.28.43c-.62.91-1.23,1.82-1.91,2.7.45-1,1-2,1.49-3l.25.36c-1.47.28-2.94.51-4.42.7S242.5,88.45,241,88.51Z"/><path class="cls-2" d="M302.94,191.72a2.94,2.94,0,0,0-.14-1.61c-.15-.5-.44-1-.84-1.06a2.11,2.11,0,0,0-.65-.08c-.05,0,0,0-.1.1a3.09,3.09,0,0,0-.14.32,4.07,4.07,0,0,0-.19,1.5c0,.54.05,1.12,0,1.7a9.73,9.73,0,0,1-.28,1.7,8.11,8.11,0,0,1-.6,1.62,1.75,1.75,0,0,1-1.34,1,1.7,1.7,0,0,0,1-1.17,10.73,10.73,0,0,0,.35-1.59,14.15,14.15,0,0,0,.09-3.26,4.53,4.53,0,0,1,.28-1.79,3.55,3.55,0,0,1,.23-.43.89.89,0,0,1,.56-.38,2.08,2.08,0,0,1,1,.17,1.83,1.83,0,0,1,1,1.55A2.78,2.78,0,0,1,302.94,191.72Z"/><path class="cls-2" d="M300.38,190.93a2.17,2.17,0,0,0-.8-1.9,1.26,1.26,0,0,0-.87-.27c-.25.05-.38.31-.39.61s.09.69.11,1.07a11.43,11.43,0,0,1,0,1.17,9.72,9.72,0,0,1-1.22,4.46,4.21,4.21,0,0,1-1.68,1.72,7,7,0,0,1-1.08.44,2.88,2.88,0,0,1-1.18.22,5.05,5.05,0,0,1-1.13-.28l-.53-.18-.27-.09-.14-.06s0-.06,0-.08.07,0,0,0-.08,0,0,0l.13,0,.28,0,.56.09a5.14,5.14,0,0,0,1.08.11,2.87,2.87,0,0,0,1-.3,6.8,6.8,0,0,0,1-.5,6.19,6.19,0,0,0,2.11-3.57,11.13,11.13,0,0,0,.36-2.14,9.87,9.87,0,0,0,0-1.09,10.58,10.58,0,0,1,0-1.16,1.39,1.39,0,0,1,.26-.66,1,1,0,0,1,.64-.38,1.62,1.62,0,0,1,1.19.46A2.24,2.24,0,0,1,300.38,190.93Z"/><path class="cls-2" d="M287.7,189.36a14.42,14.42,0,0,1,4.46.69,27.35,27.35,0,0,1,4.22,1.65,37.25,37.25,0,0,1,3.94,2.23l1.85,1.28c.59.47,1.19.92,1.76,1.41L300,194.44c-1.32-.69-2.62-1.42-4-2.05s-2.69-1.24-4.07-1.78c-.69-.27-1.4-.51-2.11-.72A14.61,14.61,0,0,0,287.7,189.36Z"/><path class="cls-2" d="M292,194a2.4,2.4,0,0,1-1.56-.15,2.37,2.37,0,0,1-1.2-1c.52.17.95.38,1.4.56S291.54,193.77,292,194Z"/><path class="cls-2" d="M297.17,154.68c-.54,1.61-1.13,3.2-1.71,4.8s-1.22,3.16-1.85,4.74q-1.91,4.71-4,9.36l-.84-.73c4.16-2.42,8.36-4.76,12.69-6.88-3.93,2.79-8,5.38-12.09,7.88l-1.53.93.7-1.66q2-4.69,4.09-9.31c.72-1.54,1.44-3.07,2.18-4.59S296.36,156.18,297.17,154.68Z"/><path class="cls-2" d="M295.35,165.48c1.3.75,2.54,1.58,3.76,2.44s2.41,1.75,3.57,2.69l.42.33-.5.1c-1.08.21-2.16.42-3.26.56,1-.4,2.09-.71,3.14-1l-.09.43q-1.84-1.26-3.61-2.63C297.6,167.45,296.45,166.5,295.35,165.48Z"/><circle class="cls-1" cx="291.1" cy="260.93" r="55.93"/><circle class="cls-1" cx="58.13" cy="258.16" r="55.93"/><circle class="cls-1" cx="177.57" cy="58.12" r="55.93"/></g></g></svg>