<svg xmlns="http://www.w3.org/2000/svg" viewBox="0 0 273.7 385.05"><defs><style>.cls-1{fill:#866bc6;}.cls-2{fill:none;stroke:#866bc6;stroke-miterlimit:10;stroke-width:4.38px;}</style></defs><title>Ресурс 64</title><g id="Слой_2" data-name="Слой 2"><g id="Слой_1-2" data-name="Слой 1"><path class="cls-1" d="M28,259a3,3,0,0,0,.95,1.31,1.47,1.47,0,0,0,1.27.48,2.45,2.45,0,0,0,.6-.27c0-.05,0,0,0-.14s0-.23,0-.35a4,4,0,0,0-.62-1.38c-.28-.46-.62-.93-.88-1.45a9.54,9.54,0,0,1-.64-1.6,8,8,0,0,1-.32-1.69,1.71,1.71,0,0,1,.62-1.57,1.69,1.69,0,0,0-.25,1.52,10.68,10.68,0,0,0,.51,1.54,15.77,15.77,0,0,0,1.61,2.84,4.59,4.59,0,0,1,.69,1.68,3.77,3.77,0,0,1,0,.48.88.88,0,0,1-.28.61,2.08,2.08,0,0,1-.93.37,1.83,1.83,0,0,1-1.66-.81A2.71,2.71,0,0,1,28,259Z"/><path class="cls-1" d="M30.63,258.37a2.16,2.16,0,0,0,1.66,1.22,1.22,1.22,0,0,0,.89-.22.56.56,0,0,0,0-.72c-.15-.25-.43-.54-.65-.86a9.08,9.08,0,0,1-.63-1,10.6,10.6,0,0,1-.89-2.15,9.94,9.94,0,0,1-.36-2.31,4.32,4.32,0,0,1,.54-2.34,8.37,8.37,0,0,1,.7-.93,3.31,3.31,0,0,1,.9-.8,5.42,5.42,0,0,1,1.11-.34l.56-.12.27-.06a.36.36,0,0,1,.15,0s.06,0,.05.06-.07,0-.06,0,.07,0,0,0a.65.65,0,0,0-.13,0l-.26.12-.52.21a4.77,4.77,0,0,0-1,.47,2.7,2.7,0,0,0-.7.76,7.76,7.76,0,0,0-.57.93,6.16,6.16,0,0,0,0,4.15,10.58,10.58,0,0,0,.79,2c.17.32.35.64.54.94a6.79,6.79,0,0,1,.63,1,1.31,1.31,0,0,1,.12.69.93.93,0,0,1-.36.65,1.59,1.59,0,0,1-1.25.23A2.26,2.26,0,0,1,30.63,258.37Z"/><path class="cls-1" d="M42.3,253.18a14.17,14.17,0,0,1-4.18,1.71,26,26,0,0,1-4.46.76,34.18,34.18,0,0,1-4.52.13l-2.25-.14c-.75-.1-1.5-.18-2.24-.3l4.49-.15c1.48-.09,3-.14,4.45-.3s2.94-.32,4.4-.58c.73-.12,1.46-.28,2.18-.47A13.77,13.77,0,0,0,42.3,253.18Z"/><path class="cls-1" d="M36.19,251.42a2.62,2.62,0,0,1,3-.42c-.54.12-1,.17-1.49.24S36.74,251.39,36.19,251.42Z"/><path class="cls-1" d="M52.09,287.77c-.37-1.66-.68-3.33-1-5s-.58-3.34-.86-5c-.53-3.34-1-6.7-1.44-10.06l1.09.2c-2.31,4.21-4.7,8.38-7.31,12.44,1.92-4.43,4.06-8.73,6.29-13l.82-1.59.26,1.78c.5,3.36.92,6.72,1.3,10.09.18,1.68.36,3.37.5,5.06S52,286.07,52.09,287.77Z"/><path class="cls-1" d="M48.07,277.59c-1.5,0-3,0-4.47-.15s-3-.26-4.45-.47l-.53-.07.38-.34c.81-.74,1.63-1.48,2.5-2.16-.68.87-1.42,1.69-2.16,2.5l-.15-.41c1.49.08,3,.22,4.46.39S46.61,277.28,48.07,277.59Z"/><path class="cls-1" d="M30.75,117.06a4.69,4.69,0,0,1,3,1.19,5.1,5.1,0,0,1,1.66,2.93l-.64-.13a1.61,1.61,0,0,1,1-.7,5.68,5.68,0,0,1,1.06-.13,7.84,7.84,0,0,1,2,.19,8.24,8.24,0,0,1,3.66,1.86l-.66.39a9.55,9.55,0,0,0-.89-2,3.44,3.44,0,0,1-.35-2.45c.25-.92,1.28-1.23,1.1-1.84a1.12,1.12,0,0,0-.77-.61,2.55,2.55,0,0,1-1.05-.5,2.75,2.75,0,0,0,1.09.32,1.38,1.38,0,0,1,1,.67.85.85,0,0,1,0,.7,1.69,1.69,0,0,1-.35.53,1.83,1.83,0,0,0-.52.87,2.93,2.93,0,0,0,.46,2,9.77,9.77,0,0,1,1,2.15l.31,1.23-1-.83a8.11,8.11,0,0,0-3.31-1.67,8.91,8.91,0,0,0-1.86-.21c-.62,0-1.27.07-1.5.41l-.55.82-.09-1A4.93,4.93,0,0,0,30.75,117.06Z"/><path class="cls-1" d="M37.07,122.75c0-1.07.22-2.08.24-3.07a7.38,7.38,0,0,0-.43-3,3.81,3.81,0,0,1,1.06,3A7.16,7.16,0,0,1,37.07,122.75Z"/><path class="cls-1" d="M40.07,123a2.13,2.13,0,0,1,1,.87,2,2,0,0,1,.28,1.26c-.27-.36-.42-.72-.64-1S40.25,123.37,40.07,123Z"/><path class="cls-1" d="M241.63,153.57a14.05,14.05,0,0,0,3,2.5,3.2,3.2,0,0,0,3.3.41,2.41,2.41,0,0,0,1.11-1.24,1.08,1.08,0,0,1,.58-.6.76.76,0,0,1,.56,0,1,1,0,0,1,.31.22,2.33,2.33,0,0,0,.28.26.62.62,0,0,0,.29.07,2.27,2.27,0,0,0,.82-.25c.23-.16.66,0,.73.1s.29.19.43.29a5.61,5.61,0,0,1,1.39,1.49,7.25,7.25,0,0,0-1.63-1.09c-.26-.13-.69-.32-.64-.23a2.54,2.54,0,0,1-1.05.43,1.26,1.26,0,0,1-.68-.09,2,2,0,0,1-.5-.36c-.12-.1-.1,0,0-.05s0,0,0,.14a3.33,3.33,0,0,1-1.48,1.71,3.24,3.24,0,0,1-2.24.31,4.7,4.7,0,0,1-1.94-.95A8.85,8.85,0,0,1,241.63,153.57Z"/><path class="cls-1" d="M248.38,150a7.88,7.88,0,0,0,1.55.8,2.13,2.13,0,0,0,.79.08,6.56,6.56,0,0,1,.92-.06,3,3,0,0,1,1.76.73,4.43,4.43,0,0,1,1.12,1.47,10,10,0,0,0-1.38-1.11,3.29,3.29,0,0,0-1.54-.52,6.6,6.6,0,0,0-.87,0,2,2,0,0,1-1-.22A4,4,0,0,1,248.38,150Z"/><path class="cls-1" d="M260.12,158.35c-.51-.55-1-1.11-1.47-1.7a9.78,9.78,0,0,1-1.34-1.89,3.33,3.33,0,0,1-.3-1.28c0-.42,0-.79,0-1.13a7.77,7.77,0,0,0-.25-2,3.84,3.84,0,0,0-2.23-2.76,2.54,2.54,0,0,0-1.71-.12c-.26.05-.51.25-1,.43a1.8,1.8,0,0,1-1.49-.2l.67-.25a2.8,2.8,0,0,0,0,1.63,3.17,3.17,0,0,1,0,1,1.35,1.35,0,0,1-.45.9,1.3,1.3,0,0,0,.14-.9,3.93,3.93,0,0,0-.28-.86,5.87,5.87,0,0,1-.36-1,2.17,2.17,0,0,1,0-1.19l.14-.44.54.19a.88.88,0,0,0,.66,0,11,11,0,0,1,1-.56,3.81,3.81,0,0,1,2.64-.05,4.7,4.7,0,0,1,2.13,1.5A5.84,5.84,0,0,1,258.2,150a8.19,8.19,0,0,1,.14,2.41,4.89,4.89,0,0,0,0,2,14.27,14.27,0,0,0,.89,1.94C259.52,157,259.83,157.65,260.12,158.35Z"/><path class="cls-1" d="M246,126.47a2.94,2.94,0,0,0-.95-1.3,1.43,1.43,0,0,0-1.26-.49,2,2,0,0,0-.6.27s0,0,0,.14a1.32,1.32,0,0,0,0,.34,3.94,3.94,0,0,0,.61,1.39c.28.46.61.93.87,1.45a10.47,10.47,0,0,1,.64,1.6,8.09,8.09,0,0,1,.31,1.7,1.71,1.71,0,0,1-.63,1.56,1.68,1.68,0,0,0,.26-1.51,10.81,10.81,0,0,0-.51-1.55,14.66,14.66,0,0,0-1.6-2.85,4.51,4.51,0,0,1-.67-1.67,2.68,2.68,0,0,1,0-.49.81.81,0,0,1,.28-.61,2.05,2.05,0,0,1,.93-.36,1.82,1.82,0,0,1,1.66.82A2.74,2.74,0,0,1,246,126.47Z"/><path class="cls-1" d="M243.35,127.11a2.22,2.22,0,0,0-1.66-1.23,1.22,1.22,0,0,0-.89.22.57.57,0,0,0,0,.72c.14.26.42.55.64.87a9.08,9.08,0,0,1,.63,1,11,11,0,0,1,.88,2.16,9.93,9.93,0,0,1,.35,2.31,4.27,4.27,0,0,1-.55,2.33,7.36,7.36,0,0,1-.71.93,2.88,2.88,0,0,1-.9.79,4.86,4.86,0,0,1-1.11.34l-.55.12-.28.06a.36.36,0,0,1-.15,0s-.06,0,0-.06.06,0,0,0-.07,0,0,0a.31.31,0,0,0,.12,0l.26-.11.53-.21a4.66,4.66,0,0,0,1-.46,2.78,2.78,0,0,0,.71-.77,7,7,0,0,0,.57-.92,6.16,6.16,0,0,0,0-4.15,10.54,10.54,0,0,0-.78-2c-.17-.32-.34-.64-.54-.94a8.55,8.55,0,0,1-.62-1,1.27,1.27,0,0,1-.12-.7,1,1,0,0,1,.36-.65,1.64,1.64,0,0,1,1.26-.22A2.27,2.27,0,0,1,243.35,127.11Z"/><path class="cls-1" d="M231.65,132.26a14,14,0,0,1,4.19-1.69,26.08,26.08,0,0,1,4.47-.75,35.86,35.86,0,0,1,4.52-.11l2.25.15c.74.11,1.49.19,2.23.31l-4.48.14c-1.49.08-3,.12-4.45.27s-2.95.31-4.41.56c-.74.12-1.46.28-2.18.46A16,16,0,0,0,231.65,132.26Z"/><path class="cls-1" d="M237.76,134a2.43,2.43,0,0,1-1.43.68,2.47,2.47,0,0,1-1.55-.27c.53-.12,1-.16,1.48-.24S237.21,134.07,237.76,134Z"/><path class="cls-1" d="M265.3,171.26a4.72,4.72,0,0,1-3,1.29,5.12,5.12,0,0,1-3.24-.91l.55-.36a1.58,1.58,0,0,1-.23,1.21,5.22,5.22,0,0,1-.66.84,8,8,0,0,1-1.59,1.32,8.36,8.36,0,0,1-3.91,1.26l.19-.75a9.42,9.42,0,0,0,2.05.8,3.42,3.42,0,0,1,2,1.49c.47.83,0,1.78.52,2.08a1.16,1.16,0,0,0,1-.11A2.65,2.65,0,0,1,260,179a2.89,2.89,0,0,0-1,.55,1.38,1.38,0,0,1-1.2.25.88.88,0,0,1-.5-.5,2.12,2.12,0,0,1-.12-.63,1.85,1.85,0,0,0-.24-1,2.9,2.9,0,0,0-1.72-1.08,9.12,9.12,0,0,1-2.26-.79l-1.08-.65,1.27-.1a8,8,0,0,0,5-2.31c.45-.43.86-.95.78-1.35l-.19-1,.74.62A4.91,4.91,0,0,0,265.3,171.26Z"/><path class="cls-1" d="M256.81,171.68c.74.77,1.31,1.62,2,2.34a7.68,7.68,0,0,0,2.39,1.8,3.81,3.81,0,0,1-2.85-1.37A7.28,7.28,0,0,1,256.81,171.68Z"/><path class="cls-1" d="M254.53,173.64a2.15,2.15,0,0,1-2.38-.63c.45.06.81.2,1.2.28S254.12,173.48,254.53,173.64Z"/><path class="cls-1" d="M238.43,239.17a14.12,14.12,0,0,0,.37,3.91,3.21,3.21,0,0,0,2,2.63,2.44,2.44,0,0,0,1.66-.1,1.1,1.1,0,0,1,.84,0,.83.83,0,0,1,.37.42,1.18,1.18,0,0,1,.06.38,1.89,1.89,0,0,0,0,.38.68.68,0,0,0,.16.26,1.94,1.94,0,0,0,.75.39c.28,0,.45.5.45.6s.07.34.1.51a5.75,5.75,0,0,1-.07,2,7.12,7.12,0,0,0-.39-1.92c-.09-.28-.26-.72-.29-.62a2.51,2.51,0,0,1-1-.43,1.37,1.37,0,0,1-.42-.55,2.15,2.15,0,0,1-.1-.61c0-.16,0-.1,0-.05s0,0-.13.07a3.3,3.3,0,0,1-2.24.16,3.23,3.23,0,0,1-1.82-1.37,4.81,4.81,0,0,1-.69-2A9,9,0,0,1,238.43,239.17Z"/><path class="cls-1" d="M245.76,241.4a8.27,8.27,0,0,0,.53,1.66,1.9,1.9,0,0,0,.5.62,6,6,0,0,1,.69.6,3.08,3.08,0,0,1,.73,1.77,4.49,4.49,0,0,1-.25,1.83,9.12,9.12,0,0,0-.19-1.76,3.46,3.46,0,0,0-.72-1.46,7.7,7.7,0,0,0-.64-.59,2.12,2.12,0,0,1-.52-.83A4,4,0,0,1,245.76,241.4Z"/><path class="cls-1" d="M248.11,255.64c0-.75.09-1.5.16-2.24a10.13,10.13,0,0,1,.4-2.28,3.39,3.39,0,0,1,.69-1.12c.29-.32.57-.56.8-.8a8.12,8.12,0,0,0,1.24-1.59,3.8,3.8,0,0,0,.38-3.53,2.54,2.54,0,0,0-1.12-1.29c-.22-.15-.54-.19-1-.43a1.79,1.79,0,0,1-.91-1.19l.65.3c-.4.1-.77.63-1.14,1.16a3.55,3.55,0,0,1-.69.76,1.37,1.37,0,0,1-1,.31,1.27,1.27,0,0,0,.73-.54,3.39,3.39,0,0,0,.42-.8,7.35,7.35,0,0,1,.41-.93,2.15,2.15,0,0,1,.85-.84l.4-.21.25.51a.9.9,0,0,0,.49.45,10.31,10.31,0,0,1,1.07.28,3.91,3.91,0,0,1,1.9,1.84,4.7,4.7,0,0,1,.44,2.56,5.61,5.61,0,0,1-.88,2.36,7.88,7.88,0,0,1-1.6,1.8c-.63.54-1.16.81-1.42,1.37a13.54,13.54,0,0,0-.75,2Q248.55,254.59,248.11,255.64Z"/><path class="cls-1" d="M260.66,223.09a2.92,2.92,0,0,0,.26-1.59,1.44,1.44,0,0,0-.54-1.24,2,2,0,0,0-.62-.23c-.05,0,0,0-.12.07l-.22.27a3.91,3.91,0,0,0-.54,1.41c-.13.52-.24,1.1-.42,1.65a9.18,9.18,0,0,1-.68,1.58,7.64,7.64,0,0,1-1,1.42,1.75,1.75,0,0,1-1.55.66,1.71,1.71,0,0,0,1.26-.89,12.29,12.29,0,0,0,.73-1.45,15.34,15.34,0,0,0,.89-3.14,4.66,4.66,0,0,1,.7-1.67,2.81,2.81,0,0,1,.34-.35.82.82,0,0,1,.63-.24,2.13,2.13,0,0,1,.91.41,1.83,1.83,0,0,1,.59,1.75A2.65,2.65,0,0,1,260.66,223.09Z"/><path class="cls-1" d="M258.38,221.7a2.17,2.17,0,0,0-.31-2,1.23,1.23,0,0,0-.78-.48c-.25,0-.44.21-.52.49s-.09.69-.16,1.08a8.8,8.8,0,0,1-.26,1.13,9.88,9.88,0,0,1-.9,2.15,10.1,10.1,0,0,1-1.38,1.88,4.22,4.22,0,0,1-2,1.25,6.76,6.76,0,0,1-1.15.16,3.07,3.07,0,0,1-1.2-.07,5,5,0,0,1-1-.56l-.48-.3-.24-.15s-.08-.05-.11-.1,0-.06,0-.07.06,0,0,0-.08,0,0,0l.12.05.26.11.52.22a4.41,4.41,0,0,0,1,.37,2.63,2.63,0,0,0,1,0,7,7,0,0,0,1.05-.24,6.2,6.2,0,0,0,2.92-2.95,9.72,9.72,0,0,0,.88-2,10.27,10.27,0,0,0,.29-1,7.55,7.55,0,0,1,.26-1.14,1.26,1.26,0,0,1,.41-.57.94.94,0,0,1,.72-.21,1.62,1.62,0,0,1,1,.74A2.25,2.25,0,0,1,258.38,221.7Z"/><path class="cls-1" d="M246.47,217.06a14,14,0,0,1,4.16,1.77,26.47,26.47,0,0,1,3.68,2.63,35.74,35.74,0,0,1,3.27,3.12l1.48,1.7c.46.61.93,1.19,1.36,1.8L257.16,225c-1.11-1-2.19-2-3.34-2.95s-2.3-1.87-3.51-2.73c-.6-.43-1.22-.84-1.86-1.21A14.4,14.4,0,0,0,246.47,217.06Z"/><path class="cls-1" d="M249.52,222.64a2.45,2.45,0,0,1-1.48-.53,2.48,2.48,0,0,1-.91-1.29c.46.29.83.59,1.22.88S249.12,222.27,249.52,222.64Z"/><path class="cls-1" d="M242.64,268.42a4.71,4.71,0,0,1-3-1.2,5.12,5.12,0,0,1-1.64-2.94l.64.14a1.6,1.6,0,0,1-1,.69,5.11,5.11,0,0,1-1.06.13,8.38,8.38,0,0,1-2.06-.2,8.24,8.24,0,0,1-3.65-1.88l.66-.39a9.33,9.33,0,0,0,.88,2,3.39,3.39,0,0,1,.34,2.45c-.25.92-1.28,1.23-1.1,1.84a1.13,1.13,0,0,0,.77.62,2.56,2.56,0,0,1,1,.49,2.87,2.87,0,0,0-1.09-.32,1.36,1.36,0,0,1-1-.67.92.92,0,0,1,0-.71,2.27,2.27,0,0,1,.36-.52,2,2,0,0,0,.53-.87,2.93,2.93,0,0,0-.46-2,9.41,9.41,0,0,1-1-2.16l-.3-1.22,1,.83a8,8,0,0,0,5.16,1.9c.63,0,1.28-.06,1.51-.4l.55-.82.08,1A4.94,4.94,0,0,0,242.64,268.42Z"/><path class="cls-1" d="M236.34,262.71c0,1.07-.22,2.07-.25,3.07a7.37,7.37,0,0,0,.42,3,3.77,3.77,0,0,1-1-3A7.13,7.13,0,0,1,236.34,262.71Z"/><path class="cls-1" d="M233.35,262.48a2.13,2.13,0,0,1-1.24-2.13c.27.36.42.72.64,1S233.16,262.07,233.35,262.48Z"/><path class="cls-1" d="M264.17,185.77c-.91,1.43-1.88,2.82-2.84,4.23s-2,2.76-2.95,4.14q-3,4.1-6.14,8.1l-.63-.91c4.62-1.33,9.27-2.56,14-3.56-4.5,1.75-9.06,3.25-13.66,4.67l-1.71.53,1.09-1.44q3-4.07,6.25-8c1.07-1.31,2.14-2.62,3.24-3.91S263,187,264.17,185.77Z"/><path class="cls-1" d="M259.76,195.79c1.07,1.05,2.07,2.15,3.05,3.28s1.9,2.3,2.79,3.49l.32.43-.51,0c-1.09-.06-2.19-.12-3.29-.26,1.1-.13,2.2-.18,3.3-.23l-.19.4c-1-1.11-1.94-2.27-2.86-3.44S260.58,197.05,259.76,195.79Z"/><path class="cls-2" d="M82.33,69.35a134.72,134.72,0,0,0,0,246.34"/><path class="cls-2" d="M191.88,69.58a134.72,134.72,0,0,1,0,245.88"/><path class="cls-1" d="M61.61,298.78a4.74,4.74,0,0,1,1.18-3,5.1,5.1,0,0,1,2.93-1.66l-.13.63a1.62,1.62,0,0,1-.7-1,5.11,5.11,0,0,1-.13-1.06,7.91,7.91,0,0,1,.18-2.06,8.13,8.13,0,0,1,1.86-3.66l.39.66a9.33,9.33,0,0,0-2,.89,3.44,3.44,0,0,1-2.45.36c-.92-.25-1.24-1.28-1.84-1.1a1.17,1.17,0,0,0-.62.78,2.43,2.43,0,0,1-.49,1,2.7,2.7,0,0,0,.32-1.09,1.37,1.37,0,0,1,.67-1,.85.85,0,0,1,.7,0,1.69,1.69,0,0,1,.53.35,1.91,1.91,0,0,0,.87.52,2.89,2.89,0,0,0,2-.47,9.55,9.55,0,0,1,2.15-1l1.22-.31-.83,1a8.07,8.07,0,0,0-1.65,3.31,7.81,7.81,0,0,0-.21,1.86c0,.62.07,1.28.41,1.5l.82.55-1,.09A4.93,4.93,0,0,0,61.61,298.78Z"/><path class="cls-1" d="M67.29,292.44c-1.07,0-2.08-.2-3.07-.23a7.62,7.62,0,0,0-3,.44,3.86,3.86,0,0,1,3-1.07A7.3,7.3,0,0,1,67.29,292.44Z"/><path class="cls-1" d="M67.49,289.45a2.08,2.08,0,0,1,.87-1,2.05,2.05,0,0,1,1.26-.29c-.36.27-.72.43-1.05.65S67.9,289.27,67.49,289.45Z"/><path class="cls-1" d="M70.58,83.57a2.87,2.87,0,0,0-1.31.94,1.46,1.46,0,0,0-.48,1.26,1.89,1.89,0,0,0,.27.6s0,0,.14,0l.34,0a4.17,4.17,0,0,0,1.39-.62c.46-.28.93-.61,1.45-.87a8.48,8.48,0,0,1,1.6-.64,8,8,0,0,1,1.69-.32,1.73,1.73,0,0,1,1.57.63,1.69,1.69,0,0,0-1.52-.26,10.68,10.68,0,0,0-1.54.51,15.21,15.21,0,0,0-2.85,1.6,4.37,4.37,0,0,1-1.67.69,3.93,3.93,0,0,1-.49,0,.88.88,0,0,1-.61-.28,2.09,2.09,0,0,1-.36-.94A1.82,1.82,0,0,1,69,84.23,2.69,2.69,0,0,1,70.58,83.57Z"/><path class="cls-1" d="M71.22,86.16A2.18,2.18,0,0,0,70,87.82a1.26,1.26,0,0,0,.22.9.57.57,0,0,0,.71,0c.26-.14.55-.43.87-.64a10.18,10.18,0,0,1,1-.63,9.92,9.92,0,0,1,4.46-1.25,4.37,4.37,0,0,1,2.34.55,7.58,7.58,0,0,1,.93.71,3.13,3.13,0,0,1,.8.89,5.64,5.64,0,0,1,.33,1.12l.13.55.06.28a.61.61,0,0,1,0,.14s0,.07-.06,0,0-.06,0,0,0,.06,0,0a.61.61,0,0,0,0-.12l-.11-.26-.21-.53a4.45,4.45,0,0,0-.47-1,2.73,2.73,0,0,0-.76-.71,7,7,0,0,0-.93-.57,6.22,6.22,0,0,0-4.15,0,10.49,10.49,0,0,0-2,.79,8,8,0,0,0-.95.54,7.77,7.77,0,0,1-1,.62,1.22,1.22,0,0,1-.69.12.91.91,0,0,1-.65-.36,1.59,1.59,0,0,1-.22-1.25A2.25,2.25,0,0,1,71.22,86.16Z"/><path class="cls-1" d="M76.39,97.85a14.31,14.31,0,0,1-1.7-4.19,27,27,0,0,1-.76-4.46,36,36,0,0,1-.11-4.52L74,82.43c.11-.75.18-1.5.31-2.24l.14,4.49c.09,1.48.13,3,.29,4.45s.31,3,.56,4.41c.13.73.28,1.45.47,2.17A16,16,0,0,0,76.39,97.85Z"/><path class="cls-1" d="M78.16,91.74a2.61,2.61,0,0,1,.42,3c-.12-.53-.17-1-.24-1.48S78.19,92.28,78.16,91.74Z"/><path class="cls-1" d="M41.78,107.57c1.66-.38,3.33-.68,5-1s3.34-.58,5-.86c3.35-.52,6.7-1,10.07-1.41l-.2,1.08c-4.21-2.31-8.38-4.71-12.43-7.33,4.42,1.93,8.72,4.08,13,6.31l1.58.83-1.78.26c-3.35.48-6.72.9-10.08,1.28-1.69.17-3.38.34-5.07.49S43.48,107.49,41.78,107.57Z"/><path class="cls-1" d="M52,103.57c0-1.5.05-3,.16-4.48s.27-3,.48-4.45l.07-.53.34.38c.74.82,1.47,1.64,2.15,2.51-.87-.68-1.68-1.42-2.49-2.16l.41-.15c-.09,1.49-.23,3-.4,4.45S52.28,102.1,52,103.57Z"/><path class="cls-1" d="M212.53,86.58a4.69,4.69,0,0,1-1.19,3,5.07,5.07,0,0,1-2.94,1.64l.14-.63a1.56,1.56,0,0,1,.69,1,5,5,0,0,1,.13,1.06,7.84,7.84,0,0,1-.19,2,8.25,8.25,0,0,1-1.87,3.66l-.39-.66a9.85,9.85,0,0,0,2-.89,3.35,3.35,0,0,1,2.44-.34c.92.25,1.24,1.28,1.84,1.1a1.13,1.13,0,0,0,.62-.77,2.54,2.54,0,0,1,.49-1,2.93,2.93,0,0,0-.32,1.09,1.38,1.38,0,0,1-.67,1,.85.85,0,0,1-.7,0,2.12,2.12,0,0,1-.53-.35,1.85,1.85,0,0,0-.87-.53,2.93,2.93,0,0,0-2,.46,9.33,9.33,0,0,1-2.15,1l-1.23.31.83-1a7.87,7.87,0,0,0,1.67-3.31,8.3,8.3,0,0,0,.22-1.86c0-.62-.06-1.28-.4-1.5l-.82-.55,1-.09A4.92,4.92,0,0,0,212.53,86.58Z"/><path class="cls-1" d="M206.83,92.89c1.07,0,2.08.22,3.07.24a7.44,7.44,0,0,0,3-.42,3.8,3.8,0,0,1-3,1.05A7.16,7.16,0,0,1,206.83,92.89Z"/><path class="cls-1" d="M206.61,95.88a2,2,0,0,1-.87,1,2,2,0,0,1-1.26.28c.36-.26.72-.42,1.05-.64S206.2,96.07,206.61,95.88Z"/><path class="cls-1" d="M222,97.63c.36,1.66.67,3.33,1,5s.58,3.35.85,5c.51,3.35,1,6.71,1.39,10.07l-1.08-.2c2.32-4.21,4.73-8.37,7.36-12.41-1.94,4.41-4.1,8.71-6.34,13l-.83,1.58-.26-1.78c-.48-3.35-.89-6.72-1.25-10.09-.18-1.68-.35-3.37-.49-5.06S222.08,99.33,222,97.63Z"/><path class="cls-1" d="M226,107.83c1.5,0,3,0,4.48.17s3,.27,4.45.48l.52.07-.38.34c-.82.74-1.64,1.47-2.51,2.15.69-.87,1.43-1.68,2.17-2.49l.15.41c-1.49-.08-3-.23-4.46-.41S227.45,108.14,226,107.83Z"/><path class="cls-1" d="M202.67,301.75a2.82,2.82,0,0,0,1.31-.94,1.43,1.43,0,0,0,.49-1.26,2,2,0,0,0-.27-.6s0,0-.13,0a2.07,2.07,0,0,0-.35,0,4.17,4.17,0,0,0-1.39.62c-.46.27-.93.6-1.45.86a9.31,9.31,0,0,1-1.61.64,7.88,7.88,0,0,1-1.69.31,1.73,1.73,0,0,1-1.56-.64,1.68,1.68,0,0,0,1.51.27,10.81,10.81,0,0,0,1.55-.51,15.15,15.15,0,0,0,2.85-1.59,4.4,4.4,0,0,1,1.68-.67,2.54,2.54,0,0,1,.48,0,.79.79,0,0,1,.61.28,2.05,2.05,0,0,1,.36.93,1.82,1.82,0,0,1-.82,1.66A2.66,2.66,0,0,1,202.67,301.75Z"/><path class="cls-1" d="M202,299.15a2.16,2.16,0,0,0,1.23-1.65,1.26,1.26,0,0,0-.22-.9.58.58,0,0,0-.71,0c-.26.15-.55.43-.87.65s-.65.43-1,.62a10.91,10.91,0,0,1-2.15.88,10,10,0,0,1-2.31.35,4.35,4.35,0,0,1-2.33-.56,8.88,8.88,0,0,1-.94-.71,3.46,3.46,0,0,1-.79-.9,5.45,5.45,0,0,1-.33-1.12l-.12-.55-.06-.28s0-.09,0-.14,0-.06.07-.05,0,.06,0,.06,0-.07,0,0a.43.43,0,0,0,0,.13l.11.26.21.52a4.75,4.75,0,0,0,.46,1,2.73,2.73,0,0,0,.76.71,7.66,7.66,0,0,0,.92.57,6.16,6.16,0,0,0,4.15,0,10.3,10.3,0,0,0,2-.78,8,8,0,0,0,1-.54,8.55,8.55,0,0,1,1-.62,1.46,1.46,0,0,1,.69-.12,1,1,0,0,1,.66.37,1.64,1.64,0,0,1,.21,1.26A2.24,2.24,0,0,1,202,299.15Z"/><path class="cls-1" d="M196.92,287.45a14.27,14.27,0,0,1,1.68,4.19,27.08,27.08,0,0,1,.74,4.47,37.85,37.85,0,0,1,.1,4.52l-.16,2.25c-.1.74-.18,1.49-.31,2.23l-.13-4.49c-.08-1.48-.12-3-.27-4.45s-.3-2.95-.54-4.41c-.12-.73-.27-1.46-.46-2.17A14.65,14.65,0,0,0,196.92,287.45Z"/><path class="cls-1" d="M195.12,293.55a2.48,2.48,0,0,1-.67-1.43,2.4,2.4,0,0,1,.27-1.55c.12.53.16,1,.23,1.48S195.09,293,195.12,293.55Z"/><path class="cls-1" d="M231.57,277.87c-1.66.37-3.33.67-5,1s-3.34.57-5,.83c-3.35.51-6.71,1-10.07,1.38l.2-1.09c4.2,2.34,8.36,4.76,12.4,7.39-4.41-1.95-8.71-4.11-13-6.37l-1.58-.83,1.78-.25q5-.71,10.09-1.24c1.69-.17,3.37-.33,5.07-.47S229.87,277.94,231.57,277.87Z"/><path class="cls-1" d="M221.36,281.83c0,1.5-.06,3-.18,4.48s-.28,3-.49,4.44l-.07.53-.34-.38c-.74-.82-1.47-1.64-2.15-2.52.87.69,1.68,1.43,2.49,2.18l-.41.14c.09-1.49.24-3,.42-4.45S221,283.29,221.36,281.83Z"/><circle class="cls-2" cx="137.13" cy="326.93" r="55.93"/><circle class="cls-2" cx="137.13" cy="58.11" r="55.93"/><path class="cls-1" d="M11.65,215.44a4.71,4.71,0,0,1,2.94-1.39,5,5,0,0,1,3.27.81l-.53.37a1.57,1.57,0,0,1,.19-1.22,5.31,5.31,0,0,1,.63-.86,8.1,8.1,0,0,1,1.55-1.37,8.21,8.21,0,0,1,3.86-1.38l-.16.75a9.39,9.39,0,0,0-2.08-.73,3.47,3.47,0,0,1-2-1.42c-.49-.82,0-1.78-.58-2.07a1.15,1.15,0,0,0-1,.15,2.76,2.76,0,0,1-1.07.42,3,3,0,0,0,1-.58,1.36,1.36,0,0,1,1.2-.29.86.86,0,0,1,.51.48,1.89,1.89,0,0,1,.14.62,2,2,0,0,0,.28,1,2.88,2.88,0,0,0,1.75,1,8.94,8.94,0,0,1,2.28.72l1.11.61-1.27.14a8.05,8.05,0,0,0-4.91,2.47c-.44.45-.83,1-.74,1.38l.23,1-.76-.59A4.92,4.92,0,0,0,11.65,215.44Z"/><path class="cls-1" d="M20.13,214.74c-.77-.75-1.37-1.58-2.07-2.28a7.55,7.55,0,0,0-2.45-1.71,3.82,3.82,0,0,1,2.9,1.27A7.41,7.41,0,0,1,20.13,214.74Z"/><path class="cls-1" d="M22.33,212.71a2.11,2.11,0,0,1,1.29-.11,2,2,0,0,1,1.11.66c-.44,0-.81-.18-1.2-.25S22.76,212.85,22.33,212.71Z"/><path class="cls-1" d="M36.27,146.68a14.39,14.39,0,0,0-.5-3.9,3.19,3.19,0,0,0-2.12-2.55,2.45,2.45,0,0,0-1.66.14,1,1,0,0,1-.83,0,.76.76,0,0,1-.39-.4,1,1,0,0,1-.07-.38,2.14,2.14,0,0,0,0-.38.59.59,0,0,0-.16-.25,2.12,2.12,0,0,0-.77-.37c-.28,0-.46-.49-.46-.58a4.7,4.7,0,0,1-.12-.51,5.6,5.6,0,0,1,0-2,7.18,7.18,0,0,0,.45,1.92c.1.27.29.71.31.61a2.43,2.43,0,0,1,1.06.39,1.49,1.49,0,0,1,.44.54,2.19,2.19,0,0,1,.11.6c0,.16,0,.1,0,.06s0,0,.13-.08a3.37,3.37,0,0,1,2.24-.24,3.29,3.29,0,0,1,1.86,1.31,4.85,4.85,0,0,1,.76,2A9.07,9.07,0,0,1,36.27,146.68Z"/><path class="cls-1" d="M28.87,144.7a8,8,0,0,0-.58-1.65,2.15,2.15,0,0,0-.52-.6,6,6,0,0,1-.71-.58,3.05,3.05,0,0,1-.79-1.75,4.49,4.49,0,0,1,.19-1.83,8.89,8.89,0,0,0,.25,1.75,3.39,3.39,0,0,0,.76,1.44c.17.18.44.37.66.57a1.86,1.86,0,0,1,.55.81A3.88,3.88,0,0,1,28.87,144.7Z"/><path class="cls-1" d="M26.05,130.54c0,.75,0,1.5-.09,2.24a9.56,9.56,0,0,1-.32,2.3,3.32,3.32,0,0,1-.65,1.14c-.28.32-.55.57-.78.82A8.33,8.33,0,0,0,23,138.67a3.77,3.77,0,0,0-.26,3.54,2.51,2.51,0,0,0,1.16,1.26c.23.14.54.17,1,.39a1.8,1.8,0,0,1,1,1.16l-.66-.28c.4-.11.75-.65,1.1-1.19a3.12,3.12,0,0,1,.67-.78,1.36,1.36,0,0,1,.94-.35,1.33,1.33,0,0,0-.71.56,3.86,3.86,0,0,0-.39.82,7.12,7.12,0,0,1-.38.94,2.18,2.18,0,0,1-.82.87l-.4.23-.26-.51a.87.87,0,0,0-.5-.43c-.19-.07-.63-.09-1.08-.25a3.86,3.86,0,0,1-2-1.77,4.68,4.68,0,0,1-.53-2.55,5.89,5.89,0,0,1,.8-2.39,8.38,8.38,0,0,1,1.54-1.85c.62-.56,1.13-.84,1.38-1.41a14,14,0,0,0,.68-2C25.55,132,25.79,131.25,26.05,130.54Z"/><path class="cls-1" d="M14.58,163.49a2.9,2.9,0,0,0-.21,1.59A1.44,1.44,0,0,0,15,166.3a2.22,2.22,0,0,0,.62.22c.06,0,0,0,.12-.08a2,2,0,0,0,.21-.28,4,4,0,0,0,.5-1.43c.11-.52.19-1.1.36-1.65a9.78,9.78,0,0,1,.63-1.61,7.94,7.94,0,0,1,.93-1.45,1.74,1.74,0,0,1,1.53-.71,1.68,1.68,0,0,0-1.23.93,12.29,12.29,0,0,0-.68,1.47,15.65,15.65,0,0,0-.79,3.17,4.52,4.52,0,0,1-.65,1.69,3.68,3.68,0,0,1-.32.37.84.84,0,0,1-.62.25,2.09,2.09,0,0,1-.93-.38,1.84,1.84,0,0,1-.65-1.73A2.72,2.72,0,0,1,14.58,163.49Z"/><path class="cls-1" d="M16.91,164.8a2.19,2.19,0,0,0,.37,2,1.27,1.27,0,0,0,.8.45c.25,0,.43-.22.51-.51s.06-.69.12-1.08a9.16,9.16,0,0,1,.22-1.14,10.3,10.3,0,0,1,.83-2.18,9.51,9.51,0,0,1,1.32-1.92,4.22,4.22,0,0,1,2-1.32,6.94,6.94,0,0,1,1.15-.2,3.05,3.05,0,0,1,1.2,0,4.6,4.6,0,0,1,1,.52l.49.28.24.15a.47.47,0,0,1,.12.09s0,.06,0,.07-.07,0,0,0,.08,0,0,0a.39.39,0,0,0-.13-.06l-.26-.09-.53-.21a5,5,0,0,0-1-.34,2.85,2.85,0,0,0-1,.08,8,8,0,0,0-1,.28,6.17,6.17,0,0,0-2.82,3,11.44,11.44,0,0,0-1.07,3.07,8.79,8.79,0,0,1-.22,1.15,1.39,1.39,0,0,1-.39.58.93.93,0,0,1-.71.23,1.63,1.63,0,0,1-1.07-.7A2.26,2.26,0,0,1,16.91,164.8Z"/><path class="cls-1" d="M29,169.05a14.49,14.49,0,0,1-4.21-1.63A26.62,26.62,0,0,1,21,164.9a35.66,35.66,0,0,1-3.37-3l-1.54-1.65c-.47-.59-1-1.16-1.42-1.76l3.37,3c1.14.95,2.25,1.94,3.43,2.84s2.36,1.79,3.6,2.61c.62.41,1.25.8,1.9,1.15A14.42,14.42,0,0,0,29,169.05Z"/><path class="cls-1" d="M25.73,163.57a2.44,2.44,0,0,1,1.5.48,2.4,2.4,0,0,1,.95,1.26c-.47-.28-.85-.57-1.25-.84S26.15,163.92,25.73,163.57Z"/><path class="cls-1" d="M12.3,200.9c.87-1.46,1.79-2.89,2.7-4.32s1.87-2.83,2.82-4.23q2.87-4.2,5.87-8.3l.65.89c-4.57,1.48-9.17,2.86-13.86,4,4.44-1.89,9-3.55,13.5-5.11l1.69-.59-1,1.48c-1.94,2.77-3.95,5.5-6,8.21-1,1.35-2.06,2.7-3.12,4S13.41,199.61,12.3,200.9Z"/><path class="cls-1" d="M16.38,190.74c-1.1-1-2.14-2.08-3.15-3.18s-2-2.23-2.91-3.4l-.34-.41h.51c1.1,0,2.2.05,3.31.15-1.1.17-2.2.25-3.29.33l.17-.4c1,1.09,2,2.21,3,3.35S15.52,189.51,16.38,190.74Z"/><path class="cls-1" d="M33.7,232.88a14.72,14.72,0,0,0-3.15-2.34,3.21,3.21,0,0,0-3.32-.23,2.43,2.43,0,0,0-1,1.29,1,1,0,0,1-.55.63.77.77,0,0,1-.56,0,.93.93,0,0,1-.32-.21,2.92,2.92,0,0,0-.3-.24.6.6,0,0,0-.29-.06,2,2,0,0,0-.8.3c-.22.17-.67,0-.74-.07l-.44-.26a5.68,5.68,0,0,1-1.47-1.42,6.61,6.61,0,0,0,1.69,1c.27.12.71.29.65.2a2.56,2.56,0,0,1,1-.49,1.39,1.39,0,0,1,.69.06,1.86,1.86,0,0,1,.51.33c.13.1.11,0,0,.06s0,0,0-.15a3.33,3.33,0,0,1,1.38-1.78,3.26,3.26,0,0,1,2.23-.44,5,5,0,0,1,2,.85A9.1,9.1,0,0,1,33.7,232.88Z"/><path class="cls-1" d="M27.15,236.85a7.52,7.52,0,0,0-1.6-.72,1.92,1.92,0,0,0-.79,0,5,5,0,0,1-.91.12,3,3,0,0,1-1.8-.65,4.2,4.2,0,0,1-1.19-1.4,9,9,0,0,0,1.43,1,3.45,3.45,0,0,0,1.56.45,7.35,7.35,0,0,0,.87-.09,2.12,2.12,0,0,1,1,.17A4.13,4.13,0,0,1,27.15,236.85Z"/><path class="cls-1" d="M15,229.08q.81.78,1.56,1.62A9.76,9.76,0,0,1,18,232.51a3.32,3.32,0,0,1,.37,1.27c0,.42,0,.79.06,1.12a8.63,8.63,0,0,0,.35,2,3.82,3.82,0,0,0,2.38,2.64,2.52,2.52,0,0,0,1.71,0c.26-.07.49-.27,1-.48a1.83,1.83,0,0,1,1.5.12l-.67.28a2.64,2.64,0,0,0-.09-1.62,3.16,3.16,0,0,1-.1-1,1.37,1.37,0,0,1,.4-.92,1.34,1.34,0,0,0-.09.9,3.66,3.66,0,0,0,.33.85,8.1,8.1,0,0,1,.41.93,2.24,2.24,0,0,1,.06,1.19l-.11.44-.55-.16a.93.93,0,0,0-.66.06c-.18.09-.5.4-.92.61a3.89,3.89,0,0,1-2.64.19,4.79,4.79,0,0,1-2.21-1.39,5.82,5.82,0,0,1-1.16-2.23,8.13,8.13,0,0,1-.27-2.39,4.82,4.82,0,0,0-.07-2,13.17,13.17,0,0,0-1-1.89C15.66,230.42,15.31,229.76,15,229.08Z"/></g></g></svg>