<svg xmlns="http://www.w3.org/2000/svg" viewBox="0 0 426.72 427.09"><defs><style>.cls-1{opacity:0.25;}.cls-2{fill:#303030;}.cls-3,.cls-4{fill:none;stroke:#303030;stroke-miterlimit:10;}.cls-3{stroke-width:6.84px;}.cls-4{stroke-width:3.71px;}</style></defs><title>Ресурс 7</title><g id="Слой_2" data-name="Слой 2"><g id="Слой_1-2" data-name="Слой 1"><g class="cls-1"><path class="cls-2" d="M358.49,310.73a22.61,22.61,0,0,0-.41,6.11c.11,2,.86,3.86,2.49,4.56a3.73,3.73,0,0,0,2.58.27,1.62,1.62,0,0,1,1.29.2,1.14,1.14,0,0,1,.46.73,1.7,1.7,0,0,1,0,.6,3.22,3.22,0,0,0-.07.59.9.9,0,0,0,.17.43,3.21,3.21,0,0,0,1.07.81,1,1,0,0,1,.47.55,2.49,2.49,0,0,1,.06.47,7.31,7.31,0,0,1,0,.81A8.42,8.42,0,0,1,366,330a11.65,11.65,0,0,0-.11-3.07c0-.24-.09-.49-.14-.73a1.92,1.92,0,0,0-.09-.3s0,.06-.06,0a4,4,0,0,1-1.5-.92,2.13,2.13,0,0,1-.51-1,2.93,2.93,0,0,1,0-1,.36.36,0,0,0,0-.18s0,.07,0,.1,0,0-.22.07a5.18,5.18,0,0,1-3.5-.3,5.09,5.09,0,0,1-2.45-2.56,7.63,7.63,0,0,1-.56-3.32A13.94,13.94,0,0,1,358.49,310.73Z"/><path class="cls-2" d="M369.22,316a13.39,13.39,0,0,0,.41,2.7,3,3,0,0,0,.61,1.08,10.88,10.88,0,0,1,.92,1.1,4.88,4.88,0,0,1,.67,2.91,6.6,6.6,0,0,1-.84,2.74,14.23,14.23,0,0,0,.14-2.74,5.12,5.12,0,0,0-.73-2.43,11.85,11.85,0,0,0-.84-1.08,3.22,3.22,0,0,1-.6-1.41A6.26,6.26,0,0,1,369.22,316Z"/><path class="cls-2" d="M369.29,338.52c.22-1.14.5-2.28.8-3.4a15.44,15.44,0,0,1,1.18-3.42,5.16,5.16,0,0,1,1.35-1.55c.52-.42,1-.72,1.43-1a12.48,12.48,0,0,0,2.31-2.15,7.5,7.5,0,0,0,1.42-2.57,5.31,5.31,0,0,0,0-2.77,4,4,0,0,0-1.39-2.27,4.32,4.32,0,0,0-.59-.38,5.71,5.71,0,0,1-.89-.53,2.85,2.85,0,0,1-1.11-2.07l.93.63c-.65.05-1.35.77-2,1.5a5.11,5.11,0,0,1-1.26,1,2.11,2.11,0,0,1-1.54.25,2.11,2.11,0,0,0,1.26-.65A6,6,0,0,0,372,318a11.49,11.49,0,0,1,.87-1.32,3.4,3.4,0,0,1,1.51-1.09l.68-.22.25.86a1.42,1.42,0,0,0,.64.81,4.56,4.56,0,0,0,.64.26,6.45,6.45,0,0,1,.93.44A6,6,0,0,1,380,321a7.14,7.14,0,0,1,0,4.07,8.82,8.82,0,0,1-1.95,3.41,12.82,12.82,0,0,1-2.91,2.37c-.54.34-1.06.58-1.49.83a3.56,3.56,0,0,0-1,.92,22.9,22.9,0,0,0-1.65,2.89C370.47,336.51,369.9,337.52,369.29,338.52Z"/><path class="cls-3" d="M420.93,248.43a209.39,209.39,0,0,1-69,123.31,57.26,57.26,0,1,0-94.83,47.39A210.74,210.74,0,0,1,106,394,57.28,57.28,0,1,0,31.58,318.5,209.33,209.33,0,0,1,6.39,178.43c.64-3.83,1.39-7.58,2.25-11.32A57.27,57.27,0,1,0,57.3,72.89,210.52,210.52,0,0,1,195.25,4,57.25,57.25,0,1,0,299.81,21.62,210.7,210.7,0,0,1,407.07,131a57.26,57.26,0,1,0,15.57,104.9C422.23,240.06,421.64,244.24,420.93,248.43Z"/><path class="cls-2" d="M396.77,291.51a4.76,4.76,0,0,0,.8-2.38,2.28,2.28,0,0,0-.53-2.05,3.26,3.26,0,0,0-.89-.51c-.09,0-.06,0-.21.08a3.44,3.44,0,0,0-.4.37,6.12,6.12,0,0,0-1.2,2c-.33.76-.63,1.62-1,2.42a14.11,14.11,0,0,1-1.45,2.27A12.23,12.23,0,0,1,390,295.7a2.71,2.71,0,0,1-2.56.62,2.64,2.64,0,0,0,2.16-1.06,17.12,17.12,0,0,0,1.5-2.05,23.52,23.52,0,0,0,2.15-4.62,7.1,7.1,0,0,1,1.51-2.38,5.66,5.66,0,0,1,.6-.47,1.31,1.31,0,0,1,1-.2,2.1,2.1,0,0,1,.75.39,4.59,4.59,0,0,1,.55.47,2.18,2.18,0,0,1,.64,1.43,4.75,4.75,0,0,1-1.54,3.68Z"/><path class="cls-2" d="M393.59,288.8a3.38,3.38,0,0,0,.05-3.22,1.9,1.9,0,0,0-1.1-.92.9.9,0,0,0-.91.62c-.2.42-.31,1-.52,1.61a15.14,15.14,0,0,1-.68,1.68,16.44,16.44,0,0,1-1.92,3.09,15.75,15.75,0,0,1-2.61,2.55,6.8,6.8,0,0,1-3.46,1.43,12.14,12.14,0,0,1-1.82,0,4.8,4.8,0,0,1-1.83-.43,8.19,8.19,0,0,1-1.44-1.11l-.66-.58-.32-.3a1.29,1.29,0,0,1-.16-.17s0-.11,0-.12.09.05,0,.07,0-.06,0,0,0,0,0,.07a.74.74,0,0,0,.17.12l.38.23.74.47a7.15,7.15,0,0,0,1.49.83,4.25,4.25,0,0,0,1.61.18,11.55,11.55,0,0,0,1.69-.1,6.31,6.31,0,0,0,2.88-1.4,15.31,15.31,0,0,0,2.36-2.4,16.1,16.1,0,0,0,1.85-2.84,14.24,14.24,0,0,0,.7-1.54,14.15,14.15,0,0,1,.69-1.7,2.06,2.06,0,0,1,.77-.78,1.42,1.42,0,0,1,1.17-.14,2.45,2.45,0,0,1,1.41,1.41A3.49,3.49,0,0,1,393.59,288.8Z"/><path class="cls-2" d="M376.42,278.67a22.14,22.14,0,0,1,6,3.76,42.16,42.16,0,0,1,5,5,56.45,56.45,0,0,1,4.26,5.62c.64,1,1.25,2,1.86,3s1.13,2,1.64,3.11l-4.26-5.56c-1.45-1.82-2.87-3.66-4.4-5.39s-3.08-3.46-4.73-5.08c-.84-.8-1.68-1.59-2.57-2.34A23,23,0,0,0,376.42,278.67Z"/><path class="cls-2" d="M379.71,288a3.85,3.85,0,0,1-2.15-1.19,3.76,3.76,0,0,1-1.07-2.21c.64.56,1.12,1.12,1.65,1.66S379.18,287.37,379.71,288Z"/><path class="cls-2" d="M213.85,416.66a7.37,7.37,0,0,1-1.24-4.93,7.73,7.73,0,0,1,2.23-4.76l.41.94a2.49,2.49,0,0,1-1.81-.67,7.89,7.89,0,0,1-1.12-1.22,12.2,12.2,0,0,1-1.63-2.79,12.85,12.85,0,0,1-.95-6.34l1.1.48a14.35,14.35,0,0,0-1.74,3,5.41,5.41,0,0,1-2.79,2.68,3.76,3.76,0,0,1-2,0c-.57-.1-1.09-.13-1.37.24a1.77,1.77,0,0,0-.08,1.54,4.1,4.1,0,0,1,.32,1.77,4.46,4.46,0,0,0-.59-1.67,2.16,2.16,0,0,1-.08-1.93,1.4,1.4,0,0,1,.89-.63,3.4,3.4,0,0,1,1,0,2.87,2.87,0,0,0,1.57-.14,4.49,4.49,0,0,0,2.1-2.36,14.4,14.4,0,0,1,1.8-3.27l1.27-1.5-.17,2a12.32,12.32,0,0,0,.88,5.72,12.71,12.71,0,0,0,1.41,2.55c.56.8,1.24,1.57,1.88,1.54l1.56-.06-1.16,1a7.27,7.27,0,0,0-2.28,4.06A7.57,7.57,0,0,0,213.85,416.66Z"/><path class="cls-2" d="M215.35,403.48c-1.38.94-2.83,1.6-4.12,2.47a11.58,11.58,0,0,0-3.36,3.23,4.76,4.76,0,0,1,1-2.32,7.46,7.46,0,0,1,1.86-1.73A11.16,11.16,0,0,1,215.35,403.48Z"/><path class="cls-2" d="M212.91,399.48a3.08,3.08,0,0,1,.23-2,3,3,0,0,1,1.35-1.5c-.23.66-.5,1.2-.75,1.77S213.25,398.87,212.91,399.48Z"/><path class="cls-2" d="M135.19,396.38a4.67,4.67,0,0,0,2.38.8,2.25,2.25,0,0,0,2.05-.52,3.26,3.26,0,0,0,.51-.89c0-.09,0-.06-.08-.21a3.33,3.33,0,0,0-.36-.4,6.22,6.22,0,0,0-2-1.2c-.77-.33-1.62-.64-2.42-1.06a14.11,14.11,0,0,1-2.27-1.45,12.64,12.64,0,0,1-1.94-1.86,2.7,2.7,0,0,1-.62-2.57,2.69,2.69,0,0,0,1,2.17,16,16,0,0,0,2.05,1.49,23.2,23.2,0,0,0,4.61,2.17,7.13,7.13,0,0,1,2.39,1.51,4.54,4.54,0,0,1,.46.6,1.32,1.32,0,0,1,.2,1,2.15,2.15,0,0,1-.39.76,7,7,0,0,1-.47.55,2.22,2.22,0,0,1-1.43.63,4,4,0,0,1-1.41-.17A4.12,4.12,0,0,1,135.19,396.38Z"/><path class="cls-2" d="M137.91,393.21a3.38,3.38,0,0,0,3.22.05,1.92,1.92,0,0,0,.92-1.09.91.91,0,0,0-.62-.92c-.42-.2-1-.31-1.61-.52a15.14,15.14,0,0,1-1.68-.68,16.09,16.09,0,0,1-3.08-1.93,15.75,15.75,0,0,1-2.55-2.61,6.91,6.91,0,0,1-1.42-3.47,12.17,12.17,0,0,1,0-1.82,5.1,5.1,0,0,1,.44-1.83,8.11,8.11,0,0,1,1.11-1.43l.59-.66.3-.33a.63.63,0,0,1,.17-.15s.1,0,.11,0,0,.1-.07,0,.06,0,.05,0-.05,0-.07,0a.74.74,0,0,0-.12.17l-.23.38-.47.74a7.35,7.35,0,0,0-.83,1.48,4.27,4.27,0,0,0-.19,1.61,13,13,0,0,0,.1,1.69,6.2,6.2,0,0,0,1.4,2.89,14.83,14.83,0,0,0,2.39,2.36,16.45,16.45,0,0,0,2.83,1.86,16.73,16.73,0,0,0,1.55.71,13.87,13.87,0,0,1,1.69.68,2.23,2.23,0,0,1,.79.77,1.45,1.45,0,0,1,.13,1.17,2.47,2.47,0,0,1-1.41,1.41A3.49,3.49,0,0,1,137.91,393.21Z"/><path class="cls-2" d="M148.07,376.05a22.11,22.11,0,0,1-3.77,6,42.16,42.16,0,0,1-5,5,56.48,56.48,0,0,1-5.63,4.25c-1,.64-2,1.24-3,1.85s-2.06,1.12-3.12,1.63l5.57-4.24c1.82-1.45,3.66-2.86,5.4-4.4s3.47-3.06,5.09-4.71c.8-.84,1.6-1.68,2.35-2.56A23.09,23.09,0,0,0,148.07,376.05Z"/><path class="cls-2" d="M138.71,379.33a4.06,4.06,0,0,1,3.4-3.22c-.56.64-1.12,1.12-1.66,1.65S139.37,378.8,138.71,379.33Z"/><path class="cls-2" d="M191.78,411.25c-3.94-3.56-7.69-7.29-11.42-11.05s-7.35-7.61-10.92-11.51L171,388c.24,1.86.42,3.73.62,5.6s.37,3.73.55,5.6c.32,3.74.62,7.48.76,11.25-.79-3.68-1.44-7.38-2.06-11.09-.29-1.85-.61-3.7-.87-5.56s-.56-3.71-.8-5.57l-.34-2.73,1.9,2c3.66,3.82,7.24,7.72,10.77,11.66S188.5,407.07,191.78,411.25Z"/><path class="cls-2" d="M177.47,401.91c-1.89,1.39-3.84,2.66-5.84,3.86s-4,2.35-6.08,3.43l-.73.38.16-.78c.18-.84.37-1.68.57-2.51s.42-1.67.68-2.5c0,.86-.13,1.72-.2,2.58s-.18,1.71-.29,2.56l-.57-.4c2-1.23,4-2.4,6-3.52S175.32,402.84,177.47,401.91Z"/><path class="cls-2" d="M42.33,246.5a22.63,22.63,0,0,0-4-4.62c-1.46-1.31-3.32-2.13-5-1.48a3.81,3.81,0,0,0-2,1.63,1.66,1.66,0,0,1-1,.77,1.19,1.19,0,0,1-.84-.2,1.56,1.56,0,0,1-.43-.42,3.14,3.14,0,0,0-.36-.47,1.07,1.07,0,0,0-.43-.19,3.22,3.22,0,0,0-1.32.19,1,1,0,0,1-.72-.07,2.49,2.49,0,0,1-.38-.28,6.28,6.28,0,0,1-.59-.56,8.29,8.29,0,0,1-1.76-2.65,11.94,11.94,0,0,0,2.23,2.1q.32.23.63.42a1.68,1.68,0,0,0,.26.15s-.06,0,0,0a3.86,3.86,0,0,1,1.72-.4,2.15,2.15,0,0,1,1,.31,3.17,3.17,0,0,1,.67.69.48.48,0,0,0,.13.12.12.12,0,0,0-.1,0c-.13,0,0,0,.1-.21a5.19,5.19,0,0,1,2.7-2.25,5,5,0,0,1,3.54.09,7.51,7.51,0,0,1,2.74,2A13.94,13.94,0,0,1,42.33,246.5Z"/><path class="cls-2" d="M31,250.34a12.94,12.94,0,0,0-2.19-1.63,3.13,3.13,0,0,0-1.19-.34,9.37,9.37,0,0,1-1.43-.13,4.85,4.85,0,0,1-2.53-1.59,6.56,6.56,0,0,1-1.34-2.54,15.24,15.24,0,0,0,1.83,2,5.24,5.24,0,0,0,2.24,1.21,12.1,12.1,0,0,0,1.35.17,3.21,3.21,0,0,1,1.43.58A6.18,6.18,0,0,1,31,250.34Z"/><path class="cls-2" d="M15.08,234.4c.65,1,1.25,2,1.83,3a15.08,15.08,0,0,1,1.57,3.25,5.08,5.08,0,0,1,.14,2.05c-.07.66-.21,1.22-.29,1.74a12.39,12.39,0,0,0-.12,3.15A7.37,7.37,0,0,0,19,250.4a5.24,5.24,0,0,0,1.91,2,3.93,3.93,0,0,0,2.59.63,4.11,4.11,0,0,0,.69-.15,6.91,6.91,0,0,1,1-.25,2.88,2.88,0,0,1,2.25.68l-1.11.22a4.14,4.14,0,0,0,.4-2.51,5.07,5.07,0,0,1,.2-1.59,2.08,2.08,0,0,1,.92-1.27,2.12,2.12,0,0,0-.44,1.35,6.06,6.06,0,0,0,.2,1.4,9.86,9.86,0,0,1,.32,1.55,3.41,3.41,0,0,1-.3,1.84l-.33.64-.78-.43a1.33,1.33,0,0,0-1-.13,3.93,3.93,0,0,0-.64.27,7,7,0,0,1-1,.34,6,6,0,0,1-4.08-.6,7.08,7.08,0,0,1-2.89-2.85,8.79,8.79,0,0,1-1-3.8,12.53,12.53,0,0,1,.4-3.73c.14-.61.34-1.16.47-1.64a3.44,3.44,0,0,0,.09-1.39,21.43,21.43,0,0,0-.86-3.21C15.66,236.67,15.35,235.55,15.08,234.4Z"/><path class="cls-2" d="M28.73,287.12a4.6,4.6,0,0,0,1.11,2.25,2.26,2.26,0,0,0,1.82,1.08,3.48,3.48,0,0,0,1-.26c.07-.06.05,0,.09-.21a4.63,4.63,0,0,0,0-.54,6.17,6.17,0,0,0-.59-2.29c-.31-.78-.7-1.6-1-2.46a14.87,14.87,0,0,1-.57-2.63,12.72,12.72,0,0,1-.05-2.69A2.69,2.69,0,0,1,32,277.12a2.67,2.67,0,0,0-.79,2.27,16.57,16.57,0,0,0,.39,2.51,23.2,23.2,0,0,0,1.72,4.8,7.2,7.2,0,0,1,.62,2.75,6.72,6.72,0,0,1-.1.75,1.33,1.33,0,0,1-.59.87,2.16,2.16,0,0,1-.81.26,5.1,5.1,0,0,1-.72.06,2.3,2.3,0,0,1-1.46-.57,4.22,4.22,0,0,1-.88-1.12A4.11,4.11,0,0,1,28.73,287.12Z"/><path class="cls-2" d="M32.89,286.8a3.39,3.39,0,0,0,2.24,2.32,1.88,1.88,0,0,0,1.42-.12.9.9,0,0,0,.22-1.09c-.16-.43-.52-1-.77-1.5a16.41,16.41,0,0,1-.71-1.67,17.24,17.24,0,0,1-.81-3.55,15.84,15.84,0,0,1,.05-3.64A6.94,6.94,0,0,1,36,274.09a11.94,11.94,0,0,1,1.32-1.26,4.89,4.89,0,0,1,1.6-1,8.88,8.88,0,0,1,1.8-.23l.88-.05H42a.61.61,0,0,1,.23,0s.08.05.05.1-.1,0-.08,0,.06,0,.06,0,0-.05,0-.05a.51.51,0,0,0-.2,0l-.43.1-.86.19a7.86,7.86,0,0,0-1.64.46,4.17,4.17,0,0,0-1.27,1,11.77,11.77,0,0,0-1.12,1.26,6.23,6.23,0,0,0-1.06,3,15.2,15.2,0,0,0,0,3.37,15.72,15.72,0,0,0,.69,3.31A15.12,15.12,0,0,0,37,286a13.07,13.07,0,0,1,.71,1.68,2.05,2.05,0,0,1,0,1.1,1.46,1.46,0,0,1-.73.93,2.57,2.57,0,0,1-2,0A3.55,3.55,0,0,1,32.89,286.8Z"/><path class="cls-2" d="M52.22,281.88a22.24,22.24,0,0,1-6.89,1.54,42.8,42.8,0,0,1-7.07,0,60.44,60.44,0,0,1-7-1c-1.15-.25-2.29-.53-3.43-.82s-2.25-.66-3.36-1.05l6.94.94c2.31.27,4.61.57,6.93.72s4.62.29,6.93.27c1.15,0,2.31-.05,3.47-.15A22.63,22.63,0,0,0,52.22,281.88Z"/><path class="cls-2" d="M43.28,277.57a3.77,3.77,0,0,1,2.36-.68,3.71,3.71,0,0,1,2.32.82c-.85.05-1.58,0-2.34,0S44.12,277.66,43.28,277.57Z"/><path class="cls-2" d="M10.42,213.2A7.38,7.38,0,0,1,15.35,212a7.72,7.72,0,0,1,4.76,2.24l-.94.4a2.49,2.49,0,0,1,.67-1.8,8,8,0,0,1,1.23-1.12,12.32,12.32,0,0,1,2.79-1.62,12.82,12.82,0,0,1,6.33-.94l-.48,1.1a14.46,14.46,0,0,0-2.95-1.75,5.36,5.36,0,0,1-2.67-2.79,3.76,3.76,0,0,1,0-2c.1-.57.14-1.09-.23-1.37a1.79,1.79,0,0,0-1.55-.09,4,4,0,0,1-1.77.32,4.49,4.49,0,0,0,1.68-.58,2.11,2.11,0,0,1,1.92-.08,1.33,1.33,0,0,1,.63.89,3.4,3.4,0,0,1,0,1,3,3,0,0,0,.13,1.58,4.58,4.58,0,0,0,2.36,2.1,14.2,14.2,0,0,1,3.27,1.8l1.5,1.28-2-.18a12.44,12.44,0,0,0-8.28,2.28c-.8.55-1.57,1.23-1.54,1.87l.05,1.56-1-1.16a7.29,7.29,0,0,0-4.06-2.29A7.64,7.64,0,0,0,10.42,213.2Z"/><path class="cls-2" d="M23.6,214.73c-.94-1.38-1.6-2.84-2.46-4.12a11.74,11.74,0,0,0-3.22-3.38,4.8,4.8,0,0,1,2.31,1A7.13,7.13,0,0,1,22,210.07,11.28,11.28,0,0,1,23.6,214.73Z"/><path class="cls-2" d="M27.61,212.3a3.31,3.31,0,0,1,3.5,1.58c-.66-.23-1.2-.5-1.77-.75S28.22,212.64,27.61,212.3Z"/><path class="cls-2" d="M140.35,28.35a4.63,4.63,0,0,0-2.26,1.11A2.25,2.25,0,0,0,137,31.27a3,3,0,0,0,.26,1c.06.06,0,0,.2.08a3.31,3.31,0,0,0,.55,0,6.26,6.26,0,0,0,2.29-.59c.78-.31,1.59-.69,2.46-1a14,14,0,0,1,2.63-.56,12.09,12.09,0,0,1,2.69-.05,2.67,2.67,0,0,1,2.25,1.38,2.64,2.64,0,0,0-2.27-.79,15.38,15.38,0,0,0-2.51.38,23.16,23.16,0,0,0-4.8,1.71,7.06,7.06,0,0,1-2.76.61,4,4,0,0,1-.75-.1,1.28,1.28,0,0,1-.87-.59,1.92,1.92,0,0,1-.25-.81,5.1,5.1,0,0,1-.06-.72,2.3,2.3,0,0,1,.57-1.46,4.39,4.39,0,0,1,1.12-.88A4.11,4.11,0,0,1,140.35,28.35Z"/><path class="cls-2" d="M140.65,32.51a3.42,3.42,0,0,0-2.32,2.23,1.91,1.91,0,0,0,.12,1.43.9.9,0,0,0,1.08.22c.44-.16,1-.51,1.51-.77a16.34,16.34,0,0,1,1.67-.7,16,16,0,0,1,3.55-.8,15.39,15.39,0,0,1,3.65.05,6.84,6.84,0,0,1,3.45,1.46A11.94,11.94,0,0,1,154.62,37a5,5,0,0,1,1,1.6,8.39,8.39,0,0,1,.23,1.81l.05.88v.44a.6.6,0,0,1,0,.23s-.06.09-.11.06,0-.11,0-.09,0,.06,0,.07,0,0,.05-.05a1.91,1.91,0,0,0,0-.21l-.1-.43-.19-.86a8,8,0,0,0-.46-1.64,4.13,4.13,0,0,0-1-1.27,12,12,0,0,0-1.27-1.13,6.26,6.26,0,0,0-3-1.06,15.1,15.1,0,0,0-3.36,0,16.31,16.31,0,0,0-3.32.68,15.18,15.18,0,0,0-1.59.59,14,14,0,0,1-1.69.7,2.15,2.15,0,0,1-1.1,0,1.46,1.46,0,0,1-.92-.73,2.52,2.52,0,0,1,0-2A3.51,3.51,0,0,1,140.65,32.51Z"/><path class="cls-2" d="M145.53,51.85A22.51,22.51,0,0,1,144,45a42.8,42.8,0,0,1,0-7.07,58.36,58.36,0,0,1,1-7c.25-1.15.54-2.29.83-3.43s.67-2.25,1-3.35L146,31.07c-.27,2.31-.58,4.61-.74,6.92s-.3,4.62-.28,6.93c0,1.16.05,2.31.14,3.47A23.92,23.92,0,0,0,145.53,51.85Z"/><path class="cls-2" d="M149.87,42.92a3.86,3.86,0,0,1,.67,2.37,3.76,3.76,0,0,1-.82,2.31c-.05-.85,0-1.58,0-2.34S149.77,43.76,149.87,42.92Z"/><path class="cls-2" d="M89.72,57.7c5.31-.27,10.6-.26,15.89-.22s10.58.22,15.86.47l-.59,1.62c-1.47-1.15-2.92-2.35-4.38-3.53s-2.89-2.39-4.34-3.59c-2.86-2.43-5.71-4.87-8.47-7.44,3.16,2.05,6.23,4.22,9.28,6.41,1.51,1.11,3,2.19,4.54,3.33s3,2.24,4.49,3.39l2.17,1.69-2.76-.07c-5.29-.14-10.57-.38-15.86-.69S95,58.35,89.72,57.7Z"/><path class="cls-2" d="M106.46,54.23c.36-2.32.85-4.59,1.42-6.85s1.19-4.5,1.9-6.72l.25-.79.43.67c.46.72.92,1.45,1.37,2.19s.88,1.47,1.28,2.24c-.59-.64-1.12-1.31-1.68-2s-1.07-1.34-1.6-2l.68-.12c-.52,2.27-1.13,4.52-1.79,6.75S107.32,52.05,106.46,54.23Z"/><path class="cls-2" d="M311.86,69.2a22.59,22.59,0,0,0,6.11.45c2-.1,3.86-.84,4.57-2.46a3.79,3.79,0,0,0,.29-2.58,1.62,1.62,0,0,1,.2-1.29,1.23,1.23,0,0,1,.74-.46,2,2,0,0,1,.6,0,2.73,2.73,0,0,0,.59.08.94.94,0,0,0,.43-.17,3.29,3.29,0,0,0,.81-1.06,1,1,0,0,1,.56-.46,2.67,2.67,0,0,1,.47-.07c.27,0,.54,0,.81,0a8.44,8.44,0,0,1,3.12.64,12.06,12.06,0,0,0-3.07.09c-.25,0-.5.08-.74.14a1.67,1.67,0,0,0-.29.08s.05,0,0,.06a3.8,3.8,0,0,1-.93,1.5,2.12,2.12,0,0,1-.95.5,2.93,2.93,0,0,1-1,0c-.11,0-.18,0-.18,0s.07,0,.09-.06,0,0,.08.22a5,5,0,0,1-2.9,5.94,7.63,7.63,0,0,1-3.33.54A13.9,13.9,0,0,1,311.86,69.2Z"/><path class="cls-2" d="M317.18,58.5a12.54,12.54,0,0,0,2.7-.39,3.05,3.05,0,0,0,1.09-.6,9.84,9.84,0,0,1,1.11-.91,4.87,4.87,0,0,1,2.91-.66,6.48,6.48,0,0,1,2.74.86,15.24,15.24,0,0,0-2.75-.16,5.15,5.15,0,0,0-2.43.72,11.64,11.64,0,0,0-1.08.83,3.17,3.17,0,0,1-1.42.59A6.14,6.14,0,0,1,317.18,58.5Z"/><path class="cls-2" d="M339.72,58.58c-1.15-.24-2.28-.52-3.41-.83a15.64,15.64,0,0,1-3.41-1.2,5.28,5.28,0,0,1-1.54-1.36c-.41-.52-.71-1-1-1.44a12.85,12.85,0,0,0-2.14-2.32A7.37,7.37,0,0,0,325.64,50a5.17,5.17,0,0,0-2.76-.06,3.91,3.91,0,0,0-2.28,1.38,3.43,3.43,0,0,0-.38.58,6.83,6.83,0,0,1-.54.89,2.91,2.91,0,0,1-2.08,1.1l.64-.94c.05.66.76,1.36,1.48,2.06a5.36,5.36,0,0,1,1,1.27,2.13,2.13,0,0,1,.24,1.55,2.1,2.1,0,0,0-.64-1.26,5.92,5.92,0,0,0-1.13-.86,10,10,0,0,1-1.32-.87,3.34,3.34,0,0,1-1.08-1.52l-.22-.68.86-.25a1.37,1.37,0,0,0,.81-.63,3.49,3.49,0,0,0,.27-.64,5.62,5.62,0,0,1,.45-.93,6,6,0,0,1,3.31-2.45,7.22,7.22,0,0,1,4.07,0,8.75,8.75,0,0,1,3.4,2,12.62,12.62,0,0,1,2.35,2.93c.33.53.57,1.06.82,1.49a3.33,3.33,0,0,0,.92,1,20.87,20.87,0,0,0,2.87,1.67C337.71,57.38,338.72,58,339.72,58.58Z"/><path class="cls-2" d="M358,70.33a7.32,7.32,0,0,1-2.63,4.34,7.71,7.71,0,0,1-4.95,1.77l.38-1a2.52,2.52,0,0,1,.79,1.75,8.28,8.28,0,0,1-.08,1.67,12.57,12.57,0,0,1-.84,3.11,12.78,12.78,0,0,1-3.83,5.13L346.38,86a14.26,14.26,0,0,0,3.32-.83,5.39,5.39,0,0,1,3.87.09A3.7,3.7,0,0,1,355,86.68c.34.48.67.87,1.14.81s.88-.53,1.15-1a4,4,0,0,1,1-1.47,4.54,4.54,0,0,0-.78,1.59A2.15,2.15,0,0,1,356.2,88a1.41,1.41,0,0,1-1.08-.2,3.42,3.42,0,0,1-.73-.68,2.78,2.78,0,0,0-1.2-1,4.48,4.48,0,0,0-3.15.17,14.81,14.81,0,0,1-3.59,1l-2,.15L346,86.17a12.5,12.5,0,0,0,3.45-4.65,13.45,13.45,0,0,0,.82-2.8c.18-1,.24-2-.23-2.42l-1.14-1.06,1.52.12a7.25,7.25,0,0,0,4.5-1.24A7.58,7.58,0,0,0,358,70.33Z"/><path class="cls-2" d="M347.54,78.54c1.64.31,3.14.88,4.66,1.18a11.74,11.74,0,0,0,4.66.13,4.88,4.88,0,0,1-2.33.94,7.47,7.47,0,0,1-2.54-.11A11.22,11.22,0,0,1,347.54,78.54Z"/><path class="cls-2" d="M346.41,83.08a3,3,0,0,1-1.58,1.25,3.11,3.11,0,0,1-2,.1c.63-.3,1.21-.49,1.79-.71S345.74,83.27,346.41,83.08Z"/><path class="cls-2" d="M369.64,89.82c.25,5.3.24,10.6.19,15.89s-.25,10.58-.51,15.86L367.7,121c1.16-1.48,2.36-2.92,3.54-4.38s2.4-2.88,3.6-4.33c2.43-2.86,4.89-5.7,7.46-8.45-2.06,3.15-4.23,6.21-6.43,9.26-1.11,1.51-2.2,3-3.34,4.53s-2.24,3-3.4,4.49l-1.7,2.16.08-2.76c.15-5.29.4-10.57.72-15.85S369,95.09,369.64,89.82Z"/><path class="cls-2" d="M373.07,106.56c2.32.37,4.6.86,6.85,1.44s4.5,1.2,6.72,1.91l.79.25-.67.43c-.73.46-1.46.92-2.19,1.36s-1.48.88-2.25,1.28c.64-.58,1.31-1.12,2-1.67s1.34-1.07,2-1.6l.11.69c-2.26-.54-4.51-1.15-6.74-1.81S375.25,107.43,373.07,106.56Z"/><path class="cls-2" d="M211.19,7.78c4.61,4.62,9.05,9.37,13.45,14.16s8.73,9.64,13,14.5,8.54,9.8,12.74,14.76,8.36,9.95,12.47,15l-4,1.59c-.29-4.6-.49-9.2-.73-13.8s-.38-9.21-.57-13.82-.28-9.21-.32-13.83-.09-9.23,0-13.85c.73,4.56,1.35,9.14,1.93,13.71s1.09,9.17,1.6,13.75,1,9.17,1.37,13.76.85,9.17,1.19,13.77l.52,6.83-4.47-5.24q-6.33-7.41-12.52-14.94c-4.13-5-8.18-10.09-12.25-15.16s-8-10.21-11.95-15.4S214.9,13.14,211.19,7.78Z"/><path class="cls-2" d="M245,32.65c2.4-1.6,4.85-3.07,7.33-4.51s5-2.8,7.52-4.14,5.06-2.66,7.64-3.9,5.15-2.48,7.75-3.67l1.85-.85-.52,1.9q-.82,3-1.74,6.08c-.63,2-1.26,4-2,6,.2-2.12.52-4.21.83-6.3s.7-4.17,1.08-6.24l1.34,1.05c-2.51,1.37-5,2.72-7.58,4s-5.11,2.56-7.69,3.8-5.19,2.41-7.82,3.54S247.71,31.68,245,32.65Z"/><path class="cls-2" d="M408.4,147.33c-2.95,5.81-6.1,11.51-9.28,17.18s-6.47,11.28-9.76,16.89-6.66,11.15-10.08,16.68-6.86,11-10.37,16.5l-2.74-3.27c4.28-1.71,8.59-3.32,12.89-5s8.64-3.21,13-4.82,8.68-3.12,13.05-4.59,8.75-2.95,13.17-4.3c-4.11,2.11-8.27,4.13-12.44,6.09s-8.37,3.88-12.57,5.79-8.41,3.77-12.66,5.56-8.46,3.65-12.72,5.41l-6.34,2.6,3.6-5.87c3.39-5.54,6.85-11,10.32-16.53s7.06-10.91,10.62-16.35,7.22-10.81,10.94-16.14S404.46,152.53,408.4,147.33Z"/><path class="cls-2" d="M395.25,187.19c2.25,1.78,4.42,3.66,6.55,5.57s4.21,3.88,6.27,5.86,4.09,4,6.07,6.06,4,4.12,5.9,6.23l1.38,1.5-2,.09c-2.1.1-4.21.19-6.32.23s-4.23.05-6.36,0c2.08-.46,4.16-.81,6.25-1.16s4.18-.63,6.27-.91l-.59,1.6c-2.08-2-4.15-3.94-6.16-6s-4-4.08-6-6.14-3.9-4.18-5.8-6.33S397,189.46,395.25,187.19Z"/><path class="cls-2" d="M336.87,378.09c-6.45-1-12.84-2.23-19.22-3.5s-12.73-2.65-19.07-4-12.68-2.88-19-4.41S267,363,260.69,361.39l2.26-3.62c2.94,3.54,5.82,7.14,8.73,10.72s5.73,7.22,8.6,10.82,5.66,7.29,8.41,11,5.51,7.4,8.17,11.19c-3.28-3.26-6.49-6.59-9.65-9.95s-6.28-6.75-9.4-10.15-6.19-6.83-9.21-10.31-6.09-6.91-9.08-10.42l-4.45-5.22,6.7,1.6c6.32,1.51,12.62,3.09,18.92,4.69s12.56,3.33,18.83,5,12.52,3.52,18.74,5.4S330.71,376,336.87,378.09Z"/><path class="cls-2" d="M294.9,377.94c-1,2.7-2.12,5.34-3.27,8s-2.38,5.21-3.63,7.78-2.53,5.13-3.88,7.65-2.69,5-4.09,7.53l-1,1.78-.7-1.84c-.75-2-1.48-3.95-2.17-5.94s-1.37-4-2-6.05c1.09,1.83,2.06,3.7,3,5.58s1.9,3.77,2.81,5.67l-1.7-.06c1.22-2.59,2.46-5.16,3.76-7.71s2.62-5.08,4-7.6,2.77-5,4.23-7.47S293.28,380.32,294.9,377.94Z"/><path class="cls-2" d="M95.3,381.62c-1-6.44-1.86-12.9-2.63-19.35s-1.43-12.93-2.08-19.4-1.19-12.94-1.68-19.41-1-13-1.35-19.45l4.14,1c-2.45,3.9-5,7.75-7.48,11.62s-5.09,7.69-7.63,11.53-5.17,7.64-7.83,11.41-5.33,7.53-8.11,11.23c2.08-4.13,4.25-8.2,6.47-12.25s4.47-8.07,6.73-12.08,4.57-8,7-12,4.68-7.94,7.09-11.87l3.58-5.84L92,303.7c.53,6.47,1,12.95,1.41,19.44s.73,13,1.06,19.46.54,13,.68,19.49S95.42,375.1,95.3,381.62Z"/><path class="cls-2" d="M82.43,341.67c-2.87-.11-5.73-.36-8.58-.65s-5.69-.64-8.52-1-5.66-.81-8.47-1.31-5.63-1-8.44-1.56l-2-.4L48,335.49c1.65-1.33,3.3-2.64,5-3.92s3.39-2.53,5.15-3.72c-1.4,1.6-2.88,3.11-4.36,4.62s-3,3-4.53,4.43l-.47-1.63c2.84.35,5.67.73,8.5,1.18s5.64.92,8.45,1.42,5.62,1.08,8.42,1.7S79.67,340.87,82.43,341.67Z"/><path class="cls-2" d="M17.06,153c5.8-3,11.68-5.76,17.58-8.49s11.85-5.37,17.79-8,11.94-5.14,17.94-7.62,12-4.93,18.07-7.31l.31,4.25c-4.47-1.12-8.91-2.33-13.37-3.51s-8.89-2.45-13.33-3.67-8.86-2.55-13.27-3.92-8.82-2.73-13.19-4.22q6.85,1.05,13.65,2.35c4.54.82,9.06,1.75,13.58,2.66s9,1.86,13.52,2.89,9,2,13.48,3.07l6.66,1.59-6.35,2.66q-9,3.76-18,7.36c-6,2.41-12.11,4.72-18.17,7.05s-12.18,4.53-18.32,6.68S23.3,151.14,17.06,153Z"/><path class="cls-2" d="M51.05,128.43c-.78-2.77-1.44-5.56-2-8.36s-1.15-5.61-1.65-8.42-1-5.64-1.38-8.47-.8-5.66-1.14-8.5l-.24-2,1.65,1.07c1.77,1.15,3.53,2.32,5.26,3.52S55,99.68,56.64,101c-2-.84-3.85-1.78-5.75-2.71s-3.75-1.93-5.61-2.94l1.41-1c.54,2.81,1.06,5.62,1.51,8.44s.87,5.65,1.27,8.49.71,5.67,1,8.52S51,125.55,51.05,128.43Z"/></g><g class="cls-1"><path class="cls-2" d="M276.69,284.49a12.59,12.59,0,0,0-1,3.16,2.73,2.73,0,0,0,.7,2.73,2.1,2.1,0,0,0,1.32.49.9.9,0,0,1,.65.27.66.66,0,0,1,.15.45,1.06,1.06,0,0,1-.08.32,1.16,1.16,0,0,0-.12.3.46.46,0,0,0,0,.25,1.9,1.9,0,0,0,.45.56c.2.13.18.54.14.61a3,3,0,0,1-.09.43,4.9,4.9,0,0,1-.75,1.56,5.89,5.89,0,0,0,.36-1.63c0-.25,0-.64,0-.58a2.07,2.07,0,0,1-.67-.68,1.2,1.2,0,0,1-.14-.57,1.67,1.67,0,0,1,.13-.5c0-.13,0-.1,0,0s0,0-.13,0a2.82,2.82,0,0,1-1.8-.63,2.77,2.77,0,0,1-.94-1.68,4.11,4.11,0,0,1,.15-1.82A7.71,7.71,0,0,1,276.69,284.49Z"/><path class="cls-2" d="M281.63,288.7a7,7,0,0,0-.16,1.47,1.79,1.79,0,0,0,.17.65,6.54,6.54,0,0,1,.34.7,2.71,2.71,0,0,1,0,1.62,3.75,3.75,0,0,1-.81,1.33,8,8,0,0,0,.44-1.42,2.58,2.58,0,0,0-.06-1.38,5.32,5.32,0,0,0-.29-.68,1.65,1.65,0,0,1-.13-.82A3.38,3.38,0,0,1,281.63,288.7Z"/><path class="cls-2" d="M278.63,300.55c.27-.57.57-1.14.88-1.69a8.67,8.67,0,0,1,1.08-1.63,2.82,2.82,0,0,1,.92-.64c.32-.14.62-.24.89-.34a7.25,7.25,0,0,0,1.5-.82,3.21,3.21,0,0,0,1.48-2.61,2.06,2.06,0,0,0-.42-1.38c-.11-.15-.43-.45-.66-.68a1.53,1.53,0,0,1-.3-1.23l.4.45a2.22,2.22,0,0,0-1.27.51,2.86,2.86,0,0,1-.8.35,1.18,1.18,0,0,1-.85-.07,1.71,1.71,0,0,0,1.35-.66,7.22,7.22,0,0,1,.63-.58,1.88,1.88,0,0,1,.94-.36l.39,0,0,.48a.78.78,0,0,0,.22.52,5.5,5.5,0,0,1,.74.58,3.24,3.24,0,0,1,.85,2.06,4,4,0,0,1-.53,2.15,5,5,0,0,1-1.48,1.53,6.88,6.88,0,0,1-1.85.85,4,4,0,0,0-1.56.58,11.91,11.91,0,0,0-1.26,1.29C279.52,299.65,279.08,300.1,278.63,300.55Z"/><path class="cls-4" d="M317.88,260.16a113.55,113.55,0,0,1-52.82,55.51,31.05,31.05,0,1,0-56.2,12.14,114.31,114.31,0,0,1-76-33.54,31.06,31.06,0,1,0-28.94-49.69,113.51,113.51,0,0,1,5.61-77c.86-1.93,1.75-3.8,2.71-5.65a30.73,30.73,0,0,0,6,8.4A31.06,31.06,0,1,0,150.46,119a114.16,114.16,0,0,1,81.75-17.63,31,31,0,1,0,52.56,23.33,114.3,114.3,0,0,1,41.63,71.9,31.05,31.05,0,1,0-5.93,57.2C319.69,255.94,318.82,258.05,317.88,260.16Z"/><path class="cls-2" d="M299.39,279.55a2.49,2.49,0,0,0,.74-1.15,1.25,1.25,0,0,0,0-1.15,2,2,0,0,0-.4-.39c-.05,0,0,0-.12,0a1.65,1.65,0,0,0-.26.14,3.12,3.12,0,0,0-.9.91,9.56,9.56,0,0,1-1.95,2.13,6.59,6.59,0,0,1-1.24.77,1.46,1.46,0,0,1-1.43,0,1.43,1.43,0,0,0,1.28-.26,8.84,8.84,0,0,0,1.06-.88,13.12,13.12,0,0,0,1.76-2.13,3.64,3.64,0,0,1,1.11-1.06l.38-.16a.73.73,0,0,1,.56,0,1.66,1.66,0,0,1,.57.63,1.51,1.51,0,0,1-.13,1.56A2.29,2.29,0,0,1,299.39,279.55Z"/><path class="cls-2" d="M298.09,277.69a1.82,1.82,0,0,0,.45-1.68,1,1,0,0,0-.44-.64.49.49,0,0,0-.57.21c-.16.19-.3.5-.49.77a7.73,7.73,0,0,1-.59.79,9.2,9.2,0,0,1-1.42,1.37,8.32,8.32,0,0,1-1.72,1,3.24,3.24,0,0,1-2,.27,4.51,4.51,0,0,1-1.87-.71,4.28,4.28,0,0,1-.6-.78l-.27-.39-.13-.21a.29.29,0,0,1-.06-.11,0,0,0,0,1,0-.05s.05,0,0,0-.06,0,0,0l.08.08.16.17.33.35a4.45,4.45,0,0,0,.67.64,4.26,4.26,0,0,0,1.72.46,4.9,4.9,0,0,0,3.27-1.27,8.36,8.36,0,0,0,1.36-1.23,6.8,6.8,0,0,0,.57-.73,6.71,6.71,0,0,1,.59-.79.92.92,0,0,1,1.14-.22,1.31,1.31,0,0,1,.55.92A1.88,1.88,0,0,1,298.09,277.69Z"/><path class="cls-2" d="M290.43,270.06a11.94,11.94,0,0,1,2.62,2.78,24.89,24.89,0,0,1,2,3.29,37.52,37.52,0,0,1,1.47,3.53l.58,1.82c.15.62.31,1.24.44,1.86l-1.48-3.5c-.52-1.15-1-2.31-1.6-3.42a35.22,35.22,0,0,0-1.79-3.31c-.33-.53-.67-1.06-1-1.57A12.67,12.67,0,0,0,290.43,270.06Z"/><path class="cls-2" d="M290.9,275.42a2.09,2.09,0,0,1-1-.91,2.15,2.15,0,0,1-.27-1.31c.27.38.42.75.65,1.1S290.72,275,290.9,275.42Z"/><path class="cls-2" d="M186.45,320.68a4.18,4.18,0,0,1,1.83-4.95l.08.54a1.37,1.37,0,0,1-.86-.59,4.4,4.4,0,0,1-.42-.8,6.47,6.47,0,0,1-.48-1.68,7,7,0,0,1,.35-3.46l.51.4a8.18,8.18,0,0,0-1.31,1.32,2.9,2.9,0,0,1-1.82,1c-.81.08-1.37-.63-1.79-.3a.94.94,0,0,0-.25.79,2.32,2.32,0,0,1-.07,1,2.4,2.4,0,0,0-.09-1,1.18,1.18,0,0,1,.22-1,1,1,0,0,1,1.08-.1,1.57,1.57,0,0,0,.85.15,2.49,2.49,0,0,0,1.42-1,7.88,7.88,0,0,1,1.38-1.48L188,309l-.36,1a6.73,6.73,0,0,0-.3,3.12,6.63,6.63,0,0,0,.4,1.53c.18.5.44,1,.78,1.07l.81.18-.73.36A4.17,4.17,0,0,0,186.45,320.68Z"/><path class="cls-2" d="M189,314c-.42.16-.85.26-1.27.38s-.83.22-1.22.36a6.4,6.4,0,0,0-2.21,1.24,3.26,3.26,0,0,1,2-1.74,5.61,5.61,0,0,1,1.33-.27A6.67,6.67,0,0,1,189,314Z"/><path class="cls-2" d="M188.27,311.53a1.75,1.75,0,0,1,.39-1,1.67,1.67,0,0,1,.91-.6c-.2.32-.44.55-.63.83S188.53,311.26,188.27,311.53Z"/><path class="cls-2" d="M147.85,299.44a2.46,2.46,0,0,0,1.15.75,1.2,1.2,0,0,0,1.14,0,1.57,1.57,0,0,0,.39-.39c0-.05,0,0,0-.12s-.09-.18-.14-.27a3.39,3.39,0,0,0-.91-.9,9.3,9.3,0,0,1-2.12-1.95,6.59,6.59,0,0,1-.77-1.24,1.46,1.46,0,0,1,0-1.43,1.43,1.43,0,0,0,.26,1.28,8.75,8.75,0,0,0,.87,1.06,13,13,0,0,0,2.13,1.76,3.64,3.64,0,0,1,1,1.12,2.48,2.48,0,0,1,.17.37.72.72,0,0,1,0,.57,1.81,1.81,0,0,1-.62.57,1.54,1.54,0,0,1-1.56-.14A2.29,2.29,0,0,1,147.85,299.44Z"/><path class="cls-2" d="M149.71,298.14a1.83,1.83,0,0,0,1.68.46,1,1,0,0,0,.64-.44.48.48,0,0,0-.2-.57c-.2-.16-.51-.3-.78-.49s-.53-.38-.79-.59a9.61,9.61,0,0,1-1.36-1.42,8.88,8.88,0,0,1-1-1.72,3.35,3.35,0,0,1-.27-2,4.57,4.57,0,0,1,.72-1.86,4.35,4.35,0,0,1,.78-.61l.4-.27.2-.13a.29.29,0,0,1,.11-.06s0,0,0,0,0,0,0,0,0-.05,0,0-.05,0-.08.07l-.17.17-.35.33a4,4,0,0,0-.64.66,4.49,4.49,0,0,0-.47,1.72,4.93,4.93,0,0,0,1.27,3.28,8.79,8.79,0,0,0,1.23,1.36,7.83,7.83,0,0,0,.72.57,6,6,0,0,1,.8.59.92.92,0,0,1,.21,1.14,1.31,1.31,0,0,1-.92.55A1.89,1.89,0,0,1,149.71,298.14Z"/><path class="cls-2" d="M157.36,290.5a12.41,12.41,0,0,1-2.79,2.62,26.67,26.67,0,0,1-3.29,2,36.12,36.12,0,0,1-3.54,1.46l-1.82.57c-.62.15-1.23.32-1.86.45l3.5-1.48c1.15-.52,2.32-1,3.43-1.59a35.22,35.22,0,0,0,3.31-1.79c.54-.32,1.06-.66,1.57-1A12,12,0,0,0,157.36,290.5Z"/><path class="cls-2" d="M152,291a2.09,2.09,0,0,1,.91-1,2.06,2.06,0,0,1,1.31-.26c-.38.26-.75.42-1.1.64S152.42,290.78,152,291Z"/><path class="cls-2" d="M175.59,314.87c-1.59-2.4-3.05-4.87-4.52-7.34s-2.84-5-4.19-7.52l.92-.18c-.27,2-.56,4-.9,6-.18,1-.32,2-.52,3s-.36,2-.58,3c0-1,.11-2,.17-3.06s.16-2,.25-3c.16-2,.37-4.06.61-6.08l.17-1.5.75,1.33c1.4,2.5,2.76,5,4.08,7.57S174.42,312.24,175.59,314.87Z"/><path class="cls-2" d="M169.32,308c-1.18.47-2.38.87-3.58,1.24s-2.43.69-3.66,1l-.44.1.2-.38c.42-.83.84-1.67,1.32-2.47-.27.9-.61,1.77-.95,2.63l-.24-.28c1.2-.38,2.42-.72,3.64-1S168.07,308.24,169.32,308Z"/><path class="cls-2" d="M119.24,208.21a12.52,12.52,0,0,0-1.49-3,2.7,2.7,0,0,0-2.42-1.45,2.07,2.07,0,0,0-1.28.58.91.91,0,0,1-.66.27.66.66,0,0,1-.41-.22.72.72,0,0,1-.17-.28,1.43,1.43,0,0,0-.13-.29.47.47,0,0,0-.2-.16,1.7,1.7,0,0,0-.72-.08c-.23,0-.5-.26-.53-.33l-.24-.38a4.78,4.78,0,0,1-.56-1.63,6.13,6.13,0,0,0,.89,1.41c.16.19.43.48.42.4a2,2,0,0,1,1,0,1.09,1.09,0,0,1,.5.3,1.59,1.59,0,0,1,.26.45c.07.12.07.07,0,.05s0,0,.08-.1a2.73,2.73,0,0,1,3.57-.29,4.1,4.1,0,0,1,1.17,1.4A7.62,7.62,0,0,1,119.24,208.21Z"/><path class="cls-2" d="M112.77,208.7a6.31,6.31,0,0,0-.93-1.15,1.64,1.64,0,0,0-.58-.35,4.86,4.86,0,0,1-.73-.25,2.83,2.83,0,0,1-1.12-1.18,3.64,3.64,0,0,1-.36-1.51,8.73,8.73,0,0,0,.68,1.33,2.74,2.74,0,0,0,1,.93c.18.1.45.18.68.28a1.59,1.59,0,0,1,.68.49A3.38,3.38,0,0,1,112.77,208.7Z"/><path class="cls-2" d="M106.55,198.18c.21.6.39,1.21.56,1.82a8.07,8.07,0,0,1,.38,1.92,2.78,2.78,0,0,1-.2,1.1c-.13.33-.27.61-.39.87a7.08,7.08,0,0,0-.49,1.63,3.22,3.22,0,0,0,.79,2.9,2.1,2.1,0,0,0,1.28.68,8.46,8.46,0,0,0,.94,0,1.53,1.53,0,0,1,1.09.65l-.61,0a2.24,2.24,0,0,0,.54-1.27,3.25,3.25,0,0,1,.32-.81,1.22,1.22,0,0,1,.65-.54,1.69,1.69,0,0,0-.49,1.42,5,5,0,0,1,0,.85,1.8,1.8,0,0,1-.41.92l-.25.3-.36-.33a.71.71,0,0,0-.52-.21,6.26,6.26,0,0,1-.93.11,3.29,3.29,0,0,1-2.06-.87,4,4,0,0,1-1.14-1.89,4.94,4.94,0,0,1,0-2.13,7,7,0,0,1,.71-1.91,4.06,4.06,0,0,0,.71-1.51,12.12,12.12,0,0,0,0-1.8C106.55,199.45,106.54,198.82,106.55,198.18Z"/><path class="cls-2" d="M106.62,227.71a2.55,2.55,0,0,0,.28,1.34c.18.41.47.77.82.81a2,2,0,0,0,.55,0s0,0,.07-.1a1.52,1.52,0,0,0,.09-.28,3.24,3.24,0,0,0,0-1.28,9.3,9.3,0,0,1-.12-2.89,6.52,6.52,0,0,1,.34-1.42,1.45,1.45,0,0,1,1-1A1.43,1.43,0,0,0,109,224a8.82,8.82,0,0,0-.13,1.36,12.4,12.4,0,0,0,.26,2.76,3.79,3.79,0,0,1,0,1.53,3,3,0,0,1-.15.38.78.78,0,0,1-.43.38,1.76,1.76,0,0,1-.84,0,1.56,1.56,0,0,1-1-1.2A2.39,2.39,0,0,1,106.62,227.71Z"/><path class="cls-2" d="M108.85,228.11a1.84,1.84,0,0,0,.87,1.52,1,1,0,0,0,.76.13.47.47,0,0,0,.26-.55c0-.24-.14-.56-.2-.89s-.11-.65-.14-1a9.26,9.26,0,0,1,0-2,8.44,8.44,0,0,1,.52-1.91,3.3,3.3,0,0,1,1.23-1.6,4.55,4.55,0,0,1,1.82-.81,4.38,4.38,0,0,1,1,.13l.47.09.23.05a.53.53,0,0,1,.12,0s0,0,0,.07-.06,0,0,0,.06,0,0,0-.07,0-.11,0H115a4,4,0,0,0-.92,0,4.31,4.31,0,0,0-1.55.88,4.87,4.87,0,0,0-1.42,3.21,8.61,8.61,0,0,0-.1,1.83,7,7,0,0,0,.11.92,7.68,7.68,0,0,1,.14,1,.93.93,0,0,1-.65,1,1.32,1.32,0,0,1-1-.27A1.91,1.91,0,0,1,108.85,228.11Z"/><path class="cls-2" d="M119.67,228.12a12,12,0,0,1-3.82-.12,25,25,0,0,1-3.72-.95,35,35,0,0,1-3.53-1.46l-1.7-.89c-.54-.33-1.09-.65-1.62-1l3.52,1.43c1.18.45,2.34.94,3.54,1.31a34.77,34.77,0,0,0,3.61,1.07,18.78,18.78,0,0,0,1.84.39A11.77,11.77,0,0,0,119.67,228.12Z"/><path class="cls-2" d="M115.55,224.65a2.19,2.19,0,0,1,1.34,0,2.09,2.09,0,0,1,1.11.74c-.46-.08-.83-.24-1.23-.33S116,224.83,115.55,224.65Z"/><path class="cls-2" d="M107,186.42a4.18,4.18,0,0,1,5,1.83l-.54.09a1.34,1.34,0,0,1,.59-.86,4.4,4.4,0,0,1,.8-.42,6.59,6.59,0,0,1,1.68-.48,6.91,6.91,0,0,1,3.46.36l-.4.51a7.8,7.8,0,0,0-1.32-1.31,3,3,0,0,1-1-1.83c-.07-.8.64-1.36.32-1.79a1,1,0,0,0-.8-.25,2.17,2.17,0,0,1-1-.07,2.59,2.59,0,0,0,1-.08,1.17,1.17,0,0,1,1,.21,1,1,0,0,1,.09,1.09,1.65,1.65,0,0,0-.15.84,2.45,2.45,0,0,0,1,1.42,7.62,7.62,0,0,1,1.47,1.39l.62.88-1-.37a6.87,6.87,0,0,0-3.12-.31,6.76,6.76,0,0,0-1.53.4c-.5.18-1,.44-1.07.77l-.18.82-.36-.73A4.16,4.16,0,0,0,107,186.42Z"/><path class="cls-2" d="M113.67,189c-.16-.42-.26-.85-.38-1.27s-.22-.83-.36-1.22a6.16,6.16,0,0,0-1.24-2.21,3.28,3.28,0,0,1,1.75,2,5.59,5.59,0,0,1,.26,1.33A6.67,6.67,0,0,1,113.67,189Z"/><path class="cls-2" d="M116.1,188.25a1.7,1.7,0,0,1,1,.4,1.68,1.68,0,0,1,.61.91c-.32-.21-.55-.44-.83-.64S116.37,188.52,116.1,188.25Z"/><path class="cls-2" d="M200.08,106.78a2.54,2.54,0,0,0-1.33.28c-.41.18-.77.47-.81.81a1.73,1.73,0,0,0,0,.56s0,0,.09.07a1.4,1.4,0,0,0,.29.09,3.24,3.24,0,0,0,1.28,0,9.23,9.23,0,0,1,2.88-.11,6.36,6.36,0,0,1,1.42.33,1.48,1.48,0,0,1,1,1,1.39,1.39,0,0,0-1.08-.72,9,9,0,0,0-1.37-.14,12.93,12.93,0,0,0-2.75.26,4,4,0,0,1-1.53,0,3.2,3.2,0,0,1-.39-.16.68.68,0,0,1-.37-.42,1.81,1.81,0,0,1,0-.85,1.55,1.55,0,0,1,1.2-1A2.28,2.28,0,0,1,200.08,106.78Z"/><path class="cls-2" d="M199.68,109a1.88,1.88,0,0,0-1.52.86,1,1,0,0,0-.13.77c.06.2.29.28.54.26s.57-.14.9-.2.65-.11,1-.14a9.26,9.26,0,0,1,2,0,9,9,0,0,1,1.91.53,3.34,3.34,0,0,1,1.6,1.23,4.51,4.51,0,0,1,.8,1.83,4.29,4.29,0,0,1-.13,1l-.09.47-.05.24a.34.34,0,0,1,0,.12s0,0-.06,0,0-.06,0,0,0,.07,0,0,0-.07,0-.11v-.72a4,4,0,0,0,0-.92,4.17,4.17,0,0,0-.88-1.55,4.88,4.88,0,0,0-3.2-1.43,8.65,8.65,0,0,0-1.83-.1,9.24,9.24,0,0,0-.92.1,6.15,6.15,0,0,1-1,.15,1,1,0,0,1-1-.65,1.35,1.35,0,0,1,.27-1A1.9,1.9,0,0,1,199.68,109Z"/><path class="cls-2" d="M199.65,119.83a12,12,0,0,1,.13-3.82,25,25,0,0,1,.95-3.72,35.11,35.11,0,0,1,1.48-3.53l.89-1.69c.33-.54.65-1.09,1-1.62L202.66,109c-.45,1.18-.94,2.34-1.31,3.54a34.88,34.88,0,0,0-1.09,3.61c-.15.6-.28,1.22-.39,1.84A13,13,0,0,0,199.65,119.83Z"/><path class="cls-2" d="M203.13,115.72a2.16,2.16,0,0,1,0,1.33,2.07,2.07,0,0,1-.74,1.11c.08-.45.23-.82.32-1.23S203,116.15,203.13,115.72Z"/><path class="cls-2" d="M169.54,115.39c2.82.58,5.6,1.31,8.38,2s5.52,1.54,8.27,2.38l-.53.78q-1.84-2.43-3.62-4.92c-.58-.84-1.19-1.65-1.76-2.5s-1.15-1.68-1.69-2.54c.69.74,1.35,1.52,2,2.28s1.31,1.56,2,2.34c1.31,1.55,2.59,3.14,3.85,4.74l.93,1.18-1.46-.41c-2.76-.78-5.51-1.62-8.24-2.5S172.22,116.44,169.54,115.39Z"/><path class="cls-2" d="M178.8,115.82c.5-1.17,1.07-2.3,1.67-3.41s1.23-2.2,1.9-3.27l.24-.38.13.41c.29.88.57,1.77.8,2.68-.44-.83-.81-1.68-1.19-2.54l.38,0c-.58,1.12-1.21,2.22-1.85,3.31S179.54,114.79,178.8,115.82Z"/><path class="cls-2" d="M284.7,151.32a12.12,12.12,0,0,0,3.14,1.06,2.72,2.72,0,0,0,2.74-.68,2.14,2.14,0,0,0,.5-1.31.89.89,0,0,1,.27-.65.61.61,0,0,1,.45-.14,1.06,1.06,0,0,1,.32.08,1.74,1.74,0,0,0,.3.12.57.57,0,0,0,.25,0,1.8,1.8,0,0,0,.57-.45c.13-.2.54-.17.61-.14l.43.1a4.75,4.75,0,0,1,1.55.75,5.91,5.91,0,0,0-1.62-.36c-.25,0-.65,0-.58,0a2.2,2.2,0,0,1-.69.66,1.2,1.2,0,0,1-.57.13,1.85,1.85,0,0,1-.51-.13c-.13,0-.09,0,0,0s0,0,0,.13a2.75,2.75,0,0,1-2.33,2.73,4.05,4.05,0,0,1-1.81-.17A7.52,7.52,0,0,1,284.7,151.32Z"/><path class="cls-2" d="M288.93,146.42a7,7,0,0,0,1.47.16,1.83,1.83,0,0,0,.66-.16,3.8,3.8,0,0,1,.7-.34,2.71,2.71,0,0,1,1.62,0,3.65,3.65,0,0,1,1.32.81,8,8,0,0,0-1.42-.45,2.68,2.68,0,0,0-1.38,0,5.32,5.32,0,0,0-.68.29,1.77,1.77,0,0,1-.82.12A3.51,3.51,0,0,1,288.93,146.42Z"/><path class="cls-2" d="M300.76,149.49c-.57-.28-1.13-.58-1.68-.89a8.74,8.74,0,0,1-1.63-1.09,2.82,2.82,0,0,1-.62-.92c-.15-.33-.24-.63-.34-.9a7.43,7.43,0,0,0-.81-1.5,3.2,3.2,0,0,0-2.6-1.5,2.16,2.16,0,0,0-1.39.41c-.15.11-.45.43-.68.65a1.51,1.51,0,0,1-1.24.3l.46-.4a2.32,2.32,0,0,0,.5,1.28,2.5,2.5,0,0,1,.35.8,1.11,1.11,0,0,1-.08.84,1.68,1.68,0,0,0-.65-1.35,7.17,7.17,0,0,1-.57-.63,1.79,1.79,0,0,1-.36-1l0-.38.49,0a.77.77,0,0,0,.51-.22,6.75,6.75,0,0,1,.59-.73,3.25,3.25,0,0,1,2.07-.84,4,4,0,0,1,2.14.54,4.81,4.81,0,0,1,1.52,1.49,7.14,7.14,0,0,1,.84,1.85,4,4,0,0,0,.57,1.57,10.37,10.37,0,0,0,1.29,1.27Q300.1,148.8,300.76,149.49Z"/><path class="cls-2" d="M308.77,158.12a4.2,4.2,0,0,1-4.81,2.19l.33-.44a1.36,1.36,0,0,1,.18,1,3.76,3.76,0,0,1-.27.86,6.07,6.07,0,0,1-.86,1.53,6.93,6.93,0,0,1-2.7,2.18l-.08-.65a7.67,7.67,0,0,0,1.86,0,2.85,2.85,0,0,1,2,.58c.62.51.51,1.41,1,1.49a1,1,0,0,0,.75-.39,2.15,2.15,0,0,1,.74-.63,2.32,2.32,0,0,0-.62.73,1.16,1.16,0,0,1-.88.56c-.45,0-.71-.42-.83-.7a1.64,1.64,0,0,0-.49-.71,2.45,2.45,0,0,0-1.68-.32,8,8,0,0,1-2,0l-1.05-.18,1-.46a6.8,6.8,0,0,0,2.44-2,7.18,7.18,0,0,0,.81-1.36c.22-.48.39-1,.21-1.31l-.45-.71.77.27A4.18,4.18,0,0,0,308.77,158.12Z"/><path class="cls-2" d="M302.18,161a13,13,0,0,1,1.17.64c.38.21.74.43,1.12.61a6.38,6.38,0,0,0,2.43.69,3.25,3.25,0,0,1-2.67-.21,5.67,5.67,0,0,1-1.12-.76A6.58,6.58,0,0,1,302.18,161Z"/><path class="cls-2" d="M301,163.27a1.78,1.78,0,0,1-1,.44,1.73,1.73,0,0,1-1.07-.22c.37-.08.7-.08,1-.13S300.6,163.27,301,163.27Z"/><path class="cls-2" d="M312.28,169.93c-.59,2.82-1.32,5.6-2,8.37s-1.55,5.53-2.4,8.27l-.77-.53q2.43-1.84,4.93-3.6c.83-.59,1.65-1.2,2.5-1.76s1.68-1.15,2.54-1.69c-.75.69-1.52,1.35-2.29,2s-1.56,1.3-2.34,2q-2.34,2-4.74,3.84l-1.19.93.42-1.46c.78-2.76,1.63-5.5,2.51-8.23S311.23,172.61,312.28,169.93Z"/><path class="cls-2" d="M311.83,179.19c1.16.5,2.29,1.08,3.4,1.68s2.2,1.23,3.27,1.9l.38.24-.41.14c-.88.28-1.77.57-2.68.79.83-.44,1.68-.81,2.54-1.18l0,.37c-1.12-.58-2.22-1.21-3.3-1.85S312.85,179.94,311.83,179.19Z"/><path class="cls-2" d="M240.07,105.51c3.58,6.1,6.84,12.35,10.06,18.62s6.27,12.63,9.23,19l-2.28.3c.45-2.46,1-4.9,1.47-7.35s1-4.89,1.56-7.34,1.09-4.88,1.69-7.31,1.2-4.86,1.86-7.27q-.35,3.73-.83,7.46c-.3,2.49-.66,5-1,7.44s-.72,4.95-1.14,7.41-.78,4.94-1.23,7.4l-.66,3.6-1.62-3.3q-4.65-9.49-9-19.14C245.36,118.6,242.55,112.13,240.07,105.51Z"/><path class="cls-2" d="M254.49,123.12c2.95-1,5.95-1.82,9-2.54,1.51-.36,3-.71,4.54-1s3-.61,4.57-.89l1.08-.19-.52.92q-.86,1.5-1.74,3c-.62,1-1.2,1.95-1.86,2.9.39-1.09.85-2.14,1.28-3.2s.93-2.1,1.41-3.13l.56.73c-1.5.38-3,.75-4.52,1.09s-3,.65-4.55.95C260.66,122.31,257.59,122.81,254.49,123.12Z"/><path class="cls-2" d="M324.9,205.36c-4.68,5.3-9.62,10.34-14.58,15.34s-10.06,9.87-15.22,14.67l-1-2.07c2.47-.33,5-.6,7.44-.89s5-.52,7.46-.79,5-.47,7.47-.66,5-.36,7.5-.48q-3.68.83-7.36,1.52c-2.45.49-4.92.92-7.38,1.35s-4.93.86-7.4,1.22-4.93.79-7.41,1.12l-3.63.5,2.63-2.57q7.59-7.37,15.42-14.46C314.1,214.45,319.38,209.78,324.9,205.36Z"/><path class="cls-2" d="M312.63,224.53c1.87,2.5,3.58,5.09,5.2,7.73.8,1.33,1.61,2.65,2.37,4s1.53,2.7,2.26,4.07l.52,1-1-.21c-1.12-.23-2.24-.47-3.36-.74s-2.22-.53-3.33-.86c1.15,0,2.29.15,3.44.23s2.28.23,3.41.36l-.52.76c-.83-1.31-1.65-2.62-2.44-4s-1.56-2.68-2.32-4C315.31,230.14,313.89,227.38,312.63,224.53Z"/><path class="cls-2" d="M256.27,317c-6.49-2.81-12.81-5.94-19.1-9.11s-12.51-6.5-18.67-9.92l1.66-1.59c1.09,2.25,2.1,4.54,3.15,6.8s2,4.57,3.06,6.85,2,4.59,2.95,6.9,1.89,4.63,2.78,7c-1.28-2.15-2.52-4.33-3.73-6.52s-2.39-4.4-3.57-6.6-2.34-4.42-3.45-6.66-2.28-4.45-3.37-6.7l-1.59-3.3,3.26,1.71Q229,300.75,238.18,306C244.28,309.52,250.36,313.09,256.27,317Z"/><path class="cls-2" d="M234.24,311.24c-1.8,2.55-3.73,5-5.74,7.34-1,1.18-2,2.36-3.07,3.5s-2.09,2.29-3.16,3.41l-.77.8-.12-1.06c-.12-1.14-.24-2.28-.34-3.42s-.18-2.28-.21-3.44c.33,1.11.57,2.23.85,3.34s.49,2.24.71,3.36l-.88-.26c1-1.19,2-2.38,3-3.54s2.06-2.32,3.11-3.46C229.74,315.54,231.92,313.33,234.24,311.24Z"/><path class="cls-2" d="M128.88,286.32c.67-7,1.68-14,2.74-21s2.31-13.9,3.65-20.82l2,1.09c-1.8,1.73-3.66,3.4-5.49,5.1s-3.7,3.36-5.56,5-3.74,3.32-5.65,4.94-3.81,3.24-5.77,4.81c1.65-1.88,3.34-3.74,5.05-5.56s3.43-3.64,5.16-5.45,3.48-3.59,5.26-5.34,3.53-3.55,5.33-5.28l2.64-2.54-.62,3.63c-1.18,6.95-2.51,13.87-3.93,20.77S130.74,279.5,128.88,286.32Z"/><path class="cls-2" d="M127.5,263.6c-3-.92-5.89-2-8.76-3.18-1.43-.6-2.86-1.19-4.28-1.83s-2.82-1.29-4.22-2l-1-.47,1-.45c1-.47,2.08-.94,3.14-1.38s2.12-.88,3.2-1.27c-1,.65-1.94,1.23-2.91,1.84s-2,1.16-3,1.72l0-.92c1.44.57,2.88,1.15,4.3,1.76s2.84,1.25,4.26,1.89C122,260.65,124.8,262,127.5,263.6Z"/><path class="cls-2" d="M118.53,155.71c6.9-1.56,13.85-2.76,20.81-3.9s13.93-2.12,20.92-3l-.4,2.27c-2.21-1.18-4.38-2.43-6.56-3.64s-4.34-2.48-6.51-3.73-4.31-2.53-6.44-3.84-4.27-2.62-6.37-4c2.31,1,4.59,2,6.86,3.07s4.52,2.14,6.78,3.22,4.49,2.2,6.71,3.34,4.46,2.26,6.67,3.43l3.23,1.73-3.64.54q-10.46,1.53-21,2.7C132.61,154.66,125.6,155.36,118.53,155.71Z"/><path class="cls-2" d="M139.71,147.35c-.06-3.12.07-6.23.31-9.32.12-1.54.24-3.09.41-4.63s.34-3.08.55-4.62l.14-1.1.73.79c.77.84,1.54,1.69,2.29,2.56s1.49,1.74,2.19,2.65c-.91-.7-1.77-1.46-2.65-2.2s-1.71-1.51-2.56-2.29l.87-.31c-.09,1.55-.2,3.09-.34,4.64s-.3,3.08-.48,4.62C140.81,141.22,140.35,144.29,139.71,147.35Z"/></g></g></g></svg>